<?xml version="1.0" encoding="UTF-8" standalone="no"?>
<!-- Created with Inkscape (http://www.inkscape.org/) -->

<svg
   xmlns:dc="http://purl.org/dc/elements/1.1/"
   xmlns:cc="http://creativecommons.org/ns#"
   xmlns:rdf="http://www.w3.org/1999/02/22-rdf-syntax-ns#"
   xmlns:svg="http://www.w3.org/2000/svg"
   xmlns="http://www.w3.org/2000/svg"
   xmlns:sodipodi="http://sodipodi.sourceforge.net/DTD/sodipodi-0.dtd"
   xmlns:inkscape="http://www.inkscape.org/namespaces/inkscape"
   width="155.60179"
   height="153.75516"
   id="svg2"
   version="1.1"
   inkscape:version="0.48.4 r9939"
   sodipodi:docname="cavalo de pau.svg">
  <defs
     id="defs4">
    <filter
       inkscape:collect="always"
       id="filter4599"
       color-interpolation-filters="sRGB">
      <feGaussianBlur
         inkscape:collect="always"
         stdDeviation="1.4377394"
         id="feGaussianBlur4601" />
    </filter>
  </defs>
  <sodipodi:namedview
     id="base"
     pagecolor="#ffffff"
     bordercolor="#666666"
     borderopacity="1.0"
     inkscape:pageopacity="0.0"
     inkscape:pageshadow="2"
     inkscape:zoom="1.9631055"
     inkscape:cx="175.09692"
     inkscape:cy="24.945969"
     inkscape:document-units="px"
     inkscape:current-layer="layer1"
     showgrid="false"
     inkscape:window-width="1600"
     inkscape:window-height="874"
     inkscape:window-x="0"
     inkscape:window-y="1"
     inkscape:window-maximized="1" />
  <metadata
     id="metadata7">
    <rdf:RDF>
      <cc:Work
         rdf:about="">
        <dc:format>image/svg+xml</dc:format>
        <dc:type
           rdf:resource="http://purl.org/dc/dcmitype/StillImage" />
        <dc:title />
      </cc:Work>
    </rdf:RDF>
  </metadata>
  <g
     inkscape:label="Camada 1"
     inkscape:groupmode="layer"
     id="layer1"
     transform="translate(-439.64065,-708.12413)">
    <g
       id="g6811">
      <path
         style="fill:none;stroke:#666666;stroke-width:4;stroke-linecap:round;stroke-miterlimit:4;stroke-dasharray:none;filter:url(#filter4599)"
         d="m 514.72949,856.32512 c -2.01407,-0.0965 -4.54543,-0.30664 -5.62524,-0.46697 -1.0798,-0.16033 -2.3374,-0.29003 -2.79464,-0.28824 -0.45725,0.002 -2.00222,-0.12529 -3.43327,-0.28243 -5.75349,-0.63177 -8.25857,-0.88821 -9.63671,-0.98648 -1.42453,-0.10158 -6.1643,-0.77807 -9.5273,-1.3598 -1.95208,-0.33767 -6.82176,-1.55854 -9.55338,-2.39512 -1.00704,-0.30841 -2.61155,-0.74033 -3.56558,-0.95982 -4.15693,-0.95637 -8.42275,-2.62231 -11.19551,-4.3722 -0.83872,-0.52932 -2.17543,-1.36151 -2.97046,-1.84931 -0.79503,-0.4878 -2.04018,-1.41567 -2.767,-2.06193 -0.72683,-0.64626 -2.00505,-1.654 -2.84049,-2.23941 -0.83545,-0.58541 -2.02243,-1.62218 -2.63773,-2.30394 -2.48699,-2.75555 -3.21972,-4.91213 -3.08378,-9.07625 0.0777,-2.38059 0.12117,-2.61666 0.69707,-3.78648 0.67224,-1.36551 2.56518,-3.31197 3.86656,-3.97588 0.64856,-0.33087 0.99456,-0.36295 2.83653,-0.26296 2.28334,0.12395 2.72344,0.27582 4.79615,1.65513 4.6764,3.11196 10.42669,6.07978 11.09101,5.72425 0.33482,-0.1792 3.06067,-3.72638 4.40097,-5.72706 1.60958,-2.40262 3.98909,-7.5882 5.15105,-11.22549 0.8713,-2.72742 2.02292,-8.18064 2.29951,-10.88875 0.36746,-3.59781 1.03909,-7.31635 1.83096,-10.13727 l 0.24758,-0.88193 -0.82814,-1.04541 c -1.07084,-1.35178 -1.48622,-2.34347 -1.97172,-4.70735 -0.32685,-1.59138 -0.37633,-2.3473 -0.28388,-4.33652 0.14602,-3.14216 0.64887,-5.75294 2.35721,-12.23862 1.02673,-3.89793 1.26442,-5.28899 1.20279,-7.03919 -0.0596,-1.69244 -0.25588,-2.03101 -0.731,-1.26083 -1.78234,2.88921 -2.91817,4.10994 -4.51665,4.85427 -2.45906,1.14506 -7.12867,0.0633 -9.60545,-2.22517 -1.58354,-1.46316 -2.15457,-2.62346 -2.15129,-4.37135 0.002,-0.99387 0.0983,-1.51532 0.35174,-1.90213 0.2277,-0.34751 0.3112,-0.72276 0.24003,-1.07864 -0.1355,-0.67747 0.18243,-1.64591 0.77552,-2.3623 0.43917,-0.53047 0.45104,-0.64463 0.45104,-4.3392 l 0,-3.7944 -0.95343,-0.45266 c -1.22777,-0.5829 -1.44946,-0.84805 -1.84019,-2.20092 -0.25794,-0.89309 -0.27493,-1.17456 -0.0847,-1.40375 0.2076,-0.25014 0.29437,-0.23362 0.68101,0.12961 0.55269,0.51922 0.94829,0.3821 1.35436,-0.46943 0.2719,-0.5702 0.28914,-1.01573 0.13167,-3.40333 -0.21764,-3.29978 -0.10664,-4.26481 0.72149,-6.27256 0.54386,-1.31856 0.86583,-1.76796 2.30118,-3.21193 1.78718,-1.79792 2.59076,-2.26271 4.81979,-2.78778 0.82933,-0.19536 1.73288,-0.26025 2.67318,-0.19197 l 1.42042,0.10313 -0.12969,-0.70964 c -0.98357,-5.38213 -1.23655,-7.62054 -0.88577,-7.83733 0.40183,-0.24835 3.04936,1.08995 4.5818,2.31606 2.15437,1.7237 3.41941,3.88948 3.81578,6.53267 0.0716,0.47765 0.23991,0.95948 0.37396,1.07073 0.2679,0.22234 0.87078,0.0691 0.87078,-0.22131 0,-0.34688 1.75015,-0.95594 3.06326,-1.06603 2.73265,-0.2291 7.8233,1.03016 10.10682,2.50009 0.65374,0.42083 1.88246,1.35013 2.73049,2.06513 0.84803,0.715 2.1763,1.70472 2.95171,2.19938 1.13097,0.72147 1.39784,0.98225 1.34914,1.31836 -0.0732,0.50535 -0.60346,0.67741 -2.18078,0.70764 -1.32181,0.0253 -1.94142,0.28652 -1.4162,0.59699 0.88471,0.52299 2.63492,2.12376 3.75896,3.43801 1.38074,1.61439 2.00853,2.71513 2.6885,4.71388 0.24555,0.7218 0.94256,2.39428 1.54891,3.71663 1.36867,2.98486 1.34261,3.05388 -1.05002,2.78099 -1.51962,-0.17331 -2.55457,-0.0393 -2.53469,0.32827 0.0115,0.21303 0.51497,1.07212 1.68924,2.88256 l 1.02275,1.57684 1.68932,-0.10945 c 1.08111,-0.07 1.93998,-0.0267 2.38556,0.12034 1.3336,0.44013 2.82882,2.61229 2.83753,4.12217 0.006,1.06924 -0.36632,2.3731 -0.7866,2.75345 -0.72026,0.65183 -0.39886,1.21945 1.12401,1.98507 1.5634,0.786 3.19073,1.03312 6.12342,0.92991 4.45934,-0.15695 6.64933,-0.90956 6.64933,-2.28512 0,-0.31385 0.12343,-0.80934 0.2743,-1.10108 0.27547,-0.5327 1.90031,-2.14139 2.17875,-2.15709 0.0819,-0.005 0.53879,-0.0836 1.01537,-0.17552 0.63909,-0.12326 1.04376,-0.0931 1.54187,0.11499 1.28755,0.53783 1.87224,1.40303 2.16279,3.20042 0.049,0.30326 0.4101,0.34456 3.62003,0.41407 3.9668,0.0859 6.30429,0.46528 8.92524,1.44858 1.75981,0.66023 3.91838,1.90104 4.98763,2.86704 l 0.75454,0.68168 0.90568,-0.87861 c 0.99762,-0.96781 3.3538,-2.59388 4.7971,-3.31062 4.06686,-2.01959 8.85484,-1.84191 13.68992,0.50803 2.13316,1.03676 4.49742,3.23459 5.71661,5.3142 1.466,2.5006 2.37845,5.77945 2.90715,10.44669 0.17412,1.53706 0.44345,3.61859 0.59852,4.62562 0.55167,3.58268 2.03628,6.99356 3.39274,7.79484 0.9284,0.54842 0.64267,0.93088 -0.90261,1.20818 -0.74101,0.13297 -1.93272,0.25087 -2.64824,0.262 -0.71553,0.0111 -1.30096,0.0632 -1.30096,0.11568 0,0.0525 0.65293,0.85887 1.45096,1.79196 1.44246,1.68659 2.15074,2.27233 3.70899,3.06729 0.45103,0.2301 0.81481,0.55494 0.81481,0.7276 0,0.44401 -1.93737,2.75215 -2.88622,3.43857 -0.43959,0.31801 -0.9891,0.72261 -1.22114,0.89911 l -0.42189,0.32092 0.45016,0.48002 c 0.37262,0.39733 0.41316,0.54917 0.23536,0.8814 -0.42677,0.79743 -2.25639,0.76868 -4.66637,-0.0733 -1.73969,-0.60781 -2.96598,-1.49619 -3.87808,-2.80944 -1.15337,-1.66064 -1.2264,-1.72241 -2.03629,-1.72241 -1.57607,0 -3.63202,-1.56244 -5.22277,-3.96909 -1.93131,-2.9219 -3.12355,-6.75284 -4.14448,-13.31718 -0.91234,-5.86616 -2.21389,-9.51132 -3.80862,-10.66653 -1.09117,-0.79045 -1.56827,-0.87502 -2.78056,-0.49288 l -1.03477,0.32619 -1.6e-4,2.73661 c -10e-5,1.70116 -0.11196,3.28355 -0.29564,4.18212 -0.30595,1.49669 -1.77837,6.16081 -2.44567,7.74704 l -0.3807,0.90497 0.41906,1.25928 c 1.10347,3.31595 1.41011,6.96211 1.73555,20.63708 0.15061,6.32872 0.25309,8.08904 0.57224,9.82944 0.21382,1.16604 0.47283,3.24757 0.57557,4.62562 0.19965,2.67792 0.73122,5.13404 1.82841,8.44821 0.74857,2.26114 1.03713,2.89218 1.89759,4.1498 0.54375,0.79472 0.61652,0.83572 1.31664,0.74181 1.51204,-0.20281 4.20912,-1.22994 7.1121,-2.7085 1.64305,-0.83685 4.1442,-2.11408 5.55809,-2.83829 3.27772,-1.67887 4.22466,-1.99668 5.49944,-1.84571 2.38494,0.28247 5.01267,2.32918 5.9729,4.65224 0.49923,1.2078 0.54284,1.49101 0.45895,2.98053 -0.15052,2.67232 -1.60958,5.55858 -3.99843,7.90956 -1.2306,1.2111 -4.89003,3.55897 -7.20229,4.62096 -1.89893,0.87216 -5.75768,2.15412 -8.11964,2.69753 -0.95403,0.21949 -2.55855,0.6523 -3.56558,0.9618 -2.50979,0.77135 -8.47597,2.24764 -10.11855,2.50377 -1.73545,0.2706 -7.03748,1.15177 -8.28757,1.37734 -0.53002,0.0956 -2.00443,0.26169 -3.27648,0.369 -1.27204,0.10731 -3.39694,0.32064 -4.72199,0.47407 -4.26074,0.49335 -6.59496,0.72031 -9.0585,0.88077 -4.18653,0.2727 -11.33371,0.354 -15.12964,0.17211 z"
         id="path4597"
         inkscape:connector-curvature="0" />
      <path
         id="path4595"
         transform="translate(439.64065,708.12413)"
         d="M 38.4375 5.46875 C 38.323657 5.453529 38.237729 5.4689563 38.1875 5.5 C 37.83672 5.71679 38.07893 7.96162 39.0625 13.34375 L 39.1875 14.03125 L 37.78125 13.9375 C 36.84095 13.86922 35.92308 13.92964 35.09375 14.125 C 32.86472 14.65007 32.06843 15.10833 30.28125 16.90625 C 28.8459 18.35022 28.51261 18.80644 27.96875 20.125 C 27.14062 22.13275 27.03236 23.10647 27.25 26.40625 C 27.40747 28.79385 27.3969 29.2423 27.125 29.8125 C 26.71893 30.66403 26.33394 30.80047 25.78125 30.28125 C 25.39461 29.91802 25.30135 29.90611 25.09375 30.15625 C 24.90352 30.38544 24.89831 30.66941 25.15625 31.5625 C 25.54698 32.91537 25.77223 33.1671 27 33.75 L 27.96875 34.21875 L 27.96875 38 C 27.96875 41.69457 27.93917 41.81328 27.5 42.34375 C 26.90691 43.06014 26.6145 44.01003 26.75 44.6875 C 26.82117 45.04338 26.7277 45.43374 26.5 45.78125 C 26.24656 46.16806 26.15825 46.69363 26.15625 47.6875 C 26.15297 49.43539 26.72896 50.59934 28.3125 52.0625 C 30.78928 54.35097 35.44719 55.42631 37.90625 54.28125 C 39.50473 53.53692 40.62391 52.32671 42.40625 49.4375 C 42.88137 48.66732 43.09665 48.99506 43.15625 50.6875 C 43.21788 52.4377 42.96423 53.82082 41.9375 57.71875 C 40.22916 64.20443 39.73977 66.82659 39.59375 69.96875 C 39.5013 71.95797 39.54815 72.72112 39.875 74.3125 C 40.3605 76.67638 40.77291 77.64822 41.84375 79 L 42.6875 80.0625 L 42.4375 80.9375 C 41.64563 83.75842 40.96121 87.46469 40.59375 91.0625 C 40.31716 93.77061 39.1838 99.24133 38.3125 101.96875 C 37.15054 105.60604 34.76583 110.78488 33.15625 113.1875 C 31.81595 115.18818 29.08482 118.72705 28.75 118.90625 C 28.08568 119.26178 22.33265 116.29946 17.65625 113.1875 C 15.58354 111.80819 15.12709 111.6552 12.84375 111.53125 C 11.00178 111.43126 10.67981 111.45038 10.03125 111.78125 C 8.72987 112.44516 6.82849 114.41574 6.15625 115.78125 C 5.58035 116.95107 5.54645 117.18191 5.46875 119.5625 C 5.33281 123.72662 6.04426 125.86945 8.53125 128.625 C 9.14655 129.30676 10.35205 130.35209 11.1875 130.9375 C 12.02294 131.52291 13.30442 132.54124 14.03125 133.1875 C 14.75807 133.83376 15.98622 134.7622 16.78125 135.25 C 17.57628 135.7378 18.91128 136.56443 19.75 137.09375 C 22.52276 138.84364 26.78057 140.51238 30.9375 141.46875 C 31.89153 141.68824 33.52421 142.12909 34.53125 142.4375 C 37.26287 143.27408 42.11042 144.47483 44.0625 144.8125 C 47.4255 145.39423 52.16922 146.08592 53.59375 146.1875 C 54.97189 146.28577 57.49651 146.52448 63.25 147.15625 C 64.68105 147.31339 66.199 147.4395 66.65625 147.4375 C 67.11349 147.43571 68.38895 147.55842 69.46875 147.71875 C 70.54856 147.87908 73.07968 148.091 75.09375 148.1875 C 78.88968 148.36939 86.03222 148.30395 90.21875 148.03125 C 92.68229 147.87079 95.02051 147.6496 99.28125 147.15625 C 100.6063 147.00282 102.72796 146.79481 104 146.6875 C 105.27205 146.58019 106.75123 146.4081 107.28125 146.3125 C 108.53134 146.08693 113.82705 145.2081 115.5625 144.9375 C 117.20508 144.68137 123.17771 143.20885 125.6875 142.4375 C 126.69453 142.128 128.29597 141.68824 129.25 141.46875 C 131.61196 140.92534 135.47607 139.62216 137.375 138.75 C 139.68726 137.68801 143.3319 135.36735 144.5625 134.15625 C 146.95135 131.80527 148.41198 128.89107 148.5625 126.21875 C 148.64639 124.72923 148.59298 124.4578 148.09375 123.25 C 147.13352 120.92694 144.50994 118.87622 142.125 118.59375 C 140.85022 118.44278 139.90272 118.75863 136.625 120.4375 C 135.21111 121.16171 132.7368 122.4444 131.09375 123.28125 C 128.19077 124.75981 125.48079 125.79719 123.96875 126 C 123.26863 126.09391 123.2 126.04472 122.65625 125.25 C 121.79579 123.99238 121.49857 123.35489 120.75 121.09375 C 119.65281 117.77958 119.13715 115.33417 118.9375 112.65625 C 118.83476 111.2782 118.55757 109.19729 118.34375 108.03125 C 118.0246 106.29085 117.93186 104.51622 117.78125 98.1875 C 117.45581 84.51253 117.13472 80.87845 116.03125 77.5625 L 115.625 76.3125 L 116 75.40625 C 116.6673 73.82002 118.13155 69.15294 118.4375 67.65625 C 118.62118 66.75768 118.7499 65.16991 118.75 63.46875 L 118.75 60.71875 L 119.78125 60.40625 C 120.99354 60.02411 121.47133 60.1158 122.5625 60.90625 C 124.15723 62.06146 125.46266 65.69634 126.375 71.5625 C 127.39593 78.12684 128.56869 81.9531 130.5 84.875 C 132.09075 87.28165 134.14268 88.84375 135.71875 88.84375 C 136.52864 88.84375 136.62788 88.90186 137.78125 90.5625 C 138.69335 91.87575 139.91656 92.76719 141.65625 93.375 C 144.06623 94.21698 145.88573 94.26618 146.3125 93.46875 C 146.4903 93.13652 146.46637 92.95983 146.09375 92.5625 L 145.625 92.09375 L 146.0625 91.78125 C 146.29454 91.60475 146.84166 91.19301 147.28125 90.875 C 148.2301 90.18858 150.15625 87.88151 150.15625 87.4375 C 150.15625 87.26484 149.79478 86.94885 149.34375 86.71875 C 147.7855 85.92379 147.06746 85.34284 145.625 83.65625 C 144.82697 82.72316 144.1875 81.89625 144.1875 81.84375 C 144.1875 81.79127 144.78447 81.72985 145.5 81.71875 C 146.21552 81.70762 147.38399 81.60172 148.125 81.46875 C 149.67028 81.19145 149.95965 80.79842 149.03125 80.25 C 147.67479 79.44872 146.20792 76.05143 145.65625 72.46875 C 145.50118 71.46172 145.20537 69.38081 145.03125 67.84375 C 144.50255 63.17651 143.591 59.90685 142.125 57.40625 C 140.90581 55.32664 138.53941 53.13051 136.40625 52.09375 C 131.57117 49.74381 126.78561 49.54291 122.71875 51.5625 C 121.27545 52.27924 118.93512 53.90719 117.9375 54.875 L 117.03125 55.75 L 116.28125 55.09375 C 115.212 54.12775 113.04106 52.87898 111.28125 52.21875 C 108.6603 51.23545 106.3418 50.86715 102.375 50.78125 C 99.16507 50.71174 98.799 50.64701 98.75 50.34375 C 98.45945 48.54636 97.85005 47.69408 96.5625 47.15625 C 96.06439 46.94816 95.67034 46.90799 95.03125 47.03125 C 94.55467 47.12317 94.11315 47.21375 94.03125 47.21875 C 93.75281 47.23445 92.11922 48.8423 91.84375 49.375 C 91.69288 49.66674 91.5625 50.1549 91.5625 50.46875 C 91.5625 51.84431 89.36559 52.59305 84.90625 52.75 C 81.97356 52.85321 80.34465 52.5985 78.78125 51.8125 C 77.25838 51.04688 76.93599 50.49558 77.65625 49.84375 C 78.07653 49.4634 78.47475 48.16299 78.46875 47.09375 C 78.46004 45.58387 76.9586 43.40888 75.625 42.96875 C 75.17942 42.82171 74.33111 42.77375 73.25 42.84375 L 71.53125 42.96875 L 70.53125 41.375 C 69.35698 39.56456 68.85525 38.71303 68.84375 38.5 C 68.82387 38.13243 69.85538 37.98294 71.375 38.15625 C 73.76763 38.42914 73.77492 38.35986 72.40625 35.375 C 71.7999 34.05265 71.12055 32.37805 70.875 31.65625 C 70.19503 29.6575 69.56824 28.58314 68.1875 26.96875 C 67.06346 25.6545 65.29096 24.05424 64.40625 23.53125 C 63.88103 23.22078 64.52194 22.93155 65.84375 22.90625 C 67.42107 22.87602 67.95805 22.7241 68.03125 22.21875 C 68.07995 21.88264 67.78722 21.62772 66.65625 20.90625 C 65.88084 20.41159 64.56678 19.4025 63.71875 18.6875 C 62.87072 17.9725 61.65374 17.04583 61 16.625 C 58.71648 15.15507 53.60765 13.8959 50.875 14.125 C 49.56189 14.23509 47.8125 14.84062 47.8125 15.1875 C 47.8125 15.47791 47.2054 15.62859 46.9375 15.40625 C 46.80345 15.295 46.6341 14.8214 46.5625 14.34375 C 46.16613 11.70056 44.90437 9.5362 42.75 7.8125 C 41.409115 6.7396538 39.2344 5.5752971 38.4375 5.46875 z M 79.84375 88.71875 C 87.422185 88.699633 94.860765 88.728785 95.8125 88.8125 C 97.3076 88.944 97.75063 89.02461 97.96875 89.28125 C 98.11928 89.45836 98.52551 90.45402 98.875 91.46875 C 99.2245 92.48348 100.38844 95.69059 101.46875 98.59375 C 103.69128 104.56639 104.62796 108.20825 105.28125 113.34375 C 105.81374 117.52974 105.80226 119.78642 105.15625 123.40625 C 104.44009 127.41903 104.27933 128.13784 104.03125 128.34375 C 103.91502 128.44015 101.49433 128.79326 98.6875 129.125 C 93.6071 129.72546 93.57498 129.70596 86.78125 129.6875 C 81.33357 129.6728 79.3969 129.6267 77.21875 129.375 C 75.71803 129.20161 72.29816 128.86465 69.625 128.625 C 66.95183 128.38535 64.10975 128.09623 63.3125 128 C 61.40575 127.76985 53.60055 126.44599 49.84375 125.71875 C 46.16599 125.00681 46.17633 125.01938 46.34375 123 C 46.49424 121.18499 47.15101 117.74933 47.96875 114.625 C 49.79445 107.64964 50.95335 105.25028 56.625 96.6875 C 58.48097 93.88544 60.36223 91.00111 60.78125 90.28125 L 61.53125 88.96875 L 63.0625 88.875 C 64.541565 88.785155 72.265315 88.737867 79.84375 88.71875 z "
         style="fill:#ffffff;stroke:#ffffff;stroke-width:4;stroke-linecap:round;stroke-miterlimit:4;stroke-dasharray:none" />
      <g
         transform="translate(131.13562,157.46079)"
         id="g4607">
        <path
           style="color:#000000;fill:#ffd42a;fill-opacity:1;fill-rule:nonzero;stroke:#ffd42a;stroke-width:0.89999998;stroke-opacity:1;marker:none;visibility:visible;display:inline;overflow:visible;enable-background:accumulate"
           d="m 285.10776,116.16456 c -0.2959,-0.0724 -4.97651,-0.53688 -10.40135,-1.03207 -9.23251,-0.84278 -13.03819,-1.35223 -17.39536,-2.32864 -4.9617,-1.11189 -16.76535,-4.51578 -18.71391,-5.39665 -5.87974,-2.65802 -14.54881,-9.558122 -16.09114,-12.807673 -0.71201,-1.50013 -1.10897,-5.772221 -0.72603,-7.813486 0.30939,-1.649175 2.72595,-4.347005 4.17983,-4.666331 1.83709,-0.403492 3.74961,0.178782 7.20098,2.192364 1.84117,1.074163 4.80018,2.693602 6.57558,3.598752 1.7754,0.905149 3.71303,2.009944 4.30584,2.455098 3.33718,2.505975 9.68755,4.685601 19.9042,6.83168 11.30832,2.375393 28.00917,4.155676 38.92016,4.148826 7.98852,-0.005 11.69443,-0.29307 18.64592,-1.449301 2.36721,-0.393735 6.07941,-0.950759 8.24935,-1.237831 5.85399,-0.774453 11.60858,-2.652518 18.87195,-6.15904 3.47523,-1.67773 6.86464,-3.135215 7.53201,-3.238856 1.50708,-0.234044 4.25846,1.399837 5.33751,3.169631 2.40808,3.949605 -1.29811,10.217387 -8.29258,14.024117 -2.50647,1.36415 -4.71532,2.12686 -11.65668,4.025 -10.15125,2.77589 -15.75487,3.82188 -26.85624,5.01307 -6.97067,0.74796 -9.86158,0.8788 -18.65069,0.84411 -5.72074,-0.0226 -10.64345,-0.10033 -10.93935,-0.17277 l 0,0 z"
           id="path4498"
           inkscape:connector-curvature="0"
           transform="translate(93.592563,581.27416)" />
        <g
           id="g4532"
           style="fill:#d38d5f;stroke:#c87137">
          <path
             transform="translate(93.592563,581.27416)"
             inkscape:connector-curvature="0"
             id="path4500"
             d="m 325.45782,90.272239 c -1.28194,-0.272802 -1.52784,-0.769682 -1.77274,-3.582163 -0.36186,-4.155734 -1.53725,-11.098566 -2.29057,-13.529989 -0.3667,-1.183602 -1.80998,-5.299308 -3.20728,-9.146014 -3.24948,-8.945685 -3.41077,-9.579538 -3.42261,-13.45002 -0.0134,-4.388491 0.472,-5.900713 2.45419,-7.645512 1.71088,-1.505975 3.73788,-2.217836 6.3152,-2.217836 1.37408,0 1.70997,0.191437 3.40323,1.93964 3.21489,3.319192 3.85,6.64499 4.25285,22.270396 0.2233,8.661297 0.8553,15.885647 1.84767,21.120377 0.29954,1.580069 0.39995,2.964578 0.22752,3.137011 -0.54543,0.545429 -6.48542,1.385449 -7.80746,1.10411 z m -0.43457,-39.174555 c 1.36888,-1.076761 1.60671,-2.703595 0.55918,-3.825004 -0.73393,-0.785698 -1.04602,-0.873673 -2.43265,-0.685746 -3.13127,0.424375 -4.16139,2.185394 -2.50793,4.287417 0.93855,1.193176 3.01395,1.298965 4.3814,0.223333 l 0,0 z"
             style="color:#000000;fill:#d38d5f;fill-opacity:1;fill-rule:nonzero;stroke:#c87137;stroke-width:0.89999998;marker:none;visibility:visible;display:inline;overflow:visible;enable-background:accumulate" />
          <path
             transform="translate(93.592563,581.27416)"
             inkscape:connector-curvature="0"
             id="path4504"
             d="m 255.87638,87.18981 c -1.96029,-0.630609 -4.17218,-1.798866 -5.46419,-2.886019 l -1.07665,-0.905936 1.72355,-3.436573 c 2.85988,-5.702291 4.64373,-11.785761 5.88567,-20.071881 1.12341,-7.495287 3.09588,-13.996162 5.00682,-16.501535 1.20234,-1.576357 4.38453,-3.632063 6.41302,-4.142843 3.36386,-0.84703 5.60608,0.377326 7.47643,4.082481 1.01727,2.015185 1.07899,2.351274 0.85302,4.644521 -0.25573,2.595236 -1.5185,6.913384 -2.67802,9.157691 -0.37651,0.728759 -2.56667,4.147889 -4.86701,7.598068 -4.97397,7.460245 -6.10115,9.712089 -8.58163,17.144168 -2.06837,6.197289 -2.0438,6.169442 -4.69101,5.317858 z m 14.65699,-38.983125 c 1.28349,-1.009595 1.26921,-2.577128 -0.0345,-3.78536 -0.76106,-0.705329 -1.22104,-0.861352 -2.06233,-0.699538 -1.2249,0.235595 -2.69511,1.819174 -2.68953,2.896927 0.0108,2.09177 2.9192,3.056682 4.78636,1.587971 l 0,0 z"
             style="color:#000000;fill:#d38d5f;fill-opacity:1;fill-rule:nonzero;stroke:#c87137;stroke-width:0.89999998;marker:none;visibility:visible;display:inline;overflow:visible;enable-background:accumulate" />
          <path
             transform="translate(93.592563,581.27416)"
             inkscape:connector-curvature="0"
             id="path4508"
             d="m 277.06474,55.449739 c -0.14286,-0.231154 0.0131,-1.586396 0.34665,-3.011649 0.33351,-1.425254 0.60606,-3.769847 0.60567,-5.210208 -6.1e-4,-2.259553 -0.16626,-2.946544 -1.20735,-5.007511 -0.72514,-1.435508 -1.75708,-2.823554 -2.58608,-3.478505 -1.26613,-1.000298 -1.60498,-1.089448 -4.12467,-1.085173 -2.4377,0.0041 -2.99919,0.141835 -5.01234,1.229199 -2.67748,1.446197 -4.71228,3.632474 -6.13001,6.58636 -1.02498,2.135587 -1.0285,2.138475 -1.56545,1.284761 -1.91231,-3.040422 -1.77594,-8.938758 0.4198,-18.157933 1.11568,-4.684358 1.47276,-6.912603 1.47276,-9.190281 l 0,-3.006664 3.31767,-2.168825 c 1.82472,-1.192853 4.07637,-2.897643 5.00366,-3.788422 1.74136,-1.6728027 3.51469,-4.6787133 3.51469,-5.9576463 0,-1.2957735 -0.68189,-0.778561 -1.75753,1.3330785 -1.35016,2.6505689 -3.20526,4.3994338 -8.19854,7.7290518 -3.86658,2.578308 -4.0692,2.667449 -4.7712,2.099004 -0.72872,-0.590082 -0.71895,-0.628092 1.6233,-6.3140867 2.90288,-7.0469393 4.15049,-10.8989773 5.43684,-16.7863477 l 0.99625,-4.5595986 0.91443,0.579611 c 3.56021,2.2566145 7.77503,9.0296434 10.92743,17.5598727 2.05918,5.5720403 2.86401,7.4019923 4.31414,9.8091203 1.14992,1.9088 1.19882,2.139377 1.2215,5.760404 0.0249,3.970956 1.38191,14.061476 2.62805,19.541355 0.85158,3.744801 2.64397,7.413533 4.7875,9.799247 1.26181,1.40438 1.48033,1.864309 1.33963,2.819662 -0.0925,0.627858 -0.39073,1.226987 -0.66282,1.331398 -0.2721,0.104412 -3.21711,0.300352 -6.54447,0.435422 -4.46755,0.181357 -6.11769,0.135666 -6.30951,-0.174696 l 0,0 z"
             style="color:#000000;fill:#d38d5f;fill-opacity:1;fill-rule:nonzero;stroke:#c87137;stroke-width:0.89999998;marker:none;visibility:visible;display:inline;overflow:visible;enable-background:accumulate" />
          <path
             transform="translate(93.592563,581.27416)"
             inkscape:connector-curvature="0"
             id="path4514"
             d="m 307.52446,55.511019 c -5.0113,-0.144719 -5.20067,-0.208296 -5.20067,-1.745962 0,-1.149092 0.14471,-1.332682 1.53529,-1.947805 2.42583,-1.07306 4.43993,-2.707209 5.39395,-4.376414 0.99242,-1.736385 1.33046,-3.765321 2.40771,-14.451477 0.7485,-7.424966 1.21243,-10.392583 1.76219,-11.272186 0.27149,-0.434371 0.99193,-0.45156 4.74283,-0.113159 5.13954,0.46368 8.49578,1.40818 10.93532,3.077376 2.28641,1.564409 3.04004,3.651934 3.06406,8.487302 0.0137,2.753975 -0.17019,3.991927 -0.9589,6.45601 -0.5367,1.676769 -1.08686,3.167249 -1.22256,3.312178 -0.1357,0.144929 -1.07126,-0.457766 -2.07901,-1.339322 -2.13723,-1.869597 -3.18221,-2.331523 -5.27444,-2.331523 -2.59352,0 -5.11586,0.966289 -6.83324,2.617762 -2.11481,2.033649 -2.53443,3.607784 -2.48123,9.307922 l 0.0427,4.573007 -1.12365,-0.07507 c -0.61801,-0.04128 -2.73766,-0.121675 -4.71033,-0.178643 z"
             style="color:#000000;fill:#d38d5f;fill-opacity:1;fill-rule:nonzero;stroke:#c87137;stroke-width:0.89999998;marker:none;visibility:visible;display:inline;overflow:visible;enable-background:accumulate" />
          <path
             transform="translate(93.592563,581.27416)"
             inkscape:connector-curvature="0"
             id="path4520"
             d="m 248.52371,12.340132 c -1.28224,-0.342082 -2.77519,-0.72138 -3.31768,-0.842885 l -0.98633,-0.220919 0,-3.8759848 c 0,-3.6569575 0.05,-3.9229648 0.88495,-4.7073564 0.86363,-0.8113303 1.69069,-2.86256451 2.17367,-5.3910126 0.38958,-2.0394674 1.13795,-2.8359163 3.92545,-4.1776372 3.17615,-1.5287949 3.9205,-2.2704771 5.03391,-5.015866 l 0.8535,-2.104514 1.81361,-0.10841 c 1.61935,-0.0968 1.8136,-0.03038 1.8136,0.620107 0,0.994806 -2.6334,11.0981576 -3.69952,14.19365859 -0.95802,2.78160651 -5.05137,11.25609541 -5.73108,11.86506841 -0.31251,0.279996 -1.08047,0.214914 -2.76408,-0.234249 z m 4.19122,-5.7753313 c 0.95951,-0.9014143 1.11286,-2.6215732 0.26278,-2.9477771 -1.20587,-0.4627352 -2.29383,-0.2049453 -2.87437,0.6810775 -0.49644,0.757664 -0.51906,1.0673975 -0.14409,1.9726696 0.53771,1.2981543 1.56964,1.4082598 2.75568,0.29403 l 0,0 z"
             style="color:#000000;fill:#d38d5f;fill-opacity:1;fill-rule:nonzero;stroke:#c87137;stroke-width:0.89999998;marker:none;visibility:visible;display:inline;overflow:visible;enable-background:accumulate" />
        </g>
        <path
           style="color:#000000;fill:#d38d5f;fill-opacity:1;fill-rule:nonzero;stroke:#c87137;stroke-width:0.89999998;stroke-opacity:1;marker:none;visibility:visible;display:inline;overflow:visible;enable-background:accumulate"
           d="m 255.22859,-18.420656 c -0.68876,-3.592935 -0.75422,-4.7214 -0.27389,-4.7214 0.18351,0 1.16453,0.766651 2.18004,1.703669 1.37167,1.265637 2.01781,2.210865 2.51308,3.676339 l 0.66668,1.972669 -1.32239,0.248331 c -3.14963,0.591466 -3.08927,0.637651 -3.76352,-2.879608 z"
           id="path4526"
           inkscape:connector-curvature="0"
           transform="translate(93.592563,581.27416)" />
        <path
           style="color:#000000;fill:#7f2aff;fill-opacity:1;fill-rule:nonzero;stroke:#7f2aff;stroke-width:0.89999998;stroke-opacity:1;marker:none;visibility:visible;display:inline;overflow:visible;enable-background:accumulate"
           d="m 292.16155,55.525615 c -0.13151,-0.131509 -0.23911,-1.035849 -0.23911,-2.009637 0,-1.575672 -0.16776,-1.958685 -1.52434,-3.480231 -2.31978,-2.601884 -3.77827,-5.302192 -4.56559,-8.452977 -1.21686,-4.869722 -2.49122,-12.953061 -2.73136,-17.325133 -0.20304,-3.696678 -0.1422,-4.42926 0.52583,-6.332299 0.41549,-1.183602 1.16332,-2.509625 1.66183,-2.94672 1.05708,-0.926843 3.52655,-1.674053 4.62307,-1.398845 0.92162,0.231313 2.01056,1.966273 2.01056,3.203353 0,0.947567 -1.78326,2.756215 -2.71753,2.756215 -0.61868,0 -0.6742,3.623066 -0.15662,10.222015 0.47884,6.10512 2.57182,11.867799 5.07548,13.974485 1.01342,0.852743 3.73706,1.627538 5.72129,1.627538 4.93927,0 8.62565,-8.261962 8.72179,-19.547362 0.0185,-2.169937 -0.0865,-4.613356 -0.23325,-5.429821 -0.2597,-1.444587 -0.23252,-1.500783 1.01143,-2.091077 1.49883,-0.71124 2.15792,-0.545027 2.71863,0.685596 0.32277,0.708385 0.28685,1.217804 -0.17138,2.431069 -0.33971,0.899464 -0.95893,5.321255 -1.49572,10.680909 -0.50382,5.030307 -1.09382,10.069639 -1.31112,11.198514 -0.5105,2.651959 -1.90588,4.527267 -4.7174,6.339867 -3.36741,2.170984 -3.47892,2.310107 -3.47892,4.340318 l 0,1.793336 -4.24423,0 c -2.33433,0 -4.35183,-0.1076 -4.48334,-0.239113 l 0,0 z"
           id="path4512"
           inkscape:connector-curvature="0"
           transform="translate(93.592563,581.27416)" />
        <path
           style="color:#000000;fill:#ccaaff;fill-opacity:1;fill-rule:nonzero;stroke:#ccaaff;stroke-width:0.89999998;stroke-opacity:1;marker:none;visibility:visible;display:inline;overflow:visible;enable-background:accumulate"
           d="m 296.52793,43.446565 c -1.56107,-0.693726 -2.46559,-1.716211 -3.72031,-4.20547 -1.78661,-3.54451 -2.30603,-6.000457 -2.56193,-12.113413 -0.26415,-6.309743 -0.17402,-6.528386 2.16183,-5.24437 3.28575,1.806175 9.93537,2.061097 13.43083,0.514889 l 1.61793,-0.715687 -0.23156,4.398088 c -0.28799,5.470131 -0.7443,8.290118 -1.85659,11.473754 -1.1091,3.174486 -2.14601,4.839688 -3.54477,5.692628 -1.25963,0.768108 -3.80059,0.863875 -5.29543,0.199581 z"
           id="path4510"
           inkscape:connector-curvature="0"
           transform="translate(93.592563,581.27416)" />
        <path
           style="color:#000000;fill:#808080;fill-opacity:1;fill-rule:nonzero;stroke:#4d4d4d;stroke-width:0.89999998;marker:none;visibility:visible;display:inline;overflow:visible;enable-background:accumulate"
           d="m 357.47213,61.710379 c -2.1788,-0.777619 -3.08215,-1.547172 -4.25437,-3.624235 -1.31265,-2.325878 -1.71318,-2.63917 -2.31749,-1.812718 -0.40882,0.559086 -0.54956,0.567598 -1.46993,0.08887 -1.51586,-0.788471 -2.49858,-1.987874 -3.88261,-4.738725 -1.20348,-2.391998 -1.88913,-4.953256 -3.3561,-12.536872 -1.30987,-6.77145 -2.81851,-9.496808 -5.72638,-10.344703 l -1.66496,-0.48548 1.35982,-0.448781 c 1.61856,-0.534176 3.46438,-0.259362 5.35127,0.796724 2.57637,1.441982 3.27407,3.350039 3.84262,10.508791 0.75416,9.495769 1.61161,12.960437 3.78849,15.30811 0.80457,0.86769 2.3187,1.366425 2.3187,0.763749 0,-0.121521 -0.53672,-0.968872 -1.19272,-1.883002 -2.04511,-2.849861 -2.84216,-6.030154 -3.293,-13.139406 -0.31678,-4.995243 -0.8064,-7.56175 -1.82664,-9.575112 -1.94123,-3.830818 -6.89046,-5.51836 -10.6452,-3.629693 -1.06169,0.534044 -1.69313,0.379187 -1.69313,-0.415234 0,-0.743921 2.90398,-3.135232 5.2524,-4.325144 1.89018,-0.957727 2.44112,-1.064179 5.50761,-1.064179 4.23844,0 6.9275,0.917533 9.63794,3.288556 3.04,2.659321 4.32615,5.85588 5.44614,13.535666 0.90664,6.216856 1.25959,7.828563 2.16028,9.864732 0.38777,0.87662 0.58038,1.717337 0.42802,1.868259 -0.15236,0.150923 -1.15203,0.324001 -2.22149,0.384618 -1.25615,0.0712 -2.00223,0.285266 -2.10762,0.604726 -0.0936,0.283693 1.22161,1.842859 3.08504,3.657285 l 3.24818,3.16277 -1.37783,1.244787 c -0.75781,0.684635 -1.73012,1.433328 -2.1607,1.663768 -0.52177,0.279244 -0.72298,0.647975 -0.60331,1.105602 0.20955,0.80132 0.13948,0.808884 -1.63303,0.176267 l 0,0 z"
           id="path4516"
           inkscape:connector-curvature="0"
           transform="translate(93.592563,581.27416)" />
        <path
           style="color:#000000;fill:#999999;fill-opacity:1;fill-rule:nonzero;stroke:#999999;stroke-width:0.89999998;marker:none;visibility:visible;display:inline;overflow:visible;enable-background:accumulate"
           d="m 323.19187,94.996163 c 0.16363,-1.554693 0.36455,-3.008557 0.4465,-3.23081 0.0938,-0.254438 1.78665,-0.477122 4.57089,-0.601276 2.43205,-0.108449 4.74471,-0.249406 5.13924,-0.313239 0.56596,-0.09157 0.9805,0.390241 1.96446,2.283261 0.68593,1.319625 1.15705,2.489406 1.04694,2.599511 -0.55323,0.553229 -6.10866,1.623747 -9.5596,1.842113 l -3.90593,0.247155 0.2975,-2.826715 z"
           id="path4502"
           inkscape:connector-curvature="0"
           transform="translate(93.592563,581.27416)" />
        <path
           style="color:#000000;fill:#999999;fill-opacity:1;fill-rule:nonzero;stroke:#999999;stroke-width:0.89999998;marker:none;visibility:visible;display:inline;overflow:visible;enable-background:accumulate"
           d="m 253.90371,93.266819 c -2.86378,-0.879939 -5.12379,-1.841309 -7.49552,-3.188477 l -1.46203,-0.830447 1.58501,-2.25091 c 0.87176,-1.238001 1.66926,-2.335161 1.77223,-2.438134 0.10298,-0.102973 0.82604,0.318722 1.6068,0.9371 1.63277,1.293173 3.28097,2.054822 6.32485,2.922758 l 2.152,0.613625 -0.0781,1.389224 c -0.15059,2.679607 -0.46183,3.721781 -1.10385,3.696181 -0.33627,-0.01341 -1.82191,-0.396322 -3.30142,-0.85092 z"
           id="path4506"
           inkscape:connector-curvature="0"
           transform="translate(93.592563,581.27416)" />
        <path
           style="color:#000000;fill:#808080;fill-opacity:1;fill-rule:nonzero;stroke:#666666;stroke-width:0.89999998;marker:none;visibility:visible;display:inline;overflow:visible;enable-background:accumulate"
           d="m 280.21941,11.39316 c -0.70025,-1.5362431 -1.92487,-4.5685716 -2.72139,-6.7385082 -3.09396,-8.4287753 -6.23362,-13.4859987 -10.59454,-17.0652168 -1.44251,-1.183937 -2.52705,-2.307458 -2.41008,-2.496713 0.6293,-1.018221 7.97207,0.327279 10.72011,1.964366 0.80606,0.480199 2.23541,1.517252 3.17632,2.304565 1.84682,1.5453244 1.84784,1.543048 -0.90375,2.0072462 -0.73975,0.1247975 -1.3418,0.4213411 -1.33788,0.6589861 0.004,0.237645 0.83017,0.9162824 1.83614,1.5080833 3.14715,1.8514494 5.44112,4.7498139 7.05475,8.9134653 l 1.41064,3.6398867 -1.83665,0.1793336 c -2.33475,0.2279682 -2.50733,0.9336018 -0.91736,3.7508688 0.62715,1.111252 1.08037,2.072096 1.00716,2.135208 -0.0732,0.06311 -0.82549,0.546039 -1.67171,1.073173 l -1.53859,0.958424 -1.27317,-2.793168 z"
           id="path4518"
           inkscape:connector-curvature="0"
           transform="translate(93.592563,581.27416)" />
        <path
           style="color:#000000;fill:#dd55ff;fill-opacity:1;fill-rule:nonzero;stroke:#dd55ff;stroke-width:0.89999998;marker:none;visibility:visible;display:inline;overflow:visible;enable-background:accumulate"
           d="m 253.0311,13.839588 c -0.12219,-0.197703 0.89264,-2.748694 2.25518,-5.6688668 2.77976,-5.9575429 3.74355,-8.78524961 5.65326,-16.5862408 1.44082,-5.8856544 2.17406,-7.0176534 1.81421,-2.8008524 -0.40443,4.7391897 -3.21487,13.8230638 -6.62895,21.426039 -1.58498,3.529655 -2.49544,4.597924 -3.0937,3.629921 z"
           id="path4522"
           inkscape:connector-curvature="0"
           transform="translate(93.592563,581.27416)" />
        <path
           style="color:#000000;fill:#808080;fill-opacity:1;fill-rule:nonzero;stroke:#666666;stroke-width:0.89999998;marker:none;visibility:visible;display:inline;overflow:visible;enable-background:accumulate"
           d="m 242.0677,1.7477126 c 0,-0.1455203 0.28245,-0.5763319 0.62766,-0.95735952 0.50783,-0.56050716 0.66204,-1.59308816 0.80768,-5.40824948 0.20052,-5.2527052 0.459,-6.0181496 2.74943,-8.1421636 2.08683,-1.9352 2.38944,-2.109393 4.27701,-2.462029 2.78772,-0.520803 5.12933,0.797203 4.66973,2.628414 -0.37176,1.481209 -1.95903,3.0135881 -4.51011,4.3541405 -3.14953,1.6550329 -3.72378,2.3314444 -4.51299,5.3158833 -0.81936,3.09843309 -1.84191,4.6720567 -3.13366,4.8224556 -0.53612,0.06242 -0.97475,-0.00557 -0.97475,-0.1510918 z"
           id="path4524"
           inkscape:connector-curvature="0"
           transform="translate(93.592563,581.27416)" />
        <path
           style="color:#000000;fill:#aca793;fill-opacity:1;fill-rule:nonzero;stroke:#aca793;stroke-width:0.89999998;marker:none;visibility:visible;display:inline;overflow:visible;enable-background:accumulate"
           d="m 246.16323,21.734917 c -2.78343,-1.316797 -3.73687,-2.496951 -3.73687,-4.625461 l 0,-1.615812 1.89936,0.196031 c 3.37807,0.348648 10.654,3.192142 10.654,4.163674 0,0.156074 -0.5918,0.875571 -1.31512,1.598883 -1.20042,1.200428 -1.48974,1.315089 -3.31767,1.31483 -1.46106,-2.06e-4 -2.59235,-0.279302 -4.1837,-1.032145 l 0,0 z m 0.41474,-3.071859 c 0.28502,-1.135631 -0.0463,-1.634388 -1.08573,-1.634388 -0.85523,0 -1.27254,0.59772 -1.27254,1.822671 0,0.524356 0.25431,0.688 1.06917,0.688 0.83469,0 1.1174,-0.192178 1.2891,-0.876283 z"
           id="path4528"
           inkscape:connector-curvature="0"
           transform="translate(93.592563,581.27416)" />
        <path
           style="color:#000000;fill:#dd55ff;fill-opacity:1;fill-rule:nonzero;stroke:#dd55ff;stroke-width:0.89999998;marker:none;visibility:visible;display:inline;overflow:visible;enable-background:accumulate"
           d="m 253.29331,17.228917 c -1.22343,-0.636441 -3.96724,-1.612022 -6.09735,-2.167959 -4.57799,-1.194805 -4.43744,-1.132545 -4.16418,-1.844641 0.67107,-1.748789 13.3826,2.716594 13.3826,4.701122 0,0.764321 -0.57001,0.638574 -3.12107,-0.688522 l 0,0 z"
           id="path4530"
           inkscape:connector-curvature="0"
           transform="translate(93.592563,581.27416)" />
        <path
           style="fill:#343434"
           d="m 383.59387,698.86433 c -2.01407,-0.0965 -4.54543,-0.30664 -5.62524,-0.46697 -1.0798,-0.16033 -2.3374,-0.29003 -2.79464,-0.28824 -0.45725,0.002 -2.00222,-0.12529 -3.43327,-0.28243 -5.75349,-0.63177 -8.25857,-0.88821 -9.63671,-0.98648 -1.42453,-0.10158 -6.1643,-0.77807 -9.5273,-1.3598 -1.95208,-0.33767 -6.82176,-1.55854 -9.55338,-2.39512 -1.00704,-0.30841 -2.61155,-0.74033 -3.56558,-0.95982 -4.15693,-0.95637 -8.42275,-2.62231 -11.19551,-4.3722 -0.83872,-0.52932 -2.17543,-1.36151 -2.97046,-1.84931 -0.79503,-0.4878 -2.04018,-1.41567 -2.767,-2.06193 -0.72683,-0.64626 -2.00505,-1.654 -2.84049,-2.23941 -0.83545,-0.58541 -2.02243,-1.62218 -2.63773,-2.30394 -2.48699,-2.75555 -3.21972,-4.91213 -3.08378,-9.07625 0.0777,-2.38059 0.12117,-2.61666 0.69707,-3.78648 0.67224,-1.36551 2.56518,-3.31197 3.86656,-3.97588 0.64856,-0.33087 0.99456,-0.36295 2.83653,-0.26296 2.28334,0.12395 2.72344,0.27582 4.79615,1.65513 4.6764,3.11196 10.42669,6.07978 11.09101,5.72425 0.33482,-0.1792 3.06067,-3.72638 4.40097,-5.72706 1.60958,-2.40262 3.98909,-7.5882 5.15105,-11.22549 0.8713,-2.72742 2.02292,-8.18064 2.29951,-10.88875 0.36746,-3.59781 1.03909,-7.31635 1.83096,-10.13727 l 0.24758,-0.88193 -0.82814,-1.04541 c -1.07084,-1.35178 -1.48622,-2.34347 -1.97172,-4.70735 -0.32685,-1.59138 -0.37633,-2.3473 -0.28388,-4.33652 0.14602,-3.14216 0.64887,-5.75294 2.35721,-12.23862 1.02673,-3.89793 1.26442,-5.28899 1.20279,-7.03919 -0.0596,-1.69244 -0.25588,-2.03101 -0.731,-1.26083 -1.78234,2.88921 -2.91817,4.10994 -4.51665,4.85427 -2.45906,1.14506 -7.12867,0.0633 -9.60545,-2.22517 -1.58354,-1.46316 -2.15457,-2.62346 -2.15129,-4.37135 0.002,-0.99387 0.0983,-1.51532 0.35174,-1.90213 0.2277,-0.34751 0.3112,-0.72276 0.24003,-1.07864 -0.1355,-0.67747 0.18243,-1.64591 0.77552,-2.3623 0.43917,-0.53047 0.45104,-0.64463 0.45104,-4.3392 l 0,-3.7944 -0.95343,-0.45266 c -1.22777,-0.5829 -1.44946,-0.84805 -1.84019,-2.20092 -0.25794,-0.89309 -0.27493,-1.17456 -0.0847,-1.40375 0.2076,-0.25014 0.29437,-0.23362 0.68101,0.12961 0.55269,0.51922 0.94829,0.3821 1.35436,-0.46943 0.2719,-0.5702 0.28914,-1.01573 0.13167,-3.40333 -0.21764,-3.29978 -0.10664,-4.26481 0.72149,-6.27256 0.54386,-1.31856 0.86583,-1.76796 2.30118,-3.21193 1.78718,-1.79792 2.59076,-2.26271 4.81979,-2.78778 0.82933,-0.19536 1.73288,-0.26025 2.67318,-0.19197 l 1.42042,0.10313 -0.12969,-0.70964 c -0.98357,-5.38213 -1.23655,-7.62054 -0.88577,-7.83733 0.40183,-0.24835 3.04936,1.08995 4.5818,2.31606 2.15437,1.7237 3.41941,3.88948 3.81578,6.53267 0.0716,0.47765 0.23991,0.95948 0.37396,1.07073 0.2679,0.22234 0.87078,0.0691 0.87078,-0.22131 0,-0.34688 1.75015,-0.95594 3.06326,-1.06603 2.73265,-0.2291 7.8233,1.03016 10.10682,2.50009 0.65374,0.42083 1.88246,1.35013 2.73049,2.06513 0.84803,0.715 2.1763,1.70472 2.95171,2.19938 1.13097,0.72147 1.39784,0.98225 1.34914,1.31836 -0.0732,0.50535 -0.60346,0.67741 -2.18078,0.70764 -1.32181,0.0253 -1.94142,0.28652 -1.4162,0.59699 0.88471,0.52299 2.63492,2.12376 3.75896,3.43801 1.38074,1.61439 2.00853,2.71513 2.6885,4.71388 0.24555,0.7218 0.94256,2.39428 1.54891,3.71663 1.36867,2.98486 1.34261,3.05388 -1.05002,2.78099 -1.51962,-0.17331 -2.55457,-0.0393 -2.53469,0.32827 0.0115,0.21303 0.51497,1.07212 1.68924,2.88256 l 1.02275,1.57684 1.68932,-0.10945 c 1.08111,-0.07 1.93998,-0.0267 2.38556,0.12034 1.3336,0.44013 2.82882,2.61229 2.83753,4.12217 0.006,1.06924 -0.36632,2.3731 -0.7866,2.75345 -0.72026,0.65183 -0.39886,1.21945 1.12401,1.98507 1.5634,0.786 3.19073,1.03312 6.12342,0.92991 4.45934,-0.15695 6.64933,-0.90956 6.64933,-2.28512 0,-0.31385 0.12343,-0.80934 0.2743,-1.10108 0.27547,-0.5327 1.90031,-2.14139 2.17875,-2.15709 0.0819,-0.005 0.53879,-0.0836 1.01537,-0.17552 0.63909,-0.12326 1.04376,-0.0931 1.54187,0.11499 1.28755,0.53783 1.87224,1.40303 2.16279,3.20042 0.049,0.30326 0.4101,0.34456 3.62003,0.41407 3.9668,0.0859 6.30429,0.46528 8.92524,1.44858 1.75981,0.66023 3.91838,1.90104 4.98763,2.86704 l 0.75454,0.68168 0.90568,-0.87861 c 0.99762,-0.96781 3.3538,-2.59388 4.7971,-3.31062 4.06686,-2.01959 8.85484,-1.84191 13.68992,0.50803 2.13316,1.03676 4.49742,3.23459 5.71661,5.3142 1.466,2.5006 2.37845,5.77945 2.90715,10.44669 0.17412,1.53706 0.44345,3.61859 0.59852,4.62562 0.55167,3.58268 2.03628,6.99356 3.39274,7.79484 0.9284,0.54842 0.64267,0.93088 -0.90261,1.20818 -0.74101,0.13297 -1.93272,0.25087 -2.64824,0.262 -0.71553,0.0111 -1.30096,0.0632 -1.30096,0.11568 0,0.0525 0.65293,0.85887 1.45096,1.79196 1.44246,1.68659 2.15074,2.27233 3.70899,3.06729 0.45103,0.2301 0.81481,0.55494 0.81481,0.7276 0,0.44401 -1.93737,2.75215 -2.88622,3.43857 -0.43959,0.31801 -0.9891,0.72261 -1.22114,0.89911 l -0.42189,0.32092 0.45016,0.48002 c 0.37262,0.39733 0.41316,0.54917 0.23536,0.8814 -0.42677,0.79743 -2.25639,0.76868 -4.66637,-0.0733 -1.73969,-0.60781 -2.96598,-1.49619 -3.87808,-2.80944 -1.15337,-1.66064 -1.2264,-1.72241 -2.03629,-1.72241 -1.57607,0 -3.63202,-1.56244 -5.22277,-3.96909 -1.93131,-2.9219 -3.12355,-6.75284 -4.14448,-13.31718 -0.91234,-5.86616 -2.21389,-9.51132 -3.80862,-10.66653 -1.09117,-0.79045 -1.56827,-0.87502 -2.78056,-0.49288 l -1.03477,0.32619 -1.6e-4,2.73661 c -1e-4,1.70116 -0.11196,3.28355 -0.29564,4.18212 -0.30595,1.49669 -1.77837,6.16081 -2.44567,7.74704 l -0.3807,0.90497 0.41906,1.25928 c 1.10347,3.31595 1.41011,6.96211 1.73555,20.63708 0.15061,6.32872 0.25309,8.08904 0.57224,9.82944 0.21382,1.16604 0.47283,3.24757 0.57557,4.62562 0.19965,2.67792 0.73122,5.13404 1.82841,8.44821 0.74857,2.26114 1.03713,2.89218 1.89759,4.1498 0.54375,0.79472 0.61652,0.83572 1.31664,0.74181 1.51204,-0.20281 4.20912,-1.22994 7.1121,-2.7085 1.64305,-0.83685 4.1442,-2.11408 5.55809,-2.83829 3.27772,-1.67887 4.22466,-1.99668 5.49944,-1.84571 2.38494,0.28247 5.01267,2.32918 5.9729,4.65224 0.49923,1.2078 0.54284,1.49101 0.45895,2.98053 -0.15052,2.67232 -1.60958,5.55858 -3.99843,7.90956 -1.2306,1.2111 -4.89003,3.55897 -7.20229,4.62096 -1.89893,0.87216 -5.75768,2.15412 -8.11964,2.69753 -0.95403,0.21949 -2.55855,0.6523 -3.56558,0.9618 -2.50979,0.77135 -8.47597,2.24764 -10.11855,2.50377 -1.73545,0.2706 -7.03748,1.15177 -8.28757,1.37734 -0.53002,0.0956 -2.00443,0.26169 -3.27648,0.369 -1.27204,0.10731 -3.39694,0.32064 -4.72199,0.47407 -4.26074,0.49335 -6.59496,0.72031 -9.0585,0.88077 -4.18653,0.2727 -11.33371,0.354 -15.12964,0.17211 z m 17.05698,-1.11899 c 0.68902,-0.10632 2.467,-0.29021 3.95105,-0.40865 1.48405,-0.11843 3.21866,-0.29248 3.85468,-0.38676 0.63603,-0.0943 2.32727,-0.26598 3.75832,-0.38154 2.4236,-0.19572 4.87447,-0.53527 6.93843,-0.96127 0.47702,-0.0984 2.29836,-0.4053 4.04742,-0.68189 1.74906,-0.27658 3.52514,-0.63533 3.94684,-0.79723 0.42169,-0.1619 2.1563,-0.62959 3.85468,-1.03932 1.69838,-0.40973 3.47825,-0.88495 3.95527,-1.05605 0.47701,-0.17111 1.7346,-0.51811 2.79464,-0.77112 1.06004,-0.25301 2.31763,-0.59964 2.79465,-0.77029 0.47701,-0.17065 1.2947,-0.39256 1.81708,-0.49312 1.34168,-0.25829 4.47151,-1.80495 6.90144,-3.41047 3.0761,-2.03246 5.11043,-4.4417 6.32941,-7.49587 0.51857,-1.29927 0.59121,-1.68886 0.51611,-2.76797 -0.16367,-2.35208 -1.29503,-4.05544 -3.51816,-5.29689 -1.58819,-0.88689 -2.28139,-0.98199 -3.78115,-0.51876 -1.38891,0.42899 -4.53488,1.92091 -7.96417,3.77686 -2.97644,1.61087 -4.2789,2.11459 -9.75032,3.77091 -3.92252,1.18743 -4.99717,1.43235 -8.08905,1.84353 -1.96107,0.2608 -4.09407,0.47433 -4.74,0.47452 -0.67337,2e-4 -1.6546,0.16555 -2.29991,0.38757 -1.21865,0.41928 -3.72235,0.81859 -7.22242,1.1519 -1.21905,0.11609 -3.04039,0.29076 -4.04742,0.38817 -5.2573,0.50853 -14.19505,0.3807 -19.85162,-0.28391 -2.8227,-0.33166 -5.52021,-0.60315 -8.86578,-0.89232 -2.96517,-0.25629 -6.88089,-0.77384 -10.69674,-1.41383 -1.59006,-0.26668 -3.49813,-0.5816 -4.24016,-0.69983 -1.2565,-0.20019 -3.93722,-0.75008 -7.13116,-1.46279 -0.74203,-0.16558 -1.43587,-0.36817 -1.54187,-0.45019 -0.10601,-0.082 -0.49629,-0.20748 -0.86731,-0.2788 -3.38418,-0.65055 -7.80043,-1.9741 -9.34761,-2.80147 -3.42979,-1.83415 -4.09572,-2.23001 -4.789,-2.84682 -0.40787,-0.36289 -1.27517,-0.90032 -1.92734,-1.1943 -3.33786,-1.50463 -4.9634,-2.39578 -10.60076,-5.81152 -1.4085,-0.85343 -1.53397,-0.89081 -3.40093,-1.01316 -1.68587,-0.11048 -2.032,-0.0792 -2.65611,0.23996 -1.26766,0.64828 -2.50155,1.9019 -3.13155,3.18163 -0.83453,1.69517 -0.99345,4.53409 -0.4081,7.29054 0.21892,1.03093 0.53455,2.1384 0.7014,2.46104 0.50023,0.96734 2.97259,3.71122 3.99504,4.43378 0.52513,0.3711 1.7059,1.31272 2.62393,2.09248 3.499,2.972 9.88203,6.68362 12.29211,7.14766 0.51759,0.0997 1.33137,0.32082 1.80839,0.49147 0.47702,0.17065 1.73461,0.51728 2.79465,0.77029 1.06003,0.25301 2.31762,0.60001 2.79464,0.77112 0.47702,0.1711 2.25689,0.64632 3.95526,1.05605 1.69838,0.40973 3.43299,0.87742 3.85469,1.03932 0.4217,0.1619 2.19777,0.52065 3.94684,0.79723 1.74906,0.27659 3.5704,0.58106 4.04741,0.67661 0.47702,0.0956 1.47442,0.22088 2.21645,0.2785 1.1857,0.0921 6.3217,0.54375 8.7694,0.77121 0.47702,0.0443 1.73461,0.1686 2.79465,0.27617 1.06004,0.10757 2.62118,0.24699 3.46921,0.30983 0.84803,0.0628 2.06226,0.20637 2.69828,0.31898 0.63603,0.1126 2.15381,0.27509 3.37285,0.36107 2.9259,0.20639 17.67377,0.0746 19.27342,-0.17226 z m 3.21881,-16.20488 c 0.50874,-0.10064 1.48872,-0.23068 2.17775,-0.28897 1.1621,-0.0983 4.71776,-0.50095 7.08152,-0.80189 0.55571,-0.0707 1.08311,-0.22505 1.17198,-0.34288 0.2342,-0.31051 1.12899,-5.04473 1.50104,-7.94182 0.29819,-2.322 0.29785,-2.69873 -0.005,-5.66745 -0.42107,-4.1261 -0.5855,-5.17234 -1.28737,-8.19121 -0.32039,-1.37805 -0.70241,-3.03714 -0.84894,-3.68688 -0.14653,-0.64973 -1.08142,-3.25165 -2.07752,-5.78202 -0.99611,-2.53038 -2.224,-5.88046 -2.72865,-7.44461 -0.76736,-2.3784 -0.98543,-2.8578 -1.33224,-2.9287 -1.66333,-0.34007 -5.84413,-0.52385 -9.08772,-0.39949 -4.75477,0.18231 -8.70068,0.21634 -13.58776,0.11718 -3.84475,-0.078 -15.59339,0.0776 -15.69055,0.20789 -0.0267,0.0358 -0.26572,0.4553 -0.5312,0.93232 -0.9466,1.70086 -2.6374,4.36766 -4.0325,6.36022 -4.01675,5.73695 -6.01312,9.12854 -7.59167,12.8973 -1.75392,4.18744 -3.94894,13.31131 -3.95339,16.43272 -0.002,1.57964 0.18394,1.7987 1.67205,1.96721 0.61642,0.0698 1.53784,0.2525 2.0476,0.40598 0.50976,0.15348 2.54792,0.53983 4.52925,0.85856 1.98133,0.31872 4.03608,0.66568 4.5661,0.77103 2.52603,0.50207 4.74895,0.80703 7.82505,1.0735 1.84444,0.15978 4.22083,0.37182 5.28087,0.4712 1.06004,0.0994 2.62118,0.23223 3.46922,0.29522 0.84803,0.063 2.06225,0.20665 2.69827,0.31925 0.63603,0.11261 2.15381,0.26932 3.37285,0.34825 3.31737,0.21479 14.30138,0.22773 15.36107,0.0181 z m 20.10203,-2.76777 c 2.34629,-0.29119 5.25454,-1.04994 6.10953,-1.59396 l 0.42388,-0.26971 -1.27053,-2.45933 c -0.6988,-1.35262 -1.36656,-2.55744 -1.48392,-2.67736 -0.15846,-0.16192 -0.68465,-0.0943 -2.04436,0.26264 -1.55177,0.40739 -2.25712,0.48016 -4.62562,0.47727 -1.53705,-0.002 -3.05301,-0.0333 -3.36879,-0.0699 l -0.57415,-0.0665 -0.31869,1.84845 c -0.42924,2.4896 -0.62344,4.537 -0.45605,4.80785 0.17939,0.29025 4.31584,0.14921 7.6087,-0.25945 z m -72.2894,-3.45765 c 0.1769,-0.4502 0.63782,-3.66342 0.67016,-4.67193 0.0177,-0.5513 -0.0238,-0.58156 -0.95585,-0.69713 -1.5578,-0.19315 -4.69281,-1.28799 -6.15649,-2.15002 -0.74185,-0.43691 -1.77179,-1.18968 -2.28876,-1.67283 l -0.93995,-0.87846 -0.31316,0.47695 c -0.17223,0.26232 -0.98531,1.38625 -1.80684,2.49762 -0.82153,1.11136 -1.49369,2.12203 -1.49369,2.24591 0,0.34329 0.26424,0.50865 3.27648,2.05045 1.53705,0.78674 3.35839,1.58123 4.04742,1.76553 0.68902,0.18431 2.07009,0.54716 3.06904,0.80633 0.99895,0.25917 1.85903,0.51397 1.91128,0.56622 0.24913,0.24913 0.82797,0.0492 0.98036,-0.33864 z m 70.39699,-3.60455 c 1.81781,-0.1408 4.80512,-0.74271 5.38117,-1.08425 0.0638,-0.0378 -0.13259,-1.04729 -0.4363,-2.24331 -0.30372,-1.19602 -0.63775,-2.97684 -0.7423,-3.95738 -0.41609,-3.90244 -0.59876,-5.43308 -0.87981,-7.37208 -0.18613,-1.28417 -0.32232,-4.03103 -0.37266,-7.51663 -0.0436,-3.02111 -0.16984,-7.96474 -0.28047,-10.98585 -0.22655,-6.18662 -0.59929,-8.63584 -1.75893,-11.55766 -0.56562,-1.42511 -0.84356,-1.83065 -2.19397,-3.20117 -0.85047,-0.86312 -1.74682,-1.67418 -1.99189,-1.80235 -0.60114,-0.31438 -3.54243,-0.27533 -4.80353,0.0638 -2.22442,0.59815 -4.20607,2.11737 -5.14812,3.9468 -0.42397,0.82332 -0.86975,3.71017 -0.87426,5.66162 -0.005,2.09624 0.46244,4.96095 1.12373,6.88898 1.7249,5.02905 2.49066,7.14718 3.59595,9.94657 1.63492,4.14083 2.27747,6.09663 2.87421,8.74865 0.71239,3.16594 1.4148,8.18639 1.57353,11.24665 0.081,1.56229 0.22516,2.70318 0.3551,2.81102 0.17591,0.14599 0.90387,0.33004 2.2308,0.564 0.053,0.009 1.10949,-0.0615 2.34775,-0.15739 z m -6.89617,-38.8207 c -0.72134,-0.3267 -1.42961,-1.41212 -1.56012,-2.39087 -0.18825,-1.41173 1.41149,-2.54831 3.58676,-2.54831 1.12907,0 1.2573,0.0461 1.89114,0.67995 0.60535,0.60535 0.66879,0.76316 0.57824,1.43833 -0.16662,1.24219 -0.73144,2.17748 -1.55902,2.58161 -0.97644,0.47681 -2.19362,0.57598 -2.937,0.23929 z m 2.03782,-1.08192 c 0.81596,-0.41627 1.3542,-1.04717 1.3542,-1.58734 0,-0.18842 -0.10841,-0.34088 -0.24092,-0.33881 -0.36098,0.006 -2.29911,1.90458 -2.16514,2.12135 0.15553,0.25165 0.18766,0.24568 1.05186,-0.1952 z m -0.76665,-1.79071 c 0.5599,-0.50645 0.96348,-0.97536 0.89683,-1.04201 -0.21964,-0.21964 -1.68212,0.57543 -2.07602,1.12862 -0.35257,0.49514 -0.34432,1.0342 0.0137,0.89258 0.0811,-0.0321 0.60561,-0.47273 1.16552,-0.97919 z m -64.02078,38.93019 c 0.11338,-0.13661 0.46817,-1.19906 0.78842,-2.361 0.32025,-1.16194 1.22454,-3.95417 2.00952,-6.20496 1.77085,-5.07758 3.56776,-8.43478 7.46528,-13.94758 4.19746,-5.93704 5.55489,-8.34963 6.74377,-11.98582 0.87997,-2.6914 1.1346,-4.15422 1.14001,-6.54918 0.004,-1.66127 -0.0133,-1.72361 -1.00431,-3.66195 -1.75265,-3.42821 -3.13263,-4.32284 -6.40328,-4.15117 -1.22879,0.0645 -1.8389,0.20897 -2.81873,0.66749 -2.66883,1.2489 -4.81862,3.12056 -5.95005,5.18028 -1.57586,2.86879 -3.44214,9.8324 -4.05307,15.12307 -0.87259,7.55677 -2.71428,13.92353 -5.81492,20.10227 -0.53147,1.05908 -1.19542,2.27181 -1.47545,2.69495 l -0.50913,0.76936 0.86227,0.77216 c 1.81277,1.62333 4.50618,3.01092 6.82319,3.51514 1.5239,0.33163 1.94602,0.33873 2.19648,0.0369 z m 8.18618,-39.25433 c -0.79906,-0.48721 -1.27664,-1.40369 -1.11499,-2.13966 0.0679,-0.30902 0.48534,-0.96145 0.92771,-1.44986 0.67678,-0.7472 0.94183,-0.90312 1.67161,-0.98332 0.74834,-0.0823 0.98065,-0.0127 1.69364,0.50669 1.25103,0.9114 1.53524,2.05632 0.80697,3.25082 -0.70435,1.15527 -2.74325,1.57243 -3.98494,0.81533 z m 2.35271,-1.35812 c 0.19245,-0.21266 0.29533,-0.44124 0.22862,-0.50795 -0.15357,-0.15357 -1.097,0.45386 -1.097,0.7063 0,0.32166 0.50143,0.20712 0.86838,-0.19835 z m -1.04784,-0.91431 c 0.41219,-0.29151 0.75129,-0.59342 0.75355,-0.6709 0.008,-0.27752 -0.96514,-0.38352 -1.26168,-0.13741 -0.41723,0.34627 -0.70096,0.9259 -0.56272,1.14958 0.16709,0.27036 0.23796,0.24777 1.07085,-0.34127 z m 91.09798,15.8042 c -0.0533,-0.1855 -0.1579,-0.48499 -0.23236,-0.66552 -0.10616,-0.25737 0.066,-0.42202 0.79725,-0.76264 1.01282,-0.47174 3.84402,-3.09355 3.66079,-3.39004 -0.062,-0.10028 -0.68207,-0.51532 -1.37798,-0.9223 -0.88545,-0.51784 -1.7919,-1.32218 -3.0196,-2.67946 -2.92226,-3.23072 -2.92271,-3.30118 -0.0214,-3.36164 1.83817,-0.0383 2.75087,-0.15712 2.75087,-0.35808 0,-0.0551 -0.25518,-0.54622 -0.56708,-1.09136 -1.24898,-2.18298 -1.93703,-5.0803 -2.52198,-10.61981 -0.76425,-7.23747 -2.50148,-11.57374 -5.63783,-14.07255 -2.55702,-2.03724 -5.25946,-3.05233 -8.79405,-3.30322 -2.0639,-0.1465 -4.10112,0.17285 -5.89626,0.92428 -1.59886,0.66927 -4.73424,2.85559 -5.55381,3.8727 -0.55047,0.68314 -0.56823,0.75935 -0.34822,1.49369 0.12751,0.4256 0.31673,0.77382 0.42048,0.77382 0.10376,0 0.66514,-0.25428 1.24753,-0.56506 1.55934,-0.83211 2.94654,-1.06903 4.75873,-0.81275 3.25454,0.46025 5.4612,2.3707 6.60032,5.71433 0.61135,1.79449 0.87297,3.6501 1.06382,7.54538 0.39929,8.14993 1.37772,11.93917 3.69348,14.30409 1.00175,1.02302 1.05968,1.375 0.22628,1.375 -0.33192,0 -0.74085,-0.26733 -1.25304,-0.81912 -2.41952,-2.60665 -3.28754,-5.86837 -3.73143,-14.02142 -0.35201,-6.46543 -0.50778,-7.38071 -1.64199,-9.64827 -0.99373,-1.9867 -2.72334,-3.15674 -5.11461,-3.45992 -1.75226,-0.22217 -2.77932,-0.0317 -4.3539,0.80757 -1.08977,0.58085 -1.39144,1.09583 -0.42716,0.72921 1.46243,-0.55601 3.70541,0.0953 4.80465,1.39521 1.48126,1.75164 2.91953,6.49754 3.75565,12.39265 0.65812,4.64013 1.94785,8.43713 3.81893,11.243 0.94807,1.42173 1.31289,1.79273 2.45241,2.49397 0.73627,0.45308 1.46876,0.79902 1.62777,0.76875 0.16653,-0.0317 0.32995,-0.33917 0.38546,-0.72523 0.17275,-1.20137 0.66643,-0.97187 1.42059,0.66042 1.30202,2.81804 2.29741,3.80704 4.67662,4.6466 1.62818,0.57455 2.47099,0.62434 2.33108,0.13772 z m -59.82103,-5.95486 1.47459,-0.12464 0.0192,-1.75451 c 0.0268,-2.45162 0.0759,-2.56299 1.36028,-3.08488 1.84583,-0.75006 2.89783,-1.46412 4.42467,-3.0033 1.09232,-1.10115 1.56739,-1.74661 1.85772,-2.52397 0.41306,-1.10597 0.92184,-3.87345 1.09554,-5.95919 0.24526,-2.94496 0.7314,-7.83935 1.07203,-10.79311 0.2017,-1.74906 0.42358,-3.87396 0.49306,-4.72199 0.091,-1.1109 0.25524,-1.76209 0.58756,-2.32974 0.77651,-1.3264 0.51847,-3.38775 -0.49175,-3.92841 -0.6752,-0.36135 -1.63544,-0.22025 -2.5807,0.37922 -0.50098,0.31771 -0.95358,0.68892 -1.00576,0.82492 -0.0522,0.13599 0.0805,1.09981 0.29494,2.14183 0.44705,2.17268 0.47734,3.35168 0.18626,7.2487 -0.33384,4.46951 -0.68181,6.2754 -1.82651,9.47922 -1.55387,4.34905 -2.61488,5.89718 -4.70519,6.86534 -0.80039,0.37071 -1.37242,0.48785 -2.40918,0.49333 -1.5511,0.008 -3.83453,-0.60983 -4.88137,-1.32117 -1.42075,-0.96543 -2.91078,-3.55632 -4.16727,-7.24617 -1.06613,-3.13077 -1.31022,-5.08244 -1.41429,-11.30769 l -0.091,-5.44631 0.74252,-0.28909 c 1.30713,-0.50889 1.68792,-0.76346 2.13551,-1.42765 0.84235,-1.24996 0.41845,-3.20288 -0.94407,-4.34937 -0.58938,-0.49593 -0.71769,-0.52325 -2.08523,-0.44409 -1.18402,0.0685 -1.68419,0.20534 -2.66798,0.72969 -1.41693,0.75522 -1.92269,1.4849 -2.76349,3.987 -0.61996,1.84489 -0.66888,2.88994 -0.35307,7.54257 0.22884,3.37147 0.37831,4.43907 1.38124,9.86556 1.38829,7.51156 1.68045,8.50961 3.28413,11.21923 1.0299,1.74014 1.77165,2.72851 2.7958,3.72537 l 1.394,1.35684 -0.11923,1.95701 c -0.13853,2.27389 -0.28801,2.12585 2.2505,2.22886 3.15797,0.12814 4.242,0.13017 5.65658,0.0106 z m -13.75141,-0.26001 c 5.20508,-0.27985 4.75969,-0.11118 4.92401,-1.86478 l 0.13747,-1.46701 -1.14772,-1.08097 c -1.42653,-1.34356 -3.55554,-4.67069 -4.19863,-6.56145 -1.16495,-3.4251 -2.42972,-10.38398 -3.48766,-19.1895 -0.30622,-2.5487 -0.30811,-6.63438 -0.003,-7.42026 0.0665,-0.17145 -0.24661,-0.7597 -0.76933,-1.44551 -0.48477,-0.63602 -1.25845,-1.93698 -1.71928,-2.89101 -0.94393,-1.95418 -2.84238,-6.71287 -3.16663,-7.93756 -1.0186,-3.84716 -5.55119,-12.34582 -8.07327,-15.13746 -0.88281,-0.97716 -3.86704,-3.31942 -4.0263,-3.16016 -0.0655,0.0656 -0.1928,0.66136 -0.28278,1.32403 -0.28172,2.07475 -1.68551,7.99084 -2.57889,10.86838 -1.02158,3.29047 -2.99786,8.31643 -4.85217,12.33976 -0.74085,1.60743 -1.29391,2.99961 -1.22901,3.09372 0.0649,0.0941 0.53763,0.45074 1.05052,0.79251 l 0.93253,0.62139 1.10266,-1.01684 c 0.60646,-0.55926 2.07437,-1.5662 3.26201,-2.23765 2.93554,-1.65965 5.61308,-3.85986 6.84075,-5.62125 0.33248,-0.47702 0.88056,-1.56115 1.21797,-2.40918 0.60793,-1.52798 1.07152,-1.95611 1.19275,-1.1015 0.0943,0.6646 -0.83921,2.88362 -1.75643,4.17526 -1.12783,1.58822 -3.87481,3.95603 -6.08708,5.24688 -2.65905,1.55154 -3.8686,2.38134 -4.09918,2.81217 -0.14107,0.2636 -0.13557,0.94371 0.0184,2.26775 0.28508,2.45213 0.0543,4.29592 -1.06061,8.47478 -0.46665,1.74906 -1.15417,4.63462 -1.52781,6.41236 -0.62661,2.98133 -0.67935,3.49116 -0.67935,6.56739 0,3.05755 0.0404,3.45389 0.4853,4.76196 0.50314,1.4793 1.30274,2.88084 1.64356,2.88084 0.10783,0 0.24853,-0.15177 0.31268,-0.33728 0.0641,-0.18551 0.54815,-1.24477 1.07557,-2.35391 1.39151,-2.92628 3.31428,-4.84517 6.41259,-6.39967 5.16475,-2.59127 9.30163,-0.98059 11.46856,4.46524 1.08535,2.72768 1.07645,5.30969 -0.0326,9.44398 -0.77703,2.89668 -0.77816,2.94801 -0.0686,3.10387 0.90676,0.19917 4.86798,0.19044 8.7694,-0.0193 z m 27.84957,4e-5 c 0.0652,-0.10554 -0.0241,-1.21135 -0.1986,-2.45736 -0.45164,-3.22572 -0.0888,-7.26568 0.84144,-9.36862 0.62729,-1.41811 2.23248,-2.83849 4.12809,-3.65284 1.54384,-0.66322 1.79692,-0.71328 3.74288,-0.74026 3.06486,-0.0425 3.33555,0.0719 5.74199,2.42642 1.88486,1.84418 2.06383,1.97278 2.20885,1.58725 0.61437,-1.63322 1.79997,-5.46903 2.03597,-6.58702 0.62756,-2.97293 0.19616,-8.43017 -0.82366,-10.41939 -0.46444,-0.90592 -0.88872,-1.29751 -2.54681,-2.35058 -2.81773,-1.78957 -6.4615,-2.67489 -11.80346,-2.86787 l -3.5678,-0.12888 -0.29115,0.4631 c -0.6115,0.97265 -1.33481,5.82159 -1.77312,11.88671 -0.39402,5.45227 -1.18914,11.92719 -1.56748,12.76452 -1.07807,2.38595 -4.15408,4.86782 -7.25702,5.85532 -0.28368,0.0903 -0.33728,0.34919 -0.33728,1.62907 l 0,1.52172 0.8942,0.12257 c 0.49181,0.0674 2.11801,0.13197 3.61377,0.14348 1.49575,0.0115 3.23994,0.0855 3.87596,0.1644 1.75793,0.21811 2.95156,0.22131 3.08323,0.008 z m -12.41645,-11.85907 c 0.99918,-0.35253 1.34666,-0.64584 2.32321,-1.96097 0.81298,-1.09486 1.18087,-1.93205 2.2964,-5.22587 0.79724,-2.35397 1.00127,-3.48846 1.37558,-7.64862 0.25242,-2.80547 0.30965,-7.33278 0.0954,-7.54703 -0.0678,-0.0678 -0.47137,0.11802 -0.89686,0.41289 -1.17599,0.81496 -3.03638,1.25228 -5.88269,1.38282 -2.12711,0.0976 -2.80743,0.0519 -4.50429,-0.30229 -2.34467,-0.48942 -3.14168,-0.79357 -4.10926,-1.56809 -0.81921,-0.65576 -1.05358,-0.69061 -1.68242,-0.25016 l -0.45593,0.31935 0.11814,4.54719 c 0.18122,6.97496 0.58429,9.12567 2.43934,13.01562 1.58719,3.32828 2.45638,4.20341 4.82158,4.85455 1.20993,0.33309 3.07261,0.31961 4.0618,-0.0294 z M 346.03044,604.0695 c 0.9104,-0.41345 2.25728,-1.7391 2.59477,-2.55387 0.32323,-0.78034 -0.0448,-1.13021 -2.41535,-2.29611 -2.09035,-1.02809 -6.80251,-2.41662 -8.89271,-2.62041 l -1.17692,-0.11475 -0.2204,0.63225 c -0.87654,2.51446 0.61502,4.93871 3.85011,6.25765 2.60318,1.0613 4.89421,1.31573 6.2605,0.69524 z m -8.02425,-3.69118 c -0.26559,-0.49627 -0.0811,-1.39199 0.37105,-1.80115 0.44129,-0.39937 1.49607,-0.21338 1.77806,0.31352 0.24811,0.4636 -0.0991,1.42297 -0.61495,1.69903 -0.58786,0.31461 -1.30557,0.21571 -1.53416,-0.2114 z m 12.02977,-0.65649 c 0.1712,-0.26128 0.31127,-0.59308 0.31127,-0.73734 0,-0.36856 -0.71585,-0.98838 -1.73461,-1.50191 -0.47702,-0.24045 -1.08913,-0.58943 -1.36026,-0.77551 -0.27112,-0.18608 -0.87823,-0.48429 -1.34913,-0.6627 -0.47091,-0.1784 -1.55004,-0.61005 -2.39807,-0.95922 -0.94257,-0.38809 -2.32846,-0.75627 -3.56558,-0.94724 -1.11304,-0.17181 -2.25924,-0.35048 -2.5471,-0.39704 -0.61114,-0.0988 -1.11507,0.46494 -1.11448,1.24689 3.8e-4,0.46139 0.0953,0.50542 1.79677,0.83299 3.45649,0.66547 6.99182,1.80841 9.11276,2.94607 1.09833,0.58913 2.04686,1.15191 2.10786,1.25061 0.18347,0.29684 0.41221,0.20554 0.74057,-0.2956 z m 26.83213,-2.91573 c 0.38077,-0.9113 0.25781,-1.22346 -0.27288,-0.69277 -0.43192,0.43192 -0.58266,1.38528 -0.21903,1.38528 0.11141,0 0.33277,-0.31163 0.49191,-0.69251 z m -27.98494,-2.84388 c 1.27912,-2.73767 2.5134,-5.60261 3.45852,-8.02767 2.00709,-5.14996 4.37258,-14.15028 4.42976,-16.85456 0.0308,-1.4554 0.008,-1.54444 -0.44911,-1.77624 -0.68954,-0.34947 -0.86264,-0.0686 -1.14377,1.85618 -0.13106,0.89732 -0.44734,2.4151 -0.70285,3.37285 -0.2555,0.95774 -0.81159,3.06067 -1.23576,4.67317 -1.45271,5.52259 -2.33576,7.79851 -5.3787,13.86267 -0.96479,1.92271 -1.75417,3.61855 -1.75417,3.76853 0,0.29421 1.53631,1.13414 1.79512,0.98143 0.0863,-0.0509 0.52771,-0.88627 0.98096,-1.85636 z m 26.91958,1.29266 c 0.25698,-0.28002 1.00931,-0.7579 1.67183,-1.06196 0.66253,-0.30406 1.20459,-0.66445 1.20459,-0.80087 0,-0.13642 -0.37758,-0.82292 -0.83907,-1.52555 -1.16393,-1.77212 -1.78649,-3.33866 -1.47566,-3.71319 0.36875,-0.44432 1.50519,-0.67501 2.70663,-0.54943 0.6032,0.063 1.14599,0.0349 1.20619,-0.0625 0.0602,-0.0974 -0.23797,-0.95413 -0.66261,-1.90383 -0.42464,-0.9497 -0.98138,-2.36378 -1.2372,-3.1424 -0.69285,-2.10876 -1.36355,-3.20321 -3.07113,-5.01153 -1.46154,-1.54776 -3.47124,-3.04403 -4.87915,-3.63264 -0.42888,-0.1793 -0.61815,-0.37548 -0.57558,-0.59658 0.0513,-0.26661 0.47634,-0.38258 2.22906,-0.60823 1.1911,-0.15334 2.16564,-0.33457 2.16564,-0.40272 0,-0.13707 -1.53555,-1.39948 -3.86606,-3.17841 -1.02257,-0.78054 -2.11059,-1.39387 -3.31636,-1.86946 -1.88832,-0.7448 -5.4958,-1.49889 -7.1618,-1.49706 -1.05631,10e-4 -2.34463,0.29333 -2.51598,0.57059 -0.14603,0.23627 1.79122,2.04119 3.29507,3.06999 2.0756,1.41994 3.67459,3.342 6.26446,7.53019 1.03759,1.67793 3.79935,8.08954 4.42417,10.271 0.45941,1.60397 1.70004,4.73387 1.93365,4.87824 0.0946,0.0584 0.17191,0.24906 0.17191,0.4236 0,0.50501 1.38647,3.32185 1.63504,3.32185 0.12381,0 0.43537,-0.22911 0.69236,-0.50912 z m -29.07856,-4.02744 c 2.8572,-5.56942 4.03288,-8.44063 5.16622,-12.61678 0.33083,-1.21905 0.88988,-3.25721 1.24233,-4.52926 0.70812,-2.55568 1.17343,-4.67445 1.36503,-6.21568 l 0.1258,-1.01185 -1.70451,0.0228 c -2.39707,0.0321 -2.87065,0.15852 -2.82169,0.75339 0.11871,1.44235 -1.07023,3.71285 -2.65421,5.06868 -0.85507,0.73191 -1.17668,0.90258 -3.53053,1.87353 -2.48359,1.02448 -3.01213,1.70118 -3.30475,4.23112 -0.27854,2.40816 -1.03973,4.13677 -2.33392,5.30019 l -0.6432,0.5782 -0.0251,4.04742 -0.0251,4.04742 0.74592,0.13707 c 0.41025,0.0754 1.44235,0.26634 2.29356,0.42432 0.85121,0.15799 2.10881,0.49784 2.79465,0.75523 0.68584,0.25739 1.33372,0.45345 1.43972,0.43568 0.10601,-0.0178 0.94745,-1.50343 1.86987,-3.30148 z m -2.93202,-3.41373 c -0.49924,-0.81881 -0.48361,-1.48064 0.0538,-2.27809 0.59896,-0.8888 1.4235,-1.10832 2.38998,-0.6363 0.66552,0.32504 0.74437,0.44266 0.79826,1.19084 0.0537,0.74568 -0.0175,0.90751 -0.70007,1.59006 -0.60576,0.60575 -0.90188,0.75988 -1.45997,0.75988 -0.583,0 -0.76394,-0.10475 -1.08199,-0.62639 z m -6.36614,-4.53851 c 1.08832,-0.53559 1.66842,-1.6029 2.38523,-4.38854 0.35646,-1.38525 0.72832,-2.66196 0.82636,-2.83714 0.4147,-0.74102 1.83161,-2.01524 2.60819,-2.34551 3.31513,-1.40991 4.03066,-1.90719 5.14477,-3.57559 0.57571,-0.86213 0.79943,-1.39504 0.79731,-1.89919 -0.004,-0.87246 -0.0649,-0.9646 -1.24982,-1.88203 -0.93301,-0.72237 -1.00966,-0.74533 -2.40918,-0.72193 -2.64664,0.0443 -4.42877,0.95134 -6.51056,3.31383 -2.23879,2.54065 -2.3927,3.2112 -2.17566,9.47882 0.0867,2.5026 -0.11872,3.18379 -1.14223,3.78839 -0.71953,0.42504 -0.7335,0.74121 -0.0492,1.11246 0.67613,0.3668 0.95481,0.35996 1.77477,-0.0436 z m 14.89674,-17.30791 c 1.67254,-0.12903 1.68643,-0.1344 1.68643,-0.65163 0,-0.68622 -0.62276,-2.47388 -1.2869,-3.69413 -0.70582,-1.29683 -3.8784,-4.0189 -4.68403,-4.0189 -0.28859,0 -0.23862,0.80312 0.19786,3.18011 0.21412,1.16604 0.46556,2.55373 0.55876,3.08375 0.20601,1.1715 0.41775,2.06453 0.54104,2.28194 0.0505,0.089 0.36373,0.11395 0.6961,0.0554 0.33238,-0.0585 1.36321,-0.16499 2.29074,-0.23655 z"
           id="path4496"
           inkscape:connector-curvature="0" />
      </g>
    </g>
  </g>
</svg>
