<?xml version="1.0" encoding="UTF-8" standalone="no"?>
<!-- Created with Inkscape (http://www.inkscape.org/) -->

<svg
   xmlns:dc="http://purl.org/dc/elements/1.1/"
   xmlns:cc="http://creativecommons.org/ns#"
   xmlns:rdf="http://www.w3.org/1999/02/22-rdf-syntax-ns#"
   xmlns:svg="http://www.w3.org/2000/svg"
   xmlns="http://www.w3.org/2000/svg"
   xmlns:sodipodi="http://sodipodi.sourceforge.net/DTD/sodipodi-0.dtd"
   xmlns:inkscape="http://www.inkscape.org/namespaces/inkscape"
   id="svg4136"
   version="1.1"
   inkscape:version="0.48.4 r9939"
   xml:space="preserve"
   width="180.29355"
   height="161.43504"
   viewBox="0 0 180.29354 161.43504"
   sodipodi:docname="estilingue.svg"><metadata
     id="metadata4142"><rdf:RDF><cc:Work
         rdf:about=""><dc:format>image/svg+xml</dc:format><dc:type
           rdf:resource="http://purl.org/dc/dcmitype/StillImage" /><dc:title /></cc:Work></rdf:RDF></metadata><defs
     id="defs4140"><filter
       inkscape:collect="always"
       id="filter14941"
       color-interpolation-filters="sRGB"><feGaussianBlur
         inkscape:collect="always"
         stdDeviation="2.8781203"
         id="feGaussianBlur14943" /></filter></defs><sodipodi:namedview
     pagecolor="#ffffff"
     bordercolor="#666666"
     borderopacity="1"
     objecttolerance="10"
     gridtolerance="10"
     guidetolerance="10"
     inkscape:pageopacity="0"
     inkscape:pageshadow="2"
     inkscape:window-width="1600"
     inkscape:window-height="876"
     id="namedview4138"
     showgrid="false"
     inkscape:zoom="1"
     inkscape:cx="166.76425"
     inkscape:cy="129.86552"
     inkscape:window-x="0"
     inkscape:window-y="1"
     inkscape:window-maximized="1"
     inkscape:current-layer="g4144" /><g
     id="g4144"
     inkscape:groupmode="layer"
     inkscape:label="dora"
     transform="matrix(1.25,0,0,-1.25,-465.14406,542.34041)"><g
       id="g14945"
       transform="matrix(0.52738107,-0.18527169,0.18527169,0.52738107,142.48713,258.29299)"><path
         style="fill:#808080;stroke:#808080;stroke-width:5.72473383;stroke-linejoin:round;stroke-miterlimit:4;stroke-dasharray:none;filter:url(#filter14941)"
         d="m 367.54437,231.5002 c -2.93827,1.33096 -5.10264,4.13729 -5.10264,6.6161 0,2.13326 8.99821,12.7264 12.22978,14.39751 1.86029,0.962 3.09137,1.0126 6.82013,0.28029 6.84965,-1.34521 6.63982,-1.17554 5.14264,-4.15829 -0.72905,-1.45245 -1.52062,-5.34082 -1.75905,-8.64082 l -0.4335,-6 -3.17298,-1.54853 c -4.04992,-1.9765 -10.47242,-2.41932 -13.72438,-0.94626 z m 36.55063,28.19882 c -5.10512,4.58995 -6.45327,7.12531 -6.45327,12.13621 0,4.51564 2.30082,8.29588 8.03835,13.20699 4.13058,3.53563 6.63188,3.74256 12.45633,1.03055 5.69067,-2.64972 6.70532,-4.38922 6.70532,-11.49552 0,-10.15554 -6.26163,-18.58226 -13.8079,-18.58226 -2.2263,0 -3.68531,0.77883 -6.93883,3.70403 z m -42.92885,15.95947 c -7.86423,8.38245 -9.38554,12.81695 -6.38657,18.61632 1.3251,2.56245 10.1604,8.889 17.99759,12.88724 l 3.4463,1.75817 2.41058,-2.26261 c 1.32582,-1.24444 3.80493,-4.00495 5.50913,-6.13446 2.79753,-3.4957 3.09446,-4.31174 3.05646,-8.4 -0.0442,-4.75962 -1.67467,-15.17543 -2.61318,-16.69398 -0.56483,-0.91392 -7.93569,-2.27444 -15.74473,-2.90617 -4.33172,-0.35042 -4.45083,-0.30176 -7.67558,3.13549 z m 156.47558,15.6598 c -6.25537,1.02132 -7.33289,2.50626 -9.87798,13.61298 -3.01252,13.14654 -7.79398,26.5477 -13.79501,38.66372 -5.91234,11.93694 -5.58466,11.36593 -11.92701,20.78416 -5.17399,7.68325 -15.21974,18.79042 -21.49102,23.76172 l -3.89104,3.08446 -6.90896,-3.74186 c -12.06877,-6.53637 -18.63862,-11.6614 -22.41301,-17.48402 -2.98468,-4.60436 -4.09597,-7.42501 -4.09597,-10.39631 0,-2.25026 0.32502,-2.67315 2.36861,-3.08187 3.23364,-0.64673 8.53887,-5.6159 9.67678,-9.06383 1.30334,-3.94913 0.61065,-11.2021 -1.48285,-15.5267 -3.80555,-7.86121 -14.46445,-15.4394 -24.70648,-17.56563 -2.51023,-0.52112 -7.82476,-0.80432 -11.81006,-0.62933 -6.03118,0.26483 -8.13907,0.73635 -12.5729,2.81245 -2.95367,1.38303 -6.83784,4.04302 -8.71831,5.97052 -3.34714,3.43086 -7.13177,10.21474 -7.14697,12.81081 -0.0151,2.57353 -1.03149,3.94702 -4.0668,5.49552 -3.92372,2.00173 -8.41882,7.89366 -9.94621,13.03695 -1.50253,5.05956 -1.52986,11.9654 -0.0666,16.82746 2.12891,7.07384 10.61987,20.12609 21.66641,33.3055 9.049,10.79618 8.65214,9.77374 5.84828,15.06682 -2.17771,4.11104 -2.36545,5.05466 -2.01603,10.13318 0.48694,7.07718 3.11574,13.82791 7.18489,18.45071 2.92105,3.31849 6.65502,5.94929 8.444,5.94929 0.40437,0 2.49225,-1.39115 4.63973,-3.09144 15.07324,-11.93443 37.34212,-23.26118 52.18691,-26.5441 23.65225,-5.23071 35.75805,2.60123 40.97618,26.50983 2.12135,9.71971 3.92211,26.9606 3.93284,37.65415 l 0.009,8.52844 4.15707,2.07156 c 6.91801,3.44739 17.12321,2.19789 21.78427,-2.66721 2.60762,-2.72177 2.55676,-4.64382 -0.35777,-13.52127 l -1.66126,-5.06005 2.93071,-3.24394 c 6.44631,-7.1353 8.90556,-17.12534 6.3742,-25.89348 -2.45331,-8.49781 -5.88061,-13.84672 -14.2019,-22.16457 l -7.82532,-7.82208 0,-8.75042 c 0,-21.49764 5.7954,-45.26879 16.07752,-65.94561 5.66366,-11.38932 12.78595,-22.24796 21.02837,-32.05981 3.32659,-3.96 6.05864,-7.78145 6.07122,-8.49211 0.12342,-6.96821 -20.52433,-14.04633 -34.37711,-11.78459 z m 8.22483,20.41576 c 4.03627,1.27269 8.86429,4.74592 8.16653,5.87492 -0.22711,0.36748 -1.57808,0.31667 -3.00214,-0.11291 -1.42408,-0.42958 -6.63922,-0.99656 -11.58922,-1.25995 -4.95,-0.26338 -8.99509,-0.69539 -8.98908,-0.96 0.12316,-5.42434 5.51489,-6.66334 15.41391,-3.54206 z m 11.24487,1.06056 c 1.55526,1.43933 -0.88607,1.33746 -2.69207,-0.11234 l -1.97763,-1.58758 2,0.54007 c 1.1,0.29703 2.30137,0.81897 2.6697,1.15985 z m -8.4697,6.55968 c 1.87,0.45686 3.4,0.9852 3.4,1.1741 0,0.1889 -1.27918,2.34314 -2.84262,4.78719 -2.39932,3.75075 -3.11668,4.36249 -4.6,3.92279 -0.96656,-0.28652 -5.39328,-0.73244 -9.83716,-0.99092 l -8.07977,-0.46997 1.35023,-4.36397 c 0.74263,-2.40018 1.85853,-4.70601 2.47978,-5.12405 1.29768,-0.87321 13.0132,-0.18511 18.12954,1.06483 z m -108.19678,12.7666 c 1.52949,1.80808 1.501,1.80407 -0.80894,-0.11392 -3.83699,-3.18592 -4.08446,-3.454 -2.38533,-2.584 0.88492,0.4531 2.32235,1.66716 3.19427,2.69792 z m 101.38802,-0.88625 2.99124,0.83072 -3.20017,6.36481 c -3.02998,6.02633 -3.34097,6.36482 -5.84779,6.36482 -2.99772,0 -10.83956,-3.72434 -12.03091,-5.71387 -0.55244,-0.92255 -0.3675,-2.41172 0.62097,-5 l 1.40776,-3.68613 6.53383,0.005 c 3.59361,0.002 7.87989,0.37829 9.52507,0.83518 z m -152.69703,12.16035 c 0.32142,1.20328 0.0208,2.13653 -0.90669,2.81514 -5.81456,4.25407 -9.28611,9.70258 -10.52272,16.51511 -0.47225,2.60164 -1.01302,4.88463 -1.2017,5.07332 -0.71825,0.71825 -1.4179,-7.12759 -0.88765,-9.95405 1.1345,-6.04739 5.65143,-12.6847 10.42455,-15.31811 2.25505,-1.24416 2.55212,-1.16076 3.09421,0.86859 z m 137.59854,1.13578 c 1.70101,0.61614 4.69687,1.34012 6.65746,1.60885 3.36158,0.46075 3.53526,0.60731 3.04794,2.57199 -1.70817,6.88673 -4.91249,8.11376 -11.37247,4.35485 -6.54037,-3.80569 -6.93774,-4.37599 -5.48003,-7.86477 0.9819,-2.35004 1.54297,-2.85525 2.64999,-2.3862 0.7724,0.32725 2.7961,1.09913 4.49711,1.71528 z m -99.49275,3.36926 c 3.46173,1.72566 4.32442,2.52407 4.04554,3.74417 -0.19496,0.85293 -0.3549,4.45635 -0.35542,8.0076 -7.5e-4,5.15072 0.36773,7.17352 1.82162,10 4.59243,8.92799 15.51723,16.69205 32.68826,23.23098 2.75,1.04723 5,2.1117 5,2.36547 0,0.83607 -11.86323,7.26847 -19.40066,10.5193 -8.46883,3.65253 -22.329,7.45974 -30.7726,8.45282 l -5.77327,0.67902 -0.78185,-2.24282 c -1.63458,-4.68896 -6.10526,-9.7762 -16.08498,-18.30327 -13.4367,-11.48086 -15.80327,-14.83687 -17.69238,-25.08945 -1.7021,-9.23766 1.0483,-16.54265 7.54494,-20.03918 l 2.9177,-1.57032 2.22155,2.07258 c 4.80443,4.48224 8.12271,4.97736 10.54638,1.57363 4.71579,-6.62271 14.76418,-8.04201 24.07517,-3.40053 z m 16,4.49496 c -0.54775,0.66 -1.38064,1.2 -1.85086,1.2 -0.47022,0 -0.15614,-0.52855 0.69796,-1.17456 2.00677,-1.51785 2.39866,-1.5265 1.1529,-0.0254 z m -7.12914,2.13242 c 0.45453,0.84929 1.70453,1.87803 2.77778,2.28608 1.66749,0.63397 1.95136,1.263 1.95136,4.32406 0,4.5079 1.0317,6.87958 5.52829,12.70849 3.66138,4.74624 10.82933,10.67449 16.25108,13.44045 3.88708,1.98305 3.8996,2.5875 0.0206,0.99595 -13.7855,-5.65623 -24.99623,-13.91207 -21.67701,-15.96347 0.50832,-0.31416 0.71235,-0.22838 0.4534,0.19061 -0.25895,0.41899 -0.14009,1.28462 0.26414,1.92361 0.55091,0.87084 0.73804,0.61084 0.74722,-1.0382 0.007,-1.22678 -0.43012,-2.20542 -0.98775,-2.21225 -0.70153,-0.009 -0.73412,-0.18768 -0.10919,-0.6 0.50056,-0.33028 0.64706,-1.26989 0.3344,-2.14491 -0.51436,-1.43949 -0.60377,-1.40926 -1.18319,0.4 -0.34473,1.07644 -0.72021,2.22716 -0.83441,2.55716 -0.11419,0.33 -0.25261,1.00855 -0.30761,1.50789 -0.17259,1.56688 -3.42109,-3.22201 -4.99443,-7.36269 -1.92195,-5.05817 -2.11052,-13.72713 -0.28335,-13.02598 0.67223,0.25796 1.59411,1.1639 2.04864,2.0132 z m 1.52914,14.3148 c 0,0.46596 0.36,0.62472 0.8,0.35278 0.44,-0.27194 0.8,-0.65318 0.8,-0.84722 0,-0.19403 -0.36,-0.35278 -0.8,-0.35278 -0.44,0 -0.8,0.38125 -0.8,0.84722 z m 81.2471,-15.67266 c 1.51798,1.14814 1.51348,1.17513 -0.19988,1.2 -2.66937,0.0387 -3.00394,1.50927 -0.47994,2.10943 1.228,0.292 2.82538,1.04456 3.54975,1.67236 1.16628,1.0108 1.39521,0.92079 2,-0.78642 0.68083,-1.92184 0.6962,-1.92416 4.90263,-0.74098 3.7214,1.04675 4.15748,1.3867 3.69317,2.87898 -1.49493,4.80462 -1.87937,5.29207 -4.17365,5.29207 -2.57726,0 -7.33624,-1.47621 -7.34464,-2.27826 -0.003,-0.28696 -1.25084,-1.3698 -2.77294,-2.40632 -3.19818,-2.17788 -4.07301,-4.17714 -2.83778,-6.4852 1.03853,-1.94051 1.6067,-2.01118 3.66328,-0.45566 z m 3.5529,2.82544 c 0,0.44 -0.38125,0.8 -0.84722,0.8 -0.46596,0 -0.62472,-0.36 -0.35278,-0.8 0.27194,-0.44 0.65318,-0.8 0.84722,-0.8 0.19403,0 0.35278,0.36 0.35278,0.8 z m -8.98334,5.45 c 0.17417,0.5225 -0.30072,0.95 -1.05533,0.95 -1.13887,0 -1.29907,0.54374 -0.94279,3.2 0.49877,3.71866 0.28169,3.90716 -1.45216,1.26096 -1.16246,-1.77414 -1.16004,-2.15268 0.0285,-4.45102 1.26619,-2.44855 2.78369,-2.87426 3.4218,-0.95994 z m 9.19262,4.14229 c 7.00286,1.58317 6.7413,1.41911 6.36375,3.99147 -0.19089,1.30062 -0.84846,2.78089 -1.46127,3.28947 -1.69671,1.40815 -9.27197,0.48995 -12.41067,-1.5043 l -2.70109,-1.7162 2.31263,0.17363 c 1.27195,0.0955 2.47195,-0.27636 2.66667,-0.82636 0.21004,-0.5933 -0.32381,-1 -1.31264,-1 -1.55825,0 -1.86666,-0.59478 -1.86666,-3.6 0,-2.67788 0.28434,-2.84978 2.20928,-1.33563 1.1051,0.86927 3.8951,2.00684 6.2,2.52792 z m -122.7621,35.00771 c 6.92816,6.28855 11.35282,11.55787 11.35282,13.52003 0,0.60395 -0.83877,1.07997 -1.90294,1.07997 -1.3826,0 -2.19003,-0.69307 -2.95281,-2.53459 -0.81453,-1.96644 -7.7487,-11.02063 -10.31783,-13.47235 -0.23453,-0.2238 -1.29917,-1.3938 -2.36587,-2.6 -3.66973,-4.1496 -0.63173,-2.18196 6.18663,4.00694 z m 22.27712,21.7 c 0.87441,3.63913 4.34661,9.99753 6.95989,12.74515 l 2.51581,2.64515 -2,1.53706 c -1.1,0.84539 -2.61168,1.54507 -3.35929,1.55485 -2.59125,0.0339 -8.29945,-9.16439 -9.4491,-15.22645 -0.87954,-4.63781 -0.4903,-5.35576 2.90365,-5.35576 1.41571,0 2.05784,0.55516 2.42904,2.1 z m -7.87665,3.1 c 1.06281,5.97224 3.37919,11.26374 6.47349,14.78795 2.74966,3.1317 2.99716,3.81205 1.38675,3.81205 -4.53884,0 -12.72259,-15.68867 -11.78895,-22.6 0.0446,-0.33 0.7626,-0.6 1.59558,-0.6 1.21552,0 1.67614,0.90814 2.33313,4.6 z m 129.97056,15.62934 c 3.14935,6.45189 4.02815,11.8298 2.96927,18.17066 -0.91718,5.49235 -4.38461,12.83176 -6.36428,13.47113 -0.66524,0.21485 -0.23911,-0.73431 0.98027,-2.18347 2.33911,-2.77987 4.60221,-9.30856 4.58703,-13.23286 -0.0281,-7.26246 -5.0404,-17.74763 -12.32412,-25.78062 -2.45651,-2.70921 -4.45218,-5.58921 -4.43484,-6.4 0.0514,-2.39832 12.01608,10.68896 14.58667,15.95516 z m -8.44604,-1.93576 c 4.24478,6.20281 7.02848,14.86309 6.28686,19.55889 -0.72788,4.60878 -2.19383,9.34753 -2.89169,9.34753 -0.58636,0 -5.46622,-19.0511 -7.43408,-29.02282 -1.31273,-6.65197 -0.57843,-6.6308 4.03891,0.1164 z m 1.02783,35.21527 c 0,2.09411 -4.56982,4.0939 -9.3209,4.0789 -3.74512,-0.0118 -6.77414,-1.0017 -5.36451,-1.75311 0.37698,-0.20095 2.12541,-0.43589 3.88541,-0.5221 3.49772,-0.17132 8.35962,-1.49827 9.56,-2.60918 1.07988,-0.9994 1.24,-0.89539 1.24,0.80549 z m 2.05278,6.01664 c 1.09668,4.36951 -2.99857,6.86089 -11.29278,6.87005 -4.74455,0.005 -5.96,-0.93813 -5.96,-4.62586 0,-2.68182 0.0315,-2.70539 3,-2.24216 1.65,0.25749 4.98,-0.031 7.4,-0.64121 6.11786,-1.54251 6.3097,-1.52462 6.85278,0.63918 z M 453.63734,314.62259 c -1.90083,1.00518 -3.81047,2.38946 -4.24363,3.07618 -1.42909,2.26557 0.11478,5.32755 4.05478,8.04192 4.38393,3.0202 8.31419,3.40743 11.74808,1.15745 1.90334,-1.2471 2.16555,-1.85134 1.79482,-4.13589 -0.23879,-1.47148 -1.15991,-4.31608 -2.04692,-6.32134 -1.5167,-3.42873 -1.79858,-3.64592 -4.73193,-3.64592 -1.71554,0 -4.67438,0.82242 -6.5752,1.8276 z"
         id="path14939"
         inkscape:connector-curvature="0" /><path
         inkscape:connector-curvature="0"
         id="path14937"
         d="m 367.54437,231.5002 c -2.93827,1.33096 -5.10264,4.13729 -5.10264,6.6161 0,2.13326 8.99821,12.7264 12.22978,14.39751 1.86029,0.962 3.09137,1.0126 6.82013,0.28029 6.84965,-1.34521 6.63982,-1.17554 5.14264,-4.15829 -0.72905,-1.45245 -1.52062,-5.34082 -1.75905,-8.64082 l -0.4335,-6 -3.17298,-1.54853 c -4.04992,-1.9765 -10.47242,-2.41932 -13.72438,-0.94626 z m 36.55063,28.19882 c -5.10512,4.58995 -6.45327,7.12531 -6.45327,12.13621 0,4.51564 2.30082,8.29588 8.03835,13.20699 4.13058,3.53563 6.63188,3.74256 12.45633,1.03055 5.69067,-2.64972 6.70532,-4.38922 6.70532,-11.49552 0,-10.15554 -6.26163,-18.58226 -13.8079,-18.58226 -2.2263,0 -3.68531,0.77883 -6.93883,3.70403 z m -42.92885,15.95947 c -7.86423,8.38245 -9.38554,12.81695 -6.38657,18.61632 1.3251,2.56245 10.1604,8.889 17.99759,12.88724 l 3.4463,1.75817 2.41058,-2.26261 c 1.32582,-1.24444 3.80493,-4.00495 5.50913,-6.13446 2.79753,-3.4957 3.09446,-4.31174 3.05646,-8.4 -0.0442,-4.75962 -1.67467,-15.17543 -2.61318,-16.69398 -0.56483,-0.91392 -7.93569,-2.27444 -15.74473,-2.90617 -4.33172,-0.35042 -4.45083,-0.30176 -7.67558,3.13549 z m 156.47558,15.6598 c -6.25537,1.02132 -7.33289,2.50626 -9.87798,13.61298 -3.01252,13.14654 -7.79398,26.5477 -13.79501,38.66372 -5.91234,11.93694 -5.58466,11.36593 -11.92701,20.78416 -5.17399,7.68325 -15.21974,18.79042 -21.49102,23.76172 l -3.89104,3.08446 -6.90896,-3.74186 c -12.06877,-6.53637 -18.63862,-11.6614 -22.41301,-17.48402 -2.98468,-4.60436 -4.09597,-7.42501 -4.09597,-10.39631 0,-2.25026 0.32502,-2.67315 2.36861,-3.08187 3.23364,-0.64673 8.53887,-5.6159 9.67678,-9.06383 1.30334,-3.94913 0.61065,-11.2021 -1.48285,-15.5267 -3.80555,-7.86121 -14.46445,-15.4394 -24.70648,-17.56563 -2.51023,-0.52112 -7.82476,-0.80432 -11.81006,-0.62933 -6.03118,0.26483 -8.13907,0.73635 -12.5729,2.81245 -2.95367,1.38303 -6.83784,4.04302 -8.71831,5.97052 -3.34714,3.43086 -7.13177,10.21474 -7.14697,12.81081 -0.0151,2.57353 -1.03149,3.94702 -4.0668,5.49552 -3.92372,2.00173 -8.41882,7.89366 -9.94621,13.03695 -1.50253,5.05956 -1.52986,11.9654 -0.0666,16.82746 2.12891,7.07384 10.61987,20.12609 21.66641,33.3055 9.049,10.79618 8.65214,9.77374 5.84828,15.06682 -2.17771,4.11104 -2.36545,5.05466 -2.01603,10.13318 0.48694,7.07718 3.11574,13.82791 7.18489,18.45071 2.92105,3.31849 6.65502,5.94929 8.444,5.94929 0.40437,0 2.49225,-1.39115 4.63973,-3.09144 15.07324,-11.93443 37.34212,-23.26118 52.18691,-26.5441 23.65225,-5.23071 35.75805,2.60123 40.97618,26.50983 2.12135,9.71971 3.92211,26.9606 3.93284,37.65415 l 0.009,8.52844 4.15707,2.07156 c 6.91801,3.44739 17.12321,2.19789 21.78427,-2.66721 2.60762,-2.72177 2.55676,-4.64382 -0.35777,-13.52127 l -1.66126,-5.06005 2.93071,-3.24394 c 6.44631,-7.1353 8.90556,-17.12534 6.3742,-25.89348 -2.45331,-8.49781 -5.88061,-13.84672 -14.2019,-22.16457 l -7.82532,-7.82208 0,-8.75042 c 0,-21.49764 5.7954,-45.26879 16.07752,-65.94561 5.66366,-11.38932 12.78595,-22.24796 21.02837,-32.05981 3.32659,-3.96 6.05864,-7.78145 6.07122,-8.49211 0.12342,-6.96821 -20.52433,-14.04633 -34.37711,-11.78459 z m 8.22483,20.41576 c 4.03627,1.27269 8.86429,4.74592 8.16653,5.87492 -0.22711,0.36748 -1.57808,0.31667 -3.00214,-0.11291 -1.42408,-0.42958 -6.63922,-0.99656 -11.58922,-1.25995 -4.95,-0.26338 -8.99509,-0.69539 -8.98908,-0.96 0.12316,-5.42434 5.51489,-6.66334 15.41391,-3.54206 z m 11.24487,1.06056 c 1.55526,1.43933 -0.88607,1.33746 -2.69207,-0.11234 l -1.97763,-1.58758 2,0.54007 c 1.1,0.29703 2.30137,0.81897 2.6697,1.15985 z m -8.4697,6.55968 c 1.87,0.45686 3.4,0.9852 3.4,1.1741 0,0.1889 -1.27918,2.34314 -2.84262,4.78719 -2.39932,3.75075 -3.11668,4.36249 -4.6,3.92279 -0.96656,-0.28652 -5.39328,-0.73244 -9.83716,-0.99092 l -8.07977,-0.46997 1.35023,-4.36397 c 0.74263,-2.40018 1.85853,-4.70601 2.47978,-5.12405 1.29768,-0.87321 13.0132,-0.18511 18.12954,1.06483 z m -108.19678,12.7666 c 1.52949,1.80808 1.501,1.80407 -0.80894,-0.11392 -3.83699,-3.18592 -4.08446,-3.454 -2.38533,-2.584 0.88492,0.4531 2.32235,1.66716 3.19427,2.69792 z m 101.38802,-0.88625 2.99124,0.83072 -3.20017,6.36481 c -3.02998,6.02633 -3.34097,6.36482 -5.84779,6.36482 -2.99772,0 -10.83956,-3.72434 -12.03091,-5.71387 -0.55244,-0.92255 -0.3675,-2.41172 0.62097,-5 l 1.40776,-3.68613 6.53383,0.005 c 3.59361,0.002 7.87989,0.37829 9.52507,0.83518 z m -152.69703,12.16035 c 0.32142,1.20328 0.0208,2.13653 -0.90669,2.81514 -5.81456,4.25407 -9.28611,9.70258 -10.52272,16.51511 -0.47225,2.60164 -1.01302,4.88463 -1.2017,5.07332 -0.71825,0.71825 -1.4179,-7.12759 -0.88765,-9.95405 1.1345,-6.04739 5.65143,-12.6847 10.42455,-15.31811 2.25505,-1.24416 2.55212,-1.16076 3.09421,0.86859 z m 137.59854,1.13578 c 1.70101,0.61614 4.69687,1.34012 6.65746,1.60885 3.36158,0.46075 3.53526,0.60731 3.04794,2.57199 -1.70817,6.88673 -4.91249,8.11376 -11.37247,4.35485 -6.54037,-3.80569 -6.93774,-4.37599 -5.48003,-7.86477 0.9819,-2.35004 1.54297,-2.85525 2.64999,-2.3862 0.7724,0.32725 2.7961,1.09913 4.49711,1.71528 z m -99.49275,3.36926 c 3.46173,1.72566 4.32442,2.52407 4.04554,3.74417 -0.19496,0.85293 -0.3549,4.45635 -0.35542,8.0076 -7.5e-4,5.15072 0.36773,7.17352 1.82162,10 4.59243,8.92799 15.51723,16.69205 32.68826,23.23098 2.75,1.04723 5,2.1117 5,2.36547 0,0.83607 -11.86323,7.26847 -19.40066,10.5193 -8.46883,3.65253 -22.329,7.45974 -30.7726,8.45282 l -5.77327,0.67902 -0.78185,-2.24282 c -1.63458,-4.68896 -6.10526,-9.7762 -16.08498,-18.30327 -13.4367,-11.48086 -15.80327,-14.83687 -17.69238,-25.08945 -1.7021,-9.23766 1.0483,-16.54265 7.54494,-20.03918 l 2.9177,-1.57032 2.22155,2.07258 c 4.80443,4.48224 8.12271,4.97736 10.54638,1.57363 4.71579,-6.62271 14.76418,-8.04201 24.07517,-3.40053 z m 16,4.49496 c -0.54775,0.66 -1.38064,1.2 -1.85086,1.2 -0.47022,0 -0.15614,-0.52855 0.69796,-1.17456 2.00677,-1.51785 2.39866,-1.5265 1.1529,-0.0254 z m -7.12914,2.13242 c 0.45453,0.84929 1.70453,1.87803 2.77778,2.28608 1.66749,0.63397 1.95136,1.263 1.95136,4.32406 0,4.5079 1.0317,6.87958 5.52829,12.70849 3.66138,4.74624 10.82933,10.67449 16.25108,13.44045 3.88708,1.98305 3.8996,2.5875 0.0206,0.99595 -13.7855,-5.65623 -24.99623,-13.91207 -21.67701,-15.96347 0.50832,-0.31416 0.71235,-0.22838 0.4534,0.19061 -0.25895,0.41899 -0.14009,1.28462 0.26414,1.92361 0.55091,0.87084 0.73804,0.61084 0.74722,-1.0382 0.007,-1.22678 -0.43012,-2.20542 -0.98775,-2.21225 -0.70153,-0.009 -0.73412,-0.18768 -0.10919,-0.6 0.50056,-0.33028 0.64706,-1.26989 0.3344,-2.14491 -0.51436,-1.43949 -0.60377,-1.40926 -1.18319,0.4 -0.34473,1.07644 -0.72021,2.22716 -0.83441,2.55716 -0.11419,0.33 -0.25261,1.00855 -0.30761,1.50789 -0.17259,1.56688 -3.42109,-3.22201 -4.99443,-7.36269 -1.92195,-5.05817 -2.11052,-13.72713 -0.28335,-13.02598 0.67223,0.25796 1.59411,1.1639 2.04864,2.0132 z m 1.52914,14.3148 c 0,0.46596 0.36,0.62472 0.8,0.35278 0.44,-0.27194 0.8,-0.65318 0.8,-0.84722 0,-0.19403 -0.36,-0.35278 -0.8,-0.35278 -0.44,0 -0.8,0.38125 -0.8,0.84722 z m 81.2471,-15.67266 c 1.51798,1.14814 1.51348,1.17513 -0.19988,1.2 -2.66937,0.0387 -3.00394,1.50927 -0.47994,2.10943 1.228,0.292 2.82538,1.04456 3.54975,1.67236 1.16628,1.0108 1.39521,0.92079 2,-0.78642 0.68083,-1.92184 0.6962,-1.92416 4.90263,-0.74098 3.7214,1.04675 4.15748,1.3867 3.69317,2.87898 -1.49493,4.80462 -1.87937,5.29207 -4.17365,5.29207 -2.57726,0 -7.33624,-1.47621 -7.34464,-2.27826 -0.003,-0.28696 -1.25084,-1.3698 -2.77294,-2.40632 -3.19818,-2.17788 -4.07301,-4.17714 -2.83778,-6.4852 1.03853,-1.94051 1.6067,-2.01118 3.66328,-0.45566 z m 3.5529,2.82544 c 0,0.44 -0.38125,0.8 -0.84722,0.8 -0.46596,0 -0.62472,-0.36 -0.35278,-0.8 0.27194,-0.44 0.65318,-0.8 0.84722,-0.8 0.19403,0 0.35278,0.36 0.35278,0.8 z m -8.98334,5.45 c 0.17417,0.5225 -0.30072,0.95 -1.05533,0.95 -1.13887,0 -1.29907,0.54374 -0.94279,3.2 0.49877,3.71866 0.28169,3.90716 -1.45216,1.26096 -1.16246,-1.77414 -1.16004,-2.15268 0.0285,-4.45102 1.26619,-2.44855 2.78369,-2.87426 3.4218,-0.95994 z m 9.19262,4.14229 c 7.00286,1.58317 6.7413,1.41911 6.36375,3.99147 -0.19089,1.30062 -0.84846,2.78089 -1.46127,3.28947 -1.69671,1.40815 -9.27197,0.48995 -12.41067,-1.5043 l -2.70109,-1.7162 2.31263,0.17363 c 1.27195,0.0955 2.47195,-0.27636 2.66667,-0.82636 0.21004,-0.5933 -0.32381,-1 -1.31264,-1 -1.55825,0 -1.86666,-0.59478 -1.86666,-3.6 0,-2.67788 0.28434,-2.84978 2.20928,-1.33563 1.1051,0.86927 3.8951,2.00684 6.2,2.52792 z m -122.7621,35.00771 c 6.92816,6.28855 11.35282,11.55787 11.35282,13.52003 0,0.60395 -0.83877,1.07997 -1.90294,1.07997 -1.3826,0 -2.19003,-0.69307 -2.95281,-2.53459 -0.81453,-1.96644 -7.7487,-11.02063 -10.31783,-13.47235 -0.23453,-0.2238 -1.29917,-1.3938 -2.36587,-2.6 -3.66973,-4.1496 -0.63173,-2.18196 6.18663,4.00694 z m 22.27712,21.7 c 0.87441,3.63913 4.34661,9.99753 6.95989,12.74515 l 2.51581,2.64515 -2,1.53706 c -1.1,0.84539 -2.61168,1.54507 -3.35929,1.55485 -2.59125,0.0339 -8.29945,-9.16439 -9.4491,-15.22645 -0.87954,-4.63781 -0.4903,-5.35576 2.90365,-5.35576 1.41571,0 2.05784,0.55516 2.42904,2.1 z m -7.87665,3.1 c 1.06281,5.97224 3.37919,11.26374 6.47349,14.78795 2.74966,3.1317 2.99716,3.81205 1.38675,3.81205 -4.53884,0 -12.72259,-15.68867 -11.78895,-22.6 0.0446,-0.33 0.7626,-0.6 1.59558,-0.6 1.21552,0 1.67614,0.90814 2.33313,4.6 z m 129.97056,15.62934 c 3.14935,6.45189 4.02815,11.8298 2.96927,18.17066 -0.91718,5.49235 -4.38461,12.83176 -6.36428,13.47113 -0.66524,0.21485 -0.23911,-0.73431 0.98027,-2.18347 2.33911,-2.77987 4.60221,-9.30856 4.58703,-13.23286 -0.0281,-7.26246 -5.0404,-17.74763 -12.32412,-25.78062 -2.45651,-2.70921 -4.45218,-5.58921 -4.43484,-6.4 0.0514,-2.39832 12.01608,10.68896 14.58667,15.95516 z m -8.44604,-1.93576 c 4.24478,6.20281 7.02848,14.86309 6.28686,19.55889 -0.72788,4.60878 -2.19383,9.34753 -2.89169,9.34753 -0.58636,0 -5.46622,-19.0511 -7.43408,-29.02282 -1.31273,-6.65197 -0.57843,-6.6308 4.03891,0.1164 z m 1.02783,35.21527 c 0,2.09411 -4.56982,4.0939 -9.3209,4.0789 -3.74512,-0.0118 -6.77414,-1.0017 -5.36451,-1.75311 0.37698,-0.20095 2.12541,-0.43589 3.88541,-0.5221 3.49772,-0.17132 8.35962,-1.49827 9.56,-2.60918 1.07988,-0.9994 1.24,-0.89539 1.24,0.80549 z m 2.05278,6.01664 c 1.09668,4.36951 -2.99857,6.86089 -11.29278,6.87005 -4.74455,0.005 -5.96,-0.93813 -5.96,-4.62586 0,-2.68182 0.0315,-2.70539 3,-2.24216 1.65,0.25749 4.98,-0.031 7.4,-0.64121 6.11786,-1.54251 6.3097,-1.52462 6.85278,0.63918 z M 453.63734,314.62259 c -1.90083,1.00518 -3.81047,2.38946 -4.24363,3.07618 -1.42909,2.26557 0.11478,5.32755 4.05478,8.04192 4.38393,3.0202 8.31419,3.40743 11.74808,1.15745 1.90334,-1.2471 2.16555,-1.85134 1.79482,-4.13589 -0.23879,-1.47148 -1.15991,-4.31608 -2.04692,-6.32134 -1.5167,-3.42873 -1.79858,-3.64592 -4.73193,-3.64592 -1.71554,0 -4.67438,0.82242 -6.5752,1.8276 z"
         style="fill:#ffffff;stroke:#ffffff;stroke-width:5.72473383;stroke-linejoin:round;stroke-miterlimit:4;stroke-dasharray:none" /></g><path
       inkscape:connector-curvature="0"
       id="path14773"
       d="m 379.2135,312.28624 c -1.303,1.2463 -1.92451,3.1273 -1.46526,4.43458 0.39523,1.12504 7.10333,5.04455 9.11721,5.32714 1.15931,0.16268 1.81793,-0.0387 3.64873,-1.11576 3.36315,-1.97848 3.28393,-1.85012 1.94172,-3.14578 -0.65358,-0.63093 -1.79145,-2.53492 -2.52859,-4.23111 l -1.34025,-3.08397 -1.96026,-0.2288 c -2.50204,-0.29203 -5.97119,0.66434 -7.4133,2.0437 z m 24.50056,8.09973 c -1.84196,3.36649 -2.08322,4.95336 -1.15484,7.59601 0.83662,2.38146 2.7504,3.94882 6.68615,5.47584 2.83344,1.09934 4.19092,0.74505 6.76017,-1.76431 2.51023,-2.45173 2.72306,-3.5571 1.40646,-7.30483 -1.88153,-5.35584 -6.74503,-8.63983 -10.72479,-7.24172 -1.17411,0.41247 -1.79927,1.09353 -2.97315,3.23901 z m -19.68303,16.37022 c -2.59442,5.87776 -2.57514,8.49829 0.0809,11.00114 1.17359,1.10589 7.00529,2.80546 11.87923,3.46205 l 2.14325,0.28872 0.8521,-1.63987 c 0.46865,-0.90193 1.26465,-2.81708 1.76887,-4.25588 0.82771,-2.36187 0.83311,-2.84725 0.0556,-4.99628 -0.90514,-2.50194 -3.69477,-7.69297 -4.47107,-8.31994 -0.4672,-0.37734 -4.60653,0.27076 -8.8419,1.38439 -2.34939,0.61774 -2.40319,0.66547 -3.46704,3.07567 z m 85.42358,-20.73181 c -3.10975,1.69756 -3.40289,2.68033 -2.68736,9.00933 0.84693,7.49137 0.80813,15.44476 -0.11194,22.94634 -0.90648,7.39071 -0.83945,7.02886 -2.43936,13.17091 -1.30518,5.0106 -4.54527,12.7295 -6.93158,16.51316 l -1.4806,2.34759 -4.33692,-0.69336 c -7.57584,-1.21115 -11.99018,-2.69679 -15.05949,-5.06824 -2.42712,-1.87527 -3.53578,-3.15694 -4.08628,-4.72395 -0.4169,-1.18674 -0.32384,-1.46999 0.67818,-2.06416 1.58554,-0.94017 3.46277,-4.54372 3.42408,-6.57292 -0.0443,-2.32417 -1.75339,-6.02091 -3.65868,-7.91376 -3.46344,-3.44079 -10.48877,-5.46259 -16.28415,-4.68637 -1.4204,0.19025 -4.27565,1.02552 -6.345,1.85618 -3.13166,1.25706 -4.15597,1.89627 -6.10964,3.81263 -1.30147,1.27661 -2.85709,3.39907 -3.49171,4.76399 -1.21047,2.60351 -1.86036,6.73559 -1.30946,8.32577 0.37086,1.07084 -0.20615,2.42349 -1.76361,4.13372 -3.2732,3.5943 -2.88145,11.82567 0.80326,16.87753 2.43333,3.33619 9.32951,8.64656 17.59702,13.55052 6.7725,4.01718 6.37377,3.55149 5.87573,6.86244 -0.38682,2.57155 -0.31101,3.10398 0.81417,5.71756 1.56801,3.64215 4.20511,6.71532 7.20757,8.39939 2.15533,1.20893 4.61197,1.90456 5.55544,1.57311 0.21326,-0.0749 1.05663,-1.1954 1.87415,-2.48998 5.73823,-9.08663 15.38389,-19.18594 22.60452,-23.66761 11.50465,-7.14067 19.34005,-5.25311 26.52158,6.38906 2.91955,4.73296 7.06349,13.49185 9.05036,19.12944 l 1.58482,4.49607 2.57616,0.32232 c 4.28714,0.53637 9.43766,-2.01332 10.99446,-5.44265 0.87094,-1.91853 0.48801,-2.92276 -2.6938,-7.06457 l -1.81359,-2.3608 0.94458,-2.25377 c 2.0777,-4.95734 1.52379,-10.68153 -1.43569,-14.83669 -2.86823,-4.02705 -5.66673,-6.21298 -11.59628,-9.05796 l -5.57613,-2.67541 -1.62121,-4.6148 c -3.98291,-11.33745 -5.33064,-24.94763 -3.73888,-37.75718 0.87679,-7.05583 2.62116,-14.10203 5.15019,-20.8037 1.0207,-2.70475 1.75353,-5.22628 1.6285,-5.6034 -1.22592,-3.69777 -13.42653,-3.60519 -20.31319,0.15413 z m -43.70018,39.52633 c 1.14161,0.67017 1.12584,0.67334 -0.44773,0.0898 -2.61381,-0.96931 -2.79399,-1.06484 -1.73671,-0.92082 0.55063,0.075 1.53364,0.44896 2.18444,0.83103 z m -4.0397,10.7678 c 2.14537,0.26872 2.74826,0.52995 2.82723,1.22508 0.0552,0.48594 0.63344,2.40257 1.28495,4.25918 0.94505,2.69347 1.52337,3.70392 2.86095,4.99996 3.62045,3.50805 10.98365,5.78549 19.65187,6.07833 2.6651,0.09 4.88389,0.27259 4.93064,0.40566 0.15448,0.43974 -4.91521,6.03431 -8.2831,9.14068 -3.77397,3.4809 -10.39005,8.06926 -14.61455,10.13543 l -2.87063,1.40401 -1.56366,-1.60774 c -2.28803,-2.35251 -4.58499,-3.58142 -11.80131,-6.31392 -8.5297,-3.22982 -10.54372,-4.68568 -13.41243,-9.69539 -2.60913,-4.55641 -2.51203,-8.91849 0.26637,-11.96614 l 1.2478,-1.36873 1.55559,0.68145 c 3.3642,1.47373 5.20593,1.12006 5.85352,-1.12404 1.26001,-4.3664 6.29638,-6.97659 12.06676,-6.25382 z m 9.27089,-0.59379 c -0.1666,0.44955 -0.5058,0.88865 -0.75378,0.97577 -0.24799,0.0871 -0.18028,-0.24982 0.15047,-0.74876 0.77712,-1.17228 0.9822,-1.24945 0.60331,-0.22699 z m 65.01718,28.65331 c 3.33731,2.50658 6.33459,6.50005 6.80477,9.06645 0.47421,2.58837 0.57374,5.33655 0.19805,5.46854 -0.35074,0.12321 -8.12673,-11.71826 -9.70957,-14.78599 -1.25573,-2.4337 -0.81307,-2.39266 2.70675,0.251 z m -55.98527,-54.20521 c -0.81623,0.88228 -1.56687,1.96613 -1.66808,2.40855 -0.33393,1.45959 1.04757,2.78838 3.62835,3.48992 2.87156,0.78058 5.01605,0.25663 6.41016,-1.56617 0.77273,-1.01033 0.79907,-1.37758 0.18029,-2.51372 -0.39856,-0.73179 -1.41136,-2.06132 -2.25067,-2.95452 -1.43513,-1.52724 -1.62402,-1.58956 -3.17101,-1.0461 -0.90475,0.31784 -2.31282,1.29977 -3.12904,2.18204 z"
       style="fill:#0a969f" /><path
       inkscape:connector-curvature="0"
       id="path14771"
       d="m 379.2135,312.28624 c -1.303,1.2463 -1.92451,3.1273 -1.46526,4.43458 0.39523,1.12504 7.10333,5.04455 9.11721,5.32714 1.15931,0.16268 1.81793,-0.0387 3.64873,-1.11576 3.36315,-1.97848 3.28393,-1.85012 1.94172,-3.14578 -0.65358,-0.63093 -1.79145,-2.53492 -2.52859,-4.23111 l -1.34025,-3.08397 -1.96026,-0.2288 c -2.50204,-0.29203 -5.97119,0.66434 -7.4133,2.0437 z m 24.50056,8.09973 c -1.84196,3.36649 -2.08322,4.95336 -1.15484,7.59601 0.83662,2.38146 2.7504,3.94882 6.68615,5.47584 2.83344,1.09934 4.19092,0.74505 6.76017,-1.76431 2.51023,-2.45173 2.72306,-3.5571 1.40646,-7.30483 -1.88153,-5.35584 -6.74503,-8.63983 -10.72479,-7.24172 -1.17411,0.41247 -1.79927,1.09353 -2.97315,3.23901 z m -19.68303,16.37022 c -2.59442,5.87776 -2.57514,8.49829 0.0809,11.00114 1.17359,1.10589 7.00529,2.80546 11.87923,3.46205 l 2.14325,0.28872 0.8521,-1.63987 c 0.46865,-0.90193 1.26465,-2.81708 1.76887,-4.25588 0.82771,-2.36187 0.83311,-2.84725 0.0556,-4.99628 -0.90514,-2.50194 -3.69477,-7.69297 -4.47107,-8.31994 -0.4672,-0.37734 -4.60653,0.27076 -8.8419,1.38439 -2.34939,0.61774 -2.40319,0.66547 -3.46704,3.07567 z m 85.42358,-20.73181 c -3.10975,1.69756 -3.40289,2.68033 -2.68736,9.00933 0.84693,7.49137 0.80813,15.44476 -0.11194,22.94634 -0.90648,7.39071 -0.83945,7.02886 -2.43936,13.17091 -1.30518,5.0106 -4.54527,12.7295 -6.93158,16.51316 l -1.4806,2.34759 -4.33692,-0.69336 c -7.57584,-1.21115 -11.99018,-2.69679 -15.05949,-5.06824 -2.42712,-1.87527 -3.53578,-3.15694 -4.08628,-4.72395 -0.4169,-1.18674 -0.32384,-1.46999 0.67818,-2.06416 1.58554,-0.94017 3.46277,-4.54372 3.42408,-6.57292 -0.0443,-2.32417 -1.75339,-6.02091 -3.65868,-7.91376 -3.46344,-3.44079 -10.48877,-5.46259 -16.28415,-4.68637 -1.4204,0.19025 -4.27565,1.02552 -6.345,1.85618 -3.13166,1.25706 -4.15597,1.89627 -6.10964,3.81263 -1.30147,1.27661 -2.85709,3.39907 -3.49171,4.76399 -1.12957,2.42951 -1.86865,6.70838 -1.39569,8.08032 0.46884,1.36002 0.18728,2.27268 -1.12659,3.65169 -1.69843,1.78263 -2.97746,5.72274 -2.83006,8.71819 0.14498,2.94669 1.41003,6.59377 3.08252,8.88682 2.43334,3.33619 9.32952,8.64656 17.59702,13.55053 6.7725,4.01717 6.37378,3.55148 5.87573,6.86243 -0.38682,2.57155 -0.31101,3.10398 0.81418,5.71756 1.568,3.64215 4.2051,6.71532 7.20757,8.39939 2.15533,1.20893 4.61197,1.90457 5.55544,1.57311 0.21325,-0.0749 1.05662,-1.1954 1.87415,-2.48997 5.73823,-9.08664 15.38388,-19.18595 22.60452,-23.66761 11.50464,-7.14067 19.34005,-5.25312 26.52158,6.38905 2.91955,4.73296 7.06348,13.49185 9.05035,19.12944 l 1.58483,4.49608 2.57616,0.32231 c 4.28713,0.53638 9.43766,-2.01332 10.99445,-5.44265 0.87095,-1.91853 0.48802,-2.92275 -2.69379,-7.06457 l -1.8136,-2.36079 0.94459,-2.25377 c 2.07769,-4.95734 1.52378,-10.68153 -1.4357,-14.83669 -2.86823,-4.02706 -5.66673,-6.21299 -11.59627,-9.05797 l -5.57614,-2.67541 -1.62121,-4.6148 c -3.9829,-11.33745 -5.33064,-24.94763 -3.73887,-37.75717 0.87679,-7.05583 2.62115,-14.10204 5.15018,-20.80371 1.02071,-2.70475 1.75353,-5.22628 1.62851,-5.6034 -1.22592,-3.69777 -13.42654,-3.60519 -20.31319,0.15414 z m 8.12008,9.24305 c 2.36444,-0.0766 5.55414,0.86061 5.39533,1.5853 -0.0517,0.23587 -0.77358,0.45938 -1.6042,0.49666 -0.83061,0.0373 -3.68603,0.7045 -6.34536,1.48268 -2.65934,0.77819 -4.87268,1.29981 -4.91853,1.15914 -0.94003,-2.88351 1.67392,-4.53587 7.47276,-4.72378 z m 6.12682,-1.52404 c 1.08688,0.47094 -0.2195,0.86952 -1.44056,0.43952 l -1.3371,-0.47086 1.15482,-0.0857 c 0.63516,-0.0472 1.36543,0.006 1.62284,0.11706 z m -3.25144,5.02865 c 1.07085,-0.10551 1.97563,-0.11034 2.01063,-0.0107 0.035,0.0996 -0.2405,1.47272 -0.61222,3.05133 -0.57044,2.4226 -0.83543,2.87813 -1.69917,2.92106 -0.56282,0.0279 -2.98001,0.61294 -5.37152,1.29995 l -4.34819,1.2491 -0.0964,-2.55163 c -0.053,-1.4034 0.10826,-2.8262 0.35844,-3.16177 0.5226,-0.70093 6.82862,-2.50859 9.75846,-2.79731 z m -54.69564,26.77867 c 1.14161,0.67017 1.12584,0.67334 -0.44773,0.0898 -2.61381,-0.96931 -2.79399,-1.06484 -1.73671,-0.92082 0.55063,0.075 1.53364,0.44896 2.18444,0.83103 z m 53.30593,-19.25173 1.73143,-0.11608 -0.50849,3.94958 c -0.48145,3.73954 -0.58274,3.97567 -1.90479,4.44012 -1.58094,0.55539 -6.4066,0.0441 -7.40349,-0.78441 -0.46227,-0.38418 -0.64064,-1.20381 -0.59888,-2.75195 l 0.0595,-2.20481 3.44674,-1.2079 c 1.89557,-0.66474 4.22579,-1.26041 5.17807,-1.32427 z m -78.27656,34.70358 c 0.39245,0.57503 0.40681,1.12291 0.0434,1.65264 -2.27833,3.32079 -3.09971,6.83741 -2.4897,10.65932 0.23296,1.45954 0.37074,2.76374 0.30619,2.89821 -0.24572,0.51186 -2.06832,-3.49626 -2.31233,-5.08513 -0.5221,-3.39946 0.63033,-7.73671 2.65969,-10.00985 0.95877,-1.07394 1.13089,-1.085 1.79276,-0.11519 z m 72.77729,-24.89413 c 1.01124,0.01 2.72533,-0.16344 3.8091,-0.38496 1.8582,-0.37981 1.97695,-0.3347 2.08394,0.79173 0.37506,3.9484 -1.0875,5.18918 -5.19079,4.40366 -4.15436,-0.7953 -4.46958,-1.02245 -4.34718,-3.13244 0.0824,-1.42129 0.28473,-1.79167 0.95545,-1.74941 0.46798,0.0295 1.67825,0.0616 2.68948,0.0714 z m -51.84636,20.21008 c 2.14537,0.26872 2.74826,0.52995 2.82723,1.22508 0.0552,0.48594 0.63847,2.41595 1.29614,4.2889 0.95389,2.71654 1.52298,3.71506 2.81341,4.93632 4.07606,3.8576 11.27605,5.92817 21.54321,6.19537 1.64432,0.0428 3.02814,0.18731 3.07516,0.32115 0.1549,0.44092 -4.90981,6.03117 -8.28261,9.14207 -3.78959,3.49531 -10.39382,8.07106 -14.66282,10.15915 l -2.91891,1.42773 -0.82786,-1.03797 c -1.73078,-2.17003 -5.03106,-4.02465 -11.874,-6.67271 -9.21334,-3.56535 -11.0832,-4.89679 -13.97899,-9.95381 -2.60913,-4.55641 -2.51203,-8.91849 0.26637,-11.96614 l 1.2478,-1.36873 1.55559,0.68145 c 3.3642,1.47373 5.20593,1.12006 5.85352,-1.12404 1.26001,-4.3664 6.29638,-6.97659 12.06676,-6.25382 z m 9.27089,-0.59379 c -0.1666,0.44955 -0.5058,0.88865 -0.75378,0.97577 -0.24799,0.0871 -0.18028,-0.24982 0.15047,-0.74876 0.77712,-1.17228 0.9822,-1.24945 0.60331,-0.22699 z m -3.3647,2.44542 c 0.39706,0.36369 1.24688,0.67464 1.88849,0.69099 0.99686,0.0254 1.26312,0.30456 1.83024,1.9189 0.83519,2.37738 1.81869,3.43701 5.27004,5.67798 2.81029,1.82473 7.68887,3.62316 11.06065,4.07737 2.41737,0.32566 2.53596,0.64212 0.19538,0.52144 -8.31815,-0.42893 -15.76005,-2.70587 -14.38962,-4.4027 0.20987,-0.25986 0.33336,-0.25242 0.27443,0.0165 -0.0589,0.26894 0.16412,0.70344 0.49569,0.96554 0.45189,0.35719 0.5024,0.1854 0.20172,-0.68597 -0.2236,-0.64828 -0.63543,-1.08341 -0.93079,-0.9837 -0.37164,0.12523 -0.42193,0.037 -0.16874,-0.29619 0.20279,-0.26693 0.10597,-0.7896 -0.22104,-1.19315 -0.53796,-0.66386 -0.57951,-0.63135 -0.54988,0.43017 0.0176,0.63156 0.0328,1.308 0.0337,1.50319 10e-4,0.19519 0.0537,0.57869 0.11714,0.85223 0.19928,0.85831 -2.40116,-1.0654 -3.99806,-2.95762 -1.95074,-2.3115 -3.6563,-6.84841 -2.56278,-6.81716 0.40231,0.0115 1.05634,0.31847 1.45341,0.68217 z m 3.45857,7.26605 c 0.0863,0.24574 0.3056,0.26277 0.48727,0.0378 0.18166,-0.22493 0.30088,-0.49268 0.26493,-0.59502 -0.0359,-0.10233 -0.25521,-0.11935 -0.48726,-0.0378 -0.23205,0.0815 -0.35128,0.34929 -0.26494,0.59503 z m 39.94448,-23.31825 c 1.01327,0.32427 1.0159,0.33934 0.11691,0.66989 -1.4006,0.51497 -1.30459,1.35251 0.13771,1.20139 0.70172,-0.0735 1.68358,0.0274 2.18191,0.2243 0.80235,0.317 0.90641,0.22712 0.90906,-0.78528 0.003,-1.13968 0.0107,-1.14375 2.44827,-1.2991 2.15653,-0.13743 2.4495,-0.039 2.48111,0.83408 0.10176,2.81084 -0.0107,3.13913 -1.22064,3.5642 -1.3592,0.47749 -4.14249,0.58067 -4.29552,0.15924 -0.0547,-0.15078 -0.91345,-0.49066 -1.90822,-0.7553 -2.09016,-0.55604 -2.92193,-1.44833 -2.69811,-2.89441 0.18817,-1.2158 0.47472,-1.35833 1.84752,-0.91901 z m 2.39721,0.83183 c 0.0815,0.23205 -0.0528,0.49254 -0.29859,0.57887 -0.24574,0.0863 -0.39617,-0.0741 -0.33427,-0.35654 0.0619,-0.28243 0.19626,-0.54292 0.29859,-0.57887 0.10232,-0.036 0.25275,0.12449 0.33427,0.35654 z m -3.72792,4.53859 c 0.18866,0.24328 0.0174,0.55672 -0.38055,0.69653 -0.60062,0.211 -0.58437,0.52744 0.0957,1.8623 0.95201,1.86874 0.87245,2.00837 -0.53222,0.93404 -0.94176,-0.72027 -1.01062,-0.92035 -0.80962,-2.35266 0.21412,-1.52591 0.93555,-2.03157 1.62674,-1.14022 z m 5.61547,0.48143 c 3.98649,-0.4625 3.81815,-0.50056 4.09562,0.926 0.1403,0.72129 0.0678,1.62379 -0.16119,2.00554 -0.63393,1.05699 -4.79909,1.97622 -6.82386,1.50601 l -1.74247,-0.40466 1.25181,-0.33689 c 0.68849,-0.18529 1.25246,-0.60373 1.25324,-0.92987 0.001,-0.35181 -0.35604,-0.46739 -0.87752,-0.28418 -0.8218,0.28869 -1.09465,0.0321 -1.65143,-1.55274 -0.49613,-1.41226 -0.37802,-1.5556 0.91768,-1.1137 0.74386,0.25369 2.42601,0.33672 3.73812,0.18449 z m -58.25648,41.20674 c 4.81888,2.03288 8.12862,3.99205 8.49215,5.02686 0.1119,0.31851 -0.24227,0.72495 -0.80349,0.92211 -0.72916,0.25616 -1.28339,0.0403 -2.02684,-0.78962 -0.79389,-0.88615 -6.12833,-4.37646 -7.93748,-5.19346 -0.16515,-0.0746 -0.94338,-0.49437 -1.72942,-0.93286 -2.70415,-1.50853 -0.73741,-1.03369 4.00508,0.96697 z m 15.76894,7.31685 c 1.13537,1.75721 4.14457,4.46721 6.03182,5.43208 l 1.81686,0.9289 -0.76998,1.18116 c -0.4235,0.64964 -1.09109,1.29871 -1.48356,1.44238 -1.36029,0.49796 -6.07488,-3.29547 -7.8043,-6.27949 -1.32312,-2.28294 -1.25085,-2.73369 0.53905,-3.36249 0.74662,-0.2623 1.18813,-0.0885 1.67011,0.65746 z m -3.57966,3.09421 c 1.66699,2.95273 3.86897,5.31421 6.15378,6.59953 2.03034,1.14216 2.28692,1.45511 1.43762,1.75347 -2.3937,0.84092 -9.61633,-5.91677 -10.40441,-9.73465 -0.0376,-0.1823 0.29101,-0.45771 0.73031,-0.61204 0.64105,-0.2252 1.05222,0.16839 2.0827,1.99369 z m 71.43969,-15.83725 c 2.85626,2.81912 4.31609,5.49251 4.93244,9.03274 0.53388,3.06649 0.065,7.57957 -0.86058,8.28354 -0.31103,0.23656 -0.26215,-0.34296 0.11244,-1.33314 0.71857,-1.89942 0.70251,-5.76181 -0.0326,-7.8286 -1.36035,-3.82488 -5.94634,-8.42592 -11.27592,-11.31291 -1.79746,-0.97366 -3.38352,-2.12278 -3.5246,-2.55358 -0.41723,-1.27435 8.31742,3.41091 10.64878,5.71195 z m -4.81292,0.54393 c 3.38782,2.48481 6.46039,6.53633 6.93927,9.15021 0.47001,2.56544 0.57485,5.33616 0.20681,5.46546 -0.30923,0.10863 -6.41241,-9.03445 -9.2977,-13.92876 -1.92473,-3.26492 -1.53355,-3.38979 2.15162,-0.68691 z m 7.06644,18.38144 c 0.38799,1.10439 -1.65155,3.0057 -4.15996,3.87803 -1.97729,0.68764 -3.75814,0.72678 -3.15394,0.0693 0.16158,-0.17583 1.04014,-0.62366 1.95236,-0.99521 1.81289,-0.73838 4.13112,-2.33896 4.55835,-3.14722 0.38435,-0.72714 0.48807,-0.70196 0.80319,0.19506 z m 2.19731,2.79273 c 1.38792,2.10122 -0.31026,4.17386 -4.68277,5.71538 -2.50126,0.88166 -3.317,0.60946 -4.00023,-1.33538 -0.49686,-1.41434 -0.48462,-1.4326 1.16673,-1.73829 0.91789,-0.1699 2.62062,-0.939 3.78383,-1.70917 2.94066,-1.94696 3.04514,-1.97306 3.73244,-0.93254 z m -65.11452,-75.29562 c -0.81623,0.88228 -1.56687,1.96613 -1.66808,2.40855 -0.33393,1.45959 1.04757,2.78838 3.62835,3.48992 2.87156,0.78058 5.01605,0.25663 6.41016,-1.56617 0.77273,-1.01033 0.79907,-1.37758 0.18029,-2.51372 -0.39856,-0.73179 -1.41136,-2.06132 -2.25067,-2.95452 -1.43513,-1.52724 -1.62402,-1.58956 -3.17101,-1.0461 -0.90475,0.31784 -2.31282,1.29977 -3.12904,2.18204 z"
       style="fill:#986123" /><path
       inkscape:connector-curvature="0"
       id="path14769"
       d="m 379.3287,312.47743 c -1.3369,1.28148 -1.94736,3.199 -1.46004,4.58616 0.11168,0.3179 2.21682,1.62151 4.67809,2.89691 l 4.47503,2.31891 2.83853,-1.27263 c 1.56118,-0.69996 2.95309,-1.51132 3.09313,-1.80303 0.15703,-0.3271 -0.17584,-0.93601 -0.86847,-1.58869 -0.68602,-0.64645 -1.49675,-2.12196 -2.08327,-3.7915 -1.13716,-3.23695 -1.71688,-3.62924 -5.11607,-3.46199 -3.04788,0.14997 -3.80795,0.43937 -5.55693,2.11586 z m 2.02701,0.55477 c -0.0116,0.40635 -0.14339,0.68012 -0.29283,0.60838 -0.14945,-0.0718 -0.21771,-0.37689 -0.1517,-0.67812 0.17954,-0.81927 0.46864,-0.77393 0.44453,0.0697 z m 4.18454,1.9703 c 0.612,0.14217 4.8315,3.97289 5.06221,4.59579 0.0643,0.17292 -0.62698,0.57574 -1.53571,0.89498 -1.48864,0.52297 -1.97599,0.40464 -4.92265,-1.19526 -1.79874,-0.97663 -3.32175,-1.92174 -3.38445,-2.10024 -0.0994,-0.28289 0.43582,-0.59306 3.5442,-2.05394 0.33562,-0.15772 0.89199,-0.22133 1.2364,-0.14133 z m 18.84456,4.34282 c -2.73337,3.94397 -2.91534,8.54117 -0.43075,10.88192 1.6855,1.58793 7.71539,4.12911 8.84419,3.72722 1.3277,-0.4727 4.39001,-3.53921 4.98595,-4.99279 1.1482,-2.80059 -1.64877,-8.51544 -5.16423,-10.55172 -3.89087,-2.25374 -6.20728,-1.99064 -8.23516,0.93537 z m 8.00284,4.98562 3.49119,2.284 -0.10092,1.73967 c -0.12008,2.07016 -1.88939,4.0919 -3.72946,4.26154 -0.75261,0.0694 -2.25396,-0.60383 -3.99756,-1.79255 -3.003,-2.0473 -3.30092,-2.44191 -2.86355,-3.79296 0.40644,-1.25556 3.00115,-5.12389 3.38578,-5.04773 0.17783,0.0352 1.89436,1.09183 3.81452,2.34803 z m -28.86917,13.89119 c -0.63452,1.86324 -1.22845,3.87082 -1.31984,4.46129 -0.3526,2.27812 1.37053,4.99422 3.8217,6.02399 2.26227,0.95042 10.77055,2.72452 11.62565,2.42411 1.88407,-0.66188 4.18897,-7.68798 3.31966,-10.11937 -0.95793,-2.6792 -4.13322,-8.14303 -4.96413,-8.5419 -0.83968,-0.40309 -5.97166,0.52179 -9.35926,1.6867 -1.91968,0.66012 -1.99965,0.76422 -3.12378,4.06518 z m 3.81928,-0.95038 c 0.0815,0.23204 -0.0829,0.37127 -0.36529,0.30937 -0.28243,-0.0619 -0.5802,-0.30239 -0.66172,-0.53444 -0.0815,-0.23204 0.0829,-0.37126 0.36529,-0.30937 0.28243,0.0619 0.5802,0.30239 0.66172,0.53444 z m 4.29798,0.10997 c -0.0329,1.29006 0.003,1.30577 2.34137,1.01671 0.66774,-0.0826 2.00356,0.22889 2.96849,0.6921 2.63475,1.26482 2.86876,2.56944 1.229,6.85158 -0.75627,1.97498 -1.48426,3.62924 -1.61775,3.67614 -0.1335,0.0469 -2.04505,-0.27178 -4.24789,-0.70817 -3.68034,-0.72909 -4.04384,-0.9035 -4.48194,-2.15054 -0.45914,-1.30698 0.0166,-6.41007 0.74901,-8.03473 0.27608,-0.61238 0.35779,-0.3351 0.36736,1.24662 0.0199,3.29151 0.98271,2.9745 1.75935,-0.57932 0.73925,-3.38264 0.98125,-3.90411 0.93299,-2.01042 z m 76.42793,-20.42693 c -0.65113,0.46488 -1.31779,1.20663 -1.48148,1.64833 -0.16368,0.4417 -0.028,3.00764 0.30167,5.7021 1.61854,13.23153 0.48031,27.14845 -3.20346,39.16811 -1.52041,4.96086 -4.48966,11.62554 -6.63178,14.88547 l -1.09378,1.66453 -4.89073,-0.71139 c -2.6899,-0.39127 -6.20794,-1.12166 -7.81786,-1.62308 -4.98522,-1.55269 -10.3517,-5.30582 -11.2927,-7.89774 -0.34655,-0.95441 -0.14371,-1.38896 1.26705,-2.7146 2.15965,-2.02937 2.75683,-3.14203 2.98092,-5.55405 0.23855,-2.5676 -0.65944,-5.05558 -2.71149,-7.51242 -6.80721,-8.15004 -23.22902,-7.45186 -30.65935,1.30349 -2.67187,3.14835 -4.39982,9.44074 -3.39061,12.34704 0.30987,0.89218 0.12203,1.41394 -0.85875,2.38593 -3.85728,3.82277 -4.29417,11.25816 -0.98412,16.74863 1.96129,3.25324 9.97283,9.69046 18.14384,14.57845 l 6.94527,4.15476 -0.55698,1.71649 c -1.29373,3.98704 0.45014,8.68471 4.85198,13.07034 2.16979,2.1618 5.71018,3.96058 7.50477,3.81299 0.58544,-0.0482 1.40174,-0.8265 2.29736,-2.19056 4.79377,-7.30107 11.49068,-15.00477 17.37606,-19.98829 8.96408,-7.59044 16.97788,-10.06487 23.02386,-7.10909 5.81443,2.8426 10.42037,9.67948 17.1208,25.4135 3.60612,8.4679 3.59875,8.46038 7.81726,7.98348 4.08899,-0.46225 8.61133,-3.94199 8.68112,-6.67972 0.023,-0.90353 -0.47,-1.91772 -1.91871,-3.94698 -3.20719,-4.49238 -3.13999,-4.29781 -2.18377,-6.32291 1.94992,-4.12961 1.73957,-9.91907 -0.49507,-13.62572 -2.78055,-4.61217 -8.67002,-9.17408 -14.57987,-11.2934 l -3.00444,-1.07741 -2.0137,-5.69123 c -6.42617,-18.16208 -5.95009,-38.6946 1.34482,-58.00024 1.09513,-2.8982 1.90132,-5.52509 1.79156,-5.83753 -0.32696,-0.9307 -2.8057,-2.00862 -5.38771,-2.34294 -4.7834,-0.61937 -12.95663,1.15437 -16.29198,3.53566 z m 13.01544,-1.3126 c 1.25781,-0.19064 3.0812,-0.30053 4.05201,-0.24422 l 1.76508,0.10238 -0.79958,2.23496 c -0.43977,1.22922 -0.9645,2.71069 -1.16606,3.29214 -0.35641,1.0281 -0.4673,1.07118 -4.03052,1.56576 -2.31354,0.32111 -5.06762,1.0581 -7.47213,1.99954 -3.64399,1.42673 -3.80986,1.45075 -3.84895,0.55738 -0.0225,-0.51347 -0.18193,-1.68906 -0.35438,-2.6124 -0.17244,-0.92335 -0.15284,-1.87778 0.0435,-2.12095 1.14328,-1.41558 8.03792,-4.20274 11.81097,-4.77459 z m -3.50442,9.62524 c 2.36444,-0.0766 5.55414,0.86061 5.39533,1.5853 -0.0517,0.23587 -0.77358,0.45938 -1.6042,0.49666 -0.83061,0.0373 -3.68603,0.7045 -6.34536,1.48268 -2.65934,0.77819 -4.87268,1.29981 -4.91853,1.15914 -0.94003,-2.88351 1.67392,-4.53587 7.47276,-4.72378 z m 6.12682,-1.52404 c 1.08688,0.47094 -0.2195,0.86952 -1.44056,0.43952 l -1.3371,-0.47086 1.15482,-0.0857 c 0.63516,-0.0472 1.36543,0.006 1.62284,0.11706 z m -62.80942,26.06705 c 3.86909,0.36175 7.0719,1.85749 9.39514,4.38763 2.17562,2.36938 2.03356,2.50406 -0.98164,0.93073 -2.97651,-1.55315 -7.37591,-2.46794 -11.40719,-2.37196 -4.8812,0.11624 -10.41654,2.74605 -14.34008,6.81291 l -1.32194,1.37021 0.30569,-1.23734 c 0.36778,-1.48865 2.53334,-4.60618 4.23161,-6.09178 1.68399,-1.47311 6.19812,-3.46763 8.65879,-3.82579 1.11602,-0.16244 3.57285,-0.15102 5.45962,0.0254 z m 59.55798,-21.0384 c 1.07085,-0.10551 1.97563,-0.11034 2.01063,-0.0107 0.035,0.0996 -0.2405,1.47272 -0.61222,3.05133 -0.57044,2.4226 -0.83543,2.87813 -1.69917,2.92106 -0.56282,0.0279 -2.98001,0.61294 -5.37152,1.29995 l -4.34819,1.2491 -0.0964,-2.55163 c -0.053,-1.4034 0.10826,-2.8262 0.35844,-3.16177 0.5226,-0.70093 6.82862,-2.50859 9.75846,-2.79731 z m -61.13785,24.96146 c 8.77776,0.41898 16.05247,6.26948 13.75267,11.06023 -1.07043,2.22983 -2.15528,2.50421 -5.13752,1.29938 -4.07921,-1.648 -7.38381,-1.8207 -11.53465,-0.6028 -4.30146,1.26208 -7.08499,3.18168 -8.41254,5.80151 -1.01441,2.00188 -1.46795,2.02197 -3.43066,0.15195 -7.02792,-6.69597 2.63574,-18.28911 14.7627,-17.71027 z m -14.91689,13.78278 c -0.53331,1.11094 -0.41001,1.49501 0.60007,1.86933 1.03156,0.38228 2.0683,-0.25083 2.31843,-1.41581 0.15929,-0.74188 -0.007,-0.99117 -0.83355,-1.24758 -1.30495,-0.40494 -1.55511,-0.30968 -2.08496,0.79407 z m 23.83202,-5.07462 c -0.54488,1.13503 0.20386,1.97918 1.63819,1.84695 0.80011,-0.0738 1.30044,-0.44157 1.68201,-1.23636 0.50428,-1.05049 0.47599,-1.16358 -0.39578,-1.58208 -1.17552,-0.5643 -2.37911,-0.16448 -2.92442,0.97149 z m 50.83301,-26.14268 1.73143,-0.11608 -0.50849,3.94958 c -0.48145,3.73954 -0.58274,3.97567 -1.90479,4.44012 -1.58094,0.55539 -6.4066,0.0441 -7.40349,-0.78441 -0.46227,-0.38418 -0.64064,-1.20381 -0.59888,-2.75195 l 0.0595,-2.20481 3.44674,-1.2079 c 1.89557,-0.66474 4.22579,-1.26041 5.17807,-1.32427 z m -78.27656,34.70358 c 0.39245,0.57503 0.40681,1.12291 0.0434,1.65264 -2.27833,3.32079 -3.09971,6.83741 -2.4897,10.65932 0.23296,1.45954 0.37074,2.76374 0.30619,2.89821 -0.24572,0.51186 -2.06832,-3.49626 -2.31233,-5.08513 -0.5221,-3.39946 0.63033,-7.73671 2.65969,-10.00985 0.95877,-1.07394 1.13089,-1.085 1.79276,-0.11519 z m 72.77729,-24.89413 c 1.01124,0.01 2.72533,-0.16344 3.8091,-0.38496 1.8582,-0.37981 1.97695,-0.3347 2.08394,0.79173 0.37506,3.9484 -1.0875,5.18918 -5.19079,4.40366 -4.15436,-0.7953 -4.46958,-1.02245 -4.34718,-3.13244 0.0824,-1.42129 0.28473,-1.79167 0.95545,-1.74941 0.46798,0.0295 1.67825,0.0616 2.68948,0.0714 z m -54.07136,19.85543 c 1.26531,-0.0577 2.97399,0.14189 3.79707,0.44348 1.43639,0.52631 1.51401,0.64689 1.93241,3.00206 0.97459,5.48602 4.28021,9.08694 10.28638,11.20532 3.38307,1.19321 11.34039,2.31943 15.5867,2.20605 1.35588,-0.0362 2.50927,0.0615 2.56311,0.21717 0.2017,0.58425 -5.93351,7.21686 -9.70914,10.49592 -4.15503,3.60855 -10.16729,7.66148 -14.36416,9.68303 -2.36319,1.13831 -2.5537,1.1632 -2.8323,0.37016 -0.54218,-1.54334 -5.28729,-4.60663 -9.61412,-6.2066 -12.41939,-4.59236 -15.01769,-6.58783 -17.40293,-13.36525 -1.33223,-3.78549 -1.38103,-4.16346 -0.77761,-6.02564 0.35409,-1.09274 1.22113,-2.74885 1.92676,-3.68024 l 1.28297,-1.69344 0.96156,0.6893 c 1.21339,0.86982 3.52045,1.20685 4.91285,0.71769 0.68486,-0.24059 1.3767,-1.08791 1.92195,-2.35389 1.46309,-3.39697 4.97112,-5.49738 9.5285,-5.70512 z m 8.13119,2.20628 c 0.39706,0.36369 1.24688,0.67464 1.88849,0.69099 0.99686,0.0254 1.26312,0.30456 1.83024,1.9189 0.83519,2.37738 1.81869,3.43701 5.27004,5.67798 2.81029,1.82473 7.68887,3.62316 11.06065,4.07737 2.41737,0.32566 2.53596,0.64212 0.19538,0.52144 -8.31815,-0.42893 -15.76005,-2.70587 -14.38962,-4.4027 0.20987,-0.25986 0.33336,-0.25242 0.27443,0.0165 -0.0589,0.26894 0.16412,0.70344 0.49569,0.96554 0.45189,0.35719 0.5024,0.1854 0.20172,-0.68597 -0.2236,-0.64828 -0.63543,-1.08341 -0.93079,-0.9837 -0.37164,0.12523 -0.42193,0.037 -0.16874,-0.29619 0.20279,-0.26693 0.10597,-0.7896 -0.22104,-1.19315 -0.53796,-0.66386 -0.57951,-0.63135 -0.54988,0.43017 0.0176,0.63156 0.0328,1.308 0.0337,1.50319 10e-4,0.19519 0.0537,0.57869 0.11714,0.85223 0.19928,0.85831 -2.40116,-1.0654 -3.99806,-2.95762 -1.95074,-2.3115 -3.6563,-6.84841 -2.56278,-6.81716 0.40231,0.0115 1.05634,0.31847 1.45341,0.68217 z m 3.45857,7.26605 c 0.0863,0.24574 0.3056,0.26277 0.48727,0.0378 0.18166,-0.22493 0.30088,-0.49268 0.26493,-0.59502 -0.0359,-0.10233 -0.25521,-0.11935 -0.48726,-0.0378 -0.23205,0.0815 -0.35128,0.34929 -0.26494,0.59503 z m 39.94448,-23.31825 c 1.01327,0.32427 1.0159,0.33934 0.11691,0.66989 -1.4006,0.51497 -1.30459,1.35251 0.13771,1.20139 0.70172,-0.0735 1.68358,0.0274 2.18191,0.2243 0.80235,0.317 0.90641,0.22712 0.90906,-0.78528 0.003,-1.13968 0.0107,-1.14375 2.44827,-1.2991 2.15653,-0.13743 2.4495,-0.039 2.48111,0.83408 0.10176,2.81084 -0.0107,3.13913 -1.22064,3.5642 -1.3592,0.47749 -4.14249,0.58067 -4.29552,0.15924 -0.0547,-0.15078 -0.91345,-0.49066 -1.90822,-0.7553 -2.09016,-0.55604 -2.92193,-1.44833 -2.69811,-2.89441 0.18817,-1.2158 0.47472,-1.35833 1.84752,-0.91901 z m 2.39721,0.83183 c 0.0815,0.23205 -0.0528,0.49254 -0.29859,0.57887 -0.24574,0.0863 -0.39617,-0.0741 -0.33427,-0.35654 0.0619,-0.28243 0.19626,-0.54292 0.29859,-0.57887 0.10232,-0.036 0.25275,0.12449 0.33427,0.35654 z m -3.72792,4.53859 c 0.18866,0.24328 0.0174,0.55672 -0.38055,0.69653 -0.60062,0.211 -0.58437,0.52744 0.0957,1.8623 0.95201,1.86874 0.87245,2.00837 -0.53222,0.93404 -0.94176,-0.72027 -1.01062,-0.92035 -0.80962,-2.35266 0.21412,-1.52591 0.93555,-2.03157 1.62674,-1.14022 z m 5.61547,0.48143 c 3.98649,-0.4625 3.81815,-0.50056 4.09562,0.926 0.1403,0.72129 0.0678,1.62379 -0.16119,2.00554 -0.63393,1.05699 -4.79909,1.97622 -6.82386,1.50601 l -1.74247,-0.40466 1.25181,-0.33689 c 0.68849,-0.18529 1.25246,-0.60373 1.25324,-0.92987 0.001,-0.35181 -0.35604,-0.46739 -0.87752,-0.28418 -0.8218,0.28869 -1.09465,0.0321 -1.65143,-1.55274 -0.49613,-1.41226 -0.37802,-1.5556 0.91768,-1.1137 0.74386,0.25369 2.42601,0.33672 3.73812,0.18449 z m -5.28879,5.62357 c 1.33491,0.64083 3.79587,0.55082 7.16679,-0.26214 1.38186,-0.33326 2.52496,-0.57042 2.5402,-0.52702 0.0153,0.0434 0.46268,2.25609 0.99428,4.91708 2.33612,11.69362 8.43388,24.96134 17.47318,38.01877 1.63156,2.35681 2.95749,4.59929 2.94652,4.98326 -0.0319,1.11728 -2.06726,2.97819 -4.13633,3.78185 l -1.90939,0.74164 -2.23939,-4.664 c -1.23167,-2.5652 -3.21113,-6.2081 -4.39881,-8.09535 -1.18768,-1.88724 -2.11766,-3.62188 -2.06664,-3.85475 0.051,-0.23287 -0.14859,-0.4196 -0.44419,-0.41476 -0.29534,0.005 -0.76643,-0.5735 -1.04687,-1.28503 -0.28041,-0.71152 -0.62153,-1.15618 -0.75801,-0.98812 -0.13648,0.16804 -0.31753,0.108 -0.40223,-0.13308 -0.22785,-0.64858 -4.7879,-4.13177 -6.11066,-4.66761 -2.89122,-1.17122 -6.39449,-1.0881 -10.82862,0.2569 -7.10837,2.1562 -12.57145,6.2024 -21.07373,15.60817 l -4.09588,4.53113 -1.36603,-0.83591 c -1.8194,-1.11335 -3.9906,-3.31721 -4.97021,-5.045 l -0.79594,-1.40385 2.68092,-1.57564 c 8.15682,-4.794 17.39349,-13.59499 21.8955,-20.86275 0.47153,-0.76122 1.07457,-1.33643 1.34009,-1.27824 0.26552,0.0582 0.37312,-0.0395 0.23913,-0.21695 -0.13399,-0.17752 0.62771,-2.11395 1.69269,-4.30319 2.24366,-4.61228 3.32485,-7.35255 3.12521,-7.92084 -0.24152,-0.68749 0.46558,-1.20797 1.43686,-1.05764 0.82389,0.12752 0.86607,-0.007 0.36756,-1.17365 -0.30971,-0.72473 -0.5307,-1.48905 -0.49104,-1.69849 0.14021,-0.74074 2.1467,-1.09724 3.23504,-0.57479 z m -2.18697,11.2265 c -0.29393,0.37933 -0.28771,0.56343 0.0156,0.46125 0.27748,-0.0939 0.5554,-0.40115 0.61729,-0.68358 0.13971,-0.63753 -0.006,-0.58622 -0.63285,0.22233 z m 18.26198,22.25993 c 0.0815,0.23204 0.4323,0.64203 0.77952,0.91108 0.34722,0.26905 0.56462,0.29932 0.4831,0.0673 -0.0815,-0.23205 -0.43231,-0.64203 -0.77953,-0.91108 -0.34722,-0.26905 -0.56462,-0.29932 -0.48309,-0.0673 z m 6.6156,7.86635 c 0.2038,0.58012 0.38294,0.7838 0.39808,0.45262 0.0152,-0.33118 -0.1516,-0.80582 -0.37055,-1.05477 -0.21893,-0.24894 -0.23133,0.022 -0.0276,0.60215 z m 1.09071,3.21114 c 0.19291,0.48437 0.328,0.54923 0.34444,0.16535 0.0149,-0.34738 -0.12794,-0.70601 -0.31736,-0.79696 -0.18945,-0.0909 -0.20162,0.19327 -0.0271,0.63159 z m -76.74901,-8.98075 c 4.81888,2.03288 8.12862,3.99205 8.49215,5.02686 0.1119,0.31851 -0.24227,0.72495 -0.80349,0.92211 -0.72916,0.25616 -1.28339,0.0403 -2.02684,-0.78962 -0.79389,-0.88615 -6.12833,-4.37646 -7.93748,-5.19346 -0.16515,-0.0746 -0.94338,-0.49437 -1.72942,-0.93286 -2.70415,-1.50853 -0.73741,-1.03369 4.00508,0.96697 z m 15.76894,7.31685 c 1.13537,1.75721 4.14457,4.46721 6.03182,5.43208 l 1.81686,0.9289 -0.76998,1.18116 c -0.4235,0.64964 -1.09109,1.29871 -1.48356,1.44238 -1.36029,0.49796 -6.07488,-3.29547 -7.8043,-6.27949 -1.32312,-2.28294 -1.25085,-2.73369 0.53905,-3.36249 0.74662,-0.2623 1.18813,-0.0885 1.67011,0.65746 z m -3.57966,3.09421 c 1.66699,2.95273 3.86897,5.31421 6.15378,6.59953 2.03034,1.14216 2.28692,1.45511 1.43762,1.75347 -2.3937,0.84092 -9.61633,-5.91677 -10.40441,-9.73465 -0.0376,-0.1823 0.29101,-0.45771 0.73031,-0.61204 0.64105,-0.2252 1.05222,0.16839 2.0827,1.99369 z m -4.90945,0.60916 c 0.50726,1.44395 4.6136,5.96795 6.60435,7.27608 0.92784,0.60969 2.48584,1.26649 3.46224,1.45954 1.6281,0.32192 1.72944,0.41775 1.22259,1.1561 -0.66157,0.96372 -1.53341,0.89365 -3.99187,-0.32086 -1.92418,-0.95056 -5.1721,-3.71995 -5.99712,-5.11355 -1.60773,-2.71571 -2.58522,-5.1417 -2.13537,-5.29973 0.26399,-0.0927 0.63982,0.28634 0.83518,0.84242 z m 76.34914,-16.44641 c 2.85626,2.81912 4.31609,5.49251 4.93244,9.03274 0.53388,3.06649 0.065,7.57957 -0.86058,8.28354 -0.31103,0.23656 -0.26215,-0.34296 0.11244,-1.33314 0.71857,-1.89942 0.70251,-5.76181 -0.0326,-7.8286 -1.36035,-3.82488 -5.94634,-8.42592 -11.27592,-11.31291 -1.79746,-0.97366 -3.38352,-2.12278 -3.5246,-2.55358 -0.41723,-1.27435 8.31742,3.41091 10.64878,5.71195 z m -5.75962,-0.35667 c 4.39868,2.97365 6.08698,5.02186 7.49362,9.09111 0.93098,2.69323 1.17212,4.03228 0.96329,5.34929 l -0.27856,1.75677 -1.2445,-1.69569 c -1.41844,-1.93267 -7.95549,-12.18236 -9.19924,-14.4238 -0.45394,-0.8181 -0.67335,-1.53762 -0.48755,-1.59893 0.18565,-0.0617 1.42461,0.62326 2.75294,1.52125 z m 8.01314,19.28204 c 0.38799,1.10439 -1.65155,3.0057 -4.15996,3.87803 -1.97729,0.68764 -3.75814,0.72678 -3.15394,0.0693 0.16158,-0.17583 1.04014,-0.62366 1.95236,-0.99521 1.81289,-0.73838 4.13112,-2.33896 4.55835,-3.14722 0.38435,-0.72714 0.48807,-0.70196 0.80319,0.19506 z m 2.19731,2.79273 c 1.38792,2.10122 -0.31026,4.17386 -4.68277,5.71538 -2.50126,0.88166 -3.317,0.60946 -4.00023,-1.33538 -0.49686,-1.41434 -0.48462,-1.4326 1.16673,-1.73829 0.91789,-0.1699 2.62062,-0.939 3.78383,-1.70917 2.94066,-1.94696 3.04514,-1.97306 3.73244,-0.93254 z m 3.08715,4.70028 c -0.0296,1.03373 -2.70766,3.35187 -5.3919,4.66715 -3.19741,1.56674 -4.05169,1.53192 -4.54583,-0.18527 l -0.39662,-1.37831 3.14452,-1.17359 c 1.72948,-0.6455 3.81087,-1.70532 4.62531,-2.35521 1.24145,-0.99065 1.57001,-1.10943 2.03285,-0.73495 0.30363,0.24567 0.54289,0.76775 0.53167,1.16018 z m -67.45503,-80.58596 c -1.5654,1.44963 -2.60007,3.40193 -2.28229,4.30647 0.24847,0.70728 2.3031,1.75419 4.60265,2.34521 2.12432,0.54599 5.3092,-1.02928 5.74857,-2.84329 0.17052,-0.70397 -0.64734,-2.00679 -2.64709,-4.21676 -1.3824,-1.52773 -1.68467,-1.65759 -2.85925,-1.22836 -0.7224,0.26397 -1.87555,1.00051 -2.56259,1.63673 z m 4.56142,1.93424 c 1.49455,1.90401 1.55503,2.0657 1.04862,2.8034 -0.73044,1.06405 -0.78662,1.06937 -3.32306,0.31502 -2.75406,-0.81908 -3.18911,-2.02085 -1.39991,-3.86716 0.66965,-0.69103 1.41347,-1.25987 1.65293,-1.26411 0.23948,-0.004 1.14912,0.90155 2.02143,2.01285 z"
       style="fill:#26251e" /></g></svg>