<?xml version="1.0" encoding="UTF-8" standalone="no"?>
<svg
   xmlns:dc="http://purl.org/dc/elements/1.1/"
   xmlns:cc="http://creativecommons.org/ns#"
   xmlns:rdf="http://www.w3.org/1999/02/22-rdf-syntax-ns#"
   xmlns:svg="http://www.w3.org/2000/svg"
   xmlns="http://www.w3.org/2000/svg"
   xmlns:sodipodi="http://sodipodi.sourceforge.net/DTD/sodipodi-0.dtd"
   xmlns:inkscape="http://www.inkscape.org/namespaces/inkscape"
   version="1.1"
   preserveAspectRatio="none"
   x="0px"
   y="0px"
   width="162.54515"
   height="186.87941"
   viewBox="0 0 162.54515 186.87941"
   id="svg2"
   inkscape:version="0.48.4 r9939"
   sodipodi:docname="peteca.svg">
  <metadata
     id="metadata111">
    <rdf:RDF>
      <cc:Work
         rdf:about="">
        <dc:format>image/svg+xml</dc:format>
        <dc:type
           rdf:resource="http://purl.org/dc/dcmitype/StillImage" />
        <dc:title />
      </cc:Work>
    </rdf:RDF>
  </metadata>
  <sodipodi:namedview
     pagecolor="#ffffff"
     bordercolor="#666666"
     borderopacity="1"
     objecttolerance="10"
     gridtolerance="10"
     guidetolerance="10"
     inkscape:pageopacity="0"
     inkscape:pageshadow="2"
     inkscape:window-width="1600"
     inkscape:window-height="874"
     id="namedview109"
     showgrid="false"
     inkscape:zoom="0.57398221"
     inkscape:cx="542.90442"
     inkscape:cy="351.69025"
     inkscape:window-x="0"
     inkscape:window-y="1"
     inkscape:window-maximized="1"
     inkscape:current-layer="svg2" />
  <defs
     id="defs4">
    <filter
       inkscape:collect="always"
       id="filter4018"
       color-interpolation-filters="sRGB">
      <feGaussianBlur
         inkscape:collect="always"
         stdDeviation="4.4444694"
         id="feGaussianBlur4020" />
    </filter>
  </defs>
  <g
     id="g4038"
     transform="matrix(0.36648803,0,0,0.36648803,159.10798,-69.225499)">
    <g
       transform="translate(431.12586,-174.27521)"
       id="g4022">
      <path
         inkscape:connector-curvature="0"
         id="path4016"
         d="m -505.76734,829.45799 c -18.38921,11.85148 -36.53098,20.39604 -52.54563,24.74837 -13.14303,3.57192 -22.00818,3.55567 -27.35197,-0.0502 -1.91469,-1.29197 -14.43466,-18.8738 -14.94018,-21.08664 -1.46392,-6.40838 1.87746,-14.81303 10.4372,-26.25295 5.6713,-7.5796 12.79449,-15.30248 20.7076,-22.45099 1.74171,-1.5734 3.17967,-2.89983 3.19548,-2.9476 0.0159,-0.0478 0.0563,-0.53403 0.0899,-1.0806 0.0975,-1.58546 0.5662,-3.01626 1.67178,-5.10369 1.14501,-2.16185 4.49688,-6.53866 6.8432,-8.93571 1.48587,-1.51802 1.51946,-1.57817 1.25801,-2.25323 -0.64308,-1.66044 -7.12988,-11.37538 -10.32076,-15.45687 -4.84063,-6.19172 -11.7066,-13.86055 -14.07157,-15.717 -0.94193,-0.73939 -8.57896,-4.72562 -11.93772,-6.23102 -3.39685,-1.52247 -5.22141,-2.0921 -8.9396,-2.79095 -3.52323,-0.66219 -11.97119,-2.7242 -32.85493,-8.01933 -7.94385,-2.01418 -16.64022,-4.19067 -19.32524,-4.83664 -20.25516,-4.87303 -26.52796,-6.7722 -35.15317,-10.6431 -13.03169,-5.84848 -26.30912,-12.39066 -33.22189,-16.36941 -5.66288,-3.25935 -10.47401,-5.88793 -19.79953,-10.81751 -7.48818,-3.95833 -10.79964,-5.89859 -16.46964,-9.64987 -17.32107,-11.45966 -59.14057,-37.73561 -59.29094,-38.73718 -0.11552,-0.76944 0.40483,-1.34015 2.8856,-3.1649 l 2.44434,-1.79796 -1.54645,0.66428 c -0.85055,0.36536 -2.23561,0.97305 -3.07792,1.35042 -0.84231,0.37739 -1.80038,0.7281 -2.12907,0.77937 -1.28039,0.19972 -6.34608,-3.41978 -13.01726,-9.30098 -3.67014,-3.23554 -3.89092,-3.59869 -2.81442,-4.62928 0.40581,-0.38854 1.38797,-0.82333 3.44286,-1.52422 1.58126,-0.53935 3.33696,-1.14303 3.90154,-1.3415 l 1.02652,-0.36087 -0.89676,0.0192 c -0.49322,0.0106 -3.0887,0.16669 -5.76774,0.34692 -2.67904,0.18024 -5.01977,0.28812 -5.20164,0.23973 -0.45503,-0.12106 -4.82099,-4.64011 -6.642,-6.87488 -2.62778,-3.22488 -4.23496,-7.27849 -3.89465,-9.82307 0.33622,-2.51394 1.33506,-3.88244 4.26807,-5.84762 4.01871,-2.69263 11.8911,-6.94245 17.44183,-9.41577 7.1344,-3.17897 15.00034,-5.8332 21.77016,-7.34594 l 3.09444,-0.69146 c 17.46209,-4.92548 53.25207,-0.12613 67.62686,2.15958 -1.54185,-5.02616 -23.75186,-44.31435 -25.42041,-47.98374 0.0466,-0.11307 -0.30494,-0.77404 -0.78118,-1.46872 -0.87379,-1.27457 -4.9539,-9.34428 -6.50066,-12.85713 -0.70401,-1.59886 -0.77925,-2.00907 -0.47493,-2.58946 0.19888,-0.3793 0.55313,-0.82094 0.78722,-0.98141 0.23408,-0.16048 2.70919,-0.62585 5.50024,-1.03416 2.79106,-0.40831 5.11277,-0.76853 5.15937,-0.80047 0.0995,-0.0682 -0.21154,-0.1326 -7.44195,-1.54027 -3.03505,-0.59089 -5.59659,-1.19064 -5.69231,-1.33278 -0.0952,-0.14247 -0.6542,-1.53552 -1.24105,-3.0964 -4.55326,-12.11058 -4.21568,-19.72688 1.06662,-24.06422 0.99589,-0.81773 1.69754,-1.16982 4.98088,-2.5008 11.36196,-4.60522 23.51138,-7.728 33.8589,-8.70279 6.11719,-0.57627 14.03313,-0.5184 20.01241,0.1463 7.75083,0.86164 18.84569,4.08008 29.20012,8.47049 0.79621,0.3376 1.49945,0.57829 1.56277,0.53488 22.05877,12.29964 21.70854,13.90305 27.2191,18.86343 10.46138,9.41688 6.30944,-42.50529 39.0054,-81.47559 l 2.06437,-2.50299 c 2.99182,-3.62748 8.32691,-9.23023 11.93236,-12.53104 5.61142,-5.13727 11.71393,-9.9749 13.7497,-10.89978 4.23905,-1.92585 8.893,0.50318 12.32769,6.43417 0.75953,1.31162 2.01488,3.77046 2.78962,5.46411 0.77476,1.69363 1.44213,3.1282 1.48306,3.18791 0.0409,0.0597 -1.02949,2.5001 -2.37871,5.4231 -1.34922,2.92301 -2.45029,5.39388 -2.44686,5.49083 0.003,0.097 1.14102,-1.18464 2.52789,-2.84797 1.38685,-1.66331 2.71301,-3.15546 2.94697,-3.31586 0.80184,-0.54971 1.8525,-0.56991 2.21401,-0.0426 0.72907,1.06347 4.56845,12.58845 5.18006,15.54946 0.35442,1.71588 0.62751,3.31825 0.60681,3.56085 -0.0352,0.41299 -1.36795,1.87409 -4.03219,4.42039 -0.97533,0.93215 -1.02071,1.01581 -0.40201,0.7409 0.3836,-0.17048 1.51026,-0.85647 2.50365,-1.52445 1.45264,-0.97671 1.94657,-1.21761 2.52336,-1.23025 0.39443,-0.009 0.79714,0.10093 0.89488,0.24351 0.85276,1.24388 13.45472,58.52915 14.15978,67.62399 0.74905,9.66228 2.34452,11.06987 4.13886,26.78899 0.4503,3.94489 1.07249,8.65835 1.38263,10.47436 1.0098,5.91276 2.02919,13.5944 2.57615,19.41263 0.91096,9.69031 -8.55373,53.21889 -8.73533,57.346 -0.3002,6.82249 -1.24337,15.39212 -4.15003,37.7067 -0.64584,4.95811 -1.52241,12.03759 -1.94793,15.7322 -1.19816,10.40278 -2.91823,23.32135 -3.64359,27.36504 -0.36139,2.01463 -0.68402,4.12474 -0.71696,4.68914 -0.16077,2.75427 0.80446,12.8156 2.17116,22.63154 0.72087,5.1774 0.86376,5.60391 3.6631,10.93366 1.54841,2.94806 8.34934,12.87619 11.0921,16.19204 4.49875,5.43933 7.82145,9.0811 8.27637,9.07111 0.24844,-0.005 1.2706,-0.39362 2.27146,-0.86262 1.00089,-0.46897 2.90468,-1.23193 4.23067,-1.69545 6.1552,-2.15164 10.20788,-2.63711 13.03555,-1.56159 l 1.37251,0.52205 3.42209,-1.68974 c 10.15728,-5.01545 21.79417,-9.23375 31.65483,-11.4747 5.01411,-1.13952 11.45323,-1.66833 15.09368,-1.23958 2.2197,0.26143 5.12769,1.22544 6.77634,2.24639 1.19961,0.74288 1.71616,1.28642 3.00474,3.16181 1.67047,2.43135 12.44698,17.9887 12.56672,20.61548 0.28309,6.21029 -3.14195,13.84822 -10.80977,24.10603 -10.01761,13.40126 -23.61341,26.21355 -42.19903,39.76722 -6.03757,4.4029 -8.00779,5.75086 -14.86585,10.17067 z"
         style="fill:#4d4d4d;stroke:#4d4d4d;stroke-width:10.91440868;stroke-miterlimit:4;stroke-dasharray:none;filter:url(#filter4018)" />
      <path
         style="fill:#ffffff;stroke:#ffffff;stroke-width:10.91440868;stroke-miterlimit:4;stroke-dasharray:none"
         d="m -505.76734,829.45799 c -18.38921,11.85148 -36.53098,20.39604 -52.54563,24.74837 -13.14303,3.57192 -22.00818,3.55567 -27.35197,-0.0502 -1.91469,-1.29197 -14.43466,-18.8738 -14.94018,-21.08664 -1.46392,-6.40838 1.87746,-14.81303 10.4372,-26.25295 5.6713,-7.5796 12.79449,-15.30248 20.7076,-22.45099 1.74171,-1.5734 3.17967,-2.89983 3.19548,-2.9476 0.0159,-0.0478 0.0563,-0.53403 0.0899,-1.0806 0.0975,-1.58546 0.5662,-3.01626 1.67178,-5.10369 1.14501,-2.16185 4.49688,-6.53866 6.8432,-8.93571 1.48587,-1.51802 1.51946,-1.57817 1.25801,-2.25323 -0.64308,-1.66044 -7.12988,-11.37538 -10.32076,-15.45687 -4.84063,-6.19172 -11.7066,-13.86055 -14.07157,-15.717 -0.94193,-0.73939 -8.57896,-4.72562 -11.93772,-6.23102 -3.39685,-1.52247 -5.22141,-2.0921 -8.9396,-2.79095 -3.52323,-0.66219 -11.97119,-2.7242 -32.85493,-8.01933 -7.94385,-2.01418 -16.64022,-4.19067 -19.32524,-4.83664 -20.25516,-4.87303 -26.52796,-6.7722 -35.15317,-10.6431 -13.03169,-5.84848 -26.30912,-12.39066 -33.22189,-16.36941 -5.66288,-3.25935 -10.47401,-5.88793 -19.79953,-10.81751 -7.48818,-3.95833 -10.79964,-5.89859 -16.46964,-9.64987 -17.32107,-11.45966 -59.14057,-37.73561 -59.29094,-38.73718 -0.11552,-0.76944 0.40483,-1.34015 2.8856,-3.1649 l 2.44434,-1.79796 -1.54645,0.66428 c -0.85055,0.36536 -2.23561,0.97305 -3.07792,1.35042 -0.84231,0.37739 -1.80038,0.7281 -2.12907,0.77937 -1.28039,0.19972 -6.34608,-3.41978 -13.01726,-9.30098 -3.67014,-3.23554 -3.89092,-3.59869 -2.81442,-4.62928 0.40581,-0.38854 1.38797,-0.82333 3.44286,-1.52422 1.58126,-0.53935 3.33696,-1.14303 3.90154,-1.3415 l 1.02652,-0.36087 -0.89676,0.0192 c -0.49322,0.0106 -3.0887,0.16669 -5.76774,0.34692 -2.67904,0.18024 -5.01977,0.28812 -5.20164,0.23973 -0.45503,-0.12106 -4.82099,-4.64011 -6.642,-6.87488 -2.62778,-3.22488 -4.23496,-7.27849 -3.89465,-9.82307 0.33622,-2.51394 1.33506,-3.88244 4.26807,-5.84762 4.01871,-2.69263 11.8911,-6.94245 17.44183,-9.41577 7.1344,-3.17897 15.00034,-5.8332 21.77016,-7.34594 l 3.09444,-0.69146 c 17.46209,-4.92548 53.25207,-0.12613 67.62686,2.15958 -1.54185,-5.02616 -23.75186,-44.31435 -25.42041,-47.98374 0.0466,-0.11307 -0.30494,-0.77404 -0.78118,-1.46872 -0.87379,-1.27457 -4.9539,-9.34428 -6.50066,-12.85713 -0.70401,-1.59886 -0.77925,-2.00907 -0.47493,-2.58946 0.19888,-0.3793 0.55313,-0.82094 0.78722,-0.98141 0.23408,-0.16048 2.70919,-0.62585 5.50024,-1.03416 2.79106,-0.40831 5.11277,-0.76853 5.15937,-0.80047 0.0995,-0.0682 -0.21154,-0.1326 -7.44195,-1.54027 -3.03505,-0.59089 -5.59659,-1.19064 -5.69231,-1.33278 -0.0952,-0.14247 -0.6542,-1.53552 -1.24105,-3.0964 -4.55326,-12.11058 -4.21568,-19.72688 1.06662,-24.06422 0.99589,-0.81773 1.69754,-1.16982 4.98088,-2.5008 11.36196,-4.60522 23.51138,-7.728 33.8589,-8.70279 6.11719,-0.57627 14.03313,-0.5184 20.01241,0.1463 7.75083,0.86164 18.84569,4.08008 29.20012,8.47049 0.79621,0.3376 1.49945,0.57829 1.56277,0.53488 22.05877,12.29964 21.70854,13.90305 27.2191,18.86343 10.46138,9.41688 6.30944,-42.50529 39.0054,-81.47559 l 2.06437,-2.50299 c 2.99182,-3.62748 8.32691,-9.23023 11.93236,-12.53104 5.61142,-5.13727 11.71393,-9.9749 13.7497,-10.89978 4.23905,-1.92585 8.893,0.50318 12.32769,6.43417 0.75953,1.31162 2.01488,3.77046 2.78962,5.46411 0.77476,1.69363 1.44213,3.1282 1.48306,3.18791 0.0409,0.0597 -1.02949,2.5001 -2.37871,5.4231 -1.34922,2.92301 -2.45029,5.39388 -2.44686,5.49083 0.003,0.097 1.14102,-1.18464 2.52789,-2.84797 1.38685,-1.66331 2.71301,-3.15546 2.94697,-3.31586 0.80184,-0.54971 1.8525,-0.56991 2.21401,-0.0426 0.72907,1.06347 4.56845,12.58845 5.18006,15.54946 0.35442,1.71588 0.62751,3.31825 0.60681,3.56085 -0.0352,0.41299 -1.36795,1.87409 -4.03219,4.42039 -0.97533,0.93215 -1.02071,1.01581 -0.40201,0.7409 0.3836,-0.17048 1.51026,-0.85647 2.50365,-1.52445 1.45264,-0.97671 1.94657,-1.21761 2.52336,-1.23025 0.39443,-0.009 0.79714,0.10093 0.89488,0.24351 0.85276,1.24388 13.45472,58.52915 14.15978,67.62399 0.74905,9.66228 2.34452,11.06987 4.13886,26.78899 0.4503,3.94489 1.07249,8.65835 1.38263,10.47436 1.0098,5.91276 2.02919,13.5944 2.57615,19.41263 0.91096,9.69031 -8.55373,53.21889 -8.73533,57.346 -0.3002,6.82249 -1.24337,15.39212 -4.15003,37.7067 -0.64584,4.95811 -1.52241,12.03759 -1.94793,15.7322 -1.19816,10.40278 -2.91823,23.32135 -3.64359,27.36504 -0.36139,2.01463 -0.68402,4.12474 -0.71696,4.68914 -0.16077,2.75427 0.80446,12.8156 2.17116,22.63154 0.72087,5.1774 0.86376,5.60391 3.6631,10.93366 1.54841,2.94806 8.34934,12.87619 11.0921,16.19204 4.49875,5.43933 7.82145,9.0811 8.27637,9.07111 0.24844,-0.005 1.2706,-0.39362 2.27146,-0.86262 1.00089,-0.46897 2.90468,-1.23193 4.23067,-1.69545 6.1552,-2.15164 10.20788,-2.63711 13.03555,-1.56159 l 1.37251,0.52205 3.42209,-1.68974 c 10.15728,-5.01545 21.79417,-9.23375 31.65483,-11.4747 5.01411,-1.13952 11.45323,-1.66833 15.09368,-1.23958 2.2197,0.26143 5.12769,1.22544 6.77634,2.24639 1.19961,0.74288 1.71616,1.28642 3.00474,3.16181 1.67047,2.43135 12.44698,17.9887 12.56672,20.61548 0.28309,6.21029 -3.14195,13.84822 -10.80977,24.10603 -10.01761,13.40126 -23.61341,26.21355 -42.19903,39.76722 -6.03757,4.4029 -8.00779,5.75086 -14.86585,10.17067 z"
         id="path3232"
         inkscape:connector-curvature="0" />
    </g>
    <g
       transform="translate(206.38021,130.61229)"
       id="g4026">
      <path
         style="color:#000000;fill:#ffe680;fill-opacity:1;fill-rule:nonzero;stroke:none;stroke-width:0.89999998;marker:none;visibility:visible;display:inline;overflow:visible;enable-background:accumulate"
         d="m -367.89335,417.68181 c -2.26422,-0.88675 -4.47419,-1.59534 -4.91104,-1.57462 -0.43683,0.0207 -13.42409,-3.111 -28.86056,-6.95939 -45.1922,-11.26665 -50.20402,-12.63094 -57.02507,-15.5232 -19.2839,-8.17672 -84.46774,-43.27724 -100.06008,-53.88086 -7.71754,-5.24833 -25.43189,-17.87216 -28.38193,-20.22589 -1.02512,-0.81792 -0.82287,-1.09295 4.30128,-5.84922 5.77456,-5.36 7.1113,-7.01164 5.13264,-6.34182 -0.63771,0.21589 -4.3692,1.83825 -8.29218,3.60525 -3.92298,1.76699 -7.47592,3.08352 -7.89541,2.92564 -0.94191,-0.35452 -10.24028,-7.59245 -10.79693,-8.40441 -0.26663,-0.38892 2.15899,-1.5046 7.13406,-3.28145 4.14592,-1.48069 7.32877,-2.84304 7.07301,-3.02745 -0.25577,-0.18439 -5.16972,-0.58629 -10.91989,-0.89311 -11.65031,-0.62162 -11.4377,-0.52587 -16.15738,-7.27668 -2.83821,-4.0597 -3.53801,-7.22018 -1.98709,-8.97457 2.98162,-3.37272 22.49963,-12.50542 33.13395,-15.50373 23.20144,-6.54159 52.03683,-5.19856 76.4704,3.56166 l 6.07988,2.17983 11.84853,17.2689 c 7.90153,11.51508 14.7508,20.87756 20.55976,28.10021 11.25466,13.9936 12.04837,14.93248 21.18377,25.05855 11.56169,12.81547 15.57931,16.6492 22.99944,21.94678 6.7073,4.78865 58.17428,39.20273 60.62743,40.53934 2.00026,1.08984 7.87692,6.46298 9.48188,8.66946 0.32031,0.44034 -0.58363,1.33364 -3.08427,3.04797 l -3.53736,2.42507 -4.11679,-1.61229 0,0 z m -68.28569,-38.55624 c -0.23944,-0.34927 -3.57834,-3.52135 -7.41976,-7.04908 -3.84143,-3.52773 -12.60706,-12.13732 -19.47918,-19.13242 -14.58938,-14.85048 -21.18585,-20.89617 -30.83822,-28.26327 -15.48087,-11.81569 -31.03963,-18.40167 -51.48386,-21.79296 -11.73641,-1.94684 -20.98768,-2.16254 -21.46043,-0.50039 -0.1757,0.61777 -0.20801,1.28581 -0.0718,1.48452 0.13623,0.19872 5.20037,1.30674 11.25364,2.46226 16.85251,3.21702 30.39936,9.18428 52.33884,23.05473 21.0083,13.28178 50.32554,35.7563 63.5215,48.69543 1.71568,1.68229 2.93354,2.45848 3.37864,2.15334 0.38278,-0.26241 0.50005,-0.76289 0.26061,-1.11216 z"
         id="path3222"
         inkscape:connector-curvature="0" />
      <path
         style="color:#000000;fill:#aaccff;fill-opacity:1;fill-rule:nonzero;stroke:none;stroke-width:0.89999998;marker:none;visibility:visible;display:inline;overflow:visible;enable-background:accumulate"
         d="m -356.3678,407.26748 c -1.99608,-1.82643 -19.38193,-13.90861 -38.63522,-26.84927 -38.87579,-26.12946 -45.51938,-32.23406 -74.31308,-68.28415 -15.40819,-19.29124 -32.63415,-46.09901 -52.67318,-81.97219 l -5.84215,-10.4584 4.67517,-1.99634 c 5.76398,-2.46127 4.77916,-4.49892 -1.82333,-3.77257 -3.62095,0.39834 -5.70172,-0.62639 -7.92362,-3.90218 -4.97237,-7.33086 -4.26514,-9.85361 3.01617,-10.75906 9.77886,-1.21604 9.25989,-3.39084 -1.63621,-6.85675 l -10.05024,-3.19685 -1.83998,-8.68131 c -2.26882,-10.70464 -0.21085,-12.93853 16.51564,-17.92748 32.16765,-9.59452 66.02454,-1.80271 93.63665,21.54951 10.76845,9.10713 47.08422,58.968 54.2946,74.54548 9.62223,20.78808 15.45064,44.02459 21.25793,84.75036 3.18508,22.3365 7.06616,45.57805 8.62464,51.64789 2.32884,9.07015 2.25572,11.43229 -0.41047,13.26012 -2.35794,1.61651 -4.23541,1.31691 -6.87332,-1.09681 l 0,0 z m -23.17961,-54.87158 c -16.25969,-39.4883 -35.64107,-66.76808 -87.73005,-123.48229 -13.54128,-14.74367 -26.38419,-29.22739 -28.5398,-32.18603 l -3.91931,-5.37937 3.05373,7.4119 c 4.66147,11.31415 30.94121,45.66327 64.13436,83.82726 16.45827,18.923 33.02352,38.93444 36.81165,44.46987 5.99727,8.76392 14.17911,25.83527 17.25154,35.99621 0.54117,1.78972 1.63005,2.81109 2.41973,2.26972 0.78967,-0.54136 -0.77716,-6.35863 -3.48185,-12.92727 z"
         id="path3218"
         inkscape:connector-curvature="0" />
      <path
         id="path3172"
         style="fill:#030302"
         d="m -334.59021,394.97003 c -0.8683,-7.90461 -0.84135,-10.2528 0.18055,-15.73291 0.6753,-3.62136 1.99856,-13.58068 3.5275,-26.54904 0.47844,-4.05806 1.34941,-11.02663 1.93548,-15.48569 2.66238,-20.25624 3.78735,-30.2664 4.12777,-36.72973 0.53876,-10.22836 8.739,-63.23685 6.17143,-78.32364 -0.24933,-1.46506 -0.99855,-7.37644 -1.66494,-13.13638 -1.72088,-14.87462 2.36492,-11.40689 -3.49657,-35.45647 -4.87778,-20.01338 -13.30825,-52.37462 -13.85008,-53.16497 -0.11536,-0.16827 -1.5944,0.71618 -6.82422,4.08083 -3.67231,2.36259 -6.88124,4.37141 -7.13091,4.46402 -1.0187,0.37781 -0.58135,-0.3554 1.97885,-3.31757 9.31094,-10.77281 9.70695,-11.25922 9.66539,-11.87168 -0.10443,-1.53793 -1.48279,-6.54264 -2.87234,-10.42933 -0.8456,-2.36509 -1.58762,-4.300531 -1.64896,-4.300976 -0.0613,-5.08e-4 -2.85007,2.687746 -6.19721,5.973776 -3.34712,3.28602 -6.2103,6.06002 -6.36263,6.16445 -0.15234,0.10443 -0.34554,0.0899 -0.42935,-0.0324 -0.12088,-0.17633 3.32006,-7.90217 8.41958,-18.904202 0.45621,-0.984314 0.43449,-1.118675 -0.53512,-3.307663 -2.24523,-5.068902 -5.28783,-9.294674 -7.77352,-10.796448 -1.09766,-0.663139 -2.97768,-0.756972 -4.15714,-0.207489 -0.45304,0.211042 -2.37394,1.626526 -4.33978,3.197749 -17.7731,14.205889 -40.36552,55.684013 -47.5251,75.117843 -1.82117,4.94333 -3.56552,10.46886 -4.76925,15.10737 -1.02073,3.93336 -2.8678,13.00198 -3.22171,15.81787 l -0.23533,1.87239 1.49536,1.66611 c 8.40188,9.36136 21.90148,27.43252 34.30479,45.92204 8.26699,12.32354 5.2608,8.28551 9.25993,16.27571 8.44095,16.86481 14.59019,35.44798 18.45757,55.77922 1.25114,6.57732 1.77562,10.038 2.82339,18.62969 2.60454,21.35674 4.64142,36.39387 5.97268,44.09293 2.76258,15.97669 3.52616,19.13459 5.67617,23.47444 1.4594,2.94584 3.14876,6.66101 3.61159,7.94245 l 0.19161,0.53053 2.85425,-2.0238 2.85425,-2.0238 -0.47402,-4.31531 z m -10.16476,11.0734 c -0.0936,-0.29574 -0.30094,-0.87643 -0.46073,-1.2904 -4.41085,-11.42681 -8.42203,-33.25682 -12.4266,-67.62907 -1.47335,-12.64618 -2.10696,-17.32269 -3.18609,-23.51578 -3.35519,-19.25527 -8.93645,-37.46191 -16.3659,-53.38724 -6.28059,-13.46266 -7.11194,-15.62614 -20.83501,-34.74132 -19.80649,-27.5889 -30.60297,-40.03108 -42.0846,-48.49955 -14.15669,-10.44148 -33.412,-18.02148 -50.05272,-19.7036 -3.98829,-0.40315 -14.694,-0.25827 -18.91015,0.25591 -8.97633,1.09471 -18.58124,3.55615 -28.53472,7.31255 -5.5235,2.08455 -6.83149,3.06735 -7.7884,5.85208 -1.21747,3.543 -0.31756,9.72605 2.49227,17.124 l 0.9261,2.43831 10.13811,3.09561 c 5.57596,1.70259 10.16903,3.14074 10.20683,3.19588 0.27654,0.40337 -1.85982,0.83619 -9.08132,1.83987 -4.55391,0.63293 -8.32013,1.26236 -8.36937,1.39874 -0.17183,0.47585 5.44168,11.62367 6.99872,13.89869 0.98602,1.44005 1.15593,1.57964 1.86386,1.52684 0.42849,-0.032 2.11028,-0.17588 3.73731,-0.31978 2.94298,-0.26029 6.0467,-0.27846 6.86348,-0.0402 0.36925,0.10772 0.17824,0.21366 -1.38935,0.77047 -2.5777,0.91562 -5.90147,1.87052 -7.13623,2.05019 -0.57945,0.0843 -1.10766,0.19041 -1.17381,0.23576 -0.64653,0.44323 2.90817,6.94815 15.13576,27.69767 25.60209,43.44526 27.34872,46.4579 40.13015,61.7421 2.12177,2.53724 5.92323,7.37341 8.44771,10.74704 6.71061,8.96789 9.48057,12.27175 19.06692,22.742 6.65925,7.27325 11.18507,12.00314 13.52441,14.13422 4.28979,3.90787 9.89024,7.91316 26.35602,18.8491 6.30293,4.18616 14.32603,9.55483 17.82912,11.93038 19.45633,13.19388 21.7624,14.71382 25.59357,16.86895 2.43546,1.37002 6.12499,4.61536 8.64745,7.60643 1.90055,2.2536 1.26247,2.34701 5.95829,-0.87225 l 4.0491,-2.77589 z m -14.67506,10.71826 3.31103,-2.27353 -0.79854,-0.82085 c -0.43919,-0.45146 -1.88676,-2.05585 -3.2168,-3.5653 -2.8132,-3.19265 -3.19636,-3.51595 -5.91274,-4.98909 -3.54846,-1.92438 -5.33107,-3.09987 -24.68123,-16.27545 -2.87339,-1.95651 -10.93627,-7.35145 -17.9175,-11.98876 -22.58166,-14.99996 -25.4428,-17.18226 -33.02544,-25.18976 -12.05082,-12.72602 -19.17924,-20.9835 -26.60401,-30.81778 -3.24573,-4.29903 -7.16202,-9.308 -8.70285,-11.13102 -9.89064,-11.70196 -9.14596,-10.45263 -20.25006,-28.5231 l -5.2604,-8.56062 -2.72861,-1.19209 c -9.84444,-4.3009 -22.68971,-7.47241 -35.43969,-8.75012 -17.37845,-1.74154 -30.98161,-0.75836 -45.60199,3.29594 -9.82461,2.72441 -23.74994,8.9853 -31.58124,14.19906 -2.90177,1.93186 -3.36996,2.96249 -2.74299,6.03781 0.35674,1.74977 4.46345,7.75669 7.03477,10.28985 l 1.72886,1.70316 10.81994,0.40225 c 5.95098,0.22124 10.70448,0.51236 10.56335,0.64694 -0.14114,0.13459 -3.68608,1.41114 -7.87765,2.83678 -4.19156,1.42564 -7.63731,2.63256 -7.6572,2.68206 -0.17094,0.42535 11.75851,9.74103 12.58474,9.82738 0.0464,0.005 3.75385,-1.6491 8.23884,-3.67544 7.84564,-3.5447 8.56119,-3.84744 8.42089,-3.5628 -0.0349,0.0708 -2.70035,2.61347 -5.92327,5.65043 -3.2229,3.03696 -5.90119,5.61109 -5.95174,5.72029 -0.10504,0.22691 0.51152,0.68088 20.01273,14.73329 23.70653,17.08278 35.74481,21.72222 43.85805,26.58543 3.4561,2.07166 9.97772,5.6241 17.31132,9.4298 2.33618,1.21233 7.0936,3.84044 10.57205,5.84022 3.47846,1.99979 7.67896,4.31365 9.33445,5.1419 8.88996,4.44772 19.10748,9.32191 25.89227,12.35171 8.03333,3.58735 14.28835,5.49029 32.57682,9.91072 2.82292,0.68231 14.09443,3.50277 25.04779,6.26766 23.16394,5.84716 25.88312,6.50317 29.77363,7.18297 2.98492,0.52157 6.26612,1.58884 9.02607,2.93589 1.36355,0.6655 1.64228,0.71309 2.01849,0.34468 0.24003,-0.23513 1.92652,-1.4504 3.74769,-2.7007 z m 48.51378,35.74105 c 0.87165,-0.86265 2.10212,-2.24742 2.73436,-3.07726 1.14383,-1.50135 1.14676,-1.51129 0.59562,-2.00856 -3.06979,-2.7697 -9.91907,-10.94912 -14.58294,-17.41495 -6.75031,-9.35836 -10.6641,-16.85513 -12.52081,-23.98333 -0.35745,-1.3723 -0.69448,-2.56011 -0.74895,-2.63956 -0.0567,-0.0827 -5.18091,3.33945 -11.98398,8.00336 -10.43697,7.15514 -11.86454,8.1776 -11.71729,8.39239 0.0922,0.13451 0.79298,0.80524 1.55726,1.49052 4.36244,3.91149 9.59777,9.29539 14.47261,14.88328 2.45879,2.81845 13.40777,18.59009 15.61689,22.49563 l 1.31185,2.31923 0.95649,-0.33777 c 5.08273,-1.79483 7.12202,-2.77054 10.35568,-4.95478 1.67837,-1.13376 2.83004,-2.05667 3.95321,-3.1682 z m 9.01841,4.04896 c 4.54605,-3.58744 9.04506,-7.62331 13.04507,-11.70227 l 1.79565,-1.83106 -0.76721,-0.8423 c -0.42197,-0.46325 -1.19696,-0.97863 -1.7222,-1.14526 -2.41173,-0.76513 -8.14429,0.46013 -13.96241,2.98429 l -1.49056,0.64667 0.7748,0.97878 c 0.89626,1.13226 0.86321,1.38063 -0.45468,3.42001 -4.18732,6.47977 -11.88307,11.70641 -21.26857,14.44479 -2.5985,0.75814 -2.92485,0.69408 -3.49828,-0.68668 -0.20909,-0.50346 -0.42887,-0.88196 -0.4884,-0.84116 -0.0595,0.0408 -0.61739,0.62329 -1.23963,1.29438 -3.9246,4.23261 -6.59148,8.53691 -6.73557,10.87115 -0.0902,1.46152 0.15584,2.92165 0.56175,3.33342 0.32675,0.33142 0.60744,0.27669 2.34694,-0.45786 3.47178,-1.46607 12.82156,-6.69466 20.2591,-11.32931 2.2674,-1.41292 10.26873,-7.10516 12.84427,-9.13763 z m 40.38488,51.34762 c 15.12783,-11.79282 26.51401,-22.87496 34.49261,-33.57163 8.36786,-11.21854 11.63375,-19.18446 10.15432,-24.76771 -0.59917,-2.26125 -13.06854,-19.29287 -15.25457,-20.41911 -5.42151,-2.79317 -14.02915,-2.24335 -27.14267,1.73373 -7.36587,2.23394 -13.53009,4.62804 -21.12681,8.20542 -1.58897,0.74826 -3.11002,1.45624 -3.38012,1.57327 -0.40435,0.17524 -0.4199,0.3166 -0.0878,0.80096 0.67062,0.97821 0.49043,1.35284 -1.77646,3.69325 -7.74916,8.00057 -15.25297,14.19049 -25.26348,20.83997 -10.24272,6.80371 -22.9708,13.84191 -26.39853,14.59749 -1.72456,0.38013 -2.97782,0.21344 -3.14313,-0.41807 -0.23533,-0.89905 -0.28179,-0.92158 -0.88768,-0.43031 -1.29183,1.04743 -7.81201,7.34734 -10.40159,10.05017 -3.637,3.79609 -6.28119,6.8497 -9.34307,10.78967 -7.95442,10.23563 -11.78701,18.20523 -11.52355,23.96247 0.10882,2.3781 10.8016,17.78509 12.0335,19.60664 3.74145,5.53233 12.82944,6.29797 27.38882,2.30744 14.47332,-3.96694 29.79961,-11.00381 47.20049,-21.67152 5.14225,-3.15248 20.01962,-13.42084 24.45973,-16.88216 z m -19.50874,16.67117 c -18.38921,11.85148 -36.53098,20.39604 -52.54563,24.74837 -13.14303,3.57192 -22.00818,3.55567 -27.35197,-0.0502 -1.91469,-1.29197 -14.43466,-18.8738 -14.94018,-21.08664 -1.46392,-6.40838 1.87746,-14.81303 10.4372,-26.25295 5.6713,-7.5796 12.79449,-15.30248 20.7076,-22.45099 1.74171,-1.5734 3.17967,-2.89983 3.19548,-2.9476 0.0159,-0.0478 0.0563,-0.53403 0.0899,-1.0806 0.0975,-1.58546 0.5662,-3.01626 1.67178,-5.10369 1.14501,-2.16185 4.49688,-6.53866 6.8432,-8.93571 1.48587,-1.51802 1.51946,-1.57817 1.25801,-2.25323 -0.64308,-1.66044 -7.12988,-11.37538 -10.32076,-15.45687 -4.84063,-6.19172 -11.7066,-13.86055 -14.07157,-15.717 -0.94193,-0.73939 -8.57896,-4.72562 -11.93772,-6.23102 -3.39685,-1.52247 -5.22141,-2.0921 -8.9396,-2.79095 -3.52323,-0.66219 -11.97119,-2.7242 -32.85493,-8.01933 -7.94385,-2.01418 -16.64021,-4.19067 -19.32523,-4.83664 -20.25516,-4.87303 -26.52796,-6.7722 -35.15317,-10.6431 -13.03169,-5.84848 -26.30912,-12.39066 -33.22189,-16.36941 -5.66288,-3.25935 -10.47401,-5.88793 -19.79953,-10.81751 -7.48818,-3.95833 -10.79964,-5.89859 -16.46964,-9.64987 -17.32107,-11.45966 -59.14057,-37.73561 -59.29094,-38.73718 -0.11552,-0.76944 0.40483,-1.34015 2.8856,-3.1649 l 2.44434,-1.79796 -1.54645,0.66428 c -0.85055,0.36536 -2.23561,0.97305 -3.07792,1.35042 -0.84231,0.37739 -1.80038,0.7281 -2.12907,0.77937 -1.28039,0.19972 -6.34608,-3.41978 -13.01726,-9.30098 -3.67014,-3.23554 -3.89092,-3.59869 -2.81442,-4.62928 0.40581,-0.38854 1.38797,-0.82333 3.44286,-1.52422 1.58126,-0.53935 3.33696,-1.14303 3.90154,-1.3415 l 1.02652,-0.36087 -0.89676,0.0192 c -0.49322,0.0106 -3.0887,0.16669 -5.76774,0.34692 -2.67904,0.18024 -5.01977,0.28812 -5.20164,0.23973 -0.45503,-0.12106 -4.82099,-4.64011 -6.642,-6.87488 -2.62778,-3.22488 -4.23496,-7.27849 -3.89465,-9.82307 0.33622,-2.51394 1.33506,-3.88244 4.26807,-5.84762 4.01871,-2.69263 11.8911,-6.94245 17.44183,-9.41577 7.1344,-3.17897 15.00034,-5.8332 21.77016,-7.34594 l 3.09444,-0.69146 c 17.46209,-4.92548 53.25207,-0.12613 67.62686,2.15958 -1.54185,-5.02616 -23.75186,-44.31435 -25.42041,-47.98374 0.0466,-0.11307 -0.30494,-0.77404 -0.78118,-1.46872 -0.87379,-1.27457 -4.9539,-9.34428 -6.50066,-12.85713 -0.70401,-1.59886 -0.77925,-2.00907 -0.47493,-2.58946 0.19888,-0.3793 0.55313,-0.82094 0.78722,-0.98141 0.23408,-0.16048 2.70919,-0.62585 5.50024,-1.03416 2.79106,-0.40831 5.11277,-0.76853 5.15937,-0.80047 0.0995,-0.0682 -0.21154,-0.1326 -7.44195,-1.54027 -3.03505,-0.59089 -5.59659,-1.19064 -5.69231,-1.33278 -0.0952,-0.14247 -0.6542,-1.53552 -1.24105,-3.0964 -4.55326,-12.11058 -4.21568,-19.72688 1.06662,-24.06422 0.99589,-0.81773 1.69754,-1.16982 4.98088,-2.5008 11.36196,-4.60522 23.51138,-7.728 33.8589,-8.70279 6.11719,-0.57627 14.03313,-0.5184 20.01241,0.1463 7.75083,0.86164 18.84569,4.08008 29.20012,8.47049 0.79621,0.3376 1.49945,0.57829 1.56277,0.53488 22.05877,12.29964 21.70854,13.90305 27.2191,18.86343 10.46137,9.41688 6.30944,-42.50529 39.00539,-81.47559 l 2.06437,-2.502984 c 2.99182,-3.627484 8.32691,-9.230231 11.93236,-12.531039 5.61142,-5.137272 11.71393,-9.974907 13.7497,-10.899781 4.23905,-1.925854 8.893,0.503179 12.32769,6.434171 0.75953,1.31162 2.01488,3.770452 2.78962,5.464107 0.77476,1.693629 1.44213,3.128197 1.48306,3.187904 0.0409,0.05971 -1.02949,2.5001 -2.37871,5.423108 -1.34922,2.923007 -2.45029,5.393874 -2.44686,5.490824 0.003,0.097 1.14102,-1.184635 2.52789,-2.847963 1.38685,-1.66331 2.71301,-3.155468 2.94697,-3.315867 0.80184,-0.549704 1.8525,-0.569911 2.21401,-0.04259 0.72907,1.063475 4.56845,12.58845 5.18006,15.54946 0.35442,1.71588 0.62751,3.31825 0.60681,3.56085 -0.0352,0.41299 -1.36795,1.87409 -4.03219,4.42039 -0.97533,0.93215 -1.02071,1.01581 -0.40201,0.7409 0.3836,-0.17048 1.51026,-0.85647 2.50365,-1.52445 1.45264,-0.97671 1.94657,-1.21761 2.52336,-1.23025 0.39443,-0.009 0.79714,0.10093 0.89488,0.24351 0.85276,1.24388 13.45472,58.52915 14.15978,67.62399 0.74905,9.66228 2.34452,11.06987 4.13886,26.78899 0.4503,3.94489 1.07249,8.65835 1.38263,10.47436 1.0098,5.91276 2.02919,13.5944 2.57615,19.41263 0.91096,9.69031 -8.55373,53.21889 -8.73533,57.346 -0.3002,6.82249 -1.24337,15.39212 -4.15003,37.7067 -0.64584,4.95811 -1.52241,12.03759 -1.94793,15.7322 -1.19816,10.40278 -2.91823,23.32135 -3.64359,27.36504 -0.36139,2.01463 -0.68402,4.12474 -0.71696,4.68914 -0.16077,2.75427 0.80446,12.8156 2.17116,22.63154 0.72087,5.1774 0.86376,5.60391 3.6631,10.93366 1.54841,2.94806 8.34934,12.87619 11.0921,16.19204 4.49875,5.43933 7.82145,9.0811 8.27637,9.07111 0.24844,-0.005 1.2706,-0.39362 2.27146,-0.86262 1.00089,-0.46897 2.90468,-1.23193 4.23067,-1.69545 6.1552,-2.15164 10.20788,-2.63711 13.03555,-1.56159 l 1.37251,0.52205 3.42209,-1.68974 c 10.15728,-5.01545 21.79417,-9.23375 31.65483,-11.4747 5.01411,-1.13952 11.45323,-1.66833 15.09368,-1.23958 2.2197,0.26143 5.12769,1.22544 6.77634,2.24639 1.19961,0.74288 1.71616,1.28642 3.00474,3.16181 1.67047,2.43135 12.44699,17.9887 12.56673,20.61548 0.28309,6.21029 -3.14195,13.84822 -10.80978,24.10603 -10.01761,13.40126 -23.61341,26.21355 -42.19903,39.76722 -6.03757,4.4029 -8.00779,5.75086 -14.86585,10.17067 z"
         inkscape:connector-curvature="0"
         sodipodi:nodetypes="cssssssssscscccssscscccssscssssssscccccccssssssssssscssscccscsssssssssssssccccssssssssscsssssccsssccscscsssssssssscccssssssssssscscscsccssccsscscscsscccssssscssscsssssssscccssssscsssssssssssssssscscsscscccscssssscccssssssscsscssscscsssccsscsssscscccsssssssssssscccsscsssscssscc" />
      <path
         style="font-size:medium;font-style:normal;font-variant:normal;font-weight:normal;font-stretch:normal;text-indent:0;text-align:start;text-decoration:none;line-height:normal;letter-spacing:normal;word-spacing:normal;text-transform:none;direction:ltr;block-progression:tb;writing-mode:lr-tb;text-anchor:start;baseline-shift:baseline;color:#000000;fill:#8080ff;fill-opacity:1;stroke:none;stroke-width:1px;marker:none;visibility:visible;display:inline;overflow:visible;enable-background:accumulate;font-family:Sans;-inkscape-font-specification:Sans"
         d="m -499.85411,192.48999 c 0.39468,1.78212 1.73038,3.11836 2.5429,4.70647 6.82008,10.79254 13.77491,21.50875 21.19843,31.89829 5.50243,7.71306 11.43297,15.1139 17.65449,22.25728 12.61741,15.19296 25.90309,29.81079 38.81806,44.74796 8.92559,10.26322 18.0369,20.43778 25.6712,31.72587 4.18364,6.23642 7.74879,12.87266 10.71083,19.7718 2.48039,5.562 4.73643,11.23921 6.32929,17.12499 0.51332,0.97215 1.77762,-0.19347 1.07151,-0.92403 -2.69627,-7.72564 -5.53543,-15.42731 -9.29589,-22.71009 -4.96693,-9.99266 -10.43085,-19.72835 -15.96788,-29.41365 -5.82676,-9.78472 -12.27738,-19.19315 -19.30437,-28.1551 -11.07966,-14.04845 -22.99512,-27.408 -34.94724,-40.71271 -7.68903,-8.47399 -15.59945,-16.74242 -23.46561,-25.05063 -7.39795,-7.92316 -14.48287,-16.20605 -20.32326,-25.36228 -0.20057,-0.13923 -0.55659,-0.13252 -0.69219,0.0957 z"
         id="path3200"
         inkscape:connector-curvature="0" />
      <path
         style="font-size:medium;font-style:normal;font-variant:normal;font-weight:normal;font-stretch:normal;text-indent:0;text-align:start;text-decoration:none;line-height:normal;letter-spacing:normal;word-spacing:normal;text-transform:none;direction:ltr;block-progression:tb;writing-mode:lr-tb;text-anchor:start;baseline-shift:baseline;color:#000000;fill:#d4aa00;fill-opacity:1;stroke:none;stroke-width:1px;marker:none;visibility:visible;display:inline;overflow:visible;enable-background:accumulate;font-family:Sans;-inkscape-font-specification:Sans"
         d="m -566.33225,301.83093 c -0.89559,0.87994 -0.15026,2.61807 1.14257,2.55089 5.79263,0.60953 11.67193,1.6169 17.2284,3.0791 3.94488,1.02097 7.87322,2.23633 11.6048,3.76472 3.42796,1.3662 6.80673,2.87941 10.13254,4.48213 11.34165,5.70985 22.10537,12.47857 32.66957,19.49833 15.76724,10.8298 31.15003,22.27264 45.48593,34.95484 3.77863,3.33833 7.48175,6.7615 11.22942,10.13461 1.12205,-0.58934 0.0385,-1.92723 -0.72236,-2.31917 -12.14579,-10.2225 -22.82474,-22.01067 -34.00304,-33.2458 -4.66856,-4.78793 -9.58527,-9.32802 -14.68137,-13.65635 -6.41166,-5.58258 -13.34213,-10.57185 -20.71655,-14.80606 -3.93585,-2.23412 -7.95328,-4.23601 -12.15145,-5.93748 -5.21425,-2.0832 -10.51873,-3.93668 -15.99289,-5.18148 -8.46545,-2.08835 -17.14704,-3.44244 -25.84729,-3.53792 -1.68703,-0.0773 -3.38693,-0.05 -5.06899,0.008 -0.1238,0.033 -0.23389,0.10845 -0.30929,0.21204 z"
         id="path3202"
         inkscape:connector-curvature="0" />
      <path
         style="color:#000000;fill:#ffaaee;fill-opacity:1;fill-rule:nonzero;stroke:none;stroke-width:0.89999998;marker:none;visibility:visible;display:inline;overflow:visible;enable-background:accumulate"
         d="m -340.09132,401.63507 c -0.36461,-0.53184 -1.71393,-3.43593 -2.9985,-6.45355 -3.19712,-7.5105 -5.43127,-19.56174 -10.09766,-54.4678 -4.85387,-36.30861 -7.43922,-48.36378 -14.52178,-67.71336 -4.9555,-13.53845 -10.5668,-25.05848 -17.45301,-35.83118 -6.57635,-10.28792 -23.19518,-32.92341 -31.29959,-42.63123 l -4.70471,-5.63551 1.38465,-7.66361 c 3.36004,-18.59681 21.53086,-60.37003 30.83267,-73.64428 8.23629,-11.753679 25.27421,-27.97337 29.92159,-28.484638 2.27914,-0.250728 4.92888,2.132387 7.69712,6.922615 1.33203,2.304994 2.4867,4.78006 2.56591,5.500131 0.0792,0.72008 -1.74487,5.550063 -4.05353,10.733312 -2.30866,5.18322 -4.23946,9.5672 -4.29067,9.74216 -0.36523,1.24804 1.60825,-0.27758 6.73006,-5.20274 3.25438,-3.12943 6.10114,-5.65553 6.32613,-5.61355 0.48787,0.091 3.13601,7.65277 3.94533,11.26586 l 0.5718,2.55273 -4.8301,5.67723 c -6.7464,7.92963 -8.1727,-7.52352 -7.808,-6.99155 0.1767,0.25775 2.21861,16.06844 3.68673,15.06442 1.46811,-1.00405 4.61339,-2.94703 6.98947,-4.31779 l 4.32015,-2.49231 2.44199,8.86753 c 4.1319,15.00408 11.39481,45.03227 12.67252,51.77379 4.1545,68.66946 0.88049,82.13281 -3.75312,124.72414 -0.629,6.79072 -5.5925,46.69883 -8.40482,67.5774 -1.04333,7.7456 -1.28869,12.76702 -0.85897,17.57894 l 0.60156,6.73608 -2.47515,1.69686 c -2.09456,1.43595 -2.5771,1.54817 -3.13807,0.7299 z m -11.80064,-76.06496 c -19.93511,-56.70307 -3.67062,-152.65564 -16.7939,-205.43605 -5.90643,55.79827 -1.32913,151.00689 16.7939,205.43605 z"
         id="path3220"
         inkscape:connector-curvature="0"
         sodipodi:nodetypes="sssssscsssssscscscsscscsccsscssccc" />
      <path
         style="color:#000000;fill:#aad400;fill-opacity:1;fill-rule:nonzero;stroke:none;stroke-width:0.89999998;marker:none;visibility:visible;display:inline;overflow:visible;enable-background:accumulate"
         d="m -320.08073,458.33941 c -0.34977,0.089 -1.77877,0.57811 -3.17558,1.087 l -2.53966,0.92525 -8.09014,-11.78843 c -7.80121,-11.36874 -14.52191,-19.45083 -20.80823,-25.02468 -0.94091,-0.83428 -2.28335,-2.04851 -2.9832,-2.69828 l -1.27246,-1.18141 11.61841,-7.96509 11.6184,-7.96509 1.61441,4.88733 c 2.22826,6.74562 7.28006,15.76221 13.14248,23.457 4.59115,6.02616 10.18373,12.67144 12.43852,14.77983 0.88772,0.83007 0.7494,1.28283 -1.0822,3.54246 -1.8471,2.27877 -8.73636,7.50061 -10.48114,7.94438 z"
         id="path3224"
         inkscape:connector-curvature="0" />
      <path
         style="color:#000000;fill:#784421;fill-opacity:1;fill-rule:nonzero;stroke:none;stroke-width:0.89999998;marker:none;visibility:visible;display:inline;overflow:visible;enable-background:accumulate"
         d="m -286.08974,524.26124 c -25.70306,16.11996 -53.17528,26.05639 -66.33091,23.99123 -4.7319,-0.74281 -6.46008,-2.16495 -11.33391,-9.32683 -2.43774,-3.58221 -5.41005,-8.36326 -6.6051,-10.62461 -2.0875,-3.95012 -2.1386,-4.25537 -1.30193,-7.77527 1.50706,-6.34014 7.74988,-16.52583 15.68799,-25.59626 1.98606,-2.26937 14.08209,-14.49885 14.95286,-15.11784 0.0693,-0.0487 0.36863,0.26536 0.66574,0.69875 1.28581,1.87557 7.74497,-0.98975 23.1385,-10.26439 7.15424,-4.31044 11.79522,-7.49591 17.08834,-11.72911 9.28652,-7.4269 16.76322,-14.75989 16.81592,-16.49272 0.0365,-1.19928 0.48815,-1.48339 6.78894,-4.27031 3.71242,-1.64205 9.91025,-4.01302 13.77293,-5.26882 17.90867,-5.82228 27.87586,-6.15018 32.38452,-1.06538 4.16031,4.69192 10.43642,13.1635 12.04268,16.25538 1.54518,2.97429 1.61244,3.6086 0.80416,7.58451 -2.56901,12.63687 -20.57093,34.18154 -42.31915,50.64748 -12.03703,9.11343 -16.56361,12.27825 -26.25159,18.35418 l 0,0 z"
         id="path3226"
         inkscape:connector-curvature="0" />
      <path
         style="color:#000000;fill:#c87137;fill-opacity:1;fill-rule:nonzero;stroke:none;stroke-width:0.89999998;marker:none;visibility:visible;display:inline;overflow:visible;enable-background:accumulate"
         d="m -318.55493,467.64585 c -4.48777,2.63791 -14.29267,8.00946 -16.1516,8.84854 -4.95587,2.23697 -2.89521,-5.65232 3.25097,-12.44641 0.8406,-0.9292 1.34936,-1.01648 2.33873,-0.40132 2.72644,1.69524 16.28131,-4.92826 21.5215,-10.51635 3.09649,-3.30206 4.6909,-6.22981 3.9674,-7.28516 -0.78681,-1.14769 -0.23087,-1.555 4.01098,-2.93878 4.48836,-1.46418 9.68442,-1.94931 10.88093,-1.0159 0.5402,0.42142 0.95014,0.938 0.91096,1.14795 -0.19316,1.03548 -8.43695,8.42359 -15.60655,13.98666 -7.80502,6.0561 -10.10206,7.66925 -15.12332,10.62077 z"
         id="path3228"
         inkscape:connector-curvature="0" />
      <path
         style="color:#000000;fill:#ff80e5;fill-opacity:1;fill-rule:nonzero;stroke:none;stroke-width:0.89999998;marker:none;visibility:visible;display:inline;overflow:visible;enable-background:accumulate"
         d="m -359.34079,295.57721 c -1.03341,-1.35318 -5.74006,-31.08216 -7.52327,-47.5196 -3.43297,-31.64486 -4.75091,-67.95545 -3.58142,-98.67182 0.38166,-10.02431 1.55349,-26.50029 1.88045,-26.4393 0.357,0.0666 1.89113,7.67136 2.62083,12.99165 1.7209,12.54716 2.53747,28.25191 2.73003,52.50571 0.40298,50.75637 0.71184,69.19286 1.32202,78.91262 0.59322,9.4496 1.83795,22.33638 2.60725,26.99287 0.15086,0.91312 0.12571,1.46567 -0.0559,1.22787 z"
         id="path3230"
         inkscape:connector-curvature="0" />
    </g>
  </g>
</svg>
