<?xml version="1.0" encoding="UTF-8" standalone="no"?>
<!-- Created with Inkscape (http://www.inkscape.org/) -->

<svg
   xmlns:dc="http://purl.org/dc/elements/1.1/"
   xmlns:cc="http://creativecommons.org/ns#"
   xmlns:rdf="http://www.w3.org/1999/02/22-rdf-syntax-ns#"
   xmlns:svg="http://www.w3.org/2000/svg"
   xmlns="http://www.w3.org/2000/svg"
   xmlns:sodipodi="http://sodipodi.sourceforge.net/DTD/sodipodi-0.dtd"
   xmlns:inkscape="http://www.inkscape.org/namespaces/inkscape"
   width="174.32489"
   height="144.92766"
   id="svg2"
   version="1.1"
   inkscape:version="0.48.4 r9939"
   sodipodi:docname="skate.svg">
  <defs
     id="defs4">
    <filter
       inkscape:collect="always"
       id="filter4800"
       color-interpolation-filters="sRGB">
      <feGaussianBlur
         inkscape:collect="always"
         stdDeviation="3.7410654"
         id="feGaussianBlur4802" />
    </filter>
  </defs>
  <sodipodi:namedview
     id="base"
     pagecolor="#ffffff"
     bordercolor="#666666"
     borderopacity="1.0"
     inkscape:pageopacity="0.0"
     inkscape:pageshadow="2"
     inkscape:zoom="1.9054295"
     inkscape:cx="19.083352"
     inkscape:cy="92.262668"
     inkscape:document-units="px"
     inkscape:current-layer="layer1"
     showgrid="false"
     inkscape:window-width="1600"
     inkscape:window-height="874"
     inkscape:window-x="0"
     inkscape:window-y="1"
     inkscape:window-maximized="1" />
  <metadata
     id="metadata7">
    <rdf:RDF>
      <cc:Work
         rdf:about="">
        <dc:format>image/svg+xml</dc:format>
        <dc:type
           rdf:resource="http://purl.org/dc/dcmitype/StillImage" />
        <dc:title />
      </cc:Work>
    </rdf:RDF>
  </metadata>
  <g
     inkscape:label="Camada 1"
     inkscape:groupmode="layer"
     id="layer1"
     transform="translate(-191.27981,-730.35769)">
    <g
       id="g5862">
      <g
         transform="matrix(0.39684201,0,0,0.39684201,202.96492,582.94747)"
         id="g4804">
        <path
           inkscape:connector-curvature="0"
           id="path4794"
           d="m 201.4127,712.81304 c -3.46858,-4.4874 -5.93513,-10.5696 -6.4171,-15.8238 -0.88545,-9.6524 4.07898,-23.82315 10.57154,-30.17616 l 3.55897,-3.48249 -36.85208,-26.8507 c -20.26861,-14.76792 -47.11137,-34.39252 -59.65054,-43.61028 l -22.79846,-16.75958 -1.51059,3.50085 c -2.8475,6.59926 -8.25795,12.6155 -14.57015,16.20156 -8.1409,4.62491 -14.21588,5.8422 -22.51531,4.51136 -6.43253,-1.03149 -7.54155,-1.53029 -12.69966,-5.71204 -6.38713,-5.17811 -8.84748,-9.15369 -10.33929,-16.70657 -1.53269,-7.76007 -0.44034,-13.09174 4.1968,-20.48409 3.59502,-5.73105 4.55244,-6.65719 9.63425,-9.31946 l 5.64251,-2.95597 -6.31335,-5.89086 C 23.55325,522.64883 4.7620397,500.51463 -3.4394501,486.49725 -12.27981,471.38789 -16.95873,453.8757 -14.88654,443.65315 c 4.22453,-20.84082 22.9741498,-42.16973 45.9311,-52.24959 8.00909,-3.51661 22.99579,-6.59037 27.92386,-5.72717 7.38671,1.29387 10.32305,4.76519 43.9238,51.92648 21.88505,30.7174 15.4645,24.95671 82.04314,73.61135 31.75383,23.20519 74.91621,54.13573 95.91642,68.73452 43.4692,30.21865 40.56325,28.67836 66.22471,35.10114 22.13829,5.54093 26.35193,7.13735 32.94024,12.48005 8.29,6.72265 11.46759,13.28906 14.22929,29.40438 1.67667,9.78393 1.96147,15.16763 1.08301,20.47313 -3.09278,18.6792 -13.65887,30.8027 -33.48881,38.4248 -16.72835,6.43 -45.12954,8.6411 -62.45645,4.8623 -12.59485,-2.7468 -19.86104,-6.4824 -34.4658,-17.7197 l -12.81829,-9.8627 -1.15826,6.117 c -2.39494,12.6484 -12.02553,21.6636 -24.72051,23.1408 -9.4531,1.1001 -19.58913,-2.8047 -24.80821,-9.5569 z"
           style="fill:#4d4d4d;stroke:#4d4d4d;stroke-width:10.0795784;stroke-linejoin:round;stroke-miterlimit:4;stroke-opacity:1;stroke-dasharray:none;filter:url(#filter4800)" />
        <path
           inkscape:connector-curvature="0"
           style="fill:#ffffff;stroke:#ffffff;stroke-width:10.0795784;stroke-linejoin:round;stroke-miterlimit:4;stroke-dasharray:none"
           d="m 201.4127,712.81304 c -3.46858,-4.4874 -5.93513,-10.5696 -6.4171,-15.8238 -0.88545,-9.6524 4.07898,-23.82315 10.57154,-30.17616 l 3.55897,-3.48249 -36.85208,-26.8507 c -20.26861,-14.76792 -47.11137,-34.39252 -59.65054,-43.61028 l -22.79846,-16.75958 -1.51059,3.50085 c -2.8475,6.59926 -8.25795,12.6155 -14.57015,16.20156 -8.1409,4.62491 -14.21588,5.8422 -22.51531,4.51136 -6.43253,-1.03149 -7.54155,-1.53029 -12.69966,-5.71204 -6.38713,-5.17811 -8.84748,-9.15369 -10.33929,-16.70657 -1.53269,-7.76007 -0.44034,-13.09174 4.1968,-20.48409 3.59502,-5.73105 4.55244,-6.65719 9.63425,-9.31946 l 5.64251,-2.95597 -6.31335,-5.89086 C 23.55325,522.64883 4.7620397,500.51463 -3.4394501,486.49725 -12.27981,471.38789 -16.95873,453.8757 -14.88654,443.65315 c 4.22453,-20.84082 22.9741498,-42.16973 45.9311,-52.24959 8.00909,-3.51661 22.99579,-6.59037 27.92386,-5.72717 7.38671,1.29387 10.32305,4.76519 43.9238,51.92648 21.88505,30.7174 15.4645,24.95671 82.04314,73.61135 31.75383,23.20519 74.91621,54.13573 95.91642,68.73452 43.4692,30.21865 40.56325,28.67836 66.22471,35.10114 22.13829,5.54093 26.35193,7.13735 32.94024,12.48005 8.29,6.72265 11.46759,13.28906 14.22929,29.40438 1.67667,9.78393 1.96147,15.16763 1.08301,20.47313 -3.09278,18.6792 -13.65887,30.8027 -33.48881,38.4248 -16.72835,6.43 -45.12954,8.6411 -62.45645,4.8623 -12.59485,-2.7468 -19.86104,-6.4824 -34.4658,-17.7197 l -12.81829,-9.8627 -1.15826,6.117 c -2.39494,12.6484 -12.02553,21.6636 -24.72051,23.1408 -9.4531,1.1001 -19.58913,-2.8047 -24.80821,-9.5569 z"
           id="path4792" />
      </g>
      <g
         transform="matrix(0.32379364,0.22943683,-0.22943683,0.32379364,409.17862,503.43766)"
         id="g4730">
        <path
           style="color:#000000;fill:#ffd42a;fill-opacity:1;fill-rule:nonzero;stroke:#ffd42a;stroke-width:10.0795784;stroke-linecap:round;stroke-linejoin:round;stroke-miterlimit:4;stroke-opacity:1;stroke-dasharray:none;stroke-dashoffset:0;marker:none;visibility:visible;display:inline;overflow:visible;enable-background:accumulate"
           d="m -318.12221,161.45038 c -4.18466,-0.18943 -22.44502,-0.84178 -40.57856,-1.44966 -18.13355,-0.60789 -38.21993,-1.76119 -44.63642,-2.56289 -28.37538,-3.54534 -72.89218,-21.16049 -88.46408,-35.00495 -4.66782,-4.15 -5.24831,-5.14303 -5.93015,-10.14464 -1.00609,-7.38022 0.60086,-20.027974 3.72971,-29.355132 3.30737,-9.859324 10.62064,-23.955725 15.20993,-29.317282 5.54423,-6.477181 8.47687,-7.610766 17.69963,-6.841617 9.86567,0.822766 22.17519,4.310035 55.2188,15.6434 14.50684,4.975585 29.57163,9.680328 33.47731,10.454985 9.90288,1.964144 222.99322,2.083273 235.23018,0.131506 5.14739,-0.820997 13.89234,-3.635601 24.57892,-7.910851 32.209521,-12.885664 44.121145,-12.610506 57.846844,1.336257 13.508603,13.726167 19.210205,38.855114 12.03064,53.023294 -4.845506,9.56214 -18.761883,22.07851 -34.477544,31.00905 -10.47212,5.95087 -16.764566,8.39271 -24.51733,9.51421 -6.50628,0.94118 -199.19659,2.25386 -216.41788,1.47432 z m -45.18795,-32.23042 c 2.90307,-2.12278 1.31398,-6.53681 -3.00261,-8.3404 -8.86852,-3.7055 -17.59641,0.7838 -11.77182,6.05498 3.74011,3.38476 11.60682,4.60164 14.77443,2.28542 z m 204.5255,-0.70077 c 1.14175,-0.61105 1.96223,-2.11733 1.96223,-3.60238 0,-3.31338 -5.78038,-5.93641 -11.41623,-5.18049 -10.65473,1.4291 -8.45101,9.83303 2.57848,9.83303 2.7023,0 5.79629,-0.47257 6.87552,-1.05016 z M -361.34084,98.820346 c 0.9212,-1.512951 0.60649,-2.281728 -1.78502,-4.360547 -2.42486,-2.107793 -3.76251,-2.473877 -8.11572,-2.221075 -4.8124,0.279466 -5.23647,0.511789 -5.52709,3.028019 -0.2437,2.109967 0.32894,3.080011 2.53616,4.296142 3.85067,2.121645 11.41293,1.686065 12.89167,-0.742539 z m 198.57286,0.378641 c 1.94368,-1.595065 2.18514,-2.311844 1.28148,-3.804241 -2.61026,-4.310881 -13.29284,-4.857087 -16.61866,-0.84972 -0.9744,1.174074 -0.70568,1.969029 1.36578,4.040491 3.28716,3.287153 10.33618,3.596673 13.9714,0.61347 z"
           id="path4712"
           inkscape:connector-curvature="0"
           transform="translate(439.64065,708.12413)" />
        <path
           style="fill:#000000"
           d="m 268.30768,929.06184 c -5.42453,-1.656 -10.95353,-5.1926 -14.38455,-9.201 -6.30305,-7.3637 -10.44536,-21.7962 -8.82094,-30.7335 l 0.89043,-4.8991 -45.59247,-0.6019 c -25.07586,-0.3311 -58.32365,-0.824 -73.88399,-1.0954 l -28.291515,-0.4935 0.79151,3.7298 c 1.492055,7.0308 0.55586,15.0677 -2.52112,21.6431 -3.96845,8.4803 -8.2214,12.9858 -15.76255,16.6983 -5.84483,2.8774 -7.03809,3.1116 -13.66444,2.6818 -8.20518,-0.5322 -12.51115,-2.3535 -18.0951,-7.6536 -5.7371,-5.4455 -7.92836,-10.4273 -8.41874,-19.1399 -0.38017,-6.7546 -0.13444,-8.0638 2.47273,-13.1741 l 2.89485,-5.6741 -8.55706,-1.1564 c -24.121882,-3.2598 -52.251146,-10.4554 -67.047197,-17.1508 -15.948656,-7.217 -29.891092,-18.8005 -34.110576,-28.3394 -8.602355,-19.447 -5.635504,-47.69002 7.267925,-69.18716 4.501672,-7.4998 14.952596,-18.67242 19.472598,-20.8173 6.775067,-3.21498 11.177868,-2.0803 65.8602,16.97332 35.61604,12.41013 27.04677,11.42192 109.500005,12.62761 39.325,0.57503 92.425,0.85744 118,0.62756 52.93875,-0.47583 49.67718,-0.0525 74.3284,-9.64833 21.26673,-8.27841 25.62773,-9.41199 34.09222,-8.86182 10.65077,0.69227 17.03986,4.21282 28.61038,15.76504 7.02468,7.01358 10.36968,11.24162 12.72033,16.07839 8.27605,17.02899 6.66416,33.02969 -5.10882,50.71359 -9.93155,14.918 -31.82647,33.1424 -48.14865,40.0769 -11.86455,5.0406 -19.953,6.1936 -38.36634,5.4686 l -16.16092,-0.6362 2.59154,5.6607 c 5.35866,11.7048 2.713,24.6285 -6.7911,33.1735 -7.07705,6.3629 -17.60487,9.0371 -25.76704,6.5453 z m 16.57273,-4.5349 c 13.06197,-5.4401 18.68652,-21.8178 11.86477,-34.5482 l -2.9375,-5.4818 -18.88046,0 -18.88047,0 -3.05703,5.4111 c -11.48403,20.327 10.05792,43.7118 31.89069,34.6189 z m -16.27418,-11.4895 c -8.81148,-5.3726 -8.23764,-18.9943 0.98452,-23.3705 4.26975,-2.0261 6.774,-2.0962 10.99905,-0.308 4.27268,1.8085 6.71743,4.7022 7.71702,9.1342 1.09345,4.8482 -0.27218,9.1586 -4.1786,13.189 -2.71321,2.7993 -3.92108,3.3143 -7.76671,3.3111 -2.75075,0 -5.82144,-0.7766 -7.75528,-1.9558 z m 14.13567,-2.1168 c 4.40457,-3.8673 5.41453,-8.3328 3.02399,-13.3705 -2.03919,-4.2973 -5.88994,-6.5532 -11.18604,-6.5532 -4.47748,0 -7.69106,1.9756 -9.77788,6.0111 -5.98337,11.5705 8.13618,22.5204 17.93993,13.9126 z m -203.201465,10.6361 c 12.61503,-5.9862 18.03949,-21.7756 11.71045,-34.0864 l -2.55678,-4.9734 -18.44322,-0.7241 -18.44321,-0.7242 -2.60228,3.0094 c -10.20789,11.8052 -3.92337,32.6764 11.56508,38.4082 4.93709,1.8271 13.92043,1.3918 18.76996,-0.9095 z m -16.73276,-10.4203 c -4.83198,-2.9847 -6.70191,-5.7511 -7.26516,-10.7484 -0.94741,-8.4053 4.34287,-14.3911 12.71911,-14.3911 8.97382,0 13.59634,5.3507 12.81038,14.8284 -0.39566,4.7711 -0.93915,5.9438 -4.09558,8.8364 -4.27417,3.917 -9.35821,4.4461 -14.16875,1.4747 z m 13.82415,-3.0502 c 5.34398,-5.2529 4.57127,-14.3025 -1.54922,-18.1436 -6.54373,-4.1067 -15.70685,-0.7293 -17.63271,6.4992 -1.46368,5.4938 1.19851,10.6909 7.36253,14.3732 2.94048,1.7566 8.58116,0.4543 11.8194,-2.7288 z m 259.048335,-39.0125 c 8.55842,-0.8648 11.08739,-1.5917 19,-5.4611 20.68939,-10.1177 37.21779,-23.9701 43.24378,-36.2426 2.56067,-5.2151 2.87457,-6.8832 2.80193,-14.89 -0.18703,-20.61377 -11.37114,-39.98767 -27.29522,-47.28269 -10.31618,-4.72597 -26.40879,-1.81066 -50.98346,9.23609 -12.86567,5.78335 -15.10976,6.20541 -39.71609,7.46961 -24.7413,1.27113 -186.465505,1.31871 -203.196685,0.0598 -14.40297,-1.08374 -15.99972,-1.51009 -48.84373,-13.04184 -32.3899768,-11.37235 -41.921434,-14.03353 -52.548352,-14.67153 -7.656799,-0.45968 -9.069502,-0.27044 -12.137828,1.62589 -7.675396,4.74365 -17.141545,21.15756 -22.273681,38.62167 -3.364499,11.449 -3.941778,27.1378 -1.184053,32.1792 2.251934,4.1168 15.520025,12.9391 28.89404,19.2124 25.1720482,11.8075 50.233488,19.4416 69.195334,21.0781 10.36909,0.895 61.321725,2.7012 96.171535,3.4092 32.66385,0.6636 189.58614,-0.3639 198.87248,-1.3022 z M 63.557675,836.00794 c -3.34914,-2.042 -4.15189,-4.7091 -2.05,-6.811 2.0138,-2.0138 10.18414,-1.4722 13.16514,0.8726 2.93479,2.3085 3.51962,6.374 1.05307,7.3205 -3.16634,1.215 -8.99433,0.5531 -12.16821,-1.3821 z m 11.16821,-0.6179 c 4.24873,-1.6304 -0.60721,-6.3931 -6.51827,-6.3931 -5.24434,0 -6.72944,2.2024 -3.30272,4.8979 2.62865,2.0677 6.70988,2.689 9.82099,1.4952 z m 193.450365,1.1536 c -6.10628,-3.4489 -3.17829,-8.5467 4.90892,-8.5467 7.47806,0 11.87404,4.5546 7.72196,8.0005 -2.3252,1.9297 -9.62258,2.2453 -12.63088,0.5462 z m 9.56633,-1.5219 c 3.32432,-1.2639 3.4622,-4.7615 0.21978,-5.5753 -1.28993,-0.3237 -4.10243,-0.4448 -6.25,-0.269 -3.11038,0.2545 -3.90468,0.7204 -3.90468,2.29 0,1.0979 1.10707,2.5306 2.5,3.2353 3.03136,1.5336 4.11769,1.5802 7.4349,0.319 z M 64.613435,806.55754 c -3.88248,-3.3755 -2.32514,-5.9456 3.85225,-6.3574 4.98303,-0.3322 9.84199,2.5127 9.84199,5.7624 0,3.8971 -9.42521,4.3066 -13.69424,0.595 z m 10.77603,0.4394 c 1.72591,0 0.92214,-3.9275 -1.01605,-4.9648 -4.78704,-2.5619 -12.2706,-0.1099 -8.70243,2.8514 1.98726,1.6493 6.02004,3.0267 7.46848,2.5509 0.73248,-0.2406 1.74498,-0.4375 2.25,-0.4375 z m 187.918215,0 c -2.55648,-2.5564 -2.51691,-3.5245 0.22251,-5.4433 3.23132,-2.2633 9.91681,-2.0072 12.58893,0.4823 2.75017,2.5622 2.74454,3.4582 -0.034,5.4043 -3.23663,2.2671 -10.31257,2.0216 -12.77744,-0.4433 z m 12.08981,-1.6082 c 1.13401,-1.3664 1.0485,-1.8174 -0.56869,-3 -2.60826,-1.9072 -9.4172,-1.8262 -10.16438,0.121 -0.31927,0.832 -0.0251,2.182 0.65383,3 1.66705,2.0087 8.37865,1.9281 10.07924,-0.121 z"
           id="path4710"
           inkscape:connector-curvature="0" />
        <path
           style="color:#000000;fill:#ccaaff;fill-opacity:1;fill-rule:nonzero;stroke:#ccaaff;stroke-width:10.0795784;stroke-linecap:round;stroke-linejoin:round;stroke-miterlimit:4;stroke-opacity:1;stroke-dasharray:none;stroke-dashoffset:0;marker:none;visibility:visible;display:inline;overflow:visible;enable-background:accumulate"
           d="m -378.0671,213.69772 c -13.49958,-4.82548 -20.30867,-20.80534 -14.22244,-33.37782 1.23304,-2.54713 2.8666,-5.1496 3.63012,-5.78327 0.99477,-0.82558 6.47705,-0.94816 19.34339,-0.43248 l 17.95518,0.71964 2.40691,5.1691 c 8.91995,19.15649 -9.65446,40.66042 -29.11316,33.70483 z m 15.82418,-12.1225 c 3.75064,-3.24218 3.89915,-3.61399 3.95066,-9.89103 0.0868,-10.57752 -4.44841,-14.87794 -14.65586,-13.89713 -6.11028,0.58712 -9.6529,3.46956 -11.16475,9.08416 -2.52208,9.3663 4.07268,17.9693 13.83036,18.04196 3.25866,0.0243 4.9739,-0.68788 8.03959,-3.33796 z"
           id="path4714"
           inkscape:connector-curvature="0"
           transform="translate(439.64065,708.12413)" />
        <path
           style="color:#000000;fill:#ccaaff;fill-opacity:1;fill-rule:nonzero;stroke:#ccaaff;stroke-width:10.0795784;stroke-linecap:round;stroke-linejoin:round;stroke-miterlimit:4;stroke-opacity:1;stroke-dasharray:none;stroke-dashoffset:0;marker:none;visibility:visible;display:inline;overflow:visible;enable-background:accumulate"
           d="m -171.14434,216.78192 c -11.45689,-4.25146 -18.14259,-13.09862 -18.14014,-24.00476 4.4e-4,-1.95653 1.35059,-6.4105 3.00032,-9.89772 l 2.99951,-6.3404 18.68574,0 18.68574,0 2.40317,5.32593 c 5.78784,12.82708 1.28486,27.26291 -10.37548,33.26214 -5.03939,2.59276 -12.74123,3.33123 -17.25886,1.65481 z m 15.52986,-12.59874 c 3.69261,-3.95909 4.87939,-6.65941 4.87504,-11.09241 -0.0101,-10.28661 -11.31275,-16.80683 -19.97675,-11.52405 -4.50661,2.74785 -6.73459,6.56819 -6.72843,11.53734 0.0109,8.83502 5.02636,13.75659 14.092,13.82828 4.32442,0.0342 5.54735,-0.40028 7.73814,-2.74916 l 0,0 z"
           id="path4716"
           inkscape:connector-curvature="0"
           transform="translate(439.64065,708.12413)" />
        <path
           style="color:#000000;fill:#6c5d53;fill-opacity:1;fill-rule:nonzero;stroke:#6c5d53;stroke-width:10.0795784;stroke-linecap:round;stroke-linejoin:round;stroke-miterlimit:4;stroke-opacity:1;stroke-dasharray:none;stroke-dashoffset:0;marker:none;visibility:visible;display:inline;overflow:visible;enable-background:accumulate"
           d="m -170.65939,202.44827 c -7.86891,-5.51159 -4.03897,-18.80799 5.41752,-18.80799 9.93277,0 14.99944,9.84382 8.8365,17.16806 -2.24505,2.66809 -3.31688,3.12123 -7.38276,3.12123 -2.61603,0 -5.7081,-0.66659 -6.87126,-1.4813 z"
           id="path4718"
           inkscape:connector-curvature="0"
           transform="translate(439.64065,708.12413)" />
        <path
           style="color:#000000;fill:#6c5d53;fill-opacity:1;fill-rule:nonzero;stroke:#6c5d53;stroke-width:10.0795784;stroke-linecap:round;stroke-linejoin:round;stroke-miterlimit:4;stroke-opacity:1;stroke-dasharray:none;stroke-dashoffset:0;marker:none;visibility:visible;display:inline;overflow:visible;enable-background:accumulate"
           d="m -376.74119,200.31736 c -5.82827,-4.08228 -6.62073,-12.65793 -1.53908,-16.65516 5.18159,-4.07583 10.72175,-3.89957 15.10178,0.48046 1.93001,1.93001 2.44879,3.51403 2.44879,7.47705 0,4.36942 -0.40896,5.37236 -3.12123,7.65459 -3.62834,3.05305 -9.3586,3.51673 -12.89026,1.04306 l 0,0 z"
           id="path4720"
           inkscape:connector-curvature="0"
           transform="translate(439.64065,708.12413)" />
        <path
           style="color:#000000;fill:#ff7f2a;fill-opacity:1;fill-rule:nonzero;stroke:#ff7f2a;stroke-width:10.0795784;stroke-linecap:round;stroke-linejoin:round;stroke-miterlimit:4;stroke-opacity:1;stroke-dasharray:none;stroke-dashoffset:0;marker:none;visibility:visible;display:inline;overflow:visible;enable-background:accumulate"
           d="m -371.57248,97.766914 c -2.01601,-1.042126 -3.18972,-2.20026 -2.713,-2.676987 0.20538,-0.20538 1.78954,-0.475851 3.52035,-0.601046 2.73823,-0.198066 3.41838,-0.04799 5.23711,1.155593 1.14961,0.760771 2.09019,1.586516 2.09019,1.834989 0,1.218022 -5.92913,1.427537 -8.13465,0.287451 z"
           id="path4722"
           inkscape:connector-curvature="0"
           transform="translate(439.64065,708.12413)" />
        <path
           style="color:#000000;fill:#ff7f2a;fill-opacity:1;fill-rule:nonzero;stroke:#ff7f2a;stroke-width:10.0795784;stroke-linecap:round;stroke-linejoin:round;stroke-miterlimit:4;stroke-opacity:1;stroke-dasharray:none;stroke-dashoffset:0;marker:none;visibility:visible;display:inline;overflow:visible;enable-background:accumulate"
           d="m -372.34409,126.65018 c -6.07709,-2.73293 -4.36941,-5.84033 2.43345,-4.42806 3.3519,0.69585 6.59174,3.22175 5.51432,4.29917 -0.95904,0.95904 -5.9228,1.03954 -7.94777,0.12889 z"
           id="path4724"
           inkscape:connector-curvature="0"
           transform="translate(439.64065,708.12413)" />
        <path
           style="color:#000000;fill:#ff7f2a;fill-opacity:1;fill-rule:nonzero;stroke:#ff7f2a;stroke-width:10.0795784;stroke-linecap:round;stroke-linejoin:round;stroke-miterlimit:4;stroke-opacity:1;stroke-dasharray:none;stroke-dashoffset:0;marker:none;visibility:visible;display:inline;overflow:visible;enable-background:accumulate"
           d="m -172.14237,98.207488 c -1.63529,-0.401958 -2.42662,-1.265209 -2.2558,-2.460802 0.12371,-0.865841 0.64775,-1.161103 2.49925,-1.408161 2.46433,-0.328833 6.09183,0.259823 7.18332,1.165681 2.12196,1.761075 -3.27218,3.724497 -7.42677,2.703282 z"
           id="path4726"
           inkscape:connector-curvature="0"
           transform="translate(439.64065,708.12413)" />
        <path
           style="color:#000000;fill:#ff7f2a;fill-opacity:1;fill-rule:nonzero;stroke:#ff7f2a;stroke-width:10.0795784;stroke-linecap:round;stroke-linejoin:round;stroke-miterlimit:4;stroke-opacity:1;stroke-dasharray:none;stroke-dashoffset:0;marker:none;visibility:visible;display:inline;overflow:visible;enable-background:accumulate"
           d="m -168.73107,126.36507 c -3.41145,-2.1252 -3.47566,-3.29724 -0.22548,-4.11565 3.57752,-0.90083 9.14735,0.48098 9.14735,2.26934 0,1.08196 -2.349,2.39389 -4.85057,2.70907 -1.72441,0.21727 -2.65372,0.0203 -4.0713,-0.86276 z"
           id="path4728"
           inkscape:connector-curvature="0"
           transform="translate(439.64065,708.12413)" />
      </g>
    </g>
  </g>
</svg>
