<?xml version="1.0" encoding="UTF-8" standalone="no"?>
<svg
   xmlns:osb="http://www.openswatchbook.org/uri/2009/osb"
   xmlns:dc="http://purl.org/dc/elements/1.1/"
   xmlns:cc="http://creativecommons.org/ns#"
   xmlns:rdf="http://www.w3.org/1999/02/22-rdf-syntax-ns#"
   xmlns:svg="http://www.w3.org/2000/svg"
   xmlns="http://www.w3.org/2000/svg"
   xmlns:xlink="http://www.w3.org/1999/xlink"
   xmlns:sodipodi="http://sodipodi.sourceforge.net/DTD/sodipodi-0.dtd"
   xmlns:inkscape="http://www.inkscape.org/namespaces/inkscape"
   version="1.1"
   id="svg2"
   viewBox="0 0 148.58143 109.43443"
   height="109.43444"
   width="148.58145"
   inkscape:version="0.48.4 r9939"
   sodipodi:docname="avião.svg">
  <sodipodi:namedview
     pagecolor="#ffffff"
     bordercolor="#666666"
     borderopacity="1"
     objecttolerance="10"
     gridtolerance="10"
     guidetolerance="10"
     inkscape:pageopacity="0"
     inkscape:pageshadow="2"
     inkscape:window-width="1600"
     inkscape:window-height="876"
     id="namedview1313"
     showgrid="false"
     fit-margin-top="0"
     fit-margin-left="0"
     fit-margin-right="0"
     fit-margin-bottom="0"
     inkscape:zoom="4.4477099"
     inkscape:cx="45.710403"
     inkscape:cy="65.398323"
     inkscape:window-x="0"
     inkscape:window-y="1"
     inkscape:window-maximized="1"
     inkscape:current-layer="svg2" />
  <script
     xlink:href="C:\wamp\www\bingo\js/snap.svg-min.js"
     id="script4164" />
  <title
     id="title4162">Bingo das Letras</title>
  <defs
     id="defs4">
    <linearGradient
       osb:paint="solid"
       id="linearGradient12614">
      <stop
         id="stop12616"
         offset="0"
         style="stop-color:#000000;stop-opacity:1;" />
    </linearGradient>
    <linearGradient
       gradientTransform="matrix(-0.19399818,0,0,-0.19399818,259.22818,12173.784)"
       osb:paint="solid"
       id="linearGradient59274">
      <stop
         id="stop59276"
         offset="0"
         style="stop-color:#930033;stop-opacity:1;" />
    </linearGradient>
    <linearGradient
       id="linearGradient4269"
       osb:paint="solid"
       gradientTransform="matrix(110.20782,22.122239,-29.697412,82.096171,6264979.7,4302313.2)">
      <stop
         style="stop-color:#ffffff;stop-opacity:1;"
         offset="0"
         id="stop4271" />
    </linearGradient>
    <linearGradient
       id="linearGradient4251"
       osb:paint="solid"
       gradientTransform="translate(106155.96,125143.42)">
      <stop
         style="stop-color:#555555;stop-opacity:1;"
         offset="0"
         id="stop4253" />
    </linearGradient>
    <linearGradient
       id="linearGradient4241"
       osb:paint="solid"
       gradientTransform="matrix(0.19125385,0,0,0.19125385,-3346.8991,-12526.231)">
      <stop
         style="stop-color:#3fb5ae;stop-opacity:1;"
         offset="0"
         id="stop4243" />
    </linearGradient>
    <linearGradient
       id="linearGradient4231"
       osb:paint="solid"
       gradientTransform="translate(2399.1562,2075.6965)">
      <stop
         style="stop-color:#d1f2a5;stop-opacity:1;"
         offset="0"
         id="stop4233" />
    </linearGradient>
    <linearGradient
       id="linearGradient4221"
       osb:paint="solid"
       gradientTransform="matrix(0.66768435,0,0,0.66768435,-186.89148,394.64653)">
      <stop
         style="stop-color:#effab4;stop-opacity:1;"
         offset="0"
         id="stop4223" />
    </linearGradient>
    <linearGradient
       id="linearGradient4211"
       osb:paint="solid"
       gradientTransform="translate(-699.20463,883.12976)">
      <stop
         style="stop-color:#ffc48c;stop-opacity:1;"
         offset="0"
         id="stop4213" />
    </linearGradient>
    <linearGradient
       id="linearGradient4201"
       osb:paint="solid"
       gradientTransform="matrix(0.35946858,0,0,0.22423084,-331.07911,5516.4706)">
      <stop
         style="stop-color:#ff9f80;stop-opacity:1;"
         offset="0"
         id="stop4203" />
    </linearGradient>
    <linearGradient
       id="linearGradient4191"
       osb:paint="solid"
       gradientTransform="matrix(0.52321996,0,0,0.52321996,2015.4535,3072.5352)">
      <stop
         style="stop-color:#f56991;stop-opacity:1;"
         offset="0"
         id="stop4193" />
    </linearGradient>
    <g
       id="Layer0_0_FILL-2">
      <path
         d="m 185.1,189 q -0.1,0 -0.1,-0.1 l -0.45,0 q 0.1,0.1 0.2,0.25 0.1,0 0.2,0 0.05,0 0.05,-0.1 0.1,0 0.1,-0.05 m -0.35,-19.1 q -0.3,-0.75 -0.65,-1.2 -1.65,-1.85 -2.75,-0.55 -0.65,0.65 -1.45,1.75 -0.85,1.1 -1.85,2.55 -2.1,3.05 -3.05,7.15 -0.55,2.3 -1.3,4.25 0,0.45 0,0.8 -6.6,-1 -13.3,-2.1 4.15,-7.8 7,-16.25 3.65,-10.55 -6,-15.45 -5.6,-2.75 -10.55,0.5 -16.05,10.55 -29.85,24.15 -14.2,2 -28.25,5.75 -0.1,-0.35 -0.3,-0.7 -0.45,-0.95 -1.3,-1.6 -1.9,-1.55 -4.3,-1.8 L 84,178.8 q -2,-4.5 -4.2,-8.9 -3.25,-6.45 -10.6,-6.15 -1,0.05 -1.45,1 -6.6,13.85 -4.4,29.65 -4.05,2.65 -7.45,6.05 2.3,4.4 7,6 2,0.6 4.1,0.35 11.75,-1.95 22.7,4.05 -12.85,9.9 -23.5,22.05 -1.3,1.45 -0.45,3 4,7.7 13.65,5.35 27.3,-6.7 49.95,-23.7 12.8,0.9 25.55,1.2 5.6,0.1 11.1,0.8 -0.55,8.2 0.65,10.95 1.3,2.85 1.65,3.1 5.35,-4.75 7.25,-11.85 1.55,-5.5 1.65,-8.8 2.95,-3.05 4.05,-7.05 1.2,-1.2 2.5,-2.5 0.7,-0.55 0.65,-1.65 -0.2,-2.55 -2.05,-4.6 0.1,-2.95 -0.75,-5.4 3.6,-7 3.8,-13.4 0.15,-6 -0.65,-8.45 m -1.65,-0.75 q 0.1,0.35 0.2,0.75 2.45,10.55 -2.3,20.2 -0.55,1 -1.1,2 -0.85,1.3 -1.7,2.65 -0.25,0.3 -0.55,0.65 -1,-0.45 -1.9,-1 -0.1,-0.35 0,-0.65 0,-0.35 0.1,-0.65 0.1,-0.65 0.15,-1.1 0.1,-0.55 0.1,-0.9 0.2,-2.05 0.65,-3.85 0.1,-0.95 0.35,-1.65 0,-0.4 0.1,-0.65 0.45,-2.1 0.85,-3.05 0.25,-1 0.9,-3.65 0.1,-0.1 0.1,-0.3 1.4,-4.2 3.65,-8.05 0.2,-0.4 0.4,-0.75 M 164.9,156 q 1.5,1.95 1.3,4.5 -0.35,3.95 -2.6,7.35 -0.15,-0.65 0,-1.2 1.05,-2.9 0.5,-5.85 l -1.4,-0.4 -0.35,1.95 q -1.85,9.35 -7.65,16.7 -0.55,0.75 -1.2,1.5 -8.25,-6.25 -18.9,-5.7 6.5,-6.45 12.05,-13.6 0,-0.55 -0.4,-0.9 -0.15,-0.2 -0.35,-0.3 -1.45,-0.55 -3.05,-0.65 -0.55,0 -1.1,0 3.8,-3.75 8.35,-6.4 0.65,-0.45 1.4,-0.85 l 2,-1.1 q 7.45,-0.45 11.4,4.95 m 10.95,29.15 q 0,-0.5 0.1,-0.95 0.35,-8.25 5.5,-14.3 0.45,-0.55 1,-1.2 l -0.55,1.25 q -4.15,7.2 -5.4,15.35 -0.2,0.75 -0.3,1.65 -0.25,1.4 -0.35,2.85 -0.1,-1.45 0,-3 0,-0.85 0,-1.65 m -2.15,1.1 q 0,1.8 0.2,3.65 0.1,1.75 0.4,3.5 0.0484,0.0969 0.15,0.1 -0.35273,0 -0.65,0 -4.65,4.65 -2.3,9.25 -1.15,0.85 -2.2,1.95 -0.8,1.25 -1.35,2.9 l -1.1,4.05 q -0.2,0.75 -0.3,1.6 l 0,0.05 q -0.25,1.65 -0.35,3.4 l 0,0.75 q -0.75,0.2 -1.55,0.3 -8,-5.8 -7.45,-16.45 0.45,-10.55 9.65,-14.35 3.5,-1.45 6.85,-0.7 m 6.45,8.45 -0.2,-0.1 q 0.2,-0.4 0.5,-0.75 0.15,1 0.35,2 l -1.55,-0.6 q 0.45,-0.3 0.9,-0.55 M 76.3,171 l -0.85,0.35 q 1.85,10.1 9.55,16.05 0.2,0.2 0.45,0.3 l 15.65,0.45 0.35,-0.65 -0.25,-0.45 Q 94,187.8 86.95,186.5 86.6,186.4 86.4,186.15 l 0.35,-0.85 q 27.45,-9.9 56.2,-6.5 3.85,0.55 7.45,1.9 2.1,1.2 2.5,3.7 0.05,0.1 0.05,0.15 5.8,-0.05 11.5,0.6 -11,7.25 -8.65,21.1 0.3,1.85 0.85,3.6 0.8,3 2.4,5.6 -16.35,1.15 -27,-0.1 l 2.3,-2.4 0,-0.1 q 0.25,-1.35 -0.4,-2 -8.05,-8.1 -20.1,-7.7 -7.7,0.35 -15.35,1.65 -2.55,0.8 -4.85,2.45 -0.45,0.3 -0.9,0.65 l -16.2,-3.85 q 1.5,-0.9 2.7,-2.05 0.6,-0.55 1.25,-1.15 4.6,-3.15 1.1,-6.15 -2.75,-2.3 -6.3,-2.85 -4.6,-0.65 -8.95,0.9 -2.1,-10.3 0,-20.55 l 0.2,-0.2 q 0.45,-2.75 1.55,-5.25 8.85,-2.75 11.3,7.1 0.45,1.65 0.85,3.3 Q 78.5,173.9 76.3,171 m -11.85,23.95 q 4.95,-3.6 14.8,0.9 l 0.15,0.2 q -1.8,1.55 -3.75,2.85 -2.4,1.65 -4.85,3.05 -3.15,1.55 -6.55,2.85 -0.35,-0.2 -0.7,-0.4 -2.8,-1 -5.8,-4.2 1.2,-1.1 3.95,-3.25 1.2,-0.9 2.75,-2 m 20.2,-14.5 2.75,-1.85 2.4,0.85 0.7,0.35 0.95,1.85 -5.35,1.45 -1.45,-2.65 m -2.65,0.8 q 0.15,0.2 0.45,0.4 1.85,1.8 2.75,4.2 -3.05,0.4 -3.2,-4.6 m -0.95,15.45 0.45,0.45 q -5.3,6.55 -13.4,7.9 7.35,-2.85 12.95,-8.35 m 80.85,-28.1 -0.4,1.75 q -1,7.05 -5.75,11.3 -0.3,0.25 -0.95,0.1 l -0.1,-0.3 q 3.95,-5.25 6.55,-11.2 l 0.65,-1.65 m -22.05,-7.55 1.75,-0.1 3.4,0.3 q -3.5,4.2 -6.65,7.8 -3.2,3.5 -5.75,5.9 l -7.2,0 -0.55,0 q 0.3,-0.2 0.55,-0.5 7.75,-6.15 14.45,-13.4 M 125.7,210.2 q -0.2,0 -0.3,0 -15.85,12.05 -32.65,22.6 -0.4,0.25 -0.85,0.65 L 91.25,234 q 16.1,-4.45 29.75,-14.45 -17.35,13.9 -38.75,20.1 -6.35,1.85 -12,-0.8 -4.15,-1.95 -1.95,-4.85 1.3,-1.65 2.85,-3.25 l 9.45,-8.8 q 4.25,1.4 8.75,1.85 l 19,-18.4 q 4.75,0.1 9.45,0.2 4.85,0.1 9.25,2.2 2.8,1.3 5.05,3.2 -2.2,2.5 -4.3,3.7 l 0,-0.1 q 1.55,-3.05 -2.1,-4.4 m 1.3,2.55 q 0.05,0.2 0.05,0.4 -13.55,12.2 -31,18.15 15.5,-9.25 30.2,-19.75 0.65,0.4 0.75,1.2 m -44.85,8.2 q 0.65,-0.85 1.5,-1.65 6.85,-6.25 14.6,-11.3 4.75,-2.3 7.05,-1.4 -7.05,7.65 -12.5,12.5 -5.4,4.95 -10.65,1.85 m 90.55,-19 q -0.1,-1.2 0,-1.4 -0.1,-2.3 2.2,-4.85 3.95,1.1 6.7,3.3 2.6,1.9 0.85,3.85 -0.2,0.2 -0.45,0.35 -2.4,2.05 -8.2,1.05 -1,-1.05 -1.1,-2.3 m 2.6,3.95 q 0,0.05 0,0.15 0.1,0.55 0.15,1 0.2,2.6 0,5.15 -0.05,1.3 -0.25,2.7 -0.45,2.9 -1.55,5.85 -1.75,4.95 -4.9,10 -0.65,0.65 -0.8,-0.45 -0.2,-1 -0.45,-1.9 -0.3,-1.05 -0.5,-2.6 -0.05,-1.55 0.4,-3.5 0.1,0.95 0.25,1.75 0.1,1 0.3,2.05 0,0.25 0.25,0.55 0.2,0.25 0.65,0.25 -0.65,-0.7 -0.2,-6.5 0.1,-0.75 0.2,-1.4 0.2,-1.25 0.55,-2.65 0.4,-1.65 1,-3.4 1.1,-3.4 3.05,-7.45 l 0.2,0.1 1.65,0.3 m 1.65,2.45 q -0.2,-0.8 -0.1,-2.45 l 3.05,-0.1 q -1.1,2.45 -2.7,4.5 -0.1,-1.5 -0.25,-1.95 m -5.45,-2.75 0.5,0.35 q -1.3,3.7 -2.4,7.35 -0.45,1.65 -0.95,3.3 -0.35,1.3 -0.6,2.6 -0.4,1.3 -0.65,2.65 l 0.1,-1.65 q 0.05,-0.45 0.15,-1 0.1,-1.1 0.4,-2.3 0.15,-1.55 0.55,-3.05 0,-0.15 0.05,-0.25 1.15,-4.15 2.85,-8 m -65,-10.75 q 1.4,-0.7 3.05,-1 12.65,-1.65 25.25,1 2.45,5.7 6.8,3.2 1.65,-0.9 2.75,-2.65 3.65,-5.5 8.45,-10.1 -0.1,-0.75 -0.45,-1.45 -1.1,-2.05 -3.15,-2.95 -3.5,0.75 -6.05,3.1 l -2.5,3.05 q -2.55,2 -4.75,5.35 -2.85,1.1 -6,1 l -0.25,0 q -0.75,-0.1 -1.4,-0.1 -11.3,-1.75 -22.55,0 l -5.55,0.9 q 2.3,2.7 6.35,0.65 m 33.7,2.5 q -4.85,-1.55 -1.1,-5.35 0.3,-0.35 0.55,-0.65 0.45,-0.45 0.85,-0.9 1.1,-1.1 2.35,-2.2 l 2.2,1.65 q -1.1,1.75 -2.25,3.4 l -2.15,3.2 -0.45,0.85 m 8.9,-14.8 1.55,1.85 -1.8,2 -1.95,2.2 -2.65,-2.1 2.4,-2 2.45,-1.95 m -3.85,15.5 -0.2,0.3 q 0.75,1 2.05,1 0.25,-0.25 0.65,-0.65 0.25,-0.35 0.15,-0.65 -1.15,-3 -2.65,0 m 1.5,-1.25 0.7,0.65 -0.55,0.8 -0.75,-0.1 0.6,-1.35 m 7.6,1.65 0.1,-0.2 q -2.4,-1.55 -5.25,-0.75 l -0.75,2.05 q 2.6,2 5.6,0.9 -0.05,-0.1 -0.25,-0.15 -1.75,-1.3 -4.05,-1.05 l -0.1,-0.45 q 2.3,-0.65 4.7,-0.35 m -28,-3.6 -3.95,0.85 q -3.05,5.5 3,6.7 7.55,1.45 10.3,-4.5 -0.25,-0.3 -0.45,-0.45 -3.75,-3.25 -8.9,-2.6 m -2.3,1.65 q 1.9,-0.45 3.3,-0.45 0.55,0 1,0.1 3.95,-0.55 5.7,2.2 -1.55,1.3 -3.05,1.95 -0.8,0.35 -1.7,0.55 -3.4,0.8 -6.35,-1.6 l 1,-2.35 0.1,-0.4 m -3.6,1.1 q -0.1,-1.2 -0.9,-1.9 -6.25,-2.15 -11.05,2.2 0.4,0.75 0.95,1.35 3.65,4.6 9.35,2.15 l 1.1,-1.5 q 0.65,-1 0.55,-2.3 m -9,0 q 0.2,-0.25 0.55,-0.45 1,-0.45 2.15,-0.65 2,-0.25 4.3,0.3 l -1.65,3.95 q -1.85,0.1 -3.15,0 -4.1,-0.45 -2.2,-3.15 m 53,11.75 q 1.55,-3.45 -1.2,-6.05 -5.95,0 -3.2,5.15 1.45,2.65 4.2,1.2 0.1,-0.1 0.2,-0.3 m -3.5,-1.1 q -2.1,-0.7 -1,-2.75 0.9,-1.65 2.3,-0.35 2.4,4.2 -1.3,3.1 m 1.5,-4.65 q 1.7,0.8 1.45,2.85 l 0,0.05 q -0.3,-2 -2.65,-2.65 l 1.2,-0.25 z"
         id="path62913"
         inkscape:connector-curvature="0"
         style="fill:#000000;stroke:none" />
      <path
         d="m 172,205.95 -0.5,-0.35 q -1.7,3.85 -2.85,8 -0.05,0.1 -0.05,0.25 -0.4,1.5 -0.55,3.05 -0.3,1.2 -0.4,2.3 -0.1,0.55 -0.15,1 l -0.1,1.65 q 0.25,-1.35 0.65,-2.65 0.25,-1.3 0.6,-2.6 0.5,-1.65 0.95,-3.3 1.1,-3.65 2.4,-7.35 m -46.6,-31 0,-0.5 q -0.25,0.3 -0.55,0.5 l 0.55,0 m 35.85,-4.7 0.25,0.1 0.4,-1.75 -0.65,1.65 m -13.8,27.2 -0.7,-0.65 -0.6,1.35 0.75,0.1 0.55,-0.8 m 28.5,-13.25 q -0.1,0.45 -0.1,0.95 0,0.8 0,1.65 -0.1,1.55 0,3 0.1,-1.45 0.35,-2.85 0.1,-0.9 0.3,-1.65 1.25,-8.15 5.4,-15.35 l 0.55,-1.25 q -0.55,0.65 -1,1.2 -5.15,6.05 -5.5,14.3 z"
         id="path62915"
         inkscape:connector-curvature="0"
         style="fill:#fefefe;stroke:none" />
      <path
         d="m 176.85,205.9 q -0.1,1.65 0.1,2.45 0.15,0.45 0.25,1.95 1.6,-2.05 2.7,-4.5 l -3.05,0.1 m -51.45,4.3 1.65,-2.4 q -4.4,-2.1 -9.25,-2.2 -4.7,-0.1 -9.45,-0.2 l -19,18.4 q -4.5,-0.45 -8.75,-1.85 l -9.45,8.8 q -1.65,3.95 2.65,4.35 9.1,0.65 18.1,-1.65 0.45,-0.4 0.85,-0.65 16.8,-10.55 32.65,-22.6 m -38,-31.6 -2.75,1.85 1.45,2.65 5.35,-1.45 -0.95,-1.85 -0.7,-0.35 -2.4,-0.85 m -8.15,17.25 q -9.85,-4.5 -14.8,-0.9 -1.55,1.1 -2.75,2 -0.45,0.65 -0.3,1.3 2.2,5.7 9.4,3.7 2.45,-1.4 4.85,-3.05 1.95,-1.3 3.75,-2.85 l -0.15,-0.2 m 100.7,-1.25 0.2,0.1 q -0.45,0.25 -0.9,0.55 l 1.55,0.6 q -0.2,-1 -0.35,-2 -0.3,0.35 -0.5,0.75 m -16.15,2.85 q 0.55,-3.9 3.75,-6 3.9,-2.65 6.35,-1.55 -0.2,-1.85 -0.2,-3.65 -3.35,-0.75 -6.85,0.7 -9.2,3.8 -9.65,14.35 -0.55,10.65 7.45,16.45 0.8,-0.1 1.55,-0.3 l 0,-0.75 q 0.1,-1.75 0.35,-3.4 l 0,-0.05 q -1.35,-0.95 -2.3,-3.6 -2.75,1.45 -4.2,-1.2 -2.75,-5.15 3.2,-5.15 0.2,-2.95 0.55,-5.85 m -1.45,-35.1 q 0,-0.45 0,-0.9 -1,-9.1 -10.85,-9.3 -0.75,0.4 -1.4,0.85 -4.55,2.65 -8.35,6.4 0.55,0 1.1,0 1.6,0.1 3.05,0.65 0.2,0.1 0.35,0.3 0.4,0.35 0.4,0.9 -5.55,7.15 -12.05,13.6 10.65,-0.55 18.9,5.7 0.65,-0.75 1.2,-1.5 5.8,-7.35 7.65,-16.7 z"
         id="path62917"
         inkscape:connector-curvature="0"
         style="fill:#09afff;stroke:none" />
      <path
         d="m 175.3,206.05 q 0,-0.1 0,-0.15 l -1.65,-0.3 -0.2,-0.1 q -1.95,4.05 -3.05,7.45 -0.6,1.75 -1,3.4 -0.35,1.4 -0.55,2.65 -0.1,0.65 -0.2,1.4 -0.45,5.8 0.2,6.5 -0.45,0 -0.65,-0.25 -0.25,-0.3 -0.25,-0.55 -0.2,-1.05 -0.3,-2.05 -0.15,-0.8 -0.25,-1.75 -0.45,1.95 -0.4,3.5 0.2,1.55 0.5,2.6 0.25,0.9 0.45,1.9 0.15,1.1 0.8,0.45 3.15,-5.05 4.9,-10 1.1,-2.95 1.55,-5.85 0.2,-1.4 0.25,-2.7 0.2,-2.55 0,-5.15 -0.05,-0.45 -0.15,-1 m 8,-36.15 q -0.1,-0.4 -0.2,-0.75 -0.2,0.35 -0.4,0.75 -2.25,3.85 -3.65,8.05 0,0.2 -0.1,0.3 -0.65,2.65 -0.9,3.65 -0.4,0.95 -0.85,3.05 -0.1,0.25 -0.1,0.65 -0.25,0.7 -0.35,1.65 -0.45,1.8 -0.65,3.85 0,0.35 -0.1,0.9 -0.05,0.45 -0.15,1.1 -0.1,0.3 -0.1,0.65 -0.1,0.3 0,0.65 0.9,0.55 1.9,1 0.3,-0.35 0.55,-0.65 0.85,-1.35 1.7,-2.65 0.55,-1 1.1,-2 4.75,-9.65 2.3,-20.2 z"
         id="path62919"
         inkscape:connector-curvature="0"
         style="fill:#cccccc;stroke:none" />
      <path
         d="m 172.7,200.55 q 3.15,2.2 5.7,2.5 2.85,0.25 4.05,-0.2 1.75,-1.95 -0.85,-3.85 -2.75,-2.2 -6.7,-3.3 -2.3,2.55 -2.2,4.85 z"
         id="path62921"
         inkscape:connector-curvature="0"
         style="fill:#999999;stroke:none" />
      <path
         d="m 172.7,200.55 q -0.1,0.2 0,1.4 0.1,1.25 1.1,2.3 5.8,1 8.2,-1.05 0.25,-0.15 0.45,-0.35 -1.2,0.45 -4.05,0.2 -2.55,-0.3 -5.7,-2.5 m -8.8,5.9 q 0.25,-2.05 -1.45,-2.85 l -1.2,0.25 q 2.35,0.65 2.65,2.65 l 0,-0.05 z"
         id="path62923"
         inkscape:connector-curvature="0"
         style="fill:#666666;stroke:none" />
      <path
         d="m 83.65,219.3 q -0.85,0.8 -1.5,1.65 5.25,3.1 10.65,-1.85 5.45,-4.85 12.5,-12.5 -2.3,-0.9 -7.05,1.4 -7.75,5.05 -14.6,11.3 m 43.4,-6.15 q 0,-0.2 -0.05,-0.4 -0.1,-0.8 -0.75,-1.2 -14.7,10.5 -30.2,19.75 17.45,-5.95 31,-18.15 m 14.55,-52.2 -1.75,0.1 q -6.7,7.25 -14.45,13.4 l 0,0.5 7.2,0 q 2.55,-2.4 5.75,-5.9 3.15,-3.6 6.65,-7.8 l -3.4,-0.3 m 19.9,9.4 -0.25,-0.1 q -2.6,5.95 -6.55,11.2 l 0.1,0.3 q 0.65,0.15 0.95,-0.1 4.75,-4.25 5.75,-11.3 m -80,26.8 -0.45,-0.45 q -5.6,5.5 -12.95,8.35 8.1,-1.35 13.4,-7.9 m 78.45,8.35 q -1.1,2.05 1,2.75 3.7,1.1 1.3,-3.1 -1.4,-1.3 -2.3,0.35 z"
         id="path62925"
         inkscape:connector-curvature="0"
         style="fill:#a8e2ff;stroke:none" />
      <path
         d="m 91.25,234 0.65,-0.55 q -9,2.3 -18.1,1.65 -4.3,-0.4 -2.65,-4.35 -1.55,1.6 -2.85,3.25 -2.2,2.9 1.95,4.85 5.65,2.65 12,0.8 21.4,-6.2 38.75,-20.1 -13.65,10 -29.75,14.45 m 34.15,-23.8 q 0.1,0 0.3,0 3.65,1.35 2.1,4.4 l 0,0.1 q 2.1,-1.2 4.3,-3.7 -2.25,-1.9 -5.05,-3.2 l -1.65,2.4 m -61.85,-5.8 q 0.35,0.2 0.7,0.4 3.4,-1.3 6.55,-2.85 -7.2,2 -9.4,-3.7 -0.15,-0.65 0.3,-1.3 -2.75,2.15 -3.95,3.25 3,3.2 5.8,4.2 m 104,-12.95 q -3.2,2.1 -3.75,6 -0.35,2.9 -0.55,5.85 2.75,2.6 1.2,6.05 -0.1,0.2 -0.2,0.3 0.95,2.65 2.3,3.6 0.1,-0.85 0.3,-1.6 l 1.1,-4.05 q 0.55,-1.65 1.35,-2.9 1.05,-1.1 2.2,-1.95 -2.35,-4.6 2.3,-9.25 0.29727,0 0.65,0 -0.10156,-0.003 -0.15,-0.1 -0.3,-1.75 -0.4,-3.5 -2.45,-1.1 -6.35,1.55 M 166.2,160.5 q 0.2,-2.55 -1.3,-4.5 -3.95,-5.4 -11.4,-4.95 l -2,1.1 q 9.85,0.2 10.85,9.3 0,0.45 0,0.9 l 0.35,-1.95 1.4,0.4 q 0.55,2.95 -0.5,5.85 -0.15,0.55 0,1.2 2.25,-3.4 2.6,-7.35 z"
         id="path62927"
         inkscape:connector-curvature="0"
         style="fill:#0093d9;stroke:none" />
      <path
         d="m 82.45,181.65 q -0.3,-0.2 -0.45,-0.4 0.15,5 3.2,4.6 -0.9,-2.4 -2.75,-4.2 m -7,-10.3 0.85,-0.35 q 2.2,2.9 3.95,6.15 -0.4,-1.65 -0.85,-3.3 -2.45,-9.85 -11.3,-7.1 -1.1,2.5 -1.55,5.25 l -0.2,0.2 q -2.1,10.25 0,20.55 4.35,-1.55 8.95,-0.9 3.55,0.55 6.3,2.85 3.5,3 -1.1,6.15 1.3,0.35 2.5,0.8 7.6,2.5 15.5,3.15 7.65,-1.3 15.35,-1.65 12.05,-0.4 20.1,7.7 0.75,0 1.5,0 10.65,0.25 21.2,-1 -0.55,-1.75 -0.85,-3.6 -2.35,-13.85 8.65,-21.1 -5.7,-0.65 -11.5,-0.6 0,-0.05 -0.05,-0.15 -0.4,-2.5 -2.5,-3.7 l -1.2,0.2 q 2.05,0.9 3.15,2.95 0.35,0.7 0.45,1.45 -4.8,4.6 -8.45,10.1 -1.1,1.75 -2.75,2.65 -4.35,2.5 -6.8,-3.2 -12.6,-2.65 -25.25,-1 -1.65,0.3 -3.05,1 -4.05,2.05 -6.35,-0.65 l 5.55,-0.9 q -4.05,-1.2 -8.3,-1.4 -2.65,-0.05 -5.2,0.3 -5.9,0.45 -6.75,-4.5 -0.25,-0.1 -0.45,-0.3 -7.7,-5.95 -9.55,-16.05 m 44.1,24.35 q 0.8,0.7 0.9,1.9 0.1,1.3 -0.55,2.3 l -1.1,1.5 q -5.7,2.45 -9.35,-2.15 -0.55,-0.6 -0.95,-1.35 4.8,-4.35 11.05,-2.2 m 2.85,0 3.95,-0.85 q 5.15,-0.65 8.9,2.6 0.2,0.15 0.45,0.45 -2.75,5.95 -10.3,4.5 -6.05,-1.2 -3,-6.7 m 32.05,2.55 -0.1,0.2 q -2.4,-0.3 -4.7,0.35 l 0.1,0.45 q 2.3,-0.25 4.05,1.05 0.2,0.05 0.25,0.15 -3,1.1 -5.6,-0.9 l 0.75,-2.05 q 2.85,-0.8 5.25,0.75 m -9.4,0.1 0.2,-0.3 q 1.5,-3 2.65,0 0.1,0.3 -0.15,0.65 -0.4,0.4 -0.65,0.65 -1.3,0 -2.05,-1 z"
         id="path62929"
         inkscape:connector-curvature="0"
         style="fill:#006699;stroke:none" />
      <path
         d="m 92.75,207.9 q 0.45,-0.35 0.9,-0.65 2.3,-1.65 4.85,-2.45 -7.9,-0.65 -15.5,-3.15 -1.2,-0.45 -2.5,-0.8 -0.65,0.6 -1.25,1.15 -1.2,1.15 -2.7,2.05 l 16.2,3.85 m 66.3,7.55 q -1.6,-2.6 -2.4,-5.6 -10.55,1.25 -21.2,1 -0.75,0 -1.5,0 0.65,0.65 0.4,2 l 0,0.1 -2.3,2.4 q 10.65,1.25 27,0.1 z"
         id="path62931"
         inkscape:connector-curvature="0"
         style="fill:#004971;stroke:none" />
      <path
         d="m 144.25,186.5 2.65,2.1 -0.25,-4.1 -2.4,2 m 6.4,-2.1 -1.55,-1.85 -0.25,3.85 1.8,-2 m -7.85,8.9 q 1.15,-1.65 2.25,-3.4 l -2.2,-1.65 q -1.25,1.1 -2.35,2.2 l 2.3,2.85 m -3.7,-1.3 q -3.75,3.8 1.1,5.35 l 0.45,-0.85 -1,-5.15 q -0.25,0.3 -0.55,0.65 m -16.15,7.25 q 2.95,2.4 6.35,1.6 l -5.35,-3.95 -1,2.35 m 5.4,-3.1 q -0.45,-0.1 -1,-0.1 l 3.65,4.25 q 1.5,-0.65 3.05,-1.95 -1.75,-2.75 -5.7,-2.2 m -9.9,0.65 q -2.3,-0.55 -4.3,-0.3 l 2.65,4.25 1.65,-3.95 m -6.45,0.35 q -0.35,0.2 -0.55,0.45 -1.9,2.7 2.2,3.15 l -1.65,-3.6 z"
         id="path62933"
         inkscape:connector-curvature="0"
         style="fill:#66ffff;stroke:none" />
      <path
         d="m 149.1,182.55 -2.45,1.95 0.25,4.1 1.95,-2.2 0.25,-3.85 m -9.45,8.8 1,5.15 2.15,-3.2 -2.3,-2.85 q -0.4,0.45 -0.85,0.9 m -12.3,4.7 q -1.4,0 -3.3,0.45 l -0.1,0.4 5.35,3.95 q 0.9,-0.2 1.7,-0.55 l -3.65,-4.25 m -13.2,0.45 q -1.15,0.2 -2.15,0.65 l 1.65,3.6 q 1.3,0.1 3.15,0 l -2.65,-4.25 z"
         id="path62935"
         inkscape:connector-curvature="0"
         style="fill:#ffffff;stroke:none" />
      <path
         d="m 86.4,186.15 q 0.2,0.25 0.55,0.35 7.05,1.3 14.25,0.55 l 0.25,0.45 -0.35,0.65 -15.65,-0.45 q 0.85,4.95 6.75,4.5 2.55,-0.35 5.2,-0.3 4.25,0.2 8.3,1.4 11.25,-1.75 22.55,0 0.65,0 1.4,0.1 l 0.25,0 q 3.15,0.1 6,-1 2.2,-3.35 4.75,-5.35 l 2.5,-3.05 q 2.55,-2.35 6.05,-3.1 l 1.2,-0.2 q -3.6,-1.35 -7.45,-1.9 -28.75,-3.4 -56.2,6.5 l -0.35,0.85 z"
         id="path62937"
         inkscape:connector-curvature="0"
         style="fill:#008ed2;stroke:none" />
    </g>
    <style
       id="style6"
       type="text/css">
    .str0 {stroke:#006633;stroke-width:282.22}
    .str1 {stroke:#AB754F;stroke-width:282.22}
    .fil2 {fill:none}
    .fil3 {fill:#606062}
    .fil5 {fill:#CE8F64}
    .fil4 {fill:#006633}
    .fil8 {fill:#009933}
    .fil9 {fill:#00B33C}
    .fil10 {fill:#00C943}
    .fil0 {fill:#00D447}
    .fil1 {fill:#00DB49}
    .fil6 {fill:#B88059}
    .fil11 {fill:#BA8058}
    .fil12 {fill:#D49264}
    .fil7 {fill:#E49C6D}
  </style>
    <filter
       inkscape:collect="always"
       id="filter4565"
       color-interpolation-filters="sRGB">
      <feGaussianBlur
         inkscape:collect="always"
         stdDeviation="1.4792636"
         id="feGaussianBlur4567" />
    </filter>
  </defs>
  <metadata
     id="metadata7">
    <rdf:RDF>
      <cc:Work
         rdf:about="">
        <dc:format>image/svg+xml</dc:format>
        <dc:type
           rdf:resource="http://purl.org/dc/dcmitype/StillImage" />
        <dc:title>Bingo das Letras</dc:title>
        <cc:license
           rdf:resource="" />
        <dc:rights>
          <cc:Agent>
            <dc:title>Copyright © 2002-2016. Portal Clickideia ® - Todos os Direitos Reservados</dc:title>
          </cc:Agent>
        </dc:rights>
        <dc:description>SVG game with snapSVG lib and other javascripts included</dc:description>
        <dc:language>pt_BR</dc:language>
        <dc:subject>
          <rdf:Bag>
            <rdf:li>Educativo</rdf:li>
            <rdf:li>ensino fundamental</rdf:li>
            <rdf:li>clickiéia</rdf:li>
            <rdf:li>letras</rdf:li>
            <rdf:li>lingua portuguesa</rdf:li>
            <rdf:li>infantil</rdf:li>
            <rdf:li>educational game</rdf:li>
            <rdf:li>game design</rdf:li>
            <rdf:li>multimidia</rdf:li>
          </rdf:Bag>
        </dc:subject>
        <dc:creator>
          <cc:Agent>
            <dc:title>http://www.clickideia.com.br/</dc:title>
          </cc:Agent>
        </dc:creator>
        <dc:publisher>
          <cc:Agent>
            <dc:title>http://www.clickideia.com.br/</dc:title>
          </cc:Agent>
        </dc:publisher>
        <dc:date>18/01/2016</dc:date>
        <dc:contributor>
          <cc:Agent>
            <dc:title>michel morandi - michel.morandi@clickideia.com.br</dc:title>
          </cc:Agent>
        </dc:contributor>
      </cc:Work>
    </rdf:RDF>
  </metadata>
  <g
     id="g4573"
     transform="translate(33.89311,4.9710712)">
    <g
       transform="matrix(1.2400149,0,0,1.2400149,114.52302,-18.497878)"
       id="g4569">
      <path
         id="path4563"
         transform="translate(-4.1666422e-6,0)"
         d="m -28.1875,16.09375 c -1.311142,-0.04137 -4.050095,0.14999 -5.03125,0.40625 -1.951956,0.509815 -11.34898,7.360134 -18.46875,13.46875 -2.149824,1.844506 -4.242822,3.705494 -4.65625,4.15625 -0.413428,0.450757 -1.381463,1.349076 -2.15625,2 -1.351894,1.135773 -1.588197,1.217433 -5.71875,1.90625 -4.514299,0.752811 -12.666214,2.484418 -16.4375,3.46875 l -2.21875,0.5625 -0.96875,-1.03125 c -1.076129,-1.140368 -3.22059,-2.22325 -4.375,-2.21875 -0.413428,0.0016 -0.991493,0.194844 -1.3125,0.4375 -0.321007,0.242657 -0.703068,0.4375 -0.84375,0.4375 -0.140681,0 -1.130577,-1.778853 -2.1875,-3.96875 -2.234171,-4.629102 -3.467597,-6.180502 -5.71875,-7.28125 -2.1219,-1.037549 -4.91905,-1.332852 -6,-0.625 -1.34458,0.880495 -3.58056,6.955413 -4.53125,12.34375 -0.48921,2.77277 -0.70078,10.119767 -0.34375,12.3125 0.19216,1.180188 0.17834,1.227229 -1.375,2.34375 -1.94723,1.399637 -3.25258,2.614238 -3.75,3.46875 -0.90096,1.54776 0.88065,4.206718 3.96875,5.875 1.12359,0.606992 1.64823,0.64236 7.6875,0.65625 7.150928,0.01644 9.352826,0.391815 13.5,2.28125 L -87.15625,68 l -1.1875,0.9375 c -5.64323,4.506689 -14.79587,13.243726 -17.59375,16.78125 -1.45079,1.834326 -1.51355,2.686174 -0.34375,4.5 1.33066,2.063254 2.48858,2.978842 4.28125,3.40625 3.480376,0.829787 9.579468,0.171336 15.21875,-1.65625 11.280232,-3.65571 21.659002,-8.794862 31.125,-15.40625 l 3.375,-2.375 6.46875,0.34375 c 3.555479,0.188138 9.73508,0.464109 13.71875,0.625 3.983674,0.160888 7.854253,0.394416 8.625,0.5 l 1.40625,0.1875 0,3.28125 c 0,2.503799 0.154498,3.697895 0.625,5.09375 0.76816,2.278928 1.394856,3.25 2.09375,3.25 0.824658,0 3.449721,-3.100836 4.8125,-5.71875 1.212116,-2.32849 2.9954,-8.298171 3,-10.03125 0.0024,-0.922782 0.441345,-1.928316 1.8125,-3.96875 0.4277549,-0.636547 1.0220391,-1.764716 1.3125,-2.53125 0.2904609,-0.766532 1.0726539,-1.931972 1.71875,-2.5625 1.0823125,-1.056235 1.15625,-1.269811 1.15625,-2.78125 0,-1.179094 -0.1758868,-1.99209 -0.6875,-2.875 -0.4695728,-0.810359 -0.8018115,-1.956064 -0.9375,-3.375 -0.1837965,-1.922042 -0.1249019,-2.359489 0.59375,-4.0625 0.4423287,-1.048202 0.9397323,-2.769462 1.09375,-3.84375 0.4147207,-2.892684 0.6037589,-11.4375 0.25,-11.4375 -0.1617841,0 -0.317291,0.87328 -0.34375,1.90625 C -5.590192,37.268372 -5.654309,37.605288 -5.71875,37 -5.780331,36.421537 -5.9845617,35.242476 -6.15625,34.375 -6.4203086,33.040804 -6.5826191,32.761154 -7.25,32.59375 -7.9066588,32.429034 -8.2057584,32.581732 -9,33.5 c -1.922031,2.222174 -3.97576,7.11282 -4.0625,9.65625 l -0.03125,0.90625 -0.25,-1 c -0.27475,-1.160277 0.389112,-3.542999 1.625,-5.96875 0.743445,-1.459207 3.2176145,-4.790424 3.90625,-5.25 0.4950972,-0.330414 1.4263546,0.341566 1.78125,1.28125 0.4680184,1.239202 0.8606268,1.084194 0.625,-0.25 -0.2162814,-1.224669 -1.1159945,-2.17692 -2.09375,-2.1875 -0.9718953,-0.01052 -3.677328,3.181281 -5.0625,5.9375 -0.416459,0.828671 -1.219902,2.957809 -1.78125,4.75 -0.561345,1.792191 -1.187656,3.31259 -1.375,3.375 -0.453881,0.151206 -8.827209,-1.168891 -9.125,-1.4375 -0.128166,-0.115605 0.506685,-1.736734 1.40625,-3.625 1.82987,-3.841061 3.562619,-8.38404 4.28125,-11.1875 0.629965,-2.457568 0.401884,-5.036353 -0.59375,-7 -0.802356,-1.582455 -2.850824,-3.669936 -4.3125,-4.40625 -0.978558,-0.492942 -3.09025,-0.905663 -3.09375,-0.59375 -0.0062,0.543021 -1.392967,0.819143 -2.40625,0.46875 -0.981664,-0.339457 -1.004754,-0.35918 -0.25,-0.375 0.445011,-0.0093 0.899891,0.08811 1,0.25 0.185745,0.300366 1.34375,-0.237648 1.34375,-0.625 0,-0.06967 -0.281703,-0.111209 -0.71875,-0.125 z m 22.84375,32.9375 c -0.072926,0 -0.2102946,0.115975 -0.3125,0.28125 -0.1022054,0.165275 -0.050131,0.3125 0.125,0.3125 0.175131,0 0.3125,-0.147225 0.3125,-0.3125 0,-0.165275 -0.052074,-0.28125 -0.125,-0.28125 z"
         style="fill:#808080;stroke:#808080;stroke-width:3.22576761;stroke-linejoin:round;stroke-miterlimit:4;stroke-dasharray:none;filter:url(#filter4565)"
         inkscape:connector-curvature="0" />
      <path
         inkscape:connector-curvature="0"
         style="fill:#ffffff;stroke:#ffffff;stroke-width:3.22576761;stroke-linejoin:round;stroke-miterlimit:4;stroke-dasharray:none"
         d="m -28.1875,16.09375 c -1.311142,-0.04137 -4.050095,0.14999 -5.03125,0.40625 -1.951956,0.509815 -11.34898,7.360134 -18.46875,13.46875 -2.149824,1.844506 -4.242822,3.705494 -4.65625,4.15625 -0.413428,0.450757 -1.381463,1.349076 -2.15625,2 -1.351894,1.135773 -1.588197,1.217433 -5.71875,1.90625 -4.514299,0.752811 -12.666214,2.484418 -16.4375,3.46875 l -2.21875,0.5625 -0.96875,-1.03125 c -1.076129,-1.140368 -3.22059,-2.22325 -4.375,-2.21875 -0.413428,0.0016 -0.991493,0.194844 -1.3125,0.4375 -0.321007,0.242657 -0.703068,0.4375 -0.84375,0.4375 -0.140681,0 -1.130577,-1.778853 -2.1875,-3.96875 -2.234171,-4.629102 -3.467597,-6.180502 -5.71875,-7.28125 -2.1219,-1.037549 -4.91905,-1.332852 -6,-0.625 -1.34458,0.880495 -3.58056,6.955413 -4.53125,12.34375 -0.48921,2.77277 -0.70078,10.119767 -0.34375,12.3125 0.19216,1.180188 0.17834,1.227229 -1.375,2.34375 -1.94723,1.399637 -3.25258,2.614238 -3.75,3.46875 -0.90096,1.54776 0.88065,4.206718 3.96875,5.875 1.12359,0.606992 1.64823,0.64236 7.6875,0.65625 7.150928,0.01644 9.352826,0.391815 13.5,2.28125 L -87.15625,68 l -1.1875,0.9375 c -5.64323,4.506689 -14.79587,13.243726 -17.59375,16.78125 -1.45079,1.834326 -1.51355,2.686174 -0.34375,4.5 1.33066,2.063254 2.48858,2.978842 4.28125,3.40625 3.480376,0.829787 9.579468,0.171336 15.21875,-1.65625 11.280232,-3.65571 21.659002,-8.794862 31.125,-15.40625 l 3.375,-2.375 6.46875,0.34375 c 3.555479,0.188138 9.73508,0.464109 13.71875,0.625 3.983674,0.160888 7.854253,0.394416 8.625,0.5 l 1.40625,0.1875 0,3.28125 c 0,2.503799 0.154498,3.697895 0.625,5.09375 0.76816,2.278928 1.394856,3.25 2.09375,3.25 0.824658,0 3.449721,-3.100836 4.8125,-5.71875 1.212116,-2.32849 2.9954,-8.298171 3,-10.03125 0.0024,-0.922782 0.441345,-1.928316 1.8125,-3.96875 0.4277549,-0.636547 1.0220391,-1.764716 1.3125,-2.53125 0.2904609,-0.766532 1.0726539,-1.931972 1.71875,-2.5625 1.0823125,-1.056235 1.15625,-1.269811 1.15625,-2.78125 0,-1.179094 -0.1758868,-1.99209 -0.6875,-2.875 -0.4695728,-0.810359 -0.8018115,-1.956064 -0.9375,-3.375 -0.1837965,-1.922042 -0.1249019,-2.359489 0.59375,-4.0625 0.4423287,-1.048202 0.9397323,-2.769462 1.09375,-3.84375 0.4147207,-2.892684 0.6037589,-11.4375 0.25,-11.4375 -0.1617841,0 -0.317291,0.87328 -0.34375,1.90625 C -5.590192,37.268372 -5.654309,37.605288 -5.71875,37 -5.780331,36.421537 -5.9845617,35.242476 -6.15625,34.375 -6.4203086,33.040804 -6.5826191,32.761154 -7.25,32.59375 -7.9066588,32.429034 -8.2057584,32.581732 -9,33.5 c -1.922031,2.222174 -3.97576,7.11282 -4.0625,9.65625 l -0.03125,0.90625 -0.25,-1 c -0.27475,-1.160277 0.389112,-3.542999 1.625,-5.96875 0.743445,-1.459207 3.2176145,-4.790424 3.90625,-5.25 0.4950972,-0.330414 1.4263546,0.341566 1.78125,1.28125 0.4680184,1.239202 0.8606268,1.084194 0.625,-0.25 -0.2162814,-1.224669 -1.1159945,-2.17692 -2.09375,-2.1875 -0.9718953,-0.01052 -3.677328,3.181281 -5.0625,5.9375 -0.416459,0.828671 -1.219902,2.957809 -1.78125,4.75 -0.561345,1.792191 -1.187656,3.31259 -1.375,3.375 -0.453881,0.151206 -8.827209,-1.168891 -9.125,-1.4375 -0.128166,-0.115605 0.506685,-1.736734 1.40625,-3.625 1.82987,-3.841061 3.562619,-8.38404 4.28125,-11.1875 0.629965,-2.457568 0.401884,-5.036353 -0.59375,-7 -0.802356,-1.582455 -2.850824,-3.669936 -4.3125,-4.40625 -0.978558,-0.492942 -3.09025,-0.905663 -3.09375,-0.59375 -0.0062,0.543021 -1.392967,0.819143 -2.40625,0.46875 -0.981664,-0.339457 -1.004754,-0.35918 -0.25,-0.375 0.445011,-0.0093 0.899891,0.08811 1,0.25 0.185745,0.300366 1.34375,-0.237648 1.34375,-0.625 0,-0.06967 -0.281703,-0.111209 -0.71875,-0.125 z m 22.84375,32.9375 c -0.072926,0 -0.2102946,0.115975 -0.3125,0.28125 -0.1022054,0.165275 -0.050131,0.3125 0.125,0.3125 0.175131,0 0.3125,-0.147225 0.3125,-0.3125 0,-0.165275 -0.052074,-0.28125 -0.125,-0.28125 z"
         transform="translate(-4.1666422e-6,0)"
         id="path3792" />
    </g>
    <g
       transform="matrix(1.050673,0,0,1.050673,-86.373817,-155.86628)"
       id="g63020">
      <use
         id="use63022"
         xlink:href="#Layer0_0_FILL-2"
         x="0"
         y="0"
         width="1280"
         height="800" />
    </g>
  </g>
</svg>
