<?xml version="1.0" encoding="UTF-8" standalone="no"?>
<svg
   xmlns:osb="http://www.openswatchbook.org/uri/2009/osb"
   xmlns:dc="http://purl.org/dc/elements/1.1/"
   xmlns:cc="http://creativecommons.org/ns#"
   xmlns:rdf="http://www.w3.org/1999/02/22-rdf-syntax-ns#"
   xmlns:svg="http://www.w3.org/2000/svg"
   xmlns="http://www.w3.org/2000/svg"
   xmlns:xlink="http://www.w3.org/1999/xlink"
   xmlns:sodipodi="http://sodipodi.sourceforge.net/DTD/sodipodi-0.dtd"
   xmlns:inkscape="http://www.inkscape.org/namespaces/inkscape"
   version="1.1"
   id="svg2"
   viewBox="0 0 112.30473 154.32228"
   height="154.3223"
   width="112.30471"
   inkscape:version="0.48.4 r9939"
   sodipodi:docname="foguete.svg">
  <sodipodi:namedview
     pagecolor="#ffffff"
     bordercolor="#666666"
     borderopacity="1"
     objecttolerance="10"
     gridtolerance="10"
     guidetolerance="10"
     inkscape:pageopacity="0"
     inkscape:pageshadow="2"
     inkscape:window-width="1600"
     inkscape:window-height="876"
     id="namedview1313"
     showgrid="false"
     fit-margin-top="0"
     fit-margin-left="0"
     fit-margin-right="0"
     fit-margin-bottom="0"
     inkscape:zoom="2.7931983"
     inkscape:cx="-110.82261"
     inkscape:cy="45.81851"
     inkscape:window-x="0"
     inkscape:window-y="1"
     inkscape:window-maximized="1"
     inkscape:current-layer="svg2" />
  <script
     xlink:href="C:\wamp\www\bingo\js/snap.svg-min.js"
     id="script4164" />
  <title
     id="title4162">Bingo das Letras</title>
  <defs
     id="defs4">
    <linearGradient
       osb:paint="solid"
       id="linearGradient12614">
      <stop
         id="stop12616"
         offset="0"
         style="stop-color:#000000;stop-opacity:1;" />
    </linearGradient>
    <linearGradient
       gradientTransform="matrix(-0.19399818,0,0,-0.19399818,259.22818,12173.784)"
       osb:paint="solid"
       id="linearGradient59274">
      <stop
         id="stop59276"
         offset="0"
         style="stop-color:#930033;stop-opacity:1;" />
    </linearGradient>
    <linearGradient
       id="linearGradient4269"
       osb:paint="solid"
       gradientTransform="matrix(110.20782,22.122239,-29.697412,82.096171,6266573.9,4264559.4)">
      <stop
         style="stop-color:#ffffff;stop-opacity:1;"
         offset="0"
         id="stop4271" />
    </linearGradient>
    <linearGradient
       id="linearGradient4251"
       osb:paint="solid"
       gradientTransform="translate(106155.96,125143.42)">
      <stop
         style="stop-color:#555555;stop-opacity:1;"
         offset="0"
         id="stop4253" />
    </linearGradient>
    <linearGradient
       id="linearGradient4241"
       osb:paint="solid"
       gradientTransform="matrix(0.19125385,0,0,0.19125385,-1749.4195,-50278.466)">
      <stop
         style="stop-color:#3fb5ae;stop-opacity:1;"
         offset="0"
         id="stop4243" />
    </linearGradient>
    <linearGradient
       id="linearGradient4231"
       osb:paint="solid"
       gradientTransform="translate(2399.1562,2075.6965)">
      <stop
         style="stop-color:#d1f2a5;stop-opacity:1;"
         offset="0"
         id="stop4233" />
    </linearGradient>
    <linearGradient
       id="linearGradient4221"
       osb:paint="solid"
       gradientTransform="matrix(0.66768435,0,0,0.66768435,-186.89148,394.64653)">
      <stop
         style="stop-color:#effab4;stop-opacity:1;"
         offset="0"
         id="stop4223" />
    </linearGradient>
    <linearGradient
       id="linearGradient4211"
       osb:paint="solid"
       gradientTransform="translate(-699.20463,883.12976)">
      <stop
         style="stop-color:#ffc48c;stop-opacity:1;"
         offset="0"
         id="stop4213" />
    </linearGradient>
    <linearGradient
       id="linearGradient4201"
       osb:paint="solid"
       gradientTransform="matrix(0.35946858,0,0,0.22423084,-331.07911,5516.4706)">
      <stop
         style="stop-color:#ff9f80;stop-opacity:1;"
         offset="0"
         id="stop4203" />
    </linearGradient>
    <linearGradient
       id="linearGradient4191"
       osb:paint="solid"
       gradientTransform="matrix(0.52321996,0,0,0.52321996,2015.4535,3072.5352)">
      <stop
         style="stop-color:#f56991;stop-opacity:1;"
         offset="0"
         id="stop4193" />
    </linearGradient>
    <style
       id="style6"
       type="text/css">
    .str0 {stroke:#006633;stroke-width:282.22}
    .str1 {stroke:#AB754F;stroke-width:282.22}
    .fil2 {fill:none}
    .fil3 {fill:#606062}
    .fil5 {fill:#CE8F64}
    .fil4 {fill:#006633}
    .fil8 {fill:#009933}
    .fil9 {fill:#00B33C}
    .fil10 {fill:#00C943}
    .fil0 {fill:#00D447}
    .fil1 {fill:#00DB49}
    .fil6 {fill:#B88059}
    .fil11 {fill:#BA8058}
    .fil12 {fill:#D49264}
    .fil7 {fill:#E49C6D}
  </style>
    <style
       id="style13042"
       type="text/css">
   
    .fil4 {fill:url(#id0)}
    .fil9 {fill:url(#id1)}
    .fil6 {fill:url(#id2)}
    .fil1 {fill:url(#id3)}
    .fil5 {fill:url(#id4)}
    .fil0 {fill:url(#id5)}
    .fil8 {fill:url(#id6)}
    .fil3 {fill:url(#id7)}
    .fil7 {fill:url(#id8)}
    .fil2 {fill:url(#id9)}
   
  </style>
    <filter
       inkscape:collect="always"
       id="filter16221"
       color-interpolation-filters="sRGB">
      <feGaussianBlur
         inkscape:collect="always"
         stdDeviation="1.5246719"
         id="feGaussianBlur16223" />
    </filter>
  </defs>
  <metadata
     id="metadata7">
    <rdf:RDF>
      <cc:Work
         rdf:about="">
        <dc:format>image/svg+xml</dc:format>
        <dc:type
           rdf:resource="http://purl.org/dc/dcmitype/StillImage" />
        <dc:title>Bingo das Letras</dc:title>
        <cc:license
           rdf:resource="" />
        <dc:rights>
          <cc:Agent>
            <dc:title>Copyright © 2002-2016. Portal Clickideia ® - Todos os Direitos Reservados</dc:title>
          </cc:Agent>
        </dc:rights>
        <dc:description>SVG game with snapSVG lib and other javascripts included</dc:description>
        <dc:language>pt_BR</dc:language>
        <dc:subject>
          <rdf:Bag>
            <rdf:li>Educativo</rdf:li>
            <rdf:li>ensino fundamental</rdf:li>
            <rdf:li>clickiéia</rdf:li>
            <rdf:li>letras</rdf:li>
            <rdf:li>lingua portuguesa</rdf:li>
            <rdf:li>infantil</rdf:li>
            <rdf:li>educational game</rdf:li>
            <rdf:li>game design</rdf:li>
            <rdf:li>multimidia</rdf:li>
          </rdf:Bag>
        </dc:subject>
        <dc:creator>
          <cc:Agent>
            <dc:title>http://www.clickideia.com.br/</dc:title>
          </cc:Agent>
        </dc:creator>
        <dc:publisher>
          <cc:Agent>
            <dc:title>http://www.clickideia.com.br/</dc:title>
          </cc:Agent>
        </dc:publisher>
        <dc:date>18/01/2016</dc:date>
        <dc:contributor>
          <cc:Agent>
            <dc:title>michel morandi - michel.morandi@clickideia.com.br</dc:title>
          </cc:Agent>
        </dc:contributor>
      </cc:Work>
    </rdf:RDF>
  </metadata>
  <g
     id="g16225"
     transform="matrix(1.3299386,0,0,1.3299386,-2.1154938,203.81701)">
    <path
       style="fill:#333333;fill-opacity:1;fill-rule:nonzero;stroke:#333333;stroke-width:3.75957274;stroke-miterlimit:4;stroke-opacity:1;stroke-dasharray:none;filter:url(#filter16221)"
       d="m 13.895662,-144.24911 c 0,0 -0.077,0.0957 -0.09375,0.125 l 0,0.0312 c -0.04057,0.0713 -0.05275,0.089 -0.15625,0.28125 -0.10287,0.18482 -0.14424,0.23429 -0.375,0.6875 -0.1104,0.2153 -0.17701,0.37855 -0.3125,0.65625 -0.11613,0.23726 -0.21196,0.43662 -0.34375,0.71875 -0.03213,0.0687 -0.06079,0.14742 -0.09375,0.21875 -0.17711,0.38191 -0.33375,0.69982 -0.53125,1.15625 -0.40642,0.93682 -0.83383,2.02298 -1.28125,3.25 -0.0612,0.16791 -0.1262,0.2958 -0.1875,0.46875 -0.09037,0.25418 -0.15982,0.51637 -0.25,0.78125 -0.09509,0.27988 -0.18699,0.5523 -0.28125,0.84375 -0.09031,0.27899 -0.19224,0.58573 -0.28125,0.875 -0.0128,0.0416 -0.01848,0.0831 -0.03125,0.125 -0.19111,0.62633 -0.38167,1.26598 -0.5625,1.9375 -0.0426,0.15795 -0.08315,0.3084 -0.125,0.46875 -0.0171,0.0656 -0.04553,0.12146 -0.0625,0.1875 -0.06071,0.23568 -0.09738,0.4781 -0.15625,0.71875 -0.02236,0.0915 -0.04043,0.18905 -0.0625,0.28125 -0.02338,0.0976 -0.07071,0.18285 -0.09375,0.28125 -0.12521,0.53544 -0.2611,1.09844 -0.375,1.65625 -0.0062,0.0304 0.0061,0.0633 0,0.0937 -0.06668,0.32917 -0.12541,0.66347 -0.1875,1 -0.0019,0.0103 0.0019,0.0209 0,0.0312 -0.1100498,0.5991 -0.2190798,1.2226 -0.3124998,1.84375 -0.03873,0.25806 -0.08946,0.51958 -0.125,0.78125 -0.05313,0.39022 -0.07948,0.78954 -0.125,1.1875 -0.01695,0.14862 -0.04667,0.28784 -0.0625,0.4375 -0.00671,0.0632 -0.02475,0.12413 -0.03125,0.1875 -0.00309,0.0302 0.00305,0.0635 0,0.0937 -0.00211,0.0209 0.00209,0.0416 0,0.0625 -0.06543,0.65592 -0.11421,1.32544 -0.15625,2 -0.00395,0.0633 -0.02752,0.124 -0.03125,0.1875 -0.0308,0.52966 -0.0477,1.05372 -0.0625,1.59375 -0.00265,0.0941 0.00215,0.18687 0,0.28125 -0.00987,0.44801 -0.03299,0.88928 -0.03125,1.34375 0.00962,-0.001 0.02161,10e-4 0.03125,0 0.02583,7.28925 1.6078298,15.39068 6.2812498,23.437502 1.65026,2.841382 3.2346,5.337351 4.78125,7.5625 0.06233,0.0897 0.12536,0.161237 0.1875,0.25 0.03899,0.05568 0.08609,0.100958 0.125,0.15625 0.77256,1.098547 1.50803,2.13499 2.25,3.09375 0.09836,0.127265 0.18342,0.250085 0.28125,0.375 0.41954,0.535394 0.84117,1.038243 1.25,1.53125 0.07667,0.09247 0.17371,0.190234 0.25,0.28125 0.20935,0.249594 0.41861,0.511198 0.625,0.75 0.1054,0.12197 0.20789,0.224547 0.3125,0.34375 0.02058,0.02348 0.04195,0.03913 0.0625,0.0625 l -2.3125,12.96875 c 0,0 -0.8594,2.070869 2.5,4.5625 3.35919,2.492027 19.4375,14.34375 19.4375,14.34375 0,0 0.7124,0.02094 0.59375,-0.90625 0,0 -10.49349,-14.449513 -3.8125,-21.34375 l 1.875,-1.03125 c -0.03322,0.386523 0.01687,0.792109 0.21875,1.15625 0.53916,0.972037 1.78256,1.322205 2.75,0.78125 l 15.875,-8.90625 c 0.96785,-0.541357 1.3204,-1.746113 0.78125,-2.71875 -0.20926,-0.37752 -0.51436,-0.669892 -0.875,-0.84375 l 2.28125,-1.28125 0.3125,-0.1875 0.03125,0 0.0625,-0.03125 0.09375,-0.03125 c 9.30817,-1.958575 15.96875,14.53125 15.96875,14.53125 0.72254,0.589892 1.125,-0.03125 1.125,-0.03125 0,0 -1.5973,-19.975642 -1.9375,-24.15625 -0.34019,-4.181011 -2.5,-4.53125 -2.5,-4.53125 l -12.46875,-4.968752 c -0.0282,-0.0928 -0.06484,-0.18766 -0.09375,-0.28125 -0.09637,-0.31198 -0.20804,-0.61674 -0.3125,-0.9375 -0.03597,-0.11055 -0.08805,-0.23215 -0.125,-0.34375 -0.04988,-0.15031 -0.10457,-0.31653 -0.15625,-0.46875 -0.02378,-0.0702 -0.03833,-0.14816 -0.0625,-0.21875 -0.10827,-0.31519 -0.22764,-0.64516 -0.34375,-0.96875 -0.019,-0.0529 -0.04329,-0.10309 -0.0625,-0.15625 -0.12158,-0.33635 -0.24469,-0.68608 -0.375,-1.03125 -0.01107,-0.0293 -0.02012,-0.0644 -0.03125,-0.0937 -0.13017,-0.34349 -0.2672,-0.67899 -0.40625,-1.03125 -0.21701,-0.55043 -0.44844,-1.11585 -0.6875,-1.6875 -1.12533,-2.6847 -2.50785,-5.60382 -4.1875,-8.78125 -4.31657,-8.16577 -10.26826,-13.76743 -16.375,-17.625 -0.43374,-0.27412 -0.84676,-0.55555 -1.28125,-0.8125 -0.05308,-0.0314 -0.10317,-0.0626 -0.15625,-0.0937 -0.48669,-0.28551 -0.98243,-0.54822 -1.46875,-0.8125 -0.05368,-0.0291 -0.10258,-0.0649 -0.15625,-0.0937 -0.7,-0.37704 -1.39885,-0.7268 -2.09375,-1.0625 -0.49977,-0.24168 -0.9736,-0.46614 -1.46875,-0.6875 -0.98735,-0.44192 -1.94717,-0.82114 -2.90625,-1.1875 -0.18337,-0.0701 -0.3492,-0.15123 -0.53125,-0.21875 -0.52381,-0.19424 -1.0511,-0.38907 -1.5625,-0.5625 -0.04187,-0.0142 -0.08322,-0.0172 -0.125,-0.0312 -0.65202,-0.21959 -1.27889,-0.40579 -1.90625,-0.59375 -0.96958,-0.29049 -1.88464,-0.55884 -2.78125,-0.78125 -0.35165,-0.0874 -0.66134,-0.14085 -1,-0.21875 -0.59271,-0.13666 -1.16998,-0.26514 -1.71875,-0.375 -0.89506,-0.17915 -1.74092,-0.31948 -2.5,-0.4375 -0.76426,-0.11818 -1.39983,-0.21235 -2,-0.28125 -0.30743,-0.0359 -0.51982,-0.068 -0.78125,-0.0937 -0.30505,-0.0304 -0.47915,-0.0435 -0.71875,-0.0625 -0.04039,-0.003 -0.02387,0.003 -0.0625,0 -0.72135,-0.0561 -1.21875,-0.0625 -1.21875,-0.0625 z m 45.8125,71.375002 c -1.20416,0.082 -2.55977,0.490819 -4.0625,1.1875 -0.03187,0.0134 -0.06169,0.01743 -0.09375,0.03125 -0.40233,0.189178 -0.79371,0.387203 -1.21875,0.625 -0.36885,0.206347 -0.72246,0.416723 -1.03125,0.625 -0.04778,0.03258 -0.10971,0.06101 -0.15625,0.09375 -0.07364,0.05081 -0.14778,0.105044 -0.21875,0.15625 -15.51507,10.513288 16.5,26.375 16.5,26.375 0,0 2.88805,-29.952261 -9.71875,-29.09375 z"
       id="path16215"
       inkscape:connector-curvature="0" />
    <path
       inkscape:connector-curvature="0"
       id="path16134"
       d="m 13.895662,-144.24911 c 0,0 -0.077,0.0957 -0.09375,0.125 l 0,0.0312 c -0.04057,0.0713 -0.05275,0.089 -0.15625,0.28125 -0.10287,0.18482 -0.14424,0.23429 -0.375,0.6875 -0.1104,0.2153 -0.17701,0.37855 -0.3125,0.65625 -0.11613,0.23726 -0.21196,0.43662 -0.34375,0.71875 -0.03213,0.0687 -0.06079,0.14742 -0.09375,0.21875 -0.17711,0.38191 -0.33375,0.69982 -0.53125,1.15625 -0.40642,0.93682 -0.83383,2.02298 -1.28125,3.25 -0.0612,0.16791 -0.1262,0.2958 -0.1875,0.46875 -0.09037,0.25418 -0.15982,0.51637 -0.25,0.78125 -0.09509,0.27988 -0.18699,0.5523 -0.28125,0.84375 -0.09031,0.27899 -0.19224,0.58573 -0.28125,0.875 -0.0128,0.0416 -0.01848,0.0831 -0.03125,0.125 -0.19111,0.62633 -0.38167,1.26598 -0.5625,1.9375 -0.0426,0.15795 -0.08315,0.3084 -0.125,0.46875 -0.0171,0.0656 -0.04553,0.12146 -0.0625,0.1875 -0.06071,0.23568 -0.09738,0.4781 -0.15625,0.71875 -0.02236,0.0915 -0.04043,0.18905 -0.0625,0.28125 -0.02338,0.0976 -0.07071,0.18285 -0.09375,0.28125 -0.12521,0.53544 -0.2611,1.09844 -0.375,1.65625 -0.0062,0.0304 0.0061,0.0633 0,0.0937 -0.06668,0.32917 -0.12541,0.66347 -0.1875,1 -0.0019,0.0103 0.0019,0.0209 0,0.0312 -0.1100498,0.5991 -0.2190798,1.2226 -0.3124998,1.84375 -0.03873,0.25806 -0.08946,0.51958 -0.125,0.78125 -0.05313,0.39022 -0.07948,0.78954 -0.125,1.1875 -0.01695,0.14862 -0.04667,0.28784 -0.0625,0.4375 -0.00671,0.0632 -0.02475,0.12413 -0.03125,0.1875 -0.00309,0.0302 0.00305,0.0635 0,0.0937 -0.00211,0.0209 0.00209,0.0416 0,0.0625 -0.06543,0.65592 -0.11421,1.32544 -0.15625,2 -0.00395,0.0633 -0.02752,0.124 -0.03125,0.1875 -0.0308,0.52966 -0.0477,1.05372 -0.0625,1.59375 -0.00265,0.0941 0.00215,0.18687 0,0.28125 -0.00987,0.44801 -0.03299,0.88928 -0.03125,1.34375 0.00962,-0.001 0.02161,10e-4 0.03125,0 0.02583,7.28925 1.6078298,15.39068 6.2812498,23.437502 1.65026,2.841382 3.2346,5.337351 4.78125,7.5625 0.06233,0.0897 0.12536,0.161237 0.1875,0.25 0.03899,0.05568 0.08609,0.100958 0.125,0.15625 0.77256,1.098547 1.50803,2.13499 2.25,3.09375 0.09836,0.127265 0.18342,0.250085 0.28125,0.375 0.41954,0.535394 0.84117,1.038243 1.25,1.53125 0.07667,0.09247 0.17371,0.190234 0.25,0.28125 0.20935,0.249594 0.41861,0.511198 0.625,0.75 0.1054,0.12197 0.20789,0.224547 0.3125,0.34375 0.02058,0.02348 0.04195,0.03913 0.0625,0.0625 l -2.3125,12.96875 c 0,0 -0.8594,2.070869 2.5,4.5625 3.35919,2.492027 19.4375,14.34375 19.4375,14.34375 0,0 0.7124,0.02094 0.59375,-0.90625 0,0 -10.49349,-14.449513 -3.8125,-21.34375 l 1.875,-1.03125 c -0.03322,0.386523 0.01687,0.792109 0.21875,1.15625 0.53916,0.972037 1.78256,1.322205 2.75,0.78125 l 15.875,-8.90625 c 0.96785,-0.541357 1.3204,-1.746113 0.78125,-2.71875 -0.20926,-0.37752 -0.51436,-0.669892 -0.875,-0.84375 l 2.28125,-1.28125 0.3125,-0.1875 0.03125,0 0.0625,-0.03125 0.09375,-0.03125 c 9.30817,-1.958575 15.96875,14.53125 15.96875,14.53125 0.72254,0.589892 1.125,-0.03125 1.125,-0.03125 0,0 -1.5973,-19.975642 -1.9375,-24.15625 -0.34019,-4.181011 -2.5,-4.53125 -2.5,-4.53125 l -12.46875,-4.968752 c -0.0282,-0.0928 -0.06484,-0.18766 -0.09375,-0.28125 -0.09637,-0.31198 -0.20804,-0.61674 -0.3125,-0.9375 -0.03597,-0.11055 -0.08805,-0.23215 -0.125,-0.34375 -0.04988,-0.15031 -0.10457,-0.31653 -0.15625,-0.46875 -0.02378,-0.0702 -0.03833,-0.14816 -0.0625,-0.21875 -0.10827,-0.31519 -0.22764,-0.64516 -0.34375,-0.96875 -0.019,-0.0529 -0.04329,-0.10309 -0.0625,-0.15625 -0.12158,-0.33635 -0.24469,-0.68608 -0.375,-1.03125 -0.01107,-0.0293 -0.02012,-0.0644 -0.03125,-0.0937 -0.13017,-0.34349 -0.2672,-0.67899 -0.40625,-1.03125 -0.21701,-0.55043 -0.44844,-1.11585 -0.6875,-1.6875 -1.12533,-2.6847 -2.50785,-5.60382 -4.1875,-8.78125 -4.31657,-8.16577 -10.26826,-13.76743 -16.375,-17.625 -0.43374,-0.27412 -0.84676,-0.55555 -1.28125,-0.8125 -0.05308,-0.0314 -0.10317,-0.0626 -0.15625,-0.0937 -0.48669,-0.28551 -0.98243,-0.54822 -1.46875,-0.8125 -0.05368,-0.0291 -0.10258,-0.0649 -0.15625,-0.0937 -0.7,-0.37704 -1.39885,-0.7268 -2.09375,-1.0625 -0.49977,-0.24168 -0.9736,-0.46614 -1.46875,-0.6875 -0.98735,-0.44192 -1.94717,-0.82114 -2.90625,-1.1875 -0.18337,-0.0701 -0.3492,-0.15123 -0.53125,-0.21875 -0.52381,-0.19424 -1.0511,-0.38907 -1.5625,-0.5625 -0.04187,-0.0142 -0.08322,-0.0172 -0.125,-0.0312 -0.65202,-0.21959 -1.27889,-0.40579 -1.90625,-0.59375 -0.96958,-0.29049 -1.88464,-0.55884 -2.78125,-0.78125 -0.35165,-0.0874 -0.66134,-0.14085 -1,-0.21875 -0.59271,-0.13666 -1.16998,-0.26514 -1.71875,-0.375 -0.89506,-0.17915 -1.74092,-0.31948 -2.5,-0.4375 -0.76426,-0.11818 -1.39983,-0.21235 -2,-0.28125 -0.30743,-0.0359 -0.51982,-0.068 -0.78125,-0.0937 -0.30505,-0.0304 -0.47915,-0.0435 -0.71875,-0.0625 -0.04039,-0.003 -0.02387,0.003 -0.0625,0 -0.72135,-0.0561 -1.21875,-0.0625 -1.21875,-0.0625 z m 45.8125,71.375002 c -1.20416,0.082 -2.55977,0.490819 -4.0625,1.1875 -0.03187,0.0134 -0.06169,0.01743 -0.09375,0.03125 -0.40233,0.189178 -0.79371,0.387203 -1.21875,0.625 -0.36885,0.206347 -0.72246,0.416723 -1.03125,0.625 -0.04778,0.03258 -0.10971,0.06101 -0.15625,0.09375 -0.07364,0.05081 -0.14778,0.105044 -0.21875,0.15625 -15.51507,10.513288 16.5,26.375 16.5,26.375 0,0 2.88805,-29.952261 -9.71875,-29.09375 z"
       style="fill:#ffffff;fill-opacity:1;fill-rule:nonzero;stroke:#ffffff;stroke-width:3.75957274;stroke-miterlimit:4;stroke-opacity:1;stroke-dasharray:none" />
    <g
       transform="matrix(0.65897701,0,0,0.65897701,17.569181,-37.654196)"
       id="g16105">
      <path
         id="path14738"
         style="fill:#ffffff;fill-opacity:1;fill-rule:nonzero;stroke:none"
         d="m 66.605463,-63.700916 c 0.81817,1.47598 0.29071,3.33665 -1.178,4.15816 l -24.11502,13.4912 c -1.4681,0.8209 -3.32089,0.29162 -4.13906,-1.18345 -0.81696,-1.47356 -0.2898,-3.33605 1.1783,-4.15725 l 24.11472,-13.49151 c 1.46871,-0.82151 3.3221,-0.29101 4.13906,1.18285"
         inkscape:connector-curvature="0" />
      <path
         id="path14740"
         style="fill:#ffe673;fill-opacity:1;fill-rule:nonzero;stroke:none"
         d="m -5.5868068,-160.26134 c 0,0 -22.6114502,38.64024 -0.70207,76.364384 21.9099798,37.72415 38.4395498,37.47345 38.4395498,37.47345 l 19.36816,-10.83571"
         inkscape:connector-curvature="0" />
      <path
         id="path14742"
         style="fill:#f7de6f;fill-opacity:1;fill-rule:nonzero;stroke:none"
         d="m -5.5868068,-160.26134 c 0,0 44.6072198,1.03492 64.9978698,39.60846 20.39095,38.574154 11.47563,52.558264 11.47563,52.558264 l -19.36786,10.8354"
         inkscape:connector-curvature="0" />
      <path
         id="path14744"
         style="fill:#d46150;fill-opacity:1;fill-rule:nonzero;stroke:none"
         d="m 30.128433,-150.0025 c -18.13378,-9.84808 -35.7152398,-10.25884 -35.7152398,-10.25884 0,0 -8.9101702,15.23123 -10.1230302,35.90259 -0.0934,1.60754 -0.13975,3.24783 -0.13338,4.9157 11.9033602,-1.71425 32.59139,-7.67609 50.40112,-27.95943 -1.47447,-0.93185 -2.95349,-1.79792 -4.42947,-2.60002"
         inkscape:connector-curvature="0" />
      <path
         id="path14746"
         style="fill:#ffe673;fill-opacity:1;fill-rule:nonzero;stroke:none"
         d="m 9.7771932,-66.107846 -4.22849,23.77247 c 0,0 -1.27046,3.12203 3.82743,6.90309 5.0975898,3.78166 29.4899798,21.79267 29.4899798,21.79267 0,0 1.09615,-0.008 0.91609,-1.41506 0,0 -16.87636,-23.22318 -4.83992,-33.27285"
         inkscape:connector-curvature="0" />
      <path
         id="path14748"
         style="fill:#f7de6f;fill-opacity:1;fill-rule:nonzero;stroke:none"
         d="m 66.339613,-97.752226 22.34499,8.90592 c 0,0 3.31118,0.55899 3.82743,6.90369 0.51625,6.34409 2.9168,36.65891 2.9168,36.65891 0,0 -0.58414,0.93216 -1.6806,0.037 0,0 -10.76811,-26.63987 -25.6101,-21.65202"
         inkscape:connector-curvature="0" />
      <path
         id="path14750"
         style="fill:#d46150;fill-opacity:1;fill-rule:nonzero;stroke:none"
         d="m 0.98524319,-72.413746 c 18.19228981,26.18213 31.16542981,25.99024 31.16542981,25.99024 l 19.36816,-10.83571 19.36786,-10.8354 c 0,0 6.9816,-10.9606 -5.55593,-40.230204 -20.01506,33.325304 -51.59731,36.223614 -64.34551981,35.911074"
         inkscape:connector-curvature="0" />
      <path
         id="path14752"
         style="fill:#e46756;fill-opacity:1;fill-rule:nonzero;stroke:none"
         d="m -5.7126168,-160.03913 c -1.07159,1.91462 -8.8677202,16.4365 -9.9972202,35.68038 -0.0934,1.60754 -0.13975,3.24783 -0.13338,4.9157 6.9388502,-0.99915 16.8645402,-3.44912 27.4644,-9.33153 l -17.3337998,-31.26455"
         inkscape:connector-curvature="0" />
      <path
         id="path14754"
         style="fill:#999897;fill-opacity:1;fill-rule:nonzero;stroke:none"
         d="m 32.630543,-131.59165 c 5.24036,9.45127 1.86036,21.38282 -7.54938,26.64683 -9.40974,5.264324 -21.2870298,1.86916 -26.5273998,-7.58332 -5.24067,-9.45249 -1.86097,-21.38344 7.54877,-26.64805 9.4100498,-5.26401 21.2873398,-1.86825 26.5280098,7.58454"
         inkscape:connector-curvature="0" />
      <path
         id="path14756"
         style="fill:#e46756;fill-opacity:1;fill-rule:nonzero;stroke:none"
         d="m 78.695563,-7.791456 c 0,0 5.50803,-57.25692 -22.9249,-41.34969 -28.43293,15.90722 22.9249,41.34969 22.9249,41.34969"
         inkscape:connector-curvature="0" />
      <path
         id="path14758"
         style="fill:#f18d16;fill-opacity:1;fill-rule:nonzero;stroke:none"
         d="m 76.203453,-12.285496 c 0,0 3.07929,-50.01037 -20.43279,-36.85565 -23.51238,13.15411 20.43279,36.85565 20.43279,36.85565"
         inkscape:connector-curvature="0" />
      <path
         id="path14760"
         style="fill:#bfbfbe;fill-opacity:1;fill-rule:nonzero;stroke:none"
         d="m 28.072843,-131.26214 c 4.59104,8.28146 1.63028,18.73218 -6.61328,23.34414 -8.24296,4.61165 -18.6469998,1.63816 -23.2380398,-6.6433 -4.59043,-8.28024 -1.62967,-18.73127 6.61359,-23.34262 8.2432598,-4.61256 18.6466898,-1.63786 23.2377298,6.64178"
         inkscape:connector-curvature="0" />
      <path
         id="path14762"
         style="fill:#fcc000;fill-opacity:1;fill-rule:nonzero;stroke:none"
         d="m 73.089303,-17.903876 c 0,0 3.48489,-42.87599 -17.31864,-31.23727 -20.80383,11.63933 17.31864,31.23727 17.31864,31.23727"
         inkscape:connector-curvature="0" />
      <path
         id="path14764"
         style="fill:#ffffff;fill-opacity:1;fill-rule:nonzero;stroke:none"
         d="m 15.573203,-140.43664 c -3.09141,0 -6.1622098,0.80392 -8.8804598,2.32447 -8.81073,4.92934 -11.98672,16.14064 -7.07981001,24.99139 3.22722001,5.82088 9.35669001,9.43672 15.99725981,9.43672 3.09111,0 6.16221,-0.80392 8.88106,-2.32477 4.2679,-2.38783 7.35476,-6.30227 8.69221,-11.02275 1.33715,-4.72018 0.76452,-9.68044 -1.61239,-13.96743 -3.22722,-5.82149 -9.3576,-9.43763 -15.99787,-9.43763 z m 0.037,39.18861 c -7.5193698,0 -14.4609498,-4.09541 -18.1158998,-10.68748 -5.55775,-10.0242 -1.9604,-22.72179 8.01833,-28.305 3.07838,-1.72214 6.5572098,-2.63216 10.0605798,-2.63216 7.51967,0 14.46156,4.09541 18.11651,10.68808 2.69218,4.85568 3.34059,10.47376 1.82611,15.81992 -1.51449,5.34616 -5.01089,9.77987 -9.84475,12.48418 -3.07868,1.72213 -6.5575,2.63246 -10.06088,2.63246"
         inkscape:connector-curvature="0" />
      <path
         id="path14766"
         style="fill:#ffe673;fill-opacity:1;fill-rule:nonzero;stroke:none"
         d="m 67.828633,-27.391526 c 0,0 5.85331,-31.77019 -12.05797,-21.74962 -17.91127,10.02026 12.05797,21.74962 12.05797,21.74962"
         inkscape:connector-curvature="0" />
      <path
         id="path14768"
         style="fill:#e46756;fill-opacity:1;fill-rule:nonzero;stroke:none"
         d="m 66.536653,-104.9051 0.26585,0.16096 c -0.45835,-1.16254 -0.9467,-2.35387 -1.47174,-3.58068 -20.01506,33.325304 -51.59731,36.223614 -64.34551981,35.911074 0.76513001,1.10101 1.52024001,2.15229 2.26597001,3.16174 l 0.008,-0.33072 c 12.4635698,0.30526 43.5792798,-2.52485 63.2772598,-35.322374"
         inkscape:connector-curvature="0" />
      <path
         id="path14770"
         style="fill:#e46756;fill-opacity:1;fill-rule:nonzero;stroke:none"
         d="m 68.635583,-99.782356 c -0.27646,-0.804834 -0.5696,-1.628164 -0.88001,-2.468464 -7.80614,12.470234 -17.23316,20.584974 -26.61016,25.831094 -14.11385,7.89586 -28.10948,9.29728 -36.2881698,9.29243 0.54565,0.70601 1.08615,1.38807 1.62028,2.0471 12.8236898,0.17248 42.8174798,-3.12082 62.1580598,-34.70216"
         inkscape:connector-curvature="0" />
      <path
         id="path14772"
         style="fill:#e46756;fill-opacity:1;fill-rule:nonzero;stroke:none"
         d="m 8.5124932,-62.647506 c 14.1390098,16.36193 23.6381798,16.224 23.6381798,16.224 l 19.36816,-10.83571 19.36786,-10.8354 c 0,0 5.10881,-8.02712 -1.26894,-28.67878 -7.68124,11.91337 -16.85635,19.73618 -25.98387,24.84225 -13.46483,7.53331 -26.81993,9.1545 -35.1213898,9.28364"
         inkscape:connector-curvature="0" />
      <path
         id="path14774"
         style="fill:#ffffff;fill-opacity:1;fill-rule:nonzero;stroke:none"
         d="m 67.755573,-102.25082 c -0.30102,-0.81453 -0.6184,-1.64483 -0.95307,-2.49332 l -0.26585,-0.16096 c -19.69798,32.797524 -50.81369,35.627634 -63.2772598,35.322374 l -0.008,0.33072 c 0.54019,0.73178 1.07584,1.43992 1.60603,2.12471 8.1786898,0.005 22.1743198,-1.39657 36.2881698,-9.29243 9.377,-5.24612 18.80402,-13.36086 26.61016,-25.831094"
         inkscape:connector-curvature="0" />
      <path
         id="path14776"
         style="fill:#ffffff;fill-opacity:1;fill-rule:nonzero;stroke:none"
         d="m 6.4775232,-65.080196 c 0.68843,0.84878 1.36715,1.65938 2.03497,2.43269 8.3014598,-0.12914 21.6565598,-1.75033 35.1213898,-9.28364 9.12752,-5.10607 18.30263,-12.92888 25.98387,-24.84225 -0.30101,-0.97459 -0.6284,-1.97798 -0.98217,-3.00896 -19.34058,31.58134 -49.33437,34.87464 -62.1580598,34.70216"
         inkscape:connector-curvature="0" />
      <path
         id="path14778"
         style="fill:#d46150;fill-opacity:1;fill-rule:nonzero;stroke:none"
         d="m 38.049453,-81.389686 1.65029,2.97561 c 9.49189,-5.25704 19.05502,-13.53425 26.83691,-26.491024 l 0.26585,0.16096 c -0.45835,-1.16254 -0.9467,-2.35387 -1.47174,-3.58068 -7.91254,13.173524 -17.63178,21.589874 -27.28131,26.935134"
         inkscape:connector-curvature="0" />
      <path
         id="path14780"
         style="fill:#d46150;fill-opacity:1;fill-rule:nonzero;stroke:none"
         d="m 41.145413,-76.419726 c -0.0876,0.0482 -0.17491,0.094 -0.26191,0.14248 l 1.30229,2.34872 c 9.33456,-5.17125 18.73884,-13.26234 26.44979,-25.85383 -0.27646,-0.804834 -0.5696,-1.628164 -0.88001,-2.468464 -7.80614,12.470234 -17.23316,20.584974 -26.61016,25.831094"
         inkscape:connector-curvature="0" />
      <path
         id="path14782"
         style="fill:#d46150;fill-opacity:1;fill-rule:nonzero;stroke:none"
         d="m 43.633883,-71.931146 c -0.0873,0.0488 -0.1743,0.0946 -0.2613,0.14339 l 8.07683,14.56795 19.43728,-10.87481 c 0,0 5.10881,-8.02712 -1.26894,-28.67878 -7.68124,11.91337 -16.85635,19.73618 -25.98387,24.84225"
         inkscape:connector-curvature="0" />
      <path
         id="path14784"
         style="fill:#ffffff;fill-opacity:1;fill-rule:nonzero;stroke:none"
         d="m 66.536653,-104.9051 c -7.78189,12.956774 -17.34502,21.233984 -26.83691,26.491024 l 1.18376,2.13683 c 0.087,-0.0485 0.17431,-0.0943 0.26191,-0.14248 9.377,-5.24612 18.80402,-13.36086 26.61016,-25.831094 -0.30102,-0.81453 -0.6184,-1.64483 -0.95307,-2.49332 l -0.26585,-0.16096"
         inkscape:connector-curvature="0" />
      <path
         id="path14786"
         style="fill:#ffffff;fill-opacity:1;fill-rule:nonzero;stroke:none"
         d="m 42.185793,-73.928526 1.18679,2.14077 c 0.087,-0.0488 0.174,-0.0946 0.2613,-0.14339 9.12752,-5.10607 18.30263,-12.92888 25.98387,-24.84225 -0.30101,-0.97459 -0.6284,-1.97798 -0.98217,-3.00896 -7.71095,12.59149 -17.11523,20.68258 -26.44979,25.85383"
         inkscape:connector-curvature="0" />
    </g>
  </g>
</svg>
