<?xml version="1.0" encoding="UTF-8" standalone="no"?>
<svg
   xmlns:osb="http://www.openswatchbook.org/uri/2009/osb"
   xmlns:dc="http://purl.org/dc/elements/1.1/"
   xmlns:cc="http://creativecommons.org/ns#"
   xmlns:rdf="http://www.w3.org/1999/02/22-rdf-syntax-ns#"
   xmlns:svg="http://www.w3.org/2000/svg"
   xmlns="http://www.w3.org/2000/svg"
   xmlns:xlink="http://www.w3.org/1999/xlink"
   xmlns:sodipodi="http://sodipodi.sourceforge.net/DTD/sodipodi-0.dtd"
   xmlns:inkscape="http://www.inkscape.org/namespaces/inkscape"
   version="1.1"
   id="svg2"
   viewBox="0 0 93.356217 150.31712"
   height="150.31714"
   width="93.356216"
   inkscape:version="0.48.4 r9939"
   sodipodi:docname="arara.svg">
  <sodipodi:namedview
     pagecolor="#ffffff"
     bordercolor="#666666"
     borderopacity="1"
     objecttolerance="10"
     gridtolerance="10"
     guidetolerance="10"
     inkscape:pageopacity="0"
     inkscape:pageshadow="2"
     inkscape:window-width="1600"
     inkscape:window-height="876"
     id="namedview1313"
     showgrid="false"
     fit-margin-top="0"
     fit-margin-left="0"
     fit-margin-right="0"
     fit-margin-bottom="0"
     inkscape:zoom="3.3733265"
     inkscape:cx="-22.594137"
     inkscape:cy="55.179195"
     inkscape:window-x="0"
     inkscape:window-y="1"
     inkscape:window-maximized="1"
     inkscape:current-layer="svg2" />
  <script
     xlink:href="C:\wamp\www\bingo\js/snap.svg-min.js"
     id="script4164" />
  <title
     id="title4162">Bingo das Letras</title>
  <defs
     id="defs4">
    <linearGradient
       osb:paint="solid"
       id="linearGradient12614">
      <stop
         id="stop12616"
         offset="0"
         style="stop-color:#000000;stop-opacity:1;" />
    </linearGradient>
    <linearGradient
       gradientTransform="matrix(-0.19399818,0,0,-0.19399818,259.22818,12173.784)"
       osb:paint="solid"
       id="linearGradient59274">
      <stop
         id="stop59276"
         offset="0"
         style="stop-color:#930033;stop-opacity:1;" />
    </linearGradient>
    <linearGradient
       id="linearGradient4269"
       osb:paint="solid"
       gradientTransform="matrix(110.20782,22.122239,-29.697412,82.096171,6264911.9,4302771)">
      <stop
         style="stop-color:#ffffff;stop-opacity:1;"
         offset="0"
         id="stop4271" />
    </linearGradient>
    <linearGradient
       id="linearGradient4251"
       osb:paint="solid"
       gradientTransform="translate(106155.96,125143.42)">
      <stop
         style="stop-color:#555555;stop-opacity:1;"
         offset="0"
         id="stop4253" />
    </linearGradient>
    <linearGradient
       id="linearGradient4241"
       osb:paint="solid"
       gradientTransform="matrix(0.19125385,0,0,0.19125385,-3414.745,-12068.05)">
      <stop
         style="stop-color:#3fb5ae;stop-opacity:1;"
         offset="0"
         id="stop4243" />
    </linearGradient>
    <linearGradient
       id="linearGradient4231"
       osb:paint="solid"
       gradientTransform="translate(2399.1562,2075.6965)">
      <stop
         style="stop-color:#d1f2a5;stop-opacity:1;"
         offset="0"
         id="stop4233" />
    </linearGradient>
    <linearGradient
       id="linearGradient4221"
       osb:paint="solid"
       gradientTransform="matrix(0.66768435,0,0,0.66768435,-186.89148,394.64653)">
      <stop
         style="stop-color:#effab4;stop-opacity:1;"
         offset="0"
         id="stop4223" />
    </linearGradient>
    <linearGradient
       id="linearGradient4211"
       osb:paint="solid"
       gradientTransform="translate(-699.20463,883.12976)">
      <stop
         style="stop-color:#ffc48c;stop-opacity:1;"
         offset="0"
         id="stop4213" />
    </linearGradient>
    <linearGradient
       id="linearGradient4201"
       osb:paint="solid"
       gradientTransform="matrix(0.35946858,0,0,0.22423084,-331.07911,5516.4706)">
      <stop
         style="stop-color:#ff9f80;stop-opacity:1;"
         offset="0"
         id="stop4203" />
    </linearGradient>
    <linearGradient
       id="linearGradient4191"
       osb:paint="solid"
       gradientTransform="matrix(0.52321996,0,0,0.52321996,2015.4535,3072.5352)">
      <stop
         style="stop-color:#f56991;stop-opacity:1;"
         offset="0"
         id="stop4193" />
    </linearGradient>
    <linearGradient
       id="Gradient_1-9"
       gradientUnits="userSpaceOnUse"
       x1="-62.412498"
       y1="-56.362499"
       x2="-24.1875"
       y2="-78.4375"
       spreadMethod="pad">
      <stop
         offset="2.3529411764705883%"
         stop-color="#000000"
         id="stop60056" />
      <stop
         offset="98.82352941176471%"
         stop-color="#999999"
         id="stop60058" />
    </linearGradient>
    <radialGradient
       id="Gradient_2-0"
       gradientUnits="userSpaceOnUse"
       cx="0"
       cy="0"
       r="9.6000004"
       fx="0"
       fy="0"
       gradientTransform="translate(-20.65,-92.5)"
       spreadMethod="pad">
      <stop
         offset="29.80392156862745%"
         stop-color="#FF9900"
         id="stop60061" />
      <stop
         offset="98.82352941176471%"
         stop-color="#FFCC00"
         id="stop60063" />
    </radialGradient>
    <linearGradient
       id="Gradient_3-0"
       gradientUnits="userSpaceOnUse"
       x1="-39.025002"
       y1="-87.550003"
       x2="-13.475"
       y2="-131.64999"
       spreadMethod="pad">
      <stop
         offset="2.3529411764705883%"
         stop-color="#009900"
         id="stop60066" />
      <stop
         offset="27.84313725490196%"
         stop-color="#0066FF"
         id="stop60068" />
    </linearGradient>
    <g
       id="arara_0_Layer0_0_FILL">
      <path
         d="m -1.4,43.05 q -0.8388672,-2.229492 -0.2,-4.75 -6.3685547,-0.04141 -12.2,0.6 7.4416016,-0.376367 12.4,4.15 m -13.75,-4 q -0.67207,0.102539 -1.3,0.15 -2.401953,0.214453 -4.3,-0.45 2.949023,1.827148 6.65,0.2 -0.514062,0.05781 -1.05,0.1 m -11.3,0.6 0.1,-0.3 q -0.08555,0.140039 -0.2,0.25 0.05059,0.03594 0.1,0.05 m 2.4,-2.95 q -0.170898,-0.06035 -0.35,-0.15 -0.259375,0.177344 -0.6,0.6 1.656641,0.635938 3.35,1.2 -2.172266,-1.067969 -2.3,-1.25 0.025,-0.0375 0,-0.1 -0.239062,-0.01523 -0.1,-0.3 m 88.2,3.25 q -0.0127,-0.09746 -0.05,-0.2 l 0.05,0.2 0,0 m -6.3,-4.5 q -2.0375,-0.08086 -4.1,0.1 -1.8625,0.145508 -3.75,0.4 -0.226563,0.03086 -0.45,-0.05 -0.124414,0.103125 -0.35,0.1 -0.15332,0.04629 -0.3,-0.05 -0.152344,0.141992 -0.35,0.15 -1.060742,0.201563 -2.05,0.45 l -0.05,0 q -2.106836,0.511719 -4.3,0.95 -1.682422,0.345312 -3.5,0.05 -0.462695,1.796875 -0.55,3.5 -0.01758,0.461133 0,0.9 0.186719,-0.02773 0.35,-0.05 0.10918,-0.0334 0.2,-0.05 0.03828,-0.0037 0.05,0 1.49707,-0.258203 2.9,-0.4 l -0.05,-0.2 q 4.896289,-1.055664 9.65,-2.25 6.584375,-1.566016 12.9,0.75 -1.150586,-2.6125 0.45,-3.9 -1.566016,-0.0125 -3.15,-0.15 -1.7625,-0.118555 -3.55,-0.25 m -39.4,5.35 q 0.669141,-0.118359 1.35,-0.25 1.088086,0.166406 2.15,0.25 0.615234,0.04941 1.2,0.05 1.158398,0.07676 2.3,0.05 -0.01523,-0.02832 -0.05,-0.1 -0.151953,-0.823828 -0.3,-1.75 0.0047,-0.202148 0,-0.4 -1.185156,0.03945 -2.2,0.1 l 0,0 q -2.025,0.06172 -4.05,0.05 -1.912695,0.0059 -3.85,-0.05 -1.125391,-0.01523 -2.3,0.05 -0.05449,0.01035 -0.15,0 -0.244727,0.02422 -0.5,0.05 l -0.05,0 q -0.06328,1.093945 -0.1,2.2 0.55957,0.185937 1.15,0.2 0.568359,0.09902 1.05,0.1 0.6875,0.03672 1.35,0 0.405859,-0.0068 0.75,-0.05 0.468164,-0.075 0.85,-0.15 0.712305,-0.144141 1.4,-0.35 z"
         id="path60071"
         inkscape:connector-curvature="0"
         style="fill:#663300;stroke:none" />
      <path
         d="m -21.65,38.35 q -1.693359,-0.564062 -3.35,-1.2 -0.549219,0.748633 -1.35,2.2 l -0.1,0.3 q 5.751563,2.085352 12.05,3.05 6.1332031,0.962891 13,0.35 -4.9583984,-4.526367 -12.4,-4.15 -0.128711,0.02676 -0.3,0.05 -3.700977,1.627148 -6.65,-0.2 -0.409375,-0.14707 -0.85,-0.35 -0.0123,-0.01289 -0.05,-0.05 m 67.9,3.1 q 1.194727,-0.0051 2.4,0 1.100195,0.06055 2.15,0 l 0.05,0 q 0.196484,0.025 0.35,0 0.475,0.02969 0.9,0 l 0.05,0 q 1.8125,-0.0332 3.6,-0.2 1.762305,-0.126172 3.5,-0.35 2.048242,-0.249609 4,-0.75 0.466016,-0.117383 0.9,-0.2 L 64.1,39.75 Q 57.784375,37.433984 51.2,39 q -4.753711,1.194336 -9.65,2.25 l 0.05,0.2 q 1.8625,-0.111328 3.7,-0.05 l 0.05,0 q 0.425,0.01914 0.85,0.05 l 0.05,0 M 19.8,40.55 q -0.680859,0.131641 -1.35,0.25 -0.687695,0.205859 -1.4,0.35 -0.381836,0.075 -0.85,0.15 -0.344141,0.04316 -0.75,0.05 -0.6625,0.03672 -1.35,0 -0.481641,-9.77e-4 -1.05,-0.1 -0.59043,-0.01406 -1.15,-0.2 0.0039,0.400391 0,0.8 -0.0055,0.681445 0.1,1.35 1.161133,0.158594 2.3,0.2 l 0.1,0 q 0.607422,0.06719 1.2,0.05 2.155664,-0.01856 4.25,-0.05 1.093555,0.03125 2.2,0.05 0.120313,0.0123 0.2,0 0.7,0.025 1.35,0 0.455078,0.025 0.85,0 l 0,0 q 0.863086,-0.0035 1.6,-0.1 -0.354883,-1.10918 -0.6,-2.45 -1.141602,0.02676 -2.3,-0.05 -0.584766,-5.86e-4 -1.2,-0.05 -1.061914,-0.08359 -2.15,-0.25 z"
         id="path60073"
         inkscape:connector-curvature="0"
         style="fill:#783d01;stroke:none" />
      <path
         d="m -44.3,-106.55 0,0 0,0 0,0 m 0.15,12.25 -0.55,-0.2 q 0.121875,0.101172 0.25,0.15 0.160352,0.05566 0.3,0.05 m 77.2,130 0.15,-0.6 q -0.07734,0.255664 -0.15,0.55 l 0,0.05 m -38.8,-116.5 0,0 0,0 0,0 m -12.25,-19.9 -0.05,-0.05 0,0.05 0.05,0 m 51.5,128.1 0,0 -0.2,-0.4 q 0.113672,0.21543 0.2,0.4 z"
         id="path60075"
         inkscape:connector-curvature="0"
         style="fill:#ff0000;stroke:none" />
      <path
         d="m 1.5,-95.15 q -0.66894531,-1.193555 -1.4,-2.3 -0.2,-0.300195 -0.45,-0.65 -7.3070312,-10.79238 -19,-12.3 l 0,0 q -16.519727,-1.7084 -24.95,3.85 l 0,0 q -5.838086,3.81211 -6.65,9.95 -0.152148,0.0373 -0.3,0.15 -1.399023,1.291211 -1.15,2.55 0.09199,0.818945 0.85,1.6 -6.593945,3.123437 -10.5,9.65 -3.98457,6.617383 -4.1,14.7 -0.116797,8.201367 3.8,14.95 4.297266,7.37168 12.2,10.95 0.243555,0.101953 0.45,0.05 0.251172,-0.0584 0.4,-0.25 0.171875,-0.17207 0.2,-0.4 0.01211,-0.255664 -0.15,-0.5 -1.631836,-2.513477 -1.15,-3.6 0.690039,-0.871484 3.6,-0.6 l 0,0 q 8.373633,1.317383 13.9,-2 l 0,1.8 q 0.02734,0.179102 0.1,0.3 -2.213867,2.054688 -4.05,4.4 -11.688477,14.777539 -7.65,33.55 3.902734,18.0117187 19.3,27.35 2.1625,1.3375 4.3,2.65 0.0748,0.03965 0.1,0.05 2.72168,1.211523 5.1,2.7 1.585156,1.068359 3.2,2.1 6.1568359,4.144922 12.6,7.85 0.31074219,0.158789 0.6,0.3 -1.17851563,1.647461 -1.8,3.15 -7.5078125,-0.1 -14.25,0.75 -5.498437,0.669336 -9.4,-1.95 -0.157617,-0.114844 -0.35,-0.15 -0.212109,0.0082 -0.4,0.1 -0.02793,0.02266 -0.05,0.05 0.342773,0.444727 0.7,0.65 0.241992,0.140039 0.45,0.25 0.179102,0.08965 0.35,0.15 -0.139062,0.284766 0.1,0.3 0.025,0.0625 0,0.1 0.127734,0.182031 2.3,1.25 0.03769,0.03711 0.05,0.05 0.440625,0.20293 0.85,0.35 1.898047,0.664453 4.3,0.45 0.62793,-0.04746 1.3,-0.15 0.535938,-0.04219 1.05,-0.1 0.171289,-0.02324 0.3,-0.05 5.8314453,-0.641406 12.2,-0.6 -0.6388672,2.520508 0.2,4.75 -6.8667969,0.612891 -13,-0.35 -6.298437,-0.964648 -12.05,-3.05 -0.04941,-0.01406 -0.1,-0.05 0.114453,-0.109961 0.2,-0.25 -0.371875,0.109961 -0.8,0.2 -0.640625,0.227539 -1.3,0.3 l 0,0.05 q -0.0082,0.242773 0.1,0.45 0.155469,0.194727 0.35,0.25 6.360156,2.479687 13.4,3.6 6.5484375,1.007422 13.95,0.25 0.13574219,0.199609 0.25,0.35 0.80527344,1.166211 2.05,2.2 l 0.05,0.05 q 2.0214844,1.591797 4.05,0.2 0.1595703,0.09414 0.3,0.15 0.049219,0.05215 0.1,0.05 0.3029297,0.159766 0.65,0.25 l 0,0 q 0.975,0.207422 1.9,0 0.1751953,0.0086 0.3,-0.05 0.9066406,0.676953 2.15,0.85 3.275586,0.481641 3.8,-2.8 0.05039,-0.378711 0.05,-0.8 0.322266,0.0252 0.6,0 l 0.05,0 q 2.118164,-0.0059 4.2,0 0.952734,-0.0088 1.9,0 3.460352,4.743359 4.55,11.3 1.205859,7.087695 3.7,12.85 2.483594,5.742773 9.4,11.15 11.057813,25.31816 24.85,30.45 l 0.05,0.05 q 0.05977,0.0406 0.1,0.05 0.14668,0.0701 0.3,0.05 0.160352,-0.004 0.25,-0.05 0.06445,-0.0209 0.1,-0.05 l 0.1,-0.1 q 0.03887,-0.0156 0.05,-0.1 0.05312,0.002 0.05,-0.05 0.177344,-0.18535 0.15,-0.45 -0.296094,-2.78496 -0.6,-5.45 l 0,-0.05 q -0.179688,-1.34395 -0.35,-2.65 l 0,-0.05 q -0.1875,-1.849219 -0.4,-3.65 -5.506445,-45.105273 -11.8,-55.25 1.825,-0.02227 3.65,-0.2 1.775,-0.113086 3.55,-0.35 2.130078,-0.242969 4,-1.65 0.579687,-0.435547 1.05,-0.8 l -0.05,0 q -0.13418,0.02441 -0.3,0.05 l 0,0 q -0.433984,0.08262 -0.9,0.2 -1.951758,0.500391 -4,0.75 -1.737695,0.223828 -3.5,0.35 -1.7875,0.166797 -3.6,0.2 l -0.05,0 q -0.425,0.02969 -0.9,0 -0.153516,0.025 -0.35,0 l -0.05,0 q -1.049805,0.06055 -2.15,0 -1.205273,-0.0051 -2.4,0 l -0.05,0 Q 45.775,41.41914 45.35,41.4 l -0.05,0 q -1.8375,-0.06133 -3.7,0.05 -1.40293,0.141797 -2.9,0.4 -0.01172,-0.0037 -0.05,0 -0.09082,0.0166 -0.2,0.05 -0.163281,0.02227 -0.35,0.05 -0.01758,-0.438867 0,-0.9 0.08731,-1.703125 0.55,-3.5 1.817578,0.295312 3.5,-0.05 2.193164,-0.438281 4.3,-0.95 l 0.05,0 q 0.989258,-0.248437 2.05,-0.45 0.197656,-0.008 0.35,-0.15 0.14668,0.09629 0.3,0.05 0.225586,0.0031 0.35,-0.1 0.223437,0.08086 0.45,0.05 1.8875,-0.254492 3.75,-0.4 2.0625,-0.180859 4.1,-0.1 1.7875,0.131445 3.55,0.25 1.583984,0.1375 3.15,0.15 0.958984,-0.86875 1.6,-1.45 -0.04395,-0.0209 -0.15,-0.05 -0.0875,0.025 -0.2,0 l -0.05,0 q -0.1875,0.02852 -0.4,0 -1.912695,0.05078 -3.85,-0.1 -1.775,-0.131055 -3.6,-0.25 -2.1125,-0.112695 -4.25,0.05 -1.914648,0.16875 -3.85,0.4 -0.176562,-1.799609 -0.4,-3.5 -0.499219,-4.250977 -1.05,-7.6 l 0,0 Q 48.308594,23.169141 48.2,23 q 0.05488,-0.113477 0.05,-0.3 -0.01563,0.0027 -0.05,-0.05 -0.268164,-1.555664 -0.55,-3.1 -0.002,-0.208594 -0.15,-0.35 0.07344,-0.179297 0,-0.4 -0.269336,-1.631055 -0.6,-3.25 -0.951758,-4.59707 -2.05,-8.9 -7.001562,-27.325586 -20.6,-44.1 l 0,-0.05 q -11.306641,-12.778516 -15,-33.65 -2.5638672,-14.782422 -7.75,-24 m -1.3,0.7 q 5.1037109,9.061719 7.65,23.55 3.73125,21.293555 15.25,34.35 l 0.05,0 q 13.156445,16.339648 20.05,42.7 0.114062,0.4359375 0.2,0.85 1.083008,4.080469 2,8.4 0.04141,0.226367 0.05,0.4 0.34043,1.530273 0.6,3.05 0.03691,0.121094 0.05,0.2 0.04414,0.248242 0.2,0.4 -0.07461,0.167383 -0.05,0.35 0.256445,1.544141 0.55,3.1 0.0084,0.116992 0,0.2 Q 43.506641,24.709766 40,21.5 39.94473,21.44844 39.85,21.4 39.000977,21.004492 38.15,20.55 31.873828,17.425195 25.1,12.5 14.840625,4.9386719 7.9,-5.5 l -2.95,-4.85 q -2.4257812,-4.433398 -4.4,-9.1 -2.1828125,-5.045703 -3.7,-10.2 -0.4574219,-1.671289 -2.95,-7.7 l -0.15,-0.3 -0.05,-0.1 q -0.049414,-0.148047 -0.15,-0.35 0.1669922,0.416797 0.25,0.7 0.041602,0.06328 0.05,0.1 l 0,0 q 0.6308594,1.742773 0,0.6 0.1945313,2.624414 0.55,3.9 l 0,0 q 0.5681641,1.805664 1.05,3.55 1.5365234,5.242773 3.75,10.35 1.8253906,4.332813 4,8.45 0.7748047,1.5224609 1.25,3.1 0.3658203,1.1292969 0.75,2.35 4.985547,13.5445313 15.9,20.25 8.153906,5.006055 12.1,11.6 l 0.1,0.15 0.2,0.4 q 0.978516,1.729687 1.65,3.55 0.449805,1.156836 0.75,2.3 -0.0707,0.02676 -0.2,0 -1.084961,0.0014 -1.75,0.55 -1.632031,-1.564258 -3.3,-0.7 -0.114063,-0.08105 -0.3,-0.15 -1.67168,-0.815039 -2.75,-0.6 -1.324609,0.189844 -1.9,1.6 l 0,-0.05 q -0.569141,1.526172 -0.65,3.2 l 0,0.05 q 0.0037,0.225977 0.1,0.4 -0.09414,0.151172 -0.1,0.35 -0.01289,-0.366406 0,-0.75 -1.186133,0.06367 -2.2,0.1 l 0,0 q -2.000195,0.09902 -4,0.1 -1.8875,-0.0068 -3.8,-0.05 -0.898047,-0.02832 -1.85,0 -0.555859,-2.552148 -2.75,-3.25 -0.123633,-0.01953 -0.3,0 -0.8292969,0.08086 -1.5,0.4 -0.5205078,-0.691992 -1.25,-1.1 l 0.05,0.05 q -2.3423828,-1.421289 -3.9,0.35 -0.6273437,-0.387695 -1.3,-0.8 l 0,0 Q 2.2169922,32.93418 2.15,32.9 l -0.1,0 0,-0.05 Q 1.5771484,32.5875 1.1,32.3 -7.1646484,28.115234 -14.3,22 -15.07168,21.33418 -15.85,20.6 -27.783789,9.08125 -28.8,-1.8 l 0,-0.05 q -1.142578,0.8097656 -3.1,1.95 -3.180664,-3.7009766 -4.3,-6.5 -1.222461,-3.0734375 -1.35,-8.55 -0.09277,-5.474219 1.9,-9.35 0.383398,-0.675 0.65,-1.2 l 0,0 q -0.213086,0.03379 -1.6,1.35 -1.379102,1.301758 -1.45,-2.55 -0.01992,-3.808789 1.1,-9.4 1.163672,-5.524805 5.3,-10.2 0.02656,0.0014 0.05,-0.05 0.201172,-0.201172 0.2,-0.5 -0.01445,-0.18125 -0.15,-0.35 0.140625,-0.141992 0.15,-0.35 l 0,-2.8 q 0.812109,-0.626758 1.55,-1.4 l 2,-0.25 q 1.999609,0.89668 3.9,1.4 l 0.05,0 q 1.475,0.369336 2.9,-0.3 0.621094,-0.283008 1.25,-0.25 l 0.05,0 q 3.091016,0.08418 5.8,-1.8 1.875195,-1.260547 3.95,-2.25 0.9728516,-0.411133 1.65,-1.1 0.765625,-0.796094 1.15,-1.95 0.1033203,-0.188281 0.05,-0.4 0.1111328,-0.1 0.15,-0.25 0.1458984,-0.366602 0.3,-0.7 1.421875,-2.70957 1.85,-5.75 0.3912109,-2.618164 1,-5.25 0.5667969,-2.507031 -0.4,-4.8 -0.5121094,-2.682227 -1.55,-5.4 l 0,0 q -0.9484375,-2.768164 -2.4,-5.3 -1.2521484,-2.082812 -2.65,-4.7 -0.0332,-0.06894 -0.1,-0.15 -0.01055,-0.214844 -0.15,-0.5 -0.06172,-0.08184 -0.05,-0.25 -0.0457,-0.383008 -0.25,-0.65 -0.395313,-2.548437 -1.65,-4.45 -1.569531,-2.293555 -4.4,-3.65 l 0,0 q -0.300195,-0.13301 -0.65,-0.25 l 0,-0.05 q -4.033008,-1.77129 -8.75,0.6 -1.494727,-0.39258 -2.7,-0.3 -1.521289,0.14668 -2.55,1.15 l -0.05,0 q -0.255664,0.24082 -0.5,0.5 -0.08594,0.16543 -0.2,0.2 -3.580664,-0.283594 -5.55,1.85 -0.225,-0.09883 -0.5,-0.05 -2.380859,0.731641 -5.1,1 -2.484766,-2.077148 -5.35,-1.55 1.026367,-4.82578 5.8,-7.95 l 0,-0.05 q 8.111133,-5.23457 23.95,-3.6 l 0.05,0 q 11.0294922,1.4623 17.95,11.65 0.2375,0.349805 0.45,0.65 0.66914062,1.067969 1.3,2.2 l 0,0 m 45.95,129.55 -0.05,0 q -2.081445,0.538477 -4.25,0.95 -1.438281,0.306836 -3,0 -0.147461,-1.678125 -1.35,-2.35 0.02539,-0.105273 0,-0.25 -0.321289,-1.261328 -0.75,-2.5 -0.784375,-2.19043 -1.95,-4.25 l 0,-0.05 Q 30.709375,19.417578 21.85,14 12.026172,7.9248047 7.2,-3.95 q 6.942578,10.1931641 17.05,17.6 7.733008,5.66582 14.85,9 4.05918,3.686328 7.95,1.95 0.460937,2.861914 0.85,6.35 0.241211,1.801172 0.45,3.75 -0.02481,-0.0045 -0.05,0 -1.112695,0.173047 -2.15,0.4 m 2.45,7.85 q 0.977344,0.03516 1.9,0 6.091211,8.427148 11.5,50.7 l -0.05,-0.1 0,0.05 -5.25,-25.45 q 0.01367,-0.02305 0,-0.05 -2.237305,-7.688672 -4.5,-13.6 -2.080664,-5.395898 -4.9,-11.6 0.670508,0.03652 1.3,0.05 m -6.9,0 q 1.787305,-0.144727 3.55,-0.1 l 0.05,0 q 0.236719,0.0291 0.45,0.05 2.934375,6.494727 5.1,12.15 2.238281,5.812305 4.45,13.4 l 3.4,16.65 1.25,5.95 0.6,2.8 0,0.05 0.15,0.85 0,-0.05 1.4,6.8 q 0.03555,0.10332 0.05,0.2 l 0.65,2.85 q -0.0068,0.12832 0,0.2 l 0.85,4.15 Q 51.010547,103.16953 40.7,79.45 40.687109,79.375 40.65,79.3 L 40.6,79.25 Q 40.573437,79.133984 40.5,79 L 33.7,61.1 33.5,60.65 q -0.0084,-0.125391 -0.05,-0.3 l -0.05,0 0,0 q -0.03496,-0.150781 -0.15,-0.25 0.287109,0.705859 0.65,1.7 1.52793,4.368945 4.3,15.5 -4.86582,-4.325586 -6.85,-8.85 -2.4375,-5.605273 -3.6,-12.5 -1.063867,-6.315039 -4.2,-11.05 l 0.05,0 q 0.468164,0.025 0.85,0 0.395312,0.0207 0.75,0 0.776953,-0.04434 1.45,-0.15 0.813867,1.328906 2.2,1.7 l 0,0 q 1.325,0.333984 1.95,0.3 1.984961,1.56875 3.4,0.55 0.789453,0.399609 2,0.15 1.314258,-0.277148 2.15,-1.35 1.094922,-1.324805 1.15,-2.9 1.117773,-0.173242 2.2,-0.25 m -30.2,-6.15 -0.05,0 q -0.280078,-0.0373 -0.55,0.15 -0.213477,0.180859 -0.25,0.45 -0.02988,0.332813 -0.05,0.65 -0.168359,1.893555 -0.2,3.8 0.02812,1.042187 0.25,2.05 0.0078,0.214844 0.15,0.4 0.177734,0.249219 0.45,0.3 1.165625,0.164844 2.3,0.25 -0.02227,0.333789 -0.1,0.65 l 0.05,0 Q 13.199609,47.325586 11.35,47.05 10.242383,46.880273 9.5,46.15 9.0720703,45.656055 8.8,44.95 8.0517578,43.056055 8,41 7.9548828,39.052734 8.45,37.15 l 0,-0.05 Q 8.6308594,36.471875 9,36.05 q 0.4591797,-0.412891 1.15,-0.55 0.901172,0.400391 1.35,1.3 M 1.95,34.45 Q 2.4384766,34.763672 2.9,35.05 0.76113281,42.43418 4.55,46.2 3.5904297,46.627734 2.6,45.9 l 0,-0.05 Q 1.2164062,44.720898 0.45,43.45 0.44628906,43.388086 0.4,43.3 -0.99375,40.820703 0.1,37.85 0.68789062,36.231641 1.95,34.45 M 7.6,35.5 q -0.3609375,0.517187 -0.55,1.25 -0.578125,2.123828 -0.5,4.3 0.041211,2.315234 0.9,4.45 0.1833984,0.455859 0.4,0.85 -0.3253906,-0.0021 -0.7,-0.1 l 0,0 Q 6.9244141,46.211133 6.7,46.1 6.5230469,45.994922 6.35,45.85 6.2726562,45.755859 6.15,45.7 2.1955078,42.289453 4.4,35.05 5.2902344,33.785156 6.65,34.6 l 0.05,0.05 q 0.5039062,0.293359 0.9,0.85 m 5.1,3.3 q 1.174609,-0.06523 2.3,-0.05 1.937305,0.05586 3.85,0.05 2.025,0.01172 4.05,-0.05 l 0,0 q 1.014844,-0.06055 2.2,-0.1 0.0047,0.197852 0,0.4 0.148047,0.926172 0.3,1.75 0.03477,0.07168 0.05,0.1 0.245117,1.34082 0.6,2.45 -0.736914,0.09648 -1.6,0.1 l 0,0 q -0.394922,0.025 -0.85,0 -0.65,0.025 -1.35,0 -0.07969,0.0123 -0.2,0 -1.106445,-0.01875 -2.2,-0.05 -2.094336,0.03144 -4.25,0.05 -0.592578,0.01719 -1.2,-0.05 l -0.1,0 q -1.138867,-0.04141 -2.3,-0.2 -0.105469,-0.668555 -0.1,-1.35 0.0039,-0.399609 0,-0.8 0.03672,-1.106055 0.1,-2.2 l 0.05,0 q 0.255273,-0.02578 0.5,-0.05 0.09551,0.01035 0.15,0 m 18.5,-4.3 q 0.99707,-0.436914 2,0.6 l -0.15,0.6 q -0.194336,2.175 -0.1,4.4 0.05195,0.596094 0.05,1.15 0.05566,1.529688 0,3.05 -0.02481,1.095313 0.2,1.75 -0.669336,0.246875 -1.6,-0.55 -0.025,5.86e-4 -0.05,-0.05 -0.914258,-1.259961 -1.1,-3.1 l 0,-0.05 q -0.06445,-0.6125 -0.15,-1.25 -0.07793,-1.430859 -0.15,-2.9 l 0,0 Q 30.09668,36.266016 31.2,34.5 m 3.35,1.35 q 0.05195,-0.325586 0.15,-0.6 l 0,-0.05 q 0.292969,-0.472461 1,-0.45 l 0,0 q 0.213672,-0.01348 0.35,0 0.223437,0.03887 0.4,-0.05 0.09453,0.183398 0.25,0.25 0.708008,0.456445 0.7,1.65 -0.658203,2.251953 -0.8,4.4 0.01894,0.359961 0,0.7 0.03106,0.584961 0.05,1.15 0.0625,0.74375 0.15,1.45 0.07637,0.285156 0.3,0.45 0.185352,0.112109 0.35,0.1 -0.09395,0.192578 -0.25,0.35 -0.497852,0.637305 -1.3,0.8 -0.757617,0.155664 -1.15,-0.2 3.91e-4,0.01133 -0.05,0 -0.254688,-0.466797 -0.25,-1.45 0.0791,-1.481445 0.05,-2.95 -0.0291,-0.668164 -0.1,-1.35 -0.07246,-2.122852 0.15,-4.2 m -6.75,-2.1 q 0.754102,-0.05723 1.9,0.45 -1.09082,1.957227 -1.05,4 l 0,0 q 0.100977,1.407227 0.2,2.75 0.06172,0.764258 0.1,1.5 l 0,0 q 0.180273,1.494141 0.7,2.65 -0.174609,-0.01641 -0.4,-0.1 -0.957617,-0.25625 -1.5,-1.3 l 0,-0.05 -0.25,-0.55 q -0.312891,-0.98418 -0.55,-2.2 -0.20918,-0.941992 -0.35,-2.05 -0.0707,-0.479297 -0.1,-0.95 0.01894,-0.202539 -0.1,-0.4 0.112109,-0.114844 0.1,-0.3 0.09258,-1.44707 0.6,-2.75 0.218164,-0.558203 0.7,-0.7 m -46.35,-133.1 q 0.2625,0.108789 0.5,0.25 2.479297,1.152344 3.85,3.15 1.246094,1.898437 1.5,4.55 -2.214648,5.626758 -9.65,6.35 -0.760937,-0.17793 -1.6,-0.2 -2.598242,-0.907422 -3.7,-4.25 0.01367,-0.03594 0,-0.1 -1.844922,-4.397461 -0.05,-8.25 0.05371,0.0016 0.05,-0.05 0.393945,-0.450781 0.9,-0.7 0.202734,0.007 0.35,-0.1 4.230859,-2.21113 7.8,-0.65 l 0.05,0 m 6,20.6 q 1.021484,1.282422 0.55,3.5 -0.771875,4.050195 -2.1,7.75 -1.619141,4.685156 -5.65,6.4 -1.746289,0.767578 -3.5,1.5 -0.06523,-0.0098 -0.1,-0.05 l -0.05,-0.05 -0.05,0 q 0.65918,-1.057812 1.3,-2.25 l 0,0 q 0.122266,-0.224805 0.25,-0.45 0.686523,-1.408203 1.3,-2.95 0.08281,-0.133203 0.05,-0.3 -0.08555,-3.729688 -1.75,-8 l -0.05,0 q -1.100391,-2.528906 -2.5,-4.75 -0.636133,-1.880859 -2.4,-3.35 -1.248633,-5.1 -5.1,-8.2 -1.025,-0.817383 -2.1,-1.55 0.08945,-1.882031 -0.55,-3.2 l -0.05,-0.05 q -0.444141,-0.919727 -1.25,-1.55 l -0.05,-0.05 q -0.0293,-0.02461 -0.1,-0.1 1.417578,-0.850586 3.55,-0.7 0.781836,0.138672 1.45,-0.7 0.03769,-1.95e-4 0.05,-0.05 0.114844,-0.122461 0.25,-0.25 0.06387,-0.01055 0.1,-0.05 0.902344,-0.80625 2.35,-0.75 -0.05918,0.05606 -0.1,0.1 -0.223047,0.442969 -0.4,0.85 -1.783984,4.169141 0.15,8.9 0.03574,0.05059 0.05,0.05 1.300977,4.026758 4.45,5.1 0.50293,0.509375 1.05,0.9 0.457617,0.367969 0.95,0.65 2.626563,1.628906 6.3,2.05 2.636328,0.321094 3.7,1.6 m 1.15,-0.95 q -1.323633,-1.707227 -4.65,-2.15 -3.315625,-0.341406 -5.7,-1.75 7.242773,-0.879492 9.9,-6.05 1.263867,2.378711 2.4,4.3 1.3947266,2.412305 2.3,5.05 l 0.05,0 q 1.0003906,2.680273 1.5,5.3 0.017578,0.07637 0.05,0.15 0.7867187,1.863672 0.3,3.9 -0.6113281,2.694141 -1.05,5.4 -0.3568359,2.777734 -1.65,5.25 -0.2076172,0.429883 -0.4,0.85 -0.05332,0.251172 0,0.45 -0.098633,0.124414 -0.15,0.25 -0.5623047,1.569336 -2.05,2.25 -2.219336,1.017969 -4.2,2.35 -2.287695,1.605664 -4.9,1.55 l -0.05,0 q -0.98125,-0.04121 -1.9,0.4 -0.963477,0.430469 -1.95,0.2 -1.345508,-0.38418 -2.75,-0.95 0.02168,-0.06855 0,-0.1 -0.08418,-0.0059 -0.2,0 -0.121289,-0.02207 -1.75,-0.2 1.787891,-1.72168 2.75,-2.9 1.005273,-1.167578 1.5,-2.2 2.981836,-0.573633 4.8,-1.4 4.646484,-1.922656 6.5,-7.3 1.347266,-3.758008 2.15,-7.9 0.615625,-3.00625 -0.85,-4.75 m -27.05,-15.7 q 0.171094,-0.01621 0.25,-0.1 0.187891,0.06348 0.35,0.05 0.116406,0.0012 0.2,-0.05 0.105859,0.167187 0.25,0.25 0.09863,0.03066 0.15,0.05 l 0.05,0.05 q 0.553711,0.448047 0.85,1.1 l 0,-0.05 q 0.560742,1.196875 0.4,2.95 -0.01894,0.209961 0.05,0.4 0.120508,0.188086 0.3,0.3 1.210156,0.736328 2.35,1.65 2.239063,1.80332 3.5,4.35 -2.137109,-2.031836 -4.7,-3.7 -7.191797,-4.675586 -15.5,-4.7 -0.826562,-0.639063 -1,-1.25 -0.01836,-0.593359 0.65,-1.25 0.159961,-0.09277 0.2,-0.25 0.200977,-0.02754 0.35,-0.15 0.05664,-0.04453 0.1,-0.1 0.180664,0.06855 0.35,0 2.486133,-0.538867 4.6,1.35 l 0.55,0.2 q 3.050391,-0.274219 5.7,-1.1 m 10,14.55 q 1.246289,1.492578 2.3,3.15 0.05762,0.07793 0.1,0.1 1.317187,2.133203 2.4,4.55 l 0,-0.05 q 1.516992,3.907031 1.65,7.35 -0.694531,1.643359 -1.45,3.1 -0.916016,1.716992 -1.75,3.05 -0.790234,1.382031 -2,2.85 -1.203711,1.525586 -2.25,2.65 l 0,0 q -2.1625,2.092578 -3.15,2.8 -0.02793,0.03633 -0.1,0.05 -5.087891,3.59375 -13,2.55 1.924805,-5.850977 8.95,-5.15 0.266406,0.05371 0.45,-0.1 6.591406,-4.041406 8.95,-9.9 1.36543,-3.322461 1.4,-7 1.3375,0.973242 1.9,3.1 0.08008,0.218359 0.2,0.35 0.175195,-0.240039 -0.05,-2.1 -0.185547,-1.858008 -1.45,-2.7 -1.250586,-0.802148 -2.8,-0.9 -1.551367,-0.03769 -2.55,0.55 -0.945508,0.569727 -1.2,0.9 0.205273,-0.03203 0.4,-0.1 1.677539,-0.338086 4.1,0.3 0.06914,3.707031 -1.3,7.05 -2.181445,5.344727 -8.15,9.1 -8.248633,-0.751563 -10.35,6.45 -3.630664,-0.228711 -4.45,1.4 -0.755273,1.077734 0.05,3.05 -5.983594,-3.343555 -9.45,-9.3 -3.728516,-6.421875 -3.65,-14.2 0.122852,-7.683984 3.9,-14 3.95332,-6.554688 10.8,-9.5 7.893164,0.03906 14.75,4.5 3.85,2.494922 6.7,5.95 0.0625,0.04824 0.1,0.1 l 0,0 m -9.9,44.35 q -1.05918,5.537891 -0.5,11.2 0.145117,1.559961 -0.05,3.2 -0.01152,0.306641 0.15,0.55 0.220117,0.239453 0.5,0.25 0.230078,0.04727 0.4,-0.05 -1.232617,2.983789 -1.15,6.45 0.11543,5.7958984 1.45,9.05 1.263867,3.2693359 5.15,7.65 0.201172,0.2023438 0.45,0.25 0.219336,0.037695 0.4,-0.1 0.250977,-0.057813 0.35,-0.25 0.440625,-0.72539062 1.15,-1.65 1.586133,9.8855469 11.75,20.25 -0.914844,-0.457812 -1.9,-0.9 -2.112305,-1.287891 -4.25,-2.6 -14.85,-9.0113281 -18.6,-26.4 -3.607227,-16.614258 5.6,-30 -0.561719,1.529102 -0.9,3.1 z"
         id="path60077"
         inkscape:connector-curvature="0"
         style="fill:#001b39;stroke:none" />
      <path
         d="m -38.85,-25.3 q -0.55918,-5.662109 0.5,-11.2 0.338281,-1.570898 0.9,-3.1 -9.207227,13.385742 -5.6,30 3.75,17.3886719 18.6,26.4 2.137695,1.312109 4.25,2.6 0.985156,0.442188 1.9,0.9 -10.163867,-10.3644531 -11.75,-20.25 -0.709375,0.92460938 -1.15,1.65 -0.09902,0.1921875 -0.35,0.25 -0.180664,0.1376953 -0.4,0.1 -0.248828,-0.047656 -0.45,-0.25 -3.886133,-4.3806641 -5.15,-7.65 -1.33457,-3.2541016 -1.45,-9.05 -0.08262,-3.466211 1.15,-6.45 -0.169922,0.09727 -0.4,0.05 -0.279883,-0.01055 -0.5,-0.25 -0.161523,-0.243359 -0.15,-0.55 0.195117,-1.640039 0.05,-3.2 z"
         id="path60079"
         inkscape:connector-curvature="0"
         style="fill:#014698;stroke:none" />
      <path
         d="m -26.15,-77.7 q -1.053711,-1.657422 -2.3,-3.15 l 0,0 q -0.0375,-0.05176 -0.1,-0.1 -2.85,-3.455078 -6.7,-5.95 -6.856836,-4.460938 -14.75,-4.5 -6.84668,2.945312 -10.8,9.5 -3.777148,6.316016 -3.9,14 -0.07852,7.778125 3.65,14.2 3.466406,5.956445 9.45,9.3 -0.805273,-1.972266 -0.05,-3.05 0.819336,-1.628711 4.45,-1.4 2.101367,-7.201563 10.35,-6.45 5.968555,-3.755273 8.15,-9.1 1.369141,-3.342969 1.3,-7.05 -2.422461,-0.638086 -4.1,-0.3 -0.194727,0.06797 -0.4,0.1 0.254492,-0.330273 1.2,-0.9 0.998633,-0.587695 2.55,-0.55 1.549414,0.09785 2.8,0.9 1.264453,0.841992 1.45,2.7 0.225195,1.859961 0.05,2.1 -0.119922,-0.131641 -0.2,-0.35 -0.5625,-2.126758 -1.9,-3.1 -0.03457,3.677539 -1.4,7 -2.358594,5.858594 -8.95,9.9 -0.183594,0.153711 -0.45,0.1 -7.025195,-0.700977 -8.95,5.15 7.912109,1.04375 13,-2.55 0.07207,-0.01367 0.1,-0.05 0.9875,-0.707422 3.15,-2.8 l 0,0 q 1.046289,-1.124414 2.25,-2.65 1.209766,-1.467969 2,-2.85 0.833984,-1.333008 1.75,-3.05 0.755469,-1.456641 1.45,-3.1 -0.133008,-3.442969 -1.65,-7.35 l 0,0.05 q -1.082813,-2.416797 -2.4,-4.55 -0.04238,-0.02207 -0.1,-0.1 z"
         id="path60081"
         style="fill:url(#Gradient_1-9);stroke:none"
         inkscape:connector-curvature="0" />
      <path
         d="m -38.2,-95.5 q -0.07891,0.08379 -0.25,0.1 -2.649609,0.825781 -5.7,1.1 -0.139648,0.0057 -0.3,-0.05 -0.128125,-0.04883 -0.25,-0.15 -2.113867,-1.888867 -4.6,-1.35 -0.169336,0.06855 -0.35,0 -0.04336,0.05547 -0.1,0.1 -0.149023,0.122461 -0.35,0.15 -0.04004,0.157227 -0.2,0.25 -0.668359,0.656641 -0.65,1.25 0.173438,0.610937 1,1.25 8.308203,0.02441 15.5,4.7 2.562891,1.668164 4.7,3.7 -1.260937,-2.54668 -3.5,-4.35 -1.139844,-0.913672 -2.35,-1.65 -0.179492,-0.111914 -0.3,-0.3 -0.06894,-0.190039 -0.05,-0.4 0.160742,-1.753125 -0.4,-2.95 l 0,0.05 q -0.296289,-0.651953 -0.85,-1.1 l -0.05,-0.05 q -0.05137,-0.01934 -0.15,-0.05 -0.144141,-0.08281 -0.25,-0.25 -0.08359,0.05117 -0.2,0.05 -0.162109,0.01348 -0.35,-0.05 m -2.15,1.2 q 3.147266,-0.195508 3.35,3.15 -1.924805,-1.989844 -3.35,-3.15 M 58.7,85.1 q -0.578516,-0.313477 -1.55,-0.55 0.579297,1.795703 1.35,3.45 0.743164,1.599023 1.45,3.05 L 58.7,85.1 m -4.25,-1 q -0.369531,-1.111133 -0.75,-2.2 -4.820898,-2.928906 -6.7,-8 0.766406,2.511523 1.55,5 1.018555,3.409766 2.55,6.6 1.5375,3.179883 3.05,6.25 1.645313,3.187109 3.9,5.8 1.092578,1.27793 2.35,2.3 Q 57.139063,91.640039 54.45,84.1 M 25.2,44.9 q -0.354688,0.0207 -0.75,0 -0.381836,0.025 -0.85,0 l -0.05,0 q 3.136133,4.734961 4.2,11.05 1.1625,6.894727 3.6,12.5 1.98418,4.524414 6.85,8.85 -2.77207,-11.131055 -4.3,-15.5 -0.362891,-0.994141 -0.65,-1.7 0.115039,0.09922 0.15,0.25 l 0,0 0.05,0 q 0.0416,0.174609 0.05,0.3 l 0.2,0.45 q 2.790234,1.67832 3.9,4.85 1.22832,3.409961 2.7,6.6 1.563281,3.195898 2.6,6.55 1.125781,3.393945 2.3,6.8 1.103516,3.144727 3.05,5.85 2.093359,2.931641 4.15,5.9 2.003906,2.97441 5.95,4.3 -10.058984,-14.668555 -16,-35.45 2.558008,2.672852 4.15,5.75 -0.173633,-0.694727 -0.3,-1.45 -1.54043,-8.797461 -7.1,-15.25 1.09043,6.528516 0.8,11.2 Q 36.897266,61.169141 33.65,55.6 30.348633,49.916406 25.2,44.9 M 5.2,-5 Q 4.8158203,-6.2207031 4.45,-7.35 3.9748047,-8.9275391 3.2,-10.45 q -2.1746094,-4.117187 -4,-8.45 -2.2134766,-5.107227 -3.75,-10.35 -0.4818359,-1.744336 -1.05,-3.55 l 0,0 q -0.3554687,-1.275586 -0.55,-3.9 -0.00312,-0.25293 -0.05,-0.55 -0.041211,0.129102 -0.1,0.2 -0.3380859,0.479297 -0.4,0.55 l 0.1,-0.5 q -0.066992,0.06172 -0.05,-0.05 0.04668,-0.01035 0.05,-0.05 l 0.15,-1 q -0.07168,-0.311133 -0.2,-0.65 -0.1550781,0.204883 -0.35,0.4 -0.2710938,0.324219 -0.55,0.6 -1.2611328,-0.521289 -2.6,-0.1 -6.206641,2.018359 -9.8,-2.95 -1.019531,-1.405273 -2.65,-1.15 -1.079297,0.195703 -2.1,0.2 -4.629883,4.346484 -5.95,10.8 2.274414,-1.501172 2.9,-1.5 -0.57832,3.660938 -1.45,7.7 2.264258,-2.251562 4.65,-4.15 -0.02734,1.747852 0.1,3.4 0.02773,0.03535 0,0.05 0.443945,4.742383 2.5,8.85 1.091797,-4.249219 2.55,-8.45 6.89375,3.137891 12.7,7.9 1.0449219,0.888281 2.15,1.3 -1.1283203,-0.201367 -2.3,-0.5 -5.415234,-1.216211 -11.25,-3.9 -2.792187,3.103125 -4.95,8.05 -2.741797,-5.688672 -1.4,-13.25 l -0.05,-0.05 q -4.731055,1.751953 -6.85,6.5 -0.43457,6.000781 0.45,11.5 2.855469,-0.8865234 4.55,0.95 0.946289,0.9494141 1,2.35 0.713672,10.8324219 7.35,19.05 1.595898,1.966602 3.25,3.85 0.595898,0.798438 1.35,1.45 7.0908203,6.121094 16.55,7.9 0.671875,0.432422 1.35,0.95 1.6867187,1.280859 3.1,1.95 3.396094,1.676953 5.35,0 0.02188,3.91e-4 0.05,-0.05 2.848047,-2.451758 5.85,0.05 0.857031,0.736328 1.7,1.85 0.333398,-0.989648 0.75,-1.85 2.439062,-5.012695 8.6,-4.5 1.993359,0.207422 3.3,0.4 Q 29.253906,20.256055 21.1,15.25 10.185547,8.5445313 5.2,-5 M -11,-30.1 q -0.0793,2.122266 -0.55,3.45 -2.719336,-3.675391 -3.4,-8.5 2.941992,-0.502344 6.3,-1.5 -1.757227,1.876953 -2.8,2.65 0.481445,1.840039 0.45,3.9 z"
         id="path60083"
         inkscape:connector-curvature="0"
         style="fill:#ffcc00;stroke:none" />
      <path
         d="m -37,-91.15 q -0.202734,-3.345508 -3.35,-3.15 1.425195,1.160156 3.35,3.15 m 20.95,9.3 q 3.326367,0.442773 4.65,2.15 1.465625,1.74375 0.85,4.75 -0.802734,4.141992 -2.15,7.9 -1.853516,5.377344 -6.5,7.3 -1.818164,0.826367 -4.8,1.4 -0.494727,1.032422 -1.5,2.2 -0.962109,1.17832 -2.75,2.9 1.628711,0.17793 1.75,0.2 0.11582,-0.0059 0.2,0 0.02168,0.03144 0,0.1 1.404492,0.56582 2.75,0.95 0.986523,0.230469 1.95,-0.2 0.91875,-0.441211 1.9,-0.4 l 0.05,0 q 2.612305,0.05566 4.9,-1.55 1.980664,-1.332031 4.2,-2.35 1.4876953,-0.680664 2.05,-2.25 0.051367,-0.125586 0.15,-0.25 -0.05332,-0.198828 0,-0.45 0.1923828,-0.420117 0.4,-0.85 1.2931641,-2.472266 1.65,-5.25 0.4386719,-2.705859 1.05,-5.4 0.4867187,-2.036328 -0.3,-3.9 -0.032422,-0.07363 -0.05,-0.15 -0.4996094,-2.619727 -1.5,-5.3 l -0.05,0 q -0.9052734,-2.637695 -2.3,-5.05 -1.136133,-1.921289 -2.4,-4.3 -2.657227,5.170508 -9.9,6.05 2.384375,1.408594 5.7,1.75 z"
         id="path60085"
         inkscape:connector-curvature="0"
         style="fill:#333333;stroke:none" />
      <path
         d="m -29,-89.05 q -0.01426,5.86e-4 -0.05,-0.05 -1.933984,-4.730859 -0.15,-8.9 -0.838477,0.674414 -1.75,2.15 -2.272461,0.185938 -4.1,1.1 l 0.05,0.05 q 0.639453,1.317969 0.55,3.2 1.075,0.732617 2.1,1.55 3.851367,3.1 5.1,8.2 1.763867,1.469141 2.4,3.35 1.399609,2.221094 2.5,4.75 l 0.05,0 q 1.664453,4.270312 1.75,8 0.03281,0.166797 -0.05,0.3 -0.613477,1.541797 -1.3,2.95 2.070898,-0.480664 4.2,-2.55 3.185742,-3.015625 3.55,-7.4 0.443359,-4.879687 -3.4,-6.45 -2.902734,-1.19375 -5,-3.6 -0.492383,-0.282031 -0.95,-0.65 -0.54707,-0.390625 -1.05,-0.9 -3.149023,-1.073242 -4.45,-5.1 M -17.85,-94 q 0.244336,-1.776172 -1.65,-2.1 -1.037305,0.104492 -1.55,1.1 -0.366406,0.694141 0,1.4 0.808398,1.493359 2.35,0.8 0.767383,-0.331055 0.85,-1.2 z"
         id="path60087"
         inkscape:connector-curvature="0"
         style="fill:#ffffff;stroke:none" />
      <path
         d="m -29.2,-98 q 0.176953,-0.407031 0.4,-0.85 0.04082,-0.04395 0.1,-0.1 -1.447656,-0.05625 -2.35,0.75 -0.03613,0.03945 -0.1,0.05 -0.135156,0.127539 -0.25,0.25 -0.01231,0.04981 -0.05,0.05 -0.668164,0.838672 -1.45,0.7 -2.132422,-0.150586 -3.55,0.7 0.0707,0.07539 0.1,0.1 l 0.05,0.05 q 0.805859,0.630273 1.25,1.55 1.827539,-0.914062 4.1,-1.1 0.911523,-1.475586 1.75,-2.15 m 17.2,22.75 q 0.471484,-2.217578 -0.55,-3.5 -1.063672,-1.278906 -3.7,-1.6 -3.673437,-0.421094 -6.3,-2.05 2.097266,2.40625 5,3.6 3.843359,1.570313 3.4,6.45 -0.364258,4.384375 -3.55,7.4 -2.129102,2.069336 -4.2,2.55 -0.127734,0.225195 -0.25,0.45 l 0,0 q -0.64082,1.192188 -1.3,2.25 l 0.05,0 0.05,0.05 q 0.03477,0.04023 0.1,0.05 1.753711,-0.732422 3.5,-1.5 4.030859,-1.714844 5.65,-6.4 1.328125,-3.699805 2.1,-7.75 z"
         id="path60089"
         inkscape:connector-curvature="0"
         style="fill:#dcdcdc;stroke:none" />
      <path
         d="m -18.05,-99.1 q -0.2375,-0.141211 -0.5,-0.25 l -0.05,0 q -3.569141,-1.56113 -7.8,0.65 -0.147266,0.107031 -0.35,0.1 -0.506055,0.249219 -0.9,0.7 0.0037,0.05156 -0.05,0.05 -1.794922,3.852539 0.05,8.25 0.01367,0.06406 0,0.1 1.101758,3.342578 3.7,4.25 0.839063,0.02207 1.6,0.2 7.435352,-0.723242 9.65,-6.35 -0.253906,-2.651563 -1.5,-4.55 -1.370703,-1.997656 -3.85,-3.15 m 1.4,6.7 q -0.0029,2.148828 -1.35,3.65 -1.287695,1.513672 -3.15,1.5 -1.875,0.01367 -3.2,-1.5 -1.30957,-1.501172 -1.3,-3.65 -0.0096,-2.099023 1.3,-3.6 1.325,-1.501172 3.2,-1.5 1.862305,-0.0012 3.15,1.5 1.34707,1.500977 1.35,3.6 z"
         id="path60091"
         style="fill:url(#Gradient_2-0);stroke:none"
         inkscape:connector-curvature="0" />
      <path
         d="m -18,-88.75 q 1.34707,-1.501172 1.35,-3.65 -0.0029,-2.099023 -1.35,-3.6 -1.287695,-1.501172 -3.15,-1.5 -1.875,-0.0012 -3.2,1.5 -1.30957,1.500977 -1.3,3.6 -0.0096,2.148828 1.3,3.65 1.325,1.513672 3.2,1.5 1.862305,0.01367 3.15,-1.5 m -1.5,-7.35 q 1.894336,0.323828 1.65,2.1 -0.08262,0.868945 -0.85,1.2 -1.541602,0.693359 -2.35,-0.8 -0.366406,-0.705859 0,-1.4 0.512695,-0.995508 1.55,-1.1 z"
         id="path60093"
         inkscape:connector-curvature="0"
         style="fill:#202000;stroke:none" />
      <path
         d="m 29.7,34.2 q -1.145898,-0.507227 -1.9,-0.45 -0.481836,0.141797 -0.7,0.7 -0.507422,1.30293 -0.6,2.75 0.01211,0.185156 -0.1,0.3 0.118945,0.197461 0.1,0.4 0.0293,0.470703 0.1,0.95 0.14082,1.108008 0.35,2.05 0.237109,1.21582 0.55,2.2 l 0.25,0.55 0,0.05 q 0.542383,1.04375 1.5,1.3 0.225391,0.08359 0.4,0.1 -0.519727,-1.155859 -0.7,-2.65 l 0,0 q -0.03828,-0.735742 -0.1,-1.5 -0.09902,-1.342773 -0.2,-2.75 l 0,0 q -0.04082,-2.042773 1.05,-4 m 5,1.05 q -0.09805,0.274414 -0.15,0.6 -0.222461,2.077148 -0.15,4.2 0.0709,0.681836 0.1,1.35 0.0291,1.468555 -0.05,2.95 -0.0047,0.983203 0.25,1.45 0.05039,0.01133 0.05,0 0.392383,0.355664 1.15,0.2 0.802148,-0.162695 1.3,-0.8 0.156055,-0.157422 0.25,-0.35 -0.164648,0.01211 -0.35,-0.1 -0.223633,-0.164844 -0.3,-0.45 -0.0875,-0.70625 -0.15,-1.45 -0.01894,-0.565039 -0.05,-1.15 0.01894,-0.340039 0,-0.7 0.141797,-2.148047 0.8,-4.4 0.008,-1.193555 -0.7,-1.65 -0.155469,-0.0666 -0.25,-0.25 -0.176563,0.08887 -0.4,0.05 -0.136328,-0.01348 -0.35,0 l 0,0 q -0.707031,-0.02246 -1,0.45 l 0,0.05 M 33.2,35.1 q -1.00293,-1.036914 -2,-0.6 -1.10332,1.766016 -1.05,3.65 l 0,0 q 0.07207,1.469141 0.15,2.9 0.08555,0.6375 0.15,1.25 l 0,0.05 q 0.185742,1.840039 1.1,3.1 0.025,0.05059 0.05,0.05 0.930664,0.796875 1.6,0.55 -0.224805,-0.654687 -0.2,-1.75 0.05566,-1.520312 0,-3.05 0.002,-0.553906 -0.05,-1.15 -0.09434,-2.225 0.1,-4.4 l 0,-0.05 Q 33.12266,35.355664 33.2,35.1 M 7.05,36.75 Q 7.2390625,36.017187 7.6,35.5 7.2039062,34.943359 6.7,34.65 L 6.65,34.6 Q 5.2902344,33.785156 4.4,35.05 2.1955078,42.289453 6.15,45.7 q 0.1226562,0.05586 0.2,0.15 0.1730469,0.144922 0.35,0.25 0.2244141,0.111133 0.45,0.15 l 0,0 q 0.3746094,0.09785 0.7,0.1 Q 7.6333984,45.955859 7.45,45.5 6.5912109,43.365234 6.55,41.05 6.471875,38.873828 7.05,36.75 M 2.9,35.05 q -0.4615234,-0.286328 -0.95,-0.6 -1.26210938,1.781641 -1.85,3.4 -1.09375,2.970703 0.3,5.45 0.0462891,0.08809 0.05,0.15 0.7664062,1.270898 2.15,2.4 l 0,0.05 Q 3.5904297,46.627734 4.55,46.2 0.76113281,42.43418 2.9,35.05 m 8.55,1.75 0.05,0 Q 11.051172,35.900391 10.15,35.5 9.4591797,35.637109 9,36.05 8.6308594,36.471875 8.45,37.1 l 0,0.05 Q 7.9548828,39.052734 8,41 q 0.051758,2.056055 0.8,3.95 0.2720703,0.706055 0.7,1.2 0.742383,0.730273 1.85,0.9 1.849609,0.275586 2.15,-1.55 l -0.05,0 q 0.07773,-0.316211 0.1,-0.65 -1.134375,-0.08516 -2.3,-0.25 -0.272266,-0.05078 -0.45,-0.3 -0.142187,-0.185156 -0.15,-0.4 -0.221875,-1.007813 -0.25,-2.05 0.03164,-1.906445 0.2,-3.8 0.02012,-0.317187 0.05,-0.65 0.03652,-0.269141 0.25,-0.45 0.269922,-0.187305 0.55,-0.15 z"
         id="path60095"
         inkscape:connector-curvature="0"
         style="fill:#7a7a7a;stroke:none" />
      <path
         d="M 40.3,72.55 Q 38.82832,69.359961 37.6,65.95 36.490234,62.77832 33.7,61.1 L 40.5,79 q 0.07344,0.133984 0.1,0.25 l 0.05,0.05 q 0.03711,0.075 0.05,0.15 10.310547,23.71953 22.95,29.45 l -0.85,-4.15 q -0.0068,-0.0717 0,-0.2 l -0.65,-2.85 q -0.01445,-0.0967 -0.05,-0.2 l -1.4,-6.8 0,0.05 -0.15,-0.85 0,-0.05 -0.6,-2.8 Q 59.243164,89.599023 58.5,88 q -0.770703,-1.654297 -1.35,-3.45 -0.539844,-1.603125 -0.95,-3.3 -0.738086,-3.415039 -2.6,-6.5 -1.717773,-2.820703 -3.9,-5.3 1.779297,5.980859 4,12.45 0.380469,1.088867 0.75,2.2 2.689063,7.540039 5.95,15.75 -1.257422,-1.02207 -2.35,-2.3 -2.254687,-2.612891 -3.9,-5.8 -1.5125,-3.070117 -3.05,-6.25 -1.531445,-3.190234 -2.55,-6.6 -0.783594,-2.488477 -1.55,-5 -0.201953,-0.750977 -0.45,-1.55 -0.0094,-0.02656 -0.05,-0.1 -1.591992,-3.077148 -4.15,-5.75 5.941016,20.781445 16,35.45 -3.946094,-1.32559 -5.95,-4.3 -2.056641,-2.968359 -4.15,-5.9 -1.946484,-2.705273 -3.05,-5.85 -1.174219,-3.406055 -2.3,-6.8 -1.036719,-3.354102 -2.6,-6.55 z"
         id="path60097"
         inkscape:connector-curvature="0"
         style="fill:#e9ae01;stroke:none" />
      <path
         d="m 45.25,42.85 q -1.762695,-0.04473 -3.55,0.1 -1.082227,0.07676 -2.2,0.25 -0.05508,1.575195 -1.15,2.9 -0.835742,1.072852 -2.15,1.35 -1.210547,0.249609 -2,-0.15 -1.415039,1.01875 -3.4,-0.55 -0.625,0.03398 -1.95,-0.3 l 0,0 q -1.386133,-0.371094 -2.2,-1.7 -0.673047,0.105664 -1.45,0.15 5.148633,5.016406 8.45,10.7 3.247266,5.569141 6.25,11.15 0.29043,-4.671484 -0.8,-11.2 5.55957,6.452539 7.1,15.25 0.126367,0.755273 0.3,1.45 0.04062,0.07344 0.05,0.1 0.248047,0.799023 0.45,1.55 1.879102,5.071094 6.7,8 -2.220703,-6.469141 -4,-12.45 2.182227,2.479297 3.9,5.3 1.861914,3.084961 2.6,6.5 0.410156,1.696875 0.95,3.3 0.971484,0.236523 1.55,0.55 L 55.3,68.45 Q 53.088281,60.862305 50.85,55.05 48.684375,49.394727 45.75,42.9 45.536719,42.8791 45.3,42.85 l -0.05,0 m -63.35,-63.1 q 5.834766,2.683789 11.25,3.9 1.1716797,0.298633 2.3,0.5 -1.1050781,-0.411719 -2.15,-1.3 -5.80625,-4.762109 -12.7,-7.9 -1.458203,4.200781 -2.55,8.45 -2.056055,-4.107617 -2.5,-8.85 -1.341797,7.561328 1.4,13.25 2.157813,-4.946875 4.95,-8.05 M -6.05,-37.4 q -0.022461,0.04141 -0.05,0.05 l 0,0 q 0.029297,5.86e-4 0.05,-0.05 m -0.1,0.1 -0.05,0 q -0.085742,0.120703 -0.2,0.2 -0.1212891,0.104102 -0.2,0.1 l -0.1,0.5 q 0.061914,-0.0707 0.4,-0.55 0.058789,-0.0709 0.1,-0.2 0.049609,0.0037 0.05,-0.05 l 0,0 m -0.4,0.15 q 0.047656,-0.05234 0.1,-0.1 0.1142578,-0.07559 0.25,-0.15 -0.1091797,-0.323633 -0.25,-0.7 l -0.15,1 0.05,-0.05 m 31.7,74.7 q -0.09629,-0.174023 -0.1,-0.4 -0.01289,0.383594 0,0.75 0.0059,-0.198828 0.1,-0.35 M 13,30.9 q -0.02812,0.05039 -0.05,0.05 -1.953906,1.676953 -5.35,0 Q 6.1867187,30.280859 4.5,29 3.821875,28.482422 3.15,28.05 -6.3091797,26.271094 -13.4,20.15 -14.154102,19.498438 -14.75,18.7 -16.404102,16.816602 -18,14.85 -24.636328,6.6324219 -25.35,-4.2 q -0.05371,-1.4005859 -1,-2.35 -1.694531,-1.8365234 -4.55,-0.95 -0.88457,-5.499219 -0.45,-11.5 2.118945,-4.748047 6.85,-6.5 0.04902,0.01016 0.05,0 -0.127344,-1.652148 -0.1,-3.4 -2.385742,1.898438 -4.65,4.15 0.87168,-4.039062 1.45,-7.7 -0.625586,-0.0012 -2.9,1.5 1.320117,-6.453516 5.95,-10.8 1.020703,-0.0043 2.1,-0.2 1.630469,-0.255273 2.65,1.15 3.593359,4.968359 9.8,2.95 1.3388672,-0.421289 2.6,0.1 0.2789062,-0.275781 0.55,-0.6 0.1949219,-0.195117 0.35,-0.4 0.00859,-0.03301 0,-0.1 -0.1783203,-0.542578 -0.35,-1.15 -2.6867188,-8.430664 -1.3,-16.3 -0.6771484,0.688867 -1.65,1.1 -2.074805,0.989453 -3.95,2.25 -2.708984,1.88418 -5.8,1.8 l -0.05,0 q -0.628906,-0.03301 -1.25,0.25 -1.425,0.669336 -2.9,0.3 l -0.05,0 q -1.900391,-0.50332 -3.9,-1.4 l -2,0.25 q -0.737891,0.773242 -1.55,1.4 l 0,2.8 q -0.0094,0.208008 -0.15,0.35 0.135547,0.16875 0.15,0.35 0.0012,0.298828 -0.2,0.5 -0.02344,0.05137 -0.05,0.05 -4.136328,4.675195 -5.3,10.2 -1.119922,5.591211 -1.1,9.4 0.0709,3.851758 1.45,2.55 1.386914,-1.316211 1.6,-1.35 l 0,0 q -0.266602,0.525 -0.65,1.2 -1.992773,3.875781 -1.9,9.35 0.127539,5.4765625 1.35,8.55 1.119336,2.7990234 4.3,6.5 1.957422,-1.1402344 3.1,-1.95 l 0,0.05 q 1.016211,10.88125 12.95,22.4 0.77832,0.73418 1.55,1.4 7.1353516,6.115234 15.4,10.3 0.4771484,0.2875 0.95,0.55 l 0,0.05 0.1,0 q 0.066992,0.03418 0.1,0.05 l 0,0 q 0.6726563,0.412305 1.3,0.8 1.5576172,-1.771289 3.9,-0.35 L 7.4,33.35 q 0.7294922,0.408008 1.25,1.1 0.6707031,-0.319141 1.5,-0.4 0.176367,-0.01953 0.3,0 2.194141,0.697852 2.75,3.25 0.951953,-0.02832 1.85,0 1.9125,0.04316 3.8,0.05 1.999805,-9.77e-4 4,-0.1 l 0,0 q 1.013867,-0.03633 2.2,-0.1 l 0,-0.05 q 0.08086,-1.673828 0.65,-3.2 l 0,0.05 q 0.575391,-1.410156 1.9,-1.6 1.07832,-0.215039 2.75,0.6 0.185937,0.06894 0.3,0.15 1.667969,-0.864258 3.3,0.7 0.665039,-0.548633 1.75,-0.55 0.129297,0.02676 0.2,0 -0.300195,-1.143164 -0.75,-2.3 -0.671484,-1.820313 -1.65,-3.55 l 0,0 Q 33.413672,27.21543 33.3,27 l -0.1,-0.15 q -1.306641,-0.192578 -3.3,-0.4 -6.160938,-0.512695 -8.6,4.5 -0.416602,0.860352 -0.75,1.85 -0.842969,-1.113672 -1.7,-1.85 Q 15.848047,28.448242 13,30.9 m -24.55,-57.55 q 0.470703,-1.327734 0.55,-3.45 0.03144,-2.059961 -0.45,-3.9 1.042773,-0.773047 2.8,-2.65 -3.358008,0.997656 -6.3,1.5 0.680664,4.824609 3.4,8.5 z"
         id="path60099"
         inkscape:connector-curvature="0"
         style="fill:#f3b701;stroke:none" />
      <path
         d="m 50.5,42.95 q -0.922656,0.03516 -1.9,0 -0.629492,-0.01348 -1.3,-0.05 2.819336,6.204102 4.9,11.6 2.262695,5.911328 4.5,13.6 0.01367,0.02695 0,0.05 l 5.25,25.45 0,-0.05 0.05,0.1 Q 56.591211,51.377148 50.5,42.95 m -4.4,-7.85 0.05,0 q 1.037305,-0.226953 2.15,-0.4 0.0252,-0.0045 0.05,0 Q 48.141211,32.751172 47.9,30.95 47.510937,27.461914 47.05,24.6 43.15918,26.336328 39.1,22.65 31.983008,19.31582 24.25,13.65 14.142578,6.2431641 7.2,-3.95 12.026172,7.9248047 21.85,14 30.709375,19.417578 34.8,26.65 l 0,0.05 q 1.165625,2.05957 1.95,4.25 0.428711,1.238672 0.75,2.5 0.02539,0.144727 0,0.25 1.202539,0.671875 1.35,2.35 1.561719,0.306836 3,0 2.168555,-0.411523 4.25,-0.95 z"
         id="path60101"
         inkscape:connector-curvature="0"
         style="fill:#0156be;stroke:none" />
      <path
         d="m -6.2,-37.4 0,0 q -0.083008,-0.283203 -0.25,-0.7 0.1408203,0.376367 0.25,0.7 m -19.3,-64.55 q -2.054102,0.2752 -4,1.5 1.205273,-0.0926 2.7,0.3 4.716992,-2.37129 8.75,-0.6 l 0.05,0.05 -0.05,0 q 0.349805,0.11699 0.65,0.25 l 0,0 q 2.830469,1.356445 4.4,3.65 1.254687,1.901563 1.65,4.45 0.204297,0.266992 0.25,0.65 -0.01172,0.168164 0.05,0.25 0.139453,0.285156 0.15,0.5 0.0668,0.08106 0.1,0.15 1.3978516,2.617188 2.65,4.7 1.4515625,2.531836 2.4,5.3 l 0,0 0,0 q 1.0378906,2.717773 1.55,5.4 0.9667969,2.292969 0.4,4.8 -0.6087891,2.631836 -1,5.25 -0.428125,3.04043 -1.85,5.75 -0.1541016,0.333398 -0.3,0.7 -0.038867,0.15 -0.15,0.25 0.05332,0.211719 -0.05,0.4 -0.384375,1.153906 -1.15,1.95 -1.3867188,7.869336 1.3,16.3 0.1716797,0.607422 0.35,1.15 0.00859,0.06699 0,0.1 0.1283203,0.338867 0.2,0.65 0.1005859,0.201953 0.15,0.35 l 0.05,0.1 0.15,0.25 0,0 q -0.015039,-0.292383 -0.05,-0.6 -0.042383,-0.418359 -0.1,-0.85 0.011328,-0.110742 0,-0.25 l 0,-0.1 q -0.7095703,-9.037695 3.1,-15.45 4.06152344,-6.79043 3.25,-14.9 -0.29511719,-2.929883 -0.7,-5.75 -1.2451172,-8.055664 -4.75,-15.55 -1.2339844,-2.653516 -3.05,-4.55 l 0,0 q -0.046484,-0.04785 -0.1,-0.15 -0.049805,-0.02519 -0.1,-0.1 -0.971875,-0.967187 -1.7,-1.95 -6.604492,-6.80195 -15.2,-4.35 M 46.25,19.8 Q 46.22539,19.617383 46.3,19.45 46.144141,19.298242 46.1,19.05 46.08691,18.97109 46.05,18.85 42.511914,18.406055 39.1,16.3 35.433398,14.089648 32.5,10.95 29.564258,7.8931641 27.3,4.2 26.155664,2.3269531 24.2,0.75 q 0.08242,0.2515625 0.15,0.5 2.576172,7.1576172 13.8,19.3 0.850977,0.454492 1.7,0.85 0.09473,0.04844 0.15,0.1 3.506641,3.209766 6.8,1.6 0.0084,-0.08301 0,-0.2 -0.293555,-1.555859 -0.55,-3.1 M 32,-7.35 q -0.53418,-1.1375 -1.1,-2.3 1.787109,12.7810547 6.75,18.5 4.669531,5.352344 7.75,6.55 Q 44.483008,11.080469 43.4,7 43.314062,6.5859375 43.2,6.15 35.881445,0.86757812 32,-7.35 m -6.2,-6.8 0,0 0,0.05 q 2.44668,2.633984 7.25,-0.4 -4.623633,0.800977 -7.55,-2.6 -2.106641,-2.555273 -4,-5.35 0.180273,4.562695 4.3,8.3 M 0.95,-32.75 q -0.28242188,-2.000977 -0.9,-3.9 -0.57167969,4.340625 -0.9,8.4 -0.2570312,4.698438 3.1,7.65 2.7994141,2.442578 6.6,2.6 1.288672,4.899219 6.4,4.9 3.580859,7.81e-4 7.1,0.05 1.965039,0.08848 3.45,-1.1 -3.095508,-0.03516 -6.6,-0.75 -2.681445,-0.526172 -4.35,-2.25 -1.264453,-1.349609 -2.15,-3.1 -1.176367,-0.04219 -2.4,-0.15 -4.7732422,-0.47207 -6.75,-4.45 -1.8736328,-3.717773 -2.6,-7.9 z"
         id="path60103"
         inkscape:connector-curvature="0"
         style="fill:#015ecd;stroke:none" />
      <path
         d="m -6.1,-37.35 0,-0.05 -0.15,-0.25 0.15,0.3 0,0 m -0.35,0.1 q -0.052344,0.04766 -0.1,0.1 l -0.05,0.05 q -0.00332,0.03965 -0.05,0.05 -0.016992,0.111719 0.05,0.05 0.078711,0.0041 0.2,-0.1 -0.00977,-0.07949 -0.05,-0.15 z"
         id="path60105"
         inkscape:connector-curvature="0"
         style="fill:#000000;stroke:none" />
      <path
         d="m -6.15,-37.3 q -3.906e-4,0.05371 -0.05,0.05 0.046875,0.29707 0.05,0.55 0.6308594,1.142773 0,-0.6 m -0.05,0 0.05,0 q -0.0084,-0.03672 -0.05,-0.1 l 0,0 q -0.1357422,0.07441 -0.25,0.15 0.040234,0.07051 0.05,0.15 0.1142578,-0.0793 0.2,-0.2 m -2.3,-58.25 q -0.4587891,-0.572461 -0.95,-1.15 -0.789648,-0.934961 -0.95,-1.05 0.06602,0.08867 0.1,0.15 0.728125,0.982813 1.7,1.95 -0.022852,-0.01016 -0.05,-0.05 l 0.15,0.15 M 7.85,-70.9 Q 5.3037109,-85.388281 0.2,-94.45 l 0,0 q -1.2101563,0.380273 -3.1,-0.7 -2.3417969,-1.355664 -5.05,-2.15 -0.5667969,-0.133398 -0.45,1.9 1.8160156,1.896484 3.05,4.55 3.5048828,7.494336 4.75,15.55 0.40488281,2.820117 0.7,5.75 0.81152344,8.10957 -3.25,14.9 -3.8095703,6.412305 -3.1,15.45 l 0,0.1 q 0.011328,0.139258 0,0.25 0.057617,0.431641 0.1,0.85 0.034961,0.307617 0.05,0.6 l 0,0 0,0.05 q 0.027539,-0.0086 0.05,-0.05 -0.020703,0.05059 -0.05,0.05 2.4925781,6.028711 2.95,7.7 1.5171875,5.154297 3.7,10.2 1.9742188,4.666602 4.4,9.1 L 7.9,-5.5 q 6.940625,10.4386719 17.2,18 6.773828,4.925195 13.05,8.05 Q 26.926172,8.4076172 24.35,1.25 24.282422,1.0015625 24.2,0.75 q 1.955664,1.5769531 3.1,3.45 2.264258,3.6931641 5.2,6.75 2.933398,3.139648 6.6,5.35 3.411914,2.106055 6.95,2.55 -0.25957,-1.519727 -0.6,-3.05 -0.0086,-0.173633 -0.05,-0.4 -3.080469,-1.197656 -7.75,-6.55 -4.962891,-5.7189453 -6.75,-18.5 0.56582,1.1625 1.1,2.3 3.881445,8.21757812 11.2,13.5 -6.893555,-26.360352 -20.05,-42.7 l -0.05,0 Q 11.58125,-49.606445 7.85,-70.9 m -7.8,34.25 q 0.61757812,1.899023 0.9,3.9 0.7263672,4.182227 2.6,7.9 1.9767578,3.97793 6.75,4.45 1.223633,0.107813 2.4,0.15 0.885547,1.750391 2.15,3.1 1.668555,1.723828 4.35,2.25 3.504492,0.714844 6.6,0.75 -4.119727,-3.737305 -4.3,-8.3 1.893359,2.794727 4,5.35 2.926367,3.400977 7.55,2.6 -4.80332,3.033984 -7.25,0.4 l 0,-0.05 0,0 q -1.484961,1.188477 -3.45,1.1 -3.519141,-0.04922 -7.1,-0.05 -5.111328,-7.81e-4 -6.4,-4.9 -3.8005859,-0.157422 -6.6,-2.6 -3.3570312,-2.951562 -3.1,-7.65 0.32832031,-4.059375 0.9,-8.4 z"
         id="path60107"
         inkscape:connector-curvature="0"
         style="fill:#0066ff;stroke:none" />
      <path
         d="m -8.6,-95.65 q 0.050195,0.07481 0.1,0.1 l -0.15,-0.15 q 0.027148,0.03984 0.05,0.05 m -34.9,-9.7 0,0.05 q -4.773633,3.12422 -5.8,7.95 2.865234,-0.527148 5.35,1.55 2.719141,-0.268359 5.1,-1 0.275,-0.04883 0.5,0.05 1.969336,-2.133594 5.55,-1.85 0.114062,-0.03457 0.2,-0.2 0.244336,-0.25918 0.5,-0.5 l 0.05,0 q 1.028711,-1.00332 2.55,-1.15 1.945898,-1.2248 4,-1.5 8.595508,-2.45195 15.2,4.35 -0.03398,-0.06133 -0.1,-0.15 0.160352,0.115039 0.95,1.05 0.4912109,0.577539 0.95,1.15 0.053516,0.102148 0.1,0.15 l 0,0 q -0.1167969,-2.033398 0.45,-1.9 2.7082031,0.794336 5.05,2.15 1.8898437,1.080273 3.1,0.7 -0.63085938,-1.132031 -1.3,-2.2 -0.2125,-0.300195 -0.45,-0.65 -6.9205078,-10.1877 -17.95,-11.65 l -0.05,0 q -15.838867,-1.63457 -23.95,3.6 z"
         id="path60109"
         style="fill:url(#Gradient_3-0);stroke:none"
         inkscape:connector-curvature="0" />
    </g>
    <style
       id="style6"
       type="text/css">
    .str0 {stroke:#006633;stroke-width:282.22}
    .str1 {stroke:#AB754F;stroke-width:282.22}
    .fil2 {fill:none}
    .fil3 {fill:#606062}
    .fil5 {fill:#CE8F64}
    .fil4 {fill:#006633}
    .fil8 {fill:#009933}
    .fil9 {fill:#00B33C}
    .fil10 {fill:#00C943}
    .fil0 {fill:#00D447}
    .fil1 {fill:#00DB49}
    .fil6 {fill:#B88059}
    .fil11 {fill:#BA8058}
    .fil12 {fill:#D49264}
    .fil7 {fill:#E49C6D}
  </style>
    <filter
       inkscape:collect="always"
       id="filter3816"
       color-interpolation-filters="sRGB">
      <feGaussianBlur
         inkscape:collect="always"
         stdDeviation="1.0054185"
         id="feGaussianBlur3818" />
    </filter>
  </defs>
  <metadata
     id="metadata7">
    <rdf:RDF>
      <cc:Work
         rdf:about="">
        <dc:format>image/svg+xml</dc:format>
        <dc:type
           rdf:resource="http://purl.org/dc/dcmitype/StillImage" />
        <dc:title>Bingo das Letras</dc:title>
        <cc:license
           rdf:resource="" />
        <dc:rights>
          <cc:Agent>
            <dc:title>Copyright  2002-2016. Portal Clickideia  - Todos os Direitos Reservados</dc:title>
          </cc:Agent>
        </dc:rights>
        <dc:description>SVG game with snapSVG lib and other javascripts included</dc:description>
        <dc:language>pt_BR</dc:language>
        <dc:subject>
          <rdf:Bag>
            <rdf:li>Educativo</rdf:li>
            <rdf:li>ensino fundamental</rdf:li>
            <rdf:li>clickiia</rdf:li>
            <rdf:li>letras</rdf:li>
            <rdf:li>lingua portuguesa</rdf:li>
            <rdf:li>infantil</rdf:li>
            <rdf:li>educational game</rdf:li>
            <rdf:li>game design</rdf:li>
            <rdf:li>multimidia</rdf:li>
          </rdf:Bag>
        </dc:subject>
        <dc:creator>
          <cc:Agent>
            <dc:title>http://www.clickideia.com.br/</dc:title>
          </cc:Agent>
        </dc:creator>
        <dc:publisher>
          <cc:Agent>
            <dc:title>http://www.clickideia.com.br/</dc:title>
          </cc:Agent>
        </dc:publisher>
        <dc:date>18/01/2016</dc:date>
        <dc:contributor>
          <cc:Agent>
            <dc:title>michel morandi - michel.morandi@clickideia.com.br</dc:title>
          </cc:Agent>
        </dc:contributor>
      </cc:Work>
    </rdf:RDF>
  </metadata>
  <g
     id="g3824"
     transform="matrix(1.3585332,0,0,1.3585332,4.9063814,5.1540168)">
    <g
       transform="translate(85.207726,0.05321117)"
       id="g3820">
      <path
         inkscape:connector-curvature="0"
         id="path3814"
         d="m -25.664052,102.35111 c -2.965899,-1.469 -6.566649,-5.809787 -9.166189,-11.050039 -0.67315,-1.356965 -1.82278,-2.992164 -2.89163,-4.11296 -2.10731,-2.209717 -3.02885,-4.097016 -4.03438,-8.262345 -1.34462,-5.569957 -1.92379,-6.545641 -3.88553,-6.545641 -1.08546,0 -1.41226,0.136855 -1.82211,0.763046 -0.48986,0.748425 -0.54892,0.759222 -3.08199,0.563447 -2.01439,-0.155686 -2.73364,-0.337495 -3.26927,-0.826388 -0.59485,-0.542953 -1.11653,-0.635666 -3.9001,-0.693126 -3.15018,-0.06503 -6.38159,-0.631371 -8.38592,-1.46974 l -1.00863,-0.421892 0.68883,-0.932697 c 0.60694,-0.821821 0.79602,-0.903725 1.59054,-0.688951 0.49595,0.134065 2.85927,0.201646 5.25183,0.150181 3.6451,-0.07841 4.43708,-0.178292 4.8868,-0.616339 0.29518,-0.287526 0.457,-0.716479 0.3596,-0.953231 -0.16622,-0.404044 -4.86765,-3.388661 -10.64106,-6.755289 -6.38826,-3.725168 -9.86074,-9.264452 -10.39495,-16.581999 -0.31625,-4.33192 1.3515,-9.281228 4.24216,-12.589264 1.77668,-2.033219 1.80256,-3.08947 0.0524,-2.140733 -0.36421,0.197436 -1.92132,0.364199 -3.50537,0.375416 l -2.85006,0.02018 0,1.025284 c 0,0.563907 -0.14225,1.073133 -0.3161,1.131617 -0.5632,0.189451 -3.53553,-2.126054 -4.68712,-3.651364 -1.79714,-2.380371 -2.49697,-4.613022 -2.49697,-7.966011 0,-2.247361 0.1461,-3.238353 0.6881,-4.667329 0.85784,-2.261723 2.50385,-4.474117 4.3477,-5.84375 0.95552,-0.709776 1.41436,-1.2697477 1.41436,-1.7261104 0,-0.3715275 0.41494,-1.5546876 0.9221,-2.6292442 1.05417,-2.2335853 2.47397,-3.4062776 5.30428,-4.38110129 2.26287,-0.77938662 6.31121,-1.05193776 8.90597,-0.5995885 5.40151,0.94165059 9.36097,4.84520859 11.55551,11.39234739 0.35151,1.048683 1.10133,3.972296 1.66626,6.496919 1.65481,7.395189 3.23184,11.100477 6.53573,15.355953 3.50004,4.508123 5.22894,7.54282 7.37378,12.943047 2.02529,5.099225 4.04627,13.105837 4.68444,18.558562 0.26606,2.273349 0.48169,2.532109 1.94617,2.33547 1.82194,-0.244639 5.840989,0.203436 5.438529,0.606332 -0.182305,0.182503 -0.331463,0.689296 -0.331463,1.126205 0,1.157241 -0.871773,1.768931 -3.013056,2.114148 -1.04127,0.167874 -1.99785,0.369959 -2.12572,0.449072 -0.12787,0.07912 0.0106,0.714275 0.3077,1.411464 1.36999,3.21481 3.00329,11.283644 4.36014,21.540058 0.426127,3.221066 0.841706,6.355144 0.923512,6.964604 0.08181,0.60947 0.03582,1.17798 -0.102185,1.26337 -0.138007,0.0854 -0.829517,-0.13133 -1.536688,-0.48159 z m -3.455179,-25.312135 c -0.92034,-3.381956 -1.60995,-4.959183 -2.16828,-4.959183 -0.31696,0 -0.30046,0.230392 0.0806,1.126247 1.07856,2.535467 1.71614,4.206349 2.13144,5.585773 0.7971,2.647644 0.76106,1.204691 -0.0438,-1.752837 z m -3.36403,-9.742668 c 0.13458,-0.132801 0.13381,-1.036727 -0.002,-2.008723 l -0.24641,-1.767267 -1.21392,-0.162456 c -0.66765,-0.08935 -1.6119,-0.437509 -2.09833,-0.773687 -0.48643,-0.336174 -1.82944,-1.120077 -2.98447,-1.742003 l -2.10005,-1.130776 1.07797,1.153631 c 1.51084,1.616888 2.24151,2.751863 2.98149,4.631238 0.93253,2.368389 1.06423,2.472755 2.82769,2.240646 0.83218,-0.109532 1.62316,-0.307802 1.75775,-0.440603 z m -0.58044,-5.369933 c 0.31784,-0.514827 -0.70698,-5.432357 -2.2536,-10.813729 -1.71546,-5.968904 -4.88792,-12.290263 -8.39159,-16.72089 -3.8237,-4.83531 -5.03047,-7.606395 -7.01607,-16.110902 -1.84262,-7.89207 -3.38922,-11.3752806 -6.31459,-14.2214882 -1.83178,-1.7822166 -3.99315,-2.7799919 -6.88916,-3.18031303 -2.74025,-0.37878944 -5.50747,-0.16132407 -8.05836,0.63327533 -1.73641,0.5408899 -3.19191,1.5652613 -3.19191,2.2464472 0,0.5132976 2.789,1.9472945 3.79069,1.9490259 0.47268,8.169e-4 1.46694,-0.1936102 2.20945,-0.4320607 2.44762,-0.7860202 4.71554,-1.1538206 5.82725,-0.9450352 1.25816,0.2362869 3.77299,2.4528583 3.77299,3.3255098 0,0.3031607 0.60172,1.7261759 1.33715,3.1622569 0.73544,1.43608 1.60779,3.588702 1.93855,4.783605 0.56873,2.054556 0.57663,2.303222 0.14548,4.578527 -0.25075,1.323288 -0.78559,3.152246 -1.18853,4.064353 -1.22348,2.769506 -0.84689,7.360674 0.99211,12.095272 0.4812,1.238871 1.36947,3.536414 1.97393,5.105652 2.74429,7.124382 6.90789,12.477559 13.09411,16.835188 1.49165,1.050737 6.96337,3.850283 7.56512,3.870613 0.27902,0.0094 0.57466,-0.09196 0.65698,-0.225307 z m -30.12847,-39.094225 c 1.34777,-0.688326 2.43513,-2.660177 3.04915,-5.529443 0.37632,-1.758499 0.37383,-1.772376 -0.44532,-2.477742 -0.45307,-0.390137 -1.11999,-0.712308 -1.48205,-0.715936 -1.07376,-0.01076 -3.01703,-1.036515 -4.32422,-2.282546 -1.41632,-1.350048 -2.03382,-3.1434567 -1.72086,-4.9978539 0.18638,-1.1044228 0.15475,-1.1914628 -0.35435,-0.9748636 -0.30746,0.1308089 -0.93192,0.3018771 -1.3877,0.3801519 -0.45578,0.078275 -0.89293,0.2463603 -0.97143,0.3735241 -0.2976,0.4820426 0.57216,2.298652 1.65357,3.4536955 0.6186,0.660731 1.97726,2.817751 3.01923,4.793377 1.64949,3.127488 1.89643,3.807223 1.90944,5.255818 0.008,0.915074 -0.10027,2.035433 -0.24107,2.489686 -0.30527,0.984885 -0.21128,1.001724 1.29561,0.232132 z m 0.31349,-15.1236176 c 0,-0.220244 -0.0888,-0.4893704 -0.1974,-0.5980593 -0.27131,-0.2716002 -1.03579,0.4014887 -0.83162,0.7321998 0.25564,0.4140804 1.02902,0.3132645 1.02902,-0.1341405 z"
         style="fill:#808080;stroke:#808080;stroke-width:2.94435191;stroke-linejoin:round;stroke-miterlimit:4;stroke-dasharray:none;filter:url(#filter3816)" />
      <path
         style="fill:#ffffff;stroke:#ffffff;stroke-width:2.94435191;stroke-linejoin:round;stroke-miterlimit:4;stroke-dasharray:none"
         d="m -25.664052,102.35111 c -2.965899,-1.469 -6.566649,-5.809787 -9.166189,-11.050039 -0.67315,-1.356965 -1.82278,-2.992164 -2.89163,-4.11296 -2.10731,-2.209717 -3.02885,-4.097016 -4.03438,-8.262345 -1.34462,-5.569957 -1.92379,-6.545641 -3.88553,-6.545641 -1.08546,0 -1.41226,0.136855 -1.82211,0.763046 -0.48986,0.748425 -0.54892,0.759222 -3.08199,0.563447 -2.01439,-0.155686 -2.73364,-0.337495 -3.26927,-0.826388 -0.59485,-0.542953 -1.11653,-0.635666 -3.9001,-0.693126 -3.15018,-0.06503 -6.38159,-0.631371 -8.38592,-1.46974 l -1.00863,-0.421892 0.68883,-0.932697 c 0.60694,-0.821821 0.79602,-0.903725 1.59054,-0.688951 0.49595,0.134065 2.85927,0.201646 5.25183,0.150181 3.6451,-0.07841 4.43708,-0.178292 4.8868,-0.616339 0.29518,-0.287526 0.457,-0.716479 0.3596,-0.953231 -0.16622,-0.404044 -4.86765,-3.388661 -10.64106,-6.755289 -6.38826,-3.725168 -9.86074,-9.264452 -10.39495,-16.581999 -0.31625,-4.33192 1.3515,-9.281228 4.24216,-12.589264 1.77668,-2.033219 1.80256,-3.08947 0.0524,-2.140733 -0.36421,0.197436 -1.92132,0.364199 -3.50537,0.375416 l -2.85006,0.02018 0,1.025284 c 0,0.563907 -0.14225,1.073133 -0.3161,1.131617 -0.5632,0.189451 -3.53553,-2.126054 -4.68712,-3.651364 -1.79714,-2.380371 -2.49697,-4.613022 -2.49697,-7.966011 0,-2.247361 0.1461,-3.238353 0.6881,-4.667329 0.85784,-2.261723 2.50385,-4.474117 4.3477,-5.84375 0.95552,-0.709776 1.41436,-1.2697477 1.41436,-1.7261104 0,-0.3715275 0.41494,-1.5546876 0.9221,-2.6292442 1.05417,-2.2335853 2.47397,-3.4062776 5.30428,-4.38110129 2.26287,-0.77938662 6.31121,-1.05193776 8.90597,-0.5995885 5.40151,0.94165059 9.36097,4.84520859 11.55551,11.39234739 0.35151,1.048683 1.10133,3.972296 1.66626,6.496919 1.65481,7.395189 3.23184,11.100477 6.53573,15.355953 3.50004,4.508123 5.22894,7.54282 7.37378,12.943047 2.02529,5.099225 4.04627,13.105837 4.68444,18.558562 0.26606,2.273349 0.48169,2.532109 1.94617,2.33547 1.82194,-0.244639 5.840989,0.203436 5.438529,0.606332 -0.182305,0.182503 -0.331463,0.689296 -0.331463,1.126205 0,1.157241 -0.871773,1.768931 -3.013056,2.114148 -1.04127,0.167874 -1.99785,0.369959 -2.12572,0.449072 -0.12787,0.07912 0.0106,0.714275 0.3077,1.411464 1.36999,3.21481 3.00329,11.283644 4.36014,21.540058 0.426127,3.221066 0.841706,6.355144 0.923512,6.964604 0.08181,0.60947 0.03582,1.17798 -0.102185,1.26337 -0.138007,0.0854 -0.829517,-0.13133 -1.536688,-0.48159 z m -3.455179,-25.312135 c -0.92034,-3.381956 -1.60995,-4.959183 -2.16828,-4.959183 -0.31696,0 -0.30046,0.230392 0.0806,1.126247 1.07856,2.535467 1.71614,4.206349 2.13144,5.585773 0.7971,2.647644 0.76106,1.204691 -0.0438,-1.752837 z m -3.36403,-9.742668 c 0.13458,-0.132801 0.13381,-1.036727 -0.002,-2.008723 l -0.24641,-1.767267 -1.21392,-0.162456 c -0.66765,-0.08935 -1.6119,-0.437509 -2.09833,-0.773687 -0.48643,-0.336174 -1.82944,-1.120077 -2.98447,-1.742003 l -2.10005,-1.130776 1.07797,1.153631 c 1.51084,1.616888 2.24151,2.751863 2.98149,4.631238 0.93253,2.368389 1.06423,2.472755 2.82769,2.240646 0.83218,-0.109532 1.62316,-0.307802 1.75775,-0.440603 z m -0.58044,-5.369933 c 0.31784,-0.514827 -0.70698,-5.432357 -2.2536,-10.813729 -1.71546,-5.968904 -4.88792,-12.290263 -8.39159,-16.72089 -3.8237,-4.83531 -5.03047,-7.606395 -7.01607,-16.110902 -1.84262,-7.89207 -3.38922,-11.3752806 -6.31459,-14.2214882 -1.83178,-1.7822166 -3.99315,-2.7799919 -6.88916,-3.18031303 -2.74025,-0.37878944 -5.50747,-0.16132407 -8.05836,0.63327533 -1.73641,0.5408899 -3.19191,1.5652613 -3.19191,2.2464472 0,0.5132976 2.789,1.9472945 3.79069,1.9490259 0.47268,8.169e-4 1.46694,-0.1936102 2.20945,-0.4320607 2.44762,-0.7860202 4.71554,-1.1538206 5.82725,-0.9450352 1.25816,0.2362869 3.77299,2.4528583 3.77299,3.3255098 0,0.3031607 0.60172,1.7261759 1.33715,3.1622569 0.73544,1.43608 1.60779,3.588702 1.93855,4.783605 0.56873,2.054556 0.57663,2.303222 0.14548,4.578527 -0.25075,1.323288 -0.78559,3.152246 -1.18853,4.064353 -1.22348,2.769506 -0.84689,7.360674 0.99211,12.095272 0.4812,1.238871 1.36947,3.536414 1.97393,5.105652 2.74429,7.124382 6.90789,12.477559 13.09411,16.835188 1.49165,1.050737 6.96337,3.850283 7.56512,3.870613 0.27902,0.0094 0.57466,-0.09196 0.65698,-0.225307 z m -30.12847,-39.094225 c 1.34777,-0.688326 2.43513,-2.660177 3.04915,-5.529443 0.37632,-1.758499 0.37383,-1.772376 -0.44532,-2.477742 -0.45307,-0.390137 -1.11999,-0.712308 -1.48205,-0.715936 -1.07376,-0.01076 -3.01703,-1.036515 -4.32422,-2.282546 -1.41632,-1.350048 -2.03382,-3.1434567 -1.72086,-4.9978539 0.18638,-1.1044228 0.15475,-1.1914628 -0.35435,-0.9748636 -0.30746,0.1308089 -0.93192,0.3018771 -1.3877,0.3801519 -0.45578,0.078275 -0.89293,0.2463603 -0.97143,0.3735241 -0.2976,0.4820426 0.57216,2.298652 1.65357,3.4536955 0.6186,0.660731 1.97726,2.817751 3.01923,4.793377 1.64949,3.127488 1.89643,3.807223 1.90944,5.255818 0.008,0.915074 -0.10027,2.035433 -0.24107,2.489686 -0.30527,0.984885 -0.21128,1.001724 1.29561,0.232132 z m 0.31349,-15.1236176 c 0,-0.220244 -0.0888,-0.4893704 -0.1974,-0.5980593 -0.27131,-0.2716002 -1.03579,0.4014887 -0.83162,0.7321998 0.25564,0.4140804 1.02902,0.3132645 1.02902,-0.1341405 z"
         id="path3044"
         inkscape:connector-curvature="0" />
    </g>
    <use
       transform="matrix(0.46485198,0,0,0.46485198,30.751531,51.506359)"
       height="800"
       width="1280"
       y="0"
       x="0"
       xlink:href="#arara_0_Layer0_0_FILL"
       id="use60115" />
  </g>
</svg>
