<?xml version="1.0" encoding="UTF-8" standalone="no"?>
<!-- Created with Inkscape (http://www.inkscape.org/) -->

<svg
   xmlns:dc="http://purl.org/dc/elements/1.1/"
   xmlns:cc="http://creativecommons.org/ns#"
   xmlns:rdf="http://www.w3.org/1999/02/22-rdf-syntax-ns#"
   xmlns:svg="http://www.w3.org/2000/svg"
   xmlns="http://www.w3.org/2000/svg"
   xmlns:sodipodi="http://sodipodi.sourceforge.net/DTD/sodipodi-0.dtd"
   xmlns:inkscape="http://www.inkscape.org/namespaces/inkscape"
   version="1.1"
   width="133.80762"
   height="145.8987"
   id="svg2"
   xml:space="preserve"
   inkscape:version="0.48.4 r9939"
   sodipodi:docname="baleia.svg"><sodipodi:namedview
     pagecolor="#ffffff"
     bordercolor="#666666"
     borderopacity="1"
     objecttolerance="10"
     gridtolerance="10"
     guidetolerance="10"
     inkscape:pageopacity="0"
     inkscape:pageshadow="2"
     inkscape:window-width="640"
     inkscape:window-height="480"
     id="namedview760" /><metadata
     id="metadata8"><rdf:RDF><cc:Work
         rdf:about=""><dc:format>image/svg+xml</dc:format><dc:type
           rdf:resource="http://purl.org/dc/dcmitype/StillImage" /><dc:title /></cc:Work></rdf:RDF></metadata><defs
     id="defs6"><filter
       color-interpolation-filters="sRGB"
       id="filter6604"><feGaussianBlur
         id="feGaussianBlur6606"
         stdDeviation="1.21065" /></filter></defs><g
     transform="matrix(1.25,0,0,-1.25,-539.44992,159.90699)"
     id="g10"><g
       transform="matrix(1.3174381,0,0,1.3174381,-171.13093,-3.4072573)"
       id="g6612"><g
         id="g6608"><path
           d="m 493.95,95.576003 c -1.90802,-0.0259 -4.03365,-0.48241 -6.4,-1.45 0,0 -11.657,-5.409 -4.35,-17.45 2.14725,-3.53925 6.37664,-4.42561 10.425,-4.275 0.33736,0.0126 0.66661,0.049 1,0.075 1.00018,0.0778 1.98313,0.21075 2.9,0.375 0,0 4.192,0.898 7,-2.45 2.808,-3.349 4.919,-13.405 5.3,-14.15 0.431,-0.839 0.75,-0.075 0.75,-0.075 0,0 1.81923,39.65037 -16.625,39.4 z m 25.85,-4.3 c -11.00053,0.31625 -7.89656,-20.99562 -8.55,-23.75 -0.084,-0.351 0.25,-0.375 0.25,-0.375 0.265,-0.024 0.4,0.45 0.4,0.45 1.059,2.823 1.62,10.119 8.325,10.35 7.14,0.246 8.967,11.129 1.975,12.95 -0.864,0.22506 -1.66663,0.35392 -2.4,0.375 z m 6.575,-12.75 c -0.71034,-0.0254 -1.46093,-0.14675 -2.25,-0.35 -0.30906,-0.0797 -0.62931,-0.16644 -0.925,-0.275 -9.16633,-3.3654 -11.96556,-20.1471 -12.2,-21.7 0,0 -0.004,-0.0653 0,-0.125 0.004,-0.0598 0.032,-0.127 0.075,-0.15 0.0427,-0.0222 0.0818,-0.02 0.125,0 0.0432,0.02 0.083,0.0741 0.125,0.125 0.25228,0.30572 0.475,1.05 0.475,1.05 0.558,1.173 4.503,9.296 11.75,7.425 15.01407,-3.87469 13.48016,14.38186 2.825,14 z m -45.35,-20.9 c -0.09,-1.968 -2.7,-2.15 -2.7,-2.15 -4.88,-0.227 -5.436,-4.043 -5.6,-6.075 -0.64,1.514 -2.181,4.284 -4.725,4.05 -3.437,-0.316 -2.714,-1.701 -6.4,0.2 0,0 -0.578,-5.482 5.125,-6.875 1.483,-0.362 2.641,-0.346 3.55,-0.15 -0.343,-29.308 27.804,-36 45.125,-28.625 19.952,8.494 13.874,34.344 -3.95,35.775 -17.823,1.432 -18.201,-18.775 -28.825,-18.775 -9.099,0 -8.075,9.773 -7.6,12.575 1.055,0.079 2.45,0.471 4.175,1.55 4.605,2.886 1.825,8.5 1.825,8.5 z"
           id="path6602"
           style="fill:#999999;fill-opacity:1;fill-rule:nonzero;stroke:#999999;stroke-width:2.42895675;stroke-linejoin:round;stroke-miterlimit:4;stroke-dasharray:none;filter:url(#filter6604)" /><path
           d="m 493.95,95.576003 c -1.90802,-0.0259 -4.03365,-0.48241 -6.4,-1.45 0,0 -11.657,-5.409 -4.35,-17.45 2.14725,-3.53925 6.37664,-4.42561 10.425,-4.275 0.33736,0.0126 0.66661,0.049 1,0.075 1.00018,0.0778 1.98313,0.21075 2.9,0.375 0,0 4.192,0.898 7,-2.45 2.808,-3.349 4.919,-13.405 5.3,-14.15 0.431,-0.839 0.75,-0.075 0.75,-0.075 0,0 1.81923,39.65037 -16.625,39.4 z m 25.85,-4.3 c -11.00053,0.31625 -7.89656,-20.99562 -8.55,-23.75 -0.084,-0.351 0.25,-0.375 0.25,-0.375 0.265,-0.024 0.4,0.45 0.4,0.45 1.059,2.823 1.62,10.119 8.325,10.35 7.14,0.246 8.967,11.129 1.975,12.95 -0.864,0.22506 -1.66663,0.35392 -2.4,0.375 z m 6.575,-12.75 c -0.71034,-0.0254 -1.46093,-0.14675 -2.25,-0.35 -0.30906,-0.0797 -0.62931,-0.16644 -0.925,-0.275 -9.16633,-3.3654 -11.96556,-20.1471 -12.2,-21.7 0,0 -0.004,-0.0653 0,-0.125 0.004,-0.0598 0.032,-0.127 0.075,-0.15 0.0427,-0.0222 0.0818,-0.02 0.125,0 0.0432,0.02 0.083,0.0741 0.125,0.125 0.25228,0.30572 0.475,1.05 0.475,1.05 0.558,1.173 4.503,9.296 11.75,7.425 15.01407,-3.87469 13.48016,14.38186 2.825,14 z m -45.35,-20.9 c -0.09,-1.968 -2.7,-2.15 -2.7,-2.15 -4.88,-0.227 -5.436,-4.043 -5.6,-6.075 -0.64,1.514 -2.181,4.284 -4.725,4.05 -3.437,-0.316 -2.714,-1.701 -6.4,0.2 0,0 -0.578,-5.482 5.125,-6.875 1.483,-0.362 2.641,-0.346 3.55,-0.15 -0.343,-29.308 27.804,-36 45.125,-28.625 19.952,8.494 13.874,34.344 -3.95,35.775 -17.823,1.432 -18.201,-18.775 -28.825,-18.775 -9.099,0 -8.075,9.773 -7.6,12.575 1.055,0.079 2.45,0.471 4.175,1.55 4.605,2.886 1.825,8.5 1.825,8.5 z"
           id="path970-6"
           style="fill:#ffffff;fill-opacity:1;fill-rule:nonzero;stroke:#ffffff;stroke-width:2.42895675;stroke-linejoin:round;stroke-miterlimit:4;stroke-dasharray:none" /></g><path
         d="m 511.4434,53.7764 c -17.823,1.432 -18.183,-18.78 -28.807,-18.78 -9.099,0 -8.093,9.778 -7.618,12.58 1.055,0.079 2.456,0.462 4.181,1.541 4.605,2.886 1.818,8.506 1.818,8.506 -0.09,-1.968 -2.701,-2.147 -2.701,-2.147 -4.88,-0.227 -5.432,-4.049 -5.596,-6.081 -0.64,1.514 -2.173,4.285 -4.717,4.051 -3.437,-0.316 -2.728,-1.689 -6.414,0.212 0,0 -0.568,-5.485 5.135,-6.878 1.483,-0.362 2.651,-0.348 3.56,-0.152 -0.343,-29.308 27.8,-35.998 45.121,-28.623 19.952,8.494 13.862,34.34 -3.962,35.771"
         id="path970"
         style="fill:#64c2a2;fill-opacity:1;fill-rule:nonzero;stroke:none" /><path
         d="m 511.792,57.1064 c 0.558,1.173 4.52,9.283 11.767,7.412 16.015,-4.133 13.183,16.919 0.558,13.667 -9.89,-2.549 -12.867,-20.39 -13.109,-21.993 0,0 -0.028,-0.216 0.058,-0.262 0.342,-0.178 0.726,1.176 0.726,1.176"
         id="path974"
         style="fill:#64c2a2;fill-opacity:1;fill-rule:nonzero;stroke:none" /><path
         d="m 511.2441,67.5381 c 0.697,2.938 -2.877,26.969 10.947,23.368 6.992,-1.821 5.171,-12.712 -1.969,-12.958 -6.705,-0.231 -7.251,-7.521 -8.31,-10.344 0,0 -0.137,-0.465 -0.402,-0.441 0,0 -0.35,0.024 -0.266,0.375"
         id="path978"
         style="fill:#64c2a2;fill-opacity:1;fill-rule:nonzero;stroke:none" /><path
         d="m 510.5654,56.1816 c 0,0 2.224,48.259 -23.017,37.938 0,0 -11.664,-5.404 -4.357,-17.445 2.863,-4.719 9.445,-4.711 14.335,-3.835 0,0 4.181,0.909 6.989,-2.439 2.808,-3.349 4.922,-13.406 5.303,-14.151 0.431,-0.839 0.747,-0.068 0.747,-0.068"
         id="path982"
         style="fill:#64c2a2;fill-opacity:1;fill-rule:nonzero;stroke:none" /><path
         d="m 510.7295,38.3252 c 0.812,-1.117 2.03,-1.422 2.72,-0.68 0.687,0.746 0.588,2.257 -0.223,3.375 -0.814,1.122 -2.033,1.425 -2.721,0.682 -0.689,-0.746 -0.589,-2.256 0.224,-3.377"
         id="path986"
         style="fill:#085877;fill-opacity:1;fill-rule:nonzero;stroke:none" /><path
         d="m 523.459,24.9707 c 0,0 -9.57,-3.407 -12.082,6.111 0,0 -0.174,0.319 0.048,0.484 0.278,0.207 0.699,-0.035 0.699,-0.035 2.2,-9.278 11.122,-5.776 11.122,-5.776 0,0 0.426,-0.099 0.491,-0.263 0.068,-0.162 -0.005,-0.487 -0.278,-0.521"
         id="path990"
         style="fill:#085877;fill-opacity:1;fill-rule:nonzero;stroke:none" /><path
         d="m 511.792,57.1064 c 0.558,1.173 4.52,9.283 11.767,7.412 16.015,-4.133 13.183,16.919 0.558,13.667 -9.89,-2.549 -12.867,-20.39 -13.109,-21.993 0,0 -0.028,-0.216 0.058,-0.262 0.342,-0.178 0.726,1.176 0.726,1.176"
         id="path994"
         style="fill:#085877;fill-opacity:1;fill-rule:nonzero;stroke:none" /><path
         d="m 510.5654,56.1816 c 0,0 2.224,48.259 -23.017,37.938 0,0 -11.664,-5.404 -4.357,-17.445 2.863,-4.719 9.445,-4.711 14.335,-3.835 0,0 4.181,0.909 6.989,-2.439 2.808,-3.349 4.922,-13.406 5.303,-14.151 0.431,-0.839 0.747,-0.068 0.747,-0.068"
         id="path998"
         style="fill:#085877;fill-opacity:1;fill-rule:nonzero;stroke:none" /></g></g></svg>