<?xml version="1.0" encoding="UTF-8" standalone="no"?>
<svg
   xmlns:osb="http://www.openswatchbook.org/uri/2009/osb"
   xmlns:dc="http://purl.org/dc/elements/1.1/"
   xmlns:cc="http://creativecommons.org/ns#"
   xmlns:rdf="http://www.w3.org/1999/02/22-rdf-syntax-ns#"
   xmlns:svg="http://www.w3.org/2000/svg"
   xmlns="http://www.w3.org/2000/svg"
   xmlns:xlink="http://www.w3.org/1999/xlink"
   xmlns:sodipodi="http://sodipodi.sourceforge.net/DTD/sodipodi-0.dtd"
   xmlns:inkscape="http://www.inkscape.org/namespaces/inkscape"
   version="1.1"
   id="svg2"
   viewBox="0 0 120.68968 158.11209"
   height="158.11211"
   width="120.6897"
   inkscape:version="0.48.4 r9939"
   sodipodi:docname="bode.svg">
  <sodipodi:namedview
     pagecolor="#ffffff"
     bordercolor="#666666"
     borderopacity="1"
     objecttolerance="10"
     gridtolerance="10"
     guidetolerance="10"
     inkscape:pageopacity="0"
     inkscape:pageshadow="2"
     inkscape:window-width="1600"
     inkscape:window-height="876"
     id="namedview1313"
     showgrid="false"
     fit-margin-top="0"
     fit-margin-left="0"
     fit-margin-right="0"
     fit-margin-bottom="0"
     inkscape:zoom="3.4974872"
     inkscape:cx="11.139842"
     inkscape:cy="85.929156"
     inkscape:window-x="0"
     inkscape:window-y="1"
     inkscape:window-maximized="1"
     inkscape:current-layer="svg2" />
  <script
     xlink:href="C:\wamp\www\bingo\js/snap.svg-min.js"
     id="script4164" />
  <title
     id="title4162">Bingo das Letras</title>
  <defs
     id="defs4">
    <linearGradient
       osb:paint="solid"
       id="linearGradient12614">
      <stop
         id="stop12616"
         offset="0"
         style="stop-color:#000000;stop-opacity:1;" />
    </linearGradient>
    <linearGradient
       gradientTransform="matrix(-0.19399818,0,0,-0.19399818,259.22818,12173.784)"
       osb:paint="solid"
       id="linearGradient59274">
      <stop
         id="stop59276"
         offset="0"
         style="stop-color:#930033;stop-opacity:1;" />
    </linearGradient>
    <linearGradient
       id="linearGradient4269"
       osb:paint="solid"
       gradientTransform="matrix(110.20782,22.122239,-29.697412,82.096171,6264468.2,4301441.7)">
      <stop
         style="stop-color:#ffffff;stop-opacity:1;"
         offset="0"
         id="stop4271" />
    </linearGradient>
    <linearGradient
       id="linearGradient4251"
       osb:paint="solid"
       gradientTransform="translate(106155.96,125143.42)">
      <stop
         style="stop-color:#555555;stop-opacity:1;"
         offset="0"
         id="stop4253" />
    </linearGradient>
    <linearGradient
       id="linearGradient4241"
       osb:paint="solid"
       gradientTransform="matrix(0.19125385,0,0,0.19125385,-3858.5278,-13397.662)">
      <stop
         style="stop-color:#3fb5ae;stop-opacity:1;"
         offset="0"
         id="stop4243" />
    </linearGradient>
    <linearGradient
       id="linearGradient4231"
       osb:paint="solid"
       gradientTransform="translate(2399.1562,2075.6965)">
      <stop
         style="stop-color:#d1f2a5;stop-opacity:1;"
         offset="0"
         id="stop4233" />
    </linearGradient>
    <linearGradient
       id="linearGradient4221"
       osb:paint="solid"
       gradientTransform="matrix(0.66768435,0,0,0.66768435,-186.89148,394.64653)">
      <stop
         style="stop-color:#effab4;stop-opacity:1;"
         offset="0"
         id="stop4223" />
    </linearGradient>
    <linearGradient
       id="linearGradient4211"
       osb:paint="solid"
       gradientTransform="translate(-699.20463,883.12976)">
      <stop
         style="stop-color:#ffc48c;stop-opacity:1;"
         offset="0"
         id="stop4213" />
    </linearGradient>
    <linearGradient
       id="linearGradient4201"
       osb:paint="solid"
       gradientTransform="matrix(0.35946858,0,0,0.22423084,-331.07911,5516.4706)">
      <stop
         style="stop-color:#ff9f80;stop-opacity:1;"
         offset="0"
         id="stop4203" />
    </linearGradient>
    <linearGradient
       id="linearGradient4191"
       osb:paint="solid"
       gradientTransform="matrix(0.52321996,0,0,0.52321996,2015.4535,3072.5352)">
      <stop
         style="stop-color:#f56991;stop-opacity:1;"
         offset="0"
         id="stop4193" />
    </linearGradient>
    <style
       id="style6"
       type="text/css">
    .str0 {stroke:#006633;stroke-width:282.22}
    .str1 {stroke:#AB754F;stroke-width:282.22}
    .fil2 {fill:none}
    .fil3 {fill:#606062}
    .fil5 {fill:#CE8F64}
    .fil4 {fill:#006633}
    .fil8 {fill:#009933}
    .fil9 {fill:#00B33C}
    .fil10 {fill:#00C943}
    .fil0 {fill:#00D447}
    .fil1 {fill:#00DB49}
    .fil6 {fill:#B88059}
    .fil11 {fill:#BA8058}
    .fil12 {fill:#D49264}
    .fil7 {fill:#E49C6D}
  </style>
    <linearGradient
       id="linearGradient13173">
      <stop
         id="stop13175"
         style="stop-color:#e7b078"
         offset="0" />
      <stop
         id="stop13177"
         style="stop-color:#e7b078;stop-opacity:0"
         offset="1" />
    </linearGradient>
    <linearGradient
       id="linearGradient7792">
      <stop
         id="stop7794"
         style="stop-color:#ffffff"
         offset="0" />
      <stop
         id="stop7796"
         style="stop-color:#ffffff;stop-opacity:0"
         offset="1" />
    </linearGradient>
    <filter
       inkscape:collect="always"
       id="filter3940"
       color-interpolation-filters="sRGB">
      <feGaussianBlur
         inkscape:collect="always"
         stdDeviation="0.91329223"
         id="feGaussianBlur3942" />
    </filter>
    <linearGradient
       inkscape:collect="always"
       xlink:href="#linearGradient13173"
       id="linearGradient3974"
       gradientUnits="userSpaceOnUse"
       gradientTransform="matrix(0.17082,0,0,0.17082,3.9221,-25.446)"
       x1="305"
       y1="933.35999"
       x2="297.38"
       y2="757.35999" />
    <linearGradient
       inkscape:collect="always"
       xlink:href="#linearGradient7792"
       id="linearGradient3976"
       gradientUnits="userSpaceOnUse"
       gradientTransform="matrix(0.17082,0,0,0.17082,3.9221,-25.446)"
       x1="290.79001"
       y1="530.48999"
       x2="324.89999"
       y2="460.64001" />
    <linearGradient
       inkscape:collect="always"
       xlink:href="#linearGradient7792"
       id="linearGradient3978"
       gradientUnits="userSpaceOnUse"
       gradientTransform="matrix(0.17082,0,0,0.17082,3.9221,-25.446)"
       x1="128.74001"
       y1="641.77002"
       x2="168.34"
       y2="567.03998" />
    <linearGradient
       inkscape:collect="always"
       xlink:href="#linearGradient7792"
       id="linearGradient3980"
       gradientUnits="userSpaceOnUse"
       gradientTransform="matrix(0.17082,0,0,0.17082,3.9221,-25.446)"
       x1="156.98"
       y1="302.48001"
       x2="246.78"
       y2="287.26999" />
    <linearGradient
       inkscape:collect="always"
       xlink:href="#linearGradient7792"
       id="linearGradient3982"
       gradientUnits="userSpaceOnUse"
       gradientTransform="matrix(0.17082,0,0,0.17082,3.9221,-25.446)"
       x1="571.83002"
       y1="350.70001"
       x2="485.5"
       y2="270.17001" />
    <linearGradient
       inkscape:collect="always"
       xlink:href="#linearGradient7792"
       id="linearGradient3984"
       gradientUnits="userSpaceOnUse"
       x1="103.69"
       y1="40.249001"
       x2="105.37"
       y2="57.799" />
    <linearGradient
       inkscape:collect="always"
       xlink:href="#linearGradient13173"
       id="linearGradient3986"
       gradientUnits="userSpaceOnUse"
       x1="51.896999"
       y1="-9.0476999e-07"
       x2="71.385002"
       y2="18.462" />
  </defs>
  <metadata
     id="metadata7">
    <rdf:RDF>
      <cc:Work
         rdf:about="">
        <dc:format>image/svg+xml</dc:format>
        <dc:type
           rdf:resource="http://purl.org/dc/dcmitype/StillImage" />
        <dc:title>Bingo das Letras</dc:title>
        <cc:license
           rdf:resource="" />
        <dc:rights>
          <cc:Agent>
            <dc:title>Copyright © 2002-2016. Portal Clickideia ® - Todos os Direitos Reservados</dc:title>
          </cc:Agent>
        </dc:rights>
        <dc:description>SVG game with snapSVG lib and other javascripts included</dc:description>
        <dc:language>pt_BR</dc:language>
        <dc:subject>
          <rdf:Bag>
            <rdf:li>Educativo</rdf:li>
            <rdf:li>ensino fundamental</rdf:li>
            <rdf:li>clickiéia</rdf:li>
            <rdf:li>letras</rdf:li>
            <rdf:li>lingua portuguesa</rdf:li>
            <rdf:li>infantil</rdf:li>
            <rdf:li>educational game</rdf:li>
            <rdf:li>game design</rdf:li>
            <rdf:li>multimidia</rdf:li>
          </rdf:Bag>
        </dc:subject>
        <dc:creator>
          <cc:Agent>
            <dc:title>http://www.clickideia.com.br/</dc:title>
          </cc:Agent>
        </dc:creator>
        <dc:publisher>
          <cc:Agent>
            <dc:title>http://www.clickideia.com.br/</dc:title>
          </cc:Agent>
        </dc:publisher>
        <dc:date>18/01/2016</dc:date>
        <dc:contributor>
          <cc:Agent>
            <dc:title>michel morandi - michel.morandi@clickideia.com.br</dc:title>
          </cc:Agent>
        </dc:contributor>
      </cc:Work>
    </rdf:RDF>
  </metadata>
  <g
     id="g3948"
     transform="matrix(1.4852525,0,0,1.4852525,5.2664431,5.257281)">
    <g
       id="g3944">
      <path
         id="path3930"
         transform="translate(-2.182664e-6,0)"
         d="M 12.9375,0 C 12.246267,1.7824319 11.565479,3.5613182 10.875,5.34375 7.8273923,12.591673 5.7113382,22.567067 12.09375,28.65625 7.0395311,36.158807 11.249185,46.736659 4.8125,53.75 2.0792267,55.084977 -2.2311719,61.884978 1.375,65.3125 c 0.8299322,3.263193 2.5846634,5.457217 4.4375,6.40625 2.588544,2.184508 6.56256,2.486569 9.03125,3.8125 2.92323,5.527604 1.740467,12.124319 -1.03125,17.46875 2.495073,1.537749 7.798029,-2.640432 7.59375,-1.5625 -0.768121,3.384555 -5.467526,10.92275 0.9375,6.65625 3.061929,-0.459817 5.698368,-4.394409 6.46875,-6 -0.296243,7.749049 2.910323,0.239286 4.78125,-2.84375 2.491304,-6.912332 -3.349627,-12.647723 -5.65625,-18.65625 4.092371,-4.730839 2.125915,1.7387 5.21875,3.1875 7.259833,3.843618 17.934747,0.347963 21.65625,-6.9375 0.55178,-6.222607 1.591144,-12.395199 1.5625,-18.65625 6.347737,-0.310564 12.602654,-1.783644 17.78125,-5.625 C 69.490237,36.721316 61.506391,31.248559 53.9375,35.15625 52.471362,31.443039 58.554606,31.255934 59.625,28.09375 65.406634,20.89422 61.72155,11.249773 57.59375,4.25 57.116596,10.668595 57.007904,18.060715 50.875,21.9375 48.405557,24.55695 46.249773,19.238545 43.21875,19.03125 41.104345,17.727179 40.765716,13.496325 37.25,12.6875 30.843466,9.3966415 21.062458,12.301912 18.9375,19.5625 14.185555,14.156258 13.952867,6.7547883 12.9375,0 z"
         style="fill:#999999;fill-rule:evenodd;stroke:#999999;stroke-width:2.69314456;stroke-linejoin:round;stroke-miterlimit:4;stroke-dasharray:none;filter:url(#filter3940)"
         inkscape:connector-curvature="0" />
      <path
         style="fill:#ffffff;fill-rule:evenodd;stroke:#ffffff;stroke-width:2.69314456;stroke-linejoin:round;stroke-miterlimit:4;stroke-dasharray:none"
         d="M 12.9375,0 C 12.246267,1.7824319 11.565479,3.5613182 10.875,5.34375 7.8273923,12.591673 5.7113382,22.567067 12.09375,28.65625 7.0395311,36.158807 11.249185,46.736659 4.8125,53.75 2.0792267,55.084977 -2.2311719,61.884978 1.375,65.3125 c 0.8299322,3.263193 2.5846634,5.457217 4.4375,6.40625 2.588544,2.184508 6.56256,2.486569 9.03125,3.8125 2.92323,5.527604 1.740467,12.124319 -1.03125,17.46875 2.495073,1.537749 7.798029,-2.640432 7.59375,-1.5625 -0.768121,3.384555 -5.467526,10.92275 0.9375,6.65625 3.061929,-0.459817 5.698368,-4.394409 6.46875,-6 -0.296243,7.749049 2.910323,0.239286 4.78125,-2.84375 2.491304,-6.912332 -3.349627,-12.647723 -5.65625,-18.65625 4.092371,-4.730839 2.125915,1.7387 5.21875,3.1875 7.259833,3.843618 17.934747,0.347963 21.65625,-6.9375 0.55178,-6.222607 1.591144,-12.395199 1.5625,-18.65625 6.347737,-0.310564 12.602654,-1.783644 17.78125,-5.625 C 69.490237,36.721316 61.506391,31.248559 53.9375,35.15625 52.471362,31.443039 58.554606,31.255934 59.625,28.09375 65.406634,20.89422 61.72155,11.249773 57.59375,4.25 57.116596,10.668595 57.007904,18.060715 50.875,21.9375 48.405557,24.55695 46.249773,19.238545 43.21875,19.03125 41.104345,17.727179 40.765716,13.496325 37.25,12.6875 30.843466,9.3966415 21.062458,12.301912 18.9375,19.5625 14.185555,14.156258 13.952867,6.7547883 12.9375,0 z"
         transform="translate(-2.182664e-6,0)"
         id="path3042"
         inkscape:connector-curvature="0" />
    </g>
    <g
       transform="matrix(0.79607814,0,0,0.79607814,-17.451412,-1.6915163)"
       id="layer1-3">
      <g
         id="g3242"
         transform="matrix(0.94689,0,0,0.94689,0.21735,5.7942)">
        <path
           id="path2437"
           style="fill:#000000;fill-rule:evenodd"
           d="m 37.344,3.2188 c -4.043,9.6152 -6.842,22.828 1.625,30.906 -6.705,9.953 -1.131,23.999 -9.67,33.303 -3.626,1.771 -9.333,10.806 -4.549,15.353 1.101,4.329 3.408,7.215 5.866,8.474 3.434,2.898 8.74,3.303 12.015,5.062 3.878,7.333 2.296,16.093 -1.381,23.183 3.31,2.04 10.348,-3.49 10.077,-2.06 -1.019,4.49 -7.247,14.46 1.25,8.8 4.062,-0.61 7.557,-5.83 8.579,-7.96 -0.393,10.28 3.831,0.34 6.313,-3.75 3.305,-9.17 -4.409,-16.778 -7.469,-24.749 5.429,-6.276 2.793,2.318 6.896,4.24 9.631,5.099 23.823,0.456 28.76,-9.209 0.732,-8.255 2.101,-16.475 2.063,-24.781 8.421,-0.412 16.721,-2.341 23.591,-7.437 -6.19,-7.749 -16.8,-14.997 -26.841,-9.813 -1.945,-4.926 6.141,-5.211 7.561,-9.406 7.67,-9.551 2.79,-22.308 -2.686,-31.594 -0.633,8.515 -0.8,18.286 -8.936,23.429 -3.276,3.475 -6.137,-3.56 -10.158,-3.835 -2.805,-1.73 -3.229,-7.352 -7.893,-8.425 -8.499,-4.3657 -21.476,-0.52 -24.295,9.112 -6.304,-7.172 -6.621,-16.976 -7.968,-25.937 -0.917,2.3646 -1.834,4.7292 -2.75,7.0938 z"
           inkscape:connector-curvature="0" />
        <path
           id="path2144-7"
           style="fill:#9e4100;fill-rule:evenodd"
           d="m 39.213,3.9397 c 0.336,11.043 5.858,17.909 9.651,22.327 2.553,2.973 -5.346,9.09 -8.066,6.914 -7.923,-6.338 -6.194,-20.743 -1.585,-29.241 z"
           inkscape:connector-curvature="0" />
        <path
           id="path2158"
           style="fill:#ffffff;fill-rule:evenodd"
           d="m 57.165,87.752 c 1.825,9.651 15.083,19.178 5.96,30.268 0,-4.03 -2.449,-7.49 -2.593,-11.81 -0.288,3.17 1.584,15.56 -9.651,18.58 2.161,-4.89 3.889,-10.51 3.889,-17.14 -1.584,4.32 -5.474,10.52 -10.515,9.8 4.753,-9.65 2.593,-18.296 -0.576,-23.626 -3.169,-5.33 8.589,-1.174 13.486,-6.072 z"
           inkscape:connector-curvature="0" />
        <path
           id="path13171"
           style="fill:url(#linearGradient3974);fill-rule:evenodd"
           d="m 57.165,87.752 c 1.825,9.651 15.083,19.178 5.96,30.268 0,-4.03 -2.449,-7.49 -2.593,-11.81 -0.288,3.17 1.584,15.56 -9.651,18.58 2.161,-4.89 3.889,-10.51 3.889,-17.14 -1.584,4.32 -5.474,10.52 -10.515,9.8 4.753,-9.65 2.593,-18.296 -0.576,-23.626 -3.169,-5.33 8.589,-1.174 13.486,-6.072 z"
           inkscape:connector-curvature="0" />
        <path
           id="path2154-7"
           style="fill:#e7b078;fill-rule:evenodd"
           d="M 59.859,20.691 C 48.06,22.045 44.364,30.808 40.171,35.885 36.543,39.433 37.185,57.392 35.312,61.281 33.44,65.17 23.081,76.951 27.844,85.75 c 2.948,5.446 9.774,2.545 13.375,0.875 -0.368,1.777 -5.587,3.099 -8.031,3.75 1.218,1.108 7.104,4.459 13.874,2.875 10.516,-2.161 16.508,-8.785 18.813,-9.938 0.144,2.305 -0.703,6.31 1.281,8.5 4.178,4.61 21.315,2.577 26.5,-7.218 0.166,-6.306 2.473,-16.565 2.094,-26.344 7.56,-0.985 15.28,-0.62 22.28,-6.062 C 111.56,44.146 102.28,39.962 93,45.719 91.885,43.346 92.966,39.45 90.93,37.578 89.22,22.01 72.345,20.144 59.859,20.691 z"
           inkscape:connector-curvature="0" />
        <path
           id="path8568-9"
           style="fill:#f7e5d3;fill-rule:evenodd"
           d="m 26.51,81.728 c 0,0 9.784,-6.04 11.475,-8.576 C 39.676,70.615 47.769,64.817 49.339,59.14 50.91,53.463 55.829,44.196 60.331,40.738 75.825,28.837 80.962,34.023 80.745,45.249 80.57,54.307 74.585,72.91 64.559,75.568 54.533,78.225 45.517,88.648 41.005,86.801 36.721,88.615 28.281,92.402 26.51,81.728 z"
           inkscape:connector-curvature="0" />
        <path
           id="path2142"
           style="fill:#9e4100;fill-rule:evenodd"
           d="m 100.58,8.5491 c 12.82,24.92 -12.995,32.931 -15.588,33.219 -2.593,0.288 -6.51,-4.814 -4.349,-7.407 2.491,-2.99 20.937,-8.67 19.937,-25.812 z"
           inkscape:connector-curvature="0" />
        <path
           id="path2146"
           style="fill:#000100;fill-rule:evenodd"
           d="m 29.706,70.633 c 0,0 4.033,3.457 8.643,2.016 1.435,-0.448 -2.305,9.075 -6.194,9.651 -3.889,0.577 -6.482,0.288 -6.77,-2.304 -0.415,-2.081 0.72,-6.915 4.321,-9.363 z"
           inkscape:connector-curvature="0" />
        <path
           id="path9328"
           style="fill:#000000;fill-rule:evenodd"
           d="m 66.833,46.978 c -1.486,0.118 -3.079,1.283 -3.598,1.687 -0.473,-0.045 -0.956,-0.055 -1.446,-0.016 -3.79,0.497 -7.908,1.922 -9.609,5.627 -1.342,2.367 -1.786,5.105 -1.623,7.81 0.735,2.322 3.228,2.498 5.317,2.397 5.546,-0.171 10.997,-4.276 11.515,-9.967 0.241,-1.356 0.048,-2.645 -0.017,-3.998 0.535,-0.644 2.352,-1.549 3.246,-1.559 -0.685,-0.623 -3.268,0.681 -4.19,0.694 -0.114,-0.06 -0.221,-0.138 -0.337,-0.192 -0.051,-0.734 2.29,-1.574 3.492,-1.89 -2.315,-0.411 -3.92,0.994 -4.671,1.441 -0.158,-0.049 -0.316,-0.088 -0.476,-0.128 -0.007,-0.638 1.219,-1.371 3.134,-1.858 -0.235,-0.055 -0.483,-0.068 -0.737,-0.048 z"
           inkscape:connector-curvature="0" />
        <path
           id="path2148-9"
           style="fill:#ffffff;fill-rule:evenodd"
           d="m 66.444,50.673 c -2.71,-1.985 -6.109,-1.183 -9.513,0.231 -4.703,1.954 -6.007,9.35 -5.762,10.942 0.576,3.745 16.741,2.856 15.275,-11.173 z"
           inkscape:connector-curvature="0" />
        <path
           id="path6268"
           style="fill:#009fff;fill-rule:evenodd"
           d="m 58.175,55.546 c -2.288,0.066 -4.557,0.648 -6.449,2.216 -0.489,1.859 -0.65,3.468 -0.555,4.083 0.461,2.995 11.025,3.181 14.552,-4.689 -0.055,-0.222 -0.234,-0.479 -0.438,-0.638 -2.064,-0.504 -4.596,-1.044 -7.11,-0.972 z"
           inkscape:connector-curvature="0" />
        <path
           id="path7029"
           style="fill:#000000;fill-rule:evenodd"
           d="m 56.787,59.78 c -1.727,0.004 -3.682,0.188 -5.397,0.261 -0.047,0.002 -0.301,0.088 -0.346,0.091 -0.112,0.806 0.038,1.582 0.09,1.918 0.332,2.163 6.041,2.74 10.435,-0.021 -0.036,-1.732 -2.212,-2.256 -4.782,-2.249 z"
           inkscape:connector-curvature="0" />
        <path
           id="path7032"
           style="fill:url(#linearGradient3976);fill-rule:evenodd"
           d="m 55.607,51.23 c -3.029,2.613 -3.422,6.475 -3.677,9.505 -0.03,2.085 4.926,2.775 6.869,1.734 1.942,-1.04 5.966,-5.827 6.382,-8.602 -3.122,1.873 -6.937,0.416 -9.574,-2.637 z"
           inkscape:connector-curvature="0" />
        <path
           id="path7800-6"
           style="fill:url(#linearGradient3978);fill-rule:evenodd"
           d="m 28.412,70.794 c -2.266,1.943 -4.394,6.869 -3.191,9.505 0.412,0.904 4.509,2.22 7.7,0.832 1.943,-1.179 4.163,-5.827 4.371,-6.799 -0.902,0.07 -8.325,0.07 -8.88,-3.538 z"
           inkscape:connector-curvature="0" />
        <path
           id="path10867"
           style="fill:url(#linearGradient3980);fill-rule:evenodd"
           d="M 40.22,32.083 C 33.757,24.634 35.569,13.38 38.468,5.811 c -2.174,12.26 4.469,23.614 5.979,24.098 1.51,0.483 -3.623,1.389 -4.227,2.174 z"
           inkscape:connector-curvature="0" />
        <path
           id="path11635"
           style="fill:url(#linearGradient3982);fill-rule:evenodd"
           d="m 100.82,10.143 c 0.25,13.971 -12.554,19.991 -18.922,24.148 -1.363,1.107 -1.464,3.443 0.469,5.153 2.826,1.487 22.323,-13.761 18.453,-29.301 z"
           inkscape:connector-curvature="0" />
        <path
           id="path15617"
           style="fill:url(#linearGradient3984);fill-rule:evenodd"
           d="m 94.718,46.411 c 4.935,-4.482 17.852,-0.844 21.302,4.823 -2.81,1.474 -15.27,6.699 -20.096,4.823 -1.345,-0.523 2.679,-5.895 -1.206,-9.646 z"
           inkscape:connector-curvature="0" />
        <path
           id="path1382"
           style="fill:#ffffff;fill-rule:evenodd"
           d="m 74.769,24.103 c 0,0 4.718,-3.898 -0.923,-7.898 C 65.026,8.4103 43.59,15.897 50.667,32 c 2.461,3.487 2.666,2.718 3.897,3.077 C 51.179,30 53.538,24.41 53.538,24.41 c 0,0 -1.23,7.846 6.975,7.59 -5.026,-3.333 -3.487,-9.641 -3.487,-9.641 0,0 -0.616,4.718 2.461,5.333 -0.308,-2.359 -0.333,-5.41 3.692,-6.359 2.795,-0.743 6.77,8.205 11.59,2.77 z"
           inkscape:connector-curvature="0" />
        <path
           id="path3232-3"
           style="fill:url(#linearGradient3986);fill-rule:evenodd"
           d="m 74.769,24.103 c 0,0 4.718,-3.898 -0.923,-7.898 C 65.026,8.4103 43.59,15.897 50.667,32 c 2.461,3.487 2.666,2.718 3.897,3.077 C 51.179,30 53.538,24.41 53.538,24.41 c 0,0 -1.23,7.846 6.975,7.59 -5.026,-3.333 -3.487,-9.641 -3.487,-9.641 0,0 -0.616,4.718 2.461,5.333 -0.308,-2.359 -0.333,-5.41 3.692,-6.359 2.795,-0.743 6.77,8.205 11.59,2.77 z"
           inkscape:connector-curvature="0" />
      </g>
    </g>
  </g>
</svg>
