<?xml version="1.0" encoding="UTF-8" standalone="no"?>
<svg
   xmlns:osb="http://www.openswatchbook.org/uri/2009/osb"
   xmlns:dc="http://purl.org/dc/elements/1.1/"
   xmlns:cc="http://creativecommons.org/ns#"
   xmlns:rdf="http://www.w3.org/1999/02/22-rdf-syntax-ns#"
   xmlns:svg="http://www.w3.org/2000/svg"
   xmlns="http://www.w3.org/2000/svg"
   xmlns:xlink="http://www.w3.org/1999/xlink"
   xmlns:sodipodi="http://sodipodi.sourceforge.net/DTD/sodipodi-0.dtd"
   xmlns:inkscape="http://www.inkscape.org/namespaces/inkscape"
   version="1.1"
   id="svg2"
   viewBox="0 0 110.43654 150.60338"
   height="150.60338"
   width="110.43655"
   inkscape:version="0.48.4 r9939"
   sodipodi:docname="cachorro.svg">
  <sodipodi:namedview
     pagecolor="#ffffff"
     bordercolor="#666666"
     borderopacity="1"
     objecttolerance="10"
     gridtolerance="10"
     guidetolerance="10"
     inkscape:pageopacity="0"
     inkscape:pageshadow="2"
     inkscape:window-width="1600"
     inkscape:window-height="876"
     id="namedview1313"
     showgrid="false"
     fit-margin-top="0"
     fit-margin-left="0"
     fit-margin-right="0"
     fit-margin-bottom="0"
     inkscape:zoom="3.2228231"
     inkscape:cx="48.640877"
     inkscape:cy="42.5521"
     inkscape:window-x="0"
     inkscape:window-y="1"
     inkscape:window-maximized="1"
     inkscape:current-layer="svg2" />
  <script
     xlink:href="C:\wamp\www\bingo\js/snap.svg-min.js"
     id="script4164" />
  <title
     id="title4162">Bingo das Letras</title>
  <defs
     id="defs4">
    <linearGradient
       osb:paint="solid"
       id="linearGradient12614">
      <stop
         id="stop12616"
         offset="0"
         style="stop-color:#000000;stop-opacity:1;" />
    </linearGradient>
    <linearGradient
       gradientTransform="matrix(-0.19399818,0,0,-0.19399818,259.22818,12173.784)"
       osb:paint="solid"
       id="linearGradient59274">
      <stop
         id="stop59276"
         offset="0"
         style="stop-color:#930033;stop-opacity:1;" />
    </linearGradient>
    <linearGradient
       id="linearGradient4269"
       osb:paint="solid"
       gradientTransform="matrix(110.20782,22.122239,-29.697412,82.096171,6833583.1,4951654)">
      <stop
         style="stop-color:#ffffff;stop-opacity:1;"
         offset="0"
         id="stop4271" />
    </linearGradient>
    <linearGradient
       id="linearGradient4251"
       osb:paint="solid"
       gradientTransform="translate(106155.96,125143.42)">
      <stop
         style="stop-color:#555555;stop-opacity:1;"
         offset="0"
         id="stop4253" />
    </linearGradient>
    <linearGradient
       id="linearGradient4241"
       osb:paint="solid"
       gradientTransform="matrix(0.19125385,0,0,0.19125385,565256.47,636815.16)">
      <stop
         style="stop-color:#3fb5ae;stop-opacity:1;"
         offset="0"
         id="stop4243" />
    </linearGradient>
    <linearGradient
       id="linearGradient4231"
       osb:paint="solid"
       gradientTransform="translate(2399.1562,2075.6965)">
      <stop
         style="stop-color:#d1f2a5;stop-opacity:1;"
         offset="0"
         id="stop4233" />
    </linearGradient>
    <linearGradient
       id="linearGradient4221"
       osb:paint="solid"
       gradientTransform="matrix(0.66768435,0,0,0.66768435,-186.89148,394.64653)">
      <stop
         style="stop-color:#effab4;stop-opacity:1;"
         offset="0"
         id="stop4223" />
    </linearGradient>
    <linearGradient
       id="linearGradient4211"
       osb:paint="solid"
       gradientTransform="translate(-699.20463,883.12976)">
      <stop
         style="stop-color:#ffc48c;stop-opacity:1;"
         offset="0"
         id="stop4213" />
    </linearGradient>
    <linearGradient
       id="linearGradient4201"
       osb:paint="solid"
       gradientTransform="matrix(0.35946858,0,0,0.22423084,-331.07911,5516.4706)">
      <stop
         style="stop-color:#ff9f80;stop-opacity:1;"
         offset="0"
         id="stop4203" />
    </linearGradient>
    <linearGradient
       id="linearGradient4191"
       osb:paint="solid"
       gradientTransform="matrix(0.52321996,0,0,0.52321996,2015.4535,3072.5352)">
      <stop
         style="stop-color:#f56991;stop-opacity:1;"
         offset="0"
         id="stop4193" />
    </linearGradient>
    <g
       id="Layer1_3_FILL">
      <path
         d="M 87.7,59.35 Q 86.9,57.8 85.25,52.35 83.9,48 82.1,41.3 81.5,39.1 80.85,37.15 78.15,29.4 74.55,26.05 72.8,24.4 70.85,23.85 70.25,21.8 64,19.25 60.7,17.85 57.85,17.35 56,17 54.35,17.05 q -0.65,0 -1.2,0.05 -5.2,0.35 -8.6,2.55 -2.35,1.55 -5.35,5.25 -1.3,-0.15 -2.4,0 -3.25,0.45 -4.65,3.8 -0.4,1.1 -1.9,9.6 -0.65,3.85 -2.8,12.7 -0.1,0.3 -2.9,14.05 -1.6,7.3 -2.65,10.35 -0.6,3.15 0.2,5.2 0.8,2.05 1.65,3.1 1.65,1.95 5.45,3.9 4.3,2.4 7.7,1.85 0.1,0 0.2,0 1.05,-0.3 4.15,-2.4 2.3,-1.5 4.05,0.2 -0.55,5.3 -2.45,10.85 -0.5,1.45 -2.45,5.1 -1.65,3.2 -1.95,4.7 -0.35,1.75 0.1,4.7 0.45,3.35 0.4,4.5 -0.3,4.45 -3.15,11.5 -0.15,0.25 -0.25,0.55 -3.25,7.9 -3.75,11.7 0.1,2.25 0.8,4.25 0.2,0.55 0.45,1.1 -0.2,0 -0.45,0 -2.45,-0.2 -4.7,0.65 -2.3,0.8 -4.45,2.6 -0.7,0.6 -1.25,1.3 -3.2,3.8 -1.15,8.65 0.7,0.35 1.5,0.6 2.05,0.6 5.05,0.35 0.5,-0.1 1.05,-0.15 2.25,-0.3 4.1,-0.9 1.8,-0.6 3.25,-1.5 0.1,-0.1 0.2,-0.15 0.35,0.35 1.1,0.95 0.8,0.6 4.25,1.15 0.15,-0.05 0.35,-0.05 4.25,-0.75 10.55,-0.85 4.05,-0.05 9,0.1 3,0.1 6.35,0.35 0.5,0 1,0.05 2.25,0.15 4.4,0.3 9.65,0.45 16.9,-0.45 2.5,-0.3 4.75,-0.75 1,-0.2 2,-0.45 0.75,-1.75 -0.1,-4.95 -0.9,-3.5 -0.85,-3.65 10.65,-5.05 18.2,-14.45 9.4,-11.65 7.6,-23.85 0,-0.15 -0.05,-0.25 -1.2,-7.45 -7.2,-12.7 -6.45,-5.5 -14.65,-4.9 -2.9,0.15 -4.55,0.9 -1.1,0.5 -1.85,1.25 -0.8,0.75 -1.2,1.8 9.7,-3.05 15.9,3.2 6.05,6.25 3,15.65 -2.1,6.65 -7.3,12.5 -5.55,6.05 -11.3,7.6 -0.85,-2.55 -4.65,-11.15 -0.75,-1.65 -1.35,-3.2 -0.95,-2.25 -1.6,-4.25 -0.65,-1.9 -1.05,-3.65 -0.2,-0.75 -0.35,-1.45 -0.2,-1.25 -0.5,-5.1 -0.25,-3.4 -0.7,-5.3 -0.55,-2.15 -2.3,-4.8 -0.45,-0.65 -0.8,-1.2 -1.45,-2.15 -2.15,-3.3 -1.6,-2.45 -2.1,-4.55 -0.6,-2.35 0.2,-4.3 0,-0.1 0.05,-0.15 6.95,2.4 12.2,1.4 3.45,-0.7 5.25,-2.95 1.35,-1.75 1.7,-4.4 0.15,-1.75 0,-3.35 -0.35,-3.35 -2.05,-6.4 -3.1,-6 -4.6,-8.7 M 81,44.1 q 0.65,1.9 1.95,5.3 -3.65,5.45 -3.3,11.45 0.3,6.45 5.2,9.7 1.9,1.3 4.5,0.8 2.6,-0.5 3,0.45 0.4,2.35 -3.25,3.2 -3.65,0.8 -5.1,1.95 -0.4,0.35 -0.8,0.9 -0.2,0.3 -0.4,0.65 -0.75,1.2 -1.45,3.2 -1.25,3.6 -5.1,1.1 1.5,-1.25 2.75,-3.8 1.3,-2.85 1.25,-4.5 0,-1.8 -1.6,-6.15 -1.95,-5.2 -2.4,-7.6 Q 75.4,56.4 75.15,50.45 75.05,43.8 75,40.6 q -0.1,-2.1 -0.3,-4 -0.3,-2.8 -0.85,-5.05 -1.1,-4.3 -3.1,-6.7 2.15,0.15 3.9,2 1.55,1.65 2.8,4.75 0.25,0.65 1.15,3.75 0.85,3.15 2.4,8.75 m 2.55,6.05 q 0.65,2.15 1.5,4.3 1.45,3.9 3.4,7.7 2.45,4.85 2.6,7.85 -0.1,-0.2 -0.2,0.15 -0.35,0.1 -0.7,0.15 -3.45,0.65 -6.05,-1.2 -2.45,-1.8 -3.4,-5.5 -0.95,-3.5 -0.15,-6.85 0.85,-3.5 3,-6.6 m 0.1,28.9 q 0.7,-1 0.9,-1.2 2.55,-2.3 7.65,-2.25 0.05,3.35 -1.55,5.7 -0.45,0.65 -1.05,1.25 -2.8,2.8 -7.5,1.6 0.25,-3.75 1.55,-5.1 m 12.55,16.4 q 0.15,-0.05 0.35,-0.1 7.1,-2.45 14.45,2.25 7.5,4.8 9.2,11.15 0.5,1.85 0.75,3.7 1.25,10.05 -5.65,19.7 -8.1,11.4 -20.5,16.45 -0.95,-0.35 -1.75,-0.55 -0.85,-0.2 -1.6,-0.2 -1.35,0 -3.6,0.6 -0.1,0.05 -0.15,0.05 -0.65,-0.3 -0.1,-1.35 0.35,-0.85 1.5,-2.25 2.5,-3.2 2.55,-4.95 0,-0.35 -0.05,-0.6 0.15,0.6 2.2,1.4 2,0.75 3.55,0.45 2.7,-0.85 5.6,-3.05 2.9,-2.25 4.05,-4.5 l 1.4,-7.7 q 2.05,-6.1 3.85,-12.55 0.15,-0.45 0.25,-0.9 0.1,-0.65 0.2,-1.2 0.15,-1 0.15,-1.9 0,-1.05 -0.1,-2 -0.4,-2.6 -2,-4.65 -3.3,-4.2 -5.8,-5.75 -2.5,-1.55 -8.75,-1.55 M 41.5,23.65 q 4.2,-3.8 8,-5.1 1.9,-0.7 4.25,-0.65 2.2,0.05 4.8,0.75 0.05,0 0.1,0 0,0.05 -0.05,0.1 -1.65,3.05 -1.75,5.85 -0.2,3.55 1.15,7.35 2.25,3.25 7.3,0.9 0.75,-0.35 3.8,-2 1.6,-0.9 2.5,-1.1 0.2,-0.1 0.35,-0.1 0.1,0.25 0.25,0.55 1.35,3.7 1.6,12.5 0,0.9 0,1.85 0,0.2 0,0.4 0.2,12.3 1.4,17.2 0.2,1.1 2.5,7.65 1.5,4.25 1,6.75 -0.4,2 -2.8,4.9 -0.35,0.4 -0.7,0.8 -0.1,0.1 -0.2,0.2 -2.85,3.1 -4.55,3.75 -1.65,0.55 -3.3,0.45 -1.25,-0.1 -2.45,-0.55 -4.7,-1.65 -4.5,-3 4.15,-2.05 6.25,-5.4 3,-5 -1.05,-9.35 -0.05,-0.05 -0.1,-0.1 0.3,1.1 1,2.45 0.65,1.35 -0.5,1.8 -6.75,-2.15 -17.75,1.45 -0.7,-1.7 0.1,-3.2 0.65,-1.4 1.15,-1.85 -4.3,3.35 -1.95,8.65 2.25,5.25 7.3,5.95 -2.8,2.9 -6.6,2.9 Q 46.1,86.35 43.9,85.6 39.6,84 37.1,80.8 36.7,80.3 36.4,79.8 35.95,79.15 35.6,78.45 35.2,74.5 36.5,66.6 37.85,58.7 37.8,55.6 37.75,52.7 37,49.5 l -0.05,-0.15 q -0.05,-0.15 -0.1,-0.3 -0.35,-1.3 -0.55,-2.4 -0.25,-1 -0.35,-1.8 -0.05,-0.6 -0.1,-1.1 -0.4,-5.25 1.5,-10.35 1.9,-5.1 4.15,-9.75 m 15.8,0.65 q 0.25,-3 1.9,-4.55 0.15,-0.2 0.35,-0.35 4.15,0.4 7.4,2.5 3.75,2.45 3.5,5.55 -0.05,0.55 -0.3,1.1 -1,2.05 -4.85,3.65 -4.95,2.05 -6.9,-0.7 -1.4,-3.9 -1.1,-7.2 m -20.7,1.8 q 1.2,-0.4 2.75,0 -0.35,2.1 -2.2,6.55 -1.6,3.95 -1.8,6.85 Q 34.9,39.15 34.5,38.1 34.4,37.85 34.3,37.55 33.7,36 33.1,35.55 32.3,30.6 34,28.1 q 1.05,-1.6 2.6,-2 m -4.3,9.95 q 0.55,0.4 0.95,1.05 1,1.7 0.9,2.55 -0.95,1.5 -1.4,2.3 -0.75,1.3 -2.55,1.25 0.65,-0.7 1.05,-5.1 0.3,-3 1.05,-2.05 m 1.55,5.8 q 0.3,-0.7 0.4,-1.6 2.3,8.1 1.9,19.45 -0.15,3.95 -1.75,18.9 0,1.55 1.2,2.8 0.7,0.75 1.25,1.3 0.3,0.3 0.55,0.5 -0.25,-0.05 -0.65,0.25 -0.65,0.45 -1.6,1.8 l 0,0.05 q -1.65,2.05 -3.1,2.35 -1.55,0.3 -4.35,-1.6 L 27.65,86 q 0.75,-0.1 2.9,-1.9 2.6,-2.2 2.7,-3.4 0,-0.3 -0.1,-0.5 0,-0.6 -0.25,-2.6 -0.05,-0.15 -0.05,-0.3 -0.75,-5.4 -1.8,-6.3 -1.95,-0.15 -4.2,1 -2.2,1.1 -4,2.7 0.8,-3.4 1.6,-6.75 1.1,0.25 5.2,-0.45 4.6,-0.35 3.85,-8.75 -0.7,-8.55 -3.8,-14.9 1.7,0.65 3.05,-0.55 0.7,-0.6 1.1,-1.45 m -5.5,25.25 q -4.15,0.35 -3.65,-0.25 0.8,-3.55 1.55,-7.1 0.85,-4.4 3.15,-13.35 2.25,2.8 3.05,9.3 0.75,6.45 0.6,6.9 -0.6,4.15 -4.7,4.5 m 4.15,10.3 q 0.1,1.4 0.15,1.85 0,0.4 0,1.15 0,0.75 -1.45,2.5 -1.25,1.25 -4.25,2.65 -2.4,-1.85 -3.65,-4.6 -1.4,-3.1 0.85,-5.85 2.2,-2.85 6.35,-3.4 1,0.9 1.55,2.9 0.3,1.4 0.45,2.8 m 1.05,10.9 q 0.95,-1.4 1.2,-1.65 1.35,-1.55 1.95,-2.1 1.6,-1.3 4.75,1.2 -2.5,2.55 -4.65,3.05 -1.75,0.4 -3.25,-0.5 M 47.4,87.45 q 1.5,0.45 2.85,0.8 0.25,0.05 0.55,0.15 1.7,0.4 4.25,0.75 5.45,0.5 10,-0.6 0.45,-0.15 0.95,-0.3 4.8,-1.45 7.6,-2.9 0.1,1.75 0,1.3 0.4,2.45 0.5,2.7 0.35,0.95 0.85,2.4 -4,3.95 -5.6,6.2 -2.65,3.65 -3.6,7.25 -1,2.7 4.2,7.85 5.25,5.1 6.5,4.9 1.85,0.55 4.1,-0.55 0.1,-0.05 0.2,-0.05 l 0.45,-0.25 q 1.55,-1 1.4,-2.85 0,-0.0484 0,-0.1 0.0016,0.05 0.05,0.05 l 0,-0.05 q 0.8,2.25 1.4,3.45 1.2,2.55 1.2,3.9 0,1.7 -1.5,4.45 -0.1,0.15 -0.2,0.3 -0.05,0.05 -0.05,0.15 -0.05,0.05 -0.1,0.1 -0.05,0.1 -0.1,0.2 -1.85,3.05 -1.95,4 -0.35,3 0.55,6.05 0.55,1.7 1.35,3.2 l 0,0.05 q 0.5,0.5 0.9,1.25 0.25,0.2 0.65,0.55 l 1.15,0.7 q 1.85,1.2 1.9,1.65 0.1,0.8 -0.55,1.8 -0.85,1.3 -3.1,2.9 -3.95,2.85 -3.9,4.15 0.35,0.4 1.85,-0.75 1.8,-1.45 3.5,-1 1.3,1.05 1.35,3.1 0,1.1 0.05,4.05 -0.2,0.05 -0.35,0.1 -2.25,0.45 -4.55,0.3 -2.85,-0.35 -4.4,-0.55 1.65,-2.5 1.15,-6.1 -0.05,-0.25 -0.1,-0.5 -0.3,-1.8 -1.05,-2.55 -0.1,-0.15 -0.25,-0.25 -0.05,-0.05 -0.15,-0.1 -0.85,-0.55 -2.05,-0.1 -0.25,0.05 -0.45,0.15 -0.3,-2.45 -0.85,-5.05 -0.45,-2.1 -0.25,-3.5 0.35,-1.45 2.25,-4.1 3.1,-4.15 3.45,-4.65 0.85,-1.35 1.35,-2.6 0.05,-0.1 0.1,-0.2 0.1,-0.3 0.2,-0.55 0.55,-1.6 0.6,-3.1 0,-2.25 -1.2,-4.2 -0.05,-0.1 -0.1,-0.2 -0.15,-0.2 -0.25,-0.35 1.65,5.65 -2.1,11.65 -0.2,0.3 -0.4,0.6 -4.25,6.35 -5,9.8 -1.4,-0.45 -2.35,-0.25 -0.6,0.1 -0.9,0.3 -0.1,0 -0.1,0.05 -0.05,0 -0.05,0.05 -0.1,0.05 -0.15,0.1 0.1,0 0.15,0 2.85,-0.55 3.85,1.9 1.05,2.5 0.5,4.4 l -0.75,0.75 q -0.4,1.3 -1.8,0.2 -0.3,-0.25 -0.7,-0.65 -1.95,-2.05 -3.65,-1.65 -0.2,0.1 -0.4,0.15 -1.1,0.3 -2.8,0.25 -0.65,0 -1.2,0 -0.2,0 -0.4,0 -0.1,0 -0.2,0 -1.7,0.05 -2.4,0.2 0.55,-3.25 2.3,-8.7 1.25,-4 1.95,-6.55 0.1,-0.35 0.2,-0.7 0.15,-0.7 0.3,-1.25 l -0.05,0 q -0.1,0.1 -0.15,0.25 -0.55,0.8 -0.9,1.7 -0.25,0.45 -0.45,1 -0.6,1.55 -1.8,2.7 -3.35,-0.25 -6.9,-2.35 -0.65,-0.4 -1.15,-0.75 -1.1,-0.75 -1.75,-1.35 -0.75,-0.7 -1,-1.25 0.45,1.2 1.45,2.3 0.9,0.95 2.2,1.7 1.65,1 6.35,3.15 0.6,3.7 -2,9.65 -1.35,3.1 -1.65,4.45 -0.55,2.55 0.35,4.95 -2.3,0.15 -3.7,0.25 -0.8,0.05 -1.3,0.05 -2.4,0.1 -4.75,0.85 -2.55,-1.75 -1.2,-5.6 1.35,-3.9 4.6,-2.2 -1.1,-1.75 -2.55,-1.55 -0.05,0 -0.1,0 -0.25,0.05 -0.45,0.15 -0.25,0.1 -0.5,0.3 -0.7,0.45 -1.3,1.4 -1,1.6 -1.25,3.45 -0.3,1.95 0.8,3 -1.15,1.15 -2.65,1.6 -0.1,0.05 -0.2,0.05 -1.55,0.25 -3.6,-0.75 -0.85,-3.85 0.75,-6.95 0.4,-0.65 1.8,-0.85 0.3,-0.05 0.7,-0.1 0.7,-0.1 1.7,-0.2 -0.8,-0.7 -1.5,-0.95 -0.25,-0.1 -0.45,-0.15 -0.6,-0.15 -1.15,0.05 -1.05,0.25 -1.85,1.6 -1.8,2.85 -1.1,6.3 -0.65,-0.3 -1.15,-0.75 -1.35,-1.25 -1.4,-3.7 -0.1,-2.85 1.4,-5.3 0.15,0 5,0.45 0.2,0 0.35,0 3.35,0.3 4.6,-0.3 0.4,-0.55 0.75,-4.45 0.3,-2.8 2.75,-2.8 -3.9,-2.05 -6.95,-11.2 -0.85,-2.55 -1.45,-5 -1.4,-5.65 -1.6,-11.05 -0.2,-4.1 3.65,-12.1 3.7,-7.8 3,-13.5 0.55,0.15 1.1,0.3 m 9.55,1 q -1.9,-0.1 -4.45,-0.65 -1.1,-0.25 -2.3,-0.55 3.65,-2.95 7.15,-2.45 2.85,0.5 7.4,2.6 -1.1,0.3 -2.1,0.5 -3.5,0.7 -5.7,0.55 M 58,75.65 q -7.1,-0.4 -9.7,0.15 2.95,-1.8 8.65,-2.4 5.65,-0.65 9,0.3 -3,2.3 -7.95,1.95 m 19.95,20.7 q 0.55,0.7 1,1.45 1.5,2.3 2.15,4.4 1.6,5.3 1.2,9.5 -0.1,0.85 -1.2,4 -0.25,0.2 -0.55,0.35 -1.05,0.5 -2.6,0.65 -2,0.15 -6.25,-3.55 -4.3,-3.75 -5.1,-7.7 0.75,-3.9 5.35,-8.9 2.7,-3.1 3.3,-4.15 0.65,1.3 2.7,3.95 M 41,124.4 q 0.35,1.95 0.55,4.55 0.3,4.1 -1.95,7.6 0,-0.2 0,-0.35 -0.1,0.05 -0.25,0.15 -0.1,-0.1 -0.2,-0.15 -0.65,-0.55 -1.85,-1.3 -0.95,-0.5 -2.05,-1.85 0.35,-1.3 1.25,-3.45 0.5,-1.25 1.15,-2.7 1.65,-3.9 2.3,-6.15 0.65,1.45 1.05,3.65 m -0.1,11.4 q 0.05,-0.1 0.15,-0.2 0.85,-0.85 2,-2.4 2.1,3.45 2.65,6.95 0.5,3.4 -0.8,6.55 -1.1,-0.35 -3.75,-0.45 -0.1,0 -0.15,0 -2.65,-0.1 -3.65,-0.55 0,-2.8 -1.25,-5.7 -1.6,-3.65 -1.8,-5.05 0.75,-0.85 2.3,0.4 1.8,1.4 2.7,1.5 0.05,0 0.1,0 0.65,-0.15 1.5,-1.05 m -13.25,12.3 q 0.6,-0.2 1.25,-0.15 -0.35,1.85 -1.25,5.35 -0.45,3.05 0.75,5.8 -0.55,0.1 -1,0.1 -1.6,-0.05 -2.45,-1.4 -1.05,-1.55 -0.85,-4 0.25,-2.45 1.45,-4.2 0.95,-1.15 2.1,-1.5 m 5,-0.55 q 0.5,-0.15 1.1,-0.15 0.1,2.05 -0.15,5.25 0.05,2.6 1.35,4.55 -0.5,0.65 -2.05,0.85 -0.1,0 -0.15,0.05 -1.75,0.1 -2.65,0.25 -2.15,-2.7 -1.2,-6.65 0.85,-3.55 3.75,-4.15 m 3.5,-1.1 q -1.65,-0.1 -2.8,-2.3 -1.15,-3.3 0.05,-5.4 1.55,0.45 2.05,2.45 0.45,1.9 0.7,5.25 m -13,4.7 q 0.45,0.55 0.1,3.3 -0.35,3.1 0.15,4.7 -0.5,-0.05 -0.9,-0.2 -1.6,-0.7 -1.1,-3.4 0.2,-1.5 0.9,-2.85 0.35,-0.8 0.85,-1.55 m 54.1,-1.45 q 0.05,0.2 0.1,0.35 1.55,5.6 -0.8,7.45 -1.45,1.1 -3.15,1.25 -1.15,0.05 -2.45,-0.25 0.6,-4.9 1.2,-6.4 1,-2.2 2.95,-2.5 0.95,-0.2 2.15,0.1 m -13.35,1.5 q 0.4,-2 1.65,-2.55 0.4,-0.2 0.8,-0.3 2.6,-0.7 4.05,3.1 1.65,4.55 -1.25,7.25 -0.75,0.3 -1.4,0.3 -2.55,0 -3.7,-4 -0.5,-2.05 -0.15,-3.8 m -2.2,-2.35 q 0.25,-0.05 0.55,-0.05 0.65,0 1.45,0.1 -1.05,1.25 -1.45,3.7 -0.4,2.45 1.6,5.4 -1.3,0.2 -2.35,0.1 -1.65,-0.15 -2.6,-0.95 -1.45,-1.3 -1.55,-3.4 -0.1,-2.25 1.15,-3.6 1,-1.2 3.2,-1.3 M 82.85,134.9 q -1,-6.75 3.4,-9.8 2.4,4.1 3.35,8.9 0.4,2.15 0.4,4.1 -0.05,2.9 -0.95,5.35 -5.1,-1.7 -6.2,-8.55 M 99.7,139 q -4.15,2.1 -7.55,-0.35 2.6,-1.7 8.1,-4.95 4.45,-3.1 6.05,-6.55 1,1 0.5,3.3 -0.6,2.95 -1.6,4.55 -3.15,2.95 -5.5,4 m -5.2,11.25 q 1.05,1.15 1.45,3 0.8,3.7 -1.25,4.35 -0.65,0.2 -1.55,0.1 0.65,-1.4 0.2,-4.35 -0.35,-2.5 -1.2,-4.15 0.55,-0.15 1.1,0.05 0.6,0.25 1.25,1 m -2.65,1.05 q 1.8,3.65 0.25,6.75 -1.25,0.35 -2,0.5 -0.05,0 -0.1,0.05 -0.8,0.1 -1.95,-0.1 0.2,0.05 -0.25,-4.05 -0.4,-3.55 -1.75,-4.55 1.05,-0.6 1.95,-0.8 2.5,-0.55 3.85,2.2 m -14.5,-11.4 q -1,1.25 -0.9,3.15 0.05,1.75 0.9,3.15 0.25,0.4 0.55,0.75 1.6,1.9 4.4,2.2 3.5,-1.45 2.55,-5.6 0,-0.25 -0.1,-0.6 l -0.4,-1.25 q -0.15,-0.25 -0.2,-0.4 l 0,-0.05 -0.05,-0.05 q -0.35,-0.65 -0.85,-1.15 -0.25,-0.35 -0.45,-0.5 l -0.05,-0.05 q -0.75,-0.5 -1.7,-0.75 -2.1,-0.5 -3.5,0.9 -0.1,0.1 -0.2,0.25 m 1.75,6.55 q -1.45,-1.35 -1.35,-4.25 1.65,-2.65 4.15,-1.4 2.5,1.25 2.45,5 -0.95,2.2 -1.6,2.05 -2.5,-0.2 -3.65,-1.4 M 68.95,83.25 q 0.35,0 0.65,0.15 0.45,0.3 0.6,0.35 -0.15,-1.15 -0.25,-1.35 -0.3,-0.7 -1.15,-0.35 l 0.15,1.2 m 0.1,-3.3 q -0.3,-0.6 -1.2,-0.3 L 68,80.9 q 0.45,-0.05 0.8,0.1 0.35,0.3 0.55,0.35 -0.2,-1.15 -0.3,-1.4 m 2.1,1.85 1.35,-0.2 q 0.85,-1.5 -0.8,-1.75 0.1,0.85 -0.55,1.95 m -24.35,2.8 -0.1,-1.2 -1.2,0.15 0.1,1.2 1.2,-0.15 m -3.55,-3.1 q 0.7,-0.4 0.65,-0.7 -0.05,-0.55 -1.3,-0.6 -0.65,0.95 -0.2,1.3 0.25,0.3 0.85,0 m 0.45,2.85 -0.2,-1.85 -1.2,0.15 q 0.25,1.25 0.3,1.4 0.3,0.55 1.1,0.3 M 62.15,43.9 q -0.75,2.55 -0.35,5.45 0.85,7.05 5.8,6.2 2.2,-0.35 3.15,-3.2 0.95,-2.85 0.5,-6.25 -0.5,-3.4 -2.2,-5.2 -1.75,-1.85 -4.55,-0.5 -1.65,0.95 -2.35,3.5 m 0.3,2.1 q 0.3,-1.7 0.6,-2.6 0.25,-0.95 1.45,-2.05 1.2,-1.1 3.45,-0.1 2.2,0.95 2.55,7.75 -1.3,-4.85 -3.9,-5.3 -2.65,-0.45 -4.15,2.3 m 3.85,-1.4 q 0.85,0.65 0.65,2.1 -0.1,1.45 -0.85,2.25 -2.1,0.7 -2.15,-2.2 -0.1,-2.85 2.35,-2.15 M 48.9,44.4 q -0.7,-2.55 -2.35,-3.5 -2.8,-1.35 -4.75,0.55 -1.7,1.7 -2.2,5.15 -0.45,3.35 0.55,6.1 1.1,3 3.3,3.35 4.95,0.85 5.8,-6.2 0.4,-2.9 -0.35,-5.45 m -1.05,1.05 q -1.3,-1.75 -3.75,-1.25 -2.5,0.5 -3.75,5.2 -0.1,-8.45 4.95,-8.2 2.25,0.75 2.6,2.05 0.65,1.75 -0.05,2.2 m -2.9,4 q -0.75,-0.8 -0.85,-2.25 -0.2,-1.45 0.65,-2.1 2.45,-0.7 2.35,2.15 -0.05,2.9 -2.15,2.2 M 56.6,33.25 q -0.05,-0.15 -1.2,-2.2 -3.15,-0.25 -4,2.35 -0.8,2.35 0.3,4.1 0.75,0.85 1.15,1 0.4,0.15 1.2,0.35 0.85,0.2 2.05,-0.65 1.15,-0.95 1.15,-1.9 -0.05,-1.6 -0.65,-3.05 m -5.2,0.8 q 0.3,-1.5 1.65,-2.15 l 1.85,-0.2 q 2.65,3.1 0.85,5.4 -1.85,2.35 -3.25,0.4 -1.5,-2.05 -1.1,-3.45 z"
         id="path14497"
         inkscape:connector-curvature="0"
         style="fill:#000000;stroke:none" />
      <path
         d="m 88.05,158.5 q 1.15,0.2 1.95,0.1 0.3,-5.2 -2,-9.5 -0.9,0.2 -1.95,0.8 1.35,1 1.75,4.55 0.45,4.1 0.25,4.05 m 5.2,-9.25 q -0.55,-0.2 -1.1,-0.05 0.85,1.65 1.2,4.15 0.45,2.95 -0.2,4.35 0.9,0.1 1.55,-0.1 0.2,-4.65 -1.45,-8.35 m -35.9,4.5 q 0.1,2.1 1.55,3.4 0.95,0.8 2.6,0.95 -4.7,-5.25 0.2,-9.25 -2.2,0.1 -3.2,1.3 -1.25,1.35 -1.15,3.6 m 8.2,-5.1 q -1.25,0.55 -1.65,2.55 -0.35,1.75 0.15,3.8 1.15,4 3.7,4 -5.4,-4.85 -1.4,-10.65 -0.4,0.1 -0.8,0.3 m 9.55,0.95 q -1.95,0.3 -2.95,2.5 -0.6,1.5 -1.2,6.4 1.3,0.3 2.45,0.25 -1.8,-1.3 1.7,-9.15 m -51.85,4.85 q 0.35,-2.75 -0.1,-3.3 -0.5,0.75 -0.85,1.55 -0.75,3.1 0.2,6.25 0.4,0.15 0.9,0.2 -0.5,-1.6 -0.15,-4.7 m 10.5,-7.05 q -0.6,0 -1.1,0.15 -1.95,8.7 0.1,10.55 0.05,-0.05 0.15,-0.05 1.55,-0.2 2.05,-0.85 -1.3,-1.95 -1.35,-4.55 0.25,-3.2 0.15,-5.25 m -4.85,0.55 q -0.65,-0.05 -1.25,0.15 l -1.2,6.1 q -0.95,3.25 0.95,5 0.45,0 1,-0.1 -1.2,-2.75 -0.75,-5.8 0.9,-3.5 1.25,-5.35 M 41.05,135.6 q -0.1,0.1 -0.15,0.2 -0.85,0.9 -1.5,1.05 -0.05,0 -0.1,0 2.9,4.5 1.7,9.4 0.05,0 0.15,0 2.65,0.1 3.75,0.45 1.3,-3.15 0.8,-6.55 -0.55,-3.5 -2.65,-6.95 -1.15,1.55 -2,2.4 M 52.5,87.8 q 0.6,-1.55 4.05,-1.45 3.05,0.25 6.1,1.55 1,-0.2 2.1,-0.5 -4.55,-2.1 -7.4,-2.6 -3.5,-0.5 -7.15,2.45 1.2,0.3 2.3,0.55 m -8.4,66.4 q 0.25,-1.85 1.25,-3.45 0.6,-0.95 1.3,-1.4 -1.7,0.3 -2.8,1.6 -3.65,5.15 -1.8,7.9 0.1,0 0.2,-0.05 1.5,-0.45 2.65,-1.6 -1.1,-1.05 -0.8,-3 m 34.8,-2.05 q 0.5,3.6 -1.15,6.1 1.55,0.2 4.4,0.55 2.3,0.15 4.55,-0.3 -4.95,-0.3 -6.1,-1.65 l -1.7,-4.7 m -40.45,-1.6 q 0.8,-1.35 1.85,-1.6 -2.3,-1.15 -3.25,-0.25 -2.55,3.7 -0.85,7.4 0.5,0.45 1.15,0.75 -0.7,-3.45 1.1,-6.3 M 73.1,144.5 q -1,-2.45 -3.85,-1.9 2.75,3.9 1.8,7.25 1.4,1.1 1.8,-0.2 l 0.75,-0.75 q 0.55,-1.9 -0.5,-4.4 m -11.4,3.45 q 0.1,0 0.2,0 -1.7,-0.7 1.65,-15.05 -0.7,2.55 -1.95,6.55 -1.75,5.45 -2.3,8.7 0.7,-0.15 2.4,-0.2 m 15.95,-15.4 q 0.2,-0.3 0.4,-0.6 -6.35,8.85 -8.65,10.45 0.3,-0.2 0.9,-0.3 0.95,-0.2 2.35,0.25 0.75,-3.45 5,-9.8 m -25,0.95 q 0.5,0.35 1.15,0.75 3.55,2.1 6.9,2.35 1.2,-1.15 1.8,-2.7 0.2,-0.55 0.45,-1 0.35,-0.9 0.9,-1.7 0.05,-0.15 0.15,-0.25 l 4.6,-10.35 q -6.7,13.15 -9.4,13.85 -3.05,0.65 -6.55,-0.95 m 0.9,1.4 q -1.3,-0.75 -2.2,-1.7 l 3.85,6.65 q 1.8,4.05 0.1,9.25 -2.75,4.85 -2.4,8.25 1.4,-0.1 3.7,-0.25 -0.9,-2.4 -0.35,-4.95 0.3,-1.35 1.65,-4.45 2.6,-5.95 2,-9.65 -4.7,-2.15 -6.35,-3.15 M 80.4,120.65 q 0.05,0.1 0.1,0.2 1.2,1.95 1.2,4.2 -0.05,1.5 -0.6,3.1 -0.1,0.25 -0.2,0.55 -0.05,0.1 -0.1,0.2 -0.5,1.25 -1.35,2.6 -0.35,0.5 -3.45,4.65 -1.9,2.65 -2.25,4.1 -0.2,1.4 0.25,3.5 0.55,2.6 0.85,5.05 0.2,-0.1 0.45,-0.15 1.2,-0.45 2.05,0.1 l 0,-2.55 q -0.85,-1.4 -0.9,-3.15 -0.1,-1.9 0.9,-3.15 l 0,-1.7 q 2.65,-3.05 3.35,-6.1 l 0.35,-3.55 2.25,-1.85 q 0.05,-0.1 0.1,-0.2 0.05,-0.05 0.1,-0.1 0,-0.1 0.05,-0.15 0.1,-0.15 0.2,-0.3 1.5,-2.75 1.5,-4.45 0,-1.35 -1.2,-3.9 -0.6,-1.2 -1.4,-3.45 l 0,0.05 -0.05,0.05 q 0.15,1.85 -1.4,2.85 l -0.45,0.25 q -0.75,2.2 -0.6,2.95 0.1,0.15 0.25,0.35 M 50.25,88.25 q -1.35,-0.35 -2.85,-0.8 -0.55,-0.15 -1.1,-0.3 0.7,5.7 -3,13.5 -3.85,8 -3.65,12.1 0.2,5.4 1.6,11.05 0.65,-14.2 10.35,-30.2 9.7,2.6 21.9,-7.4 0.05,0.3 0.1,0.45 0.1,0.45 0,-1.3 -2.8,1.45 -7.6,2.9 -0.5,0.15 -0.95,0.3 -4.55,1.1 -10,0.6 Q 52.5,88.8 50.8,88.4 50.5,88.3 50.25,88.25 m -16,-48 q -0.1,0.9 -0.4,1.6 L 33.6,43.1 q 0.75,15 0,25.95 -0.85,4.9 -0.7,8.55 0.25,2 0.25,2.6 0.1,0.2 0.1,0.5 0.15,0.75 0.35,1.4 -0.45,2.35 1.55,3.2 l 0,-0.05 q 0.95,-1.35 1.6,-1.8 0.4,-0.3 0.65,-0.25 Q 37.15,83 36.85,82.7 36.3,82.15 35.6,81.4 34.4,80.15 34.4,78.6 36,63.65 36.15,59.7 36.55,48.35 34.25,40.25 m 5.1,-14.15 q -1.55,-0.4 -2.75,0 -0.1,5.5 -2.1,12 0.4,1.05 0.85,1.4 0.2,-2.9 1.8,-6.85 Q 39,28.2 39.35,26.1 M 51.4,62.05 q -5.3,7.4 -6.5,11 -1.25,3.6 5.5,10.45 0.15,2.2 -2.35,2.9 3.8,0 6.6,-2.9 Q 49.6,82.8 47.35,77.55 45,72.25 49.3,68.9 l 2.1,-6.85 m 10.65,-1.6 3.35,7.9 q 4.05,4.35 1.05,9.35 -2.1,3.35 -6.25,5.4 -0.2,1.35 4.5,3 1.2,0.45 2.45,0.55 -3.6,-1.85 -3.95,-4 4.7,-3.45 5.95,-6.75 1.25,-3.3 -7.1,-15.45 M 77.7,69.8 Q 75.4,63.25 75.2,62.15 74,57.25 73.8,44.95 l -1.1,8.75 q 6.85,22.65 3.2,27.75 2.4,-2.9 2.8,-4.9 0.5,-2.5 -1,-6.75 M 39.25,56.6 37,49.5 q 0.75,3.2 0.8,6.1 0.05,3.1 -1.3,11 -1.3,7.9 -0.9,11.85 0.35,0.7 0.8,1.35 -0.95,-3.7 2.85,-23.2 M 49.5,18.55 q -3.8,1.3 -8,5.1 -2.25,4.65 -4.15,9.75 -1.9,5.1 -1.5,10.35 0.05,0.5 0.1,1.1 Q 37.7,23.1 53.75,17.9 51.4,17.85 49.5,18.55 M 89.1,144.9 q -1.15,1.4 -1.5,2.25 -0.55,1.05 0.1,1.35 0.05,0 0.15,-0.05 2.25,-0.6 3.6,-0.6 0.75,0 1.6,0.2 0.8,0.2 1.75,0.55 12.4,-5.05 20.5,-16.45 6.9,-9.65 5.65,-19.7 -2.3,13.6 -10.15,22.6 -0.3,0.3 -0.55,0.65 -7.1,7.6 -13,8.85 -4.25,1.8 -5.6,-4.6 -0.05,1.75 -2.55,4.95 m 7.45,-49.55 q -0.2,0.05 -0.35,0.1 6.25,0 8.75,1.55 2.5,1.55 5.8,5.75 1.6,2.05 2,4.65 l -0.15,-2.15 q -1.3,-5.4 -5.5,-8.05 -1.85,-1.2 -4.25,-1.8 -2.45,-0.65 -6.3,-0.05 M 82.8,78.5 Q 82.5,78.45 82.1,77.35 78.05,64.5 77.6,57.7 77.4,42.65 75.95,33.25 q -0.55,-3.6 -1.3,-6.4 -1.75,-1.85 -3.9,-2 2,2.4 3.1,6.7 0.55,2.25 0.85,5.05 0.2,1.9 0.3,4 0.05,3.2 0.15,9.85 0.25,5.95 1.1,10.3 0.45,2.4 2.4,7.6 1.6,4.35 1.6,6.15 0.05,1.65 -1.25,4.5 -1.25,2.55 -2.75,3.8 3.85,2.5 5.1,-1.1 0.7,-2 1.45,-3.2 z"
         id="path14499-2"
         inkscape:connector-curvature="0"
         style="fill:#cccccc;stroke:none" />
      <path
         d="m 92.1,158.05 q 1.55,-3.1 -0.25,-6.75 -1.35,-2.75 -3.85,-2.2 2.3,4.3 2,9.5 0.05,-0.05 0.1,-0.05 0.75,-0.15 2,-0.5 m 3.85,-4.8 q -0.4,-1.85 -1.45,-3 -0.65,-0.75 -1.25,-1 1.65,3.7 1.45,8.35 2.05,-0.65 1.25,-4.35 m -33.7,-4.45 q -0.3,0 -0.55,0.05 -4.9,4 -0.2,9.25 1.05,0.1 2.35,-0.1 -2,-2.95 -1.6,-5.4 0.4,-2.45 1.45,-3.7 -0.8,-0.1 -1.45,-0.1 m 5.5,10.2 q 0.65,0 1.4,-0.3 2.9,-2.7 1.25,-7.25 -1.45,-3.8 -4.05,-3.1 -4,5.8 1.4,10.65 m 9.6,-8.95 q -0.05,-0.15 -0.1,-0.35 -1.2,-0.3 -2.15,-0.1 -3.5,7.85 -1.7,9.15 1.7,-0.15 3.15,-1.25 2.35,-1.85 0.8,-7.45 m -55.95,5.5 q -0.5,2.7 1.1,3.4 -0.95,-3.15 -0.2,-6.25 -0.7,1.35 -0.9,2.85 m 7.5,-3.85 q -0.95,3.95 1.2,6.65 0.9,-0.15 2.65,-0.25 -2.05,-1.85 -0.1,-10.55 -2.9,0.6 -3.75,4.15 m -4.8,2.1 q -0.2,2.45 0.85,4 0.85,1.35 2.45,1.4 -1.9,-1.75 -0.95,-5 l 1.2,-6.1 q -1.15,0.35 -2.1,1.5 -1.2,1.75 -1.45,4.2 m 12.5,-18.45 q -1.55,-1.25 -2.3,-0.4 0.2,1.4 1.8,5.05 1.25,2.9 1.25,5.7 1,0.45 3.65,0.55 1.2,-4.9 -1.7,-9.4 -0.9,-0.1 -2.7,-1.5 M 48.3,75.8 q 2.6,-0.55 9.7,-0.15 4.95,0.35 7.95,-1.95 -3.35,-0.95 -9,-0.3 -5.7,0.6 -8.65,2.4 m 4.2,12 q 2.55,0.55 4.45,0.65 2.2,0.15 5.7,-0.55 -3.05,-1.3 -6.1,-1.55 -3.45,-0.1 -4.05,1.45 m 30.75,52.2 0,0.05 q 0.5,0.5 0.85,1.15 l 0.05,0.05 q -0.4,-0.75 -0.9,-1.25 m -0.65,-25.75 0.05,-0.05 q -0.04844,0 -0.05,-0.05 0,0.0516 0,0.1 m -5.25,25.65 q 0.1,-0.15 0.2,-0.25 1.4,-1.4 3.5,-0.9 0.95,0.25 1.7,0.75 l 0.05,0.05 q 0.25,0.15 0.45,0.4 -0.8,-1.5 -1.35,-3.2 -0.9,-3.05 -0.55,-6.05 0.1,-0.95 1.95,-4 l -2.25,1.85 -0.35,3.55 q -0.7,3.05 -3.35,6.1 l 0,1.7 m 0.55,7.05 q -0.3,-0.35 -0.55,-0.75 l 0,2.55 q 0.1,0.05 0.15,0.1 0.15,0.1 0.25,0.25 0.75,0.75 1.05,2.55 0.05,0.25 0.1,0.5 l 1.7,4.7 q 1.15,1.35 6.1,1.65 0.15,-0.05 0.35,-0.1 -0.05,-2.95 -0.05,-4.05 -0.05,-2.05 -1.35,-3.1 -1.7,-0.45 -3.5,1 -1.5,1.15 -1.85,0.75 -0.05,-1.3 3.9,-4.15 2.25,-1.6 3.1,-2.9 0.65,-1 0.55,-1.8 -0.05,-0.45 -1.9,-1.65 l -1.15,-0.7 q -0.4,-0.35 -0.65,-0.55 l 0,0.05 q 0.05,0.15 0.2,0.4 l 0.4,1.25 q 0.1,0.35 0.1,0.6 0.95,4.15 -2.55,5.6 -2.8,-0.3 -4.4,-2.2 M 74.95,91.75 Q 74.45,90.3 74.1,89.35 74,89.1 73.6,86.65 73.55,86.5 73.5,86.2 q -12.2,10 -21.9,7.4 -9.7,16 -10.35,30.2 0.6,2.45 1.45,5 3.05,9.15 6.95,11.2 -2.45,0 -2.75,2.8 -0.35,3.9 -0.75,4.45 -1.25,0.6 -4.6,0.3 -0.15,0 -0.35,0 -4.85,-0.45 -5,-0.45 -1.5,2.45 -1.4,5.3 0.05,2.45 1.4,3.7 -1.7,-3.7 0.85,-7.4 0.95,-0.9 3.25,0.25 0.55,-0.2 1.15,-0.05 0.2,0.05 0.45,0.15 0.7,0.25 1.5,0.95 -1,0.1 -1.7,0.2 -0.4,0.05 -0.7,0.1 -1.4,0.2 -1.8,0.85 -1.6,3.1 -0.75,6.95 2.05,1 3.6,0.75 -1.85,-2.75 1.8,-7.9 1.1,-1.3 2.8,-1.6 0.25,-0.2 0.5,-0.3 0.2,-0.1 0.45,-0.15 0.05,0 0.1,0 1.45,-0.2 2.55,1.55 -3.25,-1.7 -4.6,2.2 -1.35,3.85 1.2,5.6 2.35,-0.75 4.75,-0.85 0.5,0 1.3,-0.05 -0.35,-3.4 2.4,-8.25 1.7,-5.2 -0.1,-9.25 l -3.85,-6.65 q -1,-1.1 -1.45,-2.3 0.25,0.55 1,1.25 0.65,0.6 1.75,1.35 3.5,1.6 6.55,0.95 2.7,-0.7 9.4,-13.85 l -4.6,10.35 0.05,0 q -0.15,0.55 -0.3,1.25 -0.1,0.35 -0.2,0.7 -3.35,14.35 -1.65,15.05 0.2,0 0.4,0 0.55,0 1.2,0 1.7,0.05 2.8,-0.25 0.2,-0.05 0.4,-0.15 1.7,-0.4 3.65,1.65 0.4,0.4 0.7,0.65 0.95,-3.35 -1.8,-7.25 -0.05,0 -0.15,0 0.05,-0.05 0.15,-0.1 0,-0.05 0.05,-0.05 0,-0.05 0.1,-0.05 2.3,-1.6 8.65,-10.45 3.75,-6 2.1,-11.65 -0.15,-0.75 0.6,-2.95 -0.1,0 -0.2,0.05 -2.25,1.1 -4.1,0.55 -1.25,0.2 -6.5,-4.9 -5.2,-5.15 -4.2,-7.85 0.95,-3.6 3.6,-7.25 1.6,-2.25 5.6,-6.2 M 33.25,80.7 q -0.1,1.2 -2.7,3.4 -2.15,1.8 -2.9,1.9 l 0.05,0.05 q 2.8,1.9 4.35,1.6 1.45,-0.3 3.1,-2.35 -2,-0.85 -1.55,-3.2 -0.2,-0.65 -0.35,-1.4 m 0.6,-38.85 q -0.4,0.85 -1.1,1.45 -1.35,1.2 -3.05,0.55 3.1,6.35 3.8,14.9 0.75,8.4 -3.85,8.75 -4.1,0.7 -5.2,0.45 -0.8,3.35 -1.6,6.75 1.8,-1.6 4,-2.7 2.25,-1.15 4.2,-1 1.05,0.9 1.8,6.3 0,0.15 0.05,0.3 -0.15,-3.65 0.7,-8.55 0.75,-10.95 0,-25.95 l 0.25,-1.25 M 34,28.1 q -1.7,2.5 -0.9,7.45 0.6,0.45 1.2,2 0.1,0.3 0.2,0.55 2,-6.5 2.1,-12 -1.55,0.4 -2.6,2 m 24.55,-9.45 q -2.6,-0.7 -4.8,-0.75 -16.05,5.2 -17.8,26.95 0.1,0.8 0.35,1.8 0.2,1.1 0.55,2.4 0.05,0.15 0.1,0.3 l 0.05,0.15 2.25,7.1 q -3.8,19.5 -2.85,23.2 0.3,0.5 0.7,1 2.5,3.2 6.8,4.8 2.2,0.75 4.15,0.8 2.5,-0.7 2.35,-2.9 -6.75,-6.85 -5.5,-10.45 1.2,-3.6 6.5,-11 l -2.1,6.85 q -0.5,0.45 -1.15,1.85 -0.8,1.5 -0.1,3.2 11,-3.6 17.75,-1.45 1.15,-0.45 0.5,-1.8 -0.7,-1.35 -1,-2.45 0.05,0.05 0.1,0.1 l -3.35,-7.9 q 8.35,12.15 7.1,15.45 -1.25,3.3 -5.95,6.75 0.35,2.15 3.95,4 1.65,0.1 3.3,-0.45 1.7,-0.65 4.55,-3.75 0.1,-0.1 0.2,-0.2 0.35,-0.4 0.7,-0.8 3.65,-5.1 -3.2,-27.75 l 1.1,-8.75 q 0,-0.2 0,-0.4 0,-0.95 0,-1.85 -0.25,-8.8 -1.6,-12.5 -0.15,-0.3 -0.25,-0.55 -0.15,0 -0.35,0.1 -0.9,0.2 -2.5,1.1 -3.05,1.65 -3.8,2 -5.05,2.35 -7.3,-0.9 -1.35,-3.8 -1.15,-7.35 0.1,-2.8 1.75,-5.85 0.05,-0.05 0.05,-0.1 -0.05,0 -0.1,0 m -3.15,12.4 q 1.15,2.05 1.2,2.2 0.6,1.45 0.65,3.05 0,0.95 -1.15,1.9 -1.2,0.85 -2.05,0.65 -0.8,-0.2 -1.2,-0.35 -0.4,-0.15 -1.15,-1 -1.1,-1.75 -0.3,-4.1 0.85,-2.6 4,-2.35 m -8.85,9.85 q 1.65,0.95 2.35,3.5 0.75,2.55 0.35,5.45 -0.85,7.05 -5.8,6.2 -2.2,-0.35 -3.3,-3.35 -1,-2.75 -0.55,-6.1 0.5,-3.45 2.2,-5.15 1.95,-1.9 4.75,-0.55 m 15.25,8.45 q -0.4,-2.9 0.35,-5.45 0.7,-2.55 2.35,-3.5 2.8,-1.35 4.55,0.5 1.7,1.8 2.2,5.2 0.45,3.4 -0.5,6.25 -0.95,2.85 -3.15,3.2 -4.95,0.85 -5.8,-6.2 m -18.3,33.15 0.2,1.85 q -0.8,0.25 -1.1,-0.3 -0.05,-0.15 -0.3,-1.4 l 1.2,-0.15 m 0.4,-1.7 q 0.05,0.3 -0.65,0.7 -0.6,0.3 -0.85,0 -0.45,-0.35 0.2,-1.3 1.25,0.05 1.3,0.6 m 2.8,2.6 0.1,1.2 -1.2,0.15 -0.1,-1.2 1.2,-0.15 m 25.8,-1.8 -1.35,0.2 q 0.65,-1.1 0.55,-1.95 1.65,0.25 0.8,1.75 m -4.65,-1.95 q 0.9,-0.3 1.2,0.3 0.1,0.25 0.3,1.4 Q 69.15,81.3 68.8,81 68.45,80.85 68,80.9 l -0.15,-1.25 m 1.75,3.75 q -0.3,-0.15 -0.65,-0.15 l -0.15,-1.2 q 0.85,-0.35 1.15,0.35 0.1,0.2 0.25,1.35 Q 70.05,83.7 69.6,83.4 M 66.95,46.7 q 0.2,-1.45 -0.65,-2.1 -2.45,-0.7 -2.35,2.15 0.05,2.9 2.15,2.2 0.75,-0.8 0.85,-2.25 m -3.9,-3.3 q -0.3,0.9 -0.6,2.6 1.5,-2.75 4.15,-2.3 2.6,0.45 3.9,5.3 -0.35,-6.8 -2.55,-7.75 -2.25,-1 -3.45,0.1 -1.2,1.1 -1.45,2.05 M 44.1,47.2 q 0.1,1.45 0.85,2.25 2.1,0.7 2.15,-2.2 0.1,-2.85 -2.35,-2.15 -0.85,0.65 -0.65,2.1 m 0,-3 q 2.45,-0.5 3.75,1.25 0.7,-0.45 0.05,-2.2 -0.35,-1.3 -2.6,-2.05 -5.05,-0.25 -4.95,8.2 1.25,-4.7 3.75,-5.2 m 58.75,51.2 q 2.4,0.6 4.25,1.8 4.2,2.65 5.5,8.05 l 0.15,2.15 q 0.1,0.95 0.1,2 0,0.9 -0.15,1.9 -0.1,0.55 -0.2,1.2 -0.1,0.45 -0.25,0.9 -1.8,6.45 -3.85,12.55 l -1.4,7.7 q -1.15,2.25 -4.05,4.5 -2.9,2.2 -5.6,3.05 -1.55,0.3 -3.55,-0.45 -2.05,-0.8 -2.2,-1.4 0.05,0.25 0.05,0.6 1.35,6.4 5.6,4.6 5.9,-1.25 13,-8.85 0.25,-0.35 0.55,-0.65 7.85,-9 10.15,-22.6 -0.25,-1.85 -0.75,-3.7 -1.7,-6.35 -9.2,-11.15 -7.35,-4.7 -14.45,-2.25 3.85,-0.6 6.3,0.05 m -19.9,-46 Q 81.65,46 81,44.1 q -1.55,-5.6 -2.4,-8.75 -0.9,-3.1 -1.15,-3.75 -1.25,-3.1 -2.8,-4.75 0.75,2.8 1.3,6.4 1.45,9.4 1.65,24.45 0.45,6.8 4.5,19.65 0.4,1.1 0.7,1.15 0.2,-0.35 0.4,-0.65 0.4,-0.55 0.8,-0.9 1.45,-1.15 5.1,-1.95 3.65,-0.85 3.25,-3.2 -0.4,-0.95 -3,-0.45 -2.6,0.5 -4.5,-0.8 -4.9,-3.25 -5.2,-9.7 -0.35,-6 3.3,-11.45 z"
         id="path14501"
         inkscape:connector-curvature="0"
         style="fill:#ffffff;stroke:none" />
      <path
         d="m 92.15,138.65 q 3.4,2.45 7.55,0.35 2.35,-1.05 5.5,-4 1,-1.6 1.6,-4.55 0.5,-2.3 -0.5,-3.3 -1.6,3.45 -6.05,6.55 -5.5,3.25 -8.1,4.95 m -5.9,-13.55 q -4.4,3.05 -3.4,9.8 1.1,6.85 6.2,8.55 0.9,-2.45 0.95,-5.35 0,-1.95 -0.4,-4.1 -0.95,-4.8 -3.35,-8.9 m -52.9,19.05 q 1.15,2.2 2.8,2.3 -0.25,-3.35 -0.7,-5.25 -0.5,-2 -2.05,-2.45 -1.2,2.1 -0.05,5.4 m 1.9,-11.1 q 1.1,1.35 2.05,1.85 1.2,0.75 1.85,1.3 0.1,0.05 0.2,0.15 0.15,-0.1 0.25,-0.15 -0.25,-10.35 -3.1,-6.6 -0.9,2.15 -1.25,3.45 M 78.95,97.8 q -0.45,-0.75 -1,-1.45 -2.05,-2.65 -2.7,-3.95 -0.6,1.05 -3.3,4.15 -4.6,5 -5.35,8.9 0.8,3.95 5.1,7.7 4.25,3.7 6.25,3.55 1.55,-0.15 2.6,-0.65 -1.25,-0.3 -2.85,-9.2 -0.35,-7.9 1.25,-9.05 m -1.2,44.4 q -0.1,2.9 1.35,4.25 1.15,1.2 3.65,1.4 0.65,0.15 1.6,-2.05 0.05,-3.75 -2.45,-5 -2.5,-1.25 -4.15,1.4 m -43,-55.55 q -0.25,0.25 -1.2,1.65 1.5,0.9 3.25,0.5 l -2.05,-2.15 m -2.1,-7.4 Q 32.6,78.8 32.5,77.4 32.35,76 32.05,74.6 q -0.55,-2 -1.55,-2.9 -4.15,0.55 -6.35,3.4 -2.25,2.75 -0.85,5.85 1.25,2.75 3.65,4.6 3,-1.4 4.25,-2.65 1.45,-1.75 1.45,-2.5 0,-0.75 0,-1.15 M 24.7,66.85 q -0.5,0.6 3.65,0.25 4.1,-0.35 4.7,-4.5 0.15,-0.45 -0.6,-6.9 -0.8,-6.5 -3.05,-9.3 -2.3,8.95 -3.15,13.35 -0.75,3.55 -1.55,7.1 M 33.25,37.1 q -0.4,-0.65 -0.95,-1.05 -0.75,-0.95 -1.05,2.05 -0.4,4.4 -1.05,5.1 1.8,0.05 2.55,-1.25 0.45,-0.8 1.4,-2.3 0.1,-0.85 -0.9,-2.55 M 59.2,19.75 q -1.65,1.55 -1.9,4.55 -0.3,3.3 1.1,7.2 1.95,2.75 6.9,0.7 3.85,-1.6 4.85,-3.65 Q 66.7,22.9 59.2,19.75 M 53.05,31.9 q -1.35,0.65 -1.65,2.15 -0.4,1.4 1.1,3.45 1.4,1.95 3.25,-0.4 1.8,-2.3 -0.85,-5.4 l -1.85,0.2 m 31.5,45.95 q -0.2,0.2 -0.9,1.2 1.9,3.15 7,2.25 1.6,-2.35 1.55,-5.7 -5.1,-0.05 -7.65,2.25 M 86.4,61.2 q -2.2,-5.3 -1.35,-6.75 -0.85,-2.15 -1.5,-4.3 -2.15,3.1 -3,6.6 -0.8,3.35 0.15,6.85 0.95,3.7 3.4,5.5 2.6,1.85 6.05,1.2 -1.55,-3.8 -3.75,-9.1 z"
         id="path14503"
         inkscape:connector-curvature="0"
         style="fill:#a4380b;stroke:none" />
      <path
         d="m 41.55,128.95 q -0.2,-2.6 -0.55,-4.55 -0.4,-2.2 -1.05,-3.65 -0.65,2.25 -2.3,6.15 -0.65,1.45 -1.15,2.7 2.85,-3.75 3.1,6.6 0,0.15 0,0.35 2.25,-3.5 1.95,-7.6 m 36.15,-22.1 q 1.6,8.9 2.85,9.2 0.3,-0.15 0.55,-0.35 1.1,-3.15 1.2,-4 0.4,-4.2 -1.2,-9.5 -0.65,-2.1 -2.15,-4.4 -1.6,1.15 -1.25,9.05 M 34.75,86.65 36.8,88.8 q 2.15,-0.5 4.65,-3.05 -3.15,-2.5 -4.75,-1.2 -0.6,0.55 -1.95,2.1 M 59.55,19.4 q -0.2,0.15 -0.35,0.35 7.5,3.15 10.95,8.8 0.25,-0.55 0.3,-1.1 0.25,-3.1 -3.5,-5.55 -3.25,-2.1 -7.4,-2.5 M 89.6,82.55 q 0.6,-0.6 1.05,-1.25 -5.1,0.9 -7,-2.25 -1.3,1.35 -1.55,5.1 4.7,1.2 7.5,-1.6 m -4.55,-28.1 q -0.85,1.45 1.35,6.75 2.2,5.3 3.75,9.1 0.35,-0.05 0.7,-0.15 0.1,-0.35 0.2,-0.15 -0.15,-3 -2.6,-7.85 -1.95,-3.8 -3.4,-7.7 z"
         id="path14505-5"
         inkscape:connector-curvature="0"
         style="fill:#7b2b09;stroke:none" />
    </g>
    <style
       id="style6"
       type="text/css">
    .str0 {stroke:#006633;stroke-width:282.22}
    .str1 {stroke:#AB754F;stroke-width:282.22}
    .fil2 {fill:none}
    .fil3 {fill:#606062}
    .fil5 {fill:#CE8F64}
    .fil4 {fill:#006633}
    .fil8 {fill:#009933}
    .fil9 {fill:#00B33C}
    .fil10 {fill:#00C943}
    .fil0 {fill:#00D447}
    .fil1 {fill:#00DB49}
    .fil6 {fill:#B88059}
    .fil11 {fill:#BA8058}
    .fil12 {fill:#D49264}
    .fil7 {fill:#E49C6D}
  </style>
    <filter
       inkscape:collect="always"
       id="filter4175"
       color-interpolation-filters="sRGB">
      <feGaussianBlur
         inkscape:collect="always"
         stdDeviation="1.1983155"
         id="feGaussianBlur4177" />
    </filter>
  </defs>
  <metadata
     id="metadata7">
    <rdf:RDF>
      <cc:Work
         rdf:about="">
        <dc:format>image/svg+xml</dc:format>
        <dc:type
           rdf:resource="http://purl.org/dc/dcmitype/StillImage" />
        <dc:title>Bingo das Letras</dc:title>
        <cc:license
           rdf:resource="" />
        <dc:rights>
          <cc:Agent>
            <dc:title>Copyright © 2002-2016. Portal Clickideia ® - Todos os Direitos Reservados</dc:title>
          </cc:Agent>
        </dc:rights>
        <dc:description>SVG game with snapSVG lib and other javascripts included</dc:description>
        <dc:language>pt_BR</dc:language>
        <dc:subject>
          <rdf:Bag>
            <rdf:li>Educativo</rdf:li>
            <rdf:li>ensino fundamental</rdf:li>
            <rdf:li>clickiéia</rdf:li>
            <rdf:li>letras</rdf:li>
            <rdf:li>lingua portuguesa</rdf:li>
            <rdf:li>infantil</rdf:li>
            <rdf:li>educational game</rdf:li>
            <rdf:li>game design</rdf:li>
            <rdf:li>multimidia</rdf:li>
          </rdf:Bag>
        </dc:subject>
        <dc:creator>
          <cc:Agent>
            <dc:title>http://www.clickideia.com.br/</dc:title>
          </cc:Agent>
        </dc:creator>
        <dc:publisher>
          <cc:Agent>
            <dc:title>http://www.clickideia.com.br/</dc:title>
          </cc:Agent>
        </dc:publisher>
        <dc:date>18/01/2016</dc:date>
        <dc:contributor>
          <cc:Agent>
            <dc:title>michel morandi - michel.morandi@clickideia.com.br</dc:title>
          </cc:Agent>
        </dc:contributor>
      </cc:Work>
    </rdf:RDF>
  </metadata>
  <g
     id="g4183"
     transform="matrix(1.3879692,0,0,1.3879692,-0.05687882,5.9280632)">
    <g
       transform="translate(-71.355219,0.01290362)"
       id="g4179">
      <path
         inkscape:connector-curvature="0"
         id="path4173"
         transform="translate(-1.5967958e-6,0)"
         d="M 97.3125,0.03125 C 97.208086,0.02695452 97.10848,0.05039203 97,0.09375 96.76023,0.18957843 96.80611,0.2668457 97.15625,0.28125 97.47313,0.29428455 97.6624,0.2247505 97.5625,0.125 97.512565,0.07512475 97.416914,0.03554548 97.3125,0.03125 z m 4.5,0 c -0.10441,-0.0042955 -0.20402,0.01914203 -0.3125,0.0625 -0.23976,0.09582843 -0.16264,0.1730957 0.1875,0.1875 0.31688,0.0130345 0.4749,-0.0564995 0.375,-0.15625 -0.0499,-0.04987525 -0.14559,-0.08945452 -0.25,-0.09375 z M 96.125,0.34375 C 96.020588,0.339455 95.889735,0.3628921 95.78125,0.40625 95.54148,0.5020784 95.61861,0.5480958 95.96875,0.5625 96.28563,0.5755346 96.4749,0.5060005 96.375,0.40625 96.32506,0.3563748 96.229412,0.3480455 96.125,0.34375 z m 6.78125,0.0625 c -0.0872,0.00798 -0.1601,0.002905 -0.25,0.03125 -0.35328,0.11138712 -1.71714,0.1820162 -3,0.15625 -1.92109,-0.038585 -2.61042,0.11555243 -4.03125,0.75 -0.9488,0.4236685 -1.47713,0.5597496 -1.15625,0.3125 0.32089,-0.2472496 0.70028,-0.46875 0.84375,-0.46875 0.1435,0 0.19592,-0.1161458 0.09375,-0.28125 C 95.09769,0.40760013 93.63952,0.56294536 92.5625,1.21875 92.00472,1.5583791 90.92553,2.4924263 90.15625,3.28125 89.02871,4.4374206 88.5001,4.7326516 87.4375,4.875 86.02716,5.0639336 84.94672,5.7128385 84.03125,6.9375 83.6671,7.42465 82.99276,9.9833789 82.15625,14 c -3.33359,16.00652 -4.68595,22.242314 -5.25,24.25 -0.80769,2.874748 -0.78757,5.591891 0.03125,7.28125 0.79464,1.639491 2.19803,2.81081 5.1875,4.3125 3.12582,1.570183 5.07322,1.62877 7.25,0.25 0.80409,-0.509314 1.82325,-0.94146 2.25,-0.96875 0.71112,-0.04545 0.73855,0.03699 0.65625,1 -0.20188,2.362168 -1.38294,6.247744 -2.84375,9.25 l -1.5625,3.1875 0,4.96875 0,4.96875 -1.78125,4.65625 c -2.545,6.707487 -3.07837,8.87553 -2.6875,10.78125 0.30395,1.481991 0.29288,1.53125 -0.375,1.53125 -1.31969,0 -4.01866,1.24528 -5.40625,2.5 -1.30131,1.176683 -1.3732,1.342122 -1.3125,2.59375 0.0357,0.739454 0.05025,1.829919 0.03125,2.4375 -0.02506,0.801635 0.11232,1.247568 0.5625,1.5625 0.53489,0.374186 0.5701,0.466389 0.15625,0.625 -0.26402,0.101187 -0.42775,0.04195 -0.34375,-0.09375 0.08396,-0.135694 -0.04056,-0.21875 -0.28125,-0.21875 -0.64887,0 -0.51929,0.34819 0.25,0.71875 0.37194,0.179159 0.87704,0.3205 1.125,0.3125 0.30686,-0.0099 0.29523,-0.06286 -0.0625,-0.15625 -0.46683,-0.121883 -0.49386,-0.194131 -0.09375,-0.59375 0.24769,-0.247392 0.46875,-0.69133 0.46875,-1 0,-0.308673 0.1529,-0.663444 0.34375,-0.78125 0.21504,-0.132708 0.25787,-0.08973 0.125,0.125 -0.11795,0.190614 -0.04636,0.375 0.15625,0.375 0.20263,0 0.26502,0.07886 0.15625,0.1875 -0.27181,0.271471 0.41904,1.048044 0.75,0.84375 0.14658,-0.09048 0.25,-0.03008 0.25,0.15625 0,0.186329 0.29726,0.30276 0.65625,0.25 0.43252,-0.06356 0.68615,-0.326619 0.71875,-0.78125 0.02709,-0.377344 0.22075,-0.86198 0.4375,-1.0625 0.31009,-0.286855 0.35439,-0.263996 0.1875,0.03125 -0.11666,0.20638 -0.05982,0.375 0.125,0.375 0.18478,0 0.2117,0.153136 0.09375,0.34375 -0.13287,0.214728 -0.05874,0.257708 0.15625,0.125 0.19085,-0.117806 0.34375,-0.0811 0.34375,0.09375 0,0.174849 0.18729,0.3125 0.4375,0.3125 0.2502,0 0.71579,0.178226 1.03125,0.375 0.42197,0.263204 0.86355,0.264656 1.625,0.03125 0.56924,-0.17449 1.20861,-0.215417 1.4375,-0.09375 0.22888,0.121667 1.3005,0.30745 2.375,0.40625 1.0745,0.0988 1.72617,0.08961 1.4375,-0.03125 -0.48062,-0.201214 -0.48447,-0.26434 0.09375,-0.625 0.44458,-0.2773 0.56366,-0.285619 0.40625,-0.03125 C 91.32519,99.013268 91.38812,99.0973 91.65625,99 91.8859,98.916668 92.0413,98.685743 92,98.5 c -0.04133,-0.185745 0.07032,-0.29128 0.25,-0.25 0.18814,0.04322 0.38905,-0.57933 0.46875,-1.4375 0.07614,-0.819617 0.2198,-1.56779 0.3125,-1.65625 0.0927,-0.08846 0.1218,0.479741 0.0625,1.25 -0.1257,1.633461 0.32051,2.091158 2.28125,2.28125 0.65955,0.06394 1.2907,0.18843 1.375,0.28125 0.08434,0.0928 -0.68564,0.08924 -1.71875,0 -1.03311,-0.08924 -1.97,-0.02444 -2.0625,0.125 -0.09887,0.159773 3.437219,0.28125 8.5625,0.28125 7.7712,0 9.9549,-0.195829 8.65625,-0.71875 -0.22778,-0.09172 -0.16107,-0.14196 0.15625,-0.15625 0.28928,-0.01304 0.53125,0.114195 0.53125,0.28125 0,0.186238 0.45036,0.211478 1.1875,0.09375 0.76823,-0.122693 1.21875,-0.0786 1.21875,0.125 0,0.175239 -0.38915,0.36872 -0.84375,0.4375 -0.45459,0.06878 1.28148,0.1268 3.84375,0.125 2.56227,-0.0017 4.17233,-0.0571 3.59375,-0.125 -1.85143,-0.21728 -1.61934,-0.613332 0.40625,-0.71875 1.54432,-0.08037 1.90255,-0.01407 1.65625,0.28125 -0.42165,0.505569 5.16794,0.477208 6.65625,-0.03125 l 1.0625,-0.34375 0,-1.96875 c 0,-1.072578 -0.11965,-2.44936 -0.25,-3.0625 -0.23542,-1.107417 -0.2285,-1.126711 1.25,-1.875 5.5694,-2.818753 12.47506,-9.936794 14.71875,-15.1875 0.59016,-1.3811 1.0504,-4.1875 0.6875,-4.1875 -0.1113,0 -0.16145,-1.267295 -0.0937,-2.8125 0.13184,-3.010667 -0.21191,-5.239542 -1.09375,-7.0625 -0.41198,-0.85165 -0.44927,-1.125 -0.15625,-1.125 0.21506,0 0.60425,0.544572 0.84375,1.21875 0.41069,1.156087 0.4151,1.174516 0.4375,0.34375 0.0371,-1.378278 -1.07935,-3.394832 -3.15625,-5.59375 -3.24109,-3.431494 -7.30352,-5.043201 -11.84375,-4.71875 -2.57227,0.183818 -4.79484,1.23359 -5.21875,2.4375 -0.42859,1.217185 0.0426,1.523144 1.75,1.09375 4.28516,-1.07769 8.6966,0.89148 10.59375,4.75 0.72582,1.476257 0.86105,2.072687 0.84375,4.28125 -0.0167,2.13488 -0.19452,2.931318 -1,4.96875 -1.93838,4.90308 -6.55988,10.069322 -10.4375,11.6875 l -1.0625,0.46875 -0.78125,-1.75 c -1.63383,-3.67146 -4.53221,-11.108516 -4.875,-12.5 -0.19746,-0.801545 -0.53933,-3.153206 -0.78125,-5.21875 -0.47998,-4.098236 -0.86601,-5.15224 -2.9375,-8.375 -0.75823,-1.179631 -1.65715,-2.703785 -2,-3.375 -0.63213,-1.237552 -0.85998,-3.625 -0.34375,-3.625 0.15505,0 1.21766,0.204421 2.34375,0.46875 4.21025,0.98829 8.38677,-0.160381 9.90625,-2.75 1.04946,-1.788562 1.25802,-4.482474 0.5625,-6.90625 -0.28085,-0.978702 -1.31655,-3.320051 -2.3125,-5.21875 C 122.88827,28.528721 122.59216,27.735545 120.4688,20.4375 118.2682,12.874168 117.45538,10.748978 116,8.5 c -1.13848,-1.7592817 -3.41859,-4 -4.09375,-4 -0.19919,0 -0.58112,-0.318407 -0.84375,-0.71875 -0.99029,-1.5095127 -7.09375,-3.95714378 -7.09375,-2.84375 0,0.1827681 0.18954,0.251285 0.4375,0.15625 0.24796,-0.0950346 0.46875,-0.060991 0.46875,0.09375 0,0.1547405 0.18954,0.220035 0.4375,0.125 0.24796,-0.095035 0.4375,-0.00501 0.4375,0.1875 0,0.1925124 0.14719,0.25829 0.3125,0.15625 0.16531,-0.1020401 0.3125,-0.028342 0.3125,0.15625 0,0.1845917 0.11594,0.2270401 0.28125,0.125 0.16531,-0.10204 0.3125,-0.00501 0.3125,0.1875 0,0.1930065 0.21154,0.254828 0.46875,0.15625 0.2566,-0.098326 0.37485,-0.057576 0.28125,0.09375 -0.15216,0.2458926 0.34466,0.5192687 1.1875,0.65625 0.1653,0.026867 0.49985,0.2672095 0.71875,0.53125 0.21888,0.2640404 0.29217,0.3313803 0.1875,0.125 -0.29007,-0.5719437 -0.0122,-0.4443904 0.625,0.28125 0.36259,0.4128856 0.41051,0.5354072 0.125,0.375 -0.29887,-0.1679146 -0.2432,-0.044669 0.125,0.375 0.30544,0.3481854 0.44862,0.7992642 0.34375,0.96875 -0.10488,0.1694861 0.0834,0.5525282 0.40625,0.875 0.32291,0.322472 0.50265,0.684939 0.40625,0.78125 C 111.74732,7.4400605 111.81123,7.5 112,7.5 c 0.24063,0 0.25994,0.2313766 0.0625,0.75 -0.17817,0.4668885 -0.15118,0.7936447 0.0312,0.90625 0.15899,0.098141 0.28125,0.3133896 0.28125,0.46875 0,0.1553604 -0.26313,0.017709 -0.59375,-0.3125 C 111.13898,8.6710195 110.5625,8.5239228 110.5625,9 c 0,0.1599229 -0.1732,0.214316 -0.40625,0.125 -0.23304,-0.089316 -0.88533,0.064316 -1.4375,0.34375 l -1,0.5 1.1875,-1.03125 1.1875,-1.03125 L 109.375,6.9375 c -0.82514,-1.1573755 -3.27284,-3.1364717 -4.90625,-3.96875 -0.91761,-0.4675527 -1.2585,-0.5278831 -1.59375,-0.25 -0.36039,0.2987296 -0.38474,0.2039172 -0.21875,-0.625 0.15373,-0.767745 0.11989,-0.9397443 -0.1875,-0.75 -0.26076,0.1609861 -0.32948,0.1357067 -0.1875,-0.09375 0.11796,-0.1906143 0.48189,-0.34375 0.8125,-0.34375 0.35628,0 0.52595,-0.15030481 0.40625,-0.34375 -0.0848,-0.13702659 -0.33222,-0.18019092 -0.59375,-0.15625 z m 43.5,64.84375 c -0.0316,0.03156 -0.0553,0.137647 -0.0625,0.3125 -0.013,0.316449 0.0876,0.506 0.1875,0.40625 0.0998,-0.09975 0.0868,-0.377052 0,-0.59375 -0.048,-0.119735 -0.0934,-0.156562 -0.125,-0.125 z m 0.0937,4.9375 c -0.0514,-0.05323 -0.0892,0.128516 -0.0937,0.5 -0.006,0.495315 0.0427,0.734487 0.125,0.53125 0.0823,-0.203238 0.0762,-0.614175 0,-0.90625 -0.019,-0.07302 -0.0141,-0.107256 -0.0312,-0.125 z m -70.7187,25.09375 c -0.0316,0.03156 -0.0553,0.137647 -0.0625,0.3125 -0.01305,0.316449 0.05635,0.47475 0.15625,0.375 0.0998,-0.09975 0.11805,-0.345802 0.03125,-0.5625 -0.048,-0.119735 -0.0934,-0.156562 -0.125,-0.125 z m 0,2.40625 c -0.0316,0.03156 -0.0553,0.137647 -0.0625,0.3125 -0.01305,0.316448 0.05635,0.47475 0.15625,0.375 0.0998,-0.09975 0.11805,-0.345802 0.03125,-0.5625 -0.048,-0.119735 -0.0934,-0.156562 -0.125,-0.125 z m 7.59375,1.375 c -0.25772,0 -0.46875,0.147396 -0.46875,0.3125 0,0.165105 0.1257,0.28125 0.28125,0.28125 0.15555,0 0.36658,-0.116145 0.46875,-0.28125 0.10217,-0.165104 -0.02353,-0.3125 -0.28125,-0.3125 z"
         style="fill:#808080;stroke:#808080;stroke-width:2.88190818;stroke-miterlimit:4;stroke-dasharray:none;filter:url(#filter4175)" />
      <path
         inkscape:connector-curvature="0"
         style="fill:#ffffff;stroke:#ffffff;stroke-width:2.88190818;stroke-miterlimit:4;stroke-dasharray:none"
         d="M 97.3125,0.03125 C 97.208086,0.02695452 97.10848,0.05039203 97,0.09375 96.76023,0.18957843 96.80611,0.2668457 97.15625,0.28125 97.47313,0.29428455 97.6624,0.2247505 97.5625,0.125 97.512565,0.07512475 97.416914,0.03554548 97.3125,0.03125 z m 4.5,0 c -0.10441,-0.0042955 -0.20402,0.01914203 -0.3125,0.0625 -0.23976,0.09582843 -0.16264,0.1730957 0.1875,0.1875 0.31688,0.0130345 0.4749,-0.0564995 0.375,-0.15625 -0.0499,-0.04987525 -0.14559,-0.08945452 -0.25,-0.09375 z M 96.125,0.34375 C 96.020588,0.339455 95.889735,0.3628921 95.78125,0.40625 95.54148,0.5020784 95.61861,0.5480958 95.96875,0.5625 96.28563,0.5755346 96.4749,0.5060005 96.375,0.40625 96.32506,0.3563748 96.229412,0.3480455 96.125,0.34375 z m 6.78125,0.0625 c -0.0872,0.00798 -0.1601,0.002905 -0.25,0.03125 -0.35328,0.11138712 -1.71714,0.1820162 -3,0.15625 -1.92109,-0.038585 -2.61042,0.11555243 -4.03125,0.75 -0.9488,0.4236685 -1.47713,0.5597496 -1.15625,0.3125 0.32089,-0.2472496 0.70028,-0.46875 0.84375,-0.46875 0.1435,0 0.19592,-0.1161458 0.09375,-0.28125 C 95.09769,0.40760013 93.63952,0.56294536 92.5625,1.21875 92.00472,1.5583791 90.92553,2.4924263 90.15625,3.28125 89.02871,4.4374206 88.5001,4.7326516 87.4375,4.875 86.02716,5.0639336 84.94672,5.7128385 84.03125,6.9375 83.6671,7.42465 82.99276,9.9833789 82.15625,14 c -3.33359,16.00652 -4.68595,22.242314 -5.25,24.25 -0.80769,2.874748 -0.78757,5.591891 0.03125,7.28125 0.79464,1.639491 2.19803,2.81081 5.1875,4.3125 3.12582,1.570183 5.07322,1.62877 7.25,0.25 0.80409,-0.509314 1.82325,-0.94146 2.25,-0.96875 0.71112,-0.04545 0.73855,0.03699 0.65625,1 -0.20188,2.362168 -1.38294,6.247744 -2.84375,9.25 l -1.5625,3.1875 0,4.96875 0,4.96875 -1.78125,4.65625 c -2.545,6.707487 -3.07837,8.87553 -2.6875,10.78125 0.30395,1.481991 0.29288,1.53125 -0.375,1.53125 -1.31969,0 -4.01866,1.24528 -5.40625,2.5 -1.30131,1.176683 -1.3732,1.342122 -1.3125,2.59375 0.0357,0.739454 0.05025,1.829919 0.03125,2.4375 -0.02506,0.801635 0.11232,1.247568 0.5625,1.5625 0.53489,0.374186 0.5701,0.466389 0.15625,0.625 -0.26402,0.101187 -0.42775,0.04195 -0.34375,-0.09375 0.08396,-0.135694 -0.04056,-0.21875 -0.28125,-0.21875 -0.64887,0 -0.51929,0.34819 0.25,0.71875 0.37194,0.179159 0.87704,0.3205 1.125,0.3125 0.30686,-0.0099 0.29523,-0.06286 -0.0625,-0.15625 -0.46683,-0.121883 -0.49386,-0.194131 -0.09375,-0.59375 0.24769,-0.247392 0.46875,-0.69133 0.46875,-1 0,-0.308673 0.1529,-0.663444 0.34375,-0.78125 0.21504,-0.132708 0.25787,-0.08973 0.125,0.125 -0.11795,0.190614 -0.04636,0.375 0.15625,0.375 0.20263,0 0.26502,0.07886 0.15625,0.1875 -0.27181,0.271471 0.41904,1.048044 0.75,0.84375 0.14658,-0.09048 0.25,-0.03008 0.25,0.15625 0,0.186329 0.29726,0.30276 0.65625,0.25 0.43252,-0.06356 0.68615,-0.326619 0.71875,-0.78125 0.02709,-0.377344 0.22075,-0.86198 0.4375,-1.0625 0.31009,-0.286855 0.35439,-0.263996 0.1875,0.03125 -0.11666,0.20638 -0.05982,0.375 0.125,0.375 0.18478,0 0.2117,0.153136 0.09375,0.34375 -0.13287,0.214728 -0.05874,0.257708 0.15625,0.125 0.19085,-0.117806 0.34375,-0.0811 0.34375,0.09375 0,0.174849 0.18729,0.3125 0.4375,0.3125 0.2502,0 0.71579,0.178226 1.03125,0.375 0.42197,0.263204 0.86355,0.264656 1.625,0.03125 0.56924,-0.17449 1.20861,-0.215417 1.4375,-0.09375 0.22888,0.121667 1.3005,0.30745 2.375,0.40625 1.0745,0.0988 1.72617,0.08961 1.4375,-0.03125 -0.48062,-0.201214 -0.48447,-0.26434 0.09375,-0.625 0.44458,-0.2773 0.56366,-0.285619 0.40625,-0.03125 C 91.32519,99.013268 91.38812,99.0973 91.65625,99 91.8859,98.916668 92.0413,98.685743 92,98.5 c -0.04133,-0.185745 0.07032,-0.29128 0.25,-0.25 0.18814,0.04322 0.38905,-0.57933 0.46875,-1.4375 0.07614,-0.819617 0.2198,-1.56779 0.3125,-1.65625 0.0927,-0.08846 0.1218,0.479741 0.0625,1.25 -0.1257,1.633461 0.32051,2.091158 2.28125,2.28125 0.65955,0.06394 1.2907,0.18843 1.375,0.28125 0.08434,0.0928 -0.68564,0.08924 -1.71875,0 -1.03311,-0.08924 -1.97,-0.02444 -2.0625,0.125 -0.09887,0.159773 3.437219,0.28125 8.5625,0.28125 7.7712,0 9.9549,-0.195829 8.65625,-0.71875 -0.22778,-0.09172 -0.16107,-0.14196 0.15625,-0.15625 0.28928,-0.01304 0.53125,0.114195 0.53125,0.28125 0,0.186238 0.45036,0.211478 1.1875,0.09375 0.76823,-0.122693 1.21875,-0.0786 1.21875,0.125 0,0.175239 -0.38915,0.36872 -0.84375,0.4375 -0.45459,0.06878 1.28148,0.1268 3.84375,0.125 2.56227,-0.0017 4.17233,-0.0571 3.59375,-0.125 -1.85143,-0.21728 -1.61934,-0.613332 0.40625,-0.71875 1.54432,-0.08037 1.90255,-0.01407 1.65625,0.28125 -0.42165,0.505569 5.16794,0.477208 6.65625,-0.03125 l 1.0625,-0.34375 0,-1.96875 c 0,-1.072578 -0.11965,-2.44936 -0.25,-3.0625 -0.23542,-1.107417 -0.2285,-1.126711 1.25,-1.875 5.5694,-2.818753 12.47506,-9.936794 14.71875,-15.1875 0.59016,-1.3811 1.0504,-4.1875 0.6875,-4.1875 -0.1113,0 -0.16145,-1.267295 -0.0937,-2.8125 0.13184,-3.010667 -0.21191,-5.239542 -1.09375,-7.0625 -0.41198,-0.85165 -0.44927,-1.125 -0.15625,-1.125 0.21506,0 0.60425,0.544572 0.84375,1.21875 0.41069,1.156087 0.4151,1.174516 0.4375,0.34375 0.0371,-1.378278 -1.07935,-3.394832 -3.15625,-5.59375 -3.24109,-3.431494 -7.30352,-5.043201 -11.84375,-4.71875 -2.57227,0.183818 -4.79484,1.23359 -5.21875,2.4375 -0.42859,1.217185 0.0426,1.523144 1.75,1.09375 4.28516,-1.07769 8.6966,0.89148 10.59375,4.75 0.72582,1.476257 0.86105,2.072687 0.84375,4.28125 -0.0167,2.13488 -0.19452,2.931318 -1,4.96875 -1.93838,4.90308 -6.55988,10.069322 -10.4375,11.6875 l -1.0625,0.46875 -0.78125,-1.75 c -1.63383,-3.67146 -4.53221,-11.108516 -4.875,-12.5 -0.19746,-0.801545 -0.53933,-3.153206 -0.78125,-5.21875 -0.47998,-4.098236 -0.86601,-5.15224 -2.9375,-8.375 -0.75823,-1.179631 -1.65715,-2.703785 -2,-3.375 -0.63213,-1.237552 -0.85998,-3.625 -0.34375,-3.625 0.15505,0 1.21766,0.204421 2.34375,0.46875 4.21025,0.98829 8.38677,-0.160381 9.90625,-2.75 1.04946,-1.788562 1.25802,-4.482474 0.5625,-6.90625 -0.28085,-0.978702 -1.31655,-3.320051 -2.3125,-5.21875 C 122.88827,28.528721 122.59216,27.735545 120.4688,20.4375 118.2682,12.874168 117.45538,10.748978 116,8.5 c -1.13848,-1.7592817 -3.41859,-4 -4.09375,-4 -0.19919,0 -0.58112,-0.318407 -0.84375,-0.71875 -0.99029,-1.5095127 -7.09375,-3.95714378 -7.09375,-2.84375 0,0.1827681 0.18954,0.251285 0.4375,0.15625 0.24796,-0.0950346 0.46875,-0.060991 0.46875,0.09375 0,0.1547405 0.18954,0.220035 0.4375,0.125 0.24796,-0.095035 0.4375,-0.00501 0.4375,0.1875 0,0.1925124 0.14719,0.25829 0.3125,0.15625 0.16531,-0.1020401 0.3125,-0.028342 0.3125,0.15625 0,0.1845917 0.11594,0.2270401 0.28125,0.125 0.16531,-0.10204 0.3125,-0.00501 0.3125,0.1875 0,0.1930065 0.21154,0.254828 0.46875,0.15625 0.2566,-0.098326 0.37485,-0.057576 0.28125,0.09375 -0.15216,0.2458926 0.34466,0.5192687 1.1875,0.65625 0.1653,0.026867 0.49985,0.2672095 0.71875,0.53125 0.21888,0.2640404 0.29217,0.3313803 0.1875,0.125 -0.29007,-0.5719437 -0.0122,-0.4443904 0.625,0.28125 0.36259,0.4128856 0.41051,0.5354072 0.125,0.375 -0.29887,-0.1679146 -0.2432,-0.044669 0.125,0.375 0.30544,0.3481854 0.44862,0.7992642 0.34375,0.96875 -0.10488,0.1694861 0.0834,0.5525282 0.40625,0.875 0.32291,0.322472 0.50265,0.684939 0.40625,0.78125 C 111.74732,7.4400605 111.81123,7.5 112,7.5 c 0.24063,0 0.25994,0.2313766 0.0625,0.75 -0.17817,0.4668885 -0.15118,0.7936447 0.0312,0.90625 0.15899,0.098141 0.28125,0.3133896 0.28125,0.46875 0,0.1553604 -0.26313,0.017709 -0.59375,-0.3125 C 111.13898,8.6710195 110.5625,8.5239228 110.5625,9 c 0,0.1599229 -0.1732,0.214316 -0.40625,0.125 -0.23304,-0.089316 -0.88533,0.064316 -1.4375,0.34375 l -1,0.5 1.1875,-1.03125 1.1875,-1.03125 L 109.375,6.9375 c -0.82514,-1.1573755 -3.27284,-3.1364717 -4.90625,-3.96875 -0.91761,-0.4675527 -1.2585,-0.5278831 -1.59375,-0.25 -0.36039,0.2987296 -0.38474,0.2039172 -0.21875,-0.625 0.15373,-0.767745 0.11989,-0.9397443 -0.1875,-0.75 -0.26076,0.1609861 -0.32948,0.1357067 -0.1875,-0.09375 0.11796,-0.1906143 0.48189,-0.34375 0.8125,-0.34375 0.35628,0 0.52595,-0.15030481 0.40625,-0.34375 -0.0848,-0.13702659 -0.33222,-0.18019092 -0.59375,-0.15625 z m 43.5,64.84375 c -0.0316,0.03156 -0.0553,0.137647 -0.0625,0.3125 -0.013,0.316449 0.0876,0.506 0.1875,0.40625 0.0998,-0.09975 0.0868,-0.377052 0,-0.59375 -0.048,-0.119735 -0.0934,-0.156562 -0.125,-0.125 z m 0.0937,4.9375 c -0.0514,-0.05323 -0.0892,0.128516 -0.0937,0.5 -0.006,0.495315 0.0427,0.734487 0.125,0.53125 0.0823,-0.203238 0.0762,-0.614175 0,-0.90625 -0.019,-0.07302 -0.0141,-0.107256 -0.0312,-0.125 z m -70.7187,25.09375 c -0.0316,0.03156 -0.0553,0.137647 -0.0625,0.3125 -0.01305,0.316449 0.05635,0.47475 0.15625,0.375 0.0998,-0.09975 0.11805,-0.345802 0.03125,-0.5625 -0.048,-0.119735 -0.0934,-0.156562 -0.125,-0.125 z m 0,2.40625 c -0.0316,0.03156 -0.0553,0.137647 -0.0625,0.3125 -0.01305,0.316448 0.05635,0.47475 0.15625,0.375 0.0998,-0.09975 0.11805,-0.345802 0.03125,-0.5625 -0.048,-0.119735 -0.0934,-0.156562 -0.125,-0.125 z m 7.59375,1.375 c -0.25772,0 -0.46875,0.147396 -0.46875,0.3125 0,0.165105 0.1257,0.28125 0.28125,0.28125 0.15555,0 0.36658,-0.116145 0.46875,-0.28125 0.10217,-0.165104 -0.02353,-0.3125 -0.28125,-0.3125 z"
         transform="translate(-1.5967958e-6,0)"
         id="path3402" />
    </g>
    <use
       transform="matrix(0.69719126,0,0,0.69719126,-9.7798058,-11.882754)"
       id="use17529"
       xlink:href="#Layer1_3_FILL"
       x="0"
       y="0"
       width="1280"
       height="800" />
  </g>
</svg>
