<?xml version="1.0" encoding="UTF-8" standalone="no"?>
<!-- Created with Inkscape (http://www.inkscape.org/) -->

<svg
   xmlns:dc="http://purl.org/dc/elements/1.1/"
   xmlns:cc="http://creativecommons.org/ns#"
   xmlns:rdf="http://www.w3.org/1999/02/22-rdf-syntax-ns#"
   xmlns:svg="http://www.w3.org/2000/svg"
   xmlns="http://www.w3.org/2000/svg"
   xmlns:sodipodi="http://sodipodi.sourceforge.net/DTD/sodipodi-0.dtd"
   xmlns:inkscape="http://www.inkscape.org/namespaces/inkscape"
   version="1.1"
   width="161.68579"
   height="99.34359"
   id="svg28605"
   inkscape:version="0.48.4 r9939"
   sodipodi:docname="canoa.svg">
  <sodipodi:namedview
     pagecolor="#ffffff"
     bordercolor="#666666"
     borderopacity="1"
     objecttolerance="10"
     gridtolerance="10"
     guidetolerance="10"
     inkscape:pageopacity="0"
     inkscape:pageshadow="2"
     inkscape:window-width="640"
     inkscape:window-height="480"
     id="namedview6407" />
  <defs
     id="defs28607">
    <filter
       color-interpolation-filters="sRGB"
       id="filter64577">
      <feGaussianBlur
         id="feGaussianBlur64579"
         stdDeviation="7.5660745" />
    </filter>
  </defs>
  <metadata
     id="metadata28610">
    <rdf:RDF>
      <cc:Work
         rdf:about="">
        <dc:format>image/svg+xml</dc:format>
        <dc:type
           rdf:resource="http://purl.org/dc/dcmitype/StillImage" />
        <dc:title />
      </cc:Work>
    </rdf:RDF>
  </metadata>
  <g
     transform="translate(-606.0872,-848.12978)"
     id="layer1">
    <g
       transform="translate(2077.4004,361.53654)"
       id="g64635">
      <g
         transform="matrix(0.15861856,0,0,0.15861856,-1134.3705,350.18893)"
         id="g64581">
        <path
           d="m -1411.0938,133.53125 c -5.5291,0.0883 -10.5894,1.31826 -25.875,6.3125 -11.3352,3.70359 -44.2126,12.46851 -81.5,21.71875 -96.8161,24.01817 -159.3975,40.29408 -205.5,53.46875 -31.7681,9.07838 -102.5772,30.5966 -108,32.8125 -1.0999,0.4494 -5.375,1.81675 -9.5,3.03125 -4.125,1.2144 -9.75,3.0435 -12.5,4.0625 -2.7499,1.019 -7.7,2.5812 -11,3.5 -11.5124,3.2054 -19.035,5.6547 -23.2812,7.5625 -2.3522,1.0568 -5.1521,1.9375 -6.2188,1.9375 -1.0667,0 -3.4125,0.62105 -5.2187,1.40625 -1.8061,0.7853 -5.7562,2.1656 -8.7813,3.0625 -3.025,0.8969 -25.75,8.3272 -50.5,16.5 -322.2881,106.4234 -335.5871,110.73015 -362,117.53125 l -13,3.34375 5.6876,2.5625 c -3.9495,-1.4677 -5.1053,-1.58775 -4.8126,-0.53125 5.5123,19.8912 8.1946,30.5954 11.125,44.625 7.3804,35.3344 11.1405,46.9027 18.25,56.25 0.7599,0.99908 1.5677,1.96052 2.4063,2.90625 -0.2772,-0.25722 -0.5502,-0.50193 -0.9063,-0.78125 -1.5862,-1.2439 -1.6186,-1.2111 -0.375,0.375 1.3064,1.6657 2.125,2.198 2.125,1.375 10.8242,11.60431 27.8167,19.03331 51,22.3125 0.6465,0.0914 1.4247,0.18707 2.125,0.28125 -0.1044,0.0278 -0.2116,0.0534 -0.3124,0.0937 -0.7977,0.3192 -0.5713,0.54575 0.5937,0.59375 0.9803,0.0404 1.566,-0.17312 1.375,-0.46875 2.1639,0.28103 4.472,0.57612 7.0313,0.875 -0.7977,0.3192 -0.5713,0.54575 0.5937,0.59375 0.8894,0.0366 1.4527,-0.12376 1.4063,-0.375 2.468,0.28223 5.1344,0.5522 7.875,0.84375 -0.5932,0.28297 -0.3581,0.48688 0.7187,0.53125 0.7906,0.0326 1.3309,-0.0766 1.4063,-0.28125 2.2345,0.23363 4.634,0.45154 7,0.6875 -0.7977,0.3193 -0.5713,0.54575 0.5937,0.59375 0.9223,0.038 1.5014,-0.139 1.4063,-0.40625 2.6822,0.26422 5.2631,0.51823 8.0624,0.78125 -0.021,0.008 -0.041,0.0228 -0.062,0.0312 -0.7977,0.3193 -0.5713,0.54575 0.5937,0.59375 0.9592,0.0395 1.5296,-0.15219 1.375,-0.4375 2.7394,0.25479 5.5391,0.50024 8.3437,0.75 -0.1044,0.0278 -0.2116,0.0534 -0.3124,0.0937 -0.7977,0.3193 -0.5713,0.54575 0.5937,0.59375 1.0541,0.0434 1.6448,-0.19895 1.3125,-0.53125 2.9657,0.26192 5.886,0.52918 8.875,0.78125 -0.3123,0.0289 -0.6017,0.0586 -0.8438,0.15625 -0.6874,0.2774 -0.125,0.53125 1.25,0.53125 1.375,0 1.9376,-0.25385 1.25,-0.53125 3.4233,0.28617 6.8666,0.54534 10.25,0.8125 -0.2797,0.0321 -0.5308,0.0991 -0.75,0.1875 -0.6874,0.2774 -0.125,0.53125 1.25,0.53125 1.375,0 1.9376,-0.25385 1.25,-0.53125 -0.081,-0.0325 -0.19,-0.0376 -0.2812,-0.0625 4.1157,0.32204 8.1262,0.62292 12.0625,0.90625 -0.274,0.0298 -0.538,0.0616 -0.7813,0.125 -0.9729,0.2535 -0.4,0.48 1.25,0.5 1.6501,0.0204 2.4271,-0.1635 1.75,-0.4375 -0.035,-0.0144 -0.086,-0.0183 -0.125,-0.0312 4.8385,0.34249 9.4216,0.61244 13.75,0.875 -0.222,0.0298 -0.4396,0.0766 -0.625,0.125 -0.9625,0.2516 -0.1749,0.4375 1.75,0.4375 1.7646,0 2.5564,-0.15238 1.9376,-0.375 3.9267,0.22644 7.6072,0.42745 10.8437,0.5625 2.9701,0.12394 5.9226,0.24898 8.875,0.34375 -1.5623,0.21323 -0.3547,0.39656 2.8437,0.40625 2.3163,0.004 3.6945,-0.0867 3.8126,-0.21875 71.6091,1.77434 137.9075,-5.11401 197.6874,-20.53125 28.662,-7.3919 70.6111,-22.5328 106.5,-38.4375 19.2289,-8.5215 46.5608,-21.5552 48.5,-23.125 0.825,-0.6678 4.0524,-2.33805 7.1876,-3.71875 3.1353,-1.3808 8.3713,-4.06185 11.625,-5.96875 3.2535,-1.9069 6.9608,-3.80955 8.25,-4.21875 1.2891,-0.4092 8.878,-4.33395 16.875,-8.71875 76.9372,-42.18581 143.6102,-86.70094 189.3437,-125.59375 -0.1757,0.19665 -0.2813,0.39397 -0.2813,0.46875 10e-5,0.823 0.8187,0.2907 2.125,-1.375 0.933,-1.18957 1.1521,-1.53422 0.5313,-1.09375 1.9111,-1.64319 3.791,-3.28444 5.625,-4.90625 -0.8505,0.97598 -1.3463,1.75 -1.0937,1.75 0.2749,0 1.317,-0.9 2.3124,-2 0.9956,-1.1 1.5876,-2 1.3126,-2 12.3749,-11.09301 22.8419,-21.64325 31.2187,-31.46875 -0.01,0.0237 -0.031,0.0772 -0.031,0.0937 10e-5,0.823 0.8187,0.2907 2.125,-1.375 1.244,-1.5861 1.2111,-1.6189 -0.375,-0.375 -0.4225,0.33143 -0.7904,0.64533 -1.0937,0.9375 3.1906,-3.77612 6.1179,-7.45491 8.6563,-11 2.0949,-2.9257 6.8198,-9.38295 10.5,-14.34375 0.122,-0.16449 0.2527,-0.33491 0.375,-0.5 0.319,0.0371 1.0121,-0.53888 1.9374,-1.71875 1.244,-1.5861 1.2111,-1.6189 -0.375,-0.375 23.9343,-32.50915 52.2879,-75.57624 60.8438,-92.4375 4.2292,-8.33445 5.9083,-13.21816 4.9688,-13.25 0.2398,-0.14692 0.4217,-0.22038 0.5,-0.0937 0.3617,0.58526 0.9481,-0.42767 1.3124,-2.25 0.4914,-2.45661 0.1578,-3.97733 -1.25,-5.84375 -1.7235,-2.28495 -2.5116,-2.50585 -8.75,-2.40625 z m -12.3124,105.375 c -3.9738,0 -7.625,2.90568 -7.625,6.0625 0,1.3104 -3.3242,5.13695 -10.7813,12.46875 -17.5229,17.2284 -159.7992,155.4587 -165.7813,161.0625 -3.9441,3.6946 -21.913,15.55085 -63.7812,42.09375 -32.0624,20.3263 -60.2079,38.1981 -62.5312,39.6875 -2.3235,1.4893 -8.6965,5.49145 -14.1563,8.90625 -5.4599,3.4149 -9.9063,6.4766 -9.9063,6.8125 0,-1.0032 -10.3497,0.4471 -13.875,1.9375 -1.815,0.7673 -6.5773,3.265 -10.5937,5.5625 -9.0092,5.1536 -13.8211,6.45315 -30.25,8.09375 -18.6329,1.8608 -31.0857,5.3937 -51.875,14.75 -16.0922,7.2424 -33.3801,16.76525 -57.1875,31.53125 l -9.5938,5.96875 0.5313,4.125 c 0.7566,5.7018 4.4078,16.88825 7.4687,22.96875 6.1341,12.1843 16.2712,23.7313 27.25,31 5.5191,3.654 6.2113,4.457 9.7188,11.375 7.5484,14.88762 17.7351,26.21321 30.5938,34.09375 0.01,0.005 0.024,-0.005 0.031,0 8.6844,7.10909 17.4445,11.61305 24.4688,10.625 l 0.25,-0.8125 c 6.0207,-3.2852 46.8347,-44.89778 56.625,-57.9375 9.7008,-12.9203 21.5,-39.03255 21.5,-47.59375 0,-3.0935 3.7008,-9.48345 8.4374,-14.53125 5.6839,-6.057 13.3738,-15.41925 14.5938,-17.78125 0.728,-1.4095 1.5828,-4.06435 1.9062,-5.90625 0.4759,-2.7094 2.0656,-4.8842 8.3126,-11.375 l 7.7187,-8.03125 -7.8125,7.59375 -7.7812,7.5625 -3.1876,-2.9375 c 1.5362,1.40684 2.9022,2.55074 3.0626,2.5625 0.4417,0.0313 10.8922,-10.04675 63.875,-61.53125 61.2425,-59.5105 59.6641,-58.0536 69.1874,-63.875 4.5592,-2.7869 9.8493,-6.2182 11.7813,-7.625 1.932,-1.4068 5.4266,-3.63305 7.75,-4.96875 83.0125,-50.65966 133.5862,-84.66277 180.4375,-112.8125 7.5513,0 12.0652,-8.21795 7.1875,-13.09375 -4.2165,-4.2149 -10.0517,-3.42555 -13.125,1.78125 -1.86,3.1512 -1.2403,2.7421 -47.3437,32 -16.9605,10.7633 -49.1237,31.1907 -71.4688,45.375 -43.7149,27.7496 -44.2025,28.0471 -44.875,27.375 -0.4806,-0.4804 12.193,-12.95735 89.5,-88.15625 41.8551,-40.7138 50.131,-48.4236 52.9688,-49.1875 4.0945,-1.1021 5.9687,-3.56055 5.9687,-7.84375 0,-4.51447 -2.9389,-7.375 -7.5937,-7.375 z m -70.1876,44.03125 c -0.2749,0 -2.0091,1.575 -3.875,3.5 -1.8657,1.925 -3.1812,3.5 -2.9062,3.5 0.275,0 2.0405,-1.575 3.9062,-3.5 1.8658,-1.925 3.1501,-3.5 2.875,-3.5 z m -15.375,15.5 -3.25,2.9375 c -1.7875,1.6154 -3.25,3.0779 -3.25,3.25 0,0.7725 0.8247,0.0919 3.5626,-2.9375 z m -195.9687,27.34375 c -26.2961,9.91113 -42.1361,15.65619 -60.9375,22.0625 18.3493,-6.34408 37.86,-13.41043 60.9375,-22.0625 z m -167.9375,55.25 c -46.7863,12.99503 -91.382,23.22764 -134,30.75 42.2935,-7.56328 87.4832,-17.92031 134,-30.75 z m -437.0938,37.25 c 10.642,2.61388 23.7239,4.82594 38.5626,6.53125 1.8879,0.21697 3.838,0.42464 5.7812,0.625 -1.9618,-0.19189 -3.8794,-0.41502 -5.7812,-0.625 -14.8175,-1.63595 -27.8307,-3.82262 -38.5626,-6.53125 z m 204.5313,6.375 c -3.1945,0.25899 -6.3605,0.52592 -9.5313,0.75 -26.9528,1.90476 -52.766,2.88307 -76.7187,3 26.6494,-0.38907 59.8332,-1.77516 86.25,-3.75 z m 453.3437,35.96875 c 0.3446,-0.0368 0.5626,0.0668 0.5626,0.28125 0,0.7578 -74.567,73.5766 -80.0626,78.1875 -1.5103,1.2671 -2.7187,2.6455 -2.7187,3.0625 0,0.40354 1.3341,1.99339 3,3.5625 -1.4762,-1.37521 -2.7888,-2.62218 -3,-2.875 -0.8394,-1.0042 -9.419,1.79385 -12.9375,4.21875 -1.9452,1.3406 -5.9643,4.59135 -8.9062,7.21875 -6.568,5.8658 -9.9131,7.97545 -17.1563,10.84375 -5.7911,2.2933 -15.6027,4.866 -16.2187,4.25 -0.1914,-0.1911 0.7094,-2.8887 2,-6 2.7979,-6.7459 7.4226,-11.6468 20.1874,-21.375 8.2241,-6.2675 12.7381,-10.8445 12.75,-12.9375 0,-0.4904 0.5523,-1.94145 1.2188,-3.21875 0.6414,-1.2295 0.8913,-2.23816 0.5938,-2.3125 0.5862,0 10.2039,-5.9653 23.9374,-14.8125 14.2138,-9.1566 73.8308,-46.8105 75.4063,-47.625 0.5227,-0.27025 0.9992,-0.43196 1.3437,-0.46875 z"
           transform="translate(240.52266,757.25338)"
           id="path64569"
           style="fill:#333333;stroke:#333333;stroke-width:25.21772957;stroke-linejoin:round;stroke-miterlimit:4;stroke-dasharray:none;filter:url(#filter64577)" />
        <path
           d="m -1411.0938,133.53125 c -5.5291,0.0883 -10.5894,1.31826 -25.875,6.3125 -11.3352,3.70359 -44.2126,12.46851 -81.5,21.71875 -96.8161,24.01817 -159.3975,40.29408 -205.5,53.46875 -31.7681,9.07838 -102.5772,30.5966 -108,32.8125 -1.0999,0.4494 -5.375,1.81675 -9.5,3.03125 -4.125,1.2144 -9.75,3.0435 -12.5,4.0625 -2.7499,1.019 -7.7,2.5812 -11,3.5 -11.5124,3.2054 -19.035,5.6547 -23.2812,7.5625 -2.3522,1.0568 -5.1521,1.9375 -6.2188,1.9375 -1.0667,0 -3.4125,0.62105 -5.2187,1.40625 -1.8061,0.7853 -5.7562,2.1656 -8.7813,3.0625 -3.025,0.8969 -25.75,8.3272 -50.5,16.5 -322.2881,106.4234 -335.5871,110.73015 -362,117.53125 l -13,3.34375 5.6876,2.5625 c -3.9495,-1.4677 -5.1053,-1.58775 -4.8126,-0.53125 5.5123,19.8912 8.1946,30.5954 11.125,44.625 7.3804,35.3344 11.1405,46.9027 18.25,56.25 0.7599,0.99908 1.5677,1.96052 2.4063,2.90625 -0.2772,-0.25722 -0.5502,-0.50193 -0.9063,-0.78125 -1.5862,-1.2439 -1.6186,-1.2111 -0.375,0.375 1.3064,1.6657 2.125,2.198 2.125,1.375 10.8242,11.60431 27.8167,19.03331 51,22.3125 0.6465,0.0914 1.4247,0.18707 2.125,0.28125 -0.1044,0.0278 -0.2116,0.0534 -0.3124,0.0937 -0.7977,0.3192 -0.5713,0.54575 0.5937,0.59375 0.9803,0.0404 1.566,-0.17312 1.375,-0.46875 2.1639,0.28103 4.472,0.57612 7.0313,0.875 -0.7977,0.3192 -0.5713,0.54575 0.5937,0.59375 0.8894,0.0366 1.4527,-0.12376 1.4063,-0.375 2.468,0.28223 5.1344,0.5522 7.875,0.84375 -0.5932,0.28297 -0.3581,0.48688 0.7187,0.53125 0.7906,0.0326 1.3309,-0.0766 1.4063,-0.28125 2.2345,0.23363 4.634,0.45154 7,0.6875 -0.7977,0.3193 -0.5713,0.54575 0.5937,0.59375 0.9223,0.038 1.5014,-0.139 1.4063,-0.40625 2.6822,0.26422 5.2631,0.51823 8.0624,0.78125 -0.021,0.008 -0.041,0.0228 -0.062,0.0312 -0.7977,0.3193 -0.5713,0.54575 0.5937,0.59375 0.9592,0.0395 1.5296,-0.15219 1.375,-0.4375 2.7394,0.25479 5.5391,0.50024 8.3437,0.75 -0.1044,0.0278 -0.2116,0.0534 -0.3124,0.0937 -0.7977,0.3193 -0.5713,0.54575 0.5937,0.59375 1.0541,0.0434 1.6448,-0.19895 1.3125,-0.53125 2.9657,0.26192 5.886,0.52918 8.875,0.78125 -0.3123,0.0289 -0.6017,0.0586 -0.8438,0.15625 -0.6874,0.2774 -0.125,0.53125 1.25,0.53125 1.375,0 1.9376,-0.25385 1.25,-0.53125 3.4233,0.28617 6.8666,0.54534 10.25,0.8125 -0.2797,0.0321 -0.5308,0.0991 -0.75,0.1875 -0.6874,0.2774 -0.125,0.53125 1.25,0.53125 1.375,0 1.9376,-0.25385 1.25,-0.53125 -0.081,-0.0325 -0.19,-0.0376 -0.2812,-0.0625 4.1157,0.32204 8.1262,0.62292 12.0625,0.90625 -0.274,0.0298 -0.538,0.0616 -0.7813,0.125 -0.9729,0.2535 -0.4,0.48 1.25,0.5 1.6501,0.0204 2.4271,-0.1635 1.75,-0.4375 -0.035,-0.0144 -0.086,-0.0183 -0.125,-0.0312 4.8385,0.34249 9.4216,0.61244 13.75,0.875 -0.222,0.0298 -0.4396,0.0766 -0.625,0.125 -0.9625,0.2516 -0.1749,0.4375 1.75,0.4375 1.7646,0 2.5564,-0.15238 1.9376,-0.375 3.9267,0.22644 7.6072,0.42745 10.8437,0.5625 2.9701,0.12394 5.9226,0.24898 8.875,0.34375 -1.5623,0.21323 -0.3547,0.39656 2.8437,0.40625 2.3163,0.004 3.6945,-0.0867 3.8126,-0.21875 71.6091,1.77434 137.9075,-5.11401 197.6874,-20.53125 28.662,-7.3919 70.6111,-22.5328 106.5,-38.4375 19.2289,-8.5215 46.5608,-21.5552 48.5,-23.125 0.825,-0.6678 4.0524,-2.33805 7.1876,-3.71875 3.1353,-1.3808 8.3713,-4.06185 11.625,-5.96875 3.2535,-1.9069 6.9608,-3.80955 8.25,-4.21875 1.2891,-0.4092 8.878,-4.33395 16.875,-8.71875 76.9372,-42.18581 143.6102,-86.70094 189.3437,-125.59375 -0.1757,0.19665 -0.2813,0.39397 -0.2813,0.46875 10e-5,0.823 0.8187,0.2907 2.125,-1.375 0.933,-1.18957 1.1521,-1.53422 0.5313,-1.09375 1.9111,-1.64319 3.791,-3.28444 5.625,-4.90625 -0.8505,0.97598 -1.3463,1.75 -1.0937,1.75 0.2749,0 1.317,-0.9 2.3124,-2 0.9956,-1.1 1.5876,-2 1.3126,-2 12.3749,-11.09301 22.8419,-21.64325 31.2187,-31.46875 -0.01,0.0237 -0.031,0.0772 -0.031,0.0937 10e-5,0.823 0.8187,0.2907 2.125,-1.375 1.244,-1.5861 1.2111,-1.6189 -0.375,-0.375 -0.4225,0.33143 -0.7904,0.64533 -1.0937,0.9375 3.1906,-3.77612 6.1179,-7.45491 8.6563,-11 2.0949,-2.9257 6.8198,-9.38295 10.5,-14.34375 0.122,-0.16449 0.2527,-0.33491 0.375,-0.5 0.319,0.0371 1.0121,-0.53888 1.9374,-1.71875 1.244,-1.5861 1.2111,-1.6189 -0.375,-0.375 23.9343,-32.50915 52.2879,-75.57624 60.8438,-92.4375 4.2292,-8.33445 5.9083,-13.21816 4.9688,-13.25 0.2398,-0.14692 0.4217,-0.22038 0.5,-0.0937 0.3617,0.58526 0.9481,-0.42767 1.3124,-2.25 0.4914,-2.45661 0.1578,-3.97733 -1.25,-5.84375 -1.7235,-2.28495 -2.5116,-2.50585 -8.75,-2.40625 z m -12.3124,105.375 c -3.9738,0 -7.625,2.90568 -7.625,6.0625 0,1.3104 -3.3242,5.13695 -10.7813,12.46875 -17.5229,17.2284 -159.7992,155.4587 -165.7813,161.0625 -3.9441,3.6946 -21.913,15.55085 -63.7812,42.09375 -32.0624,20.3263 -60.2079,38.1981 -62.5312,39.6875 -2.3235,1.4893 -8.6965,5.49145 -14.1563,8.90625 -5.4599,3.4149 -9.9063,6.4766 -9.9063,6.8125 0,-1.0032 -10.3497,0.4471 -13.875,1.9375 -1.815,0.7673 -6.5773,3.265 -10.5937,5.5625 -9.0092,5.1536 -13.8211,6.45315 -30.25,8.09375 -18.6329,1.8608 -31.0857,5.3937 -51.875,14.75 -16.0922,7.2424 -33.3801,16.76525 -57.1875,31.53125 l -9.5938,5.96875 0.5313,4.125 c 0.7566,5.7018 4.4078,16.88825 7.4687,22.96875 6.1341,12.1843 16.2712,23.7313 27.25,31 5.5191,3.654 6.2113,4.457 9.7188,11.375 7.5484,14.88762 17.7351,26.21321 30.5938,34.09375 0.01,0.005 0.024,-0.005 0.031,0 8.6844,7.10909 17.4445,11.61305 24.4688,10.625 l 0.25,-0.8125 c 6.0207,-3.2852 46.8347,-44.89778 56.625,-57.9375 9.7008,-12.9203 21.5,-39.03255 21.5,-47.59375 0,-3.0935 3.7008,-9.48345 8.4374,-14.53125 5.6839,-6.057 13.3738,-15.41925 14.5938,-17.78125 0.728,-1.4095 1.5828,-4.06435 1.9062,-5.90625 0.4759,-2.7094 2.0656,-4.8842 8.3126,-11.375 l 7.7187,-8.03125 -7.8125,7.59375 -7.7812,7.5625 -3.1876,-2.9375 c 1.5362,1.40684 2.9022,2.55074 3.0626,2.5625 0.4417,0.0313 10.8922,-10.04675 63.875,-61.53125 61.2425,-59.5105 59.6641,-58.0536 69.1874,-63.875 4.5592,-2.7869 9.8493,-6.2182 11.7813,-7.625 1.932,-1.4068 5.4266,-3.63305 7.75,-4.96875 83.0125,-50.65966 133.5862,-84.66277 180.4375,-112.8125 7.5513,0 12.0652,-8.21795 7.1875,-13.09375 -4.2165,-4.2149 -10.0517,-3.42555 -13.125,1.78125 -1.86,3.1512 -1.2403,2.7421 -47.3437,32 -16.9605,10.7633 -49.1237,31.1907 -71.4688,45.375 -43.7149,27.7496 -44.2025,28.0471 -44.875,27.375 -0.4806,-0.4804 12.193,-12.95735 89.5,-88.15625 41.8551,-40.7138 50.131,-48.4236 52.9688,-49.1875 4.0945,-1.1021 5.9687,-3.56055 5.9687,-7.84375 0,-4.51447 -2.9389,-7.375 -7.5937,-7.375 z m -70.1876,44.03125 c -0.2749,0 -2.0091,1.575 -3.875,3.5 -1.8657,1.925 -3.1812,3.5 -2.9062,3.5 0.275,0 2.0405,-1.575 3.9062,-3.5 1.8658,-1.925 3.1501,-3.5 2.875,-3.5 z m -15.375,15.5 -3.25,2.9375 c -1.7875,1.6154 -3.25,3.0779 -3.25,3.25 0,0.7725 0.8247,0.0919 3.5626,-2.9375 z m -195.9687,27.34375 c -26.2961,9.91113 -42.1361,15.65619 -60.9375,22.0625 18.3493,-6.34408 37.86,-13.41043 60.9375,-22.0625 z m -167.9375,55.25 c -46.7863,12.99503 -91.382,23.22764 -134,30.75 42.2935,-7.56328 87.4832,-17.92031 134,-30.75 z m -437.0938,37.25 c 10.642,2.61388 23.7239,4.82594 38.5626,6.53125 1.8879,0.21697 3.838,0.42464 5.7812,0.625 -1.9618,-0.19189 -3.8794,-0.41502 -5.7812,-0.625 -14.8175,-1.63595 -27.8307,-3.82262 -38.5626,-6.53125 z m 204.5313,6.375 c -3.1945,0.25899 -6.3605,0.52592 -9.5313,0.75 -26.9528,1.90476 -52.766,2.88307 -76.7187,3 26.6494,-0.38907 59.8332,-1.77516 86.25,-3.75 z m 453.3437,35.96875 c 0.3446,-0.0368 0.5626,0.0668 0.5626,0.28125 0,0.7578 -74.567,73.5766 -80.0626,78.1875 -1.5103,1.2671 -2.7187,2.6455 -2.7187,3.0625 0,0.40354 1.3341,1.99339 3,3.5625 -1.4762,-1.37521 -2.7888,-2.62218 -3,-2.875 -0.8394,-1.0042 -9.419,1.79385 -12.9375,4.21875 -1.9452,1.3406 -5.9643,4.59135 -8.9062,7.21875 -6.568,5.8658 -9.9131,7.97545 -17.1563,10.84375 -5.7911,2.2933 -15.6027,4.866 -16.2187,4.25 -0.1914,-0.1911 0.7094,-2.8887 2,-6 2.7979,-6.7459 7.4226,-11.6468 20.1874,-21.375 8.2241,-6.2675 12.7381,-10.8445 12.75,-12.9375 0,-0.4904 0.5523,-1.94145 1.2188,-3.21875 0.6414,-1.2295 0.8913,-2.23816 0.5938,-2.3125 0.5862,0 10.2039,-5.9653 23.9374,-14.8125 14.2138,-9.1566 73.8308,-46.8105 75.4063,-47.625 0.5227,-0.27025 0.9992,-0.43196 1.3437,-0.46875 z"
           transform="translate(240.52266,757.25338)"
           id="path64571"
           style="fill:#ffffff;stroke:#ffffff;stroke-width:25.21772957;stroke-linejoin:round;stroke-miterlimit:4;stroke-dasharray:none" />
      </g>
      <g
         transform="matrix(0.15861856,0,0,0.15861856,-1134.3405,492.02643)"
         id="g64585">
        <path
           d="m -1598.9876,557.09203 c -20.8074,-7.19882 -36.3691,-21.06752 -46.8632,-41.76488 -3.5075,-6.91796 -4.1968,-7.72516 -9.7158,-11.37916 -10.9788,-7.26871 -21.1355,-18.8145 -27.2695,-30.99884 -3.061,-6.08046 -6.685,-17.26469 -7.4416,-22.96646 l -0.5483,-4.13186 9.5903,-5.94824 c 23.8074,-14.76606 41.0897,-24.29893 57.1819,-31.54133 20.7893,-9.35631 33.2476,-12.90118 51.8805,-14.76195 16.4289,-1.64066 21.2415,-2.92605 30.2507,-8.07961 4.0164,-2.29749 8.7876,-4.80511 10.6027,-5.57248 3.5252,-1.49032 13.861,-2.91861 13.861,-1.91543 0,1.00355 4.4782,7.5092 5.1691,7.5092 0.3546,0 0.099,1.0451 -0.5674,2.32244 -0.6665,1.27734 -1.2143,2.72365 -1.2171,3.21402 -0.012,2.09301 -4.525,6.6739 -12.749,12.94144 -12.7649,9.72817 -17.4016,14.63641 -20.1995,21.38225 -1.2905,3.11133 -2.1898,5.81338 -1.9985,6.00454 0.6161,0.61598 10.4314,-1.95347 16.2225,-4.24679 7.2432,-2.86833 10.6043,-4.99391 17.1722,-10.85969 2.9419,-2.62741 6.9405,-5.87401 8.8857,-7.21465 3.5185,-2.42492 12.1161,-5.22783 12.9555,-4.22363 0.2419,0.28951 1.8641,1.84222 3.6048,3.45048 l 3.1648,2.92411 7.8008,-7.56892 7.8008,-7.56892 -7.7217,8.0229 c -6.2469,6.4908 -7.8338,8.66244 -8.3097,11.37181 -0.3235,1.84191 -1.1839,4.50216 -1.9119,5.91167 -1.22,2.362 -8.8909,11.71647 -14.5747,17.77354 -4.7367,5.0478 -8.4576,11.44309 -8.4576,14.53656 0,8.56117 -11.7927,34.67539 -21.4935,47.59569 -10.2078,13.59585 -54.1591,58.27328 -57.2163,58.16172 -0.621,-0.0228 -4.1706,-1.09349 -7.888,-2.37953 z"
           id="path64347"
           style="fill:#f7c849" />
        <path
           d="m -1884.1869,411.221 c 1.7974,-0.22256 4.4974,-0.21797 6,0.0102 1.5027,0.22818 0.032,0.41027 -3.2679,0.40466 -3.3,-0.006 -4.5294,-0.1923 -2.7321,-0.41486 z"
           id="path64339"
           style="fill:#f7c849" />
        <path
           d="m -1788.4468,351.99929 c 1.2778,-0.1935 3.3689,-0.1935 4.6467,0 1.2779,0.1935 0.2323,0.35182 -2.3233,0.35182 -2.5557,0 -3.6013,-0.15832 -2.3234,-0.35182 z"
           id="path64337"
           style="fill:#f7c849" />
        <path
           d="m -1907.7048,410.2564 c 0.9625,-0.25152 2.5375,-0.25152 3.5,0 0.9625,0.25153 0.175,0.45733 -1.75,0.45733 -1.925,0 -2.7125,-0.2058 -1.75,-0.45733 z"
           id="path64333"
           style="fill:#f7c849" />
        <path
           d="m -1768.1542,351.17453 c 0.8221,-0.21412 1.9626,-0.20004 2.5346,0.0313 0.572,0.23134 -0.1006,0.40653 -1.4946,0.38932 -1.394,-0.0172 -1.862,-0.20649 -1.04,-0.42061 z"
           id="path64331"
           style="fill:#f7c849" />
        <path
           d="m -1923.6858,409.2524 c 0.973,-0.25354 2.323,-0.23687 3,0.0371 0.6771,0.27393 -0.119,0.48137 -1.769,0.46099 -1.65,-0.0204 -2.2039,-0.2445 -1.231,-0.49804 z"
           id="path64329"
           style="fill:#f7c849" />
        <path
           d="m -1755.9198,350.35593 c 0.5808,-0.23428 1.5313,-0.23428 2.1121,0 0.5809,0.23428 0.1056,0.42597 -1.056,0.42597 -1.1617,0 -1.637,-0.19169 -1.0561,-0.42597 z"
           id="path64327"
           style="fill:#f7c849" />
        <path
           d="m -1937.2048,408.2831 c 0.6875,-0.27741 1.8125,-0.27741 2.5,0 0.6875,0.27741 0.125,0.50439 -1.25,0.50439 -1.375,0 -1.9375,-0.22698 -1.25,-0.50439 z"
           id="path64325"
           style="fill:#f7c849" />
        <path
           d="m -1745.7287,349.49384 c 0.6099,-0.24395 1.3386,-0.21396 1.6193,0.0666 0.2807,0.28062 -0.2183,0.48023 -1.1089,0.44356 -0.9842,-0.0405 -1.1844,-0.24064 -0.5104,-0.51023 z"
           id="path64323"
           style="fill:#f7c849" />
        <path
           d="m -1949.2048,407.28345 c 0.6875,-0.27741 1.8125,-0.27741 2.5,0 0.6875,0.27741 0.125,0.50439 -1.25,0.50439 -1.375,0 -1.9375,-0.22698 -1.25,-0.50439 z"
           id="path64321"
           style="fill:#f7c849" />
        <path
           d="m -1737.2802,348.64962 c 0.6099,-0.24396 1.3386,-0.21396 1.6194,0.0666 0.2807,0.28063 -0.2183,0.48023 -1.1089,0.44356 -0.9843,-0.0405 -1.1844,-0.24064 -0.5105,-0.51023 z"
           id="path64319"
           style="fill:#f7c849" />
        <path
           d="m -1959.1423,406.26265 c 0.7219,-0.28887 1.5844,-0.25335 1.9167,0.0789 0.3323,0.33229 -0.2584,0.56864 -1.3125,0.52522 -1.165,-0.048 -1.4019,-0.28494 -0.6042,-0.60416 z"
           id="path64317"
           style="fill:#f7c849" />
        <path
           d="m -1729.6765,347.80509 c 0.6099,-0.24395 1.3386,-0.21396 1.6194,0.0666 0.2807,0.28062 -0.2183,0.48023 -1.1089,0.44356 -0.9843,-0.0405 -1.1844,-0.24064 -0.5105,-0.51023 z"
           id="path64315"
           style="fill:#f7c849" />
        <path
           d="m -1969.1423,405.26265 c 0.7219,-0.28887 1.5844,-0.25335 1.9167,0.0789 0.3323,0.33229 -0.2584,0.56864 -1.3125,0.52522 -1.165,-0.048 -1.4019,-0.28494 -0.6042,-0.60416 z"
           id="path64313"
           style="fill:#f7c849" />
        <path
           d="m -1979.1423,404.26265 c 0.7219,-0.28887 1.5844,-0.25335 1.9167,0.0789 0.3323,0.33229 -0.2584,0.56864 -1.3125,0.52522 -1.165,-0.048 -1.4019,-0.28494 -0.6042,-0.60416 z"
           id="path64311"
           style="fill:#f7c849" />
        <path
           d="m -1988.1423,403.26262 c 0.7219,-0.28887 1.5844,-0.25335 1.9167,0.0789 0.3323,0.33229 -0.2584,0.56864 -1.3125,0.52522 -1.165,-0.048 -1.4019,-0.28494 -0.6042,-0.60416 z"
           id="path64307"
           style="fill:#f7c849" />
        <path
           d="m -1998.1423,402.26262 c 0.7219,-0.28887 1.5844,-0.25335 1.9167,0.0789 0.3323,0.33229 -0.2584,0.56864 -1.3125,0.52522 -1.165,-0.048 -1.4019,-0.28494 -0.6042,-0.60416 z"
           id="path64305"
           style="fill:#f7c849" />
        <path
           d="m -2007.1423,401.26262 c 0.7219,-0.28887 1.5844,-0.25335 1.9167,0.0789 0.3323,0.33229 -0.2584,0.56864 -1.3125,0.52522 -1.165,-0.048 -1.4019,-0.28494 -0.6042,-0.60416 z"
           id="path64303"
           style="fill:#f7c849" />
        <path
           d="m -2062.0824,377.19573 c -1.2437,-1.58606 -1.2085,-1.62143 0.3777,-0.37756 0.9624,0.75485 1.75,1.54235 1.75,1.75 0,0.82304 -0.8213,0.29331 -2.1277,-1.37244 z"
           id="path64301"
           style="fill:#f7c849" />
        <path
           d="m -1981.4548,290.32979 c -47.3999,-1.55745 -87.2373,-7.5201 -106.0437,-15.872 l -5.9562,-2.64521 13,-3.34742 c 26.4128,-6.80114 39.7117,-11.11936 361.9999,-117.54284 24.75,-8.17275 47.475,-15.59338 50.5,-16.49029 3.025,-0.89691 6.9778,-2.27324 8.7839,-3.05852 1.8062,-0.78528 4.1566,-1.42778 5.2233,-1.42778 1.0666,0 3.8638,-0.86467 6.216,-1.92149 4.2462,-1.90777 11.7643,-4.34714 23.2768,-7.55256 3.3,-0.91881 8.25,-2.50426 11,-3.52322 2.75,-1.01895 8.375,-2.84627 12.5,-4.06071 4.125,-1.21444 8.4,-2.57584 9.5,-3.02532 5.4227,-2.21582 76.2318,-23.71923 108,-32.79761 46.1025,-13.17467 108.6839,-29.46071 205.5,-53.47888 37.2874,-9.25024 70.1647,-18.00929 81.5,-21.71288 15.2856,-4.99424 20.3437,-6.22932 25.8728,-6.3176 6.2384,-0.0996 7.0481,0.12265 8.7716,2.4076 1.4078,1.86642 1.7274,3.37405 1.236,5.83066 -0.3644,1.82233 -0.9586,2.83448 -1.3203,2.24922 -0.3617,-0.58526 -2.6414,1.96594 -5.0661,5.66934 -4.9712,7.59302 -24.6723,27.77577 -35.994,36.87392 -22.2104,17.84851 -46.8291,34.76168 -74.5,51.18187 -9.35,5.5484 -18.1961,11.00817 -19.6581,12.13283 -1.462,1.12466 -3.1925,2.04483 -3.8456,2.04483 -0.6532,0 -2.574,0.98728 -4.2687,2.19397 -3.9024,2.77876 -45.7244,23.46961 -68.7276,34.00201 -17.8281,8.16292 -57.6389,25.22322 -68.5,29.35459 -61.4564,23.37709 -98.4752,36.2987 -143,49.91495 -100.7178,30.80078 -197.9103,50.87437 -276,57.00343 -38.2691,3.00365 -93.1981,4.79576 -120,3.91511 z"
           id="path64287"
           style="fill:#f7c849" />
        <path
           d="m -1820.9548,277.06179 c 42.1852,-4.89055 87.5664,-12.84637 92.5,-16.21625 0.55,-0.37568 3.7,-1.22848 7,-1.89512 3.3,-0.66664 14.55,-3.23861 25,-5.71549 10.45,-2.47689 20.575,-4.45873 22.5,-4.40411 1.925,0.0546 6.65,-0.78089 10.5,-1.8567 3.85,-1.07581 12.85,-3.57212 20,-5.54736 34.1829,-9.44326 81.2326,-24.84746 127.8062,-41.84409 22.8489,-8.33852 29.3401,-11.02005 31.6573,-13.0778 1.7649,-1.56722 47.514,-19.79427 53.5365,-21.32966 13.8899,-3.54107 108.8215,-48.95805 113.5,-54.30042 0.275,-0.31402 7.475,-4.31439 16,-8.8897 8.525,-4.57531 18.5036,-10.05589 22.1745,-12.17905 3.671,-2.12317 7.4982,-3.86031 8.505,-3.86031 1.9465,0 13.3202,-6.4294 35.3206,-19.96613 19.4201,-11.94916 21.9267,-13.81247 23.7638,-17.66476 1.5243,-3.1966 1.5255,-3.65705 0.017,-6.16193 -2.0927,-3.47366 -13.045,-9.49197 -23.2804,-12.79256 -6.5521,-2.11282 -9.086,-2.46269 -14,-1.93303 -7.3603,0.79333 -28.37,4.76254 -42.5,8.02922 -5.775,1.3351 -21.525,4.95497 -35,8.04415 -13.475,3.08917 -26.3,6.4068 -28.5,7.37249 -2.2,0.9657 -9.4,3.0019 -16,4.52488 -46.4872,10.72718 -182.6539,49.82422 -185.1766,53.16907 -0.6678,0.88542 -1.9651,1.32228 -3,1.01026 -2.3637,-0.71262 -23.8894,5.77097 -23.6125,7.11216 0.2261,1.0953 -5.0719,2.64138 -7.9609,2.3232 -0.9625,-0.10601 -1.75,0.28555 -1.75,0.87012 0,0.58457 -1.7049,1.06286 -3.7886,1.06286 -2.0837,0 -5.5253,0.88542 -7.6479,1.96761 -2.1226,1.08218 -4.2908,1.70098 -4.818,1.37511 -1.2049,-0.74468 -8.7167,1.5697 -10.8243,3.33497 -0.8683,0.72727 -2.0919,1.32231 -2.7191,1.32231 -0.6272,0 -4.5867,1.125 -8.7989,2.5 -4.2121,1.375 -8.5729,2.5 -9.6905,2.5 -1.1176,0 -10.1728,2.66098 -20.1225,5.91329 -9.9497,3.25231 -33.1653,10.77614 -51.5903,16.71961 -64.3471,20.75685 -217.9208,72.29326 -222.8098,74.77072 -8.0555,4.08205 -12.6551,10.99068 -10.2764,15.43535 3.865,7.22179 35.0057,24.80726 54.3345,30.68323 7.9809,2.42622 8.9735,2.49399 30.2517,2.06559 12.6426,-0.25454 29.4434,-1.30586 39.5,-2.47173 z"
           id="path64285"
           style="fill:#f7c849" />
        <path
           d="m -1167.9548,182.44573 c 5.2033,-5.225 9.6855,-9.5 9.9605,-9.5 0.275,0 -3.7572,4.275 -8.9605,9.5 -5.2032,5.225 -9.6855,9.5 -9.9605,9.5 -0.275,0 3.7573,-4.275 8.9605,-9.5 z"
           id="path64275"
           style="fill:#f7c849" />
        <path
           d="m -1179.4548,176.94573 c 3.2656,-3.3 6.1624,-6 6.4374,-6 0.275,0 -2.1718,2.7 -5.4374,6 -3.2655,3.3 -6.1623,6 -6.4373,6 -0.275,0 2.1718,-2.7 5.4373,-6 z"
           id="path64273"
           style="fill:#f7c849" />
        <path
           d="m -1291.9548,181.56817 c 0,-0.20765 0.7875,-0.99515 1.75,-1.75 1.5861,-1.24387 1.6215,-1.2085 0.3776,0.37756 -1.3064,1.66575 -2.1276,2.19548 -2.1276,1.37244 z"
           id="path64271"
           style="fill:#f7c849" />
        <path
           d="m -1283.4548,173.94573 c 0.9955,-1.1 2.035,-2 2.31,-2 0.275,0 -0.3145,0.9 -1.31,2 -0.9954,1.1 -2.0349,2 -2.3099,2 -0.275,0 0.3145,-0.9 1.3099,-2 z"
           id="path64269"
           style="fill:#f7c849" />
        <path
           d="m -1274.9548,166.63282 c 0,-0.1721 1.4625,-1.6346 3.25,-3.25 l 3.25,-2.93709 -2.937,3.25 c -2.7378,3.02946 -3.563,3.70965 -3.563,2.93709 z"
           id="path64267"
           style="fill:#f7c849" />
        <path
           d="m -1131.9548,147.44573 c 5.2033,-5.225 9.6855,-9.5 9.9605,-9.5 0.275,0 -3.7572,4.275 -8.9605,9.5 -5.2032,5.225 -9.6855,9.5 -9.9605,9.5 -0.275,0 3.7573,-4.275 8.9605,-9.5 z"
           id="path64265"
           style="fill:#f7c849" />
        <path
           d="m -1256.9548,148.44573 c 1.8658,-1.925 3.6174,-3.5 3.8924,-3.5 0.275,0 -1.0266,1.575 -2.8924,3.5 -1.8657,1.925 -3.6173,3.5 -3.8923,3.5 -0.275,0 1.0266,-1.575 2.8923,-3.5 z"
           id="path64263"
           style="fill:#f7c849" />
        <path
           d="m -1142.9965,141.69573 c 2.452,-2.6125 4.5895,-4.75 4.75,-4.75 0.7508,0 -0.043,0.89783 -4.4583,5.04179 l -4.75,4.45821 4.4583,-4.75 z"
           id="path64261"
           style="fill:#f7c849" />
        <path
           d="m -1249.9548,140.56817 c 0,-0.20765 0.7875,-0.99515 1.75,-1.75 1.5861,-1.24387 1.6215,-1.2085 0.3776,0.37756 -1.3064,1.66575 -2.1276,2.19548 -2.1276,1.37244 z"
           id="path64259"
           style="fill:#f7c849" />
        <path
           d="m -1134.9548,133.63282 c 0,-0.1721 1.4625,-1.6346 3.25,-3.25 l 3.25,-2.93709 -2.937,3.25 c -2.7378,3.02946 -3.563,3.70965 -3.563,2.93709 z"
           id="path64257"
           style="fill:#f7c849" />
        <path
           d="m -1105.7969,122.94573 c 0,-1.375 0.227,-1.9375 0.5044,-1.25 0.2774,0.6875 0.2774,1.8125 0,2.5 -0.2774,0.6875 -0.5044,0.125 -0.5044,-1.25 z"
           id="path64255"
           style="fill:#f7c849" />
        <path
           d="m -1229.9548,113.56817 c 0,-0.20765 0.7875,-0.99515 1.75,-1.75 1.5861,-1.24387 1.6215,-1.2085 0.3776,0.37756 -1.3064,1.66575 -2.1276,2.19548 -2.1276,1.37244 z"
           id="path64243"
           style="fill:#f7c849" />
        <path
           d="m -1490.6347,407.88664 c -1.7425,-1.61939 -3.1682,-3.28548 -3.1682,-3.70242 0,-0.41695 1.2355,-1.79478 2.7458,-3.06185 5.4956,-4.61092 80.0501,-77.44255 80.0501,-78.20027 0,-0.42888 -0.8555,-0.33754 -1.9009,0.20298 -1.5755,0.81448 -61.1898,38.46159 -75.4035,47.61816 -13.7335,8.84722 -23.3649,14.79775 -23.9511,14.79775 -0.7141,0 -5.1964,-6.48547 -5.1964,-7.51858 0,-0.33596 4.4671,-3.40482 9.927,-6.8197 5.4598,-3.41487 11.828,-7.42742 14.1514,-8.91676 2.3234,-1.48934 30.457,-19.3385 62.5194,-39.66479 41.8682,-26.54289 59.8425,-38.40648 63.7867,-42.10114 5.9821,-5.6038 148.2705,-143.81937 165.7934,-161.04776 7.4571,-7.33182 10.7816,-11.18466 10.7816,-12.49511 0,-3.1568 3.63,-6.0405 7.6037,-6.0405 4.6549,0 7.6038,2.85995 7.6038,7.37442 0,4.28316 -1.8662,6.73743 -5.9607,7.83954 -2.8377,0.76383 -11.1287,8.45838 -52.9838,49.17211 -77.307,75.19892 -89.9787,87.6814 -89.4981,88.16183 0.6725,0.67214 1.1583,0.37577 44.8732,-27.37374 22.3451,-14.18434 54.5042,-34.5961 71.4647,-45.35946 46.1035,-29.25786 45.5103,-28.85707 47.3703,-32.00829 3.0733,-5.20684 8.8932,-5.99879 13.1097,-1.78393 4.8777,4.87579 0.3713,13.09415 -7.18,13.09415 -1.6531,0 -11.3909,5.72083 -31.8535,18.71366 -121.6415,77.23654 -144.8672,91.94226 -148.5974,94.08672 -2.3234,1.3357 -5.8049,3.57957 -7.7369,4.98637 -1.932,1.4068 -7.2429,4.83803 -11.802,7.62496 -9.5233,5.82136 -7.9286,4.34909 -69.1711,63.8596 -52.9827,51.48446 -63.4449,61.56056 -63.8866,61.52925 -0.1773,-0.0126 -1.7482,-1.34781 -3.4907,-2.9672 z"
           id="path64374"
           style="fill:#aa8800" />
        <path
           d="m -1893.1694,410.89407 c -29.5508,-1.23312 -91.7502,-6.61057 -115.7854,-10.01023 -25.6656,-3.63028 -43.7316,-12.34969 -54.2553,-26.18596 -7.1095,-9.34732 -10.8617,-20.91774 -18.2421,-56.25215 -2.9304,-14.02955 -5.5931,-24.72749 -11.1054,-44.61868 -0.3597,-1.2982 1.1899,-0.96706 7.8271,1.67246 35.2765,14.029 115.7872,18.59014 210.2757,11.91266 101.4654,-7.17053 215.0266,-32.20497 344.0809,-75.85224 26.352,-8.91248 43.4363,-15.14304 87.9191,-32.06363 10.8611,-4.13137 50.6719,-21.19167 68.5,-29.35459 23.0032,-10.5324 64.8252,-31.22325 68.7276,-34.00201 1.6947,-1.20669 3.6155,-2.19397 4.2687,-2.19397 0.6531,0 2.3836,-0.92017 3.8456,-2.04483 1.462,-1.12466 10.3081,-6.58443 19.6581,-12.13283 27.6709,-16.42019 52.2896,-33.33336 74.5,-51.18187 11.388,-9.15143 31.0369,-29.30095 36.0428,-36.96097 6.5853,-10.07683 6.3345,-5.57132 -0.4322,7.7638 -8.7843,17.31136 -38.4914,62.26679 -62.8017,95.03703 -3.6801,4.96082 -8.4051,11.41346 -10.5,14.3392 -33.5803,46.89887 -125.5827,115.01199 -240.3488,177.93989 -7.9969,4.38485 -15.5947,8.30723 -16.8839,8.71641 -1.2892,0.40918 -5.006,2.30413 -8.2596,4.211 -3.2536,1.90687 -8.4808,4.59674 -11.6161,5.97747 -3.1352,1.38074 -6.3755,3.05682 -7.2005,3.72463 -1.9392,1.56976 -29.2711,14.59946 -48.5,23.12097 -35.889,15.90472 -77.838,31.04415 -106.5,38.43607 -64.0811,16.52645 -135.6387,23.2395 -213.2146,20.00237 z"
           id="path64372"
           style="fill:#dd55ff" />
        <path
           d="m -1890.7065,277.46793 c -19.3288,-5.87597 -50.4695,-23.46144 -54.3345,-30.68323 -2.3787,-4.44467 2.2209,-11.3533 10.2764,-15.43535 4.889,-2.47746 158.4627,-54.01387 222.8098,-74.77072 18.425,-5.94347 41.6406,-13.4673 51.5903,-16.71961 9.9497,-3.25231 19.0049,-5.91329 20.1224,-5.91329 1.1176,0 5.4783,-1.125 9.6905,-2.5 4.2122,-1.375 8.1718,-2.5 8.799,-2.5 0.6272,0 1.8508,-0.59504 2.7191,-1.32231 2.1076,-1.76527 9.6193,-4.07965 10.8243,-3.33497 0.5272,0.32587 2.6953,-0.29293 4.818,-1.37511 2.1226,-1.08219 5.1693,-1.96761 6.7703,-1.96761 2.4742,0 2.7242,0.22509 1.6662,1.5 -0.6847,0.825 -2.3506,1.5 -3.702,1.5 -2.2481,0 -2.3978,0.27624 -1.7607,3.25 0.383,1.7875 0.7562,3.25905 0.8295,3.27011 0.073,0.0111 1.7081,0.57833 3.6332,1.26059 3.0426,1.07839 3.6623,1.01943 4.7427,-0.45127 1.153,-1.56969 1.4055,-1.53973 3.5,0.41528 1.2415,1.15887 3.602,2.4411 5.2457,2.84941 1.6436,0.40831 3.8138,1.79167 4.8225,3.07413 1.0088,1.28246 2.4288,2.33175 3.1555,2.33175 0.7267,0 10.0315,4.54801 20.6774,10.10669 44.7898,23.38668 67.6495,34.89331 69.3212,34.89331 3.364,0 -0.2974,2.74467 -7.7838,5.83478 -38.8259,16.02596 -144.5286,50.39475 -176.6813,57.44717 l -4.5,0.98704 -18,-12.45093 c -9.9,-6.84802 -31.5,-21.83239 -48,-33.29861 -16.5,-11.46622 -30.9137,-21.03239 -32.0304,-21.25816 -2.3663,-0.47839 -45.333,13.32465 -47.2907,15.19215 -1.0767,1.0271 5.901,6.2348 37.7222,28.15338 42.2702,29.11595 46.0744,31.65816 50.5989,33.81415 2.7263,1.29911 2.8175,1.49053 1,2.09802 -1.1,0.36766 -3.125,1.08035 -4.5,1.58376 -3.4931,1.27886 -31.1308,6.26116 -52,9.37413 -31.6415,4.71983 -51.9321,6.65654 -74.5,7.11091 -21.2782,0.4284 -22.2708,0.36063 -30.2517,-2.06559 z"
           id="path64370"
           style="fill:#dd55ff" />
        <path
           d="m -1436.5048,165.06808 c -0.5225,-0.48271 -15.575,-8.00542 -33.45,-16.71713 -17.875,-8.71172 -32.8598,-16.41677 -33.2996,-17.12235 -0.4399,-0.70558 -1.7899,-1.28455 -3,-1.28661 -2.6717,-0.005 -8.7004,-3.53148 -8.7004,-5.08997 0,-0.68492 -0.9326,-0.88902 -2.3905,-0.52313 -1.8282,0.45887 -2.7744,0.014 -4.023,-1.89159 -0.9949,-1.51834 -2.577,-2.49157 -4.0505,-2.49157 -1.3299,0 -2.6757,-0.41717 -2.9909,-0.92704 -0.3151,-0.50988 -2.2541,-1.44889 -4.309,-2.0867 -2.0548,-0.6378 -6.9577,-2.71445 -10.8953,-4.61478 -5.1417,-2.48147 -7.8893,-3.2719 -9.75,-2.8049 -3.5335,0.88686 -3.4024,-1.30697 0.1593,-2.66344 4.1463,-1.5792 48.6323,-14.83962 85.25,-25.41143 46.6819,-13.47743 107.4913,-29.33374 108.5263,-28.29869 0.2223,0.22234 -11.457,3.70108 -25.9541,7.73053 -14.4972,4.02945 -26.969,7.72006 -27.7153,8.20136 -1.9302,1.24481 -1.4387,1.49852 23.1431,11.94626 31.3206,13.31192 33.0134,14.09804 32.4211,15.05648 -0.2966,0.47979 0.8744,0.87235 2.6022,0.87235 1.7278,0 6.1418,1.31584 9.809,2.9241 12.8584,5.63905 24.4364,10.0759 26.2933,10.0759 5.2591,0 -0.5035,3.72467 -23.6256,15.27063 -19.4195,9.69701 -43.809,21.17437 -61.1222,28.76314 -6.5328,2.8635 -15.3095,6.72733 -19.5037,8.5863 -7.6512,3.39116 -11.6543,4.13734 -13.4242,2.50228 z"
           id="path64368"
           style="fill:#dd55ff" />
        <path
           d="m -1591.9548,119.94573 c 0,-0.55 0.675,-1 1.5,-1 0.825,0 1.5,0.45 1.5,1 0,0.55 -0.675,1 -1.5,1 -0.825,0 -1.5,-0.45 -1.5,-1 z"
           id="path64366"
           style="fill:#dd55ff" />
        <path
           d="m -1582.4591,116.93867 c -0.7309,-1.18255 -0.9255,-1.10325 12.2227,-4.98003 11.568,-3.41086 11.5818,-3.41323 11.0801,-1.90828 -0.3587,1.07618 -18.8392,7.89537 -21.397,7.89537 -0.7059,0 -1.5635,-0.45318 -1.9058,-1.00706 z"
           id="path64364"
           style="fill:#dd55ff" />
        <path
           d="m -1275.0885,84.43466 c -1.4486,-0.78705 -13.5986,-5.74566 -27,-11.01912 -13.4014,-5.27346 -28.4163,-11.20011 -33.3662,-13.17032 -4.9501,-1.97021 -11.92,-4.62167 -15.4888,-5.89214 l -6.4887,-2.30993 3.4887,-1.4361 c 1.9188,-0.78985 14.5137,-3.97565 27.9888,-7.07957 13.4749,-3.10391 29.2249,-6.73584 35,-8.07094 14.13,-3.26668 35.1397,-7.23589 42.5,-8.02922 4.914,-0.52966 7.4479,-0.17979 14,1.93303 10.2354,3.30059 21.1877,9.3189 23.2803,12.79256 1.509,2.50488 1.5078,2.96533 -0.017,6.16193 -1.837,3.85229 -4.3436,5.7156 -23.7638,17.66476 -22.6461,13.93413 -33.3945,19.96804 -35.495,19.92609 -1.1027,-0.022 -3.1902,-0.68399 -4.6387,-1.47103 z"
           id="path64241"
           style="fill:#dd55ff" />
        <path
           d="m -1992.2178,-513.18637 c -31.1768,-20.96978 -62.3569,-43.07344 -63.6015,-45.08733 -1.3362,-2.16199 31.6131,-13.05656 40.337,-13.33728 5.6364,-0.18136 14.6959,5.19717 52.5498,31.19797 l 45.7393,31.41711 -20.7327,4.38763 c -11.4029,2.41319 -23.052,4.98901 -25.8869,5.72405 -4.2064,1.09064 -9.4306,-1.53978 -28.405,-14.30215 l 0,0 z"
           transform="translate(240.52266,757.25338)"
           id="path64247"
           style="color:#000000;fill:#87decd;fill-opacity:1;fill-rule:nonzero;stroke:#87decd;stroke-width:25.21772957;stroke-linecap:round;stroke-linejoin:round;stroke-miterlimit:4;stroke-opacity:1;stroke-dasharray:none;stroke-dashoffset:0;marker:none;visibility:visible;display:inline;overflow:visible;enable-background:accumulate" />
        <path
           d="m -1765.9797,-593.91351 c -23.396,-11.75141 -46.8886,-24.00709 -52.206,-27.23483 -5.3173,-3.22774 -12.3932,-5.86863 -15.7242,-5.86863 -10.1981,0 -7.0061,-5.13484 5.6101,-9.02465 6.4164,-1.97833 16.5058,-5.4286 22.4207,-7.66728 10.4709,-3.96301 11.0058,-3.97443 20.2893,-0.43315 5.2442,2.00044 31.8536,14.74117 59.1321,28.31274 l 49.5973,24.67558 -16.12,6.23043 c -8.8659,3.42674 -19.3467,7.61319 -23.2906,9.30322 l -7.1707,3.07278 -42.538,-21.36621 z"
           transform="translate(240.52266,757.25338)"
           id="path64249"
           style="color:#000000;fill:#87decd;fill-opacity:1;fill-rule:nonzero;stroke:#87decd;stroke-width:25.21772957;stroke-linecap:round;stroke-linejoin:round;stroke-miterlimit:4;stroke-opacity:1;stroke-dasharray:none;stroke-dashoffset:0;marker:none;visibility:visible;display:inline;overflow:visible;enable-background:accumulate" />
        <path
           d="m -1573.1621,-653.6967 c -29.4888,-10.77017 -78.2991,-32.91143 -75.6314,-34.30783 1.4245,-0.74562 13.6841,-4.66507 27.2437,-8.70988 l 24.6537,-7.35421 36.2141,14.37754 c 19.9178,7.90765 38.4538,15.24896 41.1912,16.31402 4.7369,1.84308 4.3455,2.28271 -8.1158,9.11552 -7.201,3.94847 -16.7448,9.27468 -21.2084,11.83603 l -8.1157,4.65699 -16.2314,-5.92818 0,0 z"
           transform="translate(240.52266,757.25338)"
           id="path64251"
           style="color:#000000;fill:#87decd;fill-opacity:1;fill-rule:nonzero;stroke:#87decd;stroke-width:25.21772957;stroke-linecap:round;stroke-linejoin:round;stroke-miterlimit:4;stroke-opacity:1;stroke-dasharray:none;stroke-dashoffset:0;marker:none;visibility:visible;display:inline;overflow:visible;enable-background:accumulate" />
        <path
           d="m -2144.5527,-486.31548 c -19.1021,-8.3404 -39.0602,-21.41885 -39.9613,-26.18643 -1.3757,-7.27907 9.6858,-12.53696 69.8536,-33.20372 58.315,-20.03035 73.1132,-24.35316 61.1495,-17.86275 -3.0687,1.66483 -5.5795,3.90429 -5.5795,4.97658 0,2.50865 22.0508,18.78733 58.7437,43.36675 15.994,10.71385 28.7195,19.47973 28.2789,19.47973 -0.4407,0 -10.3861,1.83381 -22.1009,4.07512 -38.8916,7.44084 -80.9819,12.1569 -108.2725,12.13153 -25.7151,-0.0239 -27.1882,-0.26096 -42.1115,-6.77681 l 0,0 z"
           transform="translate(240.52266,757.25338)"
           id="path64349"
           style="color:#000000;fill:#672178;fill-opacity:1;fill-rule:nonzero;stroke:none;stroke-width:4;marker:none;visibility:visible;display:inline;overflow:visible;enable-background:accumulate" />
        <path
           d="m -1915.9752,-511.24538 c -0.6479,-1.04843 -22.386,-16.10946 -48.3067,-33.46895 l -47.1287,-31.56271 -11.1591,3.01095 c -17.1448,4.626 -18.8993,3.33811 -3.0434,-2.23393 29.4008,-10.33194 178.9009,-57.63171 182.0963,-57.61276 0.8369,0.005 1.5343,1.60681 1.5496,3.55965 0.02,2.47844 3.2361,4.59828 10.6519,7.01997 5.8432,1.90814 31.5105,14.36825 57.0385,27.68915 40.4048,21.08384 45.8844,24.50353 42.32,26.41108 -13.7183,7.34183 -110.028,39.69153 -157.5628,52.92415 -24.8073,6.9058 -24.8211,6.90803 -26.4556,4.2634 l 0,0 z"
           transform="translate(240.52266,757.25338)"
           id="path64351"
           style="color:#000000;fill:#672178;fill-opacity:1;fill-rule:nonzero;stroke:none;stroke-width:4;marker:none;visibility:visible;display:inline;overflow:visible;enable-background:accumulate" />
        <path
           d="m -1732.7068,-621.66012 -58.0983,-28.78702 33.7511,-9.95822 c 61.4372,-18.12692 101.7203,-29.00589 101.7203,-27.47086 0,2.19916 28.9649,15.70901 63.3651,29.55482 16.4383,6.61629 29.9053,12.57126 29.9267,13.23326 0.075,2.33465 -106.7431,52.81086 -110.8664,52.389 -0.9351,-0.0957 -27.8445,-13.12812 -59.7985,-28.96098 l 0,0 z"
           transform="translate(240.52266,757.25338)"
           id="path64353"
           style="color:#000000;fill:#672178;fill-opacity:1;fill-rule:nonzero;stroke:none;stroke-width:4;marker:none;visibility:visible;display:inline;overflow:visible;enable-background:accumulate" />
        <path
           d="m -1552.388,-689.3982 c -20.9357,-8.51663 -37.37,-16.12456 -36.5207,-16.90651 3.6861,-3.39397 91.4592,-22.14147 103.7149,-22.15252 3.7461,-0.003 12.648,2.77955 19.782,6.18429 20.1534,9.61832 18.602,12.46738 -19.216,35.29009 -10.4494,6.30606 -21.4056,11.82643 -24.3471,12.2675 -3.4231,0.51325 -19.0508,-4.77226 -43.4131,-14.68285 z"
           transform="translate(240.52266,757.25338)"
           id="path64355"
           style="color:#000000;fill:#672178;fill-opacity:1;fill-rule:nonzero;stroke:none;stroke-width:4;marker:none;visibility:visible;display:inline;overflow:visible;enable-background:accumulate" />
        <path
           d="m -1539.0525,426.50377 c -14.504,4.42735 -26.4337,6.53957 -39.6743,12.1064 -25.4704,10.70861 -55.4269,32.41235 -74.8951,54.22957 -3.1284,3.35448 2.0967,9.10605 6.5157,17.54688 11.1421,21.28296 39.0293,52.1007 56.3326,49.66684"
           id="path64360"
           style="fill:none;stroke:#ffffff;stroke-width:6.30443239;stroke-linecap:round;stroke-linejoin:round;stroke-miterlimit:4;stroke-opacity:1;stroke-dasharray:none" />
      </g>
    </g>
  </g>
</svg>
