<?xml version="1.0" encoding="UTF-8" standalone="no"?>
<!-- Created with Inkscape (http://www.inkscape.org/) -->

<svg
   xmlns:dc="http://purl.org/dc/elements/1.1/"
   xmlns:cc="http://creativecommons.org/ns#"
   xmlns:rdf="http://www.w3.org/1999/02/22-rdf-syntax-ns#"
   xmlns:svg="http://www.w3.org/2000/svg"
   xmlns="http://www.w3.org/2000/svg"
   xmlns:xlink="http://www.w3.org/1999/xlink"
   xmlns:sodipodi="http://sodipodi.sourceforge.net/DTD/sodipodi-0.dtd"
   xmlns:inkscape="http://www.inkscape.org/namespaces/inkscape"
   id="svg2"
   version="1.1"
   inkscape:version="0.48.4 r9939"
   width="127.65598"
   height="128.23448"
   xml:space="preserve"
   sodipodi:docname="dado.svg"><metadata
     id="metadata8"><rdf:RDF><cc:Work
         rdf:about=""><dc:format>image/svg+xml</dc:format><dc:type
           rdf:resource="http://purl.org/dc/dcmitype/StillImage" /><dc:title /></cc:Work></rdf:RDF></metadata><defs
     id="defs6"><linearGradient
       inkscape:collect="always"
       x1="353.25"
       y1="-177.82001"
       x2="421"
       gradientUnits="userSpaceOnUse"
       y2="-223.64"
       id="linearGradient4447"><stop
         offset="0"
         style="stop-color:#cc0000"
         id="stop4443" /><stop
         offset="1"
         style="stop-color:#690000"
         id="stop4445" /></linearGradient><linearGradient
       inkscape:collect="always"
       x1="345.76999"
       y1="-213.28"
       x2="440"
       gradientUnits="userSpaceOnUse"
       y2="-223.64"
       id="linearGradient4438"><stop
         offset="0"
         style="stop-color:#a40000"
         id="stop4434" /><stop
         offset="1"
         style="stop-color:#000000"
         id="stop4436" /></linearGradient><filter
       inkscape:collect="always"
       x="-0.16707"
       y="-0.2148"
       color-interpolation-filters="sRGB"
       width="1.3341"
       height="1.4296"
       id="filter4280"><feGaussianBlur
         inkscape:collect="always"
         stdDeviation="2.8192771"
         id="feGaussianBlur4282" /></filter><linearGradient
       inkscape:collect="always"
       x1="544"
       y1="82.112"
       x2="379.57999"
       gradientUnits="userSpaceOnUse"
       y2="135.78"
       id="linearGradient4268"><stop
         offset="0"
         style="stop-color:#ffffff"
         id="stop4264" /><stop
         offset="1"
         style="stop-color:#ffffff;stop-opacity:0"
         id="stop4266" /></linearGradient><linearGradient
       inkscape:collect="always"
       x1="237"
       y1="61.362"
       x2="386.53"
       gradientUnits="userSpaceOnUse"
       y2="130.89"
       id="linearGradient4260"><stop
         offset="0"
         style="stop-color:#ffffff"
         id="stop4256" /><stop
         offset="1"
         style="stop-color:#ffffff;stop-opacity:0"
         id="stop4258" /></linearGradient><filter
       inkscape:collect="always"
       x="-0.32185999"
       y="-0.026046"
       color-interpolation-filters="sRGB"
       width="1.6437"
       height="1.0520999"
       id="filter4248"><feGaussianBlur
         inkscape:collect="always"
         stdDeviation="2.8162651"
         id="feGaussianBlur4250" /></filter><filter
       color-interpolation-filters="sRGB"
       inkscape:collect="always"
       id="filter4243"><feGaussianBlur
         inkscape:collect="always"
         stdDeviation="2.4658634"
         id="feGaussianBlur4245" /></filter><filter
       color-interpolation-filters="sRGB"
       inkscape:collect="always"
       id="filter4215"><feGaussianBlur
         inkscape:collect="always"
         stdDeviation="1.4708835"
         id="feGaussianBlur4217" /></filter><linearGradient
       inkscape:collect="always"
       x1="291.22"
       y1="336.35999"
       x2="121.26"
       gradientUnits="userSpaceOnUse"
       y2="80.362"
       id="linearGradient4194"><stop
         offset="0"
         style="stop-color:#babdb6"
         id="stop4190" /><stop
         offset="1"
         style="stop-color:#babdb6;stop-opacity:0"
         id="stop4192" /></linearGradient><linearGradient
       inkscape:collect="always"
       x1="385.54999"
       y1="423.04001"
       x2="385.54999"
       gradientUnits="userSpaceOnUse"
       y2="391.22"
       id="linearGradient4149"><stop
         offset="0"
         style="stop-color:#2e3436"
         id="stop4145" /><stop
         offset="1"
         style="stop-color:#2e3436;stop-opacity:0"
         id="stop4147" /></linearGradient><linearGradient
       inkscape:collect="always"
       x1="371"
       y1="272.35999"
       gradientTransform="matrix(1,0,0,0.86398,0,55.507)"
       x2="397"
       gradientUnits="userSpaceOnUse"
       y2="272.35999"
       id="linearGradient4131"><stop
         offset="0"
         style="stop-color:#babdb6"
         id="stop4124" /><stop
         offset="1"
         style="stop-color:#d3d7cf"
         id="stop4126" /></linearGradient><linearGradient
       inkscape:collect="always"
       id="linearGradient4161"><stop
         offset="0"
         style="stop-color:#eeeeec"
         id="stop4163" /><stop
         offset="1"
         style="stop-color:#d3d7cf"
         id="stop4165" /></linearGradient><linearGradient
       inkscape:collect="always"
       id="linearGradient4176"><stop
         offset="0"
         style="stop-color:#000000"
         id="stop4178" /><stop
         offset="1"
         style="stop-color:#000000;stop-opacity:0"
         id="stop4180" /></linearGradient><linearGradient
       inkscape:collect="always"
       id="linearGradient4453"><stop
         offset="0"
         style="stop-color:#5c0000"
         id="stop4455" /><stop
         offset="1"
         style="stop-color:#cc0000"
         id="stop4457" /></linearGradient><linearGradient
       inkscape:collect="always"
       id="linearGradient4501"><stop
         offset="0"
         style="stop-color:#a40000"
         id="stop4503" /><stop
         offset="1"
         style="stop-color:#d14040"
         id="stop4505" /></linearGradient><filter
       inkscape:collect="always"
       id="filter4382"
       color-interpolation-filters="sRGB"><feGaussianBlur
         inkscape:collect="always"
         stdDeviation="7.6695511"
         id="feGaussianBlur4384" /></filter><linearGradient
       inkscape:collect="always"
       xlink:href="#linearGradient4161"
       id="linearGradient4435"
       gradientUnits="userSpaceOnUse"
       gradientTransform="translate(-51.906374,34.906565)"
       x1="394"
       y1="-12.638"
       x2="384.67999"
       y2="286.35999" /><linearGradient
       inkscape:collect="always"
       xlink:href="#linearGradient4194"
       id="linearGradient4437"
       gradientUnits="userSpaceOnUse"
       gradientTransform="translate(-49.198,38.969124)"
       x1="291.22"
       y1="336.35999"
       x2="121.26"
       y2="80.362" /><linearGradient
       inkscape:collect="always"
       xlink:href="#linearGradient4176"
       id="linearGradient4439"
       gradientUnits="userSpaceOnUse"
       gradientTransform="translate(-49.198,38.969124)"
       x1="256.67999"
       y1="410.07001"
       x2="304.73999"
       y2="338.14999" /><linearGradient
       inkscape:collect="always"
       xlink:href="#linearGradient4176"
       id="linearGradient4441"
       gradientUnits="userSpaceOnUse"
       gradientTransform="matrix(-0.9984,-0.056561,-0.056561,0.9984,751.462,46.847624)"
       x1="240.75999"
       y1="441.03"
       x2="304.73999"
       y2="338.14999" /><linearGradient
       inkscape:collect="always"
       xlink:href="#linearGradient4161"
       id="linearGradient4443"
       gradientUnits="userSpaceOnUse"
       gradientTransform="translate(-49.198,38.969124)"
       x1="386.5"
       y1="116.1"
       x2="386.5"
       y2="344.60999" /><linearGradient
       inkscape:collect="always"
       xlink:href="#linearGradient4260"
       id="linearGradient4445"
       gradientUnits="userSpaceOnUse"
       gradientTransform="translate(-49.198,38.969124)"
       x1="237"
       y1="61.362"
       x2="386.53"
       y2="130.89" /><linearGradient
       inkscape:collect="always"
       xlink:href="#linearGradient4268"
       id="linearGradient4448"
       gradientUnits="userSpaceOnUse"
       gradientTransform="translate(-49.198,38.969124)"
       x1="544"
       y1="82.112"
       x2="379.57999"
       y2="135.78" /><linearGradient
       inkscape:collect="always"
       xlink:href="#linearGradient4131"
       id="linearGradient4450"
       gradientUnits="userSpaceOnUse"
       gradientTransform="matrix(1,0,0,0.86398,0,55.507)"
       x1="371"
       y1="272.35999"
       x2="397"
       y2="272.35999" /><linearGradient
       inkscape:collect="always"
       xlink:href="#linearGradient4149"
       id="linearGradient4452"
       gradientUnits="userSpaceOnUse"
       x1="385.54999"
       y1="423.04001"
       x2="385.54999"
       y2="391.22" /><linearGradient
       inkscape:collect="always"
       xlink:href="#linearGradient4453"
       id="linearGradient4454"
       gradientUnits="userSpaceOnUse"
       x1="296.92999"
       y1="204.41"
       x2="335.29001"
       y2="246.97" /><linearGradient
       inkscape:collect="always"
       xlink:href="#linearGradient4453"
       id="linearGradient4456"
       gradientUnits="userSpaceOnUse"
       x1="300.01999"
       y1="282.64001"
       x2="337.60999"
       y2="338.32999" /><linearGradient
       inkscape:collect="always"
       xlink:href="#linearGradient4453"
       id="linearGradient4458"
       gradientUnits="userSpaceOnUse"
       x1="188.06"
       y1="71.818001"
       x2="224.16"
       y2="98.557999" /><linearGradient
       inkscape:collect="always"
       xlink:href="#linearGradient4453"
       id="linearGradient4460"
       gradientUnits="userSpaceOnUse"
       x1="196.42"
       y1="152.35001"
       x2="231.8"
       y2="204.75999" /><linearGradient
       inkscape:collect="always"
       xlink:href="#linearGradient4453"
       id="linearGradient4462"
       gradientUnits="userSpaceOnUse"
       x1="203.77"
       y1="227.88"
       x2="238.45"
       y2="279.23999" /><linearGradient
       inkscape:collect="always"
       xlink:href="#linearGradient4501"
       id="linearGradient4464"
       gradientUnits="userSpaceOnUse"
       x1="674.69"
       y1="477.82001"
       x2="688.10999"
       y2="519.54999" /><linearGradient
       inkscape:collect="always"
       xlink:href="#linearGradient4501"
       id="linearGradient4466"
       gradientUnits="userSpaceOnUse"
       x1="674.02002"
       y1="628.64001"
       x2="711.60999"
       y2="656.48999" /><linearGradient
       inkscape:collect="always"
       xlink:href="#linearGradient4501"
       id="linearGradient4468"
       gradientUnits="userSpaceOnUse"
       x1="543.40997"
       y1="405.38"
       x2="575.78003"
       y2="434.97" /><linearGradient
       inkscape:collect="always"
       xlink:href="#linearGradient4501"
       id="linearGradient4470"
       gradientUnits="userSpaceOnUse"
       x1="563.34003"
       y1="565.65997"
       x2="598.01001"
       y2="591.34003" /><linearGradient
       inkscape:collect="always"
       xlink:href="#linearGradient4438"
       id="linearGradient4472"
       gradientUnits="userSpaceOnUse"
       x1="345.76999"
       y1="-213.28"
       x2="440"
       y2="-223.64" /><linearGradient
       inkscape:collect="always"
       xlink:href="#linearGradient4447"
       id="linearGradient4474"
       gradientUnits="userSpaceOnUse"
       x1="353.25"
       y1="-177.82001"
       x2="421"
       y2="-223.64" /><linearGradient
       inkscape:collect="always"
       xlink:href="#linearGradient4453"
       id="linearGradient4476"
       gradientUnits="userSpaceOnUse"
       x1="294.54001"
       y1="115.57"
       x2="333.67999"
       y2="144.56" /></defs><sodipodi:namedview
     pagecolor="#ffffff"
     bordercolor="#666666"
     borderopacity="1"
     objecttolerance="10"
     gridtolerance="10"
     guidetolerance="10"
     inkscape:pageopacity="0"
     inkscape:pageshadow="2"
     inkscape:window-width="1600"
     inkscape:window-height="876"
     id="namedview4"
     showgrid="false"
     showguides="true"
     inkscape:guide-bbox="true"
     inkscape:zoom="2.8243633"
     inkscape:cx="74.914274"
     inkscape:cy="49.242144"
     inkscape:window-x="0"
     inkscape:window-y="1"
     inkscape:window-maximized="1"
     inkscape:current-layer="g3501"><sodipodi:guide
       orientation="1,0"
       position="-9.334261,0.77204059"
       id="guide4220" /><sodipodi:guide
       orientation="1,0"
       position="141.62677,-3.6494121"
       id="guide4222" /><sodipodi:guide
       orientation="0,1"
       position="123.94096,130.25743"
       id="guide4224" /><sodipodi:guide
       orientation="0,1"
       position="151.10131,-20.703586"
       id="guide4226" /></sodipodi:namedview><g
     id="g10"
     inkscape:groupmode="layer"
     inkscape:label="map"
     transform="matrix(1.25,0,0,-1.25,6507.7918,1292.2275)"><g
       id="g3501"
       transform="matrix(0.20916586,0,0,-0.20916586,-5228.4536,1029.4679)"><g
         id="g4392"
         transform="translate(18.958617,0)"><g
           id="g4386"><g
             style="stroke:#666666;stroke-width:15.29886341;stroke-miterlimit:4;stroke-dasharray:none;filter:url(#filter4382)"
             transform="translate(-57.323122,30.844)"
             inkscape:label="marco"
             id="g4378"><path
               d="m 372.59338,411.44662 c -2.25973,-0.70698 -6.61143,-2.7174 -9.67052,-4.46758 C 354.50201,402.16111 212.41318,299.14552 207.03642,293.96751 201.28566,288.4199 198.79974,282.21118 196.80963,268.42538 196.00728,262.86743 189.7118,214.93797 182.8201,161.91369 168.53838,52.032825 168.47875,51.178108 174.28287,39.033171 c 5.3072,-11.098405 16.826,-20.336309 30.03436,-24.073212 13.26103,-3.752706 184.32068,-40.382412 188.58432,-40.382412 4.66387,0 168.3991,35.915023 181.09064,39.721496 15.06688,4.519269 27.22274,16.115398 31.21903,29.779942 0.86818,2.96895 1.57855,8.984669 1.57855,13.368375 0,11.105361 -21.58756,220.58663 -23.3775,226.84794 -2.89878,10.1443 -4.05503,10.99803 -90.20741,66.56558 -88.88359,57.32967 -88.97702,57.38731 -96.79569,60.07768 -6.50131,2.23678 -17.52666,2.47173 -23.80585,0.50739 z"
               style="fill:none;stroke:#666666;stroke-width:15.29886341;stroke-miterlimit:4;stroke-dasharray:none"
               sodipodi:nodetypes="csssssssssssssc"
               id="path4380"
               inkscape:connector-curvature="0" /></g><g
             id="g4366"
             inkscape:label="marco"
             transform="translate(-57.323122,30.844)"
             style="stroke:#ffffff;stroke-width:15.29886341;stroke-miterlimit:4;stroke-dasharray:none"><path
               inkscape:connector-curvature="0"
               id="path4368"
               sodipodi:nodetypes="csssssssssssssc"
               style="fill:none;stroke:#ffffff;stroke-width:15.29886341;stroke-miterlimit:4;stroke-dasharray:none"
               d="m 372.59338,411.44662 c -2.25973,-0.70698 -6.61143,-2.7174 -9.67052,-4.46758 C 354.50201,402.16111 212.41318,299.14552 207.03642,293.96751 201.28566,288.4199 198.79974,282.21118 196.80963,268.42538 196.00728,262.86743 189.7118,214.93797 182.8201,161.91369 168.53838,52.032825 168.47875,51.178108 174.28287,39.033171 c 5.3072,-11.098405 16.826,-20.336309 30.03436,-24.073212 13.26103,-3.752706 184.32068,-40.382412 188.58432,-40.382412 4.66387,0 168.3991,35.915023 181.09064,39.721496 15.06688,4.519269 27.22274,16.115398 31.21903,29.779942 0.86818,2.96895 1.57855,8.984669 1.57855,13.368375 0,11.105361 -21.58756,220.58663 -23.3775,226.84794 -2.89878,10.1443 -4.05503,10.99803 -90.20741,66.56558 -88.88359,57.32967 -88.97702,57.38731 -96.79569,60.07768 -6.50131,2.23678 -17.52666,2.47173 -23.80585,0.50739 z" /></g></g><path
           d="m 316.54363,443.63655 c -2.2737,-0.7113 -6.6523,-2.7342 -9.7303,-4.4952 -8.4729,-4.8477 -151.44,-108.49999 -156.85,-113.70999 -5.7863,-5.5819 -8.2876,-11.829 -10.29,-25.7 -0.80731,-5.5923 -7.1417,-53.818 -14.076,-107.17 -14.37,-110.559995 -14.43,-111.419995 -8.59,-123.639995 5.34,-11.167 16.93,-20.462 30.22,-24.222 13.343,-3.7759 185.46,-40.6320002 189.75,-40.6320002 4.6927,0 169.44,36.1370002 182.21,39.9670002 15.16,4.5472 27.391,16.215 31.412,29.964 0.87354,2.9873 1.5883,9.0402 1.5883,13.451 0,11.174 -21.721,221.949995 -23.522,228.249995 -2.9167,10.207 -4.0801,11.066 -90.765,66.977 -89.433,57.68399 -89.527,57.74199 -97.394,60.44899 -6.5415,2.2506 -17.635,2.487 -23.953,0.5105 z"
           style="fill:url(#linearGradient4435)"
           sodipodi:nodetypes="csssssssssssssc"
           id="path4030"
           inkscape:connector-curvature="0" /><path
           d="m 123.332,69.563124 -5.75,8.3125 c -3.4161,9.8076 -1.6049,23.940996 10.719,118.749996 6.9347,53.35 13.286,101.56 14.094,107.16 2.0025,13.871 4.4949,20.137 10.281,25.719 5.4024,5.2115 148.37,108.84 156.84,113.69 3.0779,1.761 7.445,3.7886 9.7188,4.5 6.3176,1.9765 17.427,1.7506 23.969,-0.5 4.461,-1.5348 6.9551,-2.584 24.125,-13.406 l 0.65625,-1.4688 c 0,0 -31.819,10.611 -41.719,-9.1875 l -3.5312,-229.12 c -5.65,-21.69 -19.79,-35.58 -36.05,-45.95 l -162.63,-67.901996 c -2.5,-5.25 -0.71875,-10.594 -0.71875,-10.594 z"
           style="fill:url(#linearGradient4437)"
           sodipodi:nodetypes="ccssssssccccccc"
           id="path4023"
           inkscape:connector-curvature="0" /><path
           d="m 143.102,305.19912 c 2.0025,13.871 3.7878,18.723 9.5741,24.305 5.4024,5.2115 148.37,108.84 156.84,113.69 3.0779,1.761 7.445,3.7886 9.7188,4.5 6.3176,1.9765 17.427,1.7506 23.969,-0.5 4.461,-1.5348 6.9551,-2.584 24.125,-13.406 l 0.65625,-1.4688 c 0,0 -31.112,12.026 -41.012,-7.7733 l -183.88,-119.34 z"
           style="opacity:0.98999999;fill:url(#linearGradient4439)"
           sodipodi:nodetypes="csssscccc"
           id="path4174"
           inkscape:connector-curvature="0" /><path
           d="m 531.682,311.66912 c -2.7839,13.736 -13.334,35.465 -10.934,23.724 1.5036,-7.3543 -141.56,90.374 -150.3,94.735 -3.1726,1.5841 -7.6474,3.3615 -9.9577,3.9431 -6.4193,1.616 -17.498,0.76208 -23.902,-1.8549 -4.367,-1.7847 -6.7978,-2.9733 -23.328,-14.749 l -0.57213,-1.5035 c 0,0 30.382,13.766 41.386,-5.4412 l 177.6,-98.853 z"
           style="opacity:0.98999999;fill:url(#linearGradient4441)"
           sodipodi:nodetypes="csssscccc"
           id="path4184"
           inkscape:connector-curvature="0" /><path
           d="m 326.802,161.82912 21,0.5 -15,259 h -2 l -4,-259.5 z"
           style="opacity:0.98999999;fill:url(#linearGradient4443);filter:url(#filter4248)"
           sodipodi:nodetypes="ccccc"
           id="rect4196"
           inkscape:connector-curvature="0" /><path
           d="m 331.302,166.32912 2.5,-8 -207,-83.999996 h -2 l 206.5,91.999996 z"
           style="opacity:0.98999999;fill:url(#linearGradient4445);filter:url(#filter4215)"
           sodipodi:nodetypes="ccccc"
           id="rect4198"
           inkscape:connector-curvature="0" /><path
           d="m 336.302,168.82912 0.5,-7.5 209,-87.999996 h 2 l -211.5,95.499996 z"
           style="opacity:0.98999999;fill:url(#linearGradient4448);filter:url(#filter4243)"
           sodipodi:nodetypes="ccccc"
           id="path4201"
           inkscape:connector-curvature="0" /><path
           sodipodi:cx="389.75"
           sodipodi:cy="118.11218"
           transform="translate(-54.198,39.969124)"
           d="m 410,118.11218 c 0,8.69849 -9.06623,15.75 -20.25,15.75 -11.18377,0 -20.25,-7.05151 -20.25,-15.75 0,-8.69848 9.06623,-15.75 20.25,-15.75 11.18377,0 20.25,7.05152 20.25,15.75 z"
           sodipodi:type="arc"
           style="opacity:0.44897999;fill:#efefed;filter:url(#filter4280)"
           sodipodi:ry="15.75"
           sodipodi:rx="20.25"
           id="path4270" /><g
           id="layer2"
           inkscape:label="ojos"
           transform="translate(-49.198,33.552374)"><path
             inkscape:connector-curvature="0"
             id="rect4120"
             sodipodi:nodetypes="cccccc"
             style="fill:url(#linearGradient4450)"
             d="m 370,142.36 14,144 14,-144 v 262.51 c -11.5,6.0479 -28,1.728 -28,1.728 v -264.24 z" /><path
             inkscape:connector-curvature="0"
             id="path4133"
             style="fill:url(#linearGradient4452)"
             d="m 412.24,396.17 -31.466,-4.9498 -21.92,12.374 18.385,7.4246 12.728,-0.70711 22.274,-14.142 z" /><path
             inkscape:connector-curvature="0"
             id="path4353"
             sodipodi:nodetypes="csssc"
             style="fill:url(#linearGradient4454)"
             d="m 335.29,232.83 c 0,15.691 -7.772,28.412 -18.366,28.412 -10.594,0 -19.997,-12.72 -19.997,-28.412 0,-15.691 5.6334,-28.412 17.958,-28.412 10.594,0 20.405,12.72 20.405,28.412 z" /><path
             inkscape:connector-curvature="0"
             id="path4355"
             sodipodi:nodetypes="csssc"
             style="fill:url(#linearGradient4456)"
             d="m 337.61,310.49 c 0,15.377 -7.6165,27.843 -17.998,27.843 -10.3815,0 -19.597,-12.466 -19.597,-27.843 0,-15.377 5.5207,-27.843 17.598,-27.843 10.382,0 19.997,12.466 19.997,27.843 z" /><path
             inkscape:connector-curvature="0"
             id="path4357"
             sodipodi:nodetypes="csssc"
             style="fill:url(#linearGradient4458)"
             d="m 224.16,98.558 c 0,14.768 -7.3149,26.741 -17.286,26.741 -9.9706,0 -18.821,-11.972 -18.821,-26.741 0,-14.768 5.3021,-26.741 16.902,-26.741 9.9706,0 19.205,11.972 19.205,26.741 z" /><path
             inkscape:connector-curvature="0"
             id="path4359"
             sodipodi:nodetypes="csssc"
             style="fill:url(#linearGradient4460)"
             d="m 231.8,178.56 c 0,14.473 -7.1686,26.206 -16.94,26.206 -9.7712,0 -18.445,-11.733 -18.445,-26.206 0,-14.473 5.196,-26.206 16.564,-26.206 9.7712,0 18.821,11.733 18.821,26.206 z" /><path
             inkscape:connector-curvature="0"
             id="path4361"
             sodipodi:nodetypes="csssc"
             style="fill:url(#linearGradient4462)"
             d="m 238.45,253.56 c 0,14.184 -7.0252,25.682 -16.601,25.682 -9.5758,0 -18.076,-11.498 -18.076,-25.682 0,-14.184 5.0921,-25.682 16.232,-25.682 9.5758,0 18.445,11.498 18.445,25.682 z" /><g
             id="g4383"
             transform="matrix(-0.94857,0,0,0.94857,1096.1,-308.81)"><path
               inkscape:connector-curvature="0"
               id="path4371"
               sodipodi:nodetypes="csssc"
               style="fill:url(#linearGradient4464)"
               d="m 707.68,490.56 c 0,16.012 -7.9306,28.991 -18.74,28.991 -10.81,0 -20.405,-12.98 -20.405,-28.991 0,-16.012 5.7484,-28.991 18.324,-28.991 10.81,0 20.822,12.98 20.822,28.991 z" /><path
               inkscape:connector-curvature="0"
               id="path4375"
               sodipodi:nodetypes="csssc"
               style="fill:url(#linearGradient4466)"
               d="m 711.61,656.49 c 0,15.377 -7.6165,27.843 -17.998,27.843 -10.3815,0 -19.597,-12.466 -19.597,-27.843 0,-15.377 5.5207,-27.843 17.598,-27.843 10.382,0 19.997,12.466 19.997,27.843 z" /><path
               inkscape:connector-curvature="0"
               id="path4377"
               sodipodi:nodetypes="csssc"
               style="fill:url(#linearGradient4468)"
               d="m 579.51,432.12 c 0,14.768 -7.3149,26.741 -17.286,26.741 -9.9706,0 -18.821,-11.972 -18.821,-26.741 0,-14.768 5.3021,-26.741 16.902,-26.741 9.9706,0 19.205,11.972 19.205,26.741 z" /><path
               inkscape:connector-curvature="0"
               id="path4381"
               sodipodi:nodetypes="csssc"
               style="fill:url(#linearGradient4470)"
               d="m 598.01,591.34 c 0,14.184 -7.0252,25.682 -16.601,25.682 -9.5758,0 -18.076,-11.498 -18.076,-25.682 0,-14.184 5.0921,-25.682 16.232,-25.682 9.5758,0 18.445,11.498 18.445,25.682 z" /><path
               inkscape:connector-curvature="0"
               id="path4521"
               sodipodi:nodetypes="csssc"
               style="opacity:0.25;fill:#ffffff"
               d="m 702.64,494.01 c 0,15.691 -7.772,28.412 -18.366,28.412 -10.594,0 -19.997,-12.72 -19.997,-28.412 0,-15.691 5.6334,-28.412 17.958,-28.412 10.594,0 20.405,12.72 20.405,28.412 z" /><path
               inkscape:connector-curvature="0"
               id="path4525"
               sodipodi:nodetypes="csssc"
               style="opacity:0.25;fill:#ffffff"
               d="m 705.24,657.27 c 0,15.377 -7.6165,27.843 -17.998,27.843 -10.3815,0 -19.597,-12.466 -19.597,-27.843 0,-15.377 5.5207,-27.843 17.598,-27.843 10.382,0 19.997,12.466 19.997,27.843 z" /><path
               inkscape:connector-curvature="0"
               id="path4527"
               sodipodi:nodetypes="csssc"
               style="opacity:0.25;fill:#ffffff"
               d="m 592.19,594.21 c 0,14.473 -7.1686,26.206 -16.94,26.206 -9.7712,0 -18.445,-11.733 -18.445,-26.206 0,-14.473 5.196,-26.206 16.564,-26.206 9.7712,0 18.821,11.733 18.821,26.206 z" /><path
               inkscape:connector-curvature="0"
               id="path4529"
               sodipodi:nodetypes="csssc"
               style="opacity:0.25;fill:#ffffff"
               d="m 573.66,434.97 c 0,15.07 -7.4642,27.286 -17.638,27.286 -10.1738,0 -19.205,-12.217 -19.205,-27.286 0,-15.07 5.4103,-27.286 17.247,-27.286 10.174,0 19.597,12.217 19.597,27.286 z" /></g><path
             id="path4395"
             sodipodi:rx="47"
             sodipodi:ry="21"
             style="fill:url(#linearGradient4472)"
             sodipodi:type="arc"
             d="m 421,-202.63782 c 0,11.59798 -21.04262,21 -47,21 -25.95738,0 -47,-9.40202 -47,-21 0,-11.59798 21.04262,-21 47,-21 25.95738,0 47,9.40202 47,21 z"
             transform="matrix(0.72036,0,0,0.57143,114.73,141.16)"
             sodipodi:cy="-202.63782"
             sodipodi:cx="374" /><path
             inkscape:connector-curvature="0"
             id="path4409"
             style="fill:url(#linearGradient4474)"
             sodipodi:nodetypes="csssc"
             transform="matrix(0.68047,0,0,0.37049,129.09,103.3)"
             d="m 421,-202.64 c 0,11.598 -21.043,24.817 -47,24.817 -25.957,0 -47,-13.219 -47,-24.817 0,-11.598 21.043,-21 47,-21 25.957,0 47,9.402 47,21 z" /><path
             inkscape:connector-curvature="0"
             id="path4348"
             sodipodi:nodetypes="csssc"
             style="fill:url(#linearGradient4476)"
             d="m 333.68,144.56 c 0,16.012 -7.9306,28.991 -18.74,28.991 -10.81,0 -20.405,-12.98 -20.405,-28.991 0,-16.012 5.7484,-28.991 18.324,-28.991 10.81,0 20.822,12.98 20.822,28.991 z" /><path
             inkscape:connector-curvature="0"
             id="path4489"
             sodipodi:nodetypes="csssc"
             style="opacity:0.25;fill:#ffffff"
             d="m 333.3,145.44 c 2.9121,13.241 -1.2855,25.417 -10.225,27.383 -8.9393,1.966 -19.235,-7.0226 -22.147,-20.264 -2.9121,-13.241 -0.51914,-25.02 9.8806,-27.307 8.9393,-1.966 19.579,6.9469 22.491,20.188 z" /><path
             inkscape:connector-curvature="0"
             id="path4491"
             sodipodi:nodetypes="csssc"
             style="opacity:0.25;fill:#ffffff"
             d="m 335.47,233.01 c 2.8539,12.976 -1.2598,24.909 -10.02,26.836 -8.7605,1.9267 -18.85,-6.8822 -21.704,-19.858 -2.8539,-12.976 -0.50876,-24.52 9.6829,-26.761 8.7605,-1.9267 19.188,6.808 22.042,19.784 z" /><path
             inkscape:connector-curvature="0"
             id="path4493"
             sodipodi:nodetypes="csssc"
             style="opacity:0.25;fill:#ffffff"
             d="m 337.15,310.08 c 2.7968,12.717 -1.2346,24.411 -9.8199,26.299 -8.5853,1.8882 -18.473,-6.7446 -21.27,-19.461 -2.7968,-12.717 -0.49858,-24.029 9.4893,-26.226 8.5853,-1.8882 18.804,6.6718 21.601,19.388 z" /><path
             inkscape:connector-curvature="0"
             id="path4495"
             sodipodi:nodetypes="csssc"
             style="opacity:0.25;fill:#ffffff"
             d="m 226.65,99.791 c 2.7968,12.717 -1.2346,24.411 -9.8199,26.299 -8.5853,1.8882 -18.473,-6.7446 -21.27,-19.461 -2.7968,-12.717 -0.49858,-24.029 9.4893,-26.226 8.5853,-1.8882 18.804,6.6718 21.601,19.388 z" /><path
             inkscape:connector-curvature="0"
             id="path4497"
             sodipodi:nodetypes="csssc"
             style="opacity:0.25;fill:#ffffff"
             d="m 234.34,177.86 c 2.7408,12.462 -1.2099,23.922 -9.6235,25.773 -8.4136,1.8504 -18.104,-6.6097 -20.845,-19.072 -2.7408,-12.462 -0.48861,-23.549 9.2995,-25.702 8.4136,-1.8504 18.428,6.5384 21.169,19.001 z" /><path
             inkscape:connector-curvature="0"
             id="path4499"
             sodipodi:nodetypes="csssc"
             style="opacity:0.25;fill:#ffffff"
             d="m 241.03,253.93 c 2.686,12.213 -1.1857,23.444 -9.431,25.257 -8.2453,1.8134 -17.742,-6.4775 -20.428,-18.69 -2.686,-12.213 -0.47884,-23.078 9.1135,-25.188 8.2453,-1.8134 18.059,6.4076 20.745,18.621 z" /></g><g
           id="layer3"
           inkscape:label="marco"
           transform="translate(-57.323122,30.844)"><path
             inkscape:connector-curvature="0"
             id="path2433"
             sodipodi:nodetypes="csssssssssssssc"
             style="fill:none;stroke:#888a85;stroke-width:8.03190327;stroke-miterlimit:4;stroke-dasharray:none"
             d="m 372.59338,411.44662 c -2.25973,-0.70698 -6.61143,-2.7174 -9.67052,-4.46758 C 354.50201,402.16111 212.41318,299.14552 207.03642,293.96751 201.28566,288.4199 198.79974,282.21118 196.80963,268.42538 196.00728,262.86743 189.7118,214.93797 182.8201,161.91369 168.53838,52.032825 168.47875,51.178108 174.28287,39.033171 c 5.3072,-11.098405 16.826,-20.336309 30.03436,-24.073212 13.26103,-3.752706 184.32068,-40.382412 188.58432,-40.382412 4.66387,0 168.3991,35.915023 181.09064,39.721496 15.06688,4.519269 27.22274,16.115398 31.21903,29.779942 0.86818,2.96895 1.57855,8.984669 1.57855,13.368375 0,11.105361 -21.58756,220.58663 -23.3775,226.84794 -2.89878,10.1443 -4.05503,10.99803 -90.20741,66.56558 -88.88359,57.32967 -88.97702,57.38731 -96.79569,60.07768 -6.50131,2.23678 -17.52666,2.47173 -23.80585,0.50739 z" /></g></g></g></g></svg>