<?xml version="1.0" encoding="UTF-8" standalone="no"?>
<svg
   xmlns:osb="http://www.openswatchbook.org/uri/2009/osb"
   xmlns:dc="http://purl.org/dc/elements/1.1/"
   xmlns:cc="http://creativecommons.org/ns#"
   xmlns:rdf="http://www.w3.org/1999/02/22-rdf-syntax-ns#"
   xmlns:svg="http://www.w3.org/2000/svg"
   xmlns="http://www.w3.org/2000/svg"
   xmlns:xlink="http://www.w3.org/1999/xlink"
   xmlns:sodipodi="http://sodipodi.sourceforge.net/DTD/sodipodi-0.dtd"
   xmlns:inkscape="http://www.inkscape.org/namespaces/inkscape"
   version="1.1"
   id="svg2"
   viewBox="0 0 160.70683 155.71944"
   height="155.71944"
   width="160.70682"
   inkscape:version="0.48.4 r9939"
   sodipodi:docname="dominó.svg">
  <sodipodi:namedview
     pagecolor="#ffffff"
     bordercolor="#666666"
     borderopacity="1"
     objecttolerance="10"
     gridtolerance="10"
     guidetolerance="10"
     inkscape:pageopacity="0"
     inkscape:pageshadow="2"
     inkscape:window-width="1600"
     inkscape:window-height="876"
     id="namedview1313"
     showgrid="false"
     fit-margin-top="0"
     fit-margin-left="0"
     fit-margin-right="0"
     fit-margin-bottom="0"
     inkscape:zoom="4.2249123"
     inkscape:cx="35.269194"
     inkscape:cy="77.870446"
     inkscape:window-x="0"
     inkscape:window-y="1"
     inkscape:window-maximized="1"
     inkscape:current-layer="svg2" />
  <script
     xlink:href="C:\wamp\www\bingo\js/snap.svg-min.js"
     id="script4164" />
  <title
     id="title4162">Bingo das Letras</title>
  <defs
     id="defs4">
    <linearGradient
       osb:paint="solid"
       id="linearGradient12614">
      <stop
         id="stop12616"
         offset="0"
         style="stop-color:#000000;stop-opacity:1;" />
    </linearGradient>
    <linearGradient
       gradientTransform="matrix(-0.19399818,0,0,-0.19399818,259.22818,12173.784)"
       osb:paint="solid"
       id="linearGradient59274">
      <stop
         id="stop59276"
         offset="0"
         style="stop-color:#930033;stop-opacity:1;" />
    </linearGradient>
    <linearGradient
       id="linearGradient4269"
       osb:paint="solid"
       gradientTransform="matrix(110.20782,22.122239,-29.697412,82.096171,6266664.8,4267076.7)">
      <stop
         style="stop-color:#ffffff;stop-opacity:1;"
         offset="0"
         id="stop4271" />
    </linearGradient>
    <linearGradient
       id="linearGradient4251"
       osb:paint="solid"
       gradientTransform="translate(106155.96,125143.42)">
      <stop
         style="stop-color:#555555;stop-opacity:1;"
         offset="0"
         id="stop4253" />
    </linearGradient>
    <linearGradient
       id="linearGradient4241"
       osb:paint="solid"
       gradientTransform="matrix(0.19125385,0,0,0.19125385,-1659.2305,-47760.968)">
      <stop
         style="stop-color:#3fb5ae;stop-opacity:1;"
         offset="0"
         id="stop4243" />
    </linearGradient>
    <linearGradient
       id="linearGradient4231"
       osb:paint="solid"
       gradientTransform="translate(2399.1562,2075.6965)">
      <stop
         style="stop-color:#d1f2a5;stop-opacity:1;"
         offset="0"
         id="stop4233" />
    </linearGradient>
    <linearGradient
       id="linearGradient4221"
       osb:paint="solid"
       gradientTransform="matrix(0.66768435,0,0,0.66768435,-186.89148,394.64653)">
      <stop
         style="stop-color:#effab4;stop-opacity:1;"
         offset="0"
         id="stop4223" />
    </linearGradient>
    <linearGradient
       id="linearGradient4211"
       osb:paint="solid"
       gradientTransform="translate(-699.20463,883.12976)">
      <stop
         style="stop-color:#ffc48c;stop-opacity:1;"
         offset="0"
         id="stop4213" />
    </linearGradient>
    <linearGradient
       id="linearGradient4201"
       osb:paint="solid"
       gradientTransform="matrix(0.35946858,0,0,0.22423084,-331.07911,5516.4706)">
      <stop
         style="stop-color:#ff9f80;stop-opacity:1;"
         offset="0"
         id="stop4203" />
    </linearGradient>
    <linearGradient
       id="linearGradient4191"
       osb:paint="solid"
       gradientTransform="matrix(0.52321996,0,0,0.52321996,2015.4535,3072.5352)">
      <stop
         style="stop-color:#f56991;stop-opacity:1;"
         offset="0"
         id="stop4193" />
    </linearGradient>
    <style
       id="style6"
       type="text/css">
    .str0 {stroke:#006633;stroke-width:282.22}
    .str1 {stroke:#AB754F;stroke-width:282.22}
    .fil2 {fill:none}
    .fil3 {fill:#606062}
    .fil5 {fill:#CE8F64}
    .fil4 {fill:#006633}
    .fil8 {fill:#009933}
    .fil9 {fill:#00B33C}
    .fil10 {fill:#00C943}
    .fil0 {fill:#00D447}
    .fil1 {fill:#00DB49}
    .fil6 {fill:#B88059}
    .fil11 {fill:#BA8058}
    .fil12 {fill:#D49264}
    .fil7 {fill:#E49C6D}
  </style>
    <style
       id="style13042"
       type="text/css">
   
    .fil4 {fill:url(#id0)}
    .fil9 {fill:url(#id1)}
    .fil6 {fill:url(#id2)}
    .fil1 {fill:url(#id3)}
    .fil5 {fill:url(#id4)}
    .fil0 {fill:url(#id5)}
    .fil8 {fill:url(#id6)}
    .fil3 {fill:url(#id7)}
    .fil7 {fill:url(#id8)}
    .fil2 {fill:url(#id9)}
   
  </style>
    <filter
       inkscape:collect="always"
       id="filter3927"
       color-interpolation-filters="sRGB">
      <feGaussianBlur
         inkscape:collect="always"
         stdDeviation="2.4649068"
         id="feGaussianBlur3929" />
    </filter>
  </defs>
  <metadata
     id="metadata7">
    <rdf:RDF>
      <cc:Work
         rdf:about="">
        <dc:format>image/svg+xml</dc:format>
        <dc:type
           rdf:resource="http://purl.org/dc/dcmitype/StillImage" />
        <dc:title>Bingo das Letras</dc:title>
        <cc:license
           rdf:resource="" />
        <dc:rights>
          <cc:Agent>
            <dc:title>Copyright © 2002-2016. Portal Clickideia ® - Todos os Direitos Reservados</dc:title>
          </cc:Agent>
        </dc:rights>
        <dc:description>SVG game with snapSVG lib and other javascripts included</dc:description>
        <dc:language>pt_BR</dc:language>
        <dc:subject>
          <rdf:Bag>
            <rdf:li>Educativo</rdf:li>
            <rdf:li>ensino fundamental</rdf:li>
            <rdf:li>clickiéia</rdf:li>
            <rdf:li>letras</rdf:li>
            <rdf:li>lingua portuguesa</rdf:li>
            <rdf:li>infantil</rdf:li>
            <rdf:li>educational game</rdf:li>
            <rdf:li>game design</rdf:li>
            <rdf:li>multimidia</rdf:li>
          </rdf:Bag>
        </dc:subject>
        <dc:creator>
          <cc:Agent>
            <dc:title>http://www.clickideia.com.br/</dc:title>
          </cc:Agent>
        </dc:creator>
        <dc:publisher>
          <cc:Agent>
            <dc:title>http://www.clickideia.com.br/</dc:title>
          </cc:Agent>
        </dc:publisher>
        <dc:date>18/01/2016</dc:date>
        <dc:contributor>
          <cc:Agent>
            <dc:title>michel morandi - michel.morandi@clickideia.com.br</dc:title>
          </cc:Agent>
        </dc:contributor>
      </cc:Work>
    </rdf:RDF>
  </metadata>
  <g
     id="g3935"
     transform="matrix(1.1964041,0,0,1.1964041,9.8112029,43.054888)">
    <g
       id="g3931">
      <path
         id="path3925"
         transform="translate(0,-2.0834609e-6)"
         d="m 82.375,-28.40625 c -1.33679,0.06264 -2.676562,0.558192 -3.75,1.53125 L 1.34375,43.1875 c -2.4535752,2.224133 -2.6303814,5.983926 -0.40625,8.4375 l 29.90625,33 c 2.224132,2.453573 5.983925,2.630384 8.4375,0.40625 l 77.28125,-70.0625 c 2.45357,-2.224132 2.66163,-5.9839266 0.4375,-8.4375 l -29.90625,-33 c -1.251074,-1.380135 -3.000019,-2.018042 -4.71875,-1.9375 z"
         style="fill:#808080;fill-rule:evenodd;stroke:#808080;stroke-width:3.34335256;stroke-linejoin:round;stroke-miterlimit:4;stroke-dasharray:none;filter:url(#filter3927)"
         inkscape:connector-curvature="0" />
      <path
         style="fill:#ffffff;fill-rule:evenodd;stroke:#ffffff;stroke-width:3.34335256;stroke-linejoin:round;stroke-miterlimit:4;stroke-dasharray:none"
         d="m 82.375,-28.40625 c -1.33679,0.06264 -2.676562,0.558192 -3.75,1.53125 L 1.34375,43.1875 c -2.4535752,2.224133 -2.6303814,5.983926 -0.40625,8.4375 l 29.90625,33 c 2.224132,2.453573 5.983925,2.630384 8.4375,0.40625 l 77.28125,-70.0625 c 2.45357,-2.224132 2.66163,-5.9839266 0.4375,-8.4375 l -29.90625,-33 c -1.251074,-1.380135 -3.000019,-2.018042 -4.71875,-1.9375 z"
         transform="translate(0,-2.0834609e-6)"
         id="path3104"
         inkscape:connector-curvature="0" />
    </g>
    <g
       style="stroke-width:1.82602143;stroke-miterlimit:4;stroke-dasharray:none"
       transform="matrix(0.08029356,0.08857667,-0.08857667,0.08029356,83.182314,-33.209671)"
       id="g12702">
      <g
         style="stroke-width:1.82602143;stroke-miterlimit:4;stroke-dasharray:none"
         id="layer1-8"
         inkscape:label="Domino"
         transform="translate(0,-52.362)">
        <path
           inkscape:connector-curvature="0"
           id="rect1872"
           d="m 63.759,66.121002 372.48001,0 c 27.7,0 50,22.3 50,49.999998 l 0,872.47998 c 0,27.70002 -22.3,50.00002 -50,50.00002 l -372.48001,0 c -27.7,0 -50,-22.3 -50,-50.00002 l 0,-872.47998 c 0,-27.699998 22.3,-49.999998 50,-49.999998 z"
           style="fill:#ffffff;fill-rule:evenodd;stroke:#000000;stroke-width:11.69917488;stroke-linejoin:round;stroke-miterlimit:4;stroke-dasharray:none" />
        <path
           inkscape:connector-curvature="0"
           id="path15666"
           style="fill:none;stroke:#000000;stroke-width:8.40784645;stroke-miterlimit:4;stroke-dasharray:none"
           d="M 45,552.36 H 455" />
      </g>
      <g
         style="stroke-width:1.82602143;stroke-miterlimit:4;stroke-dasharray:none"
         id="layer2-7"
         inkscape:label="Pips"
         transform="translate(0,-52.362)">
        <path
           inkscape:connector-curvature="0"
           id="circle290"
           d="m 160,456 c 0,27.61424 -22.38576,50 -50,50 -27.614237,0 -50,-22.38576 -50,-50 0,-27.61424 22.385763,-50 50,-50 27.61424,0 50,22.38576 50,50 z"
           style="fill:#000000;stroke-width:1.82602143;stroke-miterlimit:4;stroke-dasharray:none" />
        <path
           inkscape:connector-curvature="0"
           id="circle292"
           d="m 160,168 c 0,27.61424 -22.38576,50 -50,50 -27.614237,0 -50,-22.38576 -50,-50 0,-27.61424 22.385763,-50 50,-50 27.61424,0 50,22.38576 50,50 z"
           style="fill:#000000;stroke-width:1.82602143;stroke-miterlimit:4;stroke-dasharray:none" />
        <path
           inkscape:connector-curvature="0"
           id="circle294"
           d="m 440,456 c 0,27.61424 -22.38576,50 -50,50 -27.61424,0 -50,-22.38576 -50,-50 0,-27.61424 22.38576,-50 50,-50 27.61424,0 50,22.38576 50,50 z"
           style="fill:#000000;stroke-width:1.82602143;stroke-miterlimit:4;stroke-dasharray:none" />
        <path
           inkscape:connector-curvature="0"
           id="circle296"
           d="m 440,168 c 0,27.61424 -22.38576,50 -50,50 -27.61424,0 -50,-22.38576 -50,-50 0,-27.61424 22.38576,-50 50,-50 27.61424,0 50,22.38576 50,50 z"
           style="fill:#000000;stroke-width:1.82602143;stroke-miterlimit:4;stroke-dasharray:none" />
        <path
           inkscape:connector-curvature="0"
           id="circle298"
           d="m 160,936 c 0,27.61424 -22.38576,50 -50,50 -27.614237,0 -50,-22.38576 -50,-50 0,-27.61424 22.385763,-50 50,-50 27.61424,0 50,22.38576 50,50 z"
           style="fill:#000000;stroke-width:1.82602143;stroke-miterlimit:4;stroke-dasharray:none" />
        <path
           inkscape:connector-curvature="0"
           id="circle300"
           d="m 160,792 c 0,27.61424 -22.38576,50 -50,50 -27.614237,0 -50,-22.38576 -50,-50 0,-27.61424 22.385763,-50 50,-50 27.61424,0 50,22.38576 50,50 z"
           style="fill:#000000;stroke-width:1.82602143;stroke-miterlimit:4;stroke-dasharray:none" />
        <path
           inkscape:connector-curvature="0"
           id="circle302"
           d="m 160,648 c 0,27.61424 -22.38576,50 -50,50 -27.614237,0 -50,-22.38576 -50,-50 0,-27.61424 22.385763,-50 50,-50 27.61424,0 50,22.38576 50,50 z"
           style="fill:#000000;stroke-width:1.82602143;stroke-miterlimit:4;stroke-dasharray:none" />
        <path
           inkscape:connector-curvature="0"
           id="circle304"
           d="m 440,936 c 0,27.61424 -22.38576,50 -50,50 -27.61424,0 -50,-22.38576 -50,-50 0,-27.61424 22.38576,-50 50,-50 27.61424,0 50,22.38576 50,50 z"
           style="fill:#000000;stroke-width:1.82602143;stroke-miterlimit:4;stroke-dasharray:none" />
        <path
           inkscape:connector-curvature="0"
           id="circle306"
           d="m 440,792 c 0,27.61424 -22.38576,50 -50,50 -27.61424,0 -50,-22.38576 -50,-50 0,-27.61424 22.38576,-50 50,-50 27.61424,0 50,22.38576 50,50 z"
           style="fill:#000000;stroke-width:1.82602143;stroke-miterlimit:4;stroke-dasharray:none" />
        <path
           inkscape:connector-curvature="0"
           id="circle308"
           d="m 440,648 c 0,27.61424 -22.38576,50 -50,50 -27.61424,0 -50,-22.38576 -50,-50 0,-27.61424 22.38576,-50 50,-50 27.61424,0 50,22.38576 50,50 z"
           style="fill:#000000;stroke-width:1.82602143;stroke-miterlimit:4;stroke-dasharray:none" />
      </g>
    </g>
  </g>
</svg>
