<?xml version="1.0" encoding="UTF-8" standalone="no"?>
<svg
   xmlns:osb="http://www.openswatchbook.org/uri/2009/osb"
   xmlns:dc="http://purl.org/dc/elements/1.1/"
   xmlns:cc="http://creativecommons.org/ns#"
   xmlns:rdf="http://www.w3.org/1999/02/22-rdf-syntax-ns#"
   xmlns:svg="http://www.w3.org/2000/svg"
   xmlns="http://www.w3.org/2000/svg"
   xmlns:xlink="http://www.w3.org/1999/xlink"
   xmlns:sodipodi="http://sodipodi.sourceforge.net/DTD/sodipodi-0.dtd"
   xmlns:inkscape="http://www.inkscape.org/namespaces/inkscape"
   version="1.1"
   id="svg2"
   viewBox="0 0 88.270591 113.05062"
   height="113.05063"
   width="88.270576"
   inkscape:version="0.48.4 r9939"
   sodipodi:docname="formiga.svg">
  <sodipodi:namedview
     pagecolor="#ffffff"
     bordercolor="#666666"
     borderopacity="1"
     objecttolerance="10"
     gridtolerance="10"
     guidetolerance="10"
     inkscape:pageopacity="0"
     inkscape:pageshadow="2"
     inkscape:window-width="1360"
     inkscape:window-height="744"
     id="namedview1313"
     showgrid="false"
     fit-margin-top="0"
     fit-margin-left="0"
     fit-margin-right="0"
     fit-margin-bottom="0"
     inkscape:zoom="1.758544"
     inkscape:cx="-12.212634"
     inkscape:cy="71.872486"
     inkscape:window-x="0"
     inkscape:window-y="1"
     inkscape:window-maximized="1"
     inkscape:current-layer="svg2" />
  <script
     xlink:href="C:\wamp\www\bingo\js/snap.svg-min.js"
     id="script4164" />
  <title
     id="title4162">Bingo das Letras</title>
  <defs
     id="defs4">
    <linearGradient
       osb:paint="solid"
       id="linearGradient12614">
      <stop
         id="stop12616"
         offset="0"
         style="stop-color:#000000;stop-opacity:1;" />
    </linearGradient>
    <linearGradient
       gradientTransform="matrix(-0.19399818,0,0,-0.19399818,259.22818,12173.784)"
       osb:paint="solid"
       id="linearGradient59274">
      <stop
         id="stop59276"
         offset="0"
         style="stop-color:#930033;stop-opacity:1;" />
    </linearGradient>
    <linearGradient
       id="linearGradient4269"
       osb:paint="solid"
       gradientTransform="matrix(110.20782,22.122239,-29.697412,82.096171,6266573.9,4264559.4)">
      <stop
         style="stop-color:#ffffff;stop-opacity:1;"
         offset="0"
         id="stop4271" />
    </linearGradient>
    <linearGradient
       id="linearGradient4251"
       osb:paint="solid"
       gradientTransform="translate(106155.96,125143.42)">
      <stop
         style="stop-color:#555555;stop-opacity:1;"
         offset="0"
         id="stop4253" />
    </linearGradient>
    <linearGradient
       id="linearGradient4241"
       osb:paint="solid"
       gradientTransform="matrix(0.19125385,0,0,0.19125385,-1749.4195,-50278.466)">
      <stop
         style="stop-color:#3fb5ae;stop-opacity:1;"
         offset="0"
         id="stop4243" />
    </linearGradient>
    <linearGradient
       id="linearGradient4231"
       osb:paint="solid"
       gradientTransform="translate(2399.1562,2075.6965)">
      <stop
         style="stop-color:#d1f2a5;stop-opacity:1;"
         offset="0"
         id="stop4233" />
    </linearGradient>
    <linearGradient
       id="linearGradient4221"
       osb:paint="solid"
       gradientTransform="matrix(0.66768435,0,0,0.66768435,-186.89148,394.64653)">
      <stop
         style="stop-color:#effab4;stop-opacity:1;"
         offset="0"
         id="stop4223" />
    </linearGradient>
    <linearGradient
       id="linearGradient4211"
       osb:paint="solid"
       gradientTransform="translate(-699.20463,883.12976)">
      <stop
         style="stop-color:#ffc48c;stop-opacity:1;"
         offset="0"
         id="stop4213" />
    </linearGradient>
    <linearGradient
       id="linearGradient4201"
       osb:paint="solid"
       gradientTransform="matrix(0.35946858,0,0,0.22423084,-331.07911,5516.4706)">
      <stop
         style="stop-color:#ff9f80;stop-opacity:1;"
         offset="0"
         id="stop4203" />
    </linearGradient>
    <linearGradient
       id="linearGradient4191"
       osb:paint="solid"
       gradientTransform="matrix(0.52321996,0,0,0.52321996,2015.4535,3072.5352)">
      <stop
         style="stop-color:#f56991;stop-opacity:1;"
         offset="0"
         id="stop4193" />
    </linearGradient>
    <style
       id="style6"
       type="text/css">
    .str0 {stroke:#006633;stroke-width:282.22}
    .str1 {stroke:#AB754F;stroke-width:282.22}
    .fil2 {fill:none}
    .fil3 {fill:#606062}
    .fil5 {fill:#CE8F64}
    .fil4 {fill:#006633}
    .fil8 {fill:#009933}
    .fil9 {fill:#00B33C}
    .fil10 {fill:#00C943}
    .fil0 {fill:#00D447}
    .fil1 {fill:#00DB49}
    .fil6 {fill:#B88059}
    .fil11 {fill:#BA8058}
    .fil12 {fill:#D49264}
    .fil7 {fill:#E49C6D}
  </style>
    <style
       id="style13042"
       type="text/css">
   
    .fil4 {fill:url(#id0)}
    .fil9 {fill:url(#id1)}
    .fil6 {fill:url(#id2)}
    .fil1 {fill:url(#id3)}
    .fil5 {fill:url(#id4)}
    .fil0 {fill:url(#id5)}
    .fil8 {fill:url(#id6)}
    .fil3 {fill:url(#id7)}
    .fil7 {fill:url(#id8)}
    .fil2 {fill:url(#id9)}
   
  </style>
    <filter
       inkscape:collect="always"
       id="filter23038"
       color-interpolation-filters="sRGB">
      <feGaussianBlur
         inkscape:collect="always"
         stdDeviation="2.1911149"
         id="feGaussianBlur23040" />
    </filter>
  </defs>
  <metadata
     id="metadata7">
    <rdf:RDF>
      <cc:Work
         rdf:about="">
        <dc:format>image/svg+xml</dc:format>
        <dc:type
           rdf:resource="http://purl.org/dc/dcmitype/StillImage" />
        <dc:title>Bingo das Letras</dc:title>
        <cc:license
           rdf:resource="" />
        <dc:rights>
          <cc:Agent>
            <dc:title>Copyright © 2002-2016. Portal Clickideia ® - Todos os Direitos Reservados</dc:title>
          </cc:Agent>
        </dc:rights>
        <dc:description>SVG game with snapSVG lib and other javascripts included</dc:description>
        <dc:language>pt_BR</dc:language>
        <dc:subject>
          <rdf:Bag>
            <rdf:li>Educativo</rdf:li>
            <rdf:li>ensino fundamental</rdf:li>
            <rdf:li>clickiéia</rdf:li>
            <rdf:li>letras</rdf:li>
            <rdf:li>lingua portuguesa</rdf:li>
            <rdf:li>infantil</rdf:li>
            <rdf:li>educational game</rdf:li>
            <rdf:li>game design</rdf:li>
            <rdf:li>multimidia</rdf:li>
          </rdf:Bag>
        </dc:subject>
        <dc:creator>
          <cc:Agent>
            <dc:title>http://www.clickideia.com.br/</dc:title>
          </cc:Agent>
        </dc:creator>
        <dc:publisher>
          <cc:Agent>
            <dc:title>http://www.clickideia.com.br/</dc:title>
          </cc:Agent>
        </dc:publisher>
        <dc:date>18/01/2016</dc:date>
        <dc:contributor>
          <cc:Agent>
            <dc:title>michel morandi - michel.morandi@clickideia.com.br</dc:title>
          </cc:Agent>
        </dc:contributor>
      </cc:Work>
    </rdf:RDF>
  </metadata>
  <g
     id="g23057"
     transform="translate(-144.58287,15.246368)">
    <path
       transform="matrix(0.6742715,0,0,0.6742715,230.94576,463.45244)"
       id="path23024"
       style="fill:#1a1a1a;fill-opacity:1;fill-rule:nonzero;stroke:none;filter:url(#filter23038)"
       d="m -97.242118,-624.9273 c 1.094485,-0.958 2.049884,-1.93116 2.892629,-2.78994 0.848378,-0.86441 2.114011,-2.15387 2.683785,-2.42727 0.05156,0.008 0.137785,0.026 0.263006,0.0637 0.996128,0.3007 2.919493,1.29856 4.617114,2.17857 0.274705,0.14255 0.553742,0.28684 0.834946,0.43242 -1.410352,0.643 -2.79644,1.41035 -4.146564,2.29729 -0.09012,-4.3e-4 -0.180248,-8.6e-4 -0.269939,-8.6e-4 -1.928564,0 -4.565986,0.11698 -7.285301,0.59707 0.136486,-0.11396 0.272972,-0.23051 0.410324,-0.35097 z m 52.123656,13.6321 c 0.930702,0.3267 1.851005,0.62567 2.732312,0.91251 1.240937,0.40339 2.751811,0.8943 3.546461,1.25653 0.05243,0.58408 0.0364,1.54901 0.0234,2.29773 -0.0052,0.34793 -0.0117,0.71189 -0.0143,1.08972 -1.71452,-1.26434 -3.4884,-2.35449 -5.120595,-3.21586 -0.353996,-0.79465 -0.743089,-1.57457 -1.167277,-2.34063 z m 37.2722827,-78.41945 c -0.9883294,-0.16725 -1.9961569,-0.25174 -2.9961847,-0.25174 -5.138794,0 -10.212161,2.17987 -14.908567,6.36239 -4.927782,-3.12444 -10.606885,-4.75056 -16.719276,-4.75056 l -0.352697,0.002 c -1.48401,0.0156 -2.942457,0.0858 -4.368841,0.21058 0.54811,-2.80554 1.491377,-5.63318 2.275195,-7.44562 1.123082,-2.56766 0.473583,-5.56602 -1.610964,-7.43869 -1.222738,-1.09838 -2.777375,-1.66469 -4.345444,-1.66469 -1.104884,0 -2.2167,0.28164 -3.222361,0.85661 -8.187406,4.67821 -10.200028,13.82838 -10.417539,20.82598 -5.882748,3.42557 -10.207827,8.39668 -12.378599,14.3232 -2.387416,6.51838 -2.096679,13.97136 0.772552,21.33682 -4.069005,-1.65516 -8.681787,-2.87746 -12.71483,-2.87746 -1.927698,0 -3.659116,0.29203 -5.146593,0.86917 -9.903662,3.8437 -15.719682,8.6103 -17.780402,14.5732 -1.44761,4.19033 -1.25696,7.61287 0.56761,10.17447 1.25914,1.76651 3.15087,2.87486 5.28741,3.12703 -0.38779,0.27471 -0.75738,0.56978 -1.10358,0.88521 -7.85031,7.15878 -11.55405,13.70273 -11.32441,20.00707 0.18415,5.04563 1.96193,7.68046 3.85236,9.05311 -2.35275,1.97493 -4.43947,4.35584 -5.4226,7.06129 -3.63047,9.98425 -3.87389,17.50006 -0.74387,22.97595 2.39297,4.1886 5.35189,6.31214 8.79393,6.31214 0.77212,0 7.07472,-0.25607 8.05655,-8.47554 1.83844,1.95413 4.010946,3.56162 6.485886,4.77483 4.541723,2.22667 9.408411,3.35538 14.465313,3.35538 9.13154,0 18.373569,-3.68771 26.036697,-10.26502 0.527311,0.37349 1.002628,0.72662 1.324128,1.00263 -0.112655,0.57584 -0.397325,1.49787 -0.618735,2.21323 -0.301569,0.97707 -0.643433,2.08368 -0.922037,3.30642 -0.3176,1.39605 -1.285565,5.64574 1.347092,8.94523 1.412518,1.76998 3.528263,2.78509 5.80519,2.78509 2.649555,0 5.23325,-1.35004 7.67916,-4.0126 3.682513,-4.00878 4.997541,-10.20956 4.012245,-18.94074 2.183337,-0.57887 4.207224,-2.12614 6.037432,-4.62188 3.151302,-4.29822 3.815966,-10.434 2.022154,-18.73147 2.328922,-0.18414 5.374069,-1.49744 7.740687,-6.274 2.484472,-5.01444 1.920331,-11.55492 -1.726652,-19.99493 -1.025592,-2.37442 -3.138304,-4.55646 -5.743663,-6.41353 5.205953,-1.9264 9.781472,-5.08463 13.269439,-9.27019 4.420402,-5.30431 6.7016619,-12.3851 6.422625,-19.93774 -0.200613,-5.4317 -1.701088,-10.8348 -4.296482,-15.62306 2.498337,-2.55943 6.1769506,-4.96418 8.4833416,-6.15269 2.4957377,-1.2743 3.8939575,-4.00488 3.4684688,-6.77445 -0.4250553,-2.77001 -2.5780624,-4.95551 -5.3411387,-5.42216"
       inkscape:connector-curvature="0" />
    <path
       inkscape:connector-curvature="0"
       d="m 165.37817,42.081772 c 0.73798,-0.645952 1.38218,-1.302126 1.95042,-1.881177 0.57204,-0.582847 1.42542,-1.452293 1.8096,-1.636639 0.0348,0.0054 0.0929,0.01753 0.17734,0.04295 0.67166,0.202754 1.96853,0.875582 3.11318,1.468948 0.18523,0.09612 0.37338,0.193408 0.56298,0.291568 -0.95096,0.433557 -1.88556,0.950959 -2.79591,1.548997 -0.0608,-2.89e-4 -0.12153,-5.79e-4 -0.18201,-5.79e-4 -1.30037,0 -3.07871,0.07888 -4.91227,0.402587 0.092,-0.07684 0.18406,-0.155426 0.27667,-0.236649 z m 35.1455,9.191737 c 0.62754,0.220284 1.24808,0.421871 1.84232,0.615279 0.83673,0.271994 1.85546,0.603001 2.39127,0.847242 0.0354,0.393829 0.0246,1.044454 0.0158,1.549294 -0.004,0.2346 -0.008,0.480007 -0.01,0.734767 -1.15605,-0.852508 -2.35213,-1.587565 -3.45267,-2.168362 -0.23869,-0.53581 -0.50104,-1.061688 -0.78706,-1.57822 z M 225.6553,-1.6024916 c -0.6664,-0.1127719 -1.34595,-0.1697411 -2.02024,-0.1697411 -3.46494,0 -6.88577,1.46982418 -10.05242,4.2899782 -3.32266,-2.10672083 -7.15192,-3.2031672 -11.27333,-3.2031672 l -0.23781,0.001349 c -1.00063,0.0105186 -1.98402,0.0578525 -2.94579,0.14198809 0.36958,-1.89169559 1.00559,-3.79829269 1.5341,-5.02036929 0.75726,-1.7313 0.31932,-3.7530087 -1.08623,-5.0156971 -0.82445,-0.740606 -1.8727,-1.122453 -2.93001,-1.122453 -0.74499,0 -1.49465,0.189902 -2.17274,0.577588 -5.52054,3.1543838 -6.87759,9.3240826 -7.02425,14.0423649 -3.96657,2.3097642 -6.88285,5.661642 -8.34654,9.6577251 -1.60976,4.395158 -1.41373,9.42049 0.52091,14.38681 -2.74361,-1.116028 -5.85388,-1.94019 -8.57325,-1.94019 -1.29979,0 -2.46723,0.196908 -3.4702,0.586057 -6.67775,2.591697 -10.59933,5.80568 -11.98882,9.826293 -0.97608,2.82542 -0.84753,5.133142 0.38273,6.860355 0.849,1.191108 2.12454,1.938437 3.56515,2.108468 -0.26148,0.185229 -0.51068,0.384186 -0.74411,0.596871 -5.29324,4.826962 -7.79057,9.239361 -7.63573,13.490198 0.12417,3.402124 1.32287,5.178715 2.59754,6.104254 -1.5864,1.331639 -2.99341,2.937018 -3.65631,4.761226 -2.44792,6.732095 -2.61205,11.799792 -0.50157,15.492029 1.61351,2.824253 3.60863,4.256096 5.9295,4.256096 0.52062,0 4.77028,-0.172661 5.4323,-5.714815 1.23961,1.317614 2.70447,2.401498 4.37325,3.219531 3.06235,1.50138 6.34382,2.262437 9.75354,2.262437 6.15714,0 12.38878,-2.486517 17.55581,-6.92141 0.35555,0.251834 0.67604,0.489939 0.89282,0.676045 -0.076,0.388272 -0.26791,1.009971 -0.4172,1.492318 -0.20334,0.65881 -0.43384,1.404966 -0.6217,2.229425 -0.21415,0.941316 -0.86682,3.806761 0.90831,6.031513 0.95242,1.193447 2.379,1.877907 3.91427,1.877907 1.78652,0 3.52863,-0.910294 5.17784,-2.705582 2.48301,-2.703006 3.3697,-6.884015 2.70534,-12.771201 1.47216,-0.390316 2.83681,-1.433596 4.07087,-3.116402 2.12483,-2.898167 2.573,-7.035349 1.36348,-12.630096 1.57033,-0.124161 3.62358,-1.009681 5.21933,-4.23038 1.6752,-3.381094 1.29482,-7.791153 -1.16424,-13.482011 -0.69152,-1.601004 -2.11607,-3.072291 -3.87278,-4.324461 3.51022,-1.298916 6.59536,-3.428421 8.9472,-6.250625 2.98055,-3.576545 4.51874,-8.35092 4.33059,-13.443449 -0.13526,-3.662441 -1.14699,-7.305597 -2.89699,-10.534185 1.68455,-1.7257497 4.16494,-3.3472041 5.72007,-4.1485826 1.68281,-0.8592241 2.62559,-2.7003764 2.33869,-4.5678185 -0.2866,-1.86773886 -1.73831,-3.3413592 -3.60138,-3.656008"
       style="fill:#ffffff;fill-opacity:1;fill-rule:nonzero;stroke:none"
       id="path22364" />
    <path
       inkscape:connector-curvature="0"
       d="m 196.77066,79.654479 c 2.27354,2.260394 0.67604,4.68498 -0.003,7.667283 -0.67896,2.982303 0.64654,3.2841 2.50025,1.266194 1.85342,-2.017905 2.02054,-5.813858 1.52475,-9.760558 -0.2381,-1.896955 -2.75442,-4.717116 -5.44486,-6.70201 -0.9051,1.47801 -1.96883,2.882976 -3.1614,4.179553 1.71436,1.245744 3.59524,2.366154 4.58418,3.349538"
       style="fill:#3e312b;fill-opacity:1;fill-rule:nonzero;stroke:none"
       id="path22400" />
    <path
       inkscape:connector-curvature="0"
       d="m 198.63139,62.348762 c 1.42717,0.761064 2.80087,1.4523 3.64052,2.120449 2.50873,1.996578 1.18761,4.58214 0.84111,7.621122 -0.34678,3.038982 1.00384,3.192945 2.62413,0.983391 1.62028,-2.20956 1.36874,-6.000834 0.44173,-9.868954 -0.55801,-2.328752 -4.82579,-5.701377 -8.31761,-7.142862 0.68101,2.047999 0.91503,4.168745 0.77012,6.286854"
       style="fill:#3e312b;fill-opacity:1;fill-rule:nonzero;stroke:none"
       id="path22402" />
    <path
       inkscape:connector-curvature="0"
       d="m 207.03577,48.977479 c 2.81432,1.535849 1.95685,4.310139 2.1374,7.363436 0.18084,3.053297 1.5376,2.972958 2.75442,0.517989 1.21653,-2.454969 0.31728,-6.146619 -1.26035,-9.798251 -1.06256,-2.459054 -6.92609,-5.411264 -10.68201,-5.823494 0.0155,1.624374 -0.35205,3.199371 -1.01699,4.58769 2.42312,1.41957 6.24069,2.156091 8.06753,3.15263"
       style="fill:#3e312b;fill-opacity:1;fill-rule:nonzero;stroke:none"
       id="path22404" />
    <path
       inkscape:connector-curvature="0"
       d="m 184.78827,47.61984 c -1.5414,-1.484435 -2.68197,-2.999254 -3.47487,-4.488355 -3.55551,-0.264989 -6.88139,0.98952 -9.78364,3.208426 4.48865,0.249791 8.50313,1.615319 7.49549,4.052466 -1.53234,3.706262 -8.60042,1.955381 -12.83694,1.734806 -2.60425,3.839774 -4.44628,8.470408 -5.21815,12.998209 4.38785,-2.224456 9.29224,-3.233267 9.55108,-0.385643 0.34182,3.757384 -5.89829,5.511185 -9.84878,7.179966 0.46832,4.74019 2.51398,8.75847 6.58806,10.755635 8.77133,4.299628 18.63151,0.471829 24.92596,-6.370409 1.19257,-1.296577 2.2563,-2.701543 3.16139,-4.179553 1.86628,-3.048327 3.05301,-6.40868 3.28352,-9.776626 0.14491,-2.118109 -0.0891,-4.238855 -0.77012,-6.286854 -0.67371,-2.025498 -1.78506,-3.979422 -3.40125,-5.788438 -2.7591,1.142903 -6.23514,0.655594 -9.67175,-2.65363"
       style="fill:#52423b;fill-opacity:1;fill-rule:nonzero;stroke:none"
       id="path22484" />
    <path
       inkscape:connector-curvature="0"
       d="m 186.12371,29.889035 c -1.925,0.385056 -3.53711,1.416071 -4.64174,2.879173 2.76173,1.683683 4.44395,3.675589 3.02028,5.16995 -1.12157,1.177379 -2.7699,1.186145 -4.59002,0.668452 0.12563,1.436806 0.57145,2.966525 1.40117,4.524875 0.7929,1.489101 1.93347,3.00392 3.47487,4.488355 3.43661,3.309224 6.91265,3.796533 9.67175,2.65363 1.95071,-0.808095 3.54207,-2.431592 4.50822,-4.448621 0.66494,-1.388319 1.03247,-2.963316 1.01699,-4.58769 -0.0108,-1.121576 -0.20626,-2.266233 -0.61206,-3.389859 -5.1051,-0.766316 -10.01474,-3.424915 -13.24946,-7.958265"
       style="fill:#6a5e50;fill-opacity:1;fill-rule:nonzero;stroke:none"
       id="path22486" />
    <path
       inkscape:connector-curvature="0"
       d="m 217.43761,17.190581 c 0,3.119322 -2.52888,5.648204 -5.64821,5.648204 -3.11932,0 -5.6482,-2.528882 -5.6482,-5.648204 0,-3.119328 2.52888,-5.64821 5.6482,-5.64821 3.11933,0 5.64821,2.528882 5.64821,5.64821 z m -21.11979,3.929169 c -4.20438,0 -7.61264,-3.40826 -7.61264,-7.612937 0,-4.2043791 3.40826,-7.6129361 7.61264,-7.6129361 4.20468,0 7.61294,3.408557 7.61294,7.6129361 0,4.204677 -3.40826,7.612937 -7.61294,7.612937 z M 224.92521,2.7184559 c -4.70192,-0.794366 -8.68017,2.9457843 -10.91427,5.7034266 -2.96361,-2.8931978 -6.99357,-4.7743749 -11.89387,-4.7238315 -2.73806,0.02805 -5.22107,0.3631424 -7.43209,0.9562182 -1.11749,-4.93535051 1.95976,-11.9727491 1.95976,-11.9727491 -4.82871,2.7593887 -4.98764,9.6682374 -4.76999,12.9239978 -8.97846,3.7401503 -12.03293,12.4924911 -7.21181,21.8937031 0.43531,0.848996 0.92729,1.642195 1.46077,2.389814 3.23472,4.53335 8.14436,7.191949 13.24946,7.958265 6.32162,0.948916 12.93656,-0.999749 17.02437,-5.905304 4.82229,-5.786389 4.19211,-15.031008 -0.499,-21.35701 2.3384,-4.4515472 9.02667,-7.8665301 9.02667,-7.8665301"
       style="fill:#52423b;fill-opacity:1;fill-rule:nonzero;stroke:none"
       id="path22488" />
    <path
       inkscape:connector-curvature="0"
       d="m 170.52124,64.739749 c -0.25884,-2.847624 -5.16323,-1.838813 -9.55108,0.385643 -3.16957,1.607139 -6.06978,3.848249 -6.75372,5.72884 -1.63051,4.483972 -2.44562,8.967655 -0.81511,11.821118 1.63022,2.853464 3.26073,2.853464 3.26073,-0.815403 0,-3.668569 -1.22267,-6.929589 2.03835,-8.967649 0.52822,-0.330137 1.20806,-0.649755 1.97205,-0.972583 3.95049,-1.668781 10.1906,-3.422582 9.84878,-7.179966"
       style="fill:#3e312b;fill-opacity:1;fill-rule:nonzero;stroke:none"
       id="path22494" />
    <path
       inkscape:connector-curvature="0"
       d="m 179.02525,50.392377 c 1.00764,-2.437147 -3.00684,-3.802675 -7.49549,-4.052466 -3.89499,-0.216778 -8.14671,0.40639 -9.78452,1.899875 -3.52542,3.214859 -6.32893,6.808058 -6.20914,10.092158 0.11978,3.28439 1.5639,4.041065 3.26686,0.791737 1.70296,-3.249625 2.1333,-6.705509 5.96782,-6.997374 0.41866,-0.03183 0.89808,-0.0263 1.41753,6.74e-4 4.23652,0.220575 11.3046,1.971455 12.83694,-1.734806"
       style="fill:#3e312b;fill-opacity:1;fill-rule:nonzero;stroke:none"
       id="path22496" />
    <path
       inkscape:connector-curvature="0"
       d="m 184.50225,37.938158 c 1.42367,-1.494361 -0.25855,-3.486267 -3.02028,-5.16995 -3.82926,-2.334308 -9.73485,-4.075836 -12.31895,-3.072871 -4.44804,1.726048 -8.3591,4.065608 -9.43247,7.171788 -1.07337,3.10618 5.8e-4,4.333219 2.76114,1.917109 2.76086,-2.416111 4.40919,-5.484012 8.09061,-4.372368 2.35184,0.709934 6.11098,3.279131 9.32993,4.194744 1.82012,0.517693 3.46845,0.508927 4.59002,-0.668452"
       style="fill:#3e312b;fill-opacity:1;fill-rule:nonzero;stroke:none"
       id="path22498" />
    <path
       inkscape:connector-curvature="0"
       d="m 196.31782,16.944877 c -1.8987,0 -3.43806,-1.539066 -3.43806,-3.438064 0,-1.898708 1.53936,-3.438063 3.43806,-3.438063 1.899,0 3.43836,1.539355 3.43836,3.438063 0,1.898998 -1.53936,3.438064 -3.43836,3.438064 z m 0,-11.0510001 c -4.20438,0 -7.61264,3.408557 -7.61264,7.6129361 0,4.204677 3.40826,7.612937 7.61264,7.612937 4.20468,0 7.61294,-3.40826 7.61294,-7.612937 0,-4.2043791 -3.40826,-7.6129361 -7.61294,-7.6129361"
       style="fill:#ffffff;fill-opacity:1;fill-rule:nonzero;stroke:none"
       id="path22540" />
    <path
       inkscape:connector-curvature="0"
       d="m 196.31782,10.06875 c -1.8987,0 -3.43806,1.539355 -3.43806,3.438063 0,1.898998 1.53936,3.438064 3.43806,3.438064 1.899,0 3.43836,-1.539066 3.43836,-3.438064 0,-1.898708 -1.53936,-3.438063 -3.43836,-3.438063"
       style="fill:#3e312b;fill-opacity:1;fill-rule:nonzero;stroke:none"
       id="path22542" />
    <path
       inkscape:connector-curvature="0"
       d="m 211.7894,19.74137 c -1.40876,0 -2.55079,-1.142027 -2.55079,-2.550789 0,-1.408769 1.14203,-2.550796 2.55079,-2.550796 1.40877,0 2.5508,1.142027 2.5508,2.550796 0,1.408762 -1.14203,2.550789 -2.5508,2.550789 z m 0,-8.198999 c -3.11932,0 -5.6482,2.528882 -5.6482,5.64821 0,3.119322 2.52888,5.648204 5.6482,5.648204 3.11933,0 5.64821,-2.528882 5.64821,-5.648204 0,-3.119328 -2.52888,-5.64821 -5.64821,-5.64821"
       style="fill:#ffffff;fill-opacity:1;fill-rule:nonzero;stroke:none"
       id="path22544" />
    <path
       inkscape:connector-curvature="0"
       d="m 211.7894,14.639785 c -1.40876,0 -2.55079,1.142027 -2.55079,2.550796 0,1.408762 1.14203,2.550789 2.55079,2.550789 1.40877,0 2.5508,-1.142027 2.5508,-2.550789 0,-1.408769 -1.14203,-2.550796 -2.5508,-2.550796"
       style="fill:#3e312b;fill-opacity:1;fill-rule:nonzero;stroke:none"
       id="path22546" />
  </g>
</svg>
