<?xml version="1.0" encoding="UTF-8" standalone="no"?>
<!-- Created with Inkscape (http://www.inkscape.org/) -->

<svg
   xmlns:dc="http://purl.org/dc/elements/1.1/"
   xmlns:cc="http://creativecommons.org/ns#"
   xmlns:rdf="http://www.w3.org/1999/02/22-rdf-syntax-ns#"
   xmlns:svg="http://www.w3.org/2000/svg"
   xmlns="http://www.w3.org/2000/svg"
   xmlns:xlink="http://www.w3.org/1999/xlink"
   xmlns:sodipodi="http://sodipodi.sourceforge.net/DTD/sodipodi-0.dtd"
   xmlns:inkscape="http://www.inkscape.org/namespaces/inkscape"
   version="1.2"
   width="109.68262"
   height="115.59304"
   viewBox="0 0 109.68264 115.59305"
   id="svg2"
   inkscape:version="0.48.4 r9939"
   sodipodi:docname="gorila.svg">
  <sodipodi:namedview
     pagecolor="#ffffff"
     bordercolor="#666666"
     borderopacity="1"
     objecttolerance="10"
     gridtolerance="10"
     guidetolerance="10"
     inkscape:pageopacity="0"
     inkscape:pageshadow="2"
     inkscape:window-width="1600"
     inkscape:window-height="876"
     id="namedview96203"
     showgrid="false"
     inkscape:zoom="6.5771592"
     inkscape:cx="25.72091"
     inkscape:cy="57.766091"
     inkscape:window-x="0"
     inkscape:window-y="1"
     inkscape:window-maximized="1"
     inkscape:current-layer="svg2" />
  <title
     id="title4162">Bingo das Letras</title>
  <defs
     id="defs4">
    <style
       type="text/css"
       id="style6" />
    <path
       d="m -47.4,264.7 -0.85,0.4 -2.3,-1.25 q -2.25,-1.15 -4.95,-1.85 -3.3,-0.75 -5.3,1.4 -1.1,1.2 -0.05,2.85 1.45,2.4 3.75,4.3 l 1.85,1.5"
       id="gorila_0_Layer0_0_1_STROKES"
       style="fill:none;stroke:#000000;stroke-width:1.5;stroke-linecap:round;stroke-linejoin:round"
       inkscape:connector-curvature="0" />
    <g
       id="gorila_0_Layer0_0_FILL">
      <path
         d="m -67.8,433.35 0.05,-0.05 q -0.06562,-0.0182 -0.15,-0.1 l 0.1,0.15 M 2.45,308.9 l 0,-0.05 0,0.05 0,0 m 7.8,-9.75 -0.1,-0.1 -0.15,0.1 0.25,0 M 1.95,275.4 q 0.031055,-0.0881 -1.95,-0.7 -1.3205078,-0.41348 -2.3,-0.35 0.093164,-0.0635 0.2,-0.1 3.3277344,-1.20059 5.4,-0.15 1.3820312,0.64805 2.2,2.15 -0.7449219,-4.08105 -4.5,-6.75 -3.45,-0.75 -1.75,-3.7 3.9375,-2.94355 -0.8,-9.6 -3.4185547,2.57227 -8.6,3.1 -5.35,0.55 -9.35,-1.5 -3.7,-1.95 -4.25,-5.05 l -0.05,0 -8.35,2.15 0.1,0.25 q -0.05,2.35 -0.6,4.2 l -0.5,1.45 q -1.1,2.65 -3.9,4.1 -1.257422,0.71445 -2.65,1 -1.036133,0.25 -2.15,0.25 0.06738,-0.0437 0.1,-0.1 -2.32793,0.0256 -4.55,-0.85 -0.01426,0.0418 -0.05,0.05 3.17168,1.88516 4.9,3.75 0.14375,0.14375 0.15,0.35 l -7.1,-3.5 q 0.15,0.05 0.45,-0.05 l 0.95,-0.5 0,-0.4 -0.4,-0.2 -0.85,0.4 -2.3,-1.25 q -2.25,-1.15 -4.95,-1.85 -3.3,-0.75 -5.3,1.4 -1.1,1.2 -0.05,2.85 1.45,2.4 3.75,4.3 l 1.85,1.5 q 0.15,-0.25 0.5,-0.3 0.3,-0.05 0.55,0.2 0.15,0.1 0.25,0.5 0.65,7.2 -6.9,10.7 -6.1,2.85 -18,3.05 64.85,23.6 80.8,-10.8 m -47.45,-3.25 q -0.8,-0.7 -3.9,-1.1 -3,-0.35 -3.55,-1.5 -0.55,-2.35 2.8,-1.2 3.3,1.15 4.65,3.8 m -4.35,13.8 q 7.1,-4.05 9.1,-11.05 1.15,0.6 0.6,6.15 -0.85,8.65 -8.8,7.9 -4.5,-0.45 -6.65,-1.65 3.05,0.2 5.75,-1.35 m 34.4,-26.1 0.05,0 q 5.5,0.75 6.4,3.35 1.05,2.5 -2.65,6.65 l 0.05,0 q -6.35,7.25 -15.55,5.05 -0.103711,-0.0174 -0.2,-0.1 6.780078,0.91562 12.55,-4.05 5.8212891,-4.96602 4.35,-7.05 -0.85,-1.85 -5.2,-2.35 -2.45,-0.4 -4.75,0.1 l -0.05,0 q -7.928125,1.1127 -15.15,6.75 0.08301,-0.13301 0.2,-0.25 5.75,-6.65 14.75,-8 L -20.7,260 q 2.7,-0.5 5.25,-0.15 m -1.8,6.25 q 1.1,4.75 -12.25,3.05 10.7,-7.9 12.25,-3.05 M 5.4,281.8 q 0.4751953,-2.3041 0.3,-4.3 -0.3496094,-0.33535 -0.9,-0.65 -1.4859375,-0.90098 -1.5,-0.85 -16.7,36.8 -86.45,10.2 l -0.1,-0.05 -0.05,0 q -3.05,15.35 4.35,27.1 6.799023,10.7457 23,17.15 16.258398,6.45547 28.8,1.15 12.581445,-5.26113 26.45,-20 0.89238281,-1.37676 1.75,-2.85 0.15,-0.25 0.45,-0.35 0.35,-0.1 0.6,0.05 0.3,0.2 0.35,0.45 1.35,-2.9 1.2,-8.55 -2.94960937,-0.10488 -5.65,-1.05 2.82519531,-1.0209 4.75,-1.95 2.7,-6.5 2.65,-10.05 -1.25,0.45 0,-5.45 m -12.3,17 q -9.2,15.35 -28.9,12.85 -8.2,-0.9 -15.6,-4.6 -2.9,-1.45 -5.4,-3.65 27.1,9.15 49.9,-4.6 M 4.6,246.35 q 0.75,0.1 1.25,0.65 -0.95,-8 -11.65,-6.6 0.15,0.25 0.1,0.55 -0.05,0.25 -0.35,0.45 -1.55,0.9 -5.85,1.5 l -12.65,1.65 -0.05,0 q -8.45,1.05 -12.65,2.25 -4.4,1.2 -6.2,2.2 -1.85,0.95 -3.15,3.1 -1.2,2.05 -0.7,5.05 0.151172,0.92422 0.5,1.65 1.625586,-0.50645 3.65,-0.75 -0.06836,-0.0174 -0.15,-0.05 -0.35,-0.15 -0.4,-0.45 -0.1,-0.35 0.05,-0.55 0.1,-0.3 0.45,-0.4 l 1.5,-0.45 0.1,0 7.5,-2.3 0.05,0 10.55,-2.7 q 6.5,-1.55 11.9,-2.5 l -0.05,0.05 0.25,0 q 3.05,-0.65 6.9,-1.25 l 9.1,-1.1 m 4,0.2 0,0.1 0.05,0 -0.05,-0.1 M 20,242.8 q -2.356445,1.14277 -3.6,3.3 2.93418,-1.3541 5.2,1 0.06309,0.0607 0.1,0.1 1.912891,2.44492 1.35,4.1 -0.312305,1.57871 -2.05,2.85 1.487695,1.07031 3.25,0.9 2.100977,-0.28594 3.95,-2.8 l 0,0 q 2.52793,-3.58398 -0.1,-7.55 l 0,0 q -2.845898,-4.37988 -8.1,-1.9 m -85.05,151.95 0,0.05 q -5.25,18.6 -19.9,24.4 -1.14707,3.53652 0.1,5.85 0.08594,0.0963 0.15,0.2 l 0.05,-0.15 q 7.626758,3.04902 14.05,-13.4 l 0.05,0 0,-0.05 q 0.02305,-0.22305 0.25,-0.45 0.170508,-0.17051 0.45,-0.2 0.04863,0 0.1,0 0.25,0 0.5,0.25 0.2,0.2 0.2,0.55 -0.5,9.4 -8.5,17.4 1.298047,2.33633 2.9,3.35 8.353516,-3.48828 10.05,-15.1 -0.03359,-2.00938 -0.35,-4.1 -0.04043,-0.30234 0.15,-0.55 0.189453,-0.25195 0.5,-0.3 0.302734,-0.0408 0.55,0.15 0.251562,0.18906 0.3,0.5 1.545898,10.33066 -3.25,19.1 1.166797,1.93301 4.5,2.1 6.815625,-9.0043 4.1,-20.15 -0.03516,-0.26973 0.1,-0.45 0.1,-0.3 0.4,-0.4 0.35,-0.1 0.6,0.05 0.25,0.1 0.35,0.4 2.85,8.05 1.05,15.65 l 2.55,-3.5 q 2.610547,-10.26348 4.25,-16.55 1.641992,-6.29004 1.35,-13.3 -0.297461,-6.95352 -1.7,-13.85 l -1.75,3 q -0.15,0.25 -0.35,0.3 -0.3,0.1 -0.5,0.05 -0.25,-0.1 -0.4,-0.3 -0.15,-0.2 -0.15,-0.45 l 0,-10.5 -2.65,1.05 q -7.5,6.95 -10.1,19.35 m 167.9,11.25 0,-0.05 q -2.59844,4.38711 -4.4,8 L 98.5,414 q -0.15,0.45 -0.4,0.85 l 0,0.05 -0.05,0 -0.05,0.05 q -1.587891,3.53613 -1.6,5.95 0.0021,0.0359 0,0.05 -0.03887,0.39062 0.05,1 l 0,0 q 0.06309,0.006 0.1,0 0.326367,-0.0412 0.6,-0.05 -0.488672,-2.56348 2.3,-4.35 2.1,-1.5 3.8,-0.85 -1.05,0.35 -2.95,1.85 -2.05,1.6 -1.5,3.55 l 0.5,0.75 0,0 q 1.13672,0.89805 3.45,0.65 0.14004,-0.01 0.25,0 -0.36387,-1.05781 0.95,-2.7 2,-2.6 4.8,-2.15 -1.55,-0.2 -3,1.8 -1.45,2.1 -1.25,3.05 0.25,1.05 2.25,1.25 0.16367,0.0176 0.35,0 0.49707,0.0383 1.15,-0.05 6.77637,-4.18242 -0.4,-13.6 0,-0.0764 0,-0.15 -0.05,-0.05 -0.1,-0.1 -0.05,-0.05 -0.05,-0.1 -0.0986,-0.0658 -0.2,-0.1 -0.0606,-0.0922 -0.15,-0.2 l 0,0 q -0.1,-0.2 -0.15,-0.35 -0.05,0 -0.1,-0.05 L 107.05,410 q -1.46328,-2.46328 -4.2,-4 m 4.9,6.05 q -0.001,-0.0926 -0.05,-0.2 l 0.05,0 q 0.016,0.11074 0,0.2 m -8.85,-17.35 -0.05,0.05 -0.75,0.6 -0.7,2 1.45,0 q 0.743359,-0.14238 -0.05,2.8 l 0,0.05 q -0.1,0.3 -0.05,0.6 l 1.05,-0.25 q -0.0375,0.65547 -1.15,1.8 l -0.1,0.05 q -6.25,4 -12.2,6.05 -1.75,4.45 -3.7,8.45 -2.05,4 -7.75,5.2 -5.25,1.15 -15.7,-1.95 1.95,8.75 12.75,11.5 1.05,-4.5 5.95,-5.5 -2.426367,0.64453 -3.95,3.75 -0.366016,4.45234 2.65,7.45 l 0.05,0 0.3,-0.05 q -0.4,-0.8 -0.55,-1.65 -0.9,-5.6 3.4,-7.7 -0.7,0.55 -1.8,3 0.764453,4.62656 4.25,5.35 -0.985938,-1.81582 -0.7,-3.45 0.25,-2.05 2.55,-3.7 -0.75,1.25 -0.95,3 -0.01074,0.074 -0.05,0.15 2.30918,2.95742 5.55,3.15 -0.941602,-2.16016 -0.55,-5 l 0.1,-0.3 0.15,0.65 q 3.983789,5.05801 8.8,4.75 -0.0707,-0.4832 -0.55,-0.65 l 0.05,0 -0.3,-0.15 q -1.35,-0.8 -1.85,-2.1 l -0.1,-0.45 0.75,0.7 q 0.75,0.75 1.6,0.8 -0.7,-1.85 -2,-5.05 -1.35,-3.2 -2.2,-6.55 -1.9,-7.45 4,-13.9 5.73223,-6.28047 5.85,-14.35 l 0.05,0 -0.05,-0.05 q -1.65,-0.65 -3.5,0.9 z"
         id="path10319"
         style="fill:#b6a88d;stroke:none"
         inkscape:connector-curvature="0" />
      <path
         d="m -16.7,341.8 q -1.512305,-1.07637 -3.05,-2.25 -1.9,-1.5 -2.15,-3.45 -4.301758,2.64473 -8.9,4.3 -3.892773,1.40703 -8,2.1 -0.2,8.3 8.6,14.4 l 3.55,-2.75 -4.65,0 q -0.2,0 -0.45,-0.15 -0.15,-0.1 -0.25,-0.4 -0.05,-0.2 0,-0.45 0.1,-0.3 0.3,-0.35 3.959375,-2.48867 7.65,-5.2 3.816602,-2.78125 7.35,-5.8 m 21.9,23.55 q -2.0855469,1.20449 -4.25,2.6 -3.4197266,2.24551 -7,5.05 2.8,4 7,5.85 1.95,0.8 3.4,1.85 L 2.2,375.55 q -0.053125,-0.18594 -0.05,-0.35 0.684375,0.60781 2.15,1.65 3.35,2.9 7.75,4.05 4.55,1.1 10,1.45 l 0.05,0 0.8,0.1 0.05,0 q 5.15,0.35 9.65,1.5 2.434766,0.55449 4.3,1.35 l 0,0 Q 33.2,378 26.1,377.2 13.157617,375.85078 5.2,365.35 z"
         id="path10321"
         style="fill:#323232;stroke:none"
         inkscape:connector-curvature="0" />
      <path
         d="m -95.8,281.05 q -2.4,-0.35 -4.1,1.65 -1.75,2.05 -1.25,4.7 0.55,2.4 2.8,4 l 0.05,0.05 0.3,0.2 0.2,0.1 q 1.9,1.35 4.25,2.55 0.35,0.1 0.4,0.45 0.05,0.15 -0.05,0.55 -0.15,0.35 -0.45,0.4 -0.2,0.05 -0.6,-0.05 -2.1,-1.15 -3.5,-2.05 -6.9,31.95 26.2,42.85 l 0.05,0 q 17.25,6.8 31.85,4.65 22.811133,-3.6043 38.95,-29.55 -13.868555,14.73887 -26.45,20 -12.541602,5.30547 -28.8,-1.15 -16.200977,-6.4043 -23,-17.15 -7.4,-11.75 -4.35,-27.1 -6.5,-2.5 -12.5,-5.1 z"
         id="path10323"
         style="fill:#c5b8a5;stroke:none"
         inkscape:connector-curvature="0" />
      <path
         d="m -32.05,255.15 -0.1,-0.25 -0.05,0 0.15,0.25 m 42.3,44 0.25,0.45 0.05,-0.25 -0.3,-0.2 z"
         id="path10325"
         style="fill:#d9cbbb;stroke:none"
         inkscape:connector-curvature="0" />
      <path
         d="m -42.3,257.85 -0.45,0.15 q -0.201953,0.0674 -0.4,0.05 -2.024414,0.24355 -3.65,0.75 0.790234,1.40254 2.45,2 0.3,0.05 0.45,0.4 0.1,0.25 0,0.55 -0.549219,1.73223 -2.4,3.45 2.22207,0.87559 4.55,0.85 1.673437,-1.02578 3.45,-1.65 1,-0.4 1.85,-1.4 -3.05,-0.05 -4.55,-1.55 -1.35,-1.25 -1.3,-3.6 m 52.8,41.75 -0.25,-0.45 -0.25,0 q -1.25,0.85 -3.45,1.1 -1.4783203,0.12988 -2.9,0.05 0.15,5.65 -1.2,8.55 l 0,0.05 1.05,-0.35 q 6.3,-2.15 7,-8.95 m -4.55,-4.15 q 2,-1.8 3.1,-3.2 1.35,-1.65 2,-3.7 l 1.15,-4.6 q -0.208203,0.75703 -1.25,1.65 -2.3,1.9 -5.55,1.65 0.05,3.55 -2.65,10.05 2.1496094,-0.9834 3.2,-1.85 m -46.7,-20.55 q -2,7 -9.1,11.05 -2.7,1.55 -5.75,1.35 2.15,1.2 6.65,1.65 7.95,0.75 8.8,-7.9 0.55,-5.55 -0.6,-6.15 m 4.95,36.75 q 19.7,2.5 28.9,-12.85 -22.8,13.75 -49.9,4.6 2.5,2.2 5.4,3.65 7.4,3.7 15.6,4.6 m 45.7,-44.5 q -2.9,0 -5.7,-0.6 l -4.95,-0.75 q -1.7,2.95 1.75,3.7 3.7550781,2.66895 4.5,6.75 0.5453125,0.92187 0.85,2.15 -0.1673828,-0.46699 -0.65,-0.9 0.1751953,1.9959 -0.3,4.3 -1.25,5.9 0,5.45 1.65,-1.05 3.6,-3.45 2,-2.45 2.95,-4.6 0.95,-2.05 1.8,-4.45 -2.9,0.6 -5.7,0.65 0.3,-1.85 1.7,-3.25 l 0.45,-0.45 -1.1,-0.1 q -2.25,-0.45 -4.65,-1.25 4.35,-2.6 5.45,-3.2 m -1.3,-20.5 0,-0.1 q 0.8,-1.8 0.1,-4.1 -1.5,-5.4 -6.9,-5.1 -4.25,0.3 -7.65,2.95 l 0.05,0.1 Q 4.9,239 5.85,247 l 0.05,0.05 q 0.35,0.2 0.5,0.6 -3.2,0.3 -4.85,0.55 0.35,0.85 0.4,1.7 0.35,3.3 -3.2,6.1 -0.1416016,0.11133 -0.3,0.2 4.7375,6.65645 0.8,9.6 0.8,0.05 1.6,-0.15 l 0.1,-0.05 q 2.7,-0.9 4.75,-3.2 2.15,-2.2 2.35,-6.05 0.25,-3.85 -3,-3.95 1.3,-3.1 2.2,-4 0.4,-0.35 1.35,-1.75 M -68.2,432.6 q -0.04805,-0.051 -0.1,-0.15 l 0.05,0.1 0.05,0.05 m 20.7,7.1 q 1.048437,-0.0367 2.15,-0.25 1.429687,-3.29824 2.25,-6.55 -2.892773,3.60137 -4.4,6.8 m 36.8,-18.1 q -1.9,-0.05 -2.65,0.6 -0.65,0.65 -0.2,2.25 l 5.7,7.45 q -2.483594,-3.52207 -2.85,-10.3 m -24.95,12.7 q -0.32207,3.78516 -1.2,7.25 2.158984,-0.52168 4.7,-1.95 2.1,-12.05 -4,-20.95 1.2,7.7 0.5,15.65 m 12.35,-2.25 q 0.997656,6.02617 0.65,9.4 2.140234,-0.4207 4.4,-1.7 -2.676562,-13.28555 -10.5,-21.5 4.204687,6.27812 5.45,13.8 m -44.75,-0.5 0,0 q 3.622852,-6.57715 3.45,-14.1 -1.696484,11.61172 -10.05,15.1 0.555859,0.35625 1.15,0.55 2.209766,0.58926 4.95,-1.1 0.2,-0.25 0.5,-0.45 m -2.5,-19.85 -0.05,0 q -6.423242,16.44902 -14.05,13.4 l -0.05,0.15 q 1.55,2.15 5.95,3 7.7,-7.6 8.2,-16.55 m 12.5,2.6 q -0.01,-0.0346 -0.05,-0.1 2.715625,11.1457 -4.1,20.15 1.444336,0.0984 3.3,-0.15 0.05,-1 0.95,-2.2 3.15,-8.45 -0.1,-17.7 m 10.65,-35.05 -1.75,3 q 1.402539,6.89648 1.7,13.85 0.291992,7.00996 -1.35,13.3 -1.639453,6.28652 -4.25,16.55 5.35,-8 5.1,-14.25 l 0.1,-0.35 0.2,-0.35 q 5.1,-8.3 4.4,-23.6 l 0,-0.05 q -0.3,-1.85 -0.25,-3.35 l -3.9,-4.75 m 152.35,22.2 q -0.71133,2.29512 -2.1,4.55 2.73672,1.53672 4.2,4 l 0.05,0.05 q 0.05,0.05 0.1,0.05 0.05,0.15 0.15,0.35 l 0,0 q 0.0894,0.10781 0.15,0.2 0.10137,0.0342 0.2,0.1 0,0.05 0.05,0.1 0.05,0.05 0.1,0.1 0,0.0736 0,0.15 7.17637,9.41758 0.4,13.6 1.19082,-0.12285 2.9,-0.55 3.2,-1.45 3.7,-4.4 0.25,-1.8 -1.4,-4.3 -2.9,-3.9 -4.55,-6.4 -2.39297,-3.53965 -3.95,-7.6 m 2.75,10.4 q 0.0488,0.10742 0.05,0.2 0.016,-0.0893 0,-0.2 l -0.05,0 M 60.9,430.7 q 3.4,2.95 11.05,0.95 -10.8,-2.75 -12.75,-11.5 -1.55,7.45 1.7,10.55 m 13.05,-0.8 q -0.463281,1.00508 -0.85,2.25 -0.65,1.95 0.05,4 0.85,1.3 3.45,1.2 l 0,0 q -3.016016,-2.99766 -2.65,-7.45 m 22.65,7.6 q 0.670703,-1.28301 0.55,-1.95 -4.816211,0.30801 -8.8,-4.75 0.6,3.15 1.8,4.6 l 1.2,1.45 1.1,0.8 q 1.45,1 3.15,0.6 0.6,-0.2 1,-0.75 m -12.45,-1.05 q 0,-0.1 0.05,0.05 0.65,1 2.8,1.45 1.8,0.35 3.1,-0.4 -0.902734,-0.95469 -1.45,-2.1 -3.24082,-0.19258 -5.55,-3.15 -0.258398,2.30859 1.05,4.15 m -1.35,0.7 q -0.292578,-0.4207 -0.55,-0.85 -3.485547,-0.72344 -4.25,-5.35 -1.3,2.9 0.15,5.15 1.55,2.35 4.65,1.05 m 19.65,-43.3 -0.05,0 q -0.11777,8.06953 -5.85,14.35 -5.9,6.45 -4,13.9 0.85,3.35 2.2,6.55 1.3,3.2 2,5.05 l 0.85,0.1 q 0.130273,-0.0815 0.35,-0.05 0.588672,-0.31699 1.1,-0.8 0.07754,-0.0955 0.1,-0.2 0.3,-1.25 -0.8,-3.1 -2.5,-4.05 -3.15,-6.65 l -0.05,-0.2 -0.05,-0.1 0,-0.2 -0.05,-0.05 0,-0.1 -0.05,-0.05 0,-0.05 q -0.01797,-0.12559 -0.05,-0.25 -0.102539,-0.71641 -0.05,-1.2 0.0125,-2.64023 1.75,-6.5 0.06035,-0.048 0.1,-0.1 0.05606,-0.32188 0.25,-0.55 0.02578,-0.11934 0.05,-0.25 1.834375,-3.69766 4.5,-8.2 l 0,0 q 2.01465,-3.25195 2.5,-6.55 l 0,-0.05 0.15,-1.85 0,-0.05 q 0.1,-1.4 -0.9,-2.25 -0.4,-0.4 -0.75,-0.55 l -0.1,-0.05 m -3.9,-13.25 -3.2,-0.1 q -2.65,2.5 -7.6,3.35 -1.3,0.25 -2.35,0.3 0.1,4.5 3.65,7.25 4.1,3.05 8.2,1.35 0.25,-0.1 0.55,0 0.25,0.05 0.45,0.35 1.7,-1.15 3.2,-1 l -2.9,-11.5 z"
         id="path10327"
         style="fill:#a38f72;stroke:none"
         inkscape:connector-curvature="0" />
      <path
         d="m 93.85,344.6 q -2,-6.1 -5.75,-11.65 -1.25,-1.8 -2.5,-3.55 l 2,14.1 q -7.4,-2.5 -15.2,-1.3 5.9,-0.55 11.1,2 1.7,0.85 3,2.2 3.3,3.55 4.1,8.35 l 12.75,4.75 q -0.7,-2.2 -2.25,-4.25 -1.6,-2.1 -3.95,-3.2 -0.65,-0.25 -1.25,-0.45 -0.7,-0.25 -1.35,-0.45 0.7,-0.9 1.5,-1.7 1.8,-1.9 2.6,-4.4 0.25,-0.85 0.45,-1.7 l -5.25,1.25 M 56.7,364.1 q -1.2,0.35 -2.4,0.55 -2.3,0.45 -4.6,0.25 3.7,-5.8 9.85,-10.8 4.544531,-3.72168 10.4,-4.3 -10.70293,0.58555 -19.7,5.65 -7.65,4.35 -11.1,12.25 l 6.05,-2.75 q 0.129687,-0.0973 0.25,-0.1 -6.183008,13.23984 -1.65,25.8 l 0.1,0.25 q 1.8,5.05 5.3,10.25 l 1.35,-3.65 q 8.479883,8.95625 18.3,11 l 0.25,0.05 q 7.75,1.45 16.35,-1.35 l 0.1,-0.05 0.05,0 q 1.032812,-0.3502 2.05,-0.75 -13.450977,-1.12793 -24.35,-7.1 -5.9,-3.2 -6.2,-8.1 -2.7,1.05 -4.1,3.05 -0.9,-2.3 -1.8,-4.45 -3.35,-7.95 0.2,-16.55 2.55,-6.05 5.3,-9.15 M 11.6,306.25 q -0.996094,2.51348 -2.15,5.4 -5.0480469,13.13008 -25.45,30.65 -5.744336,5.01426 -12.75,10.35 l 4.35,0 q 0.25,0 0.45,0.15 l 0.25,0.4 q 0.1,0.3 0.05,0.45 -0.05,0.2 -0.3,0.35 l -5.75,4.35 -0.05,0.05 -0.05,0 -0.05,0.05 -0.05,0 -11.05,8.3 5.85,0 q 0.3,0 0.55,0.25 0.2,0.2 0.2,0.5 0,0.35 -0.2,0.55 -7.3,7.3 -7.45,15.65 l 12.85,-19.6 7.4,0 5.4,-15.3 11.15,-6.6 11.15,-15.7 5.65,-20.25 m -9.65,-85 q -0.2,-0.05 -0.3,-0.35 l -0.25,0.05 q -1.83554688,0.64023 -2.1,0.65 9.9013672,-0.14629 13.25,9.1 0.65,1.65 0.4,3.7 11.232031,-2.57402 20.7,0.95 9.463477,3.56797 15,6.9 5.595508,3.39395 8.25,9.85 0.95,2.35 1.8,3.05 0.2,-0.2 0.45,-0.2 l 5.75,-2.2 q -19.55,-21.95 -47,-20.55 -0.35,0 -0.55,-0.2 -0.25,-0.25 -0.25,-0.5 -0.35,-5.7 -5.15,-8.95 -2.15,-1.4 -4.8,-1.55 l -0.05,0 q -2.4,0 -4.7,0.35 -0.2,0.05 -0.45,-0.1 m 58,61.95 q -2.7,-5.9 -7.2,-10.8 1.35,8.1 5.05,15.4 0.7,1.35 1.5,2.7 0.75,1.25 1.55,2.55 l -2.5,0.55 q 5.1,5 7.55,11.7 3.3,9.05 1.05,18.35 2.45,-7.25 1.8,-14.8 l 3.95,0.55 q -2.3,-3.1 -2.3,-7 0,-0.6 0.05,-1.15 0.1,-1.2 0.35,-2.4 0.8,-3.75 3.65,-6.65 L 71,289.55 q -2.5,-1.8 -5.5,-1.6 -0.5,0 -1,0.05 l -1.6,-18.9 -2.95,14.1 z"
         id="path10329"
         style="fill:#555555;stroke:none"
         inkscape:connector-curvature="0" />
      <path
         d="m -29.5,269.15 q 13.35,1.7 12.25,-3.05 -1.55,-4.85 -12.25,3.05 m -19.9,1.9 q 3.1,0.4 3.9,1.1 -1.35,-2.65 -4.65,-3.8 -3.35,-1.15 -2.8,1.2 0.55,1.15 3.55,1.5 z"
         id="path10331"
         style="fill:#333333;stroke:none"
         inkscape:connector-curvature="0" />
      <path
         d="m -15.4,259.85 -0.05,0 Q -18,259.5 -20.7,260 l 0.05,-0.05 q -9,1.35 -14.75,8 -0.116992,0.11699 -0.2,0.25 7.221875,-5.6373 15.15,-6.75 l 0.05,0 q 2.3,-0.5 4.75,-0.1 4.35,0.5 5.2,2.35 1.4712891,2.08398 -4.35,7.05 -5.769922,4.96562 -12.55,4.05 0.09629,0.0826 0.2,0.1 9.2,2.2 15.55,-5.05 l -0.05,0 q 3.7,-4.15 2.65,-6.65 -0.9,-2.6 -6.4,-3.35 M 5.85,247 q -0.5,-0.55 -1.25,-0.65 l -9.1,1.1 q -3.85,0.6 -6.9,1.25 l -0.25,0 0.05,-0.05 q -5.4,0.95 -11.9,2.5 l -10.55,2.7 -0.05,0 -7.5,2.3 -0.1,0 -1.5,0.45 q -0.35,0.1 -0.45,0.4 -0.15,0.2 -0.05,0.55 0.05,0.3 0.4,0.45 0.08164,0.0326 0.15,0.05 0.198047,0.0174 0.4,-0.05 l 0.45,-0.15 q -0.05,2.35 1.3,3.6 1.5,1.5 4.55,1.55 -0.85,1 -1.85,1.4 -1.776563,0.62422 -3.45,1.65 -0.03262,0.0562 -0.1,0.1 1.113867,0 2.15,-0.25 1.392578,-0.28555 2.65,-1 2.8,-1.45 3.9,-4.1 l 0.5,-1.45 q 0.55,-1.85 0.6,-4.2 l -0.15,-0.25 0.05,0 8.35,-2.15 0.05,0 q 0.55,3.1 4.25,5.05 4,2.05 9.35,1.5 5.1814453,-0.52773 8.6,-3.1 0.1583984,-0.0887 0.3,-0.2 3.55,-2.8 3.2,-6.1 -0.05,-0.85 -0.4,-1.7 1.65,-0.25 4.85,-0.55 -0.15,-0.4 -0.5,-0.6 L 5.85,247 m -7.45,1.6 q 0.45,0.95 0.5,1.8 0.3,2.9 -2.8,5.3 -3.1,2.35 -7.65,2.8 -4.6,0.45 -8.1,-1.3 -3.3,-1.7 -3.7,-4.55 l 0.15,-0.05 0.05,0 q 5.4,-1.25 10.9,-2.25 0.05,1.5 1.25,2.85 1.35,1.35 3.2,1.35 2,0 3.25,-1.35 l 0,-0.05 q 1.25,-1.3 1.3,-3.2 l 0,-0.1 -0.15,-1 1.8,-0.25 m -3.15,1.3 0,0.05 -0.1,0.7 q -0.2,0.3 -0.6,0.3 -0.35,0 -0.65,-0.3 -0.25,-0.25 -0.25,-0.6 0,-0.3 0.25,-0.65 0.35,-0.25 0.65,-0.25 0.35,0 0.6,0.25 l 0.05,0.05 0.05,0.45 m -31.1,6.8 q 0,-0.25 0.2,-0.45 0.2,-0.2 0.45,-0.2 0.25,0 0.45,0.2 l 0.1,0.15 -0.05,0.7 -0.05,0.05 q -0.2,0.2 -0.45,0.2 -0.25,0 -0.45,-0.2 -0.2,-0.2 -0.2,-0.45 m -3.35,0.25 0,0.35 q 0.1,0.8 0.7,1.75 0.6,0.9 1.95,1.05 l 1,-0.1 -0.1,0.25 -0.65,1.25 q -2.5,-0.05 -3.7,-1.1 -0.95,-1.05 -0.75,-3 l 1.45,-0.45 0.1,0 m 99.4,47.95 q 5.86e-4,-0.0656 0,-0.15 0,-0.22363 -0.1,-0.4 -0.0039,0.12363 0.1,0.55 m -30.85,-61.05 0,0.05 q -3.504102,-5.52012 -10,-2.45 -4.03418,1.90996 -5.3,6.45 -0.009,0.12578 0,0.25 3.433008,-2.30547 6.45,0 1.335937,1.68164 1.1,2.75 -0.341992,1.04434 -2.4,2.65 -0.320703,0.25352 -0.6,0.45 0.07695,0.21758 0.25,0.35 2.950391,2.55234 5.6,2.2 2.648633,-0.26406 4.95,-3.4 l 0,-0.05 q 3.162695,-4.38008 -0.05,-9.25 M 16.4,246.1 q 1.243555,-2.15723 3.6,-3.3 5.254102,-2.47988 8.1,1.9 l 0,0 q 2.62793,3.96602 0.1,7.55 l 0,0 0,0 q -1.849023,2.51406 -3.95,2.8 -1.762305,0.17031 -3.25,-0.9 1.737695,-1.27129 2.05,-2.85 0.562891,-1.65508 -1.35,-4.1 -0.03691,-0.0393 -0.1,-0.1 -2.26582,-2.3541 -5.2,-1 M 5.95,216 q -0.2,-0.15 -0.45,-0.15 l -6.9,0.9 -0.05,0.05 -2.15,0.35 -0.05,0 -2.2,0.35 q -0.25,-0.8 -0.2,-1.35 l 0,-0.05 q 0.2,-1.7 1.05,-3.05 0.2,-0.25 0.1,-0.5 -0.1,-0.35 -0.25,-0.45 -0.2,-0.2 -0.5,-0.2 l -1.15,0 q -2.15,-0.05 -3.95,1.55 -1.45,1.35 -1.8,3.5 l 0,0.05 -0.45,2.3 q -0.65,-1.05 -1.05,-2.25 l -0.05,0 -0.85,-2.75 -0.05,-0.05 q -0.55,-1.7 -1.2,-2.9 -0.2,-0.3 -0.35,-0.35 -0.25,-0.15 -0.45,-0.1 -0.3,0.1 -0.4,0.25 -0.15,0.1 -0.25,0.4 l -0.5,3.9 q -0.15,2 -0.1,3.6 0.1,1.1 0,2.15 -1.25,-0.6 -2.55,-0.4 l -0.05,0 -3.55,0.3 q -1.858984,0.093 -4.05,0.9 0.575,0.45586 1.25,1.05 3.05332,2.69785 4.35,4.05 -6.7,4.3 -2.8,16.1 -8.1,1 -12,2.15 -4.1,1.05 -6.5,2.3 -2.3,1.1 -3.75,3.7 -1.5,2.5 -0.9,6.05 0.5,3.2 3.2,4.5 -0.85,1.55 -2.6,2.35 l 0.3,0.2 0.05,0 0.85,0.45 0,0.4 -0.95,0.5 q -0.3,0.1 -0.45,0.05 l 7.1,3.5 q -0.0063,-0.20625 -0.15,-0.35 -1.72832,-1.86484 -4.9,-3.75 0.03574,-0.008 0.05,-0.05 1.850781,-1.71777 2.4,-3.45 0.1,-0.3 0,-0.55 -0.15,-0.35 -0.45,-0.4 -1.659766,-0.59746 -2.45,-2 -0.348828,-0.72578 -0.5,-1.65 -0.5,-3 0.7,-5.05 1.3,-2.15 3.15,-3.1 1.8,-1 6.2,-2.2 4.2,-1.2 12.65,-2.25 l 0.05,0 12.65,-1.65 q 4.3,-0.6 5.85,-1.5 0.3,-0.2 0.35,-0.45 0.05,-0.3 -0.1,-0.55 l -0.05,-0.1 q -0.1,-0.15 -0.4,-0.25 -0.35,-0.1 -0.55,0.05 -1.3,0.75 -5.3,1.3 l -12.05,1.6 q -3.8,-11.15 2.7,-15 l 0.15,-0.1 q 0.46582,-0.27949 1.2,-0.6 l -1.45,-1 q -1.45,-1.6 -2.9,-2.8 -0.4,-0.35 -1.1,-0.75 l 4.9,-0.45 q 2.221094,-0.425 6.55,2.6 -0.921875,-1.90938 -2.7,-3.25 0.1,-1.05 0.05,-2.65 -0.05,-1.5 0.1,-3.4 l 0.15,-1.15 1,3.05 q 0.6,2.05 1.95,3.45 l 0.55,0.55 q 0.2,0.2 0.5,0.2 0.3,0 0.5,-0.15 0.15,-0.15 0.25,-0.5 l 0.65,-3.8 q 0.3,-1.7 1.4,-2.7 l -0.05,0 q 1.3,-1.15 2.9,-1.15 -0.55,1.3 -0.7,2.6 -0.05,1.45 0.6,2.7 0.05,0.15 0.35,0.35 0.3,0.1 0.45,0.05 1.35,-0.3 2.7,-0.45 l 2.35,-0.4 -0.05,0 3.45,-0.6 0.05,0 1.3,-0.15 q -0.7,0.75 -1.3,1.8 l -0.55,0.75 q -0.2,0.15 -0.2,0.4 -0.1,0.25 0.05,0.45 0.1,0.3 0.3,0.35 0.25,0.15 0.45,0.1 Q 4.7,221 7.1,221 l 0.05,0 q 2.65,0.15 4.8,1.55 4.8,3.25 5.15,8.95 0,0.25 0.25,0.5 0.2,0.2 0.55,0.2 27.45,-1.4 47,20.55 l -5.75,2.2 q -0.25,0 -0.45,0.2 l -3.85,1.4 4.15,0 19.55,20.15 -5.2,0 q -0.25,0 -0.5,0.25 -0.25,0.25 -0.25,0.5 0,0.3 0.25,0.55 3,3 5.75,11 1.8,5.2 5.65,18.5 l 0,0.05 q 5.991406,19.40703 14.85,35.8 4.7373,8.7832 10.3,16.7 2.25,3.35 1.4,8.05 l 0.05,-0.05 q -0.8,4.3 -3.85,7.8 -3,3.3 -7.5,3.3 l -0.4,-0.05 -3.75,0 q -0.42793,0.67207 -4.05,2.7 -3.621875,2.02734 -12.4,1.25 0.09277,0.26836 0.4,0.4 1.9,0.85 4.85,0.8 0.1,5.15 4.25,8.35 4.15,3.1 8.3,2.05 l 0,0.1 q -0.643555,1.97988 -1.45,3.85 0.523828,0.0996 2.5,0.2 l -0.3,0.75 q -0.4,0.7 -0.1,1.85 -4.922266,3.11738 -9.7,5 -1.017188,0.3998 -2.05,0.75 l -0.05,0 -0.1,0.05 q -8.6,2.8 -16.35,1.35 l -0.25,-0.05 q -9.820117,-2.04375 -18.3,-11 l -1.35,3.65 q -3.5,-5.2 -5.3,-10.25 l -0.1,-0.25 q -4.533008,-12.56016 1.65,-25.8 -0.120313,0.003 -0.25,0.1 l -6.05,2.75 q 3.45,-7.9 11.1,-12.25 8.99707,-5.06445 19.7,-5.65 1.65918,-0.0693 3.35,-0.05 1.533594,0.0195 3.1,0.1 -14.254297,-2.8627 -26.9,4.3 -8.9,5.1 -12.45,14.7 -0.01973,0.0687 -0.05,0.1 l 6.7,-1.7 q -5.3,9.95 -2.1,21.35 l -1.35,-1.2 q -1.346484,-1.19121 -3.35,-2.1 -1.865234,-0.79551 -4.3,-1.35 -4.5,-1.15 -9.65,-1.5 l -0.05,0 -0.8,-0.1 -0.05,0 q -5.45,-0.35 -10,-1.45 -4.4,-1.15 -7.75,-4.05 -1.465625,-1.04219 -2.15,-1.65 -0.00312,0.16406 0.05,0.35 l 2.15,5.15 q -1.45,-1.05 -3.4,-1.85 -4.2,-1.85 -7,-5.85 3.5802734,-2.80449 7,-5.05 2.1644531,-1.39551 4.25,-2.6 5.848438,-3.29648 11.3,-4.95 l 1.45,7.85 q 6.15,-13.6 17.95,-22.4 12.05,-9.05 18.25,-18.7 3.953711,-6.23594 5.3,-13.7 -1.40332,3.48652 -4.2,8.75 -6.438867,12.16152 -18.75,21.3 -12.252734,9.14668 -18.5,21.2 l -0.55,-6 q -0.180664,-0.0439 -0.4,0 -11.4,3.2 -24.55,13.5 l -0.1,0.1 -1.5,1.2 q -4.85,3.8 -6.95,7.95 l -1.25,-7.4 q -0.161914,0.14746 -0.2,0.3 l -5.75,13.95 -5.45,-10.9 q -0.2,-0.3 -0.35,-0.35 -0.25,-0.15 -0.45,-0.1 -0.3,0.1 -0.4,0.25 -0.15,0.1 -0.25,0.4 l -2.15,12.95 -4.5,-10.3 q -0.1,-0.25 -0.35,-0.35 -0.2,-0.15 -0.5,-0.05 -0.35,0.1 -0.45,0.25 l -3.85,5.2 -0.05,-1.6 q 0.15,-8.35 7.45,-15.65 0.2,-0.2 0.2,-0.55 0,-0.3 -0.2,-0.5 -0.25,-0.25 -0.55,-0.25 l -5.85,0 11.05,-8.3 0.05,0 0.05,-0.05 0.05,0 0.05,-0.05 5.75,-4.35 q 0.25,-0.15 0.3,-0.35 0.05,-0.15 -0.05,-0.45 l -0.25,-0.4 q -0.2,-0.15 -0.45,-0.15 l -4.35,0 q 7.005664,-5.33574 12.75,-10.35 20.4019531,-17.51992 25.45,-30.65 1.153906,-2.88652 2.15,-5.4 l 0,-0.05 q -10.91816406,20.70996 -28.3,35.6 -3.533398,3.01875 -7.35,5.8 -3.690625,2.71133 -7.65,5.2 -0.2,0.05 -0.3,0.35 -0.05,0.25 0,0.45 0.1,0.3 0.25,0.4 0.25,0.15 0.45,0.15 l 4.65,0 -3.55,2.75 q -8.8,-6.1 -8.6,-14.4 4.107227,-0.69297 8,-2.1 4.598242,-1.65527 8.9,-4.3 13.6105469,-8.37031 24.25,-26.65 0.15,-0.35 0.1,-0.55 l 0,-0.05 Q 2.4,308.6 2.1,308.4 q -0.25,-0.15 -0.6,-0.05 -0.3,0.1 -0.45,0.35 -0.85761719,1.47324 -1.75,2.85 -16.138867,25.9457 -38.95,29.55 -14.6,2.15 -31.85,-4.65 l -0.05,0 q -33.1,-10.9 -26.2,-42.85 1.4,0.9 3.5,2.05 0.4,0.1 0.6,0.05 0.3,-0.05 0.45,-0.4 0.1,-0.4 0.05,-0.55 -0.05,-0.35 -0.4,-0.45 -2.35,-1.2 -4.25,-2.55 l -0.2,-0.1 -0.3,-0.2 -0.05,-0.05 q -2.25,-1.6 -2.8,-4 -0.5,-2.65 1.25,-4.7 1.7,-2 4.1,-1.65 6,2.6 12.5,5.1 l 0.05,0 0.1,0.05 Q -13.4,312.8 3.3,276 q 0.014063,-0.051 1.5,0.85 0.5503906,0.31465 0.9,0.65 0.4826172,0.43301 0.65,0.9 -0.3046875,-1.22813 -0.85,-2.15 -0.8179688,-1.50195 -2.2,-2.15 -2.0722656,-1.05059 -5.4,0.15 -0.1068359,0.0365 -0.2,0.1 0.9794922,-0.0635 2.3,0.35 1.9810547,0.61191 1.95,0.7 -15.95,34.4 -80.8,10.8 11.9,-0.2 18,-3.05 7.55,-3.5 6.9,-10.7 -0.1,-0.4 -0.25,-0.5 -0.25,-0.25 -0.55,-0.2 -0.35,0.05 -0.5,0.3 -0.25,0.25 -0.2,0.55 0.5,6.2 -6,9.2 -6.9,3.15 -21.4,2.9 -6.05,-2.3 -12.45,-5.1 l -0.15,-0.05 q -3.25,-0.6 -5.6,2.2 -2.25,2.6 -1.55,5.95 l 0,0.05 q 0.7,3 3.4,4.9 l -0.05,-0.05 0.15,0.1 q -7.6,33.7 27.1,45.15 l -0.05,0 q 16.6,6.6 30.85,5 l -14.75,20.4 -0.15,0.45 0.15,0.45 q 0.15,0.2 0.4,0.3 0.15,0.05 0.45,-0.05 l 4.9,-1.8 -9.55,13.3 q -0.15,0.25 -0.15,0.45 0,0.2 0.15,0.4 0.15,0.2 0.4,0.3 0.2,0.05 0.5,-0.05 l 0.5,-0.2 q -5.85,6.8 -8.15,17.65 l 0,-0.05 q -5,18 -19.3,23.5 -0.25,0.1 -0.3,0.2 l -0.15,0.25 q -1.65,4.9 0.35,7.7 1.75,2.8 6.9,3.7 2.2,4 5.05,4.8 2.8,0.85 6.15,-1.2 l -0.1,-0.15 q 0.08438,0.0818 0.15,0.1 l -0.05,0.05 q 2.1,3.3 9.2,2.35 0.55,1.35 2.35,2.5 3.361719,3.05957 8.15,3 1.550195,0.0301 3.25,-0.3 3.004102,3.0668 7.55,2.3 2.726367,-0.4041 6,-2.2 3.952734,2.70781 8.4,2.05 2.711914,-0.37656 5.6,-2 3.35,3.35 6.5,2.6 3.3,-0.65 6.3,-5.7 l 3.9,-6.5 0.1,-0.45 q 0,-0.2 -0.15,-0.45 l -8.85,-10.2 q -0.25,-0.25 -0.55,-0.25 -3,-0.2 -4.1,1.05 -0.5,0.45 -0.75,1.2 l -4.25,-5.5 q 5.75,-3.1 4.75,-8.75 -0.9,-5.6 -8.7,-13.95 l 0.65,-3.85 4.9,-11.9 0,7.7 q 3.249805,-6.51191 9.4,-11.45 l 0.95,-0.75 q 2.8980469,4.3 7.1,6.05 4.2558594,1.7998 6.95,3.25 0.5515625,0.29687 0.95,0.5 -0.033203,-0.0887 -0.1,-0.2 l -0.1,-0.1 q -1.35,-2.3 -2.05,-3.7 2.85,1.85 6.15,2.65 4.5,1.05 10,1.5 -1.9,4.5 -1.6,9.15 0.25,4.55 2.5,8.65 0.05,0.15 0.35,0.35 0.3,0.1 0.45,0.05 0.3,-0.1 0.4,-0.25 l 0.2,-0.4 q 0.4,-2.95 1.5,-5.35 0.4,3.95 2.65,7.45 2.65,4.1 6.25,7.25 l 0,-0.05 q 3.2,2.85 7.45,2.75 l 0.35,-0.1 0.3,-0.3 0.05,-0.35 q -0.05,-2.45 0.15,-4.75 5.7,6.55 15.6,5.4 l 3.7,-0.1 q 4.05,-0.35 7.1,-3.2 7.4,1.3 15.4,-1 -1.75,4.3 -3.2,7.2 -1.7,3.35 -6.7,4.4 -5.3,1 -16.55,-2.45 -0.2,-0.05 -0.45,0 -0.25,0.1 -0.35,0.25 l -0.2,0.35 q -1.2,9.45 2.8,13 3.6,3.4 11.65,1.5 -0.6,2.35 0.45,3.7 1.15,1.8 4.4,1.85 l 0.25,0 q 0.9,0 1.4,-0.35 1.55,1.05 5.9,-0.1 3.3,1.85 6.2,0.75 l 1.25,-0.35 q 1.65,1.2 3.5,1.2 l 0.6,-0.1 1.1,-0.4 q 1.35,-0.7 1.7,-2 0.4,-1.65 0.05,-2.1 l 1.45,-1.2 q 1.85,-2.1 -0.1,-5.35 -1.915625,-3.04531 -2.75,-5.45 0.223047,0.0252 0.4,0.05 0.203516,0.0268 0.35,-0.05 l 0.05,0 q 0.151953,0.15195 0.3,0.25 0.08535,0.14473 0.2,0.25 1.467773,1.44082 4.7,1.1 0.24063,-0.0234 0.4,-0.15 l 0.2,0.1 q 3.25,1.5 8,0.9 l 0.35,-0.15 q 4.15,-3.05 4.5,-5.7 0.45,-2.15 -1.65,-5.4 l -0.05,-0.05 q -2.85,-3.65 -4.5,-6.3 -3,-4.5 -4.6,-9.6 -0.0246,-0.18711 -0.15,-0.35 -0.0805,-0.10684 -0.2,-0.2 0.30508,0.13535 0.35,0.45 l 0,0.1 0.15,-1.85 q 0.1,-2.1 -1.35,-3.4 l -0.05,-0.05 q -0.5,-0.5 -0.9,-0.7 l -3.05,-12 q 4.65,-0.3 7.75,-3.8 l 0.05,0 q 3.25,-3.8 4.15,-8.5 1,-5.3 -1.65,-9.15 Q 94.95,336.75 85.7,307.1 81.75,293.55 80,288.5 77.7,281.6 75.05,278.2 l 5.25,0 q 0.35,0 0.55,-0.2 0.2,-0.2 0.2,-0.55 0,-0.3 -0.2,-0.5 L 60.55,256 66.4,253.75 q 0.25,-0.1 0.4,-0.3 L 66.9,253 q 0,-0.2 -0.15,-0.45 -20.05,-23.1 -48.2,-21.85 -0.75,-6.05 -5.75,-9.4 l -0.05,0 Q 10.3,219.65 7.2,219.5 l -0.05,0 q -1.6,0 -3.25,0.15 0.8,-1.2 2.15,-2.5 l 0.25,-0.4 Q 6.35,216.6 6.25,216.3 6.2,216.1 5.95,216 m 89.4,164.5 3.2,0.1 2.9,11.5 q -1.5,-0.15 -3.2,1 -0.2,-0.3 -0.45,-0.35 -0.3,-0.1 -0.55,0 -4.1,1.7 -8.2,-1.35 -3.55,-2.75 -3.65,-7.25 1.05,-0.05 2.35,-0.3 4.95,-0.85 7.6,-3.35 m 3.5,14.25 0.05,-0.05 q 1.85,-1.55 3.5,-0.9 l 0.05,0.05 0.1,0.05 q 0.35,0.15 0.75,0.55 1,0.85 0.9,2.25 l 0,0.05 -0.15,1.85 0,0.05 q -0.48535,3.29805 -2.5,6.55 l 0,0 q -2.665625,4.50234 -4.5,8.2 -0.02422,0.13066 -0.05,0.25 -0.193945,0.22812 -0.25,0.55 -0.03965,0.052 -0.1,0.1 -1.7375,3.85977 -1.75,6.5 -0.05254,0.48359 0.05,1.2 0.03203,0.12441 0.05,0.25 l 0,0.05 0.05,0.05 0,0.1 0.05,0.05 0,0.2 0.05,0.1 0.05,0.2 q 0.65,2.6 3.15,6.65 1.1,1.85 0.8,3.1 -0.02246,0.10449 -0.1,0.2 -0.511328,0.48301 -1.1,0.8 -0.219727,-0.0315 -0.35,0.05 l -0.85,-0.1 q -0.85,-0.05 -1.6,-0.8 l -0.75,-0.7 0.1,0.45 q 0.5,1.3 1.85,2.1 l 0.3,0.15 -0.05,0 q 0.479297,0.1668 0.55,0.65 0.120703,0.66699 -0.55,1.95 -0.4,0.55 -1,0.75 -1.7,0.4 -3.15,-0.6 l -1.1,-0.8 -1.2,-1.45 q -1.2,-1.45 -1.8,-4.6 l -0.15,-0.65 -0.1,0.3 q -0.391602,2.83984 0.55,5 0.547266,1.14531 1.45,2.1 -1.3,0.75 -3.1,0.4 -2.15,-0.45 -2.8,-1.45 -0.05,-0.15 -0.05,-0.05 -1.308398,-1.84141 -1.05,-4.15 0.03926,-0.076 0.05,-0.15 0.2,-1.75 0.95,-3 -2.3,1.65 -2.55,3.7 -0.285938,1.63418 0.7,3.45 0.257422,0.4293 0.55,0.85 -3.1,1.3 -4.65,-1.05 -1.45,-2.25 -0.15,-5.15 1.1,-2.45 1.8,-3 -4.3,2.1 -3.4,7.7 0.15,0.85 0.55,1.65 l -0.3,0.05 -0.05,0 0,0 q -2.6,0.1 -3.45,-1.2 -0.7,-2.05 -0.05,-4 0.386719,-1.24492 0.85,-2.25 1.523633,-3.10547 3.95,-3.75 -4.9,1 -5.95,5.5 -7.65,2 -11.05,-0.95 -3.25,-3.1 -1.7,-10.55 10.45,3.1 15.7,1.95 5.7,-1.2 7.75,-5.2 1.95,-4 3.7,-8.45 5.95,-2.05 12.2,-6.05 l 0.1,-0.05 q 1.1125,-1.14453 1.15,-1.8 l -1.05,0.25 q -0.05,-0.3 0.05,-0.6 l 0,-0.05 q 0.793359,-2.94238 0.05,-2.8 l -1.45,0 0.7,-2 0.75,-0.6 m 6.7,4.1 0,0.05 -0.05,0.3 q 0.0223,-0.15684 0.05,-0.35 m -2.7,7.1 0,0.05 q 1.38867,-2.25488 2.1,-4.55 1.55703,4.06035 3.95,7.6 1.65,2.5 4.55,6.4 1.65,2.5 1.4,4.3 -0.5,2.95 -3.7,4.4 -1.70918,0.42715 -2.9,0.55 -0.65293,0.0883 -1.15,0.05 -0.18633,0.0176 -0.35,0 -2,-0.2 -2.25,-1.25 -0.2,-0.95 1.25,-3.05 1.45,-2 3,-1.8 -2.8,-0.45 -4.8,2.15 -1.31387,1.64219 -0.95,2.7 -0.10996,-0.01 -0.25,0 -2.31328,0.24805 -3.45,-0.65 l 0,0 -0.5,-0.75 q -0.55,-1.95 1.5,-3.55 1.9,-1.5 2.95,-1.85 -1.7,-0.65 -3.8,0.85 -2.788672,1.78652 -2.3,4.35 -0.273633,0.009 -0.6,0.05 -0.03691,0.006 -0.1,0 l 0,0 q -0.08887,-0.60938 -0.05,-1 0.0021,-0.0141 0,-0.05 0.01211,-2.41387 1.6,-5.95 l 0.05,-0.05 0.05,0 0,-0.05 q 0.25,-0.4 0.4,-0.85 l -0.05,-0.05 q 1.80156,-3.61289 4.4,-8 m -167.9,-11.15 0,-0.05 q 2.6,-12.4 10.1,-19.35 l 2.65,-1.05 0,10.5 q 0,0.25 0.15,0.45 0.15,0.2 0.4,0.3 0.2,0.05 0.5,-0.05 0.2,-0.05 0.35,-0.3 l 1.75,-3 1.75,-3 3.9,4.75 q -0.05,1.5 0.25,3.35 l 0,0.05 q 0.7,15.3 -4.4,23.6 l -0.2,0.35 -0.1,0.35 q 0.25,6.25 -5.1,14.25 l -2.55,3.5 q 1.8,-7.6 -1.05,-15.65 -0.1,-0.3 -0.35,-0.4 -0.25,-0.15 -0.6,-0.05 -0.3,0.1 -0.4,0.4 -0.135156,0.18027 -0.1,0.45 0.04004,0.0654 0.05,0.1 3.25,9.25 0.1,17.7 -0.9,1.2 -0.95,2.2 -1.855664,0.24844 -3.3,0.15 -3.333203,-0.16699 -4.5,-2.1 4.795898,-8.76934 3.25,-19.1 -0.04844,-0.31094 -0.3,-0.5 -0.247266,-0.19082 -0.55,-0.15 -0.310547,0.048 -0.5,0.3 -0.19043,0.24766 -0.15,0.55 0.316406,2.09062 0.35,4.1 0.172852,7.52285 -3.45,14.1 l 0,0 q -0.3,0.2 -0.5,0.45 -2.740234,1.68926 -4.95,1.1 -0.594141,-0.19375 -1.15,-0.55 -1.601953,-1.01367 -2.9,-3.35 8,-8 8.5,-17.4 0,-0.35 -0.2,-0.55 -0.25,-0.25 -0.5,-0.25 -0.05137,0 -0.1,0 -0.279492,0.0295 -0.45,0.2 -0.226953,0.22695 -0.25,0.45 l 0,0.05 q -0.5,8.95 -8.2,16.55 -4.4,-0.85 -5.95,-3 -0.06406,-0.10371 -0.15,-0.2 -1.24707,-2.31348 -0.1,-5.85 14.65,-5.8 19.9,-24.4 m 35.8,-14.7 1.45,2.9 3.6,7.25 -0.7,4.05 q -0.05,0.1 0.05,0.35 l 0.15,0.3 q 7.6,8.05 8.55,13.35 0.75,5 -4.7,7.6 -0.3,0.1 -0.35,0.3 -0.126367,-0.1416 0.75,-1.65 0.867773,-1.51094 -1.05,-7.65 -1.857617,-6.09727 -8.3,-10.55 2.197656,-6.04375 2,-13.35 l -1.45,-2.9 -2.25,13.25 -0.2,0.4 -0.45,0.2 q -0.2,0.05 -0.45,-0.1 -0.25,-0.1 -0.35,-0.35 l -4.95,-11.45 -4.1,5.45 q 0.7,15.85 -4.65,24.3 l 0,0.05 -0.05,0 q 0.25,6.5 -5.35,14.95 -1.15,1.7 -3.4,4.55 l -0.05,0.05 q -0.45,0.5 -1.45,1.4 l 0,0.05 q -0.75,0.95 -0.65,1.8 l 0.05,0.2 q 0.2,1.1 1.9,2.15 l 0.1,0.05 q 3.289258,2.96035 8.05,2.65 1.507227,-3.19863 4.4,-6.8 0.04375,-0.14922 0.05,-0.35 1.807031,-7.33906 0.35,-14.35 -0.06269,-0.41191 -0.15,-0.85 -0.05391,-0.16211 -0.1,-0.35 -0.1,-0.35 0.05,-0.55 0.15,-0.3 0.5,-0.35 0.25,-0.1 0.55,0.05 0.3,0.2 0.35,0.5 2.75,11.15 -2.45,23.3 2.771484,2.63809 7.1,1.6 0.87793,-3.46484 1.2,-7.25 0.7,-7.95 -0.5,-15.65 -0.2,-0.25 -0.1,-0.55 0.05,-0.35 0.3,-0.5 0.2,-0.2 0.55,-0.1 0.25,0.05 0.5,0.3 6.45,9.3 4.2,21.95 3.772461,2.5707 8.05,1.7 0.347656,-3.37383 -0.65,-9.4 -1.245313,-7.52188 -5.45,-13.8 -0.182422,-0.22832 -0.4,-0.45 -0.25,-0.25 -0.25,-0.55 0,-0.25 0.25,-0.5 0.25,-0.25 0.5,-0.25 0.3,0 0.55,0.25 8.5,8.65 11.35,23.05 2.8,2.85 5.4,2.4 2.7,-0.65 5.3,-5 l 3.65,-6.05 -8.3,-9.55 q 0.366406,6.77793 2.85,10.3 l 0.5,0.65 q 0.25,0.25 0.15,0.55 -0.05,0.25 -0.3,0.5 -0.25,0.25 -0.55,0.15 -0.25,-0.05 -0.5,-0.3 l -6.25,-8.2 -0.05,-0.05 0,-0.05 -6.3,-8.15 q -0.15,-0.2 -0.15,-0.4 l 0.1,-0.4 q 0.05,-0.2 0.35,-0.3 5.45,-2.6 4.7,-7.6 -0.95,-5.3 -8.55,-13.35 l -0.15,-0.3 q -0.1,-0.25 -0.05,-0.35 l 0.7,-4.05 -3.6,-7.25 q 0.197656,7.30625 -2,13.35 6.442383,4.45273 8.3,10.55 1.917773,6.13906 1.05,7.65 -0.876367,1.5084 -0.75,1.65 l -0.1,0.4 q 0,0.2 0.15,0.4 l 6.3,8.15 0,0.05 0.05,0.05 6.25,8.2 q 0.25,0.25 0.5,0.3 0.3,0.1 0.55,-0.15 0.25,-0.25 0.3,-0.5 0.1,-0.3 -0.15,-0.55 l -0.5,-0.65 -5.7,-7.45 q -0.45,-1.6 0.2,-2.25 0.75,-0.65 2.65,-0.6 l 8.3,9.55 -3.65,6.05 q -2.6,4.35 -5.3,5 -2.6,0.45 -5.4,-2.4 -2.85,-14.4 -11.35,-23.05 -0.25,-0.25 -0.55,-0.25 -0.25,0 -0.5,0.25 -0.25,0.25 -0.25,0.5 0,0.3 0.25,0.55 0.217578,0.22168 0.4,0.45 7.823438,8.21445 10.5,21.5 -2.259766,1.2793 -4.4,1.7 -4.277539,0.8707 -8.05,-1.7 2.25,-12.65 -4.2,-21.95 -0.25,-0.25 -0.5,-0.3 -0.35,-0.1 -0.55,0.1 -0.25,0.15 -0.3,0.5 -0.1,0.3 0.1,0.55 6.1,8.9 4,20.95 -2.541016,1.42832 -4.7,1.95 -4.328516,1.03809 -7.1,-1.6 5.2,-12.15 2.45,-23.3 -0.05,-0.3 -0.35,-0.5 -0.3,-0.15 -0.55,-0.05 -0.35,0.05 -0.5,0.35 -0.15,0.2 -0.05,0.55 0.04609,0.18789 0.1,0.35 0.08731,0.43809 0.15,0.85 1.457031,7.01094 -0.35,14.35 -0.0063,0.20078 -0.05,0.35 -0.820313,3.25176 -2.25,6.55 -1.101563,0.21328 -2.15,0.25 -4.760742,0.31035 -8.05,-2.65 l -0.1,-0.05 q -1.7,-1.05 -1.9,-2.15 l -0.05,-0.2 q -0.1,-0.85 0.65,-1.8 l 0,-0.05 q 1,-0.9 1.45,-1.4 l 0.05,-0.05 q 2.25,-2.85 3.4,-4.55 5.6,-8.45 5.35,-14.95 l 0.05,0 0,-0.05 q 5.35,-8.45 4.65,-24.3 l 4.1,-5.45 4.95,11.45 q 0.1,0.25 0.35,0.35 0.25,0.15 0.45,0.1 l 0.45,-0.2 0.2,-0.4 2.25,-13.25 m -39.05,52.35 q 0.05195,0.099 0.1,0.15 l -0.05,-0.05 -0.05,-0.1 z"
         id="path10333"
         style="fill:#000000;stroke:none"
         inkscape:connector-curvature="0" />
      <path
         d="m -39.2,257.3 -0.1,-0.35 -1.45,0.45 q -0.2,1.95 0.75,3 1.2,1.05 3.7,1.1 l 0.65,-1.25 0.1,-0.25 -1,0.1 q -1.35,-0.15 -1.95,-1.05 -0.6,-0.95 -0.7,-1.75 m 3.55,-1.05 q -0.2,0.2 -0.2,0.45 0,0.25 0.2,0.45 0.2,0.2 0.45,0.2 0.25,0 0.45,-0.2 l 0.05,-0.05 0.05,-0.7 -0.1,-0.15 q -0.2,-0.2 -0.45,-0.2 -0.25,0 -0.45,0.2 m 30.9,-6.3 0,-0.05 -0.05,-0.45 -0.05,-0.05 q -0.25,-0.25 -0.6,-0.25 -0.3,0 -0.65,0.25 -0.25,0.35 -0.25,0.65 0,0.35 0.25,0.6 0.3,0.3 0.65,0.3 0.4,0 0.6,-0.3 l 0.1,-0.7 m 3.65,0.45 q -0.05,-0.85 -0.5,-1.8 l -1.8,0.25 0.15,1 0,0.1 q -0.05,1.9 -1.3,3.2 l 0,0.05 q -1.25,1.35 -3.25,1.35 -1.85,0 -3.2,-1.35 -1.2,-1.35 -1.25,-2.85 -5.5,1 -10.9,2.25 l -0.2,0.05 q 0.4,2.85 3.7,4.55 3.5,1.75 8.1,1.3 4.55,-0.45 7.65,-2.8 3.1,-2.4 2.8,-5.3 z"
         id="path10335"
         style="fill:#ffffff;stroke:none"
         inkscape:connector-curvature="0" />
      <path
         d="m 2.35,217.65 -0.05,0 -3.45,0.6 0.05,0 -2.35,0.4 q -1.35,0.15 -2.7,0.45 -0.15,0.05 -0.45,-0.05 -0.3,-0.2 -0.35,-0.35 -0.65,-1.25 -0.6,-2.7 0.15,-1.3 0.7,-2.6 -1.6,0 -2.9,1.15 l 0.05,0 q -1.1,1 -1.4,2.7 l -0.65,3.8 q -0.1,0.35 -0.25,0.5 -0.2,0.15 -0.5,0.15 -0.3,0 -0.5,-0.2 l -0.55,-0.55 q -1.35,-1.4 -1.95,-3.45 l -1,-3.05 -0.15,1.15 q -0.15,1.9 -0.1,3.4 0.05,1.6 -0.05,2.65 1.778125,1.34062 2.7,3.25 -4.328906,-3.025 -6.55,-2.6 l -4.9,0.45 q 0.7,0.4 1.1,0.75 1.45,1.2 2.9,2.8 l 1.45,1 q -0.73418,0.32051 -1.2,0.6 l -0.15,0.1 q -6.5,3.85 -2.7,15 l 12.05,-1.6 q 4,-0.55 5.3,-1.3 0.2,-0.15 0.55,-0.05 0.3,0.1 0.4,0.25 3.4,-2.65 7.65,-2.95 5.4,-0.3 6.9,5.1 0.7,2.3 -0.1,4.1 l 0.05,0.1 -0.05,0 q -0.95,1.4 -1.35,1.75 -0.9,0.9 -2.2,4 3.25,0.1 3,3.95 -0.2,3.85 -2.35,6.05 -2.05,2.3 -4.75,3.2 l -0.1,0.05 q -0.8,0.2 -1.6,0.15 l 4.95,0.75 q 2.8,0.6 5.7,0.6 -1.1,0.6 -5.45,3.2 2.4,0.8 4.65,1.25 l 1.1,0.1 -0.45,0.45 q -1.4,1.4 -1.7,3.25 2.8,-0.05 5.7,-0.65 -0.85,2.4 -1.8,4.45 -0.95,2.15 -2.95,4.6 -1.95,2.4 -3.6,3.45 3.25,0.25 5.55,-1.65 1.041797,-0.89297 1.25,-1.65 l -1.15,4.6 q -0.65,2.05 -2,3.7 -1.1,1.4 -3.1,3.2 -1.0503906,0.8666 -3.2,1.85 -1.92480469,0.9291 -4.75,1.95 2.70039063,0.94512 5.65,1.05 1.4216797,0.0799 2.9,-0.05 2.2,-0.25 3.45,-1.1 l 0.15,-0.1 0.1,0.1 0.3,0.2 -0.05,0.25 q -0.7,6.8 -7,8.95 l -1.05,0.35 0,0 q 0.05,0.2 -0.1,0.55 -10.6394531,18.27969 -24.25,26.65 0.25,1.95 2.15,3.45 1.537695,1.17363 3.05,2.25 17.38183594,-14.89004 28.3,-35.6 l 0,0.05 -5.65,20.25 -11.15,15.7 -11.15,6.6 -5.4,15.3 -7.4,0 -12.85,19.6 0.05,1.6 3.85,-5.2 q 0.1,-0.15 0.45,-0.25 0.3,-0.1 0.5,0.05 0.25,0.1 0.35,0.35 l 4.5,10.3 2.15,-12.95 q 0.1,-0.3 0.25,-0.4 0.1,-0.15 0.4,-0.25 0.2,-0.05 0.45,0.1 0.15,0.05 0.35,0.35 l 5.45,10.9 5.75,-13.95 q 0.03809,-0.15254 0.2,-0.3 l 1.25,7.4 q 2.1,-4.15 6.95,-7.95 l 1.5,-1.2 0.1,-0.1 q 13.15,-10.3 24.55,-13.5 0.219336,-0.0439 0.4,0 l 0.55,6 q 6.247266,-12.05332 18.5,-21.2 12.311133,-9.13848 18.75,-21.3 2.79668,-5.26348 4.2,-8.75 -1.346289,7.46406 -5.3,13.7 -6.2,9.65 -18.25,18.7 -11.8,8.8 -17.95,22.4 L 16.5,360.4 q -5.451562,1.65352 -11.3,4.95 7.957617,10.50078 20.9,11.85 7.1,0.8 10.8,8.1 l 0,0 q 2.003516,0.90879 3.35,2.1 l 1.35,1.2 q -3.2,-11.4 2.1,-21.35 l -6.7,1.7 q 0.03027,-0.0312 0.05,-0.1 3.55,-9.6 12.45,-14.7 12.645703,-7.1627 26.9,-4.3 -1.566406,-0.0805 -3.1,-0.1 -1.69082,-0.0193 -3.35,0.05 -5.855469,0.57832 -10.4,4.3 -6.15,5 -9.85,10.8 2.3,0.2 4.6,-0.25 1.2,-0.2 2.4,-0.55 -2.75,3.1 -5.3,9.15 -3.55,8.6 -0.2,16.55 0.9,2.15 1.8,4.45 1.4,-2 4.1,-3.05 0.3,4.9 6.2,8.1 10.899023,5.97207 24.35,7.1 4.777734,-1.88262 9.7,-5 -0.3,-1.15 0.1,-1.85 l 0.3,-0.75 q -1.976172,-0.10039 -2.5,-0.2 0.806445,-1.87012 1.45,-3.85 l 0,-0.1 q -4.15,1.05 -8.3,-2.05 -4.15,-3.2 -4.25,-8.35 -2.95,0.05 -4.85,-0.8 -0.307227,-0.13164 -0.4,-0.4 8.778125,0.77734 12.4,-1.25 3.62207,-2.02793 4.05,-2.7 l 3.75,0 0.4,0.05 q 4.5,0 7.5,-3.3 3.05,-3.5 3.85,-7.8 l -0.05,0.05 q 0.85,-4.7 -1.4,-8.05 -5.5627,-7.9168 -10.3,-16.7 -0.2,0.85 -0.45,1.7 -0.8,2.5 -2.6,4.4 -0.8,0.8 -1.5,1.7 0.65,0.2 1.35,0.45 0.6,0.2 1.25,0.45 2.35,1.1 3.95,3.2 1.55,2.05 2.25,4.25 L 90.6,354.75 q -0.8,-4.8 -4.1,-8.35 -1.3,-1.35 -3,-2.2 -5.2,-2.55 -11.1,-2 7.8,-1.2 15.2,1.3 l -2,-14.1 q 1.25,1.75 2.5,3.55 3.75,5.55 5.75,11.65 l 5.25,-1.25 q -8.858594,-16.39297 -14.85,-35.8 l 0,-0.05 Q 80.4,294.2 78.6,289 q -2.75,-8 -5.75,-11 -0.25,-0.25 -0.25,-0.55 0,-0.25 0.25,-0.5 0.25,-0.25 0.5,-0.25 l 5.2,0 -19.55,-20.15 -4.15,0 3.85,-1.4 q -0.85,-0.7 -1.8,-3.05 -2.654492,-6.45605 -8.25,-9.85 -5.536523,-3.33203 -15,-6.9 -9.467969,-3.52402 -20.7,-0.95 0.25,-2.05 -0.4,-3.7 -3.3486328,-9.24629 -13.25,-9.1 0.26445312,-0.01 2.1,-0.65 l 0.25,-0.05 q -0.15,-0.2 -0.05,-0.45 0,-0.25 0.2,-0.4 l 0.55,-0.75 q 0.6,-1.05 1.3,-1.8 l -1.3,0.15 m 27,26.25 0,-0.05 q 3.212695,4.86992 0.05,9.25 l 0,0.05 q -2.301367,3.13594 -4.95,3.4 -2.649609,0.35234 -5.6,-2.2 -0.173047,-0.13242 -0.25,-0.35 0.279297,-0.19648 0.6,-0.45 2.058008,-1.60566 2.4,-2.65 0.235937,-1.06836 -1.1,-2.75 -3.016992,-2.30547 -6.45,0 -0.009,-0.12422 0,-0.25 1.26582,-4.54004 5.3,-6.45 6.495898,-3.07012 10,2.45 m 23.4,28.5 q 4.5,4.9 7.2,10.8 l 2.95,-14.1 1.6,18.9 q 0.5,-0.05 1,-0.05 3,-0.2 5.5,1.6 l 3.45,2.65 q -2.85,2.9 -3.65,6.65 -0.25,1.2 -0.35,2.4 -0.05,0.55 -0.05,1.15 0,3.9 2.3,7 l -3.95,-0.55 q 0.65,7.55 -1.8,14.8 2.25,-9.3 -1.05,-18.35 -2.45,-6.7 -7.55,-11.7 l 2.5,-0.55 q -0.8,-1.3 -1.55,-2.55 -0.8,-1.35 -1.5,-2.7 -3.7,-7.3 -5.05,-15.4 m 7.45,32.35 q 5.86e-4,0.0844 0,0.15 -0.103906,-0.42637 -0.1,-0.55 0.1,0.17637 0.1,0.4 z"
         id="path10337"
         style="fill:#454545;stroke:none"
         inkscape:connector-curvature="0" />
      <path
         d="m 28.2,252.25 0,0 0,0 0,0 z"
         id="path10339"
         style="fill:#d1bca3;stroke:none"
         inkscape:connector-curvature="0" />
    </g>
    <filter
       inkscape:collect="always"
       id="filter3959"
       color-interpolation-filters="sRGB">
      <feGaussianBlur
         inkscape:collect="always"
         stdDeviation="2.3876755"
         id="feGaussianBlur3961" />
    </filter>
  </defs>
  <metadata
     id="metadata7">
    <rdf:RDF>
      <cc:Work
         rdf:about="">
        <dc:format>image/svg+xml</dc:format>
        <dc:type
           rdf:resource="http://purl.org/dc/dcmitype/StillImage" />
        <dc:title>Bingo das Letras</dc:title>
        <cc:license
           rdf:resource="" />
        <dc:rights>
          <cc:Agent>
            <dc:title>Copyright © 2002-2016. Portal Clickideia ® - Todos os Direitos Reservados</dc:title>
          </cc:Agent>
        </dc:rights>
        <dc:description>SVG game with snapSVG lib and other javascripts included</dc:description>
        <dc:language>pt_BR</dc:language>
        <dc:subject>
          <rdf:Bag>
            <rdf:li>Educativo</rdf:li>
            <rdf:li>ensino fundamental</rdf:li>
            <rdf:li>clickiéia</rdf:li>
            <rdf:li>letras</rdf:li>
            <rdf:li>lingua portuguesa</rdf:li>
            <rdf:li>infantil</rdf:li>
            <rdf:li>educational game</rdf:li>
            <rdf:li>game design</rdf:li>
            <rdf:li>multimidia</rdf:li>
          </rdf:Bag>
        </dc:subject>
        <dc:creator>
          <cc:Agent>
            <dc:title>http://www.clickideia.com.br/</dc:title>
          </cc:Agent>
        </dc:creator>
        <dc:publisher>
          <cc:Agent>
            <dc:title>http://www.clickideia.com.br/</dc:title>
          </cc:Agent>
        </dc:publisher>
        <dc:date>18/01/2016</dc:date>
        <dc:contributor>
          <cc:Agent>
            <dc:title>michel morandi - michel.morandi@clickideia.com.br</dc:title>
          </cc:Agent>
        </dc:contributor>
      </cc:Work>
    </rdf:RDF>
  </metadata>
  <g
     id="g3967">
    <g
       transform="translate(65.770618,7.7304156)"
       id="g3963">
      <path
         inkscape:connector-curvature="0"
         id="path3957"
         d="m -20.47905,99.739907 c -0.581691,-0.406985 -0.900201,-0.424265 -2.177647,-0.118148 -0.822963,0.197208 -1.99953,0.267821 -2.614587,0.156917 -1.431554,-0.258127 -2.512861,-0.258655 -4.598636,-0.0021 -1.270741,0.156218 -1.905101,0.08901 -2.613419,-0.276865 -0.514448,-0.265874 -1.559232,-0.483296 -2.321741,-0.483296 -1.488277,0 -2.211124,-0.284193 -3.547695,-1.394803 -0.46961,-0.390214 -1.245856,-0.705546 -1.736841,-0.705546 -0.488259,0 -1.357489,-0.196055 -1.931622,-0.435678 -0.679173,-0.283463 -1.547429,-0.376106 -2.485171,-0.265169 -1.337282,0.158207 -1.505121,0.101027 -2.325763,-0.792377 -0.486459,-0.529588 -1.45024,-1.211868 -2.141736,-1.516179 -1.636973,-0.720392 -2.25998,-1.687624 -2.140494,-3.323165 0.08667,-1.186322 0.204289,-1.344883 1.595471,-2.150805 3.462314,-2.005736 5.373802,-4.658569 7.026331,-9.751392 1.15227,-3.551104 2.171626,-5.870836 2.731768,-6.216641 0.167571,-0.103448 0.307439,-0.551434 0.310819,-0.99552 0.0038,-0.498503 0.635895,-1.666116 1.652097,-3.051746 0.905273,-1.234372 1.645951,-2.350881 1.645951,-2.481126 0,-0.130246 -0.323182,-0.155786 -0.718183,-0.05675 -0.395001,0.09903 -0.799527,0.04858 -0.898948,-0.11211 -0.09942,-0.160689 1.102376,-2.063812 2.670661,-4.229163 1.568285,-2.165348 2.851427,-4.050224 2.851427,-4.188607 0,-0.138386 -1.269023,-0.340716 -2.820051,-0.449622 -4.531463,-0.318184 -11.076087,-2.318141 -14.84213,-4.535581 -5.325049,-3.135376 -7.851771,-8.32681 -7.031886,-14.447798 0.328687,-2.453861 0.317935,-2.550726 -0.400484,-3.60821 -0.866585,-1.275574 -0.931192,-2.234308 -0.230422,-3.419307 0.991442,-1.676527 1.815123,-1.718581 5.430777,-0.277279 l 3.223036,1.284795 3.154003,-0.332557 c 3.788772,-0.399483 5.719294,-1.017207 6.916551,-2.213143 1.328346,-1.326881 1.21117,-2.394917 -0.458354,-4.177804 -1.525152,-1.628712 -1.632243,-2.084917 -0.694313,-2.957768 0.831171,-0.773499 1.911449,-0.774287 3.870824,-0.0028 1.160582,0.456954 1.647426,0.52542 1.950358,0.274286 0.334065,-0.276943 0.302357,-0.523559 -0.183818,-1.429654 -0.323138,-0.602245 -0.587523,-1.414136 -0.587523,-1.804208 0,-1.14401 0.892013,-2.695817 1.909362,-3.321656 1.008773,-0.620565 5.362601,-1.82898 6.589677,-1.82898 1.120884,0 1.424957,-0.565504 1.094358,-2.035268 -0.328083,-1.458595 0.01877,-3.436871 0.742656,-4.2358852 0.644408,-0.7112767 0.609642,-0.9096552 -0.331377,-1.8907822 -1.006073,-1.0489544 -0.748307,-1.3507946 1.417619,-1.6600151 1.612239,-0.2301732 1.645813,-0.2551701 1.72235,-1.2824167 0.137289,-1.8426159 0.392283,-2.997991141875 0.661662,-2.997991141875 0.144057,0 0.494226,0.607600761875 0.77815,1.350223941875 0.555468,1.4528632 0.890585,1.6784777 1.172985,0.7896961 0.270016,-0.8498018 1.112231,-1.48381644 2.115243,-1.59234201 0.848217,-0.0917767 0.901144,-0.0358237 0.901144,0.95267081 l 0,1.0501741 1.652097,-0.1239011 c 3.150909,-0.2363062 3.162044,-0.2346241 3.066096,0.4631698 -0.07251,0.5273212 0.11167,0.6754051 1.051335,0.8453128 1.7984928,0.3251987 3.2694628,1.4638062 4.0297428,3.1192309 l 0.674858,1.4694241 2.652865,0.200044 c 2.83549996,0.2138158 6.995606,1.2829624 9.047856,2.3252989 0.690189,0.350545 2.042139,1.170264 3.004335,1.821597 1.8883802,1.278289 5.9102752,4.934971 5.9102752,5.373585 0,0.147708 -0.477763,0.496137 -1.061695,0.774288 -0.583932,0.27815 -1.02324,0.670461 -0.976239,0.871802 0.047,0.201341 1.885938,2.264566 4.086525,4.584945 2.20059,2.320378 3.916049,4.356286 3.812135,4.524239 -0.103917,0.167953 -0.586476,0.305368 -1.072355,0.305368 -0.485878,0 -0.883415,0.072 -0.883415,0.16 0,0.088 0.323054,0.796868 0.717902,1.57526 0.394845,0.778395 1.355197,3.491304 2.134119,6.028687 3.346926,10.902836 6.10375,17.327775 10.310665,24.029617 2.5155,4.007324 2.850035,4.952168 2.436064,6.880309 -0.472316,2.199902 -1.759567,4.023991 -3.39924,4.81687 -0.8546,0.413246 -1.385785,0.868995 -1.385785,1.18898 0,0.855469 0.885497,3.702374 1.514549,4.86934 0.323466,0.600066 0.589442,1.410201 0.591055,1.800298 0.0039,0.934427 1.269213,3.618696 2.536317,5.380466 2.243884,3.119875 2.40202,3.963924 1.034207,5.520057 -0.824523,0.938043 -1.093562,1.058083 -2.327955,1.038712 -0.767634,-0.01206 -2.105345,-0.122864 -2.972696,-0.246257 -1.714345,-0.243892 -1.852569,-0.100531 -1.12643,1.16831 0.600531,1.049361 0.551842,2.001965 -0.179451,3.510948 -0.637973,1.316424 -1.540679,2.068805 -2.081534,1.734906 -0.162851,-0.100535 -2.086253,-0.253122 -4.274227,-0.339077 -4.129581,-0.162237 -5.11038,-0.442823 -5.466581,-1.563874 -0.148917,-0.468684 -0.539728,-0.596466 -2.134485,-0.697901 -2.515813,-0.160017 -3.562876,-1.075487 -4.055835,-3.546096 -0.400132,-2.00538 -0.0015,-3.487794 0.849271,-3.159254 0.286819,0.110745 1.526159,0.40949 2.754087,0.663878 2.435278,0.504516 4.511117,0.371269 5.630578,-0.361419 0.757943,-0.496075 2.357747,-3.385347 2.046585,-3.696166 -0.106374,-0.106257 -1.55025,-0.146661 -3.208616,-0.08979 -2.396841,0.0822 -3.23464,0.232728 -4.085161,0.733994 -0.869526,0.512467 -1.582468,0.633234 -3.806056,0.644708 -2.4140862,0.01245 -2.9237852,-0.08302 -4.3307402,-0.811287 -1.671859,-0.865382 -2.138907,-0.852087 -2.138907,0.06089 0,0.777003 -0.592902,0.912002 -1.966659,0.447795 -1.41886,-0.479444 -3.68609,-2.812217 -4.63379,-4.767743 -0.622176,-1.283823 -1.209464,-1.574571 -1.209464,-0.59877 0,0.237801 -0.186359,0.432365 -0.414129,0.432365 -0.763636,0 -1.238821,-1.83673 -1.217271,-4.705101 l 0.0207,-2.754778 -1.522606,-0.208432 c -0.83743,-0.11464 -2.067944,-0.372017 -2.734472,-0.571952 -0.8569428,-0.257053 -1.3579578,-0.271473 -1.7106628,-0.04924 -0.636742,0.401205 -3.750449,-1.026849 -4.93752,-2.264518 -0.447261,-0.466328 -0.978702,-0.847872 -1.18097,-0.847872 -0.202267,0 -1.193321,0.899961 -2.202341,1.99991 -1.687506,1.839584 -1.866347,1.956517 -2.230835,1.458599 -0.356568,-0.487095 -0.476345,-0.341478 -1.195845,1.453819 -0.439773,1.097321 -0.799588,2.337061 -0.799588,2.754973 0,0.419743 0.530407,1.461584 1.185028,2.327666 1.359234,1.798306 2.403351,3.941208 2.412951,4.952234 0.0078,0.824135 -0.436959,1.750914 -1.288329,2.684449 l -0.619092,0.678839 0.623762,0.82141 c 0.372729,0.490834 0.848544,0.782692 1.182295,0.725199 0.307191,-0.05291 0.897311,-0.164676 1.311375,-0.24836 0.639788,-0.1293 1.034486,0.175538 2.628336,2.029957 1.031521,1.200157 1.875493,2.40492 1.875493,2.677251 0,0.70722 -2.164728,3.957968 -3.152522,4.73411 -0.984076,0.773221 -2.155725,0.840511 -3.102395,0.178164 z m 42.009532,-5.529995 c 0.600501,-0.370724 0.891898,-0.07598 0.891898,0.902132 0,0.473554 0.23655,1.098749 0.525667,1.389321 0.501267,0.503786 0.529996,0.476929 0.618897,-0.57867 0.05128,-0.608837 0.229314,-1.106977 0.395647,-1.106977 0.16633,0 0.74861,0.472578 1.293955,1.050174 1.166243,1.235212 1.671553,1.330424 1.671553,0.314959 0,-0.404368 0.204451,-0.849504 0.454336,-0.989192 0.393904,-0.220197 0.353954,-0.500744 -0.300382,-2.109295 -0.512952,-1.260987 -0.754717,-2.426416 -0.754717,-3.638098 0,-1.624547 0.123271,-1.964624 1.38887,-3.831596 1.766572,-2.605995 2.501164,-4.19385 2.50949,-5.424378 0.0052,-0.767509 -0.117557,-0.975162 -0.576437,-0.975162 -0.828872,0 -0.941822,0.34239 -0.542107,1.64334 0.339998,1.106598 0.319245,1.1687 -0.664828,1.989336 -0.558682,0.465893 -1.865605,1.216891 -2.904272,1.668886 -1.820443,0.792194 -1.920665,0.893683 -2.781426,2.816615 -1.07823,2.408754 -2.204648,3.421656 -4.334612,3.897796 -1.31479,0.293914 -2.006511,0.276421 -3.833343,-0.09693 -2.682125,-0.548143 -3.064832,-0.340859 -2.225374,1.205324 1.096364,2.019374 4.332074,3.058335 4.812807,1.545355 0.204851,-0.64472 1.214979,-1.280897 1.628487,-1.025618 0.151762,0.09369 0.008,0.771854 -0.321029,1.514993 -0.399679,0.902535 -0.506858,1.504096 -0.325623,1.827583 0.209477,0.373907 0.310658,0.232913 0.450476,-0.627741 0.204211,-1.257013 0.677555,-1.956552 1.323907,-1.956552 0.347769,0 0.397203,0.254181 0.235444,1.210578 -0.140845,0.832737 -0.07877,1.362646 0.198883,1.697801 0.354158,0.427505 0.424934,0.331159 0.577411,-0.786007 0.09558,-0.700277 0.359466,-1.387868 0.586422,-1.527979 z m -60.891221,0.239973 c 0.625221,-1.277894 0.764467,-3.223689 0.408634,-5.710175 -0.233293,-1.630194 -0.212188,-1.725286 0.382911,-1.725286 0.773724,0 1.165539,0.932792 1.42222,3.385876 l 0.188175,1.798369 0.548221,-1.067412 c 0.757522,-1.474934 2.104293,-6.562865 2.360489,-8.917629 0.19227,-1.767209 -0.148481,-7.45032 -0.46571,-7.767199 -0.07182,-0.07174 -0.396714,0.110154 -0.721993,0.404203 -1.051314,0.950375 -1.514935,0.40591 -1.514935,-1.779106 0,-1.077857 -0.11161,-1.959739 -0.248021,-1.959739 -0.342034,0 -1.326679,1.116176 -2.249879,2.550423 -0.424901,0.660109 -1.330837,2.887979 -2.013192,4.950821 -0.682354,2.062842 -1.602355,4.424108 -2.044447,5.247258 -1.001944,1.865565 -3.812236,4.662419 -5.406301,5.38045 -1.29058,0.581329 -1.673497,1.324771 -1.252302,2.431376 0.85704,2.251696 3.76236,0.03422 4.980846,-3.801622 0.642882,-2.023817 0.944452,-2.368755 1.460647,-1.670704 0.725559,0.981175 -0.417354,4.424873 -2.202805,6.637245 -0.891194,1.104288 -0.916804,1.203739 -0.444291,1.725286 0.668292,0.737636 1.090949,0.69836 2.160717,-0.200796 1.164126,-0.978469 1.852165,-3.046916 1.852165,-5.56815 0,-2.050735 0.40873,-2.750901 1.164922,-1.995544 0.556788,0.556176 0.393025,4.172843 -0.288792,6.37787 -0.511314,1.653616 -0.552521,2.071333 -0.225286,2.2837 0.774404,0.502562 1.597465,0.115744 2.148007,-1.009515 z m 73.24905,-3.431294 c 0.971823,-0.878518 0.690865,-2.242251 -0.974317,-4.729153 -0.838,-1.251532 -1.642412,-2.275511 -1.787586,-2.275511 -0.287997,0 -2.396022,3.618543 -2.396022,4.112911 0,0.167538 0.322084,0.243115 0.715743,0.167947 1.086178,-0.207407 1.27638,0.477532 0.366606,1.320191 -0.730001,0.676148 -0.819548,1.300095 -0.186585,1.300095 0.142754,0 0.665062,-0.405067 1.160692,-0.900149 0.495629,-0.495082 1.046714,-0.900149 1.224633,-0.900149 0.407719,0 0.426565,1.101146 0.0231,1.350223 -0.165209,0.101993 -0.300381,0.380007 -0.300381,0.617809 0,0.60033 1.467374,0.556589 2.154112,-0.06421 z M -29.381401,55.356192 c 0.984666,-0.249182 2.93926,-1.013673 4.343543,-1.698873 2.142016,-1.045163 3.037734,-1.73333 5.561397,-4.272726 1.798436,-1.809648 3.558484,-3.931891 4.376633,-5.277285 0.951055,-1.563955 1.573126,-2.280264 2.039411,-2.348372 0.728355,-0.106386 1.324138,-1.261025 1.17787,-2.282734 -0.06509,-0.454662 -0.367889,-0.659731 -1.136652,-0.769789 -1.428727,-0.204541 -1.549108,-1.008903 -0.243603,-1.627722 1.484719,-0.703767 1.826727,-1.492982 1.955107,-4.511578 0.0629,-1.479018 0.174707,-2.749397 0.248457,-2.823064 0.204506,-0.204282 -0.488099,-0.939278 -0.885106,-0.939278 -0.192548,0 -0.914229,0.857114 -1.603736,1.904698 -1.465149,2.226033 -3.225254,3.752674 -5.794757,5.02613 -2.948918,1.461497 -5.440547,1.852858 -10.651312,1.673009 -6.484532,-0.223817 -11.691199,-1.521238 -20.949496,-5.22029 -4.492344,-1.794868 -5.424712,-1.87277 -5.948355,-0.497006 -0.40953,1.075955 0.174034,2.148096 1.740921,3.198474 1.519851,1.018846 1.737318,1.883328 0.406903,1.617538 -1.07386,-0.214533 -1.223027,0.199554 -1.22885,3.41126 -0.0141,7.777806 4.65586,12.267663 15.765914,15.157878 3.277062,0.852507 8.072654,0.976425 10.825711,0.27973 z m -0.113741,-12.466059 c -1.549671,-0.205534 -4.854535,-1.078529 -4.854535,-1.28235 0,-0.02799 2.196538,-0.06042 4.881195,-0.07206 4.971643,-0.02154 5.76237,-0.164163 9.912582,-1.787724 0.997782,-0.390331 0.527181,0.428793 -0.750953,1.307104 -2.416237,1.660398 -5.64426,2.305079 -9.188289,1.83503 z m 6.384097,-7.477712 c 3.820339,-0.975998 6.537708,-2.825826 8.531321,-5.807627 0.648466,-0.9699 0.711507,-1.24239 0.40197,-1.737492 -0.560169,-0.895983 -0.125109,-1.249788 1.334714,-1.085427 1.181423,0.133017 1.275899,0.09647 1.014054,-0.392256 -0.158815,-0.296416 -0.728232,-0.882504 -1.265377,-1.302419 l -0.976624,-0.76348 0.554847,-1.029147 c 0.381373,-0.707387 0.492264,-1.313748 0.35469,-1.939439 -0.317245,-1.442802 -0.828515,-1.681678 -2.166224,-1.012097 -0.632125,0.316407 -1.514252,0.662828 -1.960285,0.769823 -0.807632,0.193737 -0.808866,0.198208 -0.300381,1.08723 0.491198,0.858798 0.484434,0.942109 -0.178171,2.194131 -1.124417,2.124632 -4.528413,4.235216 -5.951115,3.689876 -0.772962,-0.296285 -0.43016,-0.730451 1.157913,-1.466537 1.641845,-0.761009 3.829861,-2.715524 3.829861,-3.421145 0,-0.548928 -1.260099,-0.992739 -2.818657,-0.992739 -1.461632,0 -4.005822,0.694211 -5.696223,1.554279 -0.635544,0.323363 -1.213206,0.530328 -1.28369,0.459922 -0.296717,-0.29639 0.305359,-1.113803 1.335223,-1.812779 1.789858,-1.214789 3.882058,-1.809594 6.210488,-1.76562 1.156468,0.02184 2.575769,-0.10657 3.154003,-0.285356 2.053547,-0.634943 3.786654,-2.41598 3.382776,-3.476329 -0.235982,-0.619555 -0.674884,-0.42585 -1.005952,0.443968 -0.577159,1.516364 -2.019025,1.736005 -3.306684,0.503712 -0.790925,-0.756919 -0.859292,-0.767999 -2.569678,-0.416479 -0.966422,0.19862 -2.027477,0.511846 -2.357897,0.696057 -0.330419,0.184211 -1.275028,0.544719 -2.099133,0.801129 -1.361784,0.423702 -1.514087,0.562773 -1.670765,1.525616 -0.207915,1.277716 -0.863474,2.267434 -1.9959,3.013276 -0.921107,0.606662 -2.052044,0.731527 -2.344495,0.258853 -0.102106,-0.165028 -0.315956,-0.30005 -0.475225,-0.30005 -0.159268,0 -0.07636,0.325053 0.18424,0.72234 0.802494,1.223408 -0.0019,1.194264 -2.819347,-0.102146 -4.158341,-1.913402 -5.574473,-1.434736 -3.047484,1.03008 0.956315,0.932786 1.201296,1.389166 1.200402,2.236255 -0.0028,2.609087 -2.496011,4.473142 -7.057837,5.276715 l -1.201525,0.211649 1.652097,0.573482 c 7.18141,2.492846 15.316762,3.320506 20.25007,2.060171 z m -11.974566,-2.657324 c 0.156949,-0.137702 1.015975,-0.914081 1.908946,-1.725286 l 1.623585,-1.474916 -0.183934,1.162402 c -0.259108,1.63747 -0.946987,2.28817 -2.418914,2.28817 -0.677035,0 -1.08869,-0.110862 -0.929683,-0.25037 z m -0.3154,-6.567843 c -1.299566,-0.319086 -1.829256,-1.418967 -0.861925,-1.789757 0.69596,-0.26677 2.514021,0.784735 2.514021,1.454025 0,0.553894 -0.417785,0.638795 -1.652096,0.335732 z m 9.361883,-0.883064 c -0.472506,-0.471982 -0.106665,-0.955674 1.302111,-1.72158 0.977587,-0.531483 1.843205,-0.783957 2.478145,-0.722798 0.831116,0.08005 0.990732,0.225245 1.076644,0.979341 0.0671,0.589018 -0.07779,1.015842 -0.432888,1.275211 -0.549133,0.401093 -4.061632,0.551807 -4.424012,0.189826 z m -4.108949,-4.454712 c -0.458624,-0.487644 -0.812266,-0.651167 -1.00085,-0.462791 -0.40747,0.40702 0.320433,1.216889 1.093728,1.216889 0.5969,0 0.59397,-0.02379 -0.09288,-0.754098 z m -2.71324,-0.860584 c 0.209409,-0.55018 0.748851,-0.859224 2.345245,-1.343578 5.517813,-1.674135 15.231452,-3.642834 17.973885,-3.642834 0.735351,0 1.321867,-0.141885 1.321867,-0.319776 0,-1.103144 -1.672145,-2.380672 -3.116038,-2.380672 -0.408555,0 -1.165786,0.355505 -1.682736,0.790011 -0.839668,0.705753 -1.568216,0.880901 -6.830907,1.642192 -6.618649,0.957442 -9.389836,1.733356 -10.294714,2.882453 -0.751752,0.954644 -0.818152,3.086737 -0.09613,3.086737 0.05916,0 0.229946,-0.32154 0.379527,-0.714533 z m 30.9430108,-2.973318 c 0.392574,-0.687989 0.385305,-0.888616 -0.06648,-1.834966 -0.589715,-1.235284 -1.669862,-1.641149 -2.874586,-1.080127 -0.802459,0.373693 -0.802718,0.374904 -0.143825,0.676996 0.892588,0.40924 1.585138,1.960869 1.369804,3.068983 -0.171935,0.884784 -0.166471,0.88893 0.550329,0.417608 0.398194,-0.261827 0.922332,-0.823649 1.164755,-1.248494 z"
         style="fill:#808080;stroke:#808080;stroke-width:4.00000048;stroke-linejoin:round;stroke-miterlimit:4;stroke-dasharray:none;filter:url(#filter3959)" />
      <path
         style="fill:#ffffff;stroke:#ffffff;stroke-width:4.00000048;stroke-linejoin:round;stroke-miterlimit:4;stroke-dasharray:none"
         d="m -20.47905,99.739907 c -0.581691,-0.406985 -0.900201,-0.424265 -2.177647,-0.118148 -0.822963,0.197208 -1.99953,0.267821 -2.614587,0.156917 -1.431554,-0.258127 -2.512861,-0.258655 -4.598636,-0.0021 -1.270741,0.156218 -1.905101,0.08901 -2.613419,-0.276865 -0.514448,-0.265874 -1.559232,-0.483296 -2.321741,-0.483296 -1.488277,0 -2.211124,-0.284193 -3.547695,-1.394803 -0.46961,-0.390214 -1.245856,-0.705546 -1.736841,-0.705546 -0.488259,0 -1.357489,-0.196055 -1.931622,-0.435678 -0.679173,-0.283463 -1.547429,-0.376106 -2.485171,-0.265169 -1.337282,0.158207 -1.505121,0.101027 -2.325763,-0.792377 -0.486459,-0.529588 -1.45024,-1.211868 -2.141736,-1.516179 -1.636973,-0.720392 -2.25998,-1.687624 -2.140494,-3.323165 0.08667,-1.186322 0.204289,-1.344883 1.595471,-2.150805 3.462314,-2.005736 5.373802,-4.658569 7.026331,-9.751392 1.15227,-3.551104 2.171626,-5.870836 2.731768,-6.216641 0.167571,-0.103448 0.307439,-0.551434 0.310819,-0.99552 0.0038,-0.498503 0.635895,-1.666116 1.652097,-3.051746 0.905273,-1.234372 1.645951,-2.350881 1.645951,-2.481126 0,-0.130246 -0.323182,-0.155786 -0.718183,-0.05675 -0.395001,0.09903 -0.799527,0.04858 -0.898948,-0.11211 -0.09942,-0.160689 1.102376,-2.063812 2.670661,-4.229163 1.568285,-2.165348 2.851427,-4.050224 2.851427,-4.188607 0,-0.138386 -1.269023,-0.340716 -2.820051,-0.449622 -4.531463,-0.318184 -11.076087,-2.318141 -14.84213,-4.535581 -5.325049,-3.135376 -7.851771,-8.32681 -7.031886,-14.447798 0.328687,-2.453861 0.317935,-2.550726 -0.400484,-3.60821 -0.866585,-1.275574 -0.931192,-2.234308 -0.230422,-3.419307 0.991442,-1.676527 1.815123,-1.718581 5.430777,-0.277279 l 3.223036,1.284795 3.154003,-0.332557 c 3.788772,-0.399483 5.719294,-1.017207 6.916551,-2.213143 1.328346,-1.326881 1.21117,-2.394917 -0.458354,-4.177804 -1.525152,-1.628712 -1.632243,-2.084917 -0.694313,-2.957768 0.831171,-0.773499 1.911449,-0.774287 3.870824,-0.0028 1.160582,0.456954 1.647426,0.52542 1.950358,0.274286 0.334065,-0.276943 0.302357,-0.523559 -0.183818,-1.429654 -0.323138,-0.602245 -0.587523,-1.414136 -0.587523,-1.804208 0,-1.14401 0.892013,-2.695817 1.909362,-3.321656 1.008773,-0.620565 5.362601,-1.82898 6.589677,-1.82898 1.120884,0 1.424957,-0.565504 1.094358,-2.035268 -0.328083,-1.458595 0.01877,-3.436871 0.742656,-4.2358852 0.644408,-0.7112767 0.609642,-0.9096552 -0.331377,-1.8907822 -1.006073,-1.0489544 -0.748307,-1.3507946 1.417619,-1.6600151 1.612239,-0.2301732 1.645813,-0.2551701 1.72235,-1.2824167 0.137289,-1.8426159 0.392283,-2.997991141875 0.661662,-2.997991141875 0.144057,0 0.494226,0.607600761875 0.77815,1.350223941875 0.555468,1.4528632 0.890585,1.6784777 1.172985,0.7896961 0.270016,-0.8498018 1.112231,-1.48381644 2.115243,-1.59234201 0.848217,-0.0917767 0.901144,-0.0358237 0.901144,0.95267081 l 0,1.0501741 1.652097,-0.1239011 c 3.150909,-0.2363062 3.162044,-0.2346241 3.066096,0.4631698 -0.07251,0.5273212 0.11167,0.6754051 1.051335,0.8453128 1.7984928,0.3251987 3.2694628,1.4638062 4.0297428,3.1192309 l 0.674858,1.4694241 2.652865,0.200044 c 2.83549996,0.2138158 6.995606,1.2829624 9.047856,2.3252989 0.690189,0.350545 2.042139,1.170264 3.004335,1.821597 1.8883802,1.278289 5.9102752,4.934971 5.9102752,5.373585 0,0.147708 -0.477763,0.496137 -1.061695,0.774288 -0.583932,0.27815 -1.02324,0.670461 -0.976239,0.871802 0.047,0.201341 1.885938,2.264566 4.086525,4.584945 2.20059,2.320378 3.916049,4.356286 3.812135,4.524239 -0.103917,0.167953 -0.586476,0.305368 -1.072355,0.305368 -0.485878,0 -0.883415,0.072 -0.883415,0.16 0,0.088 0.323054,0.796868 0.717902,1.57526 0.394845,0.778395 1.355197,3.491304 2.134119,6.028687 3.346926,10.902836 6.10375,17.327775 10.310665,24.029617 2.5155,4.007324 2.850035,4.952168 2.436064,6.880309 -0.472316,2.199902 -1.759567,4.023991 -3.39924,4.81687 -0.8546,0.413246 -1.385785,0.868995 -1.385785,1.18898 0,0.855469 0.885497,3.702374 1.514549,4.86934 0.323466,0.600066 0.589442,1.410201 0.591055,1.800298 0.0039,0.934427 1.269213,3.618696 2.536317,5.380466 2.243884,3.119875 2.40202,3.963924 1.034207,5.520057 -0.824523,0.938043 -1.093562,1.058083 -2.327955,1.038712 -0.767634,-0.01206 -2.105345,-0.122864 -2.972696,-0.246257 -1.714345,-0.243892 -1.852569,-0.100531 -1.12643,1.16831 0.600531,1.049361 0.551842,2.001965 -0.179451,3.510948 -0.637973,1.316424 -1.540679,2.068805 -2.081534,1.734906 -0.162851,-0.100535 -2.086253,-0.253122 -4.274227,-0.339077 -4.129581,-0.162237 -5.11038,-0.442823 -5.466581,-1.563874 -0.148917,-0.468684 -0.539728,-0.596466 -2.134485,-0.697901 -2.515813,-0.160017 -3.562876,-1.075487 -4.055835,-3.546096 -0.400132,-2.00538 -0.0015,-3.487794 0.849271,-3.159254 0.286819,0.110745 1.526159,0.40949 2.754087,0.663878 2.435278,0.504516 4.511117,0.371269 5.630578,-0.361419 0.757943,-0.496075 2.357747,-3.385347 2.046585,-3.696166 -0.106374,-0.106257 -1.55025,-0.146661 -3.208616,-0.08979 -2.396841,0.0822 -3.23464,0.232728 -4.085161,0.733994 -0.869526,0.512467 -1.582468,0.633234 -3.806056,0.644708 -2.4140862,0.01245 -2.9237852,-0.08302 -4.3307402,-0.811287 -1.671859,-0.865382 -2.138907,-0.852087 -2.138907,0.06089 0,0.777003 -0.592902,0.912002 -1.966659,0.447795 -1.41886,-0.479444 -3.68609,-2.812217 -4.63379,-4.767743 -0.622176,-1.283823 -1.209464,-1.574571 -1.209464,-0.59877 0,0.237801 -0.186359,0.432365 -0.414129,0.432365 -0.763636,0 -1.238821,-1.83673 -1.217271,-4.705101 l 0.0207,-2.754778 -1.522606,-0.208432 c -0.83743,-0.11464 -2.067944,-0.372017 -2.734472,-0.571952 -0.8569428,-0.257053 -1.3579578,-0.271473 -1.7106628,-0.04924 -0.636742,0.401205 -3.750449,-1.026849 -4.93752,-2.264518 -0.447261,-0.466328 -0.978702,-0.847872 -1.18097,-0.847872 -0.202267,0 -1.193321,0.899961 -2.202341,1.99991 -1.687506,1.839584 -1.866347,1.956517 -2.230835,1.458599 -0.356568,-0.487095 -0.476345,-0.341478 -1.195845,1.453819 -0.439773,1.097321 -0.799588,2.337061 -0.799588,2.754973 0,0.419743 0.530407,1.461584 1.185028,2.327666 1.359234,1.798306 2.403351,3.941208 2.412951,4.952234 0.0078,0.824135 -0.436959,1.750914 -1.288329,2.684449 l -0.619092,0.678839 0.623762,0.82141 c 0.372729,0.490834 0.848544,0.782692 1.182295,0.725199 0.307191,-0.05291 0.897311,-0.164676 1.311375,-0.24836 0.639788,-0.1293 1.034486,0.175538 2.628336,2.029957 1.031521,1.200157 1.875493,2.40492 1.875493,2.677251 0,0.70722 -2.164728,3.957968 -3.152522,4.73411 -0.984076,0.773221 -2.155725,0.840511 -3.102395,0.178164 z m 42.009532,-5.529995 c 0.600501,-0.370724 0.891898,-0.07598 0.891898,0.902132 0,0.473554 0.23655,1.098749 0.525667,1.389321 0.501267,0.503786 0.529996,0.476929 0.618897,-0.57867 0.05128,-0.608837 0.229314,-1.106977 0.395647,-1.106977 0.16633,0 0.74861,0.472578 1.293955,1.050174 1.166243,1.235212 1.671553,1.330424 1.671553,0.314959 0,-0.404368 0.204451,-0.849504 0.454336,-0.989192 0.393904,-0.220197 0.353954,-0.500744 -0.300382,-2.109295 -0.512952,-1.260987 -0.754717,-2.426416 -0.754717,-3.638098 0,-1.624547 0.123271,-1.964624 1.38887,-3.831596 1.766572,-2.605995 2.501164,-4.19385 2.50949,-5.424378 0.0052,-0.767509 -0.117557,-0.975162 -0.576437,-0.975162 -0.828872,0 -0.941822,0.34239 -0.542107,1.64334 0.339998,1.106598 0.319245,1.1687 -0.664828,1.989336 -0.558682,0.465893 -1.865605,1.216891 -2.904272,1.668886 -1.820443,0.792194 -1.920665,0.893683 -2.781426,2.816615 -1.07823,2.408754 -2.204648,3.421656 -4.334612,3.897796 -1.31479,0.293914 -2.006511,0.276421 -3.833343,-0.09693 -2.682125,-0.548143 -3.064832,-0.340859 -2.225374,1.205324 1.096364,2.019374 4.332074,3.058335 4.812807,1.545355 0.204851,-0.64472 1.214979,-1.280897 1.628487,-1.025618 0.151762,0.09369 0.008,0.771854 -0.321029,1.514993 -0.399679,0.902535 -0.506858,1.504096 -0.325623,1.827583 0.209477,0.373907 0.310658,0.232913 0.450476,-0.627741 0.204211,-1.257013 0.677555,-1.956552 1.323907,-1.956552 0.347769,0 0.397203,0.254181 0.235444,1.210578 -0.140845,0.832737 -0.07877,1.362646 0.198883,1.697801 0.354158,0.427505 0.424934,0.331159 0.577411,-0.786007 0.09558,-0.700277 0.359466,-1.387868 0.586422,-1.527979 z m -60.891221,0.239973 c 0.625221,-1.277894 0.764467,-3.223689 0.408634,-5.710175 -0.233293,-1.630194 -0.212188,-1.725286 0.382911,-1.725286 0.773724,0 1.165539,0.932792 1.42222,3.385876 l 0.188175,1.798369 0.548221,-1.067412 c 0.757522,-1.474934 2.104293,-6.562865 2.360489,-8.917629 0.19227,-1.767209 -0.148481,-7.45032 -0.46571,-7.767199 -0.07182,-0.07174 -0.396714,0.110154 -0.721993,0.404203 -1.051314,0.950375 -1.514935,0.40591 -1.514935,-1.779106 0,-1.077857 -0.11161,-1.959739 -0.248021,-1.959739 -0.342034,0 -1.326679,1.116176 -2.249879,2.550423 -0.424901,0.660109 -1.330837,2.887979 -2.013192,4.950821 -0.682354,2.062842 -1.602355,4.424108 -2.044447,5.247258 -1.001944,1.865565 -3.812236,4.662419 -5.406301,5.38045 -1.29058,0.581329 -1.673497,1.324771 -1.252302,2.431376 0.85704,2.251696 3.76236,0.03422 4.980846,-3.801622 0.642882,-2.023817 0.944452,-2.368755 1.460647,-1.670704 0.725559,0.981175 -0.417354,4.424873 -2.202805,6.637245 -0.891194,1.104288 -0.916804,1.203739 -0.444291,1.725286 0.668292,0.737636 1.090949,0.69836 2.160717,-0.200796 1.164126,-0.978469 1.852165,-3.046916 1.852165,-5.56815 0,-2.050735 0.40873,-2.750901 1.164922,-1.995544 0.556788,0.556176 0.393025,4.172843 -0.288792,6.37787 -0.511314,1.653616 -0.552521,2.071333 -0.225286,2.2837 0.774404,0.502562 1.597465,0.115744 2.148007,-1.009515 z m 73.24905,-3.431294 c 0.971823,-0.878518 0.690865,-2.242251 -0.974317,-4.729153 -0.838,-1.251532 -1.642412,-2.275511 -1.787586,-2.275511 -0.287997,0 -2.396022,3.618543 -2.396022,4.112911 0,0.167538 0.322084,0.243115 0.715743,0.167947 1.086178,-0.207407 1.27638,0.477532 0.366606,1.320191 -0.730001,0.676148 -0.819548,1.300095 -0.186585,1.300095 0.142754,0 0.665062,-0.405067 1.160692,-0.900149 0.495629,-0.495082 1.046714,-0.900149 1.224633,-0.900149 0.407719,0 0.426565,1.101146 0.0231,1.350223 -0.165209,0.101993 -0.300381,0.380007 -0.300381,0.617809 0,0.60033 1.467374,0.556589 2.154112,-0.06421 z M -29.381401,55.356192 c 0.984666,-0.249182 2.93926,-1.013673 4.343543,-1.698873 2.142016,-1.045163 3.037734,-1.73333 5.561397,-4.272726 1.798436,-1.809648 3.558484,-3.931891 4.376633,-5.277285 0.951055,-1.563955 1.573126,-2.280264 2.039411,-2.348372 0.728355,-0.106386 1.324138,-1.261025 1.17787,-2.282734 -0.06509,-0.454662 -0.367889,-0.659731 -1.136652,-0.769789 -1.428727,-0.204541 -1.549108,-1.008903 -0.243603,-1.627722 1.484719,-0.703767 1.826727,-1.492982 1.955107,-4.511578 0.0629,-1.479018 0.174707,-2.749397 0.248457,-2.823064 0.204506,-0.204282 -0.488099,-0.939278 -0.885106,-0.939278 -0.192548,0 -0.914229,0.857114 -1.603736,1.904698 -1.465149,2.226033 -3.225254,3.752674 -5.794757,5.02613 -2.948918,1.461497 -5.440547,1.852858 -10.651312,1.673009 -6.484532,-0.223817 -11.691199,-1.521238 -20.949496,-5.22029 -4.492344,-1.794868 -5.424712,-1.87277 -5.948355,-0.497006 -0.40953,1.075955 0.174034,2.148096 1.740921,3.198474 1.519851,1.018846 1.737318,1.883328 0.406903,1.617538 -1.07386,-0.214533 -1.223027,0.199554 -1.22885,3.41126 -0.0141,7.777806 4.65586,12.267663 15.765914,15.157878 3.277062,0.852507 8.072654,0.976425 10.825711,0.27973 z m -0.113741,-12.466059 c -1.549671,-0.205534 -4.854535,-1.078529 -4.854535,-1.28235 0,-0.02799 2.196538,-0.06042 4.881195,-0.07206 4.971643,-0.02154 5.76237,-0.164163 9.912582,-1.787724 0.997782,-0.390331 0.527181,0.428793 -0.750953,1.307104 -2.416237,1.660398 -5.64426,2.305079 -9.188289,1.83503 z m 6.384097,-7.477712 c 3.820339,-0.975998 6.537708,-2.825826 8.531321,-5.807627 0.648466,-0.9699 0.711507,-1.24239 0.40197,-1.737492 -0.560169,-0.895983 -0.125109,-1.249788 1.334714,-1.085427 1.181423,0.133017 1.275899,0.09647 1.014054,-0.392256 -0.158815,-0.296416 -0.728232,-0.882504 -1.265377,-1.302419 l -0.976624,-0.76348 0.554847,-1.029147 c 0.381373,-0.707387 0.492264,-1.313748 0.35469,-1.939439 -0.317245,-1.442802 -0.828515,-1.681678 -2.166224,-1.012097 -0.632125,0.316407 -1.514252,0.662828 -1.960285,0.769823 -0.807632,0.193737 -0.808866,0.198208 -0.300381,1.08723 0.491198,0.858798 0.484434,0.942109 -0.178171,2.194131 -1.124417,2.124632 -4.528413,4.235216 -5.951115,3.689876 -0.772962,-0.296285 -0.43016,-0.730451 1.157913,-1.466537 1.641845,-0.761009 3.829861,-2.715524 3.829861,-3.421145 0,-0.548928 -1.260099,-0.992739 -2.818657,-0.992739 -1.461632,0 -4.005822,0.694211 -5.696223,1.554279 -0.635544,0.323363 -1.213206,0.530328 -1.28369,0.459922 -0.296717,-0.29639 0.305359,-1.113803 1.335223,-1.812779 1.789858,-1.214789 3.882058,-1.809594 6.210488,-1.76562 1.156468,0.02184 2.575769,-0.10657 3.154003,-0.285356 2.053547,-0.634943 3.786654,-2.41598 3.382776,-3.476329 -0.235982,-0.619555 -0.674884,-0.42585 -1.005952,0.443968 -0.577159,1.516364 -2.019025,1.736005 -3.306684,0.503712 -0.790925,-0.756919 -0.859292,-0.767999 -2.569678,-0.416479 -0.966422,0.19862 -2.027477,0.511846 -2.357897,0.696057 -0.330419,0.184211 -1.275028,0.544719 -2.099133,0.801129 -1.361784,0.423702 -1.514087,0.562773 -1.670765,1.525616 -0.207915,1.277716 -0.863474,2.267434 -1.9959,3.013276 -0.921107,0.606662 -2.052044,0.731527 -2.344495,0.258853 -0.102106,-0.165028 -0.315956,-0.30005 -0.475225,-0.30005 -0.159268,0 -0.07636,0.325053 0.18424,0.72234 0.802494,1.223408 -0.0019,1.194264 -2.819347,-0.102146 -4.158341,-1.913402 -5.574473,-1.434736 -3.047484,1.03008 0.956315,0.932786 1.201296,1.389166 1.200402,2.236255 -0.0028,2.609087 -2.496011,4.473142 -7.057837,5.276715 l -1.201525,0.211649 1.652097,0.573482 c 7.18141,2.492846 15.316762,3.320506 20.25007,2.060171 z m -11.974566,-2.657324 c 0.156949,-0.137702 1.015975,-0.914081 1.908946,-1.725286 l 1.623585,-1.474916 -0.183934,1.162402 c -0.259108,1.63747 -0.946987,2.28817 -2.418914,2.28817 -0.677035,0 -1.08869,-0.110862 -0.929683,-0.25037 z m -0.3154,-6.567843 c -1.299566,-0.319086 -1.829256,-1.418967 -0.861925,-1.789757 0.69596,-0.26677 2.514021,0.784735 2.514021,1.454025 0,0.553894 -0.417785,0.638795 -1.652096,0.335732 z m 9.361883,-0.883064 c -0.472506,-0.471982 -0.106665,-0.955674 1.302111,-1.72158 0.977587,-0.531483 1.843205,-0.783957 2.478145,-0.722798 0.831116,0.08005 0.990732,0.225245 1.076644,0.979341 0.0671,0.589018 -0.07779,1.015842 -0.432888,1.275211 -0.549133,0.401093 -4.061632,0.551807 -4.424012,0.189826 z m -4.108949,-4.454712 c -0.458624,-0.487644 -0.812266,-0.651167 -1.00085,-0.462791 -0.40747,0.40702 0.320433,1.216889 1.093728,1.216889 0.5969,0 0.59397,-0.02379 -0.09288,-0.754098 z m -2.71324,-0.860584 c 0.209409,-0.55018 0.748851,-0.859224 2.345245,-1.343578 5.517813,-1.674135 15.231452,-3.642834 17.973885,-3.642834 0.735351,0 1.321867,-0.141885 1.321867,-0.319776 0,-1.103144 -1.672145,-2.380672 -3.116038,-2.380672 -0.408555,0 -1.165786,0.355505 -1.682736,0.790011 -0.839668,0.705753 -1.568216,0.880901 -6.830907,1.642192 -6.618649,0.957442 -9.389836,1.733356 -10.294714,2.882453 -0.751752,0.954644 -0.818152,3.086737 -0.09613,3.086737 0.05916,0 0.229946,-0.32154 0.379527,-0.714533 z m 30.9430108,-2.973318 c 0.392574,-0.687989 0.385305,-0.888616 -0.06648,-1.834966 -0.589715,-1.235284 -1.669862,-1.641149 -2.874586,-1.080127 -0.802459,0.373693 -0.802718,0.374904 -0.143825,0.676996 0.892588,0.40924 1.585138,1.960869 1.369804,3.068983 -0.171935,0.884784 -0.166471,0.88893 0.550329,0.417608 0.398194,-0.261827 0.922332,-0.823649 1.164755,-1.248494 z"
         id="path3955"
         inkscape:connector-curvature="0" />
    </g>
    <g
       id="g10342"
       transform="matrix(0.43029955,0,0,0.43029955,54.844725,57.832403)">
      <g
         id="g10344"
         transform="translate(-6.85,-327.35)">
        <g
           id="g10378">
          <g
             id="g10374">
            <g
               id="g10371">
              <use
                 xlink:href="#gorila_0_Layer0_0_FILL"
                 height="1"
                 width="1"
                 y="0"
                 x="0"
                 id="use10346" />
            </g>
          </g>
        </g>
        <use
           xlink:href="#gorila_0_Layer0_0_1_STROKES"
           height="1"
           width="1"
           y="0"
           x="0"
           id="use10348" />
      </g>
    </g>
    <g
       transform="translate(7.6769665,7.7186475)"
       id="g3173">
      <g
         id="g3162">
        <g
           id="g3152">
          <g
             id="g3143">
            <g
               transform="matrix(0.43029955,0,0,0.43029955,47.167759,50.113755)"
               id="g3003">
              <g
                 transform="translate(-6.85,-327.35)"
                 id="g3005">
                <g
                   id="g3007">
                  <g
                     id="g3009">
                    <g
                       id="g3011">
                      <use
                         id="use3013"
                         x="0"
                         y="0"
                         width="1"
                         height="1"
                         xlink:href="#gorila_0_Layer0_0_FILL" />
                    </g>
                  </g>
                </g>
                <use
                   id="use3015"
                   x="0"
                   y="0"
                   width="1"
                   height="1"
                   xlink:href="#gorila_0_Layer0_0_1_STROKES" />
              </g>
            </g>
          </g>
        </g>
      </g>
    </g>
  </g>
</svg>
