<?xml version="1.0" encoding="UTF-8" standalone="no"?>
<svg
   xmlns:osb="http://www.openswatchbook.org/uri/2009/osb"
   xmlns:dc="http://purl.org/dc/elements/1.1/"
   xmlns:cc="http://creativecommons.org/ns#"
   xmlns:rdf="http://www.w3.org/1999/02/22-rdf-syntax-ns#"
   xmlns:svg="http://www.w3.org/2000/svg"
   xmlns="http://www.w3.org/2000/svg"
   xmlns:xlink="http://www.w3.org/1999/xlink"
   xmlns:sodipodi="http://sodipodi.sourceforge.net/DTD/sodipodi-0.dtd"
   xmlns:inkscape="http://www.inkscape.org/namespaces/inkscape"
   version="1.1"
   id="svg2"
   viewBox="0 0 138.91434 78.633082"
   height="78.63308"
   width="138.91432"
   inkscape:version="0.48.4 r9939"
   sodipodi:docname="helicóptero.svg">
  <sodipodi:namedview
     pagecolor="#ffffff"
     bordercolor="#666666"
     borderopacity="1"
     objecttolerance="10"
     gridtolerance="10"
     guidetolerance="10"
     inkscape:pageopacity="0"
     inkscape:pageshadow="2"
     inkscape:window-width="1360"
     inkscape:window-height="744"
     id="namedview1313"
     showgrid="false"
     fit-margin-top="0"
     fit-margin-left="0"
     fit-margin-right="0"
     fit-margin-bottom="0"
     inkscape:zoom="1.9713513"
     inkscape:cx="62.362607"
     inkscape:cy="38.790458"
     inkscape:window-x="0"
     inkscape:window-y="1"
     inkscape:window-maximized="1"
     inkscape:current-layer="svg2" />
  <script
     xlink:href="C:\wamp\www\bingo\js/snap.svg-min.js"
     id="script4164" />
  <title
     id="title4162">Bingo das Letras</title>
  <defs
     id="defs4">
    <linearGradient
       osb:paint="solid"
       id="linearGradient12614">
      <stop
         id="stop12616"
         offset="0"
         style="stop-color:#000000;stop-opacity:1;" />
    </linearGradient>
    <linearGradient
       gradientTransform="matrix(-0.19399818,0,0,-0.19399818,259.22818,12173.784)"
       osb:paint="solid"
       id="linearGradient59274">
      <stop
         id="stop59276"
         offset="0"
         style="stop-color:#930033;stop-opacity:1;" />
    </linearGradient>
    <linearGradient
       id="linearGradient4269"
       osb:paint="solid"
       gradientTransform="matrix(110.20782,22.122239,-29.697412,82.096171,6266573.9,4264559.4)">
      <stop
         style="stop-color:#ffffff;stop-opacity:1;"
         offset="0"
         id="stop4271" />
    </linearGradient>
    <linearGradient
       id="linearGradient4251"
       osb:paint="solid"
       gradientTransform="translate(106155.96,125143.42)">
      <stop
         style="stop-color:#555555;stop-opacity:1;"
         offset="0"
         id="stop4253" />
    </linearGradient>
    <linearGradient
       id="linearGradient4241"
       osb:paint="solid"
       gradientTransform="matrix(0.19125385,0,0,0.19125385,-1749.4195,-50278.466)">
      <stop
         style="stop-color:#3fb5ae;stop-opacity:1;"
         offset="0"
         id="stop4243" />
    </linearGradient>
    <linearGradient
       id="linearGradient4231"
       osb:paint="solid"
       gradientTransform="translate(2399.1562,2075.6965)">
      <stop
         style="stop-color:#d1f2a5;stop-opacity:1;"
         offset="0"
         id="stop4233" />
    </linearGradient>
    <linearGradient
       id="linearGradient4221"
       osb:paint="solid"
       gradientTransform="matrix(0.66768435,0,0,0.66768435,-186.89148,394.64653)">
      <stop
         style="stop-color:#effab4;stop-opacity:1;"
         offset="0"
         id="stop4223" />
    </linearGradient>
    <linearGradient
       id="linearGradient4211"
       osb:paint="solid"
       gradientTransform="translate(-699.20463,883.12976)">
      <stop
         style="stop-color:#ffc48c;stop-opacity:1;"
         offset="0"
         id="stop4213" />
    </linearGradient>
    <linearGradient
       id="linearGradient4201"
       osb:paint="solid"
       gradientTransform="matrix(0.35946858,0,0,0.22423084,-331.07911,5516.4706)">
      <stop
         style="stop-color:#ff9f80;stop-opacity:1;"
         offset="0"
         id="stop4203" />
    </linearGradient>
    <linearGradient
       id="linearGradient4191"
       osb:paint="solid"
       gradientTransform="matrix(0.52321996,0,0,0.52321996,2015.4535,3072.5352)">
      <stop
         style="stop-color:#f56991;stop-opacity:1;"
         offset="0"
         id="stop4193" />
    </linearGradient>
    <style
       id="style6"
       type="text/css">
    .str0 {stroke:#006633;stroke-width:282.22}
    .str1 {stroke:#AB754F;stroke-width:282.22}
    .fil2 {fill:none}
    .fil3 {fill:#606062}
    .fil5 {fill:#CE8F64}
    .fil4 {fill:#006633}
    .fil8 {fill:#009933}
    .fil9 {fill:#00B33C}
    .fil10 {fill:#00C943}
    .fil0 {fill:#00D447}
    .fil1 {fill:#00DB49}
    .fil6 {fill:#B88059}
    .fil11 {fill:#BA8058}
    .fil12 {fill:#D49264}
    .fil7 {fill:#E49C6D}
  </style>
    <style
       id="style13042"
       type="text/css">
   
    .fil4 {fill:url(#id0)}
    .fil9 {fill:url(#id1)}
    .fil6 {fill:url(#id2)}
    .fil1 {fill:url(#id3)}
    .fil5 {fill:url(#id4)}
    .fil0 {fill:url(#id5)}
    .fil8 {fill:url(#id6)}
    .fil3 {fill:url(#id7)}
    .fil7 {fill:url(#id8)}
    .fil2 {fill:url(#id9)}
   
  </style>
    <filter
       inkscape:collect="always"
       id="filter48299"
       color-interpolation-filters="sRGB">
      <feGaussianBlur
         inkscape:collect="always"
         stdDeviation="1.4404869"
         id="feGaussianBlur48301" />
    </filter>
  </defs>
  <metadata
     id="metadata7">
    <rdf:RDF>
      <cc:Work
         rdf:about="">
        <dc:format>image/svg+xml</dc:format>
        <dc:type
           rdf:resource="http://purl.org/dc/dcmitype/StillImage" />
        <dc:title>Bingo das Letras</dc:title>
        <cc:license
           rdf:resource="" />
        <dc:rights>
          <cc:Agent>
            <dc:title>Copyright © 2002-2016. Portal Clickideia ® - Todos os Direitos Reservados</dc:title>
          </cc:Agent>
        </dc:rights>
        <dc:description>SVG game with snapSVG lib and other javascripts included</dc:description>
        <dc:language>pt_BR</dc:language>
        <dc:subject>
          <rdf:Bag>
            <rdf:li>Educativo</rdf:li>
            <rdf:li>ensino fundamental</rdf:li>
            <rdf:li>clickiéia</rdf:li>
            <rdf:li>letras</rdf:li>
            <rdf:li>lingua portuguesa</rdf:li>
            <rdf:li>infantil</rdf:li>
            <rdf:li>educational game</rdf:li>
            <rdf:li>game design</rdf:li>
            <rdf:li>multimidia</rdf:li>
          </rdf:Bag>
        </dc:subject>
        <dc:creator>
          <cc:Agent>
            <dc:title>http://www.clickideia.com.br/</dc:title>
          </cc:Agent>
        </dc:creator>
        <dc:publisher>
          <cc:Agent>
            <dc:title>http://www.clickideia.com.br/</dc:title>
          </cc:Agent>
        </dc:publisher>
        <dc:date>18/01/2016</dc:date>
        <dc:contributor>
          <cc:Agent>
            <dc:title>michel morandi - michel.morandi@clickideia.com.br</dc:title>
          </cc:Agent>
        </dc:contributor>
      </cc:Work>
    </rdf:RDF>
  </metadata>
  <g
     id="g48319"
     transform="translate(-109.26158,-1.5428365)">
    <g
       id="g48303">
      <g
         style="fill:#333333;stroke:#333333;stroke-width:5.00000048;stroke-miterlimit:4;stroke-dasharray:none;filter:url(#filter48299)"
         id="g48285">
        <path
           inkscape:connector-curvature="0"
           d="m 130.21,41.322076 c 2.96379,0 5.73094,-0.672572 8.06125,-1.8307 2.47515,3.790082 7.54997,6.401446 13.38832,6.39973 4.02118,0 7.68053,-1.237054 10.37751,-3.247906 2.1071,0.878462 4.51327,1.377744 7.06543,1.377744 8.25959,0 14.99458,-5.224444 14.99458,-11.629329 0,-4.785196 -3.75919,-8.908145 -9.10271,-10.690794 -2.3082,-4.124655 -7.61431,-7.020825 -13.76353,-7.020825 l -0.16686,0.0017 c -2.25792,-4.213875 -7.62288,-7.1872629 -13.85602,-7.1872629 -7.84609,-0.00171 -14.31771,4.7131519 -14.94499,10.6788109 -0.67154,-0.07208 -1.35647,-0.109845 -2.05289,-0.109845 -8.25976,0 -14.99595,5.224431 -14.99595,11.631031 0,6.403151 6.73619,11.627602 14.99595,11.627602"
           style="fill:#333333;fill-opacity:1;fill-rule:evenodd;stroke:#333333;stroke-width:5.00000048;stroke-miterlimit:4;stroke-dasharray:none"
           id="path48287" />
        <path
           inkscape:connector-curvature="0"
           d="m 199.69921,67.516356 16.03537,0 0,3.922191 -16.03537,0 0,-3.922191 z m 32.85481,0.350012 c -0.77037,0 -1.39491,0.62453 -1.39491,1.393184 0,0.700023 -2.47238,2.178995 -5.22786,2.178995 l -7.93018,0 0,-3.922191 9.15008,0 c 2.09662,0 4.03371,-4.893306 4.24646,-5.450923 0.0412,-0.108084 0.0274,-0.228195 -0.0378,-0.32256 -0.0635,-0.09438 -0.17158,-0.150987 -0.28825,-0.150987 -0.19732,0 -19.93009,-0.03945 -25.70872,-3.352566 -3.33541,-1.913056 -4.53128,-6.162956 -5.40289,-9.265023 -0.70174,-2.496408 -1.2096,-4.301373 -2.52557,-4.301373 -2.40548,0 -42.21402,-0.308833 -45.53296,-0.33457 l -7.83478,-16.188048 c -0.0583,-0.120012 -0.18102,-0.197321 -0.31432,-0.197321 l -3.13723,0 c -0.11275,0 -0.21928,0.05483 -0.28431,0.14761 -0.0656,0.0926 -0.0817,0.211047 -0.0441,0.317425 l 6.48552,18.42023 -5.76919,11.195235 c -0.057,0.108084 -0.0516,0.240205 0.0145,0.344865 0.065,0.102945 0.18565,0.156125 0.30368,0.162988 l 3.41811,-0.08236 c 0.10857,-0.0017 0.20916,-0.0549 0.27348,-0.142417 l 6.41192,-8.75373 0.29956,0 c 14.48466,0 30.36269,0.907629 31.00061,2.90304 2.08771,6.137221 8.85563,15.050516 14.70994,15.050516 l 0,3.922192 -10.54446,0 c -0.77089,0 -1.39474,0.624532 -1.39474,1.394902 0,0.770369 0.62385,1.393184 1.39474,1.393184 l 39.04127,0 c 3.27534,0 8.01767,-1.767217 8.01767,-4.967082 0,-0.768654 -0.62454,-1.393184 -1.39491,-1.393184"
           style="fill:#333333;fill-opacity:1;fill-rule:evenodd;stroke:#333333;stroke-width:5.00000048;stroke-miterlimit:4;stroke-dasharray:none"
           id="path48289" />
        <path
           inkscape:connector-curvature="0"
           d="m 241.53079,23.334208 -41.83158,0 0,-1.655701 c 0,-0.386037 -0.31225,-0.698306 -0.69658,-0.698306 l -0.4461,0 0,-1.110089 c 0,-0.38433 -0.31227,-0.696581 -0.6966,-0.696581 l -1.46008,0 c -0.38433,0 -0.6966,0.312251 -0.6966,0.696581 l 0,1.110089 -0.44781,0 c -0.38433,0 -0.6966,0.312269 -0.6966,0.698306 l 0,1.655701 -42.87594,0 c -0.38537,0 -0.69764,0.312269 -0.69764,0.698306 l 6.9e-4,1.916479 c 0,0.384331 0.31158,0.696599 0.69695,0.696599 l 1.56904,0 0,1.655701 c 0,0.386038 0.31158,0.696582 0.69694,0.696582 l 32.94111,0 c 0.38465,0 0.69692,-0.310544 0.69692,-0.696582 l 0,-1.655701 6.97193,0 0,1.4824 -2.70195,0 c -0.38468,0 -0.69711,0.312269 -0.69711,0.6966 l 0,13.593846 c 0,0.386041 0.31243,0.698308 0.69711,0.698308 l 10.37134,0 c 0.38433,0 0.69659,-0.312267 0.69659,-0.698308 l 0,-13.593846 c 0,-0.386038 -0.31226,-0.6966 -0.69659,-0.6966 l -2.52902,0 0,-1.4824 5.7529,0 0,1.655701 c 0,0.386038 0.31227,0.696582 0.69659,0.696582 l 32.94059,0 c 0.38604,0 0.69831,-0.310544 0.69831,-0.696582 l 0,-1.655701 1.74319,0 c 0.38433,0 0.6966,-0.312268 0.6966,-0.696599 l 0,-1.918185 c 0,-0.384331 -0.31227,-0.6966 -0.6966,-0.6966"
           style="fill:#333333;fill-opacity:1;fill-rule:evenodd;stroke:#333333;stroke-width:5.00000048;stroke-miterlimit:4;stroke-dasharray:none"
           id="path48291" />
        <path
           inkscape:connector-curvature="0"
           d="m 229.38846,47.967156 c -2.32826,-3.119224 -5.79063,-4.996248 -10.01307,-5.428616 -1.18902,-0.123535 -2.45866,-0.185301 -3.77294,-0.185301 -7.91472,0 -15.23409,2.184143 -15.30959,2.206448 -0.10458,0.03088 -0.187,0.108084 -0.22648,0.207606 -0.0378,0.09951 -0.0258,0.212752 0.0343,0.30197 0.007,0.0138 1.05862,1.297103 1.62309,3.357713 0.67258,2.458664 1.43609,5.577888 3.65969,7.712274 3.13811,3.014564 15.4314,3.743756 25.43593,3.869005 0.32254,0.0034 0.54559,0.0069 0.65369,0.0085 0.004,0.0017 0.007,0.0017 0.0109,0.0017 0.16468,0 0.30884,-0.114947 0.34143,-0.274519 0.92821,-4.450642 0.0343,-8.468917 -2.43637,-11.776874"
           style="fill:#333333;fill-opacity:1;fill-rule:evenodd;stroke:#333333;stroke-width:5.00000048;stroke-miterlimit:4;stroke-dasharray:none"
           id="path48293" />
        <path
           inkscape:connector-curvature="0"
           d="m 197.87023,19.19412 -1.46009,0 c -0.38433,0 -0.69831,0.312251 -0.69831,0.698306 l 0,1.062048 2.855,0 0,-1.062048 c 0,-0.386055 -0.31227,-0.698306 -0.6966,-0.698306"
           style="fill:#333333;fill-opacity:1;fill-rule:evenodd;stroke:#333333;stroke-width:5.00000048;stroke-miterlimit:4;stroke-dasharray:none"
           id="path48295" />
        <path
           inkscape:connector-curvature="0"
           d="m 146.41248,43.749855 c -1.63272,0 -2.9571,1.324555 -2.9571,2.957944 0,1.631674 1.32438,2.956229 2.9571,2.956229 1.63251,0 2.9569,-1.324555 2.9569,-2.956229 0,-1.633389 -1.32439,-2.957944 -2.9569,-2.957944"
           style="fill:#333333;fill-opacity:1;fill-rule:evenodd;stroke:#333333;stroke-width:5.00000048;stroke-miterlimit:4;stroke-dasharray:none"
           id="path48297" />
      </g>
      <g
         id="g48277"
         style="fill:#ffffff;stroke:#ffffff;stroke-width:5.00000048;stroke-miterlimit:4;stroke-dasharray:none">
        <path
           id="path48259"
           style="fill:#ffffff;fill-opacity:1;fill-rule:evenodd;stroke:#ffffff;stroke-width:5.00000048;stroke-miterlimit:4;stroke-dasharray:none"
           d="m 130.21,41.322076 c 2.96379,0 5.73094,-0.672572 8.06125,-1.8307 2.47515,3.790082 7.54997,6.401446 13.38832,6.39973 4.02118,0 7.68053,-1.237054 10.37751,-3.247906 2.1071,0.878462 4.51327,1.377744 7.06543,1.377744 8.25959,0 14.99458,-5.224444 14.99458,-11.629329 0,-4.785196 -3.75919,-8.908145 -9.10271,-10.690794 -2.3082,-4.124655 -7.61431,-7.020825 -13.76353,-7.020825 l -0.16686,0.0017 c -2.25792,-4.213875 -7.62288,-7.1872629 -13.85602,-7.1872629 -7.84609,-0.00171 -14.31771,4.7131519 -14.94499,10.6788109 -0.67154,-0.07208 -1.35647,-0.109845 -2.05289,-0.109845 -8.25976,0 -14.99595,5.224431 -14.99595,11.631031 0,6.403151 6.73619,11.627602 14.99595,11.627602"
           inkscape:connector-curvature="0" />
        <path
           id="path48261"
           style="fill:#ffffff;fill-opacity:1;fill-rule:evenodd;stroke:#ffffff;stroke-width:5.00000048;stroke-miterlimit:4;stroke-dasharray:none"
           d="m 199.69921,67.516356 16.03537,0 0,3.922191 -16.03537,0 0,-3.922191 z m 32.85481,0.350012 c -0.77037,0 -1.39491,0.62453 -1.39491,1.393184 0,0.700023 -2.47238,2.178995 -5.22786,2.178995 l -7.93018,0 0,-3.922191 9.15008,0 c 2.09662,0 4.03371,-4.893306 4.24646,-5.450923 0.0412,-0.108084 0.0274,-0.228195 -0.0378,-0.32256 -0.0635,-0.09438 -0.17158,-0.150987 -0.28825,-0.150987 -0.19732,0 -19.93009,-0.03945 -25.70872,-3.352566 -3.33541,-1.913056 -4.53128,-6.162956 -5.40289,-9.265023 -0.70174,-2.496408 -1.2096,-4.301373 -2.52557,-4.301373 -2.40548,0 -42.21402,-0.308833 -45.53296,-0.33457 l -7.83478,-16.188048 c -0.0583,-0.120012 -0.18102,-0.197321 -0.31432,-0.197321 l -3.13723,0 c -0.11275,0 -0.21928,0.05483 -0.28431,0.14761 -0.0656,0.0926 -0.0817,0.211047 -0.0441,0.317425 l 6.48552,18.42023 -5.76919,11.195235 c -0.057,0.108084 -0.0516,0.240205 0.0145,0.344865 0.065,0.102945 0.18565,0.156125 0.30368,0.162988 l 3.41811,-0.08236 c 0.10857,-0.0017 0.20916,-0.0549 0.27348,-0.142417 l 6.41192,-8.75373 0.29956,0 c 14.48466,0 30.36269,0.907629 31.00061,2.90304 2.08771,6.137221 8.85563,15.050516 14.70994,15.050516 l 0,3.922192 -10.54446,0 c -0.77089,0 -1.39474,0.624532 -1.39474,1.394902 0,0.770369 0.62385,1.393184 1.39474,1.393184 l 39.04127,0 c 3.27534,0 8.01767,-1.767217 8.01767,-4.967082 0,-0.768654 -0.62454,-1.393184 -1.39491,-1.393184"
           inkscape:connector-curvature="0" />
        <path
           id="path48263"
           style="fill:#ffffff;fill-opacity:1;fill-rule:evenodd;stroke:#ffffff;stroke-width:5.00000048;stroke-miterlimit:4;stroke-dasharray:none"
           d="m 241.53079,23.334208 -41.83158,0 0,-1.655701 c 0,-0.386037 -0.31225,-0.698306 -0.69658,-0.698306 l -0.4461,0 0,-1.110089 c 0,-0.38433 -0.31227,-0.696581 -0.6966,-0.696581 l -1.46008,0 c -0.38433,0 -0.6966,0.312251 -0.6966,0.696581 l 0,1.110089 -0.44781,0 c -0.38433,0 -0.6966,0.312269 -0.6966,0.698306 l 0,1.655701 -42.87594,0 c -0.38537,0 -0.69764,0.312269 -0.69764,0.698306 l 6.9e-4,1.916479 c 0,0.384331 0.31158,0.696599 0.69695,0.696599 l 1.56904,0 0,1.655701 c 0,0.386038 0.31158,0.696582 0.69694,0.696582 l 32.94111,0 c 0.38465,0 0.69692,-0.310544 0.69692,-0.696582 l 0,-1.655701 6.97193,0 0,1.4824 -2.70195,0 c -0.38468,0 -0.69711,0.312269 -0.69711,0.6966 l 0,13.593846 c 0,0.386041 0.31243,0.698308 0.69711,0.698308 l 10.37134,0 c 0.38433,0 0.69659,-0.312267 0.69659,-0.698308 l 0,-13.593846 c 0,-0.386038 -0.31226,-0.6966 -0.69659,-0.6966 l -2.52902,0 0,-1.4824 5.7529,0 0,1.655701 c 0,0.386038 0.31227,0.696582 0.69659,0.696582 l 32.94059,0 c 0.38604,0 0.69831,-0.310544 0.69831,-0.696582 l 0,-1.655701 1.74319,0 c 0.38433,0 0.6966,-0.312268 0.6966,-0.696599 l 0,-1.918185 c 0,-0.384331 -0.31227,-0.6966 -0.6966,-0.6966"
           inkscape:connector-curvature="0" />
        <path
           id="path48265"
           style="fill:#ffffff;fill-opacity:1;fill-rule:evenodd;stroke:#ffffff;stroke-width:5.00000048;stroke-miterlimit:4;stroke-dasharray:none"
           d="m 229.38846,47.967156 c -2.32826,-3.119224 -5.79063,-4.996248 -10.01307,-5.428616 -1.18902,-0.123535 -2.45866,-0.185301 -3.77294,-0.185301 -7.91472,0 -15.23409,2.184143 -15.30959,2.206448 -0.10458,0.03088 -0.187,0.108084 -0.22648,0.207606 -0.0378,0.09951 -0.0258,0.212752 0.0343,0.30197 0.007,0.0138 1.05862,1.297103 1.62309,3.357713 0.67258,2.458664 1.43609,5.577888 3.65969,7.712274 3.13811,3.014564 15.4314,3.743756 25.43593,3.869005 0.32254,0.0034 0.54559,0.0069 0.65369,0.0085 0.004,0.0017 0.007,0.0017 0.0109,0.0017 0.16468,0 0.30884,-0.114947 0.34143,-0.274519 0.92821,-4.450642 0.0343,-8.468917 -2.43637,-11.776874"
           inkscape:connector-curvature="0" />
        <path
           id="path48267"
           style="fill:#ffffff;fill-opacity:1;fill-rule:evenodd;stroke:#ffffff;stroke-width:5.00000048;stroke-miterlimit:4;stroke-dasharray:none"
           d="m 197.87023,19.19412 -1.46009,0 c -0.38433,0 -0.69831,0.312251 -0.69831,0.698306 l 0,1.062048 2.855,0 0,-1.062048 c 0,-0.386055 -0.31227,-0.698306 -0.6966,-0.698306"
           inkscape:connector-curvature="0" />
        <path
           id="path48269"
           style="fill:#ffffff;fill-opacity:1;fill-rule:evenodd;stroke:#ffffff;stroke-width:5.00000048;stroke-miterlimit:4;stroke-dasharray:none"
           d="m 146.41248,43.749855 c -1.63272,0 -2.9571,1.324555 -2.9571,2.957944 0,1.631674 1.32438,2.956229 2.9571,2.956229 1.63251,0 2.9569,-1.324555 2.9569,-2.956229 0,-1.633389 -1.32439,-2.957944 -2.9569,-2.957944"
           inkscape:connector-curvature="0" />
      </g>
    </g>
    <g
       transform="matrix(1.815621,0,0,1.815621,1292.4891,218.00767)"
       id="g48249">
      <path
         id="path47906"
         style="fill:#ffffff;fill-opacity:1;fill-rule:evenodd;stroke:none"
         d="m -640.15513,-97.314139 c 1.63238,0 3.15646,-0.370436 4.43994,-1.008305 1.36325,2.087485 4.15834,3.525761 7.37396,3.524816 2.21477,0 4.23025,-0.681339 5.71568,-1.788868 1.16054,0.483836 2.4858,0.758828 3.89147,0.758828 4.54918,0 8.25865,-2.877497 8.25865,-6.405152 0,-2.63557 -2.07047,-4.90639 -5.01355,-5.88823 -1.2713,-2.27176 -4.19378,-3.8669 -7.58062,-3.8669 l -0.0919,9.4e-4 c -1.24361,-2.3209 -4.1985,-3.95857 -7.63156,-3.95857 -4.32144,-9.4e-4 -7.88585,2.59589 -8.23134,5.88163 -0.36987,-0.0397 -0.74711,-0.0605 -1.13068,-0.0605 -4.54928,0 -8.25941,2.87749 -8.25941,6.40609 0,3.5267 3.71013,6.404201 8.25941,6.404201"
         inkscape:connector-curvature="0" />
      <path
         id="path47912-2"
         style="fill:#1f4c80;fill-opacity:1;fill-rule:evenodd;stroke:none"
         d="m -601.88216,-82.886965 8.83189,0 0,2.160248 -8.83189,0 0,-2.160248 z m 18.09563,0.192778 c -0.4243,0 -0.76828,0.343976 -0.76828,0.767332 0,0.385556 -1.36173,1.200138 -2.87938,1.200138 l -4.36775,0 0,-2.160248 5.03964,0 c 1.15477,0 2.22167,-2.695114 2.33885,-3.002236 0.0227,-0.05953 0.0151,-0.125684 -0.0208,-0.177658 -0.035,-0.05198 -0.0945,-0.08316 -0.15876,-0.08316 -0.10868,0 -10.97701,-0.02173 -14.15974,-1.846512 -1.83706,-1.053665 -2.49572,-3.394407 -2.97578,-5.10295 -0.3865,-1.374961 -0.66622,-2.369092 -1.39102,-2.369092 -1.32488,0 -23.25046,-0.170098 -25.07845,-0.184273 l -4.31521,-8.915984 c -0.0321,-0.0661 -0.0997,-0.10868 -0.17312,-0.10868 l -1.72791,0 c -0.0621,0 -0.12077,0.0302 -0.15659,0.0813 -0.0361,0.051 -0.045,0.11624 -0.0243,0.17483 l 3.57207,10.145416 -3.17753,6.166064 c -0.0314,0.05953 -0.0284,0.132299 0.008,0.189943 0.0358,0.0567 0.10225,0.08599 0.16726,0.08977 l 1.88261,-0.04536 c 0.0598,-9.45e-4 0.1152,-0.03024 0.15063,-0.07844 l 3.53153,-4.821342 0.16499,0 c 7.9778,0 16.72303,0.4999 17.07438,1.598924 1.14986,3.380232 4.87747,8.289459 8.10188,8.289459 l 0,2.160248 -5.80763,0 c -0.42459,0 -0.76819,0.343977 -0.76819,0.768278 0,0.424301 0.3436,0.767332 0.76819,0.767332 l 21.50298,0 c 1.80398,0 4.41594,-0.97334 4.41594,-2.735748 0,-0.423356 -0.34398,-0.767332 -0.76828,-0.767332"
         inkscape:connector-curvature="0" />
      <path
         id="path47914"
         style="fill:#1f4c80;fill-opacity:1;fill-rule:evenodd;stroke:none"
         d="m -578.84234,-107.22142 -23.03982,0 0,-0.91192 c 0,-0.21262 -0.17198,-0.38461 -0.38366,-0.38461 l -0.2457,0 0,-0.61141 c 0,-0.21168 -0.17199,-0.38366 -0.38367,-0.38366 l -0.80418,0 c -0.21168,0 -0.38367,0.17198 -0.38367,0.38366 l 0,0.61141 -0.24664,0 c -0.21168,0 -0.38367,0.17199 -0.38367,0.38461 l 0,0.91192 -23.61503,0 c -0.21225,0 -0.38424,0.17199 -0.38424,0.38461 l 3.8e-4,1.05555 c 0,0.21168 0.17161,0.38367 0.38386,0.38367 l 0.86419,0 0,0.91192 c 0,0.21262 0.17161,0.38366 0.38386,0.38366 l 18.14316,0 c 0.21186,0 0.38385,-0.17104 0.38385,-0.38366 l 0,-0.91192 3.83997,0 0,0.81647 -1.48817,0 c -0.21187,0 -0.38395,0.17199 -0.38395,0.38367 l 0,7.487161 c 0,0.212622 0.17208,0.384611 0.38395,0.384611 l 5.71228,0 c 0.21168,0 0.38367,-0.171989 0.38367,-0.384611 l 0,-7.487161 c 0,-0.21262 -0.17199,-0.38367 -0.38367,-0.38367 l -1.39292,0 0,-0.81647 3.16856,0 0,0.91192 c 0,0.21262 0.17199,0.38366 0.38366,0.38366 l 18.14288,0 c 0.21262,0 0.38461,-0.17104 0.38461,-0.38366 l 0,-0.91192 0.96011,0 c 0.21168,0 0.38367,-0.17199 0.38367,-0.38367 l 0,-1.05649 c 0,-0.21168 -0.17199,-0.38367 -0.38367,-0.38367"
         inkscape:connector-curvature="0" />
      <path
         id="path47916-8"
         style="fill:#fbc707;fill-opacity:1;fill-rule:evenodd;stroke:none"
         d="m -585.53004,-93.65419 c -1.28235,-1.717993 -3.18934,-2.751812 -5.51496,-2.98995 -0.65488,-0.06804 -1.35417,-0.102059 -2.07804,-0.102059 -4.35924,0 -8.39057,1.202973 -8.43215,1.215258 -0.0576,0.01701 -0.103,0.05953 -0.12474,0.114344 -0.0208,0.05481 -0.0142,0.117179 0.0189,0.166318 0.004,0.0076 0.58306,0.714413 0.89396,1.849347 0.37044,1.354172 0.79096,3.072165 2.01567,4.247733 1.72839,1.660349 8.49924,2.06197 14.00949,2.130954 0.17765,0.0019 0.3005,0.0038 0.36004,0.0047 0.002,9.45e-4 0.004,9.45e-4 0.006,9.45e-4 0.0907,0 0.1701,-0.06331 0.18805,-0.151198 0.51124,-2.451306 0.0189,-4.664474 -1.34189,-6.486417"
         inkscape:connector-curvature="0" />
      <path
         id="path47918"
         style="fill:#fbc707;fill-opacity:1;fill-rule:evenodd;stroke:none"
         d="m -602.88952,-109.50168 -0.80418,0 c -0.21168,0 -0.38461,0.17198 -0.38461,0.38461 l 0,0.58495 1.57246,0 0,-0.58495 c 0,-0.21263 -0.17199,-0.38461 -0.38367,-0.38461"
         inkscape:connector-curvature="0" />
      <path
         id="path47920-4"
         style="fill:#fbc707;fill-opacity:1;fill-rule:evenodd;stroke:none"
         d="m -631.2312,-95.976977 c -0.89926,0 -1.6287,0.729533 -1.6287,1.629164 0,0.898686 0.72944,1.628219 1.6287,1.628219 0.89915,0 1.62859,-0.729533 1.62859,-1.628219 0,-0.899631 -0.72944,-1.629164 -1.62859,-1.629164"
         inkscape:connector-curvature="0" />
    </g>
  </g>
</svg>
