<?xml version="1.0" encoding="UTF-8" standalone="no"?>
<!-- Created with Inkscape (http://www.inkscape.org/) -->

<svg
   xmlns:dc="http://purl.org/dc/elements/1.1/"
   xmlns:cc="http://creativecommons.org/ns#"
   xmlns:rdf="http://www.w3.org/1999/02/22-rdf-syntax-ns#"
   xmlns:svg="http://www.w3.org/2000/svg"
   xmlns="http://www.w3.org/2000/svg"
   xmlns:sodipodi="http://sodipodi.sourceforge.net/DTD/sodipodi-0.dtd"
   xmlns:inkscape="http://www.inkscape.org/namespaces/inkscape"
   version="1.2"
   width="157.43872"
   height="168.38121"
   viewBox="0 0 157.43875 168.38122"
   id="svg2"
   inkscape:version="0.48.4 r9939"
   sodipodi:docname="ioiô.svg">
  <sodipodi:namedview
     pagecolor="#ffffff"
     bordercolor="#666666"
     borderopacity="1"
     objecttolerance="10"
     gridtolerance="10"
     guidetolerance="10"
     inkscape:pageopacity="0"
     inkscape:pageshadow="2"
     inkscape:window-width="1600"
     inkscape:window-height="874"
     id="namedview342626"
     showgrid="false"
     inkscape:zoom="2.4453869"
     inkscape:cx="56.639925"
     inkscape:cy="45.87691"
     inkscape:window-x="0"
     inkscape:window-y="1"
     inkscape:window-maximized="1"
     inkscape:current-layer="svg2" />
  <title
     id="title4162">Bingo das Letras</title>
  <defs
     id="defs4">
    <style
       type="text/css"
       id="style6" />
    <filter
       inkscape:collect="always"
       id="filter3868"
       color-interpolation-filters="sRGB">
      <feGaussianBlur
         inkscape:collect="always"
         stdDeviation="0.92200889"
         id="feGaussianBlur3870" />
    </filter>
  </defs>
  <metadata
     id="metadata7">
    <rdf:RDF>
      <cc:Work
         rdf:about="">
        <dc:format>image/svg+xml</dc:format>
        <dc:type
           rdf:resource="http://purl.org/dc/dcmitype/StillImage" />
        <dc:title>Bingo das Letras</dc:title>
        <cc:license
           rdf:resource="" />
        <dc:rights>
          <cc:Agent>
            <dc:title>Copyright © 2002-2016. Portal Clickideia ® - Todos os Direitos Reservados</dc:title>
          </cc:Agent>
        </dc:rights>
        <dc:description>SVG game with snapSVG lib and other javascripts included</dc:description>
        <dc:language>pt_BR</dc:language>
        <dc:subject>
          <rdf:Bag>
            <rdf:li>Educativo</rdf:li>
            <rdf:li>ensino fundamental</rdf:li>
            <rdf:li>clickiéia</rdf:li>
            <rdf:li>letras</rdf:li>
            <rdf:li>lingua portuguesa</rdf:li>
            <rdf:li>infantil</rdf:li>
            <rdf:li>educational game</rdf:li>
            <rdf:li>game design</rdf:li>
            <rdf:li>multimidia</rdf:li>
          </rdf:Bag>
        </dc:subject>
        <dc:creator>
          <cc:Agent>
            <dc:title>http://www.clickideia.com.br/</dc:title>
          </cc:Agent>
        </dc:creator>
        <dc:publisher>
          <cc:Agent>
            <dc:title>http://www.clickideia.com.br/</dc:title>
          </cc:Agent>
        </dc:publisher>
        <dc:date>18/01/2016</dc:date>
        <dc:contributor>
          <cc:Agent>
            <dc:title>michel morandi - michel.morandi@clickideia.com.br</dc:title>
          </cc:Agent>
        </dc:contributor>
      </cc:Work>
    </rdf:RDF>
  </metadata>
  <g
     id="g3876"
     transform="matrix(1.6445247,0,0,1.6445247,4.9448434,5.2096712)">
    <g
       transform="translate(136.8841,-5.3365724)"
       id="g3872">
      <path
         inkscape:connector-curvature="0"
         id="path3862"
         d="m -98.382516,100.46891 c -2.638434,-2.673172 0.95789,-9.344582 18.32255,-33.989772 15.2676,-21.66895 16.72008,-24.7916 16.09096,-34.594322 -0.32393,-5.048284 -1.27593,-7.055238 -4.48188,-9.448838 -1.64816,-1.230517 -8.46951,-2.42984 -8.46951,-1.489111 0,0.287953 1.60019,2.201195 3.55602,4.251597 4.02328,4.218044 4.67128,6.223819 4.1417,12.820914 -0.25368,3.160273 -1.02703,5.58572 -3.16656,9.93116 -4.91617,9.98484 -16.96976,20.59525 -26.81245,23.60204 -4.570544,1.39625 -11.465164,1.40386 -14.110274,0.0157 -3.15005,-1.65327 -7.99944,-7.26094 -8.77732,-10.14984 -0.5938,-2.20519 -1.06741,-2.70456 -3.15897,-3.33119 -3.16413,-0.948 -8.38982,-5.88697 -10.01353,-9.46404 -2.30461,-5.07725 -1.32305,-11.173145 3.19245,-19.825623 2.90587,-5.568094 11.68404,-14.640508 17.42986,-18.014092 8.38576,-4.9236405 16.954094,-6.4676025 22.332724,-4.0242625 3.46461,1.573845 8.53937,7.2600295 9.28553,10.4041155 l 0.58364,2.459592 5.5681,0.02752 c 6.99619,0.03408 10.02474,1.401361 12.40038,5.597976 1.43629,2.537249 1.63538,3.661864 1.61422,9.119796 -0.0216,5.5947 -0.23481,6.675473 -2.10237,10.664018 -1.76258,3.76423 -11.10722,18.03028 -18.77041,28.6559 -8.70589,12.07141 -14.16337,21.53348 -14.16337,24.55627 0,4.141892 6.1887,0.70625 14.5447,-8.07454 8.40562,-8.83283 23.46456,-28.41559 23.46456,-30.51344 0,-0.6029 0.46594,-3.35182 1.03536,-6.10867 1.82876,-8.85354 5.393573,-13.948286 9.107536,-13.016141 1.972287,0.495037 2.746168,2.913741 1.62542,5.080071 -2.816814,5.44463 -21.954016,31.25926 -30.044476,40.52775 -10.33098,11.8353 -17.60189,16.986992 -20.22459,14.329822 z"
         style="fill:#4d4d4d;stroke:#4d4d4d;stroke-width:2.43231392;stroke-linejoin:round;stroke-miterlimit:4;stroke-dasharray:none;filter:url(#filter3868)" />
      <path
         inkscape:connector-curvature="0"
         style="fill:#ffffff;stroke:#ffffff;stroke-width:2.43231392;stroke-linejoin:round;stroke-miterlimit:4;stroke-dasharray:none"
         d="m -98.382516,100.46891 c -2.638434,-2.673172 0.95789,-9.344582 18.32255,-33.989772 15.2676,-21.66895 16.72008,-24.7916 16.09096,-34.594322 -0.32393,-5.048284 -1.27593,-7.055238 -4.48188,-9.448838 -1.64816,-1.230517 -8.46951,-2.42984 -8.46951,-1.489111 0,0.287953 1.60019,2.201195 3.55602,4.251597 4.02328,4.218044 4.67128,6.223819 4.1417,12.820914 -0.25368,3.160273 -1.02703,5.58572 -3.16656,9.93116 -4.91617,9.98484 -16.96976,20.59525 -26.81245,23.60204 -4.570544,1.39625 -11.465164,1.40386 -14.110274,0.0157 -3.15005,-1.65327 -7.99944,-7.26094 -8.77732,-10.14984 -0.5938,-2.20519 -1.06741,-2.70456 -3.15897,-3.33119 -3.16413,-0.948 -8.38982,-5.88697 -10.01353,-9.46404 -2.30461,-5.07725 -1.32305,-11.173145 3.19245,-19.825623 2.90587,-5.568094 11.68404,-14.640508 17.42986,-18.014092 8.38576,-4.9236405 16.954094,-6.4676025 22.332724,-4.0242625 3.46461,1.573845 8.53937,7.2600295 9.28553,10.4041155 l 0.58364,2.459592 5.5681,0.02752 c 6.99619,0.03408 10.02474,1.401361 12.40038,5.597976 1.43629,2.537249 1.63538,3.661864 1.61422,9.119796 -0.0216,5.5947 -0.23481,6.675473 -2.10237,10.664018 -1.76258,3.76423 -11.10722,18.03028 -18.77041,28.6559 -8.70589,12.07141 -14.16337,21.53348 -14.16337,24.55627 0,4.141892 6.1887,0.70625 14.5447,-8.07454 8.40562,-8.83283 23.46456,-28.41559 23.46456,-30.51344 0,-0.6029 0.46594,-3.35182 1.03536,-6.10867 1.82876,-8.85354 5.393573,-13.948286 9.107536,-13.016141 1.972287,0.495037 2.746168,2.913741 1.62542,5.080071 -2.816814,5.44463 -21.954016,31.25926 -30.044476,40.52775 -10.33098,11.8353 -17.60189,16.986992 -20.22459,14.329822 z"
         id="path3092" />
    </g>
    <g
       id="g6194"
       transform="matrix(0.65533193,0,0,0.65533193,-788.36514,-837.61338)">
      <path
         inkscape:connector-curvature="0"
         style="fill:#a6d5f0"
         id="path6220"
         d="m 1261.6879,1424.5499 c -2.447,-0.6713 -3.1233,-3.8005 -1.7516,-8.1044 2.5434,-7.9808 10.0985,-19.8761 34.4458,-54.2343 11.8932,-16.7832 17.2625,-26.9952 18.3413,-34.8831 0.9793,-7.1614 -0.03,-15.2425 -2.344,-18.7748 -2.358,-3.5988 -7.4671,-6.3341 -11.8388,-6.3384 l -3.8504,0 5.0293,5.5028 c 6.7334,7.3675 8.2303,13.3401 5.8178,23.2144 -2.4196,9.9039 -6.6416,17.7581 -14.3364,26.6701 -7.1796,8.3153 -17.3838,15.9592 -27.1656,20.3495 -6.6521,2.9856 -18.02,4.1194 -23.4232,2.3362 -7.0563,-2.3288 -16.7212,-13.2038 -16.7212,-18.8148 0,-1.292 -1.292,-2.2031 -4.4436,-3.1336 -5.421,-1.6006 -13.6453,-9.834 -15.5312,-15.5482 -1.7393,-5.2702 -0.7813,-15.7622 2.0615,-22.5764 6.9454,-16.6485 24.6355,-33.7663 41.2008,-39.8682 7.7873,-2.8684 19.2167,-2.9356 24.6867,-0.145 4.2247,2.1553 13.0163,12.1696 13.0411,14.8549 0.036,3.8923 1.5757,4.5807 9.6715,4.3236 6.4859,-0.206 8.5777,0.1411 12.3132,2.0433 6.8204,3.4729 9.1429,8.4458 9.1429,19.5764 0,4.8387 -0.3216,10.129 -0.7145,11.7563 -1.6385,6.7849 -8.7955,18.2996 -29.8091,47.9587 -10.4307,14.7223 -22.294,34.0428 -23.1793,37.75 -0.5753,2.4089 -0.3643,2.7495 1.7016,2.7463 7.0177,-0.011 23.386,-16.5962 46.2974,-46.9107 7.8508,-10.3875 7.8757,-10.4401 9.6522,-20.3309 0.9797,-5.4541 2.8723,-12.0176 4.2059,-14.5856 2.3505,-4.526 7.592,-9.1691 10.3508,-9.1691 2.0692,0 5.3521,3.744 5.3521,6.1039 0,2.9658 -18.5608,29.7687 -34.899,50.3961 -22.47,28.3691 -35.696,39.9259 -43.304,37.8387 z m 68.5133,-77.6852 c 5.5064,-8.1903 6.802,-11.8481 4.6644,-13.1692 -1.9884,-1.2288 -7.7587,5.9539 -9.307,11.5853 -3.7066,13.481 -3.4213,13.5783 4.6426,1.5839 z" />
      <path
         inkscape:connector-curvature="0"
         style="fill:#f3e61f"
         id="path6218"
         d="m 1260.5576,1423.5445 c -1.264,-1.264 -0.6178,-6.8442 1.2754,-11.0142 2.6487,-5.8337 10.649,-18.2208 23.1556,-35.8523 14.2926,-20.1494 23.4771,-34.2662 26.1087,-40.1299 1.7147,-3.8206 2.1837,-6.833 2.2322,-14.3369 0.087,-13.4657 -2.6976,-17.9227 -12.5859,-20.1444 -6.4739,-1.4546 -7.5511,-0.4077 -3.3636,3.269 10.7297,9.4207 11.7621,20.7515 3.4347,37.6941 -11.3913,23.1762 -39.8877,41.4169 -58.2748,37.3021 -4.6167,-1.0332 -6.2671,-2.088 -10.9515,-6.9991 -3.3247,-3.4856 -5.988,-7.3594 -6.705,-9.7524 -1.0447,-3.487 -1.7782,-4.1789 -6.0306,-5.6892 -5.8912,-2.0924 -13.4767,-10.2222 -15.0967,-16.1801 -5.1517,-18.9456 16.8492,-50.5333 42.1395,-60.5018 6.9461,-2.7379 17.3861,-3.6695 22.5822,-2.015 6.6269,2.1101 16.4131,12.7591 16.4131,17.8602 0,2.6851 2.2247,3.2917 9.3822,2.5584 13.768,-1.4105 21.5767,6.2268 21.5714,21.0982 0,14.4186 -2.6284,19.7354 -26.3967,53.5 -21.6408,30.7424 -27.5569,40.6379 -27.5569,46.0929 0,1.889 0.3938,2.0783 3.169,1.5233 7.9332,-1.5866 23.523,-17.7413 45.4686,-47.1162 8.9368,-11.9621 8.9688,-12.0261 10.1307,-20.281 1.3105,-9.3107 4.0688,-16.3927 7.9724,-20.469 4.291,-4.4809 10.2593,-3.3082 10.2593,2.0157 0,3.1787 -0.9277,4.7847 -10.8223,18.7343 -27.2237,38.3808 -48.5627,63.1331 -58.4871,67.8426 -3.5896,1.7033 -7.8442,2.1704 -9.0239,0.9907 z m 68.8495,-74.7096 c 6.5817,-9.1885 7.9688,-11.9174 7.1466,-14.0599 -1.607,-4.1879 -7.1451,-0.2725 -10.5357,7.4487 -2.1978,5.0049 -4.3153,15.2285 -3.0607,14.7778 0.4444,-0.1597 3.3468,-3.8346 6.4498,-8.1666 z" />
      <path
         inkscape:connector-curvature="0"
         style="fill:#69a6cd"
         id="path6216"
         d="m 1260.5576,1423.5445 c -1.264,-1.264 -0.6178,-6.8442 1.2754,-11.0142 2.6487,-5.8337 10.649,-18.2208 23.1556,-35.8523 14.2926,-20.1494 23.4771,-34.2662 26.1087,-40.1299 1.7147,-3.8206 2.1837,-6.833 2.2322,-14.3369 0.087,-13.4657 -2.6976,-17.9227 -12.5859,-20.1444 -6.4739,-1.4546 -7.5511,-0.4077 -3.3636,3.269 10.7297,9.4207 11.7621,20.7515 3.4347,37.6941 -11.3913,23.1762 -39.8877,41.4169 -58.2748,37.3021 -4.6167,-1.0332 -6.2671,-2.088 -10.9515,-6.9991 -3.3247,-3.4856 -5.988,-7.3594 -6.705,-9.7524 -1.0447,-3.487 -1.7782,-4.1789 -6.0306,-5.6892 -5.8912,-2.0924 -13.4767,-10.2222 -15.0967,-16.1801 -5.1517,-18.9456 16.8492,-50.5333 42.1395,-60.5018 6.9461,-2.7379 17.3861,-3.6695 22.5822,-2.015 6.6269,2.1101 16.4131,12.7591 16.4131,17.8602 0,2.6851 2.2247,3.2917 9.3822,2.5584 13.768,-1.4105 21.5767,6.2268 21.5714,21.0982 0,14.4186 -2.6284,19.7354 -26.3967,53.5 -21.6408,30.7424 -27.5569,40.6379 -27.5569,46.0929 0,1.889 0.3938,2.0783 3.169,1.5233 7.9332,-1.5866 23.523,-17.7413 45.4686,-47.1162 8.9368,-11.9621 8.9688,-12.0261 10.1307,-20.281 1.3105,-9.3107 4.0688,-16.3927 7.9724,-20.469 4.291,-4.4809 10.2593,-3.3082 10.2593,2.0157 0,3.1787 -0.9277,4.7847 -10.8223,18.7343 -27.2237,38.3808 -48.5627,63.1331 -58.4871,67.8426 -3.5896,1.7033 -7.8442,2.1704 -9.0239,0.9907 z m 68.8495,-74.7096 c 6.5817,-9.1885 7.9688,-11.9174 7.1466,-14.0599 -1.607,-4.1879 -7.1451,-0.2725 -10.5357,7.4487 -2.1978,5.0049 -4.3153,15.2285 -3.0607,14.7778 0.4444,-0.1597 3.3468,-3.8346 6.4498,-8.1666 z m -100.0162,-23.4994 c 10.042,-4.5986 20.1143,-15.3905 23.1505,-24.8046 1.5634,-4.8473 1.5626,-5.3456 -0.013,-7.75 -3.4374,-5.2462 -13.4089,-1.9929 -24.4124,7.9646 -9.2078,8.3326 -14.9042,21.3867 -11.0252,25.2657 1.7542,1.7542 7.7081,1.4271 12.3,-0.6757 z m -7.75,-3.1916 c -6.1651,-3.636 3.7398,-20.5294 15.7352,-26.8371 14.1856,-7.4594 16.6354,5.1193 3.5172,18.0589 -7.9631,7.8548 -15.2132,11.1605 -19.2524,8.7782 z" />
      <path
         inkscape:connector-curvature="0"
         style="fill:#f29326"
         id="path6214"
         d="m 1261.1409,1423.0777 c -4.0261,-4.0791 1.4617,-14.2593 27.9592,-51.8665 23.2975,-33.0656 25.5139,-37.8306 24.5539,-52.789 -0.4943,-7.7034 -1.947,-10.7659 -6.8391,-14.4184 -2.515,-1.8777 -12.924,-3.7078 -12.924,-2.2723 0,0.4394 2.4418,3.3589 5.4263,6.4877 6.1393,6.4365 7.1281,9.4972 6.32,19.564 -1.4544,18.1192 -22.3373,42.3793 -43.4426,50.4686 -7.2957,2.7962 -19.289,3.1737 -23.8352,0.7501 -4.8349,-2.5775 -12.211,-11.1207 -13.3937,-15.5131 -0.9061,-3.365 -1.6288,-4.127 -4.8204,-5.0832 -4.8283,-1.4466 -12.8024,-8.9832 -15.2801,-14.4416 -3.5167,-7.7476 -2.0189,-17.0496 4.8715,-30.2528 4.4342,-8.4966 17.8292,-22.3406 26.597,-27.4885 12.7962,-7.5132 25.871,-9.8692 34.0785,-6.1408 5.2868,2.4016 13.0306,11.0784 14.1692,15.8761 l 0.8906,3.7532 8.4966,0.042 c 10.6758,0.052 15.2972,2.1384 18.9223,8.5422 2.1917,3.8717 2.4955,5.5878 2.4632,13.9163 -0.033,8.5372 -0.3583,10.1864 -3.2081,16.2727 -2.6896,5.744 -16.949,27.5132 -28.6426,43.7273 -13.2847,18.4203 -21.6125,32.8589 -21.6125,37.4715 0,6.3203 9.4436,1.0777 22.1944,-12.3213 12.8265,-13.4784 35.8056,-43.3606 35.8056,-46.5618 0,-0.92 0.711,-5.1147 1.5799,-9.3215 2.7906,-13.51 8.2303,-21.2843 13.8976,-19.8619 3.0096,0.7554 4.1905,4.4462 2.4803,7.7519 -4.2983,8.3082 -33.5006,47.6999 -45.8462,61.8431 -15.7645,18.06 -26.8595,25.9212 -30.8616,21.8665 z m 68.6648,-74.3789 c 7.6055,-11.0721 8.6356,-14.6962 4.3501,-15.3052 -4.6084,-0.6548 -10.1868,9.1179 -11.7403,20.5676 -0.3917,2.8875 -0.5139,5.25 -0.2716,5.25 0.2424,0 3.6902,-4.7306 7.6618,-10.5124 z m -100.4148,-23.3633 c 10.042,-4.5986 20.1143,-15.3905 23.1505,-24.8046 1.5634,-4.8473 1.5626,-5.3456 -0.013,-7.75 -3.4374,-5.2462 -13.4089,-1.9929 -24.4124,7.9646 -9.2078,8.3326 -14.9042,21.3867 -11.0252,25.2657 1.7542,1.7542 7.7081,1.4271 12.3,-0.6757 z m -7.75,-3.1916 c -6.1651,-3.636 3.7398,-20.5294 15.7352,-26.8371 14.1856,-7.4594 16.6354,5.1193 3.5172,18.0589 -7.9631,7.8548 -15.2132,11.1605 -19.2524,8.7782 z" />
      <path
         inkscape:connector-curvature="0"
         style="fill:#f6911a"
         id="path6212"
         d="m 1261.1409,1423.0777 c -4.0261,-4.0791 1.4617,-14.2593 27.9592,-51.8665 23.2975,-33.0656 25.5139,-37.8306 24.5539,-52.789 -0.4943,-7.7034 -1.947,-10.7659 -6.8391,-14.4184 -2.515,-1.8777 -12.924,-3.7078 -12.924,-2.2723 0,0.4394 2.4418,3.3589 5.4263,6.4877 6.1393,6.4365 7.1281,9.4972 6.32,19.564 -0.3871,4.8224 -1.5672,8.5235 -4.832,15.1544 -7.5018,15.2363 -25.8949,31.4272 -40.9143,36.0154 -6.9744,2.1306 -17.4952,2.1422 -21.5315,0.024 -4.8068,-2.5228 -12.2067,-11.0798 -13.3937,-15.4881 -0.9061,-3.365 -1.6288,-4.127 -4.8204,-5.0832 -4.8283,-1.4466 -12.8024,-8.9832 -15.2801,-14.4416 -3.5167,-7.7476 -2.0189,-17.0496 4.8715,-30.2528 4.4342,-8.4966 17.8292,-22.3406 26.597,-27.4885 12.7962,-7.5132 25.871,-9.8692 34.0785,-6.1408 5.2868,2.4016 13.0306,11.0784 14.1692,15.8761 l 0.8906,3.7532 8.4966,0.042 c 10.6758,0.052 15.2972,2.1384 18.9223,8.5422 2.1917,3.8717 2.4955,5.5878 2.4632,13.9163 -0.033,8.5372 -0.3583,10.1864 -3.2081,16.2727 -2.6896,5.744 -16.949,27.5132 -28.6426,43.7273 -13.2847,18.4203 -21.6125,32.8589 -21.6125,37.4715 0,6.3203 9.4436,1.0777 22.1944,-12.3213 12.8265,-13.4784 35.8056,-43.3606 35.8056,-46.5618 0,-0.92 0.711,-5.1147 1.5799,-9.3215 2.7906,-13.51 8.2303,-21.2843 13.8976,-19.8619 3.0096,0.7554 4.1905,4.4462 2.4803,7.7519 -4.2983,8.3082 -33.5006,47.6999 -45.8462,61.8431 -15.7645,18.06 -26.8595,25.9212 -30.8616,21.8665 z m -3.1815,-45.478 c 27.0414,-8.0232 52.2006,-40.8929 45.9039,-59.972 -1.8364,-5.5646 -10.4817,-14.4165 -14.0798,-14.4165 l -2.8173,0 0.5694,6.25 c 0.6902,7.576 -1.2277,13.3005 -7.5997,22.6838 -7.9175,11.6589 -19.0528,21.3172 -31.2009,27.0624 -8.2091,3.8823 -13.4383,4.618 -18.3213,2.5778 -2.1064,-0.8802 -4.0464,-1.3838 -4.3109,-1.1192 -2.0222,2.0222 8.2355,14.5357 13.9494,17.017 4.4325,1.9249 11.2454,1.8932 17.9072,-0.083 z m -21.9591,-4.5858 c -2.8379,-2.3085 -5.8235,-5.5277 -6.6346,-7.1537 -1.857,-3.7224 -1.8524,-4.2072 0.025,-2.649 0.825,0.6847 1.5,0.9397 1.5,0.5667 0,-0.373 1.1503,0.5844 2.5563,2.1275 2.2455,2.4646 2.4843,2.5442 1.964,0.6546 -0.5361,-1.9467 -0.094,-2.2198 4.6538,-2.8727 2.8853,-0.3969 6.0516,-1.2246 7.036,-1.8394 1.3299,-0.8305 2.2762,-0.8141 3.6821,0.064 2.4001,1.4989 3.6456,0.4132 1.4053,-1.225 -1.5105,-1.1045 -1.4412,-1.2952 0.7189,-1.9808 1.3147,-0.4173 3.0101,-1.3784 3.7676,-2.1359 0.7575,-0.7575 1.791,-1.1216 2.2966,-0.8091 0.5057,0.3125 0.9194,0.039 0.9194,-0.6074 0,-1.1335 0.7129,-1.0785 7,0.5395 2.3564,0.6065 2.3852,0.5681 0.5,-0.6692 -2.4005,-1.5756 -3.18,-4.8127 -1.1588,-4.8127 0.7858,0 2.1053,-1.0125 2.9322,-2.25 0.8269,-1.2375 3.8018,-4.725 6.6109,-7.75 2.809,-3.025 5.8054,-6.9625 6.6585,-8.75 0.8531,-1.7875 1.6544,-3.25 1.7808,-3.25 0.1263,0 0.2065,1.7406 0.1782,3.8679 -0.046,3.4614 0.1352,3.7512 1.7259,2.7578 1.9672,-1.2285 1.7671,-3.302 -0.272,-2.8193 -1.0113,0.2395 -1.0348,-0.01 -0.1077,-1.1232 0.6526,-0.7863 0.9056,-2.1617 0.5623,-3.0565 -0.3653,-0.9517 -0.1206,-1.6267 0.5897,-1.6267 0.6677,0 0.9696,-0.6369 0.6709,-1.4153 -0.2987,-0.7784 0.3281,-3.7082 1.393,-6.5107 2.1631,-5.6928 2.4831,-10.127 0.849,-11.7611 -0.6465,-0.6465 -0.7091,-1.3208 -0.1544,-1.6637 1.1354,-0.7017 9.4317,6.9035 11.2223,10.2874 1.7615,3.329 2.458,9.0634 1.1008,9.0634 -0.9472,0 -1.5924,-2.9231 -1.1752,-5.3243 0.079,-0.4534 -0.318,-0.5394 -0.8816,-0.191 -0.5636,0.3483 -1.0248,0.067 -1.0248,-0.6257 0,-0.8694 -0.3209,-0.9381 -1.0372,-0.2218 -1.2869,1.2869 0,4.9238 2.9315,8.2658 1.1581,1.3217 2.1057,3.0061 2.1057,3.7431 0,2.1754 -8.6116,19.409 -9.3364,18.6841 -0.365,-0.3649 -0.6636,-0.1663 -0.6636,0.4414 0,2.078 -6.0399,7.7284 -8.2611,7.7284 -1.3645,0 -2.3493,0.7156 -2.5713,1.8684 -0.2265,1.176 0.052,1.6137 0.7526,1.1809 0.6118,-0.3781 0.8567,-1.1012 0.5442,-1.6069 -0.3126,-0.5057 0.096,-0.6646 0.908,-0.353 3.1604,1.2128 -8.2003,10.4106 -12.8587,10.4106 -1.7566,0 -2.913,0.7823 -3.6957,2.5 -0.6264,1.375 -1.9668,2.5 -2.9785,2.5 -1.0117,0 -1.8395,0.4783 -1.8395,1.0629 0,0.5845 -0.7875,0.9654 -1.75,0.8463 -0.9625,-0.1191 -2.5677,0.1373 -3.5672,0.5699 -1.069,0.4626 -2.2837,0.32 -2.95,-0.3463 -1.3598,-1.3598 -7.3797,-1.5131 -8.186,-0.2085 -0.3142,0.5084 0.2217,1.1312 1.191,1.384 0.9692,0.2528 -0.09,0.5119 -2.3532,0.5757 -3.4368,0.097 -4.9662,-0.5761 -9.2752,-4.0813 z m 9.3949,0.2043 c -0.2602,-0.4211 -1.4059,-1.0095 -2.5459,-1.3076 -1.5871,-0.4151 -1.8271,-0.2461 -1.0242,0.7213 0.5766,0.6948 0.7828,1.5289 0.4582,1.8536 -0.3246,0.3246 0.3492,0.3445 1.4974,0.044 1.1483,-0.3003 1.8748,-0.8905 1.6145,-1.3116 z m -1.5043,-6.007 c 0,-0.55 -0.1984,-1 -0.441,-1 -0.2425,0 -0.7191,0.45 -1.059,1 -0.3399,0.55 -0.1415,1 0.441,1 0.5824,0 1.059,-0.45 1.059,-1 z m -2,-1.441 c 0,-0.2425 -0.45,-0.7191 -1,-1.059 -0.55,-0.3399 -1,-0.1415 -1,0.441 0,0.5824 0.45,1.059 1,1.059 0.55,0 1,-0.1984 1,-0.441 z m 9,-0.559 c 0,-0.55 -0.4132,-1 -0.9182,-1 -0.505,0 -1.63,-0.2731 -2.5,-0.607 -1.038,-0.3983 -1.5818,-0.054 -1.5818,1 0,1.0475 0.8705,1.607 2.5,1.607 1.375,0 2.5,-0.45 2.5,-1 z m 24.5884,-2.7449 c -1.0924,-1.0924 -1.8415,0.6448 -1.0572,2.4518 0.7437,1.7133 0.7976,1.7118 1.212,-0.035 0.2385,-1.0055 0.1688,-2.093 -0.1548,-2.4166 z m -18.0884,0.7449 c -0.3399,-0.55 -1.068,-1 -1.618,-1 -0.55,0 -0.7219,0.45 -0.382,1 0.3399,0.55 1.068,1 1.618,1 0.55,0 0.7219,-0.45 0.382,-1 z m 21.5037,-4.4961 c -2.6833,-2.8562 -3.6899,-2.6546 -2.0495,0.4105 0.6139,1.1471 1.8538,2.0856 2.7553,2.0856 1.3303,0 1.1974,-0.4702 -0.7058,-2.4961 z m -5.0037,-9.9449 c 0,-0.7925 -0.45,-1.7191 -1,-2.059 -0.55,-0.3399 -1,0.3085 -1,1.441 0,1.1324 0.45,2.059 1,2.059 0.55,0 1,-0.6484 1,-1.441 z m 18,-4.059 c 0,-1.375 -0.45,-2.5 -1,-2.5 -1.1172,0 -1.3707,3.296 -0.3333,4.3333 1.1023,1.1024 1.3333,0.7848 1.3333,-1.8333 z m 6,-6.5 c 0,-1.1 -0.45,-2 -1,-2 -0.55,0 -1,0.9 -1,2 0,1.1 0.45,2 1,2 0.55,0 1,-0.9 1,-2 z m -4,-14.5 c 0,-0.825 -0.45,-1.5 -1,-1.5 -0.55,0 -1,0.675 -1,1.5 0,0.825 0.45,1.5 1,1.5 0.55,0 1,-0.675 1,-1.5 z m 2,-10.618 c 0,-0.55 -0.45,-0.7219 -1,-0.382 -0.55,0.3399 -1,1.068 -1,1.618 0,0.55 0.45,0.7219 1,0.382 0.55,-0.3399 1,-1.068 1,-1.618 z m 33.9148,35.6056 c 7.6055,-11.0721 8.6356,-14.6962 4.3501,-15.3052 -4.6084,-0.6548 -10.1868,9.1179 -11.7403,20.5676 -0.3917,2.8875 -0.5139,5.25 -0.2716,5.25 0.2424,0 3.6902,-4.7306 7.6618,-10.5124 z m -97.9148,8.5982 c 0,-0.5028 -1.8,-0.7073 -4,-0.4546 -3.2394,0.3722 -4,0.1451 -4,-1.1942 0,-1.2646 -0.5882,-1.5062 -2.4993,-1.0265 -1.9907,0.4996 -3.1948,-0.089 -5.9167,-2.8916 -1.8795,-1.9354 -3.8287,-3.5189 -4.3316,-3.5189 -0.7677,0 -1.8683,-1.7134 -4.0072,-6.2385 -0.192,-0.4062 0.3493,-0.4706 1.2029,-0.1431 0.8535,0.3276 1.5519,0.9671 1.5519,1.4212 0,0.4541 0.9,1.1113 2,1.4604 1.1,0.3491 2,1.1035 2,1.6764 0,1.2055 4.1368,5.7807 5.25,5.8063 1.6484,0.038 0.6002,-2.5477 -1.9055,-4.7009 -1.4606,-1.255 -2.2481,-2.2887 -1.75,-2.2971 0.498,-0.01 0.2305,-0.4515 -0.5945,-0.9847 -1.1518,-0.7444 -0.8037,-0.9718 1.5,-0.9797 2.7985,-0.01 12.3824,-2.8646 13.5,-4.0214 0.275,-0.2847 2.4452,-1.7789 4.8226,-3.3205 3.2859,-2.1306 4.6435,-2.5364 5.6609,-1.6921 1.4502,1.2035 3.0896,-0.2499 2.0958,-1.858 -0.4388,-0.71 6.4313,-7.5993 12.1927,-12.2266 0.6996,-0.5619 1.0105,-1.4446 0.691,-1.9616 -0.3196,-0.5171 0.1205,-0.9401 0.978,-0.9401 0.8574,0 1.559,-0.4325 1.559,-0.961 0,-0.5286 0.8366,-1.7661 1.8591,-2.75 1.0224,-0.984 2.1606,-3.0449 2.5293,-4.5799 0.9292,-3.8691 2.9842,-2.322 2.19,1.6488 -0.5743,2.8717 -0.4964,2.9886 0.9969,1.4954 1.2721,-1.2721 1.3842,-2.0604 0.5223,-3.6709 -1.518,-2.8364 -1.3722,-5.7096 0.3629,-7.1496 0.8033,-0.6667 1.7614,-3.8718 2.1292,-7.1225 0.3677,-3.2506 1.0605,-5.9103 1.5395,-5.9103 1.6993,0 0.8405,-2.8748 -1.0368,-3.4707 -1.0492,-0.333 -2.1526,-1.2438 -2.452,-2.0241 -0.4465,-1.1636 -0.1036,-1.2178 1.9076,-0.3014 1.3486,0.6145 2.452,1.495 2.452,1.9567 0,0.4617 0.675,0.8395 1.5,0.8395 0.825,0 1.5,0.675 1.5,1.5 0,0.825 -0.45,1.5 -1,1.5 -0.55,0 -1,0.54 -1,1.2 0,0.9333 0.2667,0.9333 1.2,0 1.4449,-1.4449 3.167,-1.6028 2.3071,-0.2115 -0.3469,0.5613 0.043,0.7378 0.9012,0.4083 1.1208,-0.4301 1.4058,-0.028 1.101,1.5549 -0.2983,1.5491 0.2563,2.3889 2.0207,3.0597 1.6093,0.6118 2.233,1.4428 1.8439,2.4566 -0.3233,0.8426 -0.09,1.532 0.5191,1.532 0.6279,0 1.107,1.7604 1.107,4.0674 0,3.5527 -0.2424,3.9904 -1.9158,3.4593 -2.27,-0.7204 -3.7511,1.0034 -1.5785,1.8371 1.5136,0.5808 2.1527,5.6362 0.7126,5.6362 -0.4299,0 -1.3988,2.1375 -2.1531,4.75 -1.8915,6.5517 -4.8443,10.6782 -6.5989,9.222 -0.9832,-0.8159 -1.909,-0.8054 -3.488,0.04 -1.1823,0.6328 -1.8969,1.4031 -1.5881,1.7119 0.3088,0.3088 1.2276,0.01 2.0418,-0.6671 0.8142,-0.6757 1.9513,-0.9375 2.5269,-0.5818 1.5419,0.9529 -0.568,4.3902 -3.5206,5.7355 -1.3411,0.611 -2.4383,1.7403 -2.4383,2.5094 0,0.7692 -0.45,1.1204 -1,0.7805 -0.55,-0.3399 -1,-0.064 -1,0.6122 0,1.9725 -3.1385,4.8878 -5.262,4.8878 -1.3841,0 -1.7721,0.4687 -1.3337,1.6112 0.5077,1.3231 0.1379,1.4907 -2.0676,0.9372 -2.3541,-0.5909 -2.5257,-0.4811 -1.3889,0.8887 1.0855,1.308 1.0324,1.5629 -0.3254,1.5629 -0.8923,0 -1.6224,0.3667 -1.6224,0.8148 0,1.3611 -7.0908,4.2912 -8.9537,3.6999 -0.9588,-0.3043 -2.981,0.089 -4.4937,0.8736 -2.3647,1.2269 -2.4911,1.4938 -0.9015,1.9033 1.5498,0.3993 1.4944,0.4952 -0.3421,0.5924 -1.205,0.064 -2.4988,0.6141 -2.8751,1.2229 -1.2059,1.9512 5.6262,-0.095 12.8092,-3.8356 9.9624,-5.1884 14.7807,-8.9268 22.2581,-17.2694 13.8841,-15.4905 18.9213,-33.1101 12.4563,-43.5706 -3.0824,-4.9876 -10.1775,-10.4305 -14.5138,-11.1341 l -3.7316,-0.6056 2.2724,3.0736 c 5.5302,7.48 -0.068,22.7791 -13.5966,37.1606 -16.0702,17.0827 -35.4775,25.5112 -43.753,19.0016 -2.098,-1.6503 -2.6349,-1.7654 -2.6349,-0.5651 0,5.2586 7.5597,14.5037 14.5,17.7327 4.1487,1.9302 12.5,2.5922 12.5,0.9908 z m 19,-11.5268 c 0,-0.2425 -0.45,-0.7191 -1,-1.059 -0.55,-0.3399 -1,-0.1415 -1,0.441 0,0.5824 0.45,1.059 1,1.059 0.55,0 1,-0.1984 1,-0.441 z m 14.5023,-0.8003 c 0.4501,0.4077 0.4811,0.1569 0.069,-0.5573 -0.5773,-1.0004 -1.0732,-1.0297 -2.1603,-0.1275 -0.7761,0.644 -1.411,1.396 -1.411,1.671 0,0.275 0.6039,0 1.342,-0.6138 0.7381,-0.6126 1.7103,-0.7802 2.1603,-0.3724 z m -16.7523,-11.389 c 1.2375,-0.3316 2.25,-1.2096 2.25,-1.9511 0,-0.7415 0.9,-1.8299 2,-2.4186 2.1156,-1.1322 2.6548,-3.4773 1.0303,-4.4813 -0.5334,-0.3296 -1.649,1.0262 -2.4791,3.013 -0.8301,1.9867 -1.9687,3.3283 -2.5302,2.9813 -0.5616,-0.3471 -1.021,-0.1545 -1.021,0.428 0,0.5824 -0.3375,1.0057 -0.75,0.9406 -1.8333,-0.2895 -3.25,0.198 -3.25,1.1184 0,1.1334 1.4725,1.248 4.75,0.3697 z m 15.5634,-2.1197 c -0.8518,-2.3895 -2.3713,-4.25 -3.471,-4.25 -1.6065,0 2.1934,5.8668 3.8762,5.9847 0.1203,0.01 -0.062,-0.7722 -0.4052,-1.7347 z m -33.4126,-6.4938 c 5.7131,-2.7744 18.0882,-14.9269 20.5171,-20.1479 2.4369,-5.2384 3.1613,-11.2055 1.59,-13.0987 -1.8987,-2.2878 -8.4286,-1.8368 -13.9554,0.9638 -6.5618,3.3251 -16.5655,12.7497 -20.1307,18.9654 -3.7963,6.6185 -4.1201,14.1238 -0.6718,15.5679 2.9339,1.2286 6.9622,0.512 12.6508,-2.2505 z m -9.257,-3.2553 c -5.1539,-5.1539 4.2427,-20.235 16.5664,-26.5882 7.1283,-3.6749 12.5118,-1.5347 11.2216,4.461 -1.0871,5.0524 -3.3512,8.678 -8.8048,14.1001 -7.5446,7.501 -15.9536,11.0567 -18.9832,8.0271 z m 47.3562,1.0305 c 0,-0.8946 -0.5863,-1.2436 -1.5,-0.893 -0.825,0.3166 -1.5,0.9774 -1.5,1.4686 0,0.4911 0.675,0.893 1.5,0.893 0.825,0 1.5,-0.6609 1.5,-1.4686 z m -6.5828,-2.7814 c 0.2504,-1.2375 0.409,-3.097 0.3524,-4.1323 -0.099,-1.8142 -0.1512,-1.8163 -1.4363,-0.059 -1.5502,2.1201 -1.7866,6.4412 -0.3524,6.4412 0.5396,0 1.1859,-1.0125 1.4363,-2.25 z m 15.0828,-11.75 c -0.3399,-0.55 -1.379,-0.9931 -2.309,-0.9847 -1.4573,0.013 -1.4837,0.1493 -0.191,0.9847 1.9584,1.2656 3.2822,1.2656 2.5,0 z m 4.1042,-7.7292 c -1.0165,-1.0165 -1.8553,0.5139 -1.0213,1.8634 0.6301,1.0194 0.8656,1.0202 1.2044,0 0.2315,-0.6948 0.1492,-1.5351 -0.1831,-1.8674 z m -6.9419,-1.5208 c -0.2774,-0.6875 -0.5044,-0.125 -0.5044,1.25 0,1.375 0.227,1.9375 0.5044,1.25 0.2774,-0.6875 0.2774,-1.8125 0,-2.5 z" />
      <path
         inkscape:connector-curvature="0"
         style="fill:#518eb4"
         id="path6210"
         d="m 1261.1409,1423.0777 c -4.0261,-4.0791 1.4617,-14.2593 27.9592,-51.8665 23.2975,-33.0656 25.5139,-37.8306 24.5539,-52.789 -0.4943,-7.7034 -1.947,-10.7659 -6.8391,-14.4184 -2.515,-1.8777 -12.924,-3.7078 -12.924,-2.2723 0,0.4394 2.4418,3.3589 5.4263,6.4877 6.1393,6.4365 7.1281,9.4972 6.32,19.564 -0.3871,4.8224 -1.5672,8.5235 -4.832,15.1544 -7.5018,15.2363 -25.8949,31.4272 -40.9143,36.0154 -6.9744,2.1306 -17.4952,2.1422 -21.5315,0.024 -4.8068,-2.5228 -12.2067,-11.0798 -13.3937,-15.4881 -0.9061,-3.365 -1.6288,-4.127 -4.8204,-5.0832 -4.8283,-1.4466 -12.8024,-8.9832 -15.2801,-14.4416 -3.5167,-7.7476 -2.0189,-17.0496 4.8715,-30.2528 4.4342,-8.4966 17.8292,-22.3406 26.597,-27.4885 12.7962,-7.5132 25.871,-9.8692 34.0785,-6.1408 5.2868,2.4016 13.0306,11.0784 14.1692,15.8761 l 0.8906,3.7532 8.4966,0.042 c 10.6758,0.052 15.2972,2.1384 18.9223,8.5422 2.1917,3.8717 2.4955,5.5878 2.4632,13.9163 -0.033,8.5372 -0.3583,10.1864 -3.2081,16.2727 -2.6896,5.744 -16.949,27.5132 -28.6426,43.7273 -13.2847,18.4203 -21.6125,32.8589 -21.6125,37.4715 0,6.3203 9.4436,1.0777 22.1944,-12.3213 12.8265,-13.4784 35.8056,-43.3606 35.8056,-46.5618 0,-0.92 0.711,-5.1147 1.5799,-9.3215 2.7906,-13.51 8.2303,-21.2843 13.8976,-19.8619 3.0096,0.7554 4.1905,4.4462 2.4803,7.7519 -4.2983,8.3082 -33.5006,47.6999 -45.8462,61.8431 -15.7645,18.06 -26.8595,25.9212 -30.8616,21.8665 z m -3.1815,-45.478 c 27.0414,-8.0232 52.2006,-40.8929 45.9039,-59.972 -1.8364,-5.5646 -10.4817,-14.4165 -14.0798,-14.4165 l -2.8173,0 0.5694,6.25 c 0.6902,7.576 -1.2277,13.3005 -7.5997,22.6838 -7.9175,11.6589 -19.0528,21.3172 -31.2009,27.0624 -8.2091,3.8823 -13.4383,4.618 -18.3213,2.5778 -2.1064,-0.8802 -4.0464,-1.3838 -4.3109,-1.1192 -2.0222,2.0222 8.2355,14.5357 13.9494,17.017 4.4325,1.9249 11.2454,1.8932 17.9072,-0.083 z m 71.8463,-28.9009 c 7.6055,-11.0721 8.6356,-14.6962 4.3501,-15.3052 -4.6084,-0.6548 -10.1868,9.1179 -11.7403,20.5676 -0.3917,2.8875 -0.5139,5.25 -0.2716,5.25 0.2424,0 3.6902,-4.7306 7.6618,-10.5124 z m -94.1604,8.0899 c 5.5405,-1.475 16.2328,-6.9549 22.4419,-11.5019 5.7939,-4.243 16.7431,-17.0125 19.8291,-23.126 6.4155,-12.7089 7.4277,-23.2444 2.9321,-30.5183 -3.0824,-4.9876 -10.1775,-10.4305 -14.5138,-11.1341 l -3.7316,-0.6056 2.2724,3.0736 c 5.5302,7.48 -0.068,22.7791 -13.5966,37.1606 -16.0702,17.0827 -35.4775,25.5112 -43.753,19.0016 -2.098,-1.6503 -2.6349,-1.7654 -2.6349,-0.5651 0,5.2586 7.5597,14.5037 14.5,17.7327 4.7925,2.2298 9.1995,2.3606 16.2544,0.4825 z m 29.7479,-11.8188 c 0.4501,0.4077 0.4811,0.1569 0.069,-0.5573 -0.5773,-1.0004 -1.0732,-1.0297 -2.1603,-0.1275 -0.7761,0.644 -1.411,1.396 -1.411,1.671 0,0.275 0.6039,0 1.342,-0.6138 0.7381,-0.6126 1.7103,-0.7802 2.1603,-0.3724 z m -34.6015,-20.0025 c 5.7131,-2.7744 18.0882,-14.9269 20.5171,-20.1479 2.4369,-5.2384 3.1613,-11.2055 1.59,-13.0987 -1.8987,-2.2878 -8.4286,-1.8368 -13.9554,0.9638 -6.5618,3.3251 -16.5655,12.7497 -20.1307,18.9654 -3.7963,6.6185 -4.1201,14.1238 -0.6718,15.5679 2.9339,1.2286 6.9622,0.512 12.6508,-2.2505 z m -10.2938,-4.338 c -1.1768,-3.0666 -0.5577,-5.9714 2.3549,-11.0496 6.3389,-11.0521 20.7887,-19.4751 25.4365,-14.8273 4.6057,4.6057 -5.1128,19.7012 -16.3864,25.4526 -4.7951,2.4462 -10.547,2.6602 -11.405,0.4243 z" />
      <path
         inkscape:connector-curvature="0"
         style="fill:#e10f69"
         id="path6208"
         d="m 1260.812,1422.0637 c -0.8469,-1.5825 -0.8617,-3.1075 -0.056,-5.7967 1.363,-4.5492 12.5249,-22.313 25.1692,-40.0558 14.8327,-20.8136 21.9236,-31.6855 25.1174,-38.5105 2.5778,-5.5085 2.9359,-7.4184 3.0231,-16.1192 0.076,-7.6021 0.3093,-9.1809 1.0145,-6.8703 1.1744,3.8478 0.2599,14.9754 -1.6834,20.4834 -1.8461,5.2324 -8.8911,16.629 -20.1006,32.5166 -27.8751,39.5082 -33.9249,50.0396 -31.0241,54.0066 1.1216,1.5339 1.5491,1.5494 4.8387,0.1749 8.3591,-3.4927 27.7274,-24.5607 48.1324,-52.3564 3.4839,-4.7458 4.7498,-7.523 5.4696,-12 0.7995,-4.9722 0.9543,-5.2674 1.0574,-2.0161 0.079,2.4802 0.5024,3.5732 1.2147,3.1329 0.6017,-0.3718 4.2017,-5.3913 8,-11.1544 3.7983,-5.7631 6.8965,-9.8729 6.8849,-9.1329 -0.012,0.74 -5.0903,8.5454 -11.286,17.3454 -25.451,36.149 -47.1238,61.108 -57.7851,66.547 -4.9037,2.5017 -6.5654,2.4612 -7.9867,-0.1945 z m -17.9211,-41.7536 c -4.8276,-1.005 -6.8245,-2.2514 -11.8113,-7.3723 -2.5626,-2.6315 -4.8257,-6.1694 -5.5795,-8.7225 -1.0961,-3.7121 -1.8456,-4.5131 -5.5207,-5.8997 -4.5604,-1.7206 -12.2125,-8.7064 -14.902,-13.6044 -2.5197,-4.589 -2.0657,-15.5548 0.9527,-23.0084 7.5529,-18.6511 25.0541,-35.3067 43.084,-41.0023 9.3083,-2.9405 15.7811,-3.1286 21.2768,-0.6183 5.6266,2.5701 12.2291,10.0875 13.7044,15.6034 1.3302,4.9735 1.1886,4.9149 11.0083,4.5551 3.142,-0.1151 7.282,0.3087 9.2,0.9417 3.5009,1.1554 9.5873,7.0567 9.5873,9.2957 0,0.6586 -1.1017,-0.4239 -2.4482,-2.4055 -2.8414,-4.1815 -8.6183,-6.8614 -14.7907,-6.8614 l -4.1985,0 5.6637,5.75 c 6.5906,6.6912 7.7737,9.2968 7.7737,17.1209 0,19.8125 -22.1144,46.8364 -44.3735,54.2244 -6.4184,2.1304 -14.0658,2.953 -18.6265,2.0036 z m 15.0685,-2.7104 c 22.583,-6.7004 44.1281,-30.1931 46.5444,-50.7519 0.8621,-7.3355 -0.8904,-11.9924 -6.9074,-18.3545 -4.0844,-4.3187 -5.603,-5.2821 -8.3258,-5.2821 -3.1615,0 -3.2808,0.1299 -2.3549,2.5651 3.6075,9.4886 -3.236,24.7792 -17.2783,38.6051 -7.1681,7.0577 -12.5538,10.8777 -20.9024,14.826 -8.2091,3.8823 -13.4383,4.618 -18.3213,2.5778 -2.1064,-0.8802 -4.0464,-1.3838 -4.3109,-1.1192 -2.0222,2.0222 8.2355,14.5357 13.9494,17.017 4.4325,1.9249 11.2454,1.8932 17.9072,-0.083 z m -22.3141,-20.811 c 5.5405,-1.475 16.2328,-6.9549 22.4419,-11.5019 5.7939,-4.243 16.7431,-17.0125 19.8291,-23.126 6.4155,-12.7089 7.4277,-23.2444 2.9321,-30.5183 -3.0824,-4.9876 -10.1775,-10.4305 -14.5138,-11.1341 l -3.7316,-0.6056 2.2724,3.0736 c 5.5302,7.48 -0.068,22.7791 -13.5966,37.1606 -16.0702,17.0827 -35.4775,25.5112 -43.753,19.0016 -2.098,-1.6503 -2.6349,-1.7654 -2.6349,-0.5651 0,5.2586 7.5597,14.5037 14.5,17.7327 4.7925,2.2298 9.1995,2.3606 16.2544,0.4825 z m 29.7479,-11.8188 c 0.4501,0.4077 0.4811,0.1569 0.069,-0.5573 -0.5773,-1.0004 -1.0732,-1.0297 -2.1603,-0.1275 -0.7761,0.644 -1.411,1.396 -1.411,1.671 0,0.275 0.6039,0 1.342,-0.6138 0.7381,-0.6126 1.7103,-0.7802 2.1603,-0.3724 z m -34.6015,-20.0025 c 5.7131,-2.7744 18.0882,-14.9269 20.5171,-20.1479 2.4369,-5.2384 3.1613,-11.2055 1.59,-13.0987 -1.8987,-2.2878 -8.4286,-1.8368 -13.9554,0.9638 -6.5618,3.3251 -16.5655,12.7497 -20.1307,18.9654 -3.7963,6.6185 -4.1201,14.1238 -0.6718,15.5679 2.9339,1.2286 6.9622,0.512 12.6508,-2.2505 z m -10.2938,-4.338 c -1.1768,-3.0666 -0.5577,-5.9714 2.3549,-11.0496 6.3389,-11.0521 20.7887,-19.4751 25.4365,-14.8273 4.6057,4.6057 -5.1128,19.7012 -16.3864,25.4526 -4.7951,2.4462 -10.547,2.6602 -11.405,0.4243 z m 101.4599,29.3693 c -0.037,-0.9419 0.8553,-4.1772 1.9824,-7.1897 2.02,-5.3988 7.559,-11.5978 10.3631,-11.5978 1.6536,0 4.112,2.809 3.2301,3.6908 -0.3534,0.3534 -0.6425,0.1175 -0.6425,-0.5241 0,-1.4445 -3.47,-1.5207 -6.0625,-0.1333 -2.1352,1.1428 -5.5793,7.2978 -7.5353,13.4666 -0.6976,2.2 -1.2985,3.2294 -1.3353,2.2875 z" />
      <path
         inkscape:connector-curvature="0"
         style="fill:#28709e"
         id="path6206"
         d="m 1260.812,1422.0637 c -0.8469,-1.5825 -0.8617,-3.1075 -0.056,-5.7967 1.363,-4.5492 12.5249,-22.313 25.1692,-40.0558 14.8327,-20.8136 21.9236,-31.6855 25.1174,-38.5105 2.5778,-5.5085 2.9359,-7.4184 3.0231,-16.1192 0.076,-7.6021 0.3093,-9.1809 1.0145,-6.8703 1.1744,3.8478 0.2599,14.9754 -1.6834,20.4834 -1.8461,5.2324 -8.8911,16.629 -20.1006,32.5166 -27.8751,39.5082 -33.9249,50.0396 -31.0241,54.0066 1.1216,1.5339 1.5491,1.5494 4.8387,0.1749 8.3591,-3.4927 27.7274,-24.5607 48.1324,-52.3564 3.4839,-4.7458 4.7498,-7.523 5.4696,-12 0.7995,-4.9722 0.9543,-5.2674 1.0574,-2.0161 0.079,2.4802 0.5024,3.5732 1.2147,3.1329 0.6017,-0.3718 4.2017,-5.3913 8,-11.1544 3.7983,-5.7631 6.8965,-9.8729 6.8849,-9.1329 -0.012,0.74 -5.0903,8.5454 -11.286,17.3454 -25.451,36.149 -47.1238,61.108 -57.7851,66.547 -4.9037,2.5017 -6.5654,2.4612 -7.9867,-0.1945 z m -17.9211,-41.7536 c -4.8276,-1.005 -6.8245,-2.2514 -11.8113,-7.3723 -2.5626,-2.6315 -4.8257,-6.1694 -5.5795,-8.7225 -1.0961,-3.7121 -1.8456,-4.5131 -5.5207,-5.8997 -4.5604,-1.7206 -12.2125,-8.7064 -14.902,-13.6044 -2.5197,-4.589 -2.0657,-15.5548 0.9527,-23.0084 7.5529,-18.6511 25.0541,-35.3067 43.084,-41.0023 9.3083,-2.9405 15.7811,-3.1286 21.2768,-0.6183 5.6266,2.5701 12.2291,10.0875 13.7044,15.6034 1.3302,4.9735 1.1886,4.9149 11.0083,4.5551 3.142,-0.1151 7.282,0.3087 9.2,0.9417 3.5009,1.1554 9.5873,7.0567 9.5873,9.2957 0,0.6586 -1.1017,-0.4239 -2.4482,-2.4055 -2.8414,-4.1815 -8.6183,-6.8614 -14.7907,-6.8614 l -4.1985,0 5.6637,5.75 c 6.5906,6.6912 7.7737,9.2968 7.7737,17.1209 0,19.8125 -22.1144,46.8364 -44.3735,54.2244 -6.4184,2.1304 -14.0658,2.953 -18.6265,2.0036 z m 15.0685,-2.7104 c 22.583,-6.7004 44.1281,-30.1931 46.5444,-50.7519 0.8621,-7.3355 -0.8904,-11.9924 -6.9074,-18.3545 -4.0844,-4.3187 -5.603,-5.2821 -8.3258,-5.2821 -3.1615,0 -3.2808,0.1299 -2.3549,2.5651 3.6075,9.4886 -3.236,24.7792 -17.2783,38.6051 -7.1681,7.0577 -12.5538,10.8777 -20.9024,14.826 -8.2091,3.8823 -13.4383,4.618 -18.3213,2.5778 -2.1064,-0.8802 -4.0464,-1.3838 -4.3109,-1.1192 -2.0222,2.0222 8.2355,14.5357 13.9494,17.017 4.4325,1.9249 11.2454,1.8932 17.9072,-0.083 z m -22.3141,-20.811 c 5.5405,-1.475 16.2328,-6.9549 22.4419,-11.5019 5.7939,-4.243 16.7431,-17.0125 19.8291,-23.126 6.4155,-12.7089 7.4277,-23.2444 2.9321,-30.5183 -3.0824,-4.9876 -10.1775,-10.4305 -14.5138,-11.1341 l -3.7316,-0.6056 2.2724,3.0736 c 5.5302,7.48 -0.068,22.7791 -13.5966,37.1606 -16.0702,17.0827 -35.4775,25.5112 -43.753,19.0016 -2.098,-1.6503 -2.6349,-1.7654 -2.6349,-0.5651 0,5.2586 7.5597,14.5037 14.5,17.7327 4.7925,2.2298 9.1995,2.3606 16.2544,0.4825 z m 29.7479,-11.8188 c 0.4501,0.4077 0.4811,0.1569 0.069,-0.5573 -0.5773,-1.0004 -1.0732,-1.0297 -2.1603,-0.1275 -0.7761,0.644 -1.411,1.396 -1.411,1.671 0,0.275 0.6039,0 1.342,-0.6138 0.7381,-0.6126 1.7103,-0.7802 2.1603,-0.3724 z m -35.7904,-10.2561 c 6.1622,-3.0377 9.7872,-5.8395 17.364,-13.4209 5.2667,-5.2699 10.7771,-11.6427 12.2453,-14.1616 12.4708,-21.3958 3.9866,-32.1768 -16.9815,-21.5785 -23.3277,11.791 -43.1583,41.9307 -33.7673,51.3217 2.2776,2.2776 3.1899,2.5211 7.9619,2.1254 3.5402,-0.2936 8.0619,-1.7643 13.1776,-4.2861 z m -14.0569,-7.3313 c -2.7468,-3.0352 -2.1113,-9.8428 1.5081,-16.155 9.8742,-17.2207 32.044,-28.6438 38.0716,-19.6166 4.5845,6.8659 -9.5561,28.0967 -23.2628,34.927 -6.5287,3.2534 -13.7965,3.6296 -16.3169,0.8446 z m 15.2458,-2.4151 c 5.7131,-2.7744 18.0882,-14.9269 20.5171,-20.1479 2.4369,-5.2384 3.1613,-11.2055 1.59,-13.0987 -1.8987,-2.2878 -8.4286,-1.8368 -13.9554,0.9638 -6.5618,3.3251 -16.5655,12.7497 -20.1307,18.9654 -3.7963,6.6185 -4.1201,14.1238 -0.6718,15.5679 2.9339,1.2286 6.9622,0.512 12.6508,-2.2505 z m -10.2938,-4.338 c -1.1768,-3.0666 -0.5577,-5.9714 2.3549,-11.0496 6.3389,-11.0521 20.7887,-19.4751 25.4365,-14.8273 4.6057,4.6057 -5.1128,19.7012 -16.3864,25.4526 -4.7951,2.4462 -10.547,2.6602 -11.405,0.4243 z m 101.4599,29.3693 c -0.037,-0.9419 0.8553,-4.1772 1.9824,-7.1897 2.02,-5.3988 7.559,-11.5978 10.3631,-11.5978 1.6536,0 4.112,2.809 3.2301,3.6908 -0.3534,0.3534 -0.6425,0.1175 -0.6425,-0.5241 0,-1.4445 -3.47,-1.5207 -6.0625,-0.1333 -2.1352,1.1428 -5.5793,7.2978 -7.5353,13.4666 -0.6976,2.2 -1.2985,3.2294 -1.3353,2.2875 z" />
      <path
         inkscape:connector-curvature="0"
         style="fill:#e51c22"
         id="path6204"
         d="m 1242.8909,1380.3101 c -4.8276,-1.005 -6.8245,-2.2514 -11.8113,-7.3723 -2.5626,-2.6315 -4.8257,-6.1694 -5.5795,-8.7225 -1.0961,-3.7121 -1.8456,-4.5131 -5.5207,-5.8997 -4.5604,-1.7206 -12.2125,-8.7064 -14.902,-13.6044 -2.5197,-4.589 -2.0657,-15.5548 0.9527,-23.0084 7.5529,-18.6511 25.0541,-35.3067 43.084,-41.0023 9.0618,-2.8626 15.2639,-3.1463 20.5589,-0.9405 4.1571,1.7318 10.701,7.6402 12.6828,11.4512 1.991,3.8284 5.5351,17.5952 5.5351,21.5004 0,7.97 -7.6326,21.2126 -18.2535,31.6698 -7.1681,7.0577 -12.5538,10.8777 -20.9024,14.826 -8.2091,3.8823 -13.4383,4.618 -18.3213,2.5778 -2.1064,-0.8802 -4.0464,-1.3838 -4.3109,-1.1192 -2.0809,2.0809 8.3377,14.6234 14.1719,17.0611 15.4249,6.4449 43.7504,-9.351 57.1738,-31.8834 6.7547,-11.3382 8.8973,-21.5344 6.0771,-28.9189 -1.9201,-5.0278 -10.037,-13.3612 -13.6347,-13.9984 -2.2316,-0.3953 -2.1743,-0.4575 0.5342,-0.579 2.427,-0.109 4.0666,0.9143 8.1941,5.1138 6.0813,6.1874 7.2717,8.9084 7.2717,16.6209 0,19.8125 -22.1144,46.8364 -44.3735,54.2244 -6.4184,2.1304 -14.0658,2.953 -18.6265,2.0036 z m -7.2456,-23.5214 c 5.5405,-1.475 16.2328,-6.9549 22.4419,-11.5019 5.7939,-4.243 16.7431,-17.0125 19.8291,-23.126 6.4155,-12.7089 7.4277,-23.2444 2.9321,-30.5183 -3.0824,-4.9876 -10.1775,-10.4305 -14.5138,-11.1341 l -3.7316,-0.6056 2.2724,3.0736 c 5.5302,7.48 -0.068,22.7791 -13.5966,37.1606 -16.0702,17.0827 -35.4775,25.5112 -43.753,19.0016 -2.098,-1.6503 -2.6349,-1.7654 -2.6349,-0.5651 0,5.2586 7.5597,14.5037 14.5,17.7327 4.7925,2.2298 9.1995,2.3606 16.2544,0.4825 z m 29.7479,-11.8188 c 0.4501,0.4077 0.4811,0.1569 0.069,-0.5573 -0.5773,-1.0004 -1.0732,-1.0297 -2.1603,-0.1275 -0.7761,0.644 -1.411,1.396 -1.411,1.671 0,0.275 0.6039,0 1.342,-0.6138 0.7381,-0.6126 1.7103,-0.7802 2.1603,-0.3724 z m -35.7904,-10.2561 c 6.1622,-3.0377 9.7872,-5.8395 17.364,-13.4209 5.2667,-5.2699 10.7771,-11.6427 12.2453,-14.1616 12.4708,-21.3958 3.9866,-32.1768 -16.9815,-21.5785 -23.3277,11.791 -43.1583,41.9307 -33.7673,51.3217 2.2776,2.2776 3.1899,2.5211 7.9619,2.1254 3.5402,-0.2936 8.0619,-1.7643 13.1776,-4.2861 z m -14.0569,-7.3313 c -2.7468,-3.0352 -2.1113,-9.8428 1.5081,-16.155 9.8742,-17.2207 32.044,-28.6438 38.0716,-19.6166 4.5845,6.8659 -9.5561,28.0967 -23.2628,34.927 -6.5287,3.2534 -13.7965,3.6296 -16.3169,0.8446 z m 15.2458,-2.4151 c 5.7131,-2.7744 18.0882,-14.9269 20.5171,-20.1479 2.4369,-5.2384 3.1613,-11.2055 1.59,-13.0987 -1.8987,-2.2878 -8.4286,-1.8368 -13.9554,0.9638 -6.5618,3.3251 -16.5655,12.7497 -20.1307,18.9654 -3.7963,6.6185 -4.1201,14.1238 -0.6718,15.5679 2.9339,1.2286 6.9622,0.512 12.6508,-2.2505 z m -10.2938,-4.338 c -1.1768,-3.0666 -0.5577,-5.9714 2.3549,-11.0496 6.3389,-11.0521 20.7887,-19.4751 25.4365,-14.8273 4.6057,4.6057 -5.1128,19.7012 -16.3864,25.4526 -4.7951,2.4462 -10.547,2.6602 -11.405,0.4243 z" />
      <path
         inkscape:connector-curvature="0"
         style="fill:#a26318"
         id="path6202"
         d="m 1242.8909,1380.3101 c -4.8276,-1.005 -6.8245,-2.2514 -11.8113,-7.3723 -2.5626,-2.6315 -4.8257,-6.1694 -5.5795,-8.7225 -1.0961,-3.7121 -1.8456,-4.5131 -5.5207,-5.8997 -4.5604,-1.7206 -12.2125,-8.7064 -14.902,-13.6044 -2.5197,-4.589 -2.0657,-15.5548 0.9527,-23.0084 7.5529,-18.6511 25.0541,-35.3067 43.084,-41.0023 9.0618,-2.8626 15.2639,-3.1463 20.5589,-0.9405 4.1571,1.7318 10.701,7.6402 12.6828,11.4512 1.991,3.8284 5.5351,17.5952 5.5351,21.5004 0,7.97 -7.6326,21.2126 -18.2535,31.6698 -7.1681,7.0577 -12.5538,10.8777 -20.9024,14.826 -8.2091,3.8823 -13.4383,4.618 -18.3213,2.5778 -2.1064,-0.8802 -4.0464,-1.3838 -4.3109,-1.1192 -2.0809,2.0809 8.3377,14.6234 14.1719,17.0611 15.4249,6.4449 43.7504,-9.351 57.1738,-31.8834 6.7547,-11.3382 8.8973,-21.5344 6.0771,-28.9189 -1.9201,-5.0278 -10.037,-13.3612 -13.6347,-13.9984 -2.2316,-0.3953 -2.1743,-0.4575 0.5342,-0.579 2.427,-0.109 4.0666,0.9143 8.1941,5.1138 6.0813,6.1874 7.2717,8.9084 7.2717,16.6209 0,19.8125 -22.1144,46.8364 -44.3735,54.2244 -6.4184,2.1304 -14.0658,2.953 -18.6265,2.0036 z m -7.2456,-23.5214 c 5.5405,-1.475 16.2328,-6.9549 22.4419,-11.5019 5.7939,-4.243 16.7431,-17.0125 19.8291,-23.126 6.4155,-12.7089 7.4277,-23.2444 2.9321,-30.5183 -3.0824,-4.9876 -10.1775,-10.4305 -14.5138,-11.1341 l -3.7316,-0.6056 2.2724,3.0736 c 5.5302,7.48 -0.068,22.7791 -13.5966,37.1606 -16.0702,17.0827 -35.4775,25.5112 -43.753,19.0016 -2.098,-1.6503 -2.6349,-1.7654 -2.6349,-0.5651 0,5.2586 7.5597,14.5037 14.5,17.7327 4.7925,2.2298 9.1995,2.3606 16.2544,0.4825 z m 29.7479,-11.8188 c 0.4501,0.4077 0.4811,0.1569 0.069,-0.5573 -0.5773,-1.0004 -1.0732,-1.0297 -2.1603,-0.1275 -0.7761,0.644 -1.411,1.396 -1.411,1.671 0,0.275 0.6039,0 1.342,-0.6138 0.7381,-0.6126 1.7103,-0.7802 2.1603,-0.3724 z m -35.7904,-10.2561 c 6.1622,-3.0377 9.7872,-5.8395 17.364,-13.4209 5.2667,-5.2699 10.7771,-11.6427 12.2453,-14.1616 12.4708,-21.3958 3.9866,-32.1768 -16.9815,-21.5785 -23.3277,11.791 -43.1583,41.9307 -33.7673,51.3217 2.2776,2.2776 3.1899,2.5211 7.9619,2.1254 3.5402,-0.2936 8.0619,-1.7643 13.1776,-4.2861 z m -14.0569,-7.3313 c -2.7468,-3.0352 -2.1113,-9.8428 1.5081,-16.155 9.8742,-17.2207 32.044,-28.6438 38.0716,-19.6166 4.5845,6.8659 -9.5561,28.0967 -23.2628,34.927 -6.5287,3.2534 -13.7965,3.6296 -16.3169,0.8446 z m 15.2458,-2.4151 c 5.7131,-2.7744 18.0882,-14.9269 20.5171,-20.1479 2.4369,-5.2384 3.1613,-11.2055 1.59,-13.0987 -1.8987,-2.2878 -8.4286,-1.8368 -13.9554,0.9638 -6.5618,3.3251 -16.5655,12.7497 -20.1307,18.9654 -3.7963,6.6185 -4.1201,14.1238 -0.6718,15.5679 2.9339,1.2286 6.9622,0.512 12.6508,-2.2505 z m -10.2938,-4.338 c -1.1768,-3.0666 -0.5577,-5.9714 2.3549,-11.0496 6.3389,-11.0521 20.7887,-19.4751 25.4365,-14.8273 4.6057,4.6057 -5.1128,19.7012 -16.3864,25.4526 -4.7951,2.4462 -10.547,2.6602 -11.405,0.4243 z m 11.2075,-2.3235 c 4.5968,-2.3452 12.3096,-10.4466 14.6591,-15.3978 1.8467,-3.8917 1.5377,-6.3716 -0.9109,-7.3112 -2.0763,-0.7968 -11.4838,3.739 -14.9657,7.2157 -4.4556,4.4489 -8.597,11.4794 -8.597,14.5944 0,2.4573 0.3761,2.8042 3.0398,2.8042 1.6719,0 4.7205,-0.8574 6.7747,-1.9053 z" />
      <path
         inkscape:connector-curvature="0"
         style="fill:#704919"
         id="path6200"
         d="m 1243.1599,1379.5182 c 0.973,-0.2535 2.323,-0.2369 3,0.037 0.6771,0.2739 -0.119,0.4814 -1.769,0.461 -1.65,-0.02 -2.2039,-0.2445 -1.231,-0.498 z m 6.981,0 c 0.9625,-0.2515 2.5375,-0.2515 3.5,0 0.9625,0.2515 0.175,0.4573 -1.75,0.4573 -1.925,0 -2.7125,-0.2058 -1.75,-0.4573 z m -12.75,-1.4731 c -5.5351,-3.0478 -12.5,-12.136 -12.5,-16.3107 0,-0.9092 -2.1751,-2.521 -5.25,-3.8902 -6.7831,-3.0205 -14.2069,-10.9066 -15.7858,-16.769 -4.2069,-15.6194 10.9866,-41.2033 32.5358,-54.7864 6.2767,-3.9563 19.2761,-8.1232 24.8016,-7.95 l 4.1984,0.1317 -3.4622,0.6183 -3.4623,0.6184 2.6594,1.2045 c 6.9669,3.1554 7.4226,11.4457 1.2725,23.1495 -8.8633,16.8669 -27.6385,32.7018 -42.8038,36.1004 -6.1273,1.3731 -10.2347,0.3916 -13.2232,-3.16 -1.9901,-2.3651 -2.4793,-2.5868 -2.4748,-1.1211 0.022,7.1964 6.7337,16.5698 14.5869,20.3715 10.9503,5.3009 29.6661,-1.0044 44.725,-15.0677 13.0392,-12.1772 20.5915,-26.2534 20.7614,-38.6956 0.085,-6.2492 0.5623,-5.5144 2.8743,4.4293 1.0186,4.3812 0.9557,6.0907 -0.3954,10.7382 -4.6329,15.9367 -22.7161,34.9729 -40.2432,42.3643 -6.0033,2.5316 -14.0247,2.8732 -16.8735,0.7185 -1.0676,-0.8075 -2.2786,-1.4825 -2.6911,-1.5 -1.1638,-0.049 -0.8168,4.2269 0.5354,6.5975 2.0254,3.5507 8.4213,10.15 11.4049,11.7674 1.5453,0.8378 2.3597,1.5276 1.8097,1.5329 -0.55,0.01 -1.9,-0.486 -3,-1.0917 z m 11.6732,-20.7682 c 19.9975,-10.4825 36.9462,-31.3743 36.7747,-45.3304 l -0.052,-4.2393 -2.3163,6.2343 c -3.7528,10.1004 -8.5302,17.2147 -17.7715,26.4646 -7.2585,7.2652 -10.2271,9.4442 -18,13.2121 -5.1194,2.4816 -11.257,4.8177 -13.6392,5.1913 -6.0263,0.9451 -3.2484,2.5994 3.5473,2.1125 3.39,-0.2429 7.4011,-1.5191 11.4571,-3.6451 z m -19.4613,-22.5671 c 6.1622,-3.0377 9.7872,-5.8395 17.364,-13.4209 5.2667,-5.2699 10.7771,-11.6427 12.2453,-14.1616 12.4708,-21.3958 3.9866,-32.1768 -16.9815,-21.5785 -23.3277,11.791 -43.1583,41.9307 -33.7673,51.3217 2.2776,2.2776 3.1899,2.5211 7.9619,2.1254 3.5402,-0.2936 8.0619,-1.7643 13.1776,-4.2861 z m -14.0569,-7.3313 c -2.7468,-3.0352 -2.1113,-9.8428 1.5081,-16.155 9.8742,-17.2207 32.044,-28.6438 38.0716,-19.6166 4.5845,6.8659 -9.5561,28.0967 -23.2628,34.927 -6.5287,3.2534 -13.7965,3.6296 -16.3169,0.8446 z m 15.1048,-2.1343 c 13.218,-6.2531 26.9575,-25.0912 23.2935,-31.9374 -0.6462,-1.2074 -2.3164,-2.6293 -3.7116,-3.1598 -10.2366,-3.8919 -35.2212,18.3775 -35.3197,31.4815 -0.053,6.9789 5.7909,8.3214 15.7378,3.6157 z m -9.5598,-4.237 c -1.7935,-1.7935 -1.4684,-4.3369 1.2367,-9.675 3.0208,-5.9614 12.4152,-14.7007 17.4118,-16.1978 5.986,-1.7934 8.5967,-0.9923 8.9594,2.7492 1.0325,10.6529 -21.34,29.3915 -27.6079,23.1236 z m 10.6145,-2.7053 c 4.5968,-2.3452 12.3096,-10.4466 14.6591,-15.3978 1.8467,-3.8917 1.5377,-6.3716 -0.9109,-7.3112 -2.3595,-0.9054 -11.7122,3.9353 -15.8535,8.2055 -4.2169,4.3481 -9.2497,13.7253 -8.2418,15.3561 1.0271,1.6619 6.2641,1.2303 10.3471,-0.8526 z m 27.6855,59.5011 c 22.0935,-7.0168 43.6659,-31.3357 45.2448,-51.005 0.6815,-8.4905 -0.8823,-12.6179 -7.253,-19.1432 -2.9252,-2.9962 -5.0031,-5.4476 -4.6176,-5.4476 1.304,0 9.8995,9.4777 11.5183,12.7003 8.4726,16.8675 -14.7652,52.6541 -40.5534,62.4528 -2.6733,1.0158 -5.6432,1.8168 -6.5998,1.78 -0.9566,-0.037 0.061,-0.6386 2.2607,-1.3373 z m 23.5789,-82.8886 c -0.1161,-2.638 -8.9558,-11.7009 -13.5789,-13.9218 -3.4521,-1.6583 -3.589,-1.8354 -1,-1.2929 5.6771,1.1896 16.5119,12.3514 15.1964,15.6551 -0.3638,0.9137 -0.5641,0.7708 -0.6175,-0.4404 z" />
      <path
         inkscape:connector-curvature="0"
         style="fill:#95191c"
         id="path6198"
         d="m 1270.8909,1372.8182 c 0,-0.2162 0.6984,-0.661 1.5519,-0.9886 0.89,-0.3415 1.2914,-0.1738 0.941,0.3931 -0.5872,0.9502 -2.4929,1.4054 -2.4929,0.5955 z m -41.5736,-12.0209 c -1.1103,-0.7777 -3.3479,-1.6102 -4.9725,-1.8502 -1.7359,-0.2563 -0.6485,-0.498 2.6372,-0.5861 3.0751,-0.082 7.7791,-0.8083 10.4533,-1.6131 2.6743,-0.8049 5.0441,-1.2815 5.2664,-1.0592 0.2223,0.2223 -2.2317,1.1385 -5.4533,2.036 -3.2216,0.8975 -6.3075,1.7728 -6.8575,1.9451 -0.55,0.1723 0.125,0.7861 1.5,1.3639 1.375,0.5779 1.8126,1.0793 0.9725,1.1141 -0.8401,0.035 -2.4359,-0.5729 -3.5461,-1.3505 z m 9.3861,0.7308 c 0.7219,-0.2889 1.5844,-0.2534 1.9167,0.079 0.3323,0.3323 -0.2584,0.5687 -1.3125,0.5253 -1.165,-0.048 -1.4019,-0.285 -0.6042,-0.6042 z m 49.6875,-2.3169 c 0.9955,-1.1 2.035,-2 2.31,-2 0.275,0 -0.3145,0.9 -1.31,2 -0.9955,1.1 -2.035,2 -2.31,2 -0.275,0 0.3145,-0.9 1.31,-2 z m -37.5,-2.5378 c 11.6852,-6.2557 24.8237,-19.1847 30.956,-30.4622 1.6449,-3.025 3.0027,-5.0235 3.0174,-4.4412 0.045,1.772 -6.4812,11.9965 -11.1098,17.4067 -5.3835,6.2925 -16.5836,15.3522 -22.9968,18.602 -7.3375,3.7182 -7.2314,2.8374 0.1332,-1.1053 z m -33,0.5378 c -0.825,-0.5332 -1.05,-0.9694 -0.5,-0.9694 0.55,0 1.675,0.4362 2.5,0.9694 0.825,0.5332 1.05,0.9694 0.5,0.9694 -0.55,0 -1.675,-0.4362 -2.5,-0.9694 z m 26.0833,-2.3728 c 1.0291,-0.9208 6.9167,-3.6264 6.9167,-3.1786 0,0.576 -5.5438,3.5514 -6.617,3.5514 -0.394,0 -0.5288,-0.1678 -0.2997,-0.3728 z m 10.4162,-5.8062 c 10.888,-8.4251 18.7979,-17.2068 24.609,-27.321 1.58,-2.75 2.877,-4.5762 2.8821,-4.0582 0.01,0.518 -1.8442,4.0619 -4.1097,7.8753 -4.4144,7.4306 -17.4258,21.0158 -22.99,24.0039 l -3.3909,1.821 2.9995,-2.321 z m -46.6271,-0.571 c -1.2438,-1.5861 -1.2085,-1.6214 0.3776,-0.3776 0.9625,0.7549 1.75,1.5424 1.75,1.75 0,0.8231 -0.8212,0.2933 -2.1276,-1.3724 z m 3.5019,-7.9187 c -1.1692,-0.2408 -3.1942,-1.5757 -4.5,-2.9665 -3.8166,-4.0649 -3.184,-10.3781 2.1128,-21.0864 3.5883,-7.2541 6.0076,-10.4459 13.9331,-18.3815 8.0012,-8.0114 10.9988,-10.2794 18.0853,-13.6837 10.509,-5.0484 14.52,-5.8561 19.2551,-3.8777 7.8925,3.2977 8.6404,10.426 2.4121,22.9911 -5.3239,10.7406 -15.1308,21.426 -26.6727,29.0621 -9.534,6.3077 -18.5093,9.2025 -24.6257,7.9426 z m 18.3376,-5.8287 c 6.1622,-3.0377 9.7872,-5.8395 17.364,-13.4209 5.2667,-5.2699 10.7771,-11.6427 12.2453,-14.1616 12.4708,-21.3958 3.9866,-32.1768 -16.9815,-21.5785 -23.3277,11.791 -43.1583,41.9307 -33.7673,51.3217 2.2776,2.2776 3.1899,2.5211 7.9619,2.1254 3.5402,-0.2936 8.0619,-1.7643 13.1776,-4.2861 z m -14.0569,-7.3313 c -2.7468,-3.0352 -2.1113,-9.8428 1.5081,-16.155 9.8742,-17.2207 32.044,-28.6438 38.0716,-19.6166 4.5845,6.8659 -9.5561,28.0967 -23.2628,34.927 -6.5287,3.2534 -13.7965,3.6296 -16.3169,0.8446 z m 15.2512,-1.7074 c 10.0391,-4.6732 24.0938,-21.7099 24.0938,-29.2057 0,-1.292 -1.1499,-3.4991 -2.5554,-4.9045 -2.1629,-2.1629 -3.1145,-2.4506 -6.1948,-1.8727 -13.3221,2.4992 -31.2498,20.8081 -31.2498,31.9143 0,6.964 6.2513,8.5629 15.9062,4.0686 z m -9.3348,-5.0353 c -1.9923,-1.9924 -1.9519,-3.0076 0.3158,-7.9286 4.3437,-9.4258 16.524,-18.9728 23.3643,-18.3132 2.841,0.2739 3.2872,0.7129 3.5571,3.4995 0.3896,4.0227 -1.4546,7.5915 -7.2596,14.048 -4.4329,4.9305 -13.0986,10.2657 -16.6739,10.2657 -0.9527,0 -2.4394,-0.7071 -3.3037,-1.5714 z m 10.2431,-2.3339 c 4.5968,-2.3452 12.3096,-10.4466 14.6591,-15.3978 1.8467,-3.8917 1.5377,-6.3716 -0.9109,-7.3112 -2.3595,-0.9054 -11.7122,3.9353 -15.8535,8.2055 -4.2169,4.3481 -9.2497,13.7253 -8.2418,15.3561 1.0271,1.6619 6.2641,1.2303 10.3471,-0.8526 z m 53.7958,-0.5947 c 0.8225,-3.6769 1.3948,-4.4751 1.3744,-1.9167 -0.01,1.0542 -0.4721,2.5917 -1.0304,3.4167 -0.7413,1.0955 -0.8341,0.6909 -0.344,-1.5 z m -0.4066,-10.5455 c -0.7726,-1.2371 -0.8389,-1.9545 -0.1808,-1.9545 0.5719,0 1.3063,0.6944 1.632,1.5431 0.9,2.3454 -0.071,2.6208 -1.4512,0.4114 z m 7.3034,-3.943 c -0.3504,-0.5669 0.051,-0.7346 0.941,-0.3931 1.7324,0.6648 2.0494,1.3816 0.6109,1.3816 -0.5175,0 -1.2159,-0.4448 -1.5519,-0.9885 z" />
      <path
         inkscape:connector-curvature="0"
         style="fill:#651e09"
         id="path6196"
         d="m 1270.8909,1372.8182 c 0,-0.2162 0.6984,-0.661 1.5519,-0.9886 0.89,-0.3415 1.2914,-0.1738 0.941,0.3931 -0.5872,0.9502 -2.4929,1.4054 -2.4929,0.5955 z m -41.5736,-12.0209 c -1.1103,-0.7777 -3.3479,-1.6102 -4.9725,-1.8502 -1.7359,-0.2563 -0.6485,-0.498 2.6372,-0.5861 3.0751,-0.082 7.7791,-0.8083 10.4533,-1.6131 2.6743,-0.8049 5.0441,-1.2815 5.2664,-1.0592 0.2223,0.2223 -2.2317,1.1385 -5.4533,2.036 -3.2216,0.8975 -6.3075,1.7728 -6.8575,1.9451 -0.55,0.1723 0.125,0.7861 1.5,1.3639 1.375,0.5779 1.8126,1.0793 0.9725,1.1141 -0.8401,0.035 -2.4359,-0.5729 -3.5461,-1.3505 z m 9.3861,0.7308 c 0.7219,-0.2889 1.5844,-0.2534 1.9167,0.079 0.3323,0.3323 -0.2584,0.5687 -1.3125,0.5253 -1.165,-0.048 -1.4019,-0.285 -0.6042,-0.6042 z m 49.6875,-2.3169 c 0.9955,-1.1 2.035,-2 2.31,-2 0.275,0 -0.3145,0.9 -1.31,2 -0.9955,1.1 -2.035,2 -2.31,2 -0.275,0 0.3145,-0.9 1.31,-2 z m -37.5,-2.5378 c 11.6852,-6.2557 24.8237,-19.1847 30.956,-30.4622 1.6449,-3.025 3.0027,-5.0235 3.0174,-4.4412 0.045,1.772 -6.4812,11.9965 -11.1098,17.4067 -5.3835,6.2925 -16.5836,15.3522 -22.9968,18.602 -7.3375,3.7182 -7.2314,2.8374 0.1332,-1.1053 z m -33,0.5378 c -0.825,-0.5332 -1.05,-0.9694 -0.5,-0.9694 0.55,0 1.675,0.4362 2.5,0.9694 0.825,0.5332 1.05,0.9694 0.5,0.9694 -0.55,0 -1.675,-0.4362 -2.5,-0.9694 z m 26.0833,-2.3728 c 1.0291,-0.9208 6.9167,-3.6264 6.9167,-3.1786 0,0.576 -5.5438,3.5514 -6.617,3.5514 -0.394,0 -0.5288,-0.1678 -0.2997,-0.3728 z m 10.4162,-5.8062 c 10.888,-8.4251 18.7979,-17.2068 24.609,-27.321 1.58,-2.75 2.877,-4.5762 2.8821,-4.0582 0.01,0.518 -1.8442,4.0619 -4.1097,7.8753 -4.4144,7.4306 -17.4258,21.0158 -22.99,24.0039 l -3.3909,1.821 2.9995,-2.321 z m -46.6271,-0.571 c -1.2438,-1.5861 -1.2085,-1.6214 0.3776,-0.3776 0.9625,0.7549 1.75,1.5424 1.75,1.75 0,0.8231 -0.8212,0.2933 -2.1276,-1.3724 z m -0.012,-10.3094 -2.3608,-2.0593 3,1.7567 c 3.9484,2.312 4.0072,2.362 2.7775,2.362 -0.5808,0 -2.1183,-0.9267 -3.4167,-2.0594 z m -3.4165,-5.3063 c -0.8335,-3.3213 1.1256,-9.9453 5.3635,-18.1343 2.5833,-4.9917 6.3597,-9.7551 13.1629,-16.6031 7.9896,-8.0421 10.9211,-10.2664 18.0348,-13.6837 9.3173,-4.4759 14.9292,-5.9088 17.5023,-4.4688 1.2386,0.6932 0.4791,0.9541 -2.9262,1.0056 -8.1177,0.1227 -21.9702,7.7338 -31.5969,17.3605 -11.0565,11.0565 -18.2961,23.6854 -18.4167,32.1262 -0.077,5.371 -0.2725,5.7888 -1.1237,2.3976 z m 29.5557,0.253 c 1.925,-1.1579 4.2875,-2.8009 5.25,-3.6512 0.9625,-0.8504 1.75,-1.2542 1.75,-0.8974 0,0.9325 -8.0897,6.662 -9.4,6.6576 -0.605,0 0.475,-0.9511 2.4,-2.109 z m -13.731,-4.5803 c 0.973,-0.2535 2.323,-0.2369 3,0.037 0.6771,0.2739 -0.119,0.4813 -1.769,0.461 -1.65,-0.02 -2.2039,-0.2445 -1.231,-0.4981 z m 29.231,-8.307 c 2.7086,-2.75 5.1498,-5 5.4248,-5 0.275,0 -1.7162,2.25 -4.4248,5 -2.7086,2.75 -5.1498,5 -5.4248,5 -0.275,0 1.7162,-2.25 4.4248,-5 z m -14.5,3.6224 c 0,-0.2076 0.7875,-0.9951 1.75,-1.75 1.5861,-1.2438 1.6214,-1.2085 0.3776,0.3776 -1.3064,1.6657 -2.1276,2.1955 -2.1276,1.3724 z m -20.9211,-4.2057 c 0.048,-1.165 0.285,-1.4019 0.6042,-0.6042 0.2889,0.7219 0.2534,1.5844 -0.079,1.9167 -0.3323,0.3323 -0.5687,-0.2584 -0.5253,-1.3125 z m 6.4297,-0.3896 c -0.6325,-1.9927 2.4407,-10.2597 4.2236,-11.3616 0.5274,-0.3259 -0.1162,1.5285 -1.4301,4.1209 -1.4411,2.8434 -2.1658,5.6063 -1.8265,6.9636 0.6925,2.77 -0.1034,2.9981 -0.967,0.2771 z m 22.9363,-3.0271 c 6.5656,-7.3902 7.2395,-8.0215 4.8039,-4.5 -1.1412,1.65 -3.7883,4.575 -5.8825,6.5 -3.0419,2.7961 -2.825,2.3939 1.0786,-2 z m -10.4449,2.2936 c 1.375,-0.9865 4.525,-3.576 7,-5.7545 l 4.5,-3.9609 -3.7321,3.9847 c -2.0526,2.1916 -5.2026,4.7811 -7,5.7545 -3.1567,1.7095 -3.1829,1.7087 -0.7679,-0.024 z m 52.6103,-0.7936 c 0.8225,-3.6769 1.3948,-4.4751 1.3744,-1.9167 -0.01,1.0542 -0.4721,2.5917 -1.0304,3.4167 -0.7413,1.0955 -0.8341,0.6909 -0.344,-1.5 z m -70.6103,-0.883 c 0,-1.0732 2.9754,-6.617 3.5514,-6.617 0.275,0 -0.2438,1.4625 -1.1529,3.25 -1.8562,3.6499 -2.3985,4.4111 -2.3985,3.367 z m 5.7512,-10.117 c 1.1412,-1.65 3.7883,-4.575 5.8825,-6.5 3.0419,-2.7961 2.825,-2.3939 -1.0786,2 -6.5656,7.3902 -7.2395,8.0215 -4.8039,4.5 z m 64.4525,0.4545 c -0.7726,-1.2371 -0.8389,-1.9545 -0.1808,-1.9545 0.5719,0 1.3063,0.6944 1.632,1.5431 0.9,2.3454 -0.071,2.6208 -1.4512,0.4114 z m -39.3281,-1.9819 c 2.2243,-3.6487 2.8426,-9.4498 1.0994,-10.3143 -0.5637,-0.2795 -0.4512,-0.3948 0.25,-0.2562 2.995,0.5923 1.5802,9.8549 -1.9533,12.7873 -0.9214,0.7647 -0.6852,-0.1021 0.6039,-2.2168 z m 16.9235,-3.9244 c 1.4468,-3.2735 2.8051,-5.7773 3.0184,-5.5641 0.4655,0.4656 -4.503,11.5159 -5.1779,11.5159 -0.259,0 0.7127,-2.6783 2.1595,-5.9518 z m -34.0791,1.8932 c 1.7711,-1.9111 4.6961,-4.2744 6.5,-5.2517 3.1639,-1.7139 3.1918,-1.7134 0.789,0.017 -1.3701,0.9865 -4.2951,3.3497 -6.5,5.2517 l -4.009,3.458 3.22,-3.4747 z m 63.7871,0.07 c -0.3504,-0.5669 0.051,-0.7346 0.941,-0.3931 1.7324,0.6648 2.0494,1.3816 0.6109,1.3816 -0.5175,0 -1.2159,-0.4448 -1.5519,-0.9885 z m -61.5071,-6.3891 c 0,-0.2076 0.7875,-0.9951 1.75,-1.75 1.5861,-1.2438 1.6214,-1.2085 0.3776,0.3776 -1.3064,1.6657 -2.1276,2.1955 -2.1276,1.3724 z m 9,-1.6224 c 0.825,-0.5332 2.175,-0.9446 3,-0.9144 0.9891,0.036 0.8187,0.3477 -0.5,0.9144 -2.7491,1.1813 -4.328,1.1813 -2.5,0 z m -5,-1.4905 c 0,-0.6843 6.1229,-3.7199 6.5804,-3.2625 0.217,0.217 -1.1749,1.1429 -3.093,2.0576 -1.9181,0.9147 -3.4874,1.4569 -3.4874,1.2049 z m 17.1392,-2.5428 c -1.2984,-1.0817 -1.8931,-1.9667 -1.3214,-1.9667 1.0095,0 4.1822,2.7094 4.1822,3.5714 0,0.6819 -0.3555,0.4825 -2.8608,-1.6047 z m 14.0557,-1.4667 c 0.02,-1.65 0.2445,-2.2039 0.4981,-1.231 0.2535,0.973 0.2369,2.323 -0.037,3 -0.2739,0.6771 -0.4813,-0.119 -0.461,-1.769 z m -22.3824,-0.1831 c 0.7219,-0.2889 1.5844,-0.2534 1.9167,0.079 0.3323,0.3323 -0.2584,0.5687 -1.3125,0.5253 -1.165,-0.048 -1.4019,-0.285 -0.6042,-0.6042 z" />
    </g>
  </g>
</svg>
