<?xml version="1.0" encoding="UTF-8" standalone="no"?>
<svg
   xmlns:osb="http://www.openswatchbook.org/uri/2009/osb"
   xmlns:dc="http://purl.org/dc/elements/1.1/"
   xmlns:cc="http://creativecommons.org/ns#"
   xmlns:rdf="http://www.w3.org/1999/02/22-rdf-syntax-ns#"
   xmlns:svg="http://www.w3.org/2000/svg"
   xmlns="http://www.w3.org/2000/svg"
   xmlns:xlink="http://www.w3.org/1999/xlink"
   xmlns:sodipodi="http://sodipodi.sourceforge.net/DTD/sodipodi-0.dtd"
   xmlns:inkscape="http://www.inkscape.org/namespaces/inkscape"
   version="1.1"
   id="svg2"
   viewBox="0 0 135.93577 61.560686"
   height="61.560684"
   width="135.93578"
   inkscape:version="0.48.4 r9939"
   sodipodi:docname="jacaré.svg">
  <sodipodi:namedview
     pagecolor="#ffffff"
     bordercolor="#666666"
     borderopacity="1"
     objecttolerance="10"
     gridtolerance="10"
     guidetolerance="10"
     inkscape:pageopacity="0"
     inkscape:pageshadow="2"
     inkscape:window-width="1600"
     inkscape:window-height="876"
     id="namedview1313"
     showgrid="false"
     fit-margin-top="0"
     fit-margin-left="0"
     fit-margin-right="0"
     fit-margin-bottom="0"
     inkscape:zoom="1.8894739"
     inkscape:cx="207.06859"
     inkscape:cy="61.503354"
     inkscape:window-x="0"
     inkscape:window-y="1"
     inkscape:window-maximized="1"
     inkscape:current-layer="svg2" />
  <script
     xlink:href="C:\wamp\www\bingo\js/snap.svg-min.js"
     id="script4164" />
  <title
     id="title4162">Bingo das Letras</title>
  <defs
     id="defs4">
    <linearGradient
       osb:paint="solid"
       id="linearGradient12614">
      <stop
         id="stop12616"
         offset="0"
         style="stop-color:#000000;stop-opacity:1;" />
    </linearGradient>
    <linearGradient
       gradientTransform="matrix(-0.19399818,0,0,-0.19399818,259.22818,12173.784)"
       osb:paint="solid"
       id="linearGradient59274">
      <stop
         id="stop59276"
         offset="0"
         style="stop-color:#930033;stop-opacity:1;" />
    </linearGradient>
    <linearGradient
       id="linearGradient4269"
       osb:paint="solid"
       gradientTransform="matrix(110.20782,22.122239,-29.697412,82.096171,6946499.9,5079063.1)">
      <stop
         style="stop-color:#ffffff;stop-opacity:1;"
         offset="0"
         id="stop4271" />
    </linearGradient>
    <linearGradient
       id="linearGradient4251"
       osb:paint="solid"
       gradientTransform="translate(106155.96,125143.42)">
      <stop
         style="stop-color:#555555;stop-opacity:1;"
         offset="0"
         id="stop4253" />
    </linearGradient>
    <linearGradient
       id="linearGradient4241"
       osb:paint="solid"
       gradientTransform="matrix(0.19125385,0,0,0.19125385,678173.26,764224.29)">
      <stop
         style="stop-color:#3fb5ae;stop-opacity:1;"
         offset="0"
         id="stop4243" />
    </linearGradient>
    <linearGradient
       id="linearGradient4231"
       osb:paint="solid"
       gradientTransform="translate(2399.1562,2075.6965)">
      <stop
         style="stop-color:#d1f2a5;stop-opacity:1;"
         offset="0"
         id="stop4233" />
    </linearGradient>
    <linearGradient
       id="linearGradient4221"
       osb:paint="solid"
       gradientTransform="matrix(0.66768435,0,0,0.66768435,-186.89148,394.64653)">
      <stop
         style="stop-color:#effab4;stop-opacity:1;"
         offset="0"
         id="stop4223" />
    </linearGradient>
    <linearGradient
       id="linearGradient4211"
       osb:paint="solid"
       gradientTransform="translate(-699.20463,883.12976)">
      <stop
         style="stop-color:#ffc48c;stop-opacity:1;"
         offset="0"
         id="stop4213" />
    </linearGradient>
    <linearGradient
       id="linearGradient4201"
       osb:paint="solid"
       gradientTransform="matrix(0.35946858,0,0,0.22423084,-331.07911,5516.4706)">
      <stop
         style="stop-color:#ff9f80;stop-opacity:1;"
         offset="0"
         id="stop4203" />
    </linearGradient>
    <linearGradient
       id="linearGradient4191"
       osb:paint="solid"
       gradientTransform="matrix(0.52321996,0,0,0.52321996,2015.4535,3072.5352)">
      <stop
         style="stop-color:#f56991;stop-opacity:1;"
         offset="0"
         id="stop4193" />
    </linearGradient>
    <g
       id="Layer0_0_FILL-30">
      <path
         d="m 485.5,687.8 0,0 0,-0.05 0,0.05 m -72.4,-1.65 q 0.0822,-0.0445 0.15,-0.1 l -0.15,0.1 0,0 m 195.15,-37.45 0,0 0,0 0,0 m -35.8,21.8 0.05,0.05 -0.25,-0.25 q 0.10937,0.13652 0.2,0.2 m -3.25,-5.35 0,0.05 0,0 0,-0.05 m -166.4,4.4 0,0 0,0 0,0 m -74.65,-10 0,0 0,0 0,0 z"
         id="path15059"
         inkscape:connector-curvature="0"
         style="fill:#ff0000;stroke:none" />
      <path
         d="m 736.5,640.6 -0.05,0 q -4.59453,-0.6125 -8.5,-3.25 l 0,0 q -0.94863,-0.61641 -1.85,-1.4 -0.22148,-0.1416 -0.5,-0.2 -0.26816,-0.0232 -0.55,0.05 l -4.35,1.8 -7,-4 q -0.34336,-0.16387 -0.75,-0.1 l -7.6,1.85 -7.7,-5.55 q -0.15723,-0.0955 -0.4,-0.15 -0.20078,-0.025 -0.45,0 l -8.6,2.45 -7,-4.55 q -0.2541,-0.15566 -0.55,-0.15 l -2.25,0 q -0.1916,10e-4 -0.4,0.05 l -5.55,2.3 -4,-4 q -0.21855,-0.22305 -0.55,-0.3 -0.29902,-0.0344 -0.6,0.1 l -3.7,1.85 -4.6,0 -7.1,-5.3 q -0.26777,-0.19883 -0.6,-0.2 l -9.35,0 -5.2,-4 q -0.21309,-0.16191 -0.5,-0.2 -0.23145,-0.0297 -0.5,0.05 l -5.95,2.45 -4.15,-2.4 q -0.23613,-0.10234 -0.5,-0.1 l -4.85,0 -2.35,-4.35 q -0.0959,-0.2123 -0.35,-0.35 -0.21777,-0.14688 -0.5,-0.15 l -10.35,0 -9.75,-6.95 q -0.21152,-0.14238 -0.5,-0.15 -0.29336,-0.008 -0.55,0.15 l -4.25,2.55 -4.95,-4.1 q -0.24883,-0.20059 -0.6,-0.2 l -8.2,0 -3.2,-5 q -0.17617,-0.24844 -0.5,-0.4 -0.26719,-0.0967 -0.6,-0.05 l -9,2.2 -6.4,-4 q -0.23086,-0.15605 -0.55,-0.15 -0.26016,0.008 -0.5,0.15 l -7.6,5.2 -7.9,-3.65 q -0.26543,-0.13398 -0.6,-0.1 -0.29336,0.0771 -0.55,0.3 l -5.6,5.9 -7.05,-4.15 q -0.3041,-0.15312 -0.65,-0.1 -0.34219,0.0596 -0.6,0.3 l -7.3,7.95 -6.2,-1.75 q -0.18535,-0.0635 -0.4,-0.05 -0.22949,0.0525 -0.45,0.15 l -8.6,6.15 -5.25,-2.35 q -0.2918,-0.13379 -0.6,-0.1 -0.30742,0.0783 -0.55,0.3 l -5.15,5.55 -3.5,0 q -0.71621,-0.36699 -2.7,-0.65 -0.25527,-0.035 -0.5,0.05 -0.2334,0.0887 -0.4,0.25 l -4.55,5.15 -11.15,0 q -0.29824,0.002 -0.55,0.15 l -4.75,3.25 -5,-2.05 q -0.19219,-0.0688 -0.45,-0.05 -0.21699,0.0215 -0.45,0.15 l -4.55,2.8 -4.6,-3.75 q -0.25117,-0.19863 -0.6,-0.2 l -1.65,0 q -0.38398,-0.003 -0.7,0.25 l -2.15,1.9 -2.2,-2.45 q -0.14746,-0.16035 -0.35,-0.25 -0.19219,-0.0949 -0.4,-0.1 l -7.65,0 -3.25,-3.25 q -0.28945,-0.29648 -0.7,-0.3 l -6.35,0 -3.25,-3.55 q -0.17871,-0.2043 -0.5,-0.3 -0.28223,-0.0428 -0.6,0.05 l -5.6,2.3 -3.15,-5.4 q -0.11406,-0.23555 -0.35,-0.4 -0.23398,-0.10449 -0.5,-0.1 l -4.45,0 -3.1,-3.4 q -0.13477,-0.20996 -0.35,-0.35 -0.0494,-0.001 -0.1,-0.05 L 389.15,601 q -0.27852,-0.0867 -0.6,-0.05 -0.27441,0.0719 -0.5,0.25 l -24,22.8 q -0.19609,0.21641 -0.3,0.45 -0.0977,0.0367 -0.25,0.1 -0.17695,-0.13711 -0.45,-0.15 l -16,-0.7 q -0.37773,-0.0139 -0.7,0.2 -0.26426,0.25898 -0.35,0.6 l -1.75,10 q -0.0768,0.25371 -0.05,0.45 0.0221,0.20293 0.1,0.35 0.0336,0.067 0.05,0.1 0.15352,0.21621 0.35,0.3 l 4.45,3.5 q -25.70195,16.49707 -64.05,17.25 -1.8377,-3.00918 -5.05,-4.25 -0.0272,0.0119 -0.05,0 -0.99863,-0.31543 -2.05,-0.55 -0.23828,-0.0227 -0.5,0.05 -4.20684,1.26289 -3.9,4.35 l 0,0 q 0.1125,2.54063 1.05,4.4 0.0352,0.05 0.05,0.1 l 1.95,2.9 q 0.0699,0.0789 0.1,0.15 1.42793,1.48086 3.2,2 -2.26992,3.34687 -0.5,6.85 0.10156,0.18965 0.25,0.3 0.19316,0.16582 0.4,0.2 2.60156,0.72305 6.2,1.1 0.70039,3.23691 2.45,4.65 2.03379,1.76816 5.4,1.15 1.38633,-0.19023 4.35,0.1 0.0527,0.002 0.1,0 l 0,0 1.2,0.1 0,0 q 2.83574,0.29238 6.8,0.95 3.93398,0.71113 8.95,1.65 0.0242,0.0402 0.05,0.05 0.21875,0.12578 0.45,0.1 0.0266,0 0.05,0 l 8.35,1.75 0.05,0 q 3.18809,0.72793 6.65,1.5 26.70605,6.10156 44.2,0.1 0.0629,-0.0119 0.1,-0.05 3.3123,-1.4373 6.6,-3 l 0,0 q 2.08789,-0.89883 4.1,-2 l 0,0.05 q 1.8625,-0.9623 3.7,-2 0.0496,0.0117 0.05,0 3.30176,-1.98242 6.4,-4.15 l 0.1,-0.05 q 0.54785,-0.16875 1.1,-0.35 3.99648,2.1541 8.8,2.9 1.80098,0.25684 3.7,0.3 -1.19824,0.53906 -2.4,1.05 -7.2502,3.125 -14.35,6.25 -0.33301,0.17422 -0.5,0.5 -0.15859,0.32402 -0.1,0.65 0.10938,0.37676 0.4,0.6 0.27773,0.21719 0.6,0.2 8.6375,-0.29902 17.25,-2.65 0.94531,-0.23066 1.9,-0.5 -0.44746,0.32051 -0.9,0.65 l 0.05,0 q -4.45566,3.4377 -7.9,6.75 -0.2459,0.26523 -0.3,0.6 -0.0439,0.33047 0.1,0.6 0.18965,0.3291 0.5,0.45 0.30391,0.15742 0.6,0.05 5.44629,-1.24219 11.45,-3.7 5.26719,-2.15195 11,-5.25 l 3.15,0 q 4.08691,2.60937 8.85,3.85 2.12617,0.60879 4.35,0.9 l -19,11.45 q -0.25625,0.16797 -0.4,0.45 -0.10742,0.3457 -0.05,0.65 0.12324,0.3457 0.4,0.55 0.2668,0.20195 0.6,0.2 8.85977,0.0555 16.9,-3.5 3.6459,-1.57187 7.1,-3.9 -0.8457,2.69961 -1.95,5.25 -1.59199,3.68477 -3.7,7.05 -0.18203,0.31426 -0.15,0.65 0.0371,0.33125 0.25,0.55 0.2627,0.28496 0.6,0.35 0.3293,0.0457 0.6,-0.15 5.14238,-2.73203 8.7,-5.9 5.17207,-4.56562 7.25,-9.95 2.4666,-0.0559 4.9,-0.1 l 0.05,0 q 3.81172,-0.24844 7.75,-0.8 0.0357,-0.0107 0.05,-0.05 2.2125,-0.475 4.4,-0.95 l 0.05,0 q 3.80215,-0.96152 7.45,-2.9 l 0,0.05 q 3.86777,-1.91563 6.4,-5.3 1.22656,-1.61953 1.95,-3.45 1.04609,0.20977 2.05,0.4 l 0,0 q 3.7875,0.7377 7.5,1.3 3.80547,0.58516 4.5,0.7 0.052,0.0402 0.1,0.05 8.79902,0.8873 12.35,1.45 0.13926,0.0486 0.25,0.05 4.23594,-0.19316 4.7,-0.2 l 0.05,0 q 6.81289,0.10039 11.55,-0.05 l 0.05,0 q 3.56152,-0.19844 4.8,-0.2 0.048,0.003 0.1,0 5.90781,-0.60664 13.2,-2.7 l 3.9,0 q 0.073,0.005 0.15,0 l 20.5,-3 q -3.29297,1.86992 -7.45,3.75 -2.65156,1.2373 -5.7,2.4 -4.35215,1.81211 -9.5,3.55 -0.30625,0.10918 -0.5,0.4 -0.18711,0.29883 -0.15,0.65 0.033,0.34746 0.25,0.6 0.275,0.25273 0.6,0.3 6.32051,0.8291 12.9,-1 2.16699,-0.57754 4.35,-1.45 -1.05879,0.93301 -2.2,1.8 l 0,0 q -5.38613,4.24121 -12.2,7.45 -0.2916,0.14395 -0.45,0.45 -0.15117,0.31055 -0.1,0.65 0.09,0.34609 0.35,0.55 0.27266,0.24414 0.6,0.25 8.44395,0.22187 18.5,-4.7 3.49707,-1.72051 7.2,-4.1 -1.82832,2.11328 -4.1,4.2 -2.49141,2.3373 -5.55,4.65 -0.25625,0.19473 -0.35,0.5 -0.0996,0.31309 0,0.6 0.10723,0.33379 0.35,0.5 0.28437,0.20801 0.6,0.2 6.3502,-0.0572 12,-3.05 6.05195,-3.19902 11.25,-9.9 5.93652,-7.56348 19.85,-13.85 l 0.05,0 q 0.71055,-0.36172 1.85,-1 1.08164,-0.54453 1.85,-0.9 0.0242,0.0123 0.05,0 0.17285,-0.0875 0,-0.2 0.15371,0.0596 0.3,0.05 0.2707,-0.0227 0.5,-0.2 1.61211,-1.02461 3.35,-2.25 0.0502,-5.9e-4 0.05,-0.05 0.1957,-0.1043 0.4,-0.2 0.10527,-0.0518 0.2,-0.15 0.26484,-0.2 0.55,-0.45 l 0.05,0 q 2.22246,-1.71211 3.8,-3.45 l 0.05,0 q 2.76152,-3.03184 3.65,-6.25 0.81816,-0.10098 1.6,-0.2 0.0611,-0.0117 0.1,-0.05 0.98652,-0.16367 3.65,-0.55 2.64863,-0.39785 5.15,-0.55 l 0,0 q 1.17773,-0.0924 1.9,-0.05 l 0.05,0 q 1.4875,0.10078 2.95,0.2 l 0.05,0 q 3.175,0.2 6.35,0.5 0.0521,0.002 0.1,0 l 0.05,0 q 0.7373,0.0543 1.45,0.15 0.0879,0.004 0.15,0 l 0.55,0.05 -0.1,0 q 2.10469,0.19824 3,0.25 l 0.05,0 q 2.0625,0.15098 4.15,0.2 0.32051,0.007 0.55,-0.15 0.22832,0.14766 0.5,0.15 l 2.7,0 q 0.9293,-0.0484 3.5,0 l 0.05,0 q 1.9875,2e-4 3.95,0.05 l 0.05,0 q 0.75,0 1.5,0 2.2252,3.9e-4 4.4,-0.1 l 0,0 q 1.275,-0.1 2.5,-0.2 l 0.05,0 q 1.4752,-0.14961 2.9,-0.35 0.15645,-0.015 0.3,-0.05 0.19687,-0.0127 0.35,-0.05 1.63789,-0.21211 3.2,-0.5 l 0,0.05 q 2.5625,-0.4123 5.1,-0.9 l 0.05,0 q 1.53789,-0.27266 3.05,-0.6 l 0.05,0 q 0.57598,-0.0643 1.2,-0.15 l 0,-0.05 q 4.71367,-0.85742 9.55,-1.05 0.0471,0.002 0.1,0 0.275,-0.0449 0.55,-0.05 0.9,0 1.8,0 4.84668,-0.0473 9.1,0.35 2.025,0.20078 4.05,0.3 3.44961,0.15254 6.95,-0.05 l 0.05,0 q 0.48887,-0.0488 1,-0.1 l 0.05,0 q 1.93711,-0.15098 3.8,-0.3 l 0.05,0 q 3.5748,-0.39961 7.15,-0.95 1.25215,-0.18613 2.3,-0.85 2.24941,-1.35039 2.65,-2.7 0.72441,-1.60996 -0.85,-3.15 -0.10293,-0.0711 -0.25,-0.15 -1.25313,-1.12539 -4.2,-2.15 -0.8748,-0.3 -1.75,-0.6 -0.34277,-0.13652 -0.7,0 -0.11504,0.0787 -0.2,0.15 -5.6168,-1.97207 -8.7,-2.4 m -0.3,2 0,0 q 4.05625,0.5748 12.5,3.85 0.45,0.15859 0.85,0.3 0.71426,0.30078 1.5,0.6 0.36445,0.42617 0.25,0.85 -0.34863,0.79961 -1.85,1.7 -0.70215,0.43594 -1.55,0.55 -3.51289,0.54766 -7.05,0.95 l 0,0 q -0.16484,0.0131 -0.35,0 -1.70684,0.16387 -3.5,0.3 l 0,0 q -0.0387,0.004 -0.1,0 -0.4582,0.0514 -0.9,0.1 l -0.05,0 q -3.37422,0.19629 -6.7,0.05 -0.3207,-0.0164 -0.65,-0.05 -1.6457,-0.0832 -3.3,-0.25 -0.0498,-0.005 -0.1,0 -4.30332,-0.40215 -9.2,-0.35 -0.18672,0 -0.4,0 -0.68672,0 -1.4,0 -0.35,-0.004 -0.7,0 -0.075,0.0402 -0.15,0.05 -4.63164,0.2041 -9.15,1 -0.25332,0.0732 -0.55,0.1 l 0.05,0 q -0.6627,0.1125 -1.3,0.2 l 0,0 q -1.05254,0.22871 -2.1,0.4 -0.48984,0.12949 -1,0.2 l 0,0 q -2.26309,0.41855 -4.55,0.75 -0.23848,0.06 -0.5,0.1 l 0,0 q -1.46895,0.25156 -3,0.4 -0.0539,0.0416 -0.15,0.05 -0.0371,0.009 -0.1,0 -0.075,0.0473 -0.15,0.05 -0.16387,-9.8e-4 -0.35,0.05 -0.0371,-0.004 -0.1,0 -1.36348,0.19766 -2.8,0.35 l 0,0 q -0.96191,0.0785 -1.95,0.15 -0.23691,0.0285 -0.5,0.05 l -0.05,0 q -1.73281,0.0828 -3.55,0.1 -0.33672,0 -0.7,0 -0.7375,0 -1.5,0 l 0,0 q -1.77578,-0.0445 -3.55,-0.05 -0.21328,0 -0.45,0 l 0,0 q -1.99395,-0.0381 -3.05,-0.05 -0.31602,0.0381 -0.55,0.05 l -2.65,0 q -0.2084,0.002 -0.4,0.05 -0.0129,0.0123 -0.05,0 -0.0797,0 -0.15,0 -0.17734,-0.0475 -0.4,-0.05 -1.82852,-0.0453 -3.65,-0.2 -0.20918,0.0158 -0.45,0 l 0,0 q -0.88281,-0.0512 -2.95,-0.25 -0.0529,-0.002 -0.1,0 l -0.55,-0.05 0.1,0 q -0.44375,-0.0564 -0.9,-0.1 -0.38125,-0.0285 -0.75,-0.05 l -0.1,0 q -2.98105,-0.28477 -5.95,-0.5 -0.19355,0.0113 -0.4,0 l 0,0 q -1.4875,-0.10078 -3,-0.2 l 0,0 q -0.51309,-0.034 -1.2,0 -0.44082,0.009 -0.95,0.05 l -0.05,0 q -2.32578,0.13613 -4.8,0.45 -0.2502,0.0635 -0.5,0.1 -1.87109,0.28281 -2.95,0.45 -0.47949,0.1082 -0.8,0.15 l 0.05,0 q -0.47773,0.0693 -1,0.15 0.14668,-2.89609 -1.95,-4.65 l -0.05,0 q -2.05742,-1.75 -7.2,-2.4 -0.2625,-0.0377 -0.5,0.05 l -0.05,0 q -0.11465,-0.073 -0.3,-0.15 -0.29355,-0.0453 -0.55,-0.05 -0.0133,-9.8e-4 -0.05,0 -1.2875,-0.10371 -2.55,0 -0.13262,0.0129 -0.3,0.05 -0.25117,-0.2084 -0.65,-0.2 -2.06895,0.0277 -4,0.35 -1.7418,0.27715 -3.35,0.8 -3.91582,1.25254 -5.8,-1.35 l 0,-0.05 q -0.76133,-1.38965 2.7,-3.5 0.3875,-0.22227 0.75,-0.4 0.0685,-0.0344 0.1,-0.1 0.25527,-0.13145 0.35,-0.4 0.40254,-0.15254 -3.2,1.05 -3.60195,1.19883 -2.35,4.5 l 0,0 q 2.56484,3.89785 8.05,2.15 3.1252,-1.00293 6.8,-1.05 0.20781,-0.002 0.35,-0.05 0.32676,0.2373 0.7,0.2 0.67422,-0.0537 1.35,-0.05 0.47793,0.0104 0.95,0.05 0.0629,0.002 0.1,0 0.0418,0.007 0.1,0 0.34238,0.10664 0.65,-0.05 0.20684,0.15957 0.45,0.2 4.40801,0.5502 6.2,1.95 l 0,0 q 1.40449,1.21445 1.25,3.2 -0.0147,0.25996 0.05,0.45 -0.12656,0.19219 -0.2,0.4 -0.69102,3.09121 -3.35,6 l 0,0 q -1.4625,1.60137 -3.55,3.15 -0.3293,0.2748 -0.65,0.5 -0.3041,0.20215 -0.6,0.4 l 0.05,-0.05 q -0.24004,0.20801 -0.5,0.4 -1.3168,0.88887 -2.55,1.7 -0.32754,0.0934 -0.8,0.3 -0.0252,0.0361 -0.05,0.05 -0.81602,0.36367 -1.95,0.95 l 0.05,0 q -1.14805,0.61152 -1.85,0.95 l 0.05,0 q -14.48652,6.51328 -20.65,14.4 -4.90195,6.34883 -10.6,9.4 -0.46816,0.28281 -1,0.5 -3.3,1.58066 -6.9,2.05 1.68789,-1.35098 3.15,-2.75 0.21836,-0.15605 0.4,-0.35 4.7998,-4.54102 7.75,-9.05 0.19531,-0.31152 0.15,-0.7 -0.0398,-0.3291 -0.3,-0.6 -0.26426,-0.22539 -0.65,-0.25 -0.34531,-0.0184 -0.65,0.2 -6.32188,4.58848 -12.05,7.4 -0.36836,0.18047 -0.75,0.35 -6.38125,3.03242 -12.1,3.85 4.51074,-2.47539 8.3,-5.45 l 0,-0.05 q 0.17617,-0.0961 0.3,-0.25 3.40703,-2.70996 6.25,-5.85 0.27832,-0.24004 0.3,-0.6 0.0205,-0.36211 -0.2,-0.65 -0.23398,-0.29434 -0.6,-0.4 -0.3541,-0.05 -0.7,0.1 -4.72305,2.56035 -9.3,3.8 -0.33477,0.12344 -0.7,0.2 -3.17266,0.81172 -6.3,0.95 2.47285,-0.90195 4.7,-1.85 0.22148,-0.0523 0.4,-0.15 2.87539,-1.11797 5.4,-2.3 4.36699,-1.9625 7.8,-3.9 l 0,0 q 0.30762,-0.18262 0.6,-0.4 1.58301,-0.9127 2.95,-1.85 9.71406,2.0998 21.35,-2.6 l 0.05,0.05 q 3.93262,-2.52969 5.15,-4.7 -0.2248,0.14688 -0.45,0.25 l 0,0 q -1.64961,0.91133 -3.3,1.65 l 0.05,0 q -0.94609,0.4248 -1.9,0.8 -11.41895,4.66055 -20.85,2.5 l -0.05,0 q -0.0762,-0.004 -0.2,0 -5.59922,-1.39258 -10.5,-5.25 -0.1707,-0.18945 -0.35,-0.4 0,-0.0385 -0.05,-0.1 -0.0352,-0.0576 -0.1,-0.15 -0.56309,-0.6666 -1,-1.4 l 0,-0.05 q -0.68867,-1.12715 -1.1,-2.35 l -0.05,0 q -0.94277,-2.54844 -0.75,-5.4 l 0,0 q 0.14297,-3.33418 1.8,-7.05 l 0,0 q 0.69434,-1.52383 1.65,-3 0.0897,-0.14687 0.1,-0.3 0.6041,-0.95391 1.3,-1.9 2.63027,-3.60742 6.55,-6.9 l 0.05,0 q 1.20527,-0.97539 2.5,-1.95 1.74863,-1.23691 3.65,-2.45 -1.39121,-0.19492 -6.8,2.35 -0.12246,0.1043 -0.25,0.2 -0.18516,0.16777 -0.4,0.3 -3.75703,3.14883 -6.4,6.55 -0.0613,0.11602 -0.15,0.2 -0.1625,0.24336 -0.35,0.5 -0.2377,0.33008 -0.45,0.65 -0.5709,0.83008 -1.05,1.65 l -0.05,0 q -0.99902,1.63418 -1.75,3.3 l 0.05,0 q -1.09316,2.42207 -1.6,4.7 -0.33398,1.54512 -0.4,3 l 0,0.05 q -0.20273,3.25957 0.9,6.2 l 0,0 q 0.4959,1.38887 1.3,2.7 l 0,0 q 0.0566,0.0975 0.1,0.2 0.47227,0.7498 1.05,1.45 l 0,0.05 q 0.2834,0.37676 0.6,0.7 l 0.25,0.25 0.05,0 q 3.43047,2.71621 7.2,4.25 l -8,1.15 -4.15,0.6 -8.4,1.25 -0.4,0.05 -3.7,0 -0.15,0 q -0.14004,0.005 -0.3,0.05 -6.88633,1.98027 -12.55,2.6 -0.21387,0.0262 -0.45,0.05 -1.19805,0.006 -4.3,0.15 -0.21348,0.0353 -0.5,0.05 l 0,0 q -4.58164,0.14453 -11.1,0.05 -0.17402,0.003 -0.4,0 l 0,0 q -0.38125,-0.002 -4.35,0.15 -0.20723,0.0389 -0.45,0.05 -3.5418,-0.59004 -11.85,-1.45 -0.24453,-0.0238 -0.5,-0.05 -0.7957,-0.1627 -4.05,-0.7 -0.22246,-0.0141 -0.45,-0.05 -3.31699,-0.48379 -6.7,-1.1 -0.33652,-0.0578 -0.7,-0.15 l -0.05,0 q -0.84629,-0.16504 -1.75,-0.35 1.83125,-6.6627 -1.6,-16.2 1.17324,4.01934 0.75,9.2 -0.41016,5.00625 -0.9,6.6 l 0.05,-0.05 q -0.0432,0.0894 -0.1,0.15 -0.11055,0.4207 -0.25,0.55 -0.39609,0.86387 -0.55,1.2 -0.17148,0.40039 -0.4,0.75 -0.49844,1.02188 -1.2,1.95 -2.2623,3.0082 -5.7,4.7 l 0,0 q -3.45254,1.81133 -7.05,2.7 l 0.05,0 q -2.2125,0.475 -4.45,0.95 l 0.1,0 q -3.83613,0.54473 -7.55,0.8 l -0.05,0 q -2.75,0.0508 -5.55,0.15 -0.29102,0.0141 -0.55,0.2 -0.24785,0.18418 -0.35,0.45 -1.88379,5.29199 -6.95,9.75 -0.21914,0.2166 -0.5,0.4 -2.01074,1.76992 -4.55,3.35 1.0666,-1.94102 1.95,-4 0.0451,-0.0477 0.05,-0.1 1.66836,-3.92383 2.75,-8.2 0.0973,-0.30371 -0.05,-0.6 -0.0865,-0.29824 -0.35,-0.5 -0.26172,-0.15664 -0.6,-0.15 -0.29375,0.008 -0.55,0.2 -4.3541,3.32266 -9.05,5.35 -0.40137,0.20156 -0.8,0.35 -5.5168,2.30156 -11.45,2.8 l 7.9,-4.75 10.35,-6.2 q 0.30312,-0.17109 0.4,-0.5 0.15332,-0.28105 0.05,-0.6 -0.0637,-0.31699 -0.35,-0.55 -0.2248,-0.18281 -0.55,-0.2 -3.68145,-0.19922 -7,-1.15 l 0,0 q -0.0553,0.0107 -0.1,0 -2.7293,-0.71719 -5.2,-1.9 l 6.55,0 13.75,0 q 1.81172,0.30391 3.3,0.1 1.6752,-0.1793 3,-0.9 4.69805,-2.44141 5.6,-11.3 l 0,-0.2 q -0.002,-0.11914 -0.05,-0.25 l -0.45,-2.85 q 0.0168,-0.0387 0,-0.1 -0.92949,-3.02246 -3.85,-5.9 -2.10742,-1.39746 -3.15,-1.6 -0.99961,-0.20859 -1,-0.2 0.13125,0.34863 2.15,1.85 2.3375,1.73516 3.95,6.45 l 0.3,2 q -0.7041,0.26133 -1.4,0.5 -2.61348,0.88672 -5.25,1.45 l 0.05,0 q -3.675,0.725 -7.4,1.4 l 0.1,0 q -1.09805,0.0863 -2.25,0.15 -0.14805,0.0363 -0.35,0.05 -1.1125,0.0988 -2.25,0.2 l -0.05,0 q -0.73047,0.0387 -1.5,0.05 -0.20547,0.0387 -0.45,0.05 l 0,0 q -9.08301,0.18984 -18.55,-0.85 -0.18535,-0.0285 -0.4,-0.05 l 0,0 q -2.00547,-0.27031 -4,-0.55 -0.23047,-0.0203 -0.45,-0.05 l -0.05,0 q -7.37559,-1.09258 -15,-2.9 -0.16172,-0.0225 -0.35,0 -1.05,0.1502 -2.05,0.3 -0.0348,0.0115 -0.1,0 -1.08164,0.26797 -2.15,0.55 0.9998,-0.90625 1.95,-1.9 l 0,0 q 11.3877,-11.3209 5.9,-23.7 2.51113,12.51934 -7.3,22.3 l -0.05,0 q -2.01602,2.09648 -4.35,3.9 l 0.05,-0.05 q -0.18418,0.14668 -0.4,0.3 -0.66523,0.48242 -1.35,0.95 -0.0439,0.0543 -0.1,0.05 -3.07793,2.14648 -6.35,4.1 3.9e-4,0.0383 -0.05,0.05 -1.78711,0.9748 -3.6,1.9 l -0.05,0 q -1.93789,1.04883 -3.95,1.9 l -0.05,0.05 q -3.2625,1.5373 -6.55,2.95 -16.66523,5.65059 -41.85,0.15 -0.56855,-0.13691 -1.2,-0.3 -3.4752,-0.7752 -6.7,-1.5 l 0,0 -4.7,-1 -3.7,-0.75 q -0.0848,-0.0375 -0.2,-0.05 -0.11191,-0.0381 -0.25,-0.05 -5.09336,-0.98047 -9.1,-1.7 -4.06816,-0.68965 -6.95,-1 l -0.05,0 -1.2,-0.1 q -0.0143,-0.002 -0.05,0 -3.33652,-0.30977 -4.9,-0.05 -2.33438,0.43164 -3.75,-0.7 -1.11094,-0.97656 -1.65,-2.95 10.81582,0.8332 29.35,-0.85 l 1.15,4.5 q 0.12129,0.33516 0.4,0.55 0.26484,0.20391 0.6,0.2 l 1.1,0 q 0.26699,-0.006 0.5,-0.15 0.23848,-0.12617 0.35,-0.35 l 3,-5.45 q 2.70742,-0.29648 5.55,-0.65 l 2.35,5.15 q 0.17285,0.38398 0.55,0.5 0.36445,0.17617 0.7,0 0.40469,-0.13047 0.55,-0.5 l 2.55,-6 q 5.19023,-0.64355 10.8,-1.45 l 0.05,0 q 2.78301,-0.35391 5.4,-0.8 0.10039,-0.005 0.15,-0.05 0.076,0.0178 0.1,0 4.39648,-0.72637 8.25,-1.6 0.2377,-0.0182 0.45,-0.1 6.93027,-1.65547 12.2,-3.9 l 0,-0.05 0.05,0 q 4.74941,-2.00234 8.1,-4.5 0.11016,-0.0367 0.2,-0.15 9.11777,-6.90605 8.25,-17.25 0.0791,-0.61797 2,0.7 1.92012,1.36699 2.4,3.2 0.53496,1.83438 0.4,2.3 0.25684,-0.21348 0.3,-0.55 0.85859,-4.25391 -2.8,-6.7 -0.23203,-0.13105 -0.45,-0.3 -0.55879,-0.30332 -1.1,-0.55 -0.21211,-0.074 -0.45,-0.15 -0.99141,-0.5 -2.2,-0.5 -0.0463,0 -0.1,0 -0.59492,-0.009 -1.2,0.1 -1.23965,0.24961 -1.95,1.05 -1.36367,1.67578 -1.55,3.5 -0.0553,0.54668 -0.15,0.85 0.10977,-0.0697 0.2,-0.2 1.77207,-2.73691 3.85,-3.25 0.37754,-0.0512 0.75,-0.05 1.05742,9.45078 -6.85,15.8 l -7.4,-6.75 q -0.27246,-0.26777 -0.7,-0.25 -0.38613,0.0107 -0.7,0.3 -0.25371,0.29316 -0.25,0.7 l 0,11.05 q -4.80605,2.02187 -11,3.5 l -5.05,-6 q -0.21211,-0.27012 -0.6,-0.35 -0.33359,-0.0488 -0.65,0.1 -0.3207,0.20742 -0.45,0.55 l -2.8,7.6 q -2.40508,0.39863 -4.95,0.7 l 0,0 q -5.91934,0.84727 -11.35,1.55 l -0.05,0 q -2.725,0.35 -5.4,0.7 -3.44883,0.39844 -6.7,0.75 l 0,0 q -2.9166,0.29668 -5.65,0.6 l -0.1,0 q -20.08496,1.8377 -31.15,0.8 l -0.05,0 q -3.53613,-0.36152 -6.15,-1 -1.00879,-2.66953 1.15,-5.25 0.24551,0.0291 0.5,0 l 0.05,0 q 1.05156,-0.0496 2.15,-0.05 0.34199,-0.003 0.6,-0.2 l -4.75,-1.9 q -1.41543,-0.37891 -2.55,-1.55 l -1.85,-2.75 0.1,0.1 q -0.75801,-1.53145 -0.85,-3.6 l 0,-0.05 q 0.0168,-1.4877 2.25,-2.25 0.32461,0.0955 0.65,0.15 0.47715,0.15059 0.95,0.3 2.70957,1.05488 4.2,3.7 0.0795,0.20879 0.25,0.35 0.30469,0.30996 0.7,0.3 l 0.05,0 q 40.2,-0.66309 66.8,-18.35 l 0,0 q 3.49883,-2.36348 6.75,-4.95 0.0783,-0.0334 0.1,-0.1 0.12773,-0.0537 0.2,-0.15 l 0,-0.05 0.05,-0.05 q 2.8873,-3.86738 4.35,-5.3 l 0.05,0 q 1.13574,-1.07773 1.65,-2.35 0.0963,0.0631 0.15,0.1 l 0.05,0.05 q 0.64453,0.49199 1.25,0.95 17.1418,12.54863 26.55,5.15 l -0.05,0 q 9.5166,-6.11875 6.7,-24.45 l 0.05,0 1.2,-0.65 3,3.3 q 0.16387,0.18516 0.35,0.25 0.19141,0.1043 0.4,0.1 l 4.25,0 3.25,5.65 q 0.21953,0.325 0.55,0.45 0.37617,0.11758 0.7,-0.05 l 0.1,-0.05 0.2,-0.05 5.55,-2.25 3.05,3.35 q 0.16387,0.18516 0.35,0.25 0.19141,0.1043 0.4,0.1 l 0.6,0 0.25,0 5.5,0 3.25,3.25 q 0.28926,0.29629 0.7,0.3 l 0.8,0 0.3,0 6.5,0 2.6,2.9 q 0.28047,0.31855 0.7,0.35 0.41309,0.0272 0.7,-0.25 l 0.05,-0.05 0.1,-0.1 2.5,-2.2 0.9,0 4.85,3.95 q 0.26602,0.22676 0.55,0.25 0.34609,0.0187 0.6,-0.15 l 0.4,-0.25 0.15,-0.1 4.2,-2.6 5,2.05 q 0.25371,0.12344 0.5,0.1 0.24551,-0.0301 0.45,-0.2 l 4.9,-3.35 11.3,0 q 0.20723,0.006 0.4,-0.1 0.20059,-0.0654 0.35,-0.25 l 0.15,-0.15 0,-0.05 4.35,-4.85 q 1.20957,0.22812 1.5,0.4 0.30352,0.20527 0.65,0.2 l 4.25,0 q 0.20742,0.003 0.4,-0.1 0.18555,-0.0539 0.3,-0.2 l 0.15,-0.15 0.05,-0.05 4.8,-5.15 5.15,2.3 q 0.23965,0.12949 0.5,0.1 0.26035,-0.0244 0.45,-0.2 l 0.35,-0.25 0.05,-0.05 8.3,-5.85 6.3,1.8 q 0.30117,0.0916 0.55,0 0.29043,-0.0592 0.45,-0.3 l 7.15,-7.8 7.05,4.1 q 0.2332,0.15586 0.5,0.15 l 0.05,0 q 0.36875,0.002 0.65,-0.25 0.0356,-0.0105 0.05,-0.05 l 0.05,-0.05 5.65,-5.9 7.7,3.6 q 0.26484,0.11641 0.5,0.1 0.28301,-0.024 0.5,-0.2 l 0.15,-0.1 0.05,-0.05 7.3,-4.95 6.2,3.85 q 0.26738,0.14961 0.55,0.15 l 0.05,0 q 0.11289,5.9e-4 0.2,-0.05 l 0.4,-0.1 0.1,0 8.2,-1.95 3.1,4.8 q 0.14434,0.2459 0.35,0.35 0.24746,0.14941 0.5,0.15 l 1.3,0 7.1,0 5,4.15 0.15,0.1 q 0.29883,0.25039 0.65,0.25 l 0.15,-0.05 q 0.17969,-0.003 0.35,-0.1 0.0736,-0.002 0.15,-0.05 l 0.1,-0.1 0.25,-0.15 3.8,-2.25 7.15,5.1 2.3,1.6 q 0.28555,0.20469 0.6,0.2 l 3.85,0 6.2,0 1.2,2.2 1.1,2.05 0,0.05 q 0.1459,0.2623 0.35,0.4 0.26777,0.14687 0.55,0.15 l 0.9,0 4.25,0 4.35,2.45 q 0.23594,0.15215 0.5,0.15 l 0.15,-0.05 q 0.19336,-0.002 0.35,-0.1 l 1.05,-0.4 4.75,-1.9 5,3.85 q 0.26758,0.20254 0.6,0.2 l 1.55,0 0.05,0 7.75,0 6.8,5.05 0.35,0.25 q 0.26777,0.19863 0.6,0.2 l 1.05,0 4.1,0 q 0.23359,3.9e-4 0.45,-0.1 l 0.3,-0.15 0.2,-0.1 2.75,-1.4 4,4 q 0.20977,0.2127 0.5,0.25 0.29297,0.0867 0.55,-0.05 l 6,-2.45 1.7,0 7.2,4.65 q 0.18516,0.1166 0.4,0.15 0.21445,0.0324 0.4,-0.05 l 0.25,-0.05 0.65,-0.2 7.7,-2.15 7.65,5.5 q 0.19668,0.1416 0.4,0.15 0.21035,0.0709 0.4,0 l 0.2,-0.05 0.55,-0.1 6.95,-1.7 7.1,4 q 0.12031,0.0912 0.25,0.1 0.0857,0.0439 0.15,0.05 0.25625,0.0117 0.45,-0.1 l 0.6,-0.2 3.65,-1.5 q 0.79062,0.62363 1.6,1.15 l 0,-0.05 q 4.28437,2.90527 9.35,3.6 m -416.45,30.6 q 1.31035,-0.11445 2.65,-0.25 l -1.85,3.35 -0.8,-3.1 m 99.4,6.65 q -0.35098,-0.11133 -0.7,0 -4.05,1.54746 -8.1,2.6 -0.23965,0.09 -0.5,0.15 -5.22539,1.39023 -10.5,2 4.48535,-1.94453 9,-3.9 0.0586,-0.001 0.1,-0.05 3.65937,-1.60039 7.35,-3.2 0.33945,-0.13164 0.5,-0.5 0.16738,-0.3 0.05,-0.65 -0.0818,-0.3623 -0.4,-0.6 -0.30723,-0.18867 -0.7,-0.15 -4.6291,0.53262 -8.7,-0.05 -0.24668,-0.0381 -0.5,-0.1 -3.09219,-0.51348 -5.85,-1.7 1.61836,-0.45879 3.25,-0.85 l -0.05,0.05 q 0.92031,-0.13828 1.85,-0.3 0.10977,0.0449 0.2,0.05 7.49668,1.7668 14.8,2.85 l 0,0 q 2.275,0.3 4.5,0.6 l 0.05,0 q 9.81387,1.10469 19.2,0.9 l 0.05,0 q 1,-0.05 2,-0.1 l 0,0 q 1.175,-0.1 2.3,-0.2 1.325,-0.1 2.6,-0.2 0.0746,-0.01 0.1,-0.05 3.725,-0.675 7.4,-1.4 l 0.05,0 q 3.06035,-0.66719 6.1,-1.75 -1.26562,8.03672 -6.65,8.85 -1.28926,0.18633 -2.9,-0.1 -0.0635,0.005 -0.15,0 l -27.8,0 q -0.25313,0.002 -0.5,0.1 -5.72285,3.1459 -11,5.3 -0.23437,0.12969 -0.5,0.2 -3.46387,1.40742 -6.75,2.35 2.21895,-1.89141 4.75,-3.85 l 0.15,-0.1 q 2.80664,-2.1834 6.1,-4.45 0.32266,-0.18535 0.4,-0.55 0.12227,-0.36523 -0.05,-0.7 -0.18457,-0.3377 -0.55,-0.5 M 394.4,611.7 q -0.1125,-0.11543 -0.25,-0.25 l 3.15,-1.55 q 2.35488,16.27168 -5.9,21.85 -0.024,0.0369 -0.05,0.05 -8.83457,6.52305 -25.4,-6.1 l 0,0 q -0.0393,-0.0311 -0.1,-0.05 l 20.3,-10.15 q 0.12852,1.78496 1.4,3.05 1.4418,1.44883 3.45,1.45 2.01152,0.003 3.4,-1.45 l 0,0 q 1.45332,-1.38848 1.45,-3.4 -0.001,-2.0082 -1.45,-3.45 m 3.25,-4.2 -0.05,0 -28,14 19.35,-18.35 9.3,4 -0.6,0.35 m -42.55,21.3 q -0.2418,0.12969 -0.4,0.35 -0.24512,-0.024 -0.5,0.1 -0.28691,0.14336 -0.45,0.4 -0.29609,-0.0473 -0.6,0.1 l -6.65,3.3 1.3,-7.3 12.35,0.5 -5.05,2.55 m -4.25,9.25 q -0.0617,-0.0883 -0.2,-0.2 l -3.6,-2.8 6.7,-3.35 q 0.29746,1.25215 1.25,2.2 0.35059,0.35352 0.7,0.6 -2.34785,1.84687 -4.85,3.55 m 5.8,23.75 3.2,3.85 q -2.3998,0.55273 -5,1 l 1.8,-4.85 m -23.1,12.5 -1.15,-2.5 q 1.17109,-0.12656 2.35,-0.3 l -1.2,2.8 m 46.95,-16.5 q -2.37246,1.60957 -5.4,3 l 0,-7.95 5.4,4.95 m -68.8,0.3 q -2.58457,0.85234 -4.1,3 11.22031,-4.12852 19.65,0.2 l 0,0.05 q 0.64453,0.40469 0.5,1.4 l 0,0.05 q -0.25586,2.5373 -2.1,3.6 -1.84082,1.1123 -3,1.3 -1.17012,0.18242 -1.25,0.2 0.0375,0.0529 0.05,0.05 0.21992,0.13887 0.45,0.15 1.96758,0.0531 3.4,-0.3 0.95469,-0.20156 1.7,-0.6 1.24277,-0.62285 1.9,-1.7 0.68691,-1.03496 0.85,-2.45 0.3543,-2.58359 -1.6,-3.5 l 0,0 q -8.21055,-4.26777 -16.45,-1.45 m -5.55,7.25 q -1.19824,0.38613 -2.4,0.75 1.35,0.1 2.6,-0.15 5.7,-1.1 11.55,-1 2.3,0.05 2.15,-1.35 -0.3,-3.5 -5.5,-1.35 -4.17031,1.71484 -8.4,3.1 z"
         id="path15061"
         inkscape:connector-curvature="0"
         style="fill:#000000;stroke:none" />
      <path
         d="m 375.1,660.8 q 3.02754,-1.39043 5.4,-3 l -5.4,-4.95 0,7.95 m -42.7,11 1.15,2.5 1.2,-2.8 q -1.17891,0.17344 -2.35,0.3 m 27.45,-6.15 -3.2,-3.85 -1.8,4.85 q 2.6002,-0.44727 5,-1 m -37.45,7.3 q -1.33965,0.13555 -2.65,0.25 l 0.8,3.1 1.85,-3.35 z"
         id="path15063"
         inkscape:connector-curvature="0"
         style="fill:#ffffff;stroke:none" />
      <path
         d="m 350.65,637.85 q 0.13828,0.11172 0.2,0.2 2.50215,-1.70313 4.85,-3.55 -0.34941,-0.24648 -0.7,-0.6 -0.95254,-0.94785 -1.25,-2.2 l -6.7,3.35 3.6,2.8 m 43.5,-26.4 q 0.1375,0.13457 0.25,0.25 1.44883,1.4418 1.45,3.45 0.003,2.01152 -1.45,3.4 l 0,0 q -1.38848,1.45332 -3.4,1.45 -2.0082,-10e-4 -3.45,-1.45 -1.27148,-1.26504 -1.4,-3.05 l -20.3,10.15 q 0.0607,0.019 0.1,0.05 l 0,0 q 16.56543,12.62305 25.4,6.1 0.026,-0.0131 0.05,-0.05 8.25488,-5.57832 5.9,-21.85 l -3.15,1.55 z"
         id="path15065"
         inkscape:connector-curvature="0"
         style="fill:#ffcc00;stroke:none" />
      <path
         d="m 354.7,629.15 q 0.1582,-0.22031 0.4,-0.35 l 5.05,-2.55 -12.35,-0.5 -1.3,7.3 6.65,-3.3 q 0.30391,-0.14727 0.6,-0.1 0.16309,-0.25664 0.45,-0.4 0.25488,-0.12402 0.5,-0.1 m 42.9,-21.65 0.05,0 0.6,-0.35 -9.3,-4 -19.35,18.35 28,-14 m 20.85,72.35 q 0.34902,-0.11133 0.7,0 0.36543,0.1623 0.55,0.5 0.17227,0.33477 0.05,0.7 -0.0773,0.36465 -0.4,0.55 -3.29336,2.2666 -6.1,4.45 0.9209,0.87441 1.85,1.6 0.26563,-0.0703 0.5,-0.2 5.27715,-2.1541 11,-5.3 0.24687,-0.0982 0.5,-0.1 l 27.8,0 q 0.0865,0.005 0.15,0 1.61074,0.28633 2.9,0.1 5.38438,-0.81328 6.65,-8.85 -3.03965,1.08281 -6.1,1.75 l -0.05,0 q -3.675,0.725 -7.4,1.4 -0.0254,0.0402 -0.1,0.05 -1.275,0.1 -2.6,0.2 -1.125,0.1 -2.3,0.2 l 0,0 q -1,0.05 -2,0.1 l -0.05,0 q -9.38613,0.20469 -19.2,-0.9 l -0.05,0 q -2.225,-0.3 -4.5,-0.6 l 0,0 q -7.30332,-1.0832 -14.8,-2.85 0.21914,1.44043 0.6,2.75 0.25332,0.0619 0.5,0.1 4.0709,0.58262 8.7,0.05 0.39277,-0.0387 0.7,0.15 0.31816,0.2377 0.4,0.6 0.11738,0.35 -0.05,0.65 -0.16055,0.36836 -0.5,0.5 -3.69063,1.59961 -7.35,3.2 0.65742,1.01875 1.4,1.95 0.26035,-0.06 0.5,-0.15 4.05,-1.05254 8.1,-2.6 z"
         id="path15067"
         inkscape:connector-curvature="0"
         style="fill:#393900;stroke:none" />
      <path
         d="m 409.85,682.6 q -0.74258,-0.93125 -1.4,-1.95 -0.0414,0.0488 -0.1,0.05 -4.51465,1.95547 -9,3.9 5.27461,-0.60977 10.5,-2 m 3.4,3.45 q -0.0678,0.0555 -0.15,0.1 l 0,0 q -2.53105,1.95859 -4.75,3.85 3.28613,-0.94258 6.75,-2.35 -0.9291,-0.72559 -1.85,-1.6 m -7.2,-10.65 q -0.38086,-1.30957 -0.6,-2.75 -0.0902,-0.005 -0.2,-0.05 -0.92969,0.16172 -1.85,0.3 l 0.05,-0.05 q -1.63164,0.39121 -3.25,0.85 2.75781,1.18652 5.85,1.7 z"
         id="path15069"
         inkscape:connector-curvature="0"
         style="fill:#242400;stroke:none" />
      <path
         d="m 587.1,694.75 q -1.67305,-0.45742 -3.35,-1.05 -0.18164,0.19395 -0.4,0.35 -1.46211,1.39902 -3.15,2.75 3.6,-0.46934 6.9,-2.05 m -99.35,-19.8 q -1.45,1.3 -0.65,2.55 2.64336,-2.44746 4.4,1.85 0.22852,-0.34961 0.4,-0.75 0.14902,-0.79277 0.05,-1.85 -0.5,-5.15 -4.2,-1.8 m 4.5,-15.75 q -0.0168,-0.0305 -0.05,-0.05 0.37402,0.93008 0.7,1.8 3.43125,9.5373 1.6,16.2 0.90371,0.18496 1.75,0.35 l 0.05,0 q 0.36348,0.0922 0.7,0.15 1.61543,-1.8209 2.05,-5.85 -0.0906,-8.6041 -6.8,-12.6 m 121.1,-15.55 q -0.3625,0.17773 -0.75,0.4 -3.46133,2.11035 -2.7,3.5 l 0,0.05 q 1.88418,2.60254 5.8,1.35 1.6082,-0.52285 3.35,-0.8 -3.4416,-1.20508 -5.6,-4.6 -0.0315,0.0656 -0.1,0.1 m 21.9,12.05 q -0.0647,-0.19004 -0.05,-0.45 0.15449,-1.98555 -1.25,-3.2 l 0,0 q -1.79199,-1.3998 -6.2,-1.95 -0.24316,-0.0404 -0.45,-0.2 -0.30762,0.15664 -0.65,0.05 -0.0582,0.007 -0.1,0 -0.0371,0.002 -0.1,0 -0.47207,-0.0397 -0.95,-0.05 5.91094,3.47266 3.75,11.1 -0.90723,3.13223 -2.8,5.5 0.25996,-0.19199 0.5,-0.4 l -0.05,0.05 q 0.2959,-0.19785 0.6,-0.4 0.3207,-0.2252 0.65,-0.5 2.0875,-1.54863 3.55,-3.15 l 0,0 q 2.65898,-2.90879 3.35,-6 0.0734,-0.20781 0.2,-0.4 m -61.5,33.45 q -0.12383,0.15391 -0.3,0.25 l 0,0.05 q -3.78926,2.97461 -8.3,5.45 5.71875,-0.81758 12.1,-3.85 -1.84219,-0.91406 -3.5,-1.9 m -6.15,-4.45 q -0.17852,0.0977 -0.4,0.15 -2.22715,0.94805 -4.7,1.85 3.12734,-0.13828 6.3,-0.95 -0.61113,-0.49766 -1.2,-1.05 m 16.75,-8.45 q -1.36699,0.9373 -2.95,1.85 7.31289,3.11543 15,0.8 5.3832,-1.62832 9.3,-5.25 -11.63594,4.6998 -21.35,2.6 m -2.6,-36.3 -0.05,0 q -3.91973,3.29258 -6.55,6.9 -0.6959,0.94609 -1.3,1.9 -0.0104,0.15313 -0.1,0.3 -0.95566,1.47617 -1.65,3 l 0,0 q -1.65703,3.71582 -1.8,7.05 l 0,0 q -0.19277,2.85156 0.75,5.4 l 0.05,0 q 0.41133,1.22285 1.1,2.35 l 0,0.05 q 0.43691,0.7334 1,1.4 0.0648,0.0924 0.1,0.15 0.05,0.0615 0.05,0.1 0.1793,0.21055 0.35,0.4 4.90078,3.85742 10.5,5.25 0.12383,-0.004 0.2,0 l 0.05,0 q 9.43105,2.16055 20.85,-2.5 -6.68613,1.63066 -12.35,1 -8.2,-0.8584 -13.1,-4.5 0.51504,0.2002 1.05,0.3 3.25,0.6 5.3,-1.6 2,-2.15 1.4,-5.15 -0.55,-2.95 -3.45,-3.7 -3.05,-0.8 -4.6,1.9 -1.5,2.5 1.75,4.4 1,0.55 1.85,0.25 -2.5,-1.5 -1.3,-3.4 4.2,0.7 2.8,3.85 -1.05,2.25 -3.7,1.75 -2.29531,-0.425 -4.4,-1.8 l -0.2,0.3 -0.4,-0.7 q -0.0193,0.0504 -0.1,-0.1 0.0404,0.0547 0.05,0.05 -4.3252,-6.9584 1.95,-17.15 3.70469,-6.01641 6.4,-9.4 -1.29473,0.97461 -2.5,1.95 m -141.2,57.15 q -1.82988,-0.88867 -3.55,-1.95 l -7.9,4.75 q 5.9332,-0.49844 11.45,-2.8 m 11.2,4.3 q -1.27578,-0.3375 -2.55,-0.75 -0.005,0.0523 -0.05,0.1 -0.8834,2.05898 -1.95,4 2.53926,-1.58008 4.55,-3.35 m -52.5,-92.45 -0.05,0 q 2.8166,18.33125 -6.7,24.45 l 0.05,0 q -9.4082,7.39863 -26.55,-5.15 1.56309,3.35117 4.5,6.05 3.45,3.2 8,4.55 3.36016,1.03398 7.4,1.1 0.71035,-0.80039 1.95,-1.05 0.60508,-0.10918 1.2,-0.1 0.0537,0 0.1,0 1.20859,0 2.2,0.5 0.23789,0.076 0.45,0.15 0.7709,-0.16172 1.5,-0.45 2.22871,-4.77773 7.3,-6.2 0.82617,-1.60059 2.2,-4.8 1.41484,-3.1998 1.1,-8 -0.25801,-4.75 -2.1,-7.95 -1.24414,-2.18594 -2.55,-3.1 m 67.05,59.6 q 0.0168,0.0613 0,0.1 l 0.45,2.85 q 0.0478,0.13086 0.05,0.25 l 0,0.2 q -0.90195,8.85859 -5.6,11.3 7.5123,-0.42168 8.1,-8.65 0.54277,-7.89043 -6.85,-11.95 2.92051,2.87754 3.85,5.9 m -13.6,-9.45 0.1,6.1 2.85,3.35 q 0.18301,0.15371 0.35,0.3 1.05,0.65 2.15,1.2 2.44043,1.2375 5.15,1.6 0.6959,-0.23867 1.4,-0.5 l -0.3,-2 q -1.6125,-4.71484 -3.95,-6.45 -2.01875,-1.50137 -2.15,-1.85 -0.0613,0.72891 -0.1,0.45 -0.0373,-0.25352 0.05,-0.5 l -5.55,-1.7 m -12.9,26.85 q 0.33574,-1.06055 1.35,-1.9 l -6.55,0 q 2.4707,1.18281 5.2,1.9 m -16.35,-66.6 -0.25,0 q 1.10723,1.78789 2,3.55 0.0479,0.0701 0.05,0.1 2.97793,5.86992 4.05,11.7 0.0435,0.12637 0.05,0.2 0.35469,1.96328 0.5,3.9 0.55098,-1.68516 0.65,-3.45 -0.004,-0.12813 0,-0.25 0.13535,-5.36113 -3.95,-11.6 -0.0254,-0.0498 -0.1,-0.15 -1.27715,-1.94785 -3,-4 m -10.2,-1.45 -0.2,0.05 q 3.18223,6.00293 4.3,11.95 0.47246,2.43594 0.6,4.85 0.7332,-2.05098 0.75,-4.2 0.0488,-5.95898 -5.45,-12.65 m 77.55,62.6 0,0 q -5.25,0.45 -5.5,-3.55 -0.2,-3.25 2.25,-6.3 -4.05,0.9 -4.45,5.6 -0.35,4.8 4.45,5.05 2.16406,0.11152 3.25,-0.8 m -12.95,-29.9 q 0.0957,0.0135 0.2,0 -0.0309,-0.0289 -0.05,-0.05 -0.0795,0.0389 -0.15,0.05 m -163.25,5.35 q -2.31797,0.88906 -2.9,2.15 8.23945,-2.81777 16.45,1.45 l 0,0 0,0 q 1.9543,0.91641 1.6,3.5 -0.16309,1.41504 -0.85,2.45 1.34492,-0.97109 2.1,-2.55 1.85,-3.95 -1.7,-6.4 -3.35,-2.3 -7.45,-2.15 -3.75,0.15 -7.25,1.55 m -36.15,-2.15 q -0.32539,-0.0545 -0.65,-0.15 -2.2332,0.7623 -2.25,2.25 l 0,0.05 q 0.092,2.06855 0.85,3.6 l -0.1,-0.1 1.85,2.75 q 1.13457,1.17109 2.55,1.55 l 4.75,1.9 q -0.25801,0.19707 -0.6,0.2 -1.09844,3.9e-4 -2.15,0.05 l -0.05,0 q -0.25449,0.0291 -0.5,0 -2.15879,2.58047 -1.15,5.25 2.61387,0.63848 6.15,1 l 0.05,0 q 11.06504,1.0377 31.15,-0.8 l 0.1,0 q 2.7334,-0.30332 5.65,-0.6 l 0,0 q 3.25117,-0.35156 6.7,-0.75 2.675,-0.35 5.4,-0.7 l 0.05,0 q 5.43066,-0.70273 11.35,-1.55 l 0,0 q 2.54492,-0.30137 4.95,-0.7 l 2.8,-7.6 q 0.1293,-0.34258 0.45,-0.55 0.31641,-0.14883 0.65,-0.1 0.38789,0.0799 0.6,0.35 l 5.05,6 q 6.19395,-1.47813 11,-3.5 l 0,-11.05 q -0.004,-0.40684 0.25,-0.7 0.31387,-0.28926 0.7,-0.3 0.42754,-0.0178 0.7,0.25 l 7.4,6.75 q 7.90742,-6.34922 6.85,-15.8 -0.37246,-10e-4 -0.75,0.05 -2.07793,0.51309 -3.85,3.25 -0.0902,0.13027 -0.2,0.2 l 0,0.05 q -0.18438,0.3752 -0.35,2.15 -0.15098,2.21836 -3.8,5.95 -2.55,-2.8 -6.2,-6.45 -1.89551,6.48477 -4.4,13.15 -4.5291,2.39316 -8.8,3.45 -1.80723,-4.27227 -4.8,-7.55 -2.29336,4.53672 -4.8,9.95 -6.00352,1.75 -11.7,2.4 -6.25391,0.69004 -12.35,-0.2 -0.74531,0.39844 -1.7,0.6 -1.43242,0.35313 -3.4,0.3 -0.23008,-0.0111 -0.45,-0.15 -0.0961,0.0576 -0.25,0.1 l -0.05,0 q -6.61836,1.64375 -11.9,2.05 -7.8,0.6 -15.8,0.7 -3.95,0.05 -7.75,0.05 -0.62754,-2.02637 0.45,-4.6 l -0.2,0.35 q 0.42988,-0.81621 0.55,-1.05 0.27324,-0.47227 0.6,-1 -0.8,-1.1 -2.75,-1.6 -3.7,-1.05 -6.1,-4.4 -2.18203,-3.00547 0.2,-4.75 M 675.3,632.5 q 0.8459,0.63867 1.65,1.3 4.36133,3.73652 8.25,9.55 -0.86855,-5.47871 -6.8,-9.35 -1.05918,-0.6793 -2.3,-1.35 -0.84492,-0.43047 -1.8,-0.85 0.53164,0.34824 1,0.7 m -15.55,-3.1 -1.05,0 q -0.33223,-10e-4 -0.6,-0.2 l -0.35,-0.25 q -5.82285,-1.32363 -11.6,-2.85 -1.31836,-1.13477 -2.95,-2.2 l -0.05,0 q 1.01797,0.95781 1.9,1.95 -5.79766,-1.54004 -11.55,-3.25 -1.12832,-0.42715 -2.25,-0.85 l -1.05,0.4 q -0.15664,0.0977 -0.35,0.1 l -0.15,0.05 q -0.26406,0.002 -0.5,-0.15 l -4.35,-2.45 -4.25,0 q 0.0605,0.0125 0.1,0 4.43242,5.23438 6.65,11 -4.26387,-1.49844 -8.35,-2.8 -2.66816,-6.39316 -8.6,-11.25 4.1084,1.14844 8.4,2.45 l -1.1,-2.05 q -3.74727,-1.1627 -7.4,-2.2 l -3.85,0 q -0.31445,0.005 -0.6,-0.2 l -2.3,-1.6 q -5.18223,-1.31719 -10.1,-2.3 -0.41582,-0.24805 -0.85,-0.55 l -0.25,0.15 q 0.13867,0.14648 0.25,0.25 -0.25352,-0.0229 -0.5,-0.1 -0.17031,0.0969 -0.35,0.1 l -0.15,0.05 q -0.35117,3.9e-4 -0.65,-0.25 l -0.15,-0.1 q -4.45488,-0.79238 -8.7,-1.3 -1.57461,-1.4502 -3.4,-2.85 1.18105,1.36152 2.25,2.75 -3.4959,-0.37266 -6.85,-0.55 -2.1291,-0.073 -4.35,-0.1 -2.05039,-2.72422 -4.5,-5.45 l -0.1,0 q 1.85273,2.70859 3.5,5.45 -6.3291,-0.0102 -13.15,0.6 -2.38789,-2.57754 -5.05,-4.95 l -0.05,0.05 q 1.97891,2.49121 3.8,5 -6.60781,0.65918 -13.7,1.85 -2.18223,-2.19707 -4.6,-4.35 l -0.05,0.05 q -0.0145,0.0394 -0.05,0.05 1.89023,2.21797 3.7,4.45 -6.81289,1.21328 -14.05,2.95 -2.26055,-1.80371 -4.75,-3.55 2.10703,1.83145 4.05,3.7 -3.92578,0.98105 -8,2.1 -3.46738,0.95488 -6.45,1.75 -2.61563,-1.63027 -5.5,-3.25 l -0.05,0.05 q 2.39434,1.70449 4.6,3.45 -6.54316,1.83652 -10.7,2.95 -2.44648,-1.61309 -5.15,-3.2 l -0.05,0.05 q 2.28398,1.67227 4.4,3.4 -5.79785,1.60664 -6.3,1.75 -3.16953,0.79512 -6.2,1.45 -1.66152,-0.95156 -3.5,-1.9 l 0,0.05 q 1.41348,0.9998 2.8,2.05 -9.19844,2.01406 -16.75,2.85 -1.13691,-0.59492 -2.35,-1.2 0.96855,0.62578 1.9,1.25 -0.36934,0.0609 -0.75,0.1 -5.03516,0.50723 -9.95,0.5 -1.0332,-0.50977 -2.15,-1.05 l -0.15,0.1 q 0.71562,0.48438 1.4,0.95 -4.27363,-10e-4 -8.45,-0.4 -1.29395,-1.0623 -2.75,-2.15 l -0.1,0.1 q 1.03926,0.97715 2,1.95 -4.59785,-0.46211 -9.1,-1.4 -1.55078,-1.73613 -3.45,-3.5 l -0.3,0 q 1.29082,1.57559 2.45,3.2 0.29785,0.44805 0.6,0.85 3.4834,5.17188 5.9,10.95 0.25137,0.62891 0.5,1.25 0.99863,2.5582 1.8,5.25 0.25684,-2.42207 -0.2,-4.9 6.23086,1.3166 11.8,1.5 1.6457,2.87637 2.9,5.8 0.23613,-0.0305 0.45,-0.05 -0.23262,-2.81504 -1.5,-5.7 3.05781,0.0342 5.9,-0.3 2.2582,-0.26504 4.35,-0.55 2.50527,3.12441 4.5,6.5 -0.0721,-3.48418 -2.1,-6.8 5.41035,-0.67734 9.7,-1.35 3.98477,3.93203 7.4,8.3 0.1918,0 0.35,0 l 0,0 q -2.14219,-4.5207 -6.05,-8.6 5.65273,-0.92676 9.1,-1.85 1.90996,-0.46504 4.9,-1.25 3.84902,3.90508 7.3,8.2 -4.55547,1.27305 -5,1.4 -1.17637,0.29512 -2.35,0.55 l -5.5,1.3 2.7,1.55 5.2,-1.25 q 2.51875,-0.64414 6.45,-1.65 1.98926,2.55 3.85,5.25 -1.00254,-2.89063 -2.5,-5.6 4.29062,-1.09141 10,-2.55 3.15605,4.96914 5.4,10.25 -1.02832,-5.57168 -3.65,-10.7 4.90508,-1.26406 10.8,-2.8 4.72031,6.79707 8.15,14.3 -1.36152,-7.86133 -5.65,-14.9 0.95156,-0.25156 1.9,-0.5 4.26348,-1.08145 8.4,-1.95 4.41484,7.78477 7.05,16.3 -1.13594,-8.78379 -5.15,-16.7 5.65117,-1.13457 11.15,-1.9 4.21367,7.44805 7.6,15.3 -2.00371,-8.11484 -5.65,-15.55 5.80605,-0.74004 11.45,-1.05 3.07695,6.2457 5.5,12.7 0.0887,-0.084 0.15,-0.2 -1.59609,-6.61348 -4,-12.6 4.71289,-0.18984 9.25,-0.1 0.87773,2.89902 1.55,5.85 0.12754,-0.0957 0.25,-0.2 -0.0273,-2.80371 -0.45,-5.65 2.75957,0.11074 5.45,0.3 3.62734,0.25117 7.45,0.75 0.72598,2.54746 1.25,5.15 0.0588,-2.56367 -0.2,-5 5.43184,0.74531 11.25,1.95 0.26074,1.1623 0.45,2.3 -0.024,-1.11836 -0.1,-2.2 7.70859,1.63965 16.15,4.1 -0.59941,-0.64023 -1.2,-1.1 -0.0123,-0.50039 -0.05,-1 -0.20996,-4.06582 -1.4,-7.7 4.06777,1.27402 8.25,2.7 1.04688,3.24414 1.4,6.65 0.71582,-3.13223 0.35,-6.05 4.40234,1.52812 8.95,3.25 0.47773,1.78398 0.7,3.55 0.35762,-1.61719 0.35,-3.2 6.02988,1.73477 12.5,3.2 0.0906,0.50684 0.15,1 0.0355,-0.47207 0.05,-0.95 3.29863,0.77637 6.7,1.45 2.4416,0.19707 4.8,0.35 l 0,0 q 0.13203,-0.43164 0.2,-0.9 0.79688,-4.7748 -2.85,-9.6 3.0709,0.60254 6.25,1.1 4.11445,5.06543 6.2,10.1 -0.24961,-5.28906 -4.6,-9.8 -0.78008,-0.83809 -1.75,-1.65 -1.14277,-0.99336 -2.55,-1.95 l -0.2,0.1 q 0.78301,0.79609 1.5,1.6 -3.18027,-0.64922 -6.35,-1.35 m -11.25,-0.9 q 5.62422,1.38555 11.6,2.55 2.50156,4.86914 3.6,9.75 -5.68164,-1.21973 -11.35,-2.6 -0.32793,-5.40352 -3.85,-9.7 m -188.4,1.7 q 1.53652,-0.0779 3,-0.25 3.39277,-0.39824 6.4,-0.8 5.12734,3.65254 9.55,7.8 -4.7877,0.90352 -9.1,1.4 -3.2377,-4.22148 -9.85,-8.15 m -11.95,-0.7 q 4.1709,4.64453 7.25,9.6 -5.5498,-0.12969 -10.95,-0.9 -1.40527,-5.2668 -6.1,-10.8 5.11523,1.42051 9.8,2.1 m 1.35,0.2 q 4.70039,0.64258 8.95,0.55 5.00469,3.89785 8.9,8.4 -5.02461,0.48398 -9.95,0.45 -2.59102,-4.61309 -7.9,-9.4 m 31.3,6.9 q -4.31484,-3.99844 -10.45,-7.55 10.28789,-1.33906 16.4,-2.6 4.14941,3.27207 7.95,6.95 -1.68926,0.47559 -1.95,0.55 -6.31836,1.58516 -11.95,2.65 m 137.25,-7.3 q 1.79238,3.91777 2.85,8.15 -7.71641,-2.32266 -14.85,-3.95 -0.44141,-4.2252 -1.6,-7.85 6.55059,1.55117 13.6,3.65 M 638,625.75 q 4.38281,1.27676 9,2.4 3.58184,4.68965 4.85,9.9 -6.1541,-1.50762 -12.25,-3.25 -0.69883,-5.83633 -6.35,-10.8 2.35137,0.84199 4.75,1.75 m -3.3,7.65 q -2.65508,-1.00488 -5.25,-1.95 -1.4127,-6.31738 -8.05,-11.5 5.19316,1.65078 10.6,3.6 4.19629,5.41211 6.05,10.8 -1.67812,-0.45312 -3.35,-0.95 m -25.45,-17.05 q 4.78379,5.10781 7.8,10.95 -6.88633,-2.14375 -13.35,-3.75 -2.34043,-5.93906 -6.85,-10.1 6.00059,1.20293 12.4,2.9 m -30.35,-5.4 q 1.90176,0.13086 3.85,0.3 3.23809,4.52402 5.7,9.25 -6.21992,-0.94004 -11.95,-1.3 -2.03398,-4.26543 -5.05,-8.55 3.79375,0.0434 7.45,0.3 m 2.4,19 q -0.52891,-2e-4 -1.1,-0.05 -0.86387,-4.1377 -2.6,-8.3 1.26289,0.0621 2.5,0.15 4.5793,0.31777 9.45,1 1.96152,4.09258 3.3,8.3 -5.99277,-0.82207 -11.55,-1.1 m -5.85,-8.45 q 1.78223,4.12676 3.15,8.35 -4.61074,-0.0793 -9.5,0.15 -1.90547,-4.43008 -4.25,-8.5 5.38809,-0.18262 10.6,0 m 25.75,1.45 q -5.17051,-1.17422 -10.05,-2 -2.45645,-5.05879 -6.55,-9.5 4.81035,0.59902 10,1.55 3.93789,4.93164 6.6,9.95 m -6.85,8.35 q -0.64336,-4.24805 -2.2,-8.15 4.91309,0.82422 10.15,2 1.93887,4.0666 3.05,8.2 -5.68242,-1.25625 -11,-2.05 m -24.3,-20.7 q 2.4252,4.20938 4.4,8.55 -5.32988,-0.20547 -11.05,0.05 -2.68164,-4.2877 -5.95,-8.1 6.43125,-0.50684 12.6,-0.5 M 526.7,616 q 0.1375,0.13789 0.25,0.25 3.36172,3.4252 6.3,7 -5.88398,1.25801 -12.05,2.85 -3.67168,-3.24863 -8.15,-6.3 5.98379,-1.52656 13.3,-3.4 l 0.35,-0.4 m 1.25,0 q 6.74043,-1.66309 13.25,-2.85 2.97227,3.79199 5.65,7.65 -5.7502,0.8541 -11.85,2.1 -3.15996,-3.55859 -7.05,-6.9 m 14.65,17.35 q -2.4125,-4.2707 -5.75,-8.3 5.8666,-1.20723 11.55,-2 2.7793,4.14941 5.3,8.45 -5.39395,0.7584 -11.1,1.85 m -15.05,-6.15 q 3.75645,-0.95195 7.4,-1.75 3.13477,4.05234 5.7,8.3 -5.1377,1.07832 -10.5,2.4 -2.83848,-4.0875 -6.7,-7.9 1.99922,-0.50742 4.1,-1.05 m 33.6,-7.9 q -5.90254,0.37871 -12.2,1.2 -2.9207,-3.87539 -6.4,-7.55 6.77676,-1.13691 13.3,-1.75 2.78789,4.03164 5.3,8.1 m -10.6,3.45 q 6.09121,-0.78926 12,-1.15 2.48613,4.22051 4.65,8.5 -5.52754,0.35 -11.45,1.1 -2.29531,-4.33633 -5.2,-8.45 M 488,626.2 q 1.29414,-0.29531 2.35,-0.6 3.19785,-0.8 9.55,-2.45 3.83926,3.33184 7.1,6.85 -6.54219,1.81387 -10.1,2.8 -3.9123,-3.50762 -8.9,-6.6 m 17.45,16.7 q -2.68633,-4.40781 -6.7,-8.35 4.20859,-1.05352 10.1,-2.55 3.50391,3.97578 6.35,8.2 -5.92012,1.64473 -9.75,2.7 m 18.5,-5.1 q -3.67715,1.0125 -6.85,1.85 -2.48672,-4.25566 -6.15,-8.2 4.54004,-1.16094 9.95,-2.55 3.56465,3.82598 6.6,7.95 -1.74883,0.45527 -3.55,0.95 m -5.1,-11.05 q -0.44063,0.12383 -0.9,0.25 -4.95254,1.36387 -8.95,2.45 -3.48359,-3.41953 -7.9,-6.6 4.57539,-1.15137 10.6,-2.7 3.79707,3.17617 7.15,6.6 m 202.75,12.65 -0.6,0.2 q -0.19375,0.11172 -0.45,0.1 -0.0643,-0.006 -0.15,-0.05 l 2.55,6 q 1.20703,-4.05684 -1.35,-6.25 m -15.5,-2.15 -0.55,0.1 4.1,7.6 q 0.99434,-3.84453 -3.55,-7.7 m -14.8,-1.7 q -0.30293,-0.29746 -0.65,-0.6 -0.67832,-0.52344 -1.45,-1.05 l -0.65,0.2 7.25,9.9 q -0.50547,-4.94121 -4.5,-8.45 z"
         id="path15071"
         inkscape:connector-curvature="0"
         style="fill:#4f4f00;stroke:none" />
      <path
         d="m 558.8,677.85 0.4,-0.05 q 2.21641,-10.85293 -4.25,-21.7 1.57539,11.26738 0.15,21.75 l 3.7,0 m -21.45,2.85 q 3.10195,-0.14434 4.3,-0.15 0.23613,-0.0238 0.45,-0.05 4.00723,-11.7375 -1.5,-23.2 2.28867,11.71094 -3.25,23.4 m -12,0.1 q 0.22598,0.003 0.4,0 5.12949,-12.4002 -0.1,-23.85 0.87852,11.86445 -4.65,24 3.96875,-0.15156 4.35,-0.15 l 0,0 m -17.15,-1.3 q 0.25547,0.0262 0.5,0.05 7.31992,-11.90586 -0.35,-24.6 3.31094,11.79609 -4.2,23.85 3.2543,0.5373 4.05,0.7 m 134.45,-33.1 q -0.25332,-0.92734 -0.65,-1.85 -0.65449,-1.43535 -1.7,-2.8 0.40684,1.20371 0.6,2.4 0.0397,0.0666 0.05,0.1 0.12344,0.79863 0.15,1.55 0.31191,4.55117 -2.15,9.05 1.07891,-0.16719 2.95,-0.45 0.2498,-0.0365 0.5,-0.1 1.25664,-4.23203 0.25,-7.9 m -74.35,12.55 q 0.066,-1.45488 0.4,-3 l -1.1,-3.3 q 0,11.96426 0,23.9 l 4.15,-0.6 -1.15,-7.85 q -0.0434,-0.10254 -0.1,-0.2 l 0,0 q -0.8041,-1.31113 -1.3,-2.7 l 0,-0.05 0,0.05 q -1.10273,-2.94043 -0.9,-6.2 l 0,-0.05 m -119.1,-4.7 q -0.35293,-1.92188 -0.9,-3.85 1.09766,12.28867 -3.9,24.55 0.76953,-0.0113 1.5,-0.05 l 0.05,0 q 1.1375,-0.10117 2.25,-0.2 0.20195,-0.0137 0.35,-0.05 1.2959,-4.83691 1.5,-9.7 l -0.85,-10.7 m -28.2,19.3 q 1.99453,0.27969 4,0.55 l 0,0 q 0.21465,0.0215 0.4,0.05 7.19082,-13.63027 4.55,-28.1 -0.12598,13.75469 -8.95,27.5 m -12.3,-27.7 q 0.0139,-0.0371 0,-0.1 -3.67559,8.55527 -9.4,17.05 -6.39727,9.48711 -19.35,15.85 -12.95293,6.4127 -27.6,6.45 -10.13926,0.0318 -19.6,-0.7 25.18477,5.50059 41.85,-0.15 3.2875,-1.4127 6.55,-2.95 l 0.05,-0.05 q 2.01211,-0.85117 3.95,-1.9 l 0.05,0 q 1.81289,-0.9252 3.6,-1.9 0.0504,-0.0117 0.05,-0.05 3.27207,-1.95352 6.35,-4.1 0.0561,0.004 0.1,-0.05 0.68477,-0.46758 1.35,-0.95 0.21582,-0.15332 0.4,-0.3 l -0.05,0.05 q 2.33398,-1.80352 4.35,-3.9 l 0.05,0 q 9.81113,-9.78066 7.3,-22.3 M 293.75,677.9 q 1.56348,-0.25977 4.9,0.05 0.0357,-0.002 0.05,0 l 1.2,0.1 0.05,0 q 2.88184,0.31035 6.95,1 4.00664,0.71953 9.1,1.7 0.13809,0.0119 0.25,0.05 0.11523,0.0125 0.2,0.05 l 3.7,0.75 q 2.6793,-0.43164 4.5,-1.9 1.65,-1.3 3.4,-2.35 0.85,-0.55 2.05,-0.05 4.25,1.7 8.7,1.4 3.65,-0.25 6.95,-2.35 2.9,-1.9 6.65,-2.1 4.3498,-0.2457 8.7,-1.35 4.40625,-1.11836 9.4,-2.3 4.98242,-1.12305 8.6,-2.6 3.66738,-1.43379 7.1,-4.4 3.49355,-2.95723 6.5,-6.85 3.10488,-3.95547 4.4,-10.45 1.33672,-6.47871 2.8,-9.45 1.46465,-2.98672 6.15,-4.6 -3.03906,-0.0803 -5.45,0.55 -5.07129,1.42227 -7.3,6.2 -0.21816,0.51504 -0.4,1 0.21797,0.16895 0.45,0.3 3.65859,2.44609 2.8,6.7 -0.0432,0.33652 -0.3,0.55 0.13496,-0.46562 -0.4,-2.3 -0.47988,-1.83301 -2.4,-3.2 -1.9209,-1.31797 -2,-0.7 0.86777,10.34395 -8.25,17.25 -0.0898,0.11328 -0.2,0.15 -3.35059,2.49766 -8.1,4.5 l -0.05,0 0,0.05 q -5.26973,2.24453 -12.2,3.9 -0.2123,0.0818 -0.45,0.1 -3.85352,0.87363 -8.25,1.6 -0.024,0.0178 -0.1,0 -0.0496,0.0445 -0.15,0.05 -2.61699,0.44609 -5.4,0.8 l -0.05,0 q -5.60977,0.80645 -10.8,1.45 l -2.55,6 q -0.14531,0.36953 -0.55,0.5 -0.33555,0.17617 -0.7,0 -0.37715,-0.11602 -0.55,-0.5 l -2.35,-5.15 q -2.84258,0.35352 -5.55,0.65 l -3,5.45 q -0.11152,0.22383 -0.35,0.35 -0.23301,0.14395 -0.5,0.15 l -1.1,0 q -0.33516,0.004 -0.6,-0.2 -0.27871,-0.21484 -0.4,-0.55 l -1.15,-4.5 q -18.53418,1.6832 -29.35,0.85 0.53906,1.97344 1.65,2.95 1.41562,1.13164 3.75,0.7 m 400.6,-31.4 q -0.0529,-0.20898 -0.15,-0.45 -0.47324,-1.00957 -1.15,-2.05 0.25117,0.98437 0.35,1.95 0.0203,0.2418 0,0.45 0.26426,4.02129 -2.15,8 1.53105,-0.14844 3,-0.4 l 0,0 q 0.26152,-0.04 0.5,-0.1 1.14473,-3.68555 -0.4,-7.4 m 10.1,0.85 0,-0.05 q -0.29492,-1.34141 -1,-2.7 -0.11875,1.27949 -0.45,2.55 -0.0148,0.0557 -0.05,0.1 -0.76758,2.87441 -2.65,5.7 1.04746,-0.17129 2.1,-0.4 l 0,0 q 0.6373,-0.0875 1.3,-0.2 l -0.05,0 q 0.29668,-0.0268 0.55,-0.1 0.79883,-2.43047 0.25,-4.9 m 9.75,3.85 q 0.71328,0 1.4,0 l -2.1,-5.95 0,5.95 q 0.35,-0.004 0.7,0 m 11,-5.45 0,0 0,5.8 q 0.0502,-0.005 0.1,0 1.6543,0.1668 3.3,0.25 l -3.4,-6.05 m -73.45,1.55 q -0.23281,0.85352 -0.6,1.7 -1.04355,2.46797 -2.95,4.8 0.68691,-0.034 1.2,0 l 0,0 q 1.5125,0.0992 3,0.2 l 0,0 q 0.20645,0.0113 0.4,0 0.9082,-2.13301 1.15,-4.3 0.14863,-0.89492 0.15,-1.8 -0.0178,-3.49395 -1.75,-7 0.35039,3.31113 -0.6,6.4 m 34.4,-1.7 q -0.13008,-0.3459 -0.3,-0.75 -0.26738,-0.73848 -0.65,-1.5 0.0613,0.71602 0.05,1.4 -0.003,0.40176 -0.05,0.75 -0.22129,4.30762 -2.9,8.55 -0.28359,0.51777 -0.65,1 -0.0246,0.0736 -0.1,0.15 1.81719,-0.0172 3.55,-0.1 l 0.05,0 q 0.26309,-0.0215 0.5,-0.05 0.10215,-0.1709 0.15,-0.35 1.80254,-4.53418 0.35,-9.1 m -12.25,-2.8 q -0.0625,-0.11562 -0.15,-0.25 0.0377,0.13066 0.05,0.25 0.19238,0.61777 0.3,1.2 0.81582,4.21582 -0.6,8.4 -0.22363,0.63887 -0.5,1.25 -0.31133,0.75332 -0.7,1.45 1.05605,0.0119 3.05,0.05 l 0,0 q 0.23672,0 0.45,0 0.18477,-0.47168 0.3,-0.95 0.21445,-0.60723 0.3,-1.25 0.80664,-4.19375 -1.75,-8.85 -0.31445,-0.62695 -0.75,-1.3 m -9.65,-0.4 q -0.14434,-0.27305 -0.3,-0.55 0.0357,0.25352 0.05,0.5 0.41426,3.87344 -1.4,7.65 -0.36367,0.75703 -0.85,1.5 -0.88477,1.53789 -2.15,3.05 0.45625,0.0436 0.9,0.1 l -0.1,0 0.55,0.05 q 0.0471,-0.002 0.1,0 2.06719,0.19883 2.95,0.25 l 0,0 q 0.24082,0.0158 0.45,0 0.66445,-1.32461 1,-2.7 0.23711,-0.73984 0.35,-1.5 0.60879,-4.17754 -1.55,-8.35 m 72.75,9.3 0,0 q 1.79316,-0.13613 3.5,-0.3 l -2.35,-5.2 q 0.52871,3.05059 -1.25,5.5 0.0613,0.004 0.1,0 z"
         id="path15073"
         inkscape:connector-curvature="0"
         style="fill:#989701;stroke:none" />
      <path
         d="m 517.15,651.85 q 2.45703,0.45684 4.85,0.75 -2.24395,-5.28086 -5.4,-10.25 -5.70938,1.45859 -10,2.55 1.49746,2.70937 2.5,5.6 3.7041,0.61211 8.05,1.35 m -12.4,-37.1 -0.35,0.25 q -0.18965,0.17559 -0.45,0.2 -0.26035,0.0295 -0.5,-0.1 l -5.15,-2.3 -4.8,5.15 q 2.70352,1.58691 5.15,3.2 4.15684,-1.11348 10.7,-2.95 -2.20566,-1.74551 -4.6,-3.45 m 28.8,23.25 q -0.94844,0.24844 -1.9,0.5 4.28848,7.03867 5.65,14.9 -3.42969,-7.50293 -8.15,-14.3 -5.89492,1.53594 -10.8,2.8 2.62168,5.12832 3.65,10.7 7.85176,1.04297 15.3,0.85 l 0.05,0 q 5.94023,-0.16133 11.65,-1.1 -2.63516,-8.51523 -7.05,-16.3 -4.13652,0.86855 -8.4,1.95 m 2.25,-31.45 q -0.28125,0.25176 -0.65,0.25 l -0.05,0 q -0.2668,0.006 -0.5,-0.15 l -7.05,-4.1 -7.15,7.8 q -0.15957,0.24082 -0.45,0.3 -0.24883,0.0916 -0.55,0 l -6.3,-1.8 -8.3,5.85 q 2.88437,1.61973 5.5,3.25 2.98262,-0.79512 6.45,-1.75 4.07422,-1.11895 8,-2.1 -1.94297,-1.86855 -4.05,-3.7 2.48945,1.74629 4.75,3.55 7.23711,-1.73672 14.05,-2.95 -1.80977,-2.23203 -3.7,-4.45 m 13.95,-2.3 q -0.23516,0.0164 -0.5,-0.1 l -7.7,-3.6 -5.65,5.9 q 2.41777,2.15293 4.6,4.35 7.09219,-1.19082 13.7,-1.85 -1.82109,-2.50879 -3.8,-5 l -0.15,0.1 q -0.21699,0.17598 -0.5,0.2 m 14.75,-1.3 q -0.28262,-3.9e-4 -0.55,-0.15 l -6.2,-3.85 -7.3,4.95 q 2.66211,2.37246 5.05,4.95 6.8209,-0.61016 13.15,-0.6 -1.64727,-2.74141 -3.5,-5.45 l -0.4,0.1 q -0.0871,0.0506 -0.2,0.05 l -0.05,0 m 9.05,42.7 q 0.1875,-0.25664 0.35,-0.5 -2.42305,-6.4543 -5.5,-12.7 -5.64395,0.30996 -11.45,1.05 3.64629,7.43516 5.65,15.55 -3.38633,-7.85195 -7.6,-15.3 -5.49883,0.76543 -11.15,1.9 4.01406,7.91621 5.15,16.7 5.7543,-0.93027 11.25,-2.65 0.69531,-0.20898 2.35,-0.65 2.8627,-0.70742 8.55,-2.05 l -0.3,-0.3 q 1.35059,-0.27305 2.25,-0.4 0.2123,-0.31992 0.45,-0.65 m 12.55,-13.1 q -2.69043,-0.18926 -5.45,-0.3 0.42266,2.84629 0.45,5.65 5.40879,-2.54492 6.8,-2.35 -1.90137,1.21309 -3.65,2.45 -2.69531,3.38359 -6.4,9.4 -6.2752,10.1916 -1.95,17.15 l 0.05,0.05 q 0.30117,0.21348 0.6,0.4 2.10469,1.375 4.4,1.8 2.65,0.5 3.7,-1.75 1.4,-3.15 -2.8,-3.85 -1.2,1.9 1.3,3.4 -0.85,0.3 -1.85,-0.25 -3.25,-1.9 -1.75,-4.4 1.55,-2.7 4.6,-1.9 2.9,0.75 3.45,3.7 0.6,3 -1.4,5.15 -2.05,2.2 -5.3,1.6 -0.53496,-0.0998 -1.05,-0.3 4.9,3.6416 13.1,4.5 5.66387,0.63066 12.35,-1 0.95391,-0.3752 1.9,-0.8 l -0.05,0 q 1.65039,-0.73867 3.3,-1.65 l 0,0 q 0.2252,-0.10312 0.45,-0.25 -1.21738,2.17031 -5.15,4.7 l -0.05,-0.05 q -3.9168,3.62168 -9.3,5.25 -7.68711,2.31543 -15,-0.8 -0.29238,0.21738 -0.6,0.4 l 0,0 q -3.43301,1.9375 -7.8,3.9 -2.52461,1.18203 -5.4,2.3 0.58887,0.55234 1.2,1.05 0.36523,-0.0766 0.7,-0.2 4.57695,-1.23965 9.3,-3.8 0.3459,-0.15 0.7,-0.1 0.36602,0.10566 0.6,0.4 0.22051,0.28789 0.2,0.65 -0.0217,0.35996 -0.3,0.6 -2.84297,3.14004 -6.25,5.85 1.65781,0.98594 3.5,1.9 0.38164,-0.16953 0.75,-0.35 5.72812,-2.81152 12.05,-7.4 0.30469,-0.21836 0.65,-0.2 0.38574,0.0246 0.65,0.25 0.26016,0.2709 0.3,0.6 0.0453,0.38848 -0.15,0.7 -2.9502,4.50898 -7.75,9.05 1.67695,0.59258 3.35,1.05 0.53184,-0.21719 1,-0.5 5.69805,-3.05117 10.6,-9.4 6.16348,-7.88672 20.65,-14.4 l -0.05,0 q 0.70195,-0.33848 1.85,-0.95 l -0.05,0 q 1.13398,-0.58633 1.95,-0.95 0.0248,-0.0139 0.05,-0.05 0.47246,-0.20664 0.8,-0.3 1.2332,-0.81113 2.55,-1.7 1.89277,-2.36777 2.8,-5.5 2.16094,-7.62734 -3.75,-11.1 -0.67578,-0.004 -1.35,0.05 -0.37324,0.0373 -0.7,-0.2 -0.14219,0.048 -0.35,0.05 -3.6748,0.0471 -6.8,1.05 -5.48516,1.74785 -8.05,-2.15 l 0,0 0,0 q -1.25195,-3.30117 2.35,-4.5 3.60254,-1.20254 3.2,-1.05 -0.0947,0.26855 -0.35,0.4 2.1584,3.39492 5.6,4.6 1.93105,-0.32227 4,-0.35 0.39883,-0.008 0.65,0.2 0.16738,-0.0371 0.3,-0.05 1.2625,-0.10371 2.55,0 0.0367,-9.8e-4 0.05,0 0.25645,0.005 0.55,0.05 0.18535,0.077 0.3,0.15 l 0.05,0 q -2.6709,-5.87285 -5.15,-8.55 -8.44141,-2.46035 -16.15,-4.1 0.076,1.08164 0.1,2.2 -0.18926,-1.1377 -0.45,-2.3 -5.81816,-1.20469 -11.25,-1.95 0.25879,2.43633 0.2,5 -0.52402,-2.60254 -1.25,-5.15 -3.82266,-0.49883 -7.45,-0.75 m -5.25,5.55 q -0.67227,-2.95098 -1.55,-5.85 -4.53711,-0.0898 -9.25,0.1 2.40391,5.98652 4,12.6 2.64297,-3.40117 6.4,-6.55 0.21484,-0.13223 0.4,-0.3 m -2.15,-31.95 -1.3,0 q -0.25254,-5.9e-4 -0.5,-0.15 -0.20566,-0.1041 -0.35,-0.35 l -3.1,-4.8 -8.2,1.95 q 2.44961,2.72578 4.5,5.45 2.2209,0.027 4.35,0.1 3.3541,0.17734 6.85,0.55 -1.06895,-1.38848 -2.25,-2.75 m 7.1,0 -7.1,0 q 1.82539,1.3998 3.4,2.85 4.24512,0.50762 8.7,1.3 l -5,-4.15 m 10.6,1.8 -3.8,2.25 q 0.43418,0.30195 0.85,0.55 4.91777,0.98281 10.1,2.3 l -7.15,-5.1 m -3.8,2.65 q -0.11133,-0.10352 -0.25,-0.25 l -0.1,0.1 q -0.0764,0.0477 -0.15,0.05 0.24648,0.0771 0.5,0.1 m 37.1,22.5 q 0.36582,2.91777 -0.35,6.05 5.06777,0.38789 10,0.75 -0.22227,-1.76602 -0.7,-3.55 -4.54766,-1.72188 -8.95,-3.25 m 15.35,-7.25 q -0.88203,-0.99219 -1.9,-1.95 l -1.55,0 q -0.33242,0.003 -0.6,-0.2 l -5,-3.85 -4.75,1.9 q 1.12168,0.42285 2.25,0.85 5.75234,1.70996 11.55,3.25 m -23.9,12.65 q 2.12852,0.16641 4.2,0.3 2.02734,0.19141 4,0.35 -0.35312,-3.40586 -1.4,-6.65 -4.18223,-1.42598 -8.25,-2.7 1.19004,3.63418 1.4,7.7 0.0377,0.49961 0.05,1 m -2.35,-19.35 0,-0.05 q -4.2916,-1.30156 -8.4,-2.45 5.93184,4.85684 8.6,11.25 4.08613,1.30156 8.35,2.8 -2.21758,-5.76562 -6.65,-11 -0.0395,0.0125 -0.1,0 l -0.9,0 q -0.28223,-0.003 -0.55,-0.15 -0.2041,-0.1377 -0.35,-0.4 m -8.5,-4.3 q 3.65273,1.0373 7.4,2.2 l -1.2,-2.2 -6.2,0 M 393.3,639 q -0.7291,0.28828 -1.5,0.45 0.54121,0.24668 1.1,0.55 0.18184,-0.48496 0.4,-1 m 50.5,-12.85 q -0.41953,-0.0314 -0.7,-0.35 l -2.6,-2.9 -6.5,0 q 1.89922,1.76387 3.45,3.5 4.50215,0.93789 9.1,1.4 -0.96074,-0.97285 -2,-1.95 l -0.05,0.05 q -0.28691,0.27715 -0.7,0.25 m -7.05,0.8 q -0.30215,-0.40195 -0.6,-0.85 -1.15918,-1.62441 -2.45,-3.2 l -0.8,0 q -0.41074,-0.004 -0.7,-0.3 l -3.25,-3.25 -5.5,0 q 1.72285,2.05215 3,4 0.0746,0.1002 0.1,0.15 4.08535,6.23887 3.95,11.6 -0.004,0.12187 0,0.25 -0.099,1.76484 -0.65,3.45 9.44883,3.74609 15.1,5.6 -0.80137,-2.6918 -1.8,-5.25 -0.24863,-0.62109 -0.5,-1.25 -2.4166,-5.77812 -5.9,-10.95 m -17.95,-11.3 -5.55,2.25 q 5.49883,6.69102 5.45,12.65 -0.0168,2.14902 -0.75,4.2 6.4873,2.27793 8.4,3 2.75449,1.04023 3.5,1.05 -0.14531,-1.93672 -0.5,-3.9 -0.006,-0.0736 -0.05,-0.2 -1.07207,-5.83008 -4.05,-11.7 -0.002,-0.0299 -0.05,-0.1 -0.89277,-1.76211 -2,-3.55 l -0.6,0 q -0.20859,0.004 -0.4,-0.1 -0.18613,-0.0648 -0.35,-0.25 l -3.05,-3.35 m -5.75,2.3 -0.1,0.05 q -0.32383,0.16758 -0.7,0.05 -0.33047,-0.125 -0.55,-0.45 l -3.25,-5.65 -4.25,0 q -0.20859,0.004 -0.4,-0.1 -0.18613,-0.0648 -0.35,-0.25 l -3,-3.3 -1.2,0.65 q 1.30586,0.91406 2.55,3.1 1.84199,3.2 2.1,7.95 0.31484,4.8002 -1.1,8 -1.37383,3.19941 -2.2,4.8 2.41094,-0.63027 5.45,-0.55 0.23105,0.0369 0.45,0.05 1.39883,0.074 2.9,0.3 0.36543,0.0537 0.75,0.1 3.54648,0.61699 7.8,2.05 -0.12754,-2.41406 -0.6,-4.85 -1.11777,-5.94707 -4.3,-11.95 m 68.8,4.75 q 1.83848,0.94844 3.5,1.9 3.03047,-0.65488 6.2,-1.45 0.50215,-0.14336 6.3,-1.75 -2.11602,-1.72773 -4.4,-3.4 l -0.15,0.15 q -0.11445,0.14609 -0.3,0.2 -0.19258,0.10332 -0.4,0.1 l -4.25,0 q -0.34648,0.005 -0.65,-0.2 -0.29043,-0.17188 -1.5,-0.4 l -4.35,4.85 m -17.55,18.05 q -2.84219,0.33418 -5.9,0.3 1.26738,2.88496 1.5,5.7 -0.21387,0.0195 -0.45,0.05 -1.2543,-2.92363 -2.9,-5.8 -5.56914,-0.1834 -11.8,-1.5 0.45684,2.47793 0.2,4.9 6.39707,2.10586 10.2,2.95 l 2.8,0.55 q -3.55,3.8 -4.65,8.45 -0.3,1.35 -0.6,2.75 l 5.55,1.7 q -0.0873,0.24648 -0.05,0.5 0.0387,0.27891 0.1,-0.45 3.9e-4,-0.009 1,0.2 1.04258,0.20254 3.15,1.6 7.39277,4.05957 6.85,11.95 -0.5877,8.22832 -8.1,8.65 -1.3248,0.7207 -3,0.9 -1.48828,0.20391 -3.3,-0.1 l -13.75,0 q -1.01426,0.83945 -1.35,1.9 0.0447,0.0107 0.1,0 l 0,0 q 3.31855,0.95078 7,1.15 0.3252,0.0172 0.55,0.2 0.28633,0.23301 0.35,0.55 0.10332,0.31895 -0.05,0.6 -0.0969,0.32891 -0.4,0.5 l -10.35,6.2 q 1.72012,1.06133 3.55,1.95 0.39863,-0.14844 0.8,-0.35 4.6959,-2.02734 9.05,-5.35 0.25625,-0.1918 0.55,-0.2 0.33828,-0.007 0.6,0.15 0.26348,0.20176 0.35,0.5 0.14727,0.29629 0.05,0.6 -1.08164,4.27617 -2.75,8.2 1.27422,0.4125 2.55,0.75 0.28086,-0.1834 0.5,-0.4 5.06621,-4.45801 6.95,-9.75 0.10215,-0.26582 0.35,-0.45 0.25898,-0.18594 0.55,-0.2 2.8,-0.0992 5.55,-0.15 l 0.05,0 q 3.71387,-0.25527 7.55,-0.8 l -0.1,0 q 2.2375,-0.475 4.45,-0.95 l -0.05,0 q 3.59746,-0.88867 7.05,-2.7 l 0,0 q 3.4377,-1.6918 5.7,-4.7 0.70156,-0.92812 1.2,-1.95 -1.75664,-4.29746 -4.4,-1.85 -0.8,-1.25 0.65,-2.55 3.7,-3.35 4.2,1.8 0.099,1.05723 -0.05,1.85 0.15391,-0.33613 0.55,-1.2 0.13945,-0.1293 0.25,-0.55 0.0568,-0.0606 0.1,-0.15 l -0.05,0.05 q 0.48984,-1.59375 0.9,-6.6 0.42324,-5.18066 -0.75,-9.2 -0.32598,-0.86992 -0.7,-1.8 0.0332,0.0195 0.05,0.05 6.70938,3.9959 6.8,12.6 3.47129,-5.20098 2.45,-10.35 -1.7,-6.5 -6.25,-11.65 -0.75,-0.8 -1.5,-1.55 l 7.85,1.05 q 3.3457,0.50625 7.5,1.2 -1.86074,-2.7 -3.85,-5.25 -3.93125,1.00586 -6.45,1.65 l -5.2,1.25 -2.7,-1.55 5.5,-1.3 q 1.17363,-0.25488 2.35,-0.55 0.44453,-0.12695 5,-1.4 -3.45098,-4.29492 -7.3,-8.2 -2.99004,0.78496 -4.9,1.25 -3.44727,0.92324 -9.1,1.85 3.90781,4.0793 6.05,8.6 l 0,0 q -0.1582,0 -0.35,0 -3.41523,-4.36797 -7.4,-8.3 -4.28965,0.67266 -9.7,1.35 2.02793,3.31582 2.1,6.8 -1.99473,-3.37559 -4.5,-6.5 -2.0918,0.28496 -4.35,0.55 m 13.75,9.85 q -0.1043,0.0135 -0.2,0 0.0705,-0.0111 0.15,-0.05 0.0191,0.0211 0.05,0.05 m 12.75,29.9 0,0 q -1.08594,0.91152 -3.25,0.8 -4.8,-0.25 -4.45,-5.05 0.4,-4.7 4.45,-5.6 -2.45,3.05 -2.25,6.3 0.25,4 5.5,3.55 m -42.75,-56.95 -0.9,0 -2.5,2.2 q 1.45605,1.0877 2.75,2.15 4.17637,0.39863 8.45,0.4 -0.68438,-0.46562 -1.4,-0.95 l -0.4,0.25 q -0.25391,0.16875 -0.6,0.15 -0.28398,-0.0232 -0.55,-0.25 l -4.85,-3.95 m 16.7,3.05 q -0.20449,0.16992 -0.45,0.2 -0.24629,0.0234 -0.5,-0.1 l -5,-2.05 -4.2,2.6 q 1.1168,0.54023 2.15,1.05 4.91484,0.007 9.95,-0.5 0.38066,-0.0391 0.75,-0.1 -0.93145,-0.62422 -1.9,-1.25 1.21309,0.60508 2.35,1.2 7.55156,-0.83594 16.75,-2.85 -1.38652,-1.0502 -2.8,-2.05 l -0.15,0.15 q -0.14941,0.18457 -0.35,0.25 -0.19277,0.10566 -0.4,0.1 l -11.3,0 -4.9,3.35 M 279.4,654.1 q -0.47285,-0.14941 -0.95,-0.3 -2.38203,1.74453 -0.2,4.75 2.4,3.35 6.1,4.4 1.95,0.5 2.75,1.6 -0.32676,0.52773 -0.6,1 -0.12012,0.23379 -0.55,1.05 l 0.2,-0.35 q -1.07754,2.57363 -0.45,4.6 3.8,0 7.75,-0.05 8,-0.1 15.8,-0.7 5.28164,-0.40625 11.9,-2.05 l 0.05,0 q 0.15391,-0.0424 0.25,-0.1 -0.0125,0.003 -0.05,-0.05 0.0799,-0.0176 1.25,-0.2 1.15918,-0.1877 3,-1.3 1.84414,-1.0627 2.1,-3.6 l 0,-0.05 q 0.14453,-0.99531 -0.5,-1.4 l 0,-0.05 q -8.42969,-4.32852 -19.65,-0.2 1.51543,-2.14766 4.1,-3 0.58203,-1.26094 2.9,-2.15 3.5,-1.4 7.25,-1.55 4.1,-0.15 7.45,2.15 3.55,2.45 1.7,6.4 -0.75508,1.57891 -2.1,2.55 -0.65723,1.07715 -1.9,1.7 6.09609,0.89004 12.35,0.2 5.69648,-0.65 11.7,-2.4 2.50664,-5.41328 4.8,-9.95 2.99277,3.27773 4.8,7.55 4.2709,-1.05684 8.8,-3.45 2.50449,-6.66523 4.4,-13.15 3.65,3.65 6.2,6.45 3.64902,-3.73164 3.8,-5.95 0.16562,-1.7748 0.35,-2.15 l 0,-0.05 q 0.0947,-0.30332 0.15,-0.85 0.18633,-1.82422 1.55,-3.5 -4.03984,-0.066 -7.4,-1.1 -4.55,-1.35 -8,-4.55 -2.93691,-2.69883 -4.5,-6.05 -0.60547,-0.45801 -1.25,-0.95 l -0.05,-0.05 q -0.0537,-0.0369 -0.15,-0.1 -0.51426,1.27227 -1.65,2.35 l -0.05,0 q -1.4627,1.43262 -4.35,5.3 l -0.05,0.05 0,0.05 q -0.0723,0.0963 -0.2,0.15 -0.0217,0.0666 -0.1,0.1 -3.25117,2.58652 -6.75,4.95 l 0,0 q -26.6,17.68691 -66.8,18.35 l -0.05,0 q -0.39531,0.01 -0.7,-0.3 -0.17051,-0.14121 -0.25,-0.35 -1.49043,-2.64512 -4.2,-3.7 m 24.35,12 q 1.20176,-0.36387 2.4,-0.75 4.22969,-1.38516 8.4,-3.1 5.2,-2.15 5.5,1.35 0.15,1.4 -2.15,1.35 -5.85,-0.1 -11.55,1 -1.25,0.25 -2.6,0.15 M 652.4,639.95 q -0.0145,0.47793 -0.05,0.95 3.4209,0.26152 6.75,0.5 -3.40137,-0.67363 -6.7,-1.45 m -0.05,0.95 q -0.0594,-0.49316 -0.15,-1 -6.47012,-1.46523 -12.5,-3.2 0.008,1.58281 -0.35,3.2 6.62324,0.51797 13,1 m 5.4,-11.95 -6.8,-5.05 -7.75,0 q 1.63164,1.06523 2.95,2.2 5.77715,1.52637 11.6,2.85 m 8.35,1.8 q -0.71699,-0.80391 -1.5,-1.6 l -0.3,0.15 q -0.21641,0.10039 -0.45,0.1 l -4.1,0 q 3.16973,0.70078 6.35,1.35 m -1.3,-1.7 q 1.40723,0.95664 2.55,1.95 0.96992,0.81191 1.75,1.65 4.35039,4.51094 4.6,9.8 -2.08555,-5.03457 -6.2,-10.1 -3.1791,-0.49746 -6.25,-1.1 3.64688,4.8252 2.85,9.6 -0.068,0.46836 -0.2,0.9 l 0,0 0.05,0 q 3.6373,0.30098 7.2,0.55 1.29082,0.10703 2.55,0.2 l 0.05,0 q 5.84258,0.44355 11.45,0.85 -3.88867,-5.81348 -8.25,-9.55 -0.8041,-0.66133 -1.65,-1.3 -0.46836,-0.35176 -1,-0.7 0.95508,0.41953 1.8,0.85 1.24082,0.6707 2.3,1.35 5.93145,3.87129 6.8,9.35 0.95176,0.0809 1.9,0.15 2.94414,0.24277 8.7,0.5 l -7.25,-9.9 -0.25,0.05 q -0.18555,0.0824 -0.4,0.05 -0.21484,-0.0334 -0.4,-0.15 l -7.2,-4.65 -1.7,0 -6,2.45 q -0.25703,0.13672 -0.55,0.05 -0.29023,-0.0373 -0.5,-0.25 l -4,-4 -2.75,1.4 M 517.95,627 q 0.45937,-0.12617 0.9,-0.25 -3.35293,-3.42383 -7.15,-6.6 -6.02461,1.54863 -10.6,2.7 4.41641,3.18047 7.9,6.6 3.99746,-1.08613 8.95,-2.45 m -0.85,12.65 q 3.17285,-0.8375 6.85,-1.85 1.80117,-0.49473 3.55,-0.95 -3.03535,-4.12402 -6.6,-7.95 -5.40996,1.38906 -9.95,2.55 3.66328,3.94434 6.15,8.2 m -18.35,-5.1 q 4.01367,3.94219 6.7,8.35 3.82988,-1.05527 9.75,-2.7 -2.84609,-4.22422 -6.35,-8.2 -5.89141,1.49648 -10.1,2.55 m -8.4,-8.95 q -1.05586,0.30469 -2.35,0.6 4.9877,3.09238 8.9,6.6 3.55781,-0.98613 10.1,-2.8 -3.26074,-3.51816 -7.1,-6.85 -6.35215,1.65 -9.55,2.45 m 72.2,-4 q -5.90879,0.36074 -12,1.15 2.90469,4.11367 5.2,8.45 5.92246,-0.75 11.45,-1.1 -2.16387,-4.27949 -4.65,-8.5 m -13.6,-1.1 q 6.29746,-0.82129 12.2,-1.2 -2.51211,-4.06836 -5.3,-8.1 -6.52324,0.61309 -13.3,1.75 3.4793,3.67461 6.4,7.55 m -14,4.95 q -3.64355,0.79805 -7.4,1.75 -2.10078,0.54258 -4.1,1.05 3.86152,3.8125 6.7,7.9 5.3623,-1.32168 10.5,-2.4 -2.56523,-4.24766 -5.7,-8.3 m 1.9,-0.4 q 3.3375,4.0293 5.75,8.3 5.70605,-1.0916 11.1,-1.85 -2.5207,-4.30059 -5.3,-8.45 -5.6834,0.79277 -11.55,2 m 4.35,-11.9 q -6.50957,1.18691 -13.25,2.85 3.89004,3.34141 7.05,6.9 6.0998,-1.2459 11.85,-2.1 -2.67773,-3.85801 -5.65,-7.65 m -14.25,3.1 q -0.1125,-0.11211 -0.25,-0.25 l -0.35,0.4 q -7.31621,1.87344 -13.3,3.4 4.47832,3.05137 8.15,6.3 6.16602,-1.59199 12.05,-2.85 -2.93828,-3.5748 -6.3,-7 m 47.5,2.9 q -1.9748,-4.34062 -4.4,-8.55 -6.16875,-0.007 -12.6,0.5 3.26836,3.8123 5.95,8.1 5.72012,-0.25547 11.05,-0.05 m 17.7,4 q 1.55664,3.90195 2.2,8.15 5.31758,0.79375 11,2.05 -1.11113,-4.1334 -3.05,-8.2 -5.23691,-1.17578 -10.15,-2 m -1,-2.2 q 4.87949,0.82578 10.05,2 -2.66211,-5.01836 -6.6,-9.95 -5.18965,-0.95098 -10,-1.55 4.09355,4.44121 6.55,9.5 m -12.55,8.9 q -1.36777,-4.22324 -3.15,-8.35 -5.21191,-0.18262 -10.6,0 2.34453,4.06992 4.25,8.5 4.88926,-0.2293 9.5,-0.15 m 1.6,0.05 q 0.57109,0.0498 1.1,0.05 5.55723,0.27793 11.55,1.1 -1.33848,-4.20742 -3.3,-8.3 -4.8707,-0.68223 -9.45,-1 -1.23711,-0.0879 -2.5,-0.15 1.73613,4.1623 2.6,8.3 m 2.55,-18.65 q -1.94824,-0.16914 -3.85,-0.3 -3.65625,-0.25664 -7.45,-0.3 3.01602,4.28457 5.05,8.55 5.73008,0.35996 11.95,1.3 -2.46191,-4.72598 -5.7,-9.25 m 34.3,16.05 q -3.01621,-5.84219 -7.8,-10.95 -6.39941,-1.69707 -12.4,-2.9 4.50957,4.16094 6.85,10.1 6.46367,1.60625 13.35,3.75 m 12.4,4.15 q 2.59492,0.94512 5.25,1.95 1.67188,0.49688 3.35,0.95 -1.85371,-5.38789 -6.05,-10.8 -5.40684,-1.94922 -10.6,-3.6 6.6373,5.18262 8.05,11.5 m 17.55,-3.3 q -4.61719,-1.12324 -9,-2.4 -2.39863,-0.90801 -4.75,-1.75 5.65117,4.96367 6.35,10.8 6.0959,1.74238 12.25,3.25 -1.26816,-5.21035 -4.85,-9.9 m -26.1,9.3 q -1.05762,-4.23223 -2.85,-8.15 -7.04941,-2.09883 -13.6,-3.65 1.15859,3.6248 1.6,7.85 7.13359,1.62734 14.85,3.95 m -150.55,-8.4 q 6.13516,3.55156 10.45,7.55 5.63164,-1.06484 11.95,-2.65 0.26074,-0.0744 1.95,-0.55 -3.80059,-3.67793 -7.95,-6.95 -6.11211,1.26094 -16.4,2.6 m -11.9,1.2 q -4.24961,0.0926 -8.95,-0.55 5.30898,4.78691 7.9,9.4 4.92539,0.034 9.95,-0.45 -3.89531,-4.50215 -8.9,-8.4 m -3.05,8.85 q -3.0791,-4.95547 -7.25,-9.6 -4.68477,-0.67949 -9.8,-2.1 4.69473,5.5332 6.1,10.8 5.4002,0.77031 10.95,0.9 m 7.7,-9.15 q -1.46348,0.17207 -3,0.25 6.6123,3.92852 9.85,8.15 4.3123,-0.49648 9.1,-1.4 -4.42266,-4.14746 -9.55,-7.8 -3.00723,0.40176 -6.4,0.8 m 197,1.1 q -5.97578,-1.16445 -11.6,-2.55 3.52207,4.29648 3.85,9.7 5.66836,1.38027 11.35,2.6 -1.09844,-4.88086 -3.6,-9.75 m 30.55,3.9 q 0.34707,0.30254 0.65,0.6 3.99453,3.50879 4.5,8.45 1.80273,0.31328 7.65,0.6 3.01934,0.21387 6.2,0.4 l 0.05,0 q 6.26992,0.38437 13.25,0.65 l -2.55,-6 q -0.12969,-0.009 -0.25,-0.1 l -7.1,-4 -6.95,1.7 q 4.54434,3.85547 3.55,7.7 l -4.1,-7.6 -0.2,0.05 q -0.18965,0.0709 -0.4,0 -0.20332,-0.008 -0.4,-0.15 l -7.65,-5.5 -7.7,2.15 q 0.77168,0.52656 1.45,1.05 m 45.55,7.65 0,0 q -5.06563,-0.69473 -9.35,-3.6 l 0,0.05 q -0.80938,-0.52637 -1.6,-1.15 l -3.65,1.5 q 2.55703,2.19316 1.35,6.25 1.1127,0.0795 2.25,0.1 l 0,0 q 6.36953,0.27148 12.95,0.45 5.21855,0.1457 10.55,0.25 -8.44375,-3.2752 -12.5,-3.85 z"
         id="path15075"
         inkscape:connector-curvature="0"
         style="fill:#666600;stroke:none" />
      <path
         d="m 572.5,670.55 -0.05,-0.05 q -0.0906,-0.0635 -0.2,-0.2 -0.3166,-0.32324 -0.6,-0.7 l 0,-0.05 q -0.57773,-0.7002 -1.05,-1.45 l 1.15,7.85 8,-1.15 q -3.76953,-1.53379 -7.2,-4.25 l -0.05,0 m -1.65,-23.85 0.3,0.3 q -5.6873,1.34258 -8.55,2.05 -1.65469,0.44102 -2.35,0.65 -5.4957,1.71973 -11.25,2.65 -5.70977,0.93867 -11.65,1.1 l -0.05,0 q -7.44824,0.19297 -15.3,-0.85 -2.39297,-0.29316 -4.85,-0.75 -4.3459,-0.73789 -8.05,-1.35 -4.1543,-0.69375 -7.5,-1.2 l -7.85,-1.05 q 0.75,0.75 1.5,1.55 4.55,5.15 6.25,11.65 1.02129,5.14902 -2.45,10.35 -0.43457,4.0291 -2.05,5.85 3.38301,0.61621 6.7,1.1 0.22754,0.0359 0.45,0.05 7.51094,-12.05391 4.2,-23.85 7.66992,12.69414 0.35,24.6 8.3082,0.85996 11.85,1.45 0.24277,-0.0111 0.45,-0.05 5.52852,-12.13555 4.65,-24 5.22949,11.4498 0.1,23.85 6.51836,0.0945 11.1,-0.05 l 0,0 q 0.28652,-0.0146 0.5,-0.05 5.53867,-11.68906 3.25,-23.4 5.50723,11.4625 1.5,23.2 5.66367,-0.61973 12.55,-2.6 0.15996,-0.0445 0.3,-0.05 l 0.15,0 q 1.42539,-10.48262 -0.15,-21.75 6.46641,10.84707 4.25,21.7 l 8.4,-1.25 q 0,-11.93574 0,-23.9 l 1.1,3.3 q 0.50684,-2.27793 1.6,-4.7 l -0.05,0 q 0.75098,-1.66582 1.75,-3.3 l 0.05,0 q 0.4791,-0.81992 1.05,-1.65 -0.89941,0.12695 -2.25,0.4 m -160.7,-14 q -0.38457,-0.0463 -0.75,-0.1 -1.50117,-0.22598 -2.9,-0.3 -0.21895,-0.0131 -0.45,-0.05 -4.68535,1.61328 -6.15,4.6 -1.46328,2.97129 -2.8,9.45 -1.29512,6.49453 -4.4,10.45 -3.00645,3.89277 -6.5,6.85 -3.43262,2.96621 -7.1,4.4 -3.61758,1.47695 -8.6,2.6 -4.99375,1.18164 -9.4,2.3 -4.3502,1.1043 -8.7,1.35 -3.75,0.2 -6.65,2.1 -3.3,2.1 -6.95,2.35 -4.45,0.3 -8.7,-1.4 -1.2,-0.5 -2.05,0.05 -1.75,1.05 -3.4,2.35 -1.8207,1.46836 -4.5,1.9 l 4.7,1 0,0 q 3.2248,0.7248 6.7,1.5 0.63145,0.16309 1.2,0.3 9.46074,0.73184 19.6,0.7 14.64707,-0.0373 27.6,-6.45 12.95273,-6.36289 19.35,-15.85 5.72441,-8.49473 9.4,-17.05 0.0139,0.0629 0,0.1 5.4877,12.3791 -5.9,23.7 l 0,0 0,0 q -0.9502,0.99375 -1.95,1.9 1.06836,-0.28203 2.15,-0.55 0.0652,0.0115 0.1,0 1,-0.1498 2.05,-0.3 0.18828,-0.0225 0.35,0 7.62441,1.80742 15,2.9 l 0.05,0 q 0.21953,0.0297 0.45,0.05 8.82402,-13.74531 8.95,-27.5 2.64082,14.46973 -4.55,28.1 9.46699,1.03984 18.55,0.85 l 0,0 q 0.24453,-0.0113 0.45,-0.05 4.99766,-12.26133 3.9,-24.55 0.54707,1.92812 0.9,3.85 l 0.85,10.7 q -0.2041,4.86309 -1.5,9.7 1.15195,-0.0637 2.25,-0.15 l -0.1,0 q 3.725,-0.675 7.4,-1.4 l -0.05,0 q 2.63652,-0.56328 5.25,-1.45 -2.70957,-0.3625 -5.15,-1.6 -1.1,-0.55 -2.15,-1.2 -0.16699,-0.14629 -0.35,-0.3 l -2.85,-3.35 -0.1,-6.1 q 0.3,-1.4 0.6,-2.75 1.1,-4.65 4.65,-8.45 l -2.8,-0.55 q -3.80293,-0.84414 -10.2,-2.95 -5.65117,-1.85391 -15.1,-5.6 -0.74551,-0.01 -3.5,-1.05 -1.9127,-0.72207 -8.4,-3 -4.25352,-1.43301 -7.8,-2.05 m 315.05,13.05 q -1.1373,-0.0205 -2.25,-0.1 -6.98008,-0.26563 -13.25,-0.65 l -0.05,0 q -3.18066,-0.18613 -6.2,-0.4 0.70508,1.35859 1,2.7 l 0,0.05 q 0.54883,2.46953 -0.25,4.9 4.51836,-0.7959 9.15,-1 0.075,-0.01 0.15,-0.05 l 0,-5.95 2.1,5.95 q 0.21328,0 0.4,0 4.89668,-0.0522 9.2,0.35 l 0,-5.8 M 651.15,649 q 0.36719,-0.84648 0.6,-1.7 0.95039,-3.08887 0.6,-6.4 -6.37676,-0.48203 -13,-1 -4.93223,-0.36211 -10,-0.75 -1.97266,-0.15859 -4,-0.35 -2.07148,-0.13359 -4.2,-0.3 0.60059,0.45977 1.2,1.1 2.4791,2.67715 5.15,8.55 0.2375,-0.0877 0.5,-0.05 5.14258,0.65 7.2,2.4 l 0.05,0 q 2.09668,1.75391 1.95,4.65 0.52227,-0.0807 1,-0.15 l -0.05,0 q 0.32051,-0.0418 0.8,-0.15 2.46191,-4.49883 2.15,-9.05 -0.0266,-0.75137 -0.15,-1.55 -0.0104,-0.0334 -0.05,-0.1 -0.19316,-1.19629 -0.6,-2.4 1.04551,1.36465 1.7,2.8 0.39668,0.92266 0.65,1.85 1.00664,3.66797 -0.25,7.9 2.47422,-0.31387 4.8,-0.45 l 0.05,0 q 0.50918,-0.041 0.95,-0.05 1.90645,-2.33203 2.95,-4.8 m 34.7,-4.15 q 0.16992,0.4041 0.3,0.75 1.45254,4.56582 -0.35,9.1 -0.0478,0.1791 -0.15,0.35 0.98809,-0.0715 1.95,-0.15 l 0,0 q 1.43652,-0.15234 2.8,-0.35 0.0629,-0.004 0.1,0 0.18613,-0.051 0.35,-0.05 0.075,-0.003 0.15,-0.05 0.0629,0.009 0.1,0 0.0961,-0.008 0.15,-0.05 2.41426,-3.97871 2.15,-8 0.0203,-0.2082 0,-0.45 -0.0988,-0.96563 -0.35,-1.95 0.67676,1.04043 1.15,2.05 0.0971,0.24102 0.15,0.45 1.54473,3.71445 0.4,7.4 2.28691,-0.33145 4.55,-0.75 l 0,0 q 0.51016,-0.0705 1,-0.2 1.88242,-2.82559 2.65,-5.7 0.0352,-0.0443 0.05,-0.1 0.33125,-1.27051 0.45,-2.55 -5.84727,-0.28672 -7.65,-0.6 -5.75586,-0.25723 -8.7,-0.5 -0.94824,-0.0691 -1.9,-0.15 0.38262,0.76152 0.65,1.5 m -21.95,-3.1 q -2.3584,-0.15293 -4.8,-0.35 -3.3291,-0.23848 -6.75,-0.5 1.73223,3.50605 1.75,7 -10e-4,0.90508 -0.15,1.8 -0.2418,2.16699 -1.15,4.3 2.96895,0.21523 5.95,0.5 l 0.1,0 q 0.36875,0.0215 0.75,0.05 1.26523,-1.51211 2.15,-3.05 0.48633,-0.74297 0.85,-1.5 1.81426,-3.77656 1.4,-7.65 -0.0143,-0.24648 -0.05,-0.5 0.15566,0.27695 0.3,0.55 2.15879,4.17246 1.55,8.35 -0.11289,0.76016 -0.35,1.5 -0.33555,1.37539 -1,2.7 1.82148,0.15469 3.65,0.2 0.22266,0.003 0.4,0.05 0.0703,0 0.15,0 0.0371,0.0123 0.05,0 0.1916,-0.0482 0.4,-0.05 l 2.65,0 q 0.23398,-0.0119 0.55,-0.05 0.38867,-0.69668 0.7,-1.45 0.27637,-0.61113 0.5,-1.25 1.41582,-4.18418 0.6,-8.4 -0.10762,-0.58223 -0.3,-1.2 -0.0123,-0.11934 -0.05,-0.25 0.0875,0.13438 0.15,0.25 0.43555,0.67305 0.75,1.3 2.55664,4.65625 1.75,8.85 -0.0856,0.64277 -0.3,1.25 -0.11523,0.47832 -0.3,0.95 1.77422,0.005 3.55,0.05 l 0,0 q 0.7625,0 1.5,0 0.36328,0 0.7,0 0.0754,-0.0764 0.1,-0.15 0.36641,-0.48223 0.65,-1 2.67871,-4.24238 2.9,-8.55 0.0469,-0.34824 0.05,-0.75 0.0113,-0.68398 -0.05,-1.4 -5.60742,-0.40645 -11.45,-0.85 l -0.05,0 q -1.25918,-0.093 -2.55,-0.2 -3.5627,-0.24902 -7.2,-0.55 l -0.05,0 M 736,651.8 q 0.4418,-0.0486 0.9,-0.1 1.77871,-2.44941 1.25,-5.5 -6.58047,-0.17852 -12.95,-0.45 l 3.4,6.05 q 0.3293,0.0336 0.65,0.05 3.32578,0.14629 6.7,-0.05 l 0.05,0 m 13.45,-1.9 q 1.50137,-0.90039 1.85,-1.7 0.11445,-0.42383 -0.25,-0.85 -0.78574,-0.29922 -1.5,-0.6 -0.4,-0.14141 -0.85,-0.3 -5.33145,-0.1043 -10.55,-0.25 l 2.35,5.2 q 0.18516,0.0131 0.35,0 l 0,0 q 3.53711,-0.40234 7.05,-0.95 0.84785,-0.11406 1.55,-0.55 z"
         id="path15077"
         inkscape:connector-curvature="0"
         style="fill:#a9a801;stroke:none" />
      <path
         d="m 576.35,665.3 0.2,-0.3 q -0.29883,-0.18652 -0.6,-0.4 l 0.4,0.7 m -0.5,-0.8 q 0.0807,0.15039 0.1,0.1 l -0.05,-0.05 q -0.01,0.005 -0.05,-0.05 z"
         id="path15079"
         inkscape:connector-curvature="0"
         style="fill:#404000;stroke:none" />
    </g>
    <clipPath
       id="clipPath15121"
       clipPathUnits="userSpaceOnUse">
      <rect
         style="fill:#d1f2a5;fill-opacity:1;stroke:#c7c7c7;stroke-width:3.21962881;stroke-miterlimit:4;stroke-opacity:1;stroke-dasharray:none"
         id="rect15123"
         width="269.82831"
         height="269.81665"
         x="250.59261"
         y="524.73895" />
    </clipPath>
    <style
       id="style6"
       type="text/css">
    .str0 {stroke:#006633;stroke-width:282.22}
    .str1 {stroke:#AB754F;stroke-width:282.22}
    .fil2 {fill:none}
    .fil3 {fill:#606062}
    .fil5 {fill:#CE8F64}
    .fil4 {fill:#006633}
    .fil8 {fill:#009933}
    .fil9 {fill:#00B33C}
    .fil10 {fill:#00C943}
    .fil0 {fill:#00D447}
    .fil1 {fill:#00DB49}
    .fil6 {fill:#B88059}
    .fil11 {fill:#BA8058}
    .fil12 {fill:#D49264}
    .fil7 {fill:#E49C6D}
  </style>
  </defs>
  <metadata
     id="metadata7">
    <rdf:RDF>
      <cc:Work
         rdf:about="">
        <dc:format>image/svg+xml</dc:format>
        <dc:type
           rdf:resource="http://purl.org/dc/dcmitype/StillImage" />
        <dc:title>Bingo das Letras</dc:title>
        <cc:license
           rdf:resource="" />
        <dc:rights>
          <cc:Agent>
            <dc:title>Copyright © 2002-2016. Portal Clickideia ® - Todos os Direitos Reservados</dc:title>
          </cc:Agent>
        </dc:rights>
        <dc:description>SVG game with snapSVG lib and other javascripts included</dc:description>
        <dc:language>pt_BR</dc:language>
        <dc:subject>
          <rdf:Bag>
            <rdf:li>Educativo</rdf:li>
            <rdf:li>ensino fundamental</rdf:li>
            <rdf:li>clickiéia</rdf:li>
            <rdf:li>letras</rdf:li>
            <rdf:li>lingua portuguesa</rdf:li>
            <rdf:li>infantil</rdf:li>
            <rdf:li>educational game</rdf:li>
            <rdf:li>game design</rdf:li>
            <rdf:li>multimidia</rdf:li>
          </rdf:Bag>
        </dc:subject>
        <dc:creator>
          <cc:Agent>
            <dc:title>http://www.clickideia.com.br/</dc:title>
          </cc:Agent>
        </dc:creator>
        <dc:publisher>
          <cc:Agent>
            <dc:title>http://www.clickideia.com.br/</dc:title>
          </cc:Agent>
        </dc:publisher>
        <dc:date>18/01/2016</dc:date>
        <dc:contributor>
          <cc:Agent>
            <dc:title>michel morandi - michel.morandi@clickideia.com.br</dc:title>
          </cc:Agent>
        </dc:contributor>
      </cc:Work>
    </rdf:RDF>
  </metadata>
  <g
     id="g17583"
     transform="matrix(0.55058852,0,0,0.55058852,-150.61033,-328.56357)"
     clip-path="url(#clipPath15121)">
    <use
       id="use17585"
       xlink:href="#Layer0_0_FILL-30"
       x="0"
       y="0"
       width="1280"
       height="800" />
  </g>
</svg>
