<?xml version="1.0" encoding="UTF-8" standalone="no"?>
<svg
   xmlns:osb="http://www.openswatchbook.org/uri/2009/osb"
   xmlns:dc="http://purl.org/dc/elements/1.1/"
   xmlns:cc="http://creativecommons.org/ns#"
   xmlns:rdf="http://www.w3.org/1999/02/22-rdf-syntax-ns#"
   xmlns:svg="http://www.w3.org/2000/svg"
   xmlns="http://www.w3.org/2000/svg"
   xmlns:xlink="http://www.w3.org/1999/xlink"
   xmlns:sodipodi="http://sodipodi.sourceforge.net/DTD/sodipodi-0.dtd"
   xmlns:inkscape="http://www.inkscape.org/namespaces/inkscape"
   version="1.1"
   id="svg2"
   viewBox="0 0 91.665942 113.22572"
   height="113.22572"
   width="91.665924"
   inkscape:version="0.48.4 r9939"
   sodipodi:docname="jegue.svg">
  <sodipodi:namedview
     pagecolor="#ffffff"
     bordercolor="#666666"
     borderopacity="1"
     objecttolerance="10"
     gridtolerance="10"
     guidetolerance="10"
     inkscape:pageopacity="0"
     inkscape:pageshadow="2"
     inkscape:window-width="1360"
     inkscape:window-height="744"
     id="namedview1313"
     showgrid="false"
     fit-margin-top="0"
     fit-margin-left="0"
     fit-margin-right="0"
     fit-margin-bottom="0"
     inkscape:zoom="1.2434784"
     inkscape:cx="-208.52196"
     inkscape:cy="47.164271"
     inkscape:window-x="0"
     inkscape:window-y="1"
     inkscape:window-maximized="1"
     inkscape:current-layer="svg2" />
  <script
     xlink:href="C:\wamp\www\bingo\js/snap.svg-min.js"
     id="script4164" />
  <title
     id="title4162">Bingo das Letras</title>
  <defs
     id="defs4">
    <linearGradient
       osb:paint="solid"
       id="linearGradient12614">
      <stop
         id="stop12616"
         offset="0"
         style="stop-color:#000000;stop-opacity:1;" />
    </linearGradient>
    <linearGradient
       gradientTransform="matrix(-0.19399818,0,0,-0.19399818,259.22818,12173.784)"
       osb:paint="solid"
       id="linearGradient59274">
      <stop
         id="stop59276"
         offset="0"
         style="stop-color:#930033;stop-opacity:1;" />
    </linearGradient>
    <linearGradient
       id="linearGradient4269"
       osb:paint="solid"
       gradientTransform="matrix(110.20782,22.122239,-29.697412,82.096171,6266573.9,4264559.4)">
      <stop
         style="stop-color:#ffffff;stop-opacity:1;"
         offset="0"
         id="stop4271" />
    </linearGradient>
    <linearGradient
       id="linearGradient4251"
       osb:paint="solid"
       gradientTransform="translate(106155.96,125143.42)">
      <stop
         style="stop-color:#555555;stop-opacity:1;"
         offset="0"
         id="stop4253" />
    </linearGradient>
    <linearGradient
       id="linearGradient4241"
       osb:paint="solid"
       gradientTransform="matrix(0.19125385,0,0,0.19125385,-1749.4195,-50278.466)">
      <stop
         style="stop-color:#3fb5ae;stop-opacity:1;"
         offset="0"
         id="stop4243" />
    </linearGradient>
    <linearGradient
       id="linearGradient4231"
       osb:paint="solid"
       gradientTransform="translate(2399.1562,2075.6965)">
      <stop
         style="stop-color:#d1f2a5;stop-opacity:1;"
         offset="0"
         id="stop4233" />
    </linearGradient>
    <linearGradient
       id="linearGradient4221"
       osb:paint="solid"
       gradientTransform="matrix(0.66768435,0,0,0.66768435,-186.89148,394.64653)">
      <stop
         style="stop-color:#effab4;stop-opacity:1;"
         offset="0"
         id="stop4223" />
    </linearGradient>
    <linearGradient
       id="linearGradient4211"
       osb:paint="solid"
       gradientTransform="translate(-699.20463,883.12976)">
      <stop
         style="stop-color:#ffc48c;stop-opacity:1;"
         offset="0"
         id="stop4213" />
    </linearGradient>
    <linearGradient
       id="linearGradient4201"
       osb:paint="solid"
       gradientTransform="matrix(0.35946858,0,0,0.22423084,-331.07911,5516.4706)">
      <stop
         style="stop-color:#ff9f80;stop-opacity:1;"
         offset="0"
         id="stop4203" />
    </linearGradient>
    <linearGradient
       id="linearGradient4191"
       osb:paint="solid"
       gradientTransform="matrix(0.52321996,0,0,0.52321996,2015.4535,3072.5352)">
      <stop
         style="stop-color:#f56991;stop-opacity:1;"
         offset="0"
         id="stop4193" />
    </linearGradient>
    <style
       id="style6"
       type="text/css">
    .str0 {stroke:#006633;stroke-width:282.22}
    .str1 {stroke:#AB754F;stroke-width:282.22}
    .fil2 {fill:none}
    .fil3 {fill:#606062}
    .fil5 {fill:#CE8F64}
    .fil4 {fill:#006633}
    .fil8 {fill:#009933}
    .fil9 {fill:#00B33C}
    .fil10 {fill:#00C943}
    .fil0 {fill:#00D447}
    .fil1 {fill:#00DB49}
    .fil6 {fill:#B88059}
    .fil11 {fill:#BA8058}
    .fil12 {fill:#D49264}
    .fil7 {fill:#E49C6D}
  </style>
    <style
       id="style13042"
       type="text/css">
   
    .fil4 {fill:url(#id0)}
    .fil9 {fill:url(#id1)}
    .fil6 {fill:url(#id2)}
    .fil1 {fill:url(#id3)}
    .fil5 {fill:url(#id4)}
    .fil0 {fill:url(#id5)}
    .fil8 {fill:url(#id6)}
    .fil3 {fill:url(#id7)}
    .fil7 {fill:url(#id8)}
    .fil2 {fill:url(#id9)}
   
  </style>
    <filter
       inkscape:collect="always"
       id="filter34444"
       color-interpolation-filters="sRGB">
      <feGaussianBlur
         inkscape:collect="always"
         stdDeviation="1.3522431"
         id="feGaussianBlur34446" />
    </filter>
  </defs>
  <metadata
     id="metadata7">
    <rdf:RDF>
      <cc:Work
         rdf:about="">
        <dc:format>image/svg+xml</dc:format>
        <dc:type
           rdf:resource="http://purl.org/dc/dcmitype/StillImage" />
        <dc:title>Bingo das Letras</dc:title>
        <cc:license
           rdf:resource="" />
        <dc:rights>
          <cc:Agent>
            <dc:title>Copyright © 2002-2016. Portal Clickideia ® - Todos os Direitos Reservados</dc:title>
          </cc:Agent>
        </dc:rights>
        <dc:description>SVG game with snapSVG lib and other javascripts included</dc:description>
        <dc:language>pt_BR</dc:language>
        <dc:subject>
          <rdf:Bag>
            <rdf:li>Educativo</rdf:li>
            <rdf:li>ensino fundamental</rdf:li>
            <rdf:li>clickiéia</rdf:li>
            <rdf:li>letras</rdf:li>
            <rdf:li>lingua portuguesa</rdf:li>
            <rdf:li>infantil</rdf:li>
            <rdf:li>educational game</rdf:li>
            <rdf:li>game design</rdf:li>
            <rdf:li>multimidia</rdf:li>
          </rdf:Bag>
        </dc:subject>
        <dc:creator>
          <cc:Agent>
            <dc:title>http://www.clickideia.com.br/</dc:title>
          </cc:Agent>
        </dc:creator>
        <dc:publisher>
          <cc:Agent>
            <dc:title>http://www.clickideia.com.br/</dc:title>
          </cc:Agent>
        </dc:publisher>
        <dc:date>18/01/2016</dc:date>
        <dc:contributor>
          <cc:Agent>
            <dc:title>michel morandi - michel.morandi@clickideia.com.br</dc:title>
          </cc:Agent>
        </dc:contributor>
      </cc:Work>
    </rdf:RDF>
  </metadata>
  <g
     id="g34448"
     transform="translate(-162.6158,28.20213)">
    <path
       transform="matrix(0.94726425,0,0,0.94780706,8.7078594,-1.3409335)"
       style="fill:#1a1a1a;fill-opacity:1;fill-rule:nonzero;stroke:#1a1a1a;stroke-width:5.27684736;stroke-miterlimit:4;stroke-opacity:1;stroke-dasharray:none;filter:url(#filter34444)"
       d="m 189.9056,-22.445801 c -4.47179,0.09287 -4.00455,10.59827 -3.84375,17.21875 -0.0322,-1.34182 -3.78785,0.51552 -4.75,2.46875 -0.48658,-1.06603 -0.98244,-2.45366 -1.46875,-4.28125 -2.0221,-7.60153 -3.62462,-9.11413 -7.03125,-9.46875 -4.1635,-0.43368 -6.07287,8.34209 -2.75,17.96875 3.32314,9.6264 1.32886,9.00897 0.21875,13.21875 -1.07786,4.086631 2.68952,15.248248 11.375,25 -1.38453,1.758972 -2.25008,3.832978 -2.34375,6.375 -0.18351,4.984037 1.35552,8.5937 5.28125,10.375 -0.008,3.788926 0.029,10.06255 0.25,14.34375 -6.26155,1.537308 -10.09375,3.582278 -10.09375,5.8125 0,4.793129 17.60337,8.65625 39.3125,8.65625 21.70886,0 39.3125,-3.863121 39.3125,-8.65625 0,-3.059077 -7.2006,-5.766882 -18.03125,-7.3125 0.007,-0.06686 0.0247,-0.119773 0.0312,-0.1875 1.06382,-10.952503 0.75258,-21.381755 2.34375,-20.96875 0.51441,0.133091 1.09874,0.433269 1.625,0.78125 -0.49319,1.239325 -0.10832,2.57033 1.25,3.9375 2.17116,2.181896 3.40733,3.715109 7.28125,3.625 3.87393,-0.09009 1.92295,-6.318196 0.90625,-7.78125 -0.81556,-1.168526 -2.42583,-3.58924 -5.25,-2.96875 -0.008,-0.174685 -0.008,-0.361915 0,-0.5625 0.0937,-2.672908 -4.40028,-7.889983 -10.03125,-10.59375 -5.87288,-2.820305 -12.46146,-3.383996 -21.46875,-3.125 -0.2353,-0.815012 -0.5,-1.375 -0.5,-1.375 2.27779,-1.937778 1.1875,-7.03125 1.1875,-7.03125 1.68292,-2.988377 1.0625,-4.9375 1.0625,-4.9375 2.18686,-3.85327 -1.375,-6.625 -1.375,-6.625 2.80295,-4.87328 -3.09375,-7.125 -3.09375,-7.125 1.94027,-3.57745998 -2.1875,-4.53124998 -2.1875,-4.53124998 -0.6637,-4.97769002 -5.2187,-5.00000002 -5.2187,-5.00000002 -1.62149,-2.14939 -3.42613,-2.10811 -4.6875,-1.65625 -0.16146,-5.86297 -0.35433,-13.12909 -5.75,-15.28125 -0.57437,-0.22912 -1.0999,-0.32211 -1.5625,-0.3125 z m 31.4375,86.0625 c 0.15604,0.03394 0.33397,0.122487 0.53125,0.09375 0.29455,-0.04287 0.19347,1.891687 0.1875,4.375 -0.53273,-0.02437 -1.08462,-0.04294 -1.625,-0.0625 0.20502,-4.093988 0.49734,-4.495194 0.90625,-4.40625 z m -18.3125,1.90625 c 1.376,0.0034 2.75412,0.839118 3.3125,2.5625 -2.31555,0.101639 -4.5379,0.250324 -6.6875,0.4375 0.35026,-1.965753 1.8438,-3.003753 3.375,-3 z"
       id="path34442"
       inkscape:connector-curvature="0" />
    <path
       inkscape:connector-curvature="0"
       id="path34364"
       d="m 188.59865,-22.615222 c -4.23597,0.08802 -3.79337,10.045115 -3.64105,16.3200527 -0.0305,-1.2717865 -3.5881,0.4886135 -4.49951,2.3398986 -0.46092,-1.0103907 -0.93063,-2.3255962 -1.39129,-4.0577989 -1.91546,-7.2047834 -3.43347,-8.6384364 -6.66045,-8.9745484 -3.94394,-0.411045 -5.75262,7.9066921 -2.60498,17.03090837 3.14789,9.12396993 1.25878,8.53876533 0.20721,12.52882463 -1.02101,3.873338 2.54769,14.452397 10.77514,23.695176 -1.31152,1.667167 -2.13143,3.632924 -2.22016,6.04227 -0.17383,4.723906 1.28404,8.14517 5.00274,9.833499 -0.008,3.591171 0.0275,9.537356 0.23682,13.595107 -5.93134,1.457072 -9.56145,3.395309 -9.56145,5.509129 0,4.542961 16.67504,8.204455 37.23933,8.204455 20.56402,0 37.23932,-3.661494 37.23932,-8.204455 0,-2.899415 -6.82087,-5.465892 -17.08036,-6.930839 0.007,-0.06337 0.0234,-0.113522 0.0296,-0.177714 1.00772,-10.38086 0.71289,-20.265779 2.22015,-19.874329 0.48728,0.126144 1.0408,0.410655 1.5393,0.740474 -0.46718,1.174641 -0.1026,2.436177 1.18408,3.73199 2.05667,2.068017 3.22765,3.521207 6.89727,3.435801 3.66964,-0.08539 1.82154,-5.988431 0.85846,-7.375124 -0.77255,-1.107537 -2.2979,-3.401907 -4.97314,-2.813802 -0.008,-0.165568 -0.008,-0.343026 0,-0.533142 0.0888,-2.533401 -4.16822,-7.478181 -9.50224,-10.040831 -5.56317,-2.673105 -11.8043,-3.207375 -20.33658,-2.961897 -0.22289,-0.772474 -0.47363,-1.303235 -0.47363,-1.303235 2.15767,-1.836639 1.12487,-6.664268 1.12487,-6.664268 1.59417,-2.832405 1.00647,-4.679797 1.00647,-4.679797 2.07154,-3.652157 -1.30249,-6.279222 -1.30249,-6.279222 2.65514,-4.6189292 -2.9306,-6.7531253 -2.9306,-6.7531253 1.83795,-3.39074186 -2.07214,-4.2947508 -2.07214,-4.2947508 -0.6287,-4.7178897 -4.94348,-4.7390353 -4.94348,-4.7390353 -1.53598,-2.037207 -3.24545,-1.9980815 -4.44031,-1.5698054 -0.15294,-5.5569642 -0.33564,-12.4438442 -5.44676,-14.4836762 -0.54408,-0.217162 -1.0419,-0.305299 -1.4801,-0.29619 z m 29.77962,81.570645 c 0.14781,0.03217 0.31635,0.116094 0.50323,0.08886 0.27902,-0.04063 0.18327,1.792954 0.17761,4.146656 -0.50463,-0.0231 -1.02742,-0.0407 -1.5393,-0.05924 0.1942,-3.880311 0.47111,-4.260577 0.85846,-4.176275 z m -17.34678,1.806757 c 1.30343,0.0032 2.60888,0.795322 3.13781,2.428756 -2.19344,0.09633 -4.29859,0.237259 -6.33483,0.414665 0.33179,-1.863154 1.74657,-2.846978 3.19702,-2.843421 z"
       style="fill:#ffffff;fill-opacity:1;fill-rule:nonzero;stroke:#ffffff;stroke-width:5.00000095;stroke-miterlimit:4;stroke-opacity:1;stroke-dasharray:none" />
    <g
       transform="matrix(0.20879831,0,0,0.20891795,373.56534,301.36405)"
       id="g34347">
      <path
         id="path33712"
         style="fill:#fbc313;fill-opacity:1;fill-rule:nonzero;stroke:none"
         d="m -601.61219,-1101.5263 c 0,21.7452 -79.84501,39.3727 -178.33253,39.3727 -98.48876,0 -178.33003,-17.6275 -178.33003,-39.3727 0,-21.7451 79.84127,-39.374 178.33003,-39.374 98.48752,0 178.33253,17.6289 178.33253,39.374"
         inkscape:connector-curvature="0" />
      <path
         id="path33810"
         style="fill:#545a5f;fill-opacity:1;fill-rule:nonzero;stroke:none"
         d="m -807.27472,-1378.4026 c 5.48,21.5263 5.9175,52.8513 5.53375,72.4651 4.3275,-0.1875 8.53125,-0.3413 12.62875,-0.46 -1.0675,-3.6975 -2.34,-6.2188 -2.34,-6.2188 10.33375,-8.7912 5.4775,-31.88 5.4775,-31.88 7.635,-13.5575 4.84375,-22.3925 4.84375,-22.3925 9.92125,-17.4813 -6.3075,-30.025 -6.3075,-30.025 12.71625,-22.1088 -14.035,-32.3238 -14.035,-32.3238 8.8025,-16.23 -9.8875,-20.5675 -9.8875,-20.5675 -3.01125,-22.5825 -23.70626,-22.7475 -23.70626,-22.7475 -7.35625,-9.7512 -15.5675,-9.4812 -21.29,-7.4312 0.4275,15.5387 0.80375,28.9075 5.8025,34.205 13.555,14.3662 34.76251,33.9112 43.28001,67.3762"
         inkscape:connector-curvature="0" />
      <path
         id="path33812"
         style="fill:#7a7e6d;fill-opacity:1;fill-rule:nonzero;stroke:none"
         d="m -657.0372,-1236.5288 c 3.9625,-2.785 7.5375,-4.36 10.775,-5.07 -0.0375,-0.7925 -0.0625,-1.6237 -0.025,-2.5337 0.425,-12.1263 -19.9125,-35.8 -45.45875,-48.0663 -26.64376,-12.795 -56.50251,-15.3737 -97.36627,-14.1987 -4.0975,0.1187 -8.30125,0.2725 -12.62875,0.46 -0.0463,2.3587 -0.105,4.5487 -0.1675,6.5325 15.325,10.0012 25.16,26.5012 28.2,45.0925 6.40125,39.15 -60.02001,65.955 -104.43126,67.0837 -14.85126,0.3775 -26.53501,-1.6037 -35.48251,-5.6637 -0.0475,24.0425 0.20375,70.88 2.75375,82.8575 3.4725,16.31 12.7175,29.5864 36.44751,26.8599 23.73,-2.7252 32.1225,-20.3985 28.875,-47.7075 -3.24625,-27.3102 34.19751,-28.7423 31.67251,1.6015 -2.52625,30.3437 6.98,45.4087 27.13,43.2046 20.15,-2.2036 34.14876,-8.9946 35.43001,-45.3721 1.28125,-36.3779 3.24875,-27.8902 6.82875,-28.4117 3.58,-0.521 -5.69,63.104 14.82625,67.5455 20.5175,4.4399 41.65126,6.4795 46.47751,-43.209 4.82625,-49.6887 3.41625,-97.0062 10.635,-95.1325 2.33375,0.6038 4.88375,1.9763 7.27125,3.555 1.3375,-3.3487 4.1,-6.5212 8.2375,-9.4275"
         inkscape:connector-curvature="0" />
      <path
         id="path33814"
         style="fill:#858a78;fill-opacity:1;fill-rule:nonzero;stroke:none"
         d="m -973.06725,-1458.3613 c -3.8025,-15.8288 -6.99875,-47.7075 2.7825,-52.29 9.78125,-4.5825 25.42001,34.9675 28.84251,48.6262 3.42375,13.6575 2.06,18.5875 -4.5275,19.5238 -8.75001,1.245 -23.29376,-0.033 -27.09751,-15.86 z m 60.65751,147.5138 c 3.3825,-2.1725 7.88625,-1.1925 10.06,2.19 2.1725,3.3837 1.1925,7.8875 -2.19,10.06 -3.38375,2.1725 -7.8875,1.1925 -10.06,-2.19 -2.17375,-3.3838 -1.1925,-7.8875 2.19,-10.06 z m 29.25751,-152.6551 c -6.51751,1.335 -9.46001,-2.8487 -10.83251,-16.8625 -1.37125,-14.0137 0.0475,-56.5187 10.80001,-55.495 10.7525,1.0238 18.47,32.12 20.21375,48.3038 1.745,16.185 -11.5225,22.2812 -20.18125,24.0537 z m 40.585,142.4013 c -3.38375,2.1725 -7.8875,1.1913 -10.06,-2.1912 -2.17375,-3.3825 -1.1925,-7.8863 2.19,-10.06 3.3825,-2.1725 7.88625,-1.1925 10.06,2.1912 2.1725,3.3825 1.1925,7.8863 -2.19,10.06 z m -28.595,18.3488 c 28.64,-10.825 52.30626,-7.7138 69.25376,3.3475 0.0625,-1.9838 0.12125,-4.1738 0.1675,-6.5325 0.38375,-19.6138 -0.0538,-50.9388 -5.53375,-72.4651 -8.5175,-33.465 -29.72501,-53.01 -43.28001,-67.3762 -4.99875,-5.2975 -5.375,-18.6663 -5.8025,-34.205 -0.7325,-26.5988 -1.615,-59.5625 -26.09375,-69.3263 -27.79501,-11.0875 -25.23751,43.5238 -24.43251,76.6663 l 0,0 c 0.3475,14.655 17.5225,19.585 17.5225,19.585 19.36876,-4.27 22.86001,21.3675 22.86001,21.3675 14.04375,5.4 3.75875,23.0625 3.75875,23.0625 12.21875,13.7825 -9.33875,28.1113 -9.33875,28.1113 -11.6225,23.81 -30.21126,8.35 -30.21126,8.35 -18.2975,0.6987 -21.76625,-12.455 -21.76625,-12.455 -21.35625,-3.5863 -13.40875,-23.5938 -13.40875,-23.5938 -13.53125,-9.0937 -1.2075,-21.3362 -1.2075,-21.3362 -12.8025,-12.4463 9.3175,-26.6563 9.3175,-26.6563 -0.35875,-1.6712 0.0175,-3.4375 0.88,-5.1887 -2.2075,-4.8363 -4.42625,-11.185 -6.6325,-19.4763 -9.17375,-34.4862 -16.46125,-41.3412 -31.91626,-42.95 -18.88875,-1.9675 -27.56875,37.8988 -12.49375,81.5725 15.07625,43.6725 6.0375,40.8263 1.00125,59.925 -4.89,18.54 12.19875,69.1701 51.60251,113.4113 12.22,-15.5287 33.465,-25.415 55.75376,-33.8387"
         inkscape:connector-curvature="0" />
      <path
         id="path33816"
         style="fill:#e2d38f;fill-opacity:1;fill-rule:nonzero;stroke:none"
         d="m -891.06974,-1214.0138 c -10.14875,6.5188 -23.66,3.5775 -30.17875,-6.5712 -6.52,-10.1488 -3.5775,-23.66 6.57125,-30.1788 10.1475,-6.52 23.66,-3.5775 30.17876,6.5713 6.51875,10.1487 3.5775,23.66 -6.57126,30.1787 z m 91.31377,-23.5662 c -10.14875,6.5187 -23.66,3.5762 -30.18001,-6.5713 -6.51875,-10.1487 -3.57625,-23.66 6.57251,-30.18 10.1475,-6.5187 23.66,-3.5762 30.17875,6.5713 6.51875,10.1487 3.57625,23.66 -6.57125,30.18 z m -78.38376,50.3512 c 44.41125,-1.1287 110.83251,-27.9337 104.43126,-67.0837 -3.04,-18.5913 -12.875,-35.0913 -28.2,-45.0925 -16.9475,-11.0613 -40.61376,-14.1725 -69.25376,-3.3475 -22.28876,8.4237 -43.53376,18.31 -55.75376,33.8387 -6.28125,7.98 -10.1825,17.4475 -10.6075,28.98 -0.8325,22.6113 6.09125,38.96 23.90125,47.0413 8.9475,4.06 20.63125,6.0412 35.48251,5.6637"
         inkscape:connector-curvature="0" />
      <path
         id="path33818"
         style="fill:#545a5f;fill-opacity:1;fill-rule:nonzero;stroke:none"
         d="m -884.49848,-1244.1925 c -6.51876,-10.1488 -20.03126,-13.0913 -30.17876,-6.5713 -10.14875,6.5188 -13.09125,20.03 -6.57125,30.1788 6.51875,10.1487 20.03,13.09 30.17875,6.5712 10.14876,-6.5187 13.09001,-20.03 6.57126,-30.1787"
         inkscape:connector-curvature="0" />
      <path
         id="path33820"
         style="fill:#545a5f;fill-opacity:1;fill-rule:nonzero;stroke:none"
         d="m -823.36347,-1274.3313 c -10.14876,6.52 -13.09126,20.0313 -6.57251,30.18 6.52001,10.1475 20.03126,13.09 30.18001,6.5713 10.1475,-6.52 13.09,-20.0313 6.57125,-30.18 -6.51875,-10.1475 -20.03125,-13.09 -30.17875,-6.5713"
         inkscape:connector-curvature="0" />
      <path
         id="path33822"
         style="fill:#231f20;fill-opacity:1;fill-rule:nonzero;stroke:none"
         d="m -850.43723,-1333.3525 c -3.3825,2.1737 -4.36375,6.6775 -2.19,10.06 2.1725,3.3825 6.67625,4.3637 10.06,2.1912 3.3825,-2.1737 4.3625,-6.6775 2.19,-10.06 -2.17375,-3.3837 -6.6775,-4.3637 -10.06,-2.1912"
         inkscape:connector-curvature="0" />
      <path
         id="path33824"
         style="fill:#231f20;fill-opacity:1;fill-rule:nonzero;stroke:none"
         d="m -904.53974,-1298.5975 c 3.3825,-2.1725 4.3625,-6.6763 2.19,-10.06 -2.17375,-3.3825 -6.6775,-4.3625 -10.06,-2.19 -3.3825,2.1725 -4.36375,6.6762 -2.19,10.06 2.1725,3.3825 6.67625,4.3625 10.06,2.19"
         inkscape:connector-curvature="0" />
      <path
         id="path33826"
         style="fill:#545a5f;fill-opacity:1;fill-rule:nonzero;stroke:none"
         d="m -622.44969,-1228.0825 c -3.7,-5.3013 -11,-16.3313 -23.81251,-13.5163 -3.2375,0.71 -6.8125,2.285 -10.775,5.07 -4.1375,2.9063 -6.9,6.0788 -8.2375,9.4275 -2.2375,5.6225 -0.4375,11.7438 5.725,17.9463 9.85,9.8987 15.45,16.845 33.02501,16.4362 17.575,-0.4087 8.6875,-28.7262 4.075,-35.3637"
         inkscape:connector-curvature="0" />
      <path
         id="path33828"
         style="fill:#f57fab;fill-opacity:1;fill-rule:nonzero;stroke:none"
         d="m -862.97098,-1487.5563 c -1.74375,-16.1838 -9.46125,-47.28 -20.21375,-48.3038 -10.75251,-1.0237 -12.17126,41.4813 -10.80001,55.495 1.3725,14.0138 4.315,18.1975 10.83251,16.8625 8.65875,-1.7725 21.92625,-7.8687 20.18125,-24.0537"
         inkscape:connector-curvature="0" />
      <path
         id="path33830"
         style="fill:#f57fab;fill-opacity:1;fill-rule:nonzero;stroke:none"
         d="m -941.44224,-1462.0251 c -3.4225,-13.6587 -19.06126,-53.2087 -28.84251,-48.6262 -9.78125,4.5825 -6.585,36.4612 -2.7825,52.29 3.80375,15.8275 18.3475,17.105 27.09751,15.86 6.5875,-0.9363 7.95125,-5.8663 4.5275,-19.5238"
         inkscape:connector-curvature="0" />
      <path
         id="path33832"
         style="fill:#545a5f;fill-opacity:1;fill-rule:nonzero;stroke:none"
         d="m -929.35724,-1456.2076 c 0,0 -22.12,14.21 -9.3175,26.6563 0,0 -12.32375,12.2425 1.2075,21.3362 0,0 -7.9475,20.0075 13.40875,23.5938 0,0 3.46875,13.1537 21.76625,12.455 0,0 18.58876,15.46 30.21126,-8.35 0,0 21.5575,-14.3288 9.33875,-28.1113 0,0 10.285,-17.6625 -3.75875,-23.0625 0,0 -3.49125,-25.6375 -22.86001,-21.3675 0,0 -17.175,-4.93 -17.5225,-19.585 l 0,0 c -0.14625,-6.0875 -17.22875,2.3862 -21.59375,11.2475 -0.8625,1.7512 -1.23875,3.5175 -0.88,5.1887"
         inkscape:connector-curvature="0" />
    </g>
  </g>
</svg>
