<?xml version="1.0" encoding="UTF-8" standalone="no"?>
<!-- Created with Inkscape (http://www.inkscape.org/) -->

<svg
   xmlns:dc="http://purl.org/dc/elements/1.1/"
   xmlns:cc="http://creativecommons.org/ns#"
   xmlns:rdf="http://www.w3.org/1999/02/22-rdf-syntax-ns#"
   xmlns:svg="http://www.w3.org/2000/svg"
   xmlns="http://www.w3.org/2000/svg"
   xmlns:sodipodi="http://sodipodi.sourceforge.net/DTD/sodipodi-0.dtd"
   xmlns:inkscape="http://www.inkscape.org/namespaces/inkscape"
   id="svg2"
   version="1.1"
   inkscape:version="0.48.4 r9939"
   width="181.97049"
   height="171.61069"
   xml:space="preserve"
   sodipodi:docname="metrô.svg"><metadata
     id="metadata8"><rdf:RDF><cc:Work
         rdf:about=""><dc:format>image/svg+xml</dc:format><dc:type
           rdf:resource="http://purl.org/dc/dcmitype/StillImage" /><dc:title></dc:title></cc:Work></rdf:RDF></metadata><defs
     id="defs6"><filter
       inkscape:collect="always"
       id="filter3880"
       color-interpolation-filters="sRGB"><feGaussianBlur
         inkscape:collect="always"
         stdDeviation="1.3546907"
         id="feGaussianBlur3882" /></filter></defs><sodipodi:namedview
     pagecolor="#ffffff"
     bordercolor="#666666"
     borderopacity="1"
     objecttolerance="10"
     gridtolerance="10"
     guidetolerance="10"
     inkscape:pageopacity="0"
     inkscape:pageshadow="2"
     inkscape:window-width="1600"
     inkscape:window-height="874"
     id="namedview4"
     showgrid="false"
     inkscape:zoom="2.3499699"
     inkscape:cx="60.736767"
     inkscape:cy="137.76273"
     inkscape:window-x="0"
     inkscape:window-y="1"
     inkscape:window-maximized="1"
     inkscape:current-layer="g10" /><g
     id="g10"
     inkscape:groupmode="layer"
     inkscape:label="metrô"
     transform="matrix(1.25,0,0,-1.25,-100.08724,264.0846)"><g
       transform="matrix(0.66349321,0,0,0.77469567,27.820698,17.287019)"
       id="g3836"
       style="fill:#333333;stroke:#333333;stroke-width:2.4504087;stroke-linejoin:round;stroke-miterlimit:4;stroke-dasharray:none;filter:url(#filter3880)"><path
         sodipodi:nodetypes="cccccccccccccccccccccccccccccccccccccccccscccccccccccccccccc"
         inkscape:connector-curvature="0"
         id="path3838"
         style="fill:#333333;fill-opacity:1;fill-rule:nonzero;stroke:#333333;stroke-width:2.4504087;stroke-linejoin:round;stroke-miterlimit:4;stroke-dasharray:none"
         d="m 202.78219,77.650725 4.36068,0 22.98956,0 -39.24078,21.531531 -32.50245,6.470054 c 19.55552,-12.501861 34.35267,-21.837768 44.39299,-28.001585 m 8.9847,119.931565 0,0.13124 c -0.0898,0 -0.13205,0.0453 -0.13205,0.13202 l -4.49197,28.13436 c -0.44144,2.73077 -2.55499,4.09463 -6.34295,4.09463 l -23.91313,0.52804 0,-0.26402 4.09582,-2.64098 18.09914,0 c 4.14111,0.35075 6.29766,-0.92638 6.47423,-3.83138 l 1.0587,-6.47312 0.13205,-0.13201 3.03789,-19.41552 0,-0.13202 0.92357,-5.28195 0,-0.13201 0.7946,-4.88669 c 0.0875,-1.58643 -0.17658,-2.77376 -0.7946,-3.56813 -0.70477,-0.79129 -1.80492,-1.14511 -3.30199,-1.05531 l -42.67405,0 c -3.08319,-0.26402 -5.06545,0.9233 -5.94757,3.56505 l 0,0.13124 -0.65948,5.81384 0,0.13201 -0.65948,5.15071 c 0,0.0867 0.0445,0.13124 0.13205,0.13124 -0.0875,0.003 -0.13205,0.0453 -0.13205,0.13202 l -2.11431,19.41552 -0.5282,0 c 0.18349,0.006 0.36006,0.0483 0.5282,0.13201 l -0.79153,7.13241 c -0.0906,1.23491 0.17351,2.1137 0.79153,2.64405 0.61725,0.52804 1.58612,0.70456 2.90584,0.52804 l 20.21576,0 -2.37841,1.58259 c -0.35392,-0.17346 -0.7493,-0.26325 -1.18998,-0.26325 -0.52819,0 -0.96887,0.17652 -1.31972,0.53034 -0.35392,0.26402 -0.53127,0.61477 -0.53127,1.05532 l -17.30684,0.39603 c -2.02373,-0.0875 -3.12465,-1.31934 -3.30123,-3.69706 l 2.7738,-29.456 0,-0.13202 1.31972,-14.92409 c 0.5305,-2.02698 2.46824,-3.17209 5.81476,-3.43535 l 46.37526,0 c 1.84714,0.0898 3.21523,0.48507 4.09351,1.18963 0.7946,0.70457 1.19074,1.67316 1.19074,2.905 l -2.24636,14.13357 m 81.91253,-119.931565 0,27.606315 -35.80367,15.45445 -17.83505,-17.04088 49.94135,-26.019885 z" /><path
         inkscape:connector-curvature="0"
         id="path3840"
         style="fill:#333333;fill-opacity:1;fill-rule:nonzero;stroke:#333333;stroke-width:2.4504087;stroke-linejoin:round;stroke-miterlimit:4;stroke-dasharray:none"
         d="m 240.0407,103.67061 -0.13205,0 -49.017,-4.488354 39.24078,-21.531531 59.84962,0 -49.94135,26.019885 m -29.33251,126.27268 c -0.9681,3.16825 -3.69737,4.7969 -8.1901,4.88669 l -49.67725,1.45059 c -0.61725,-0.0867 -1.14544,-0.30547 -1.58612,-0.65929 l -0.13205,0 0,-0.13201 c -0.0867,0 -0.13205,-0.0445 -0.13205,-0.13201 -0.70477,-0.61707 -1.14544,-1.58566 -1.31972,-2.905 l 1.45177,-13.73677 0,-0.13201 2.24637,-20.73793 0,-0.13202 1.98227,-19.41552 0,-0.65929 c 0.0867,-0.35381 0.17657,-0.66235 0.26409,-0.92637 l 0.52743,-0.7913 c 0.88135,-1.14511 2.33619,-1.67315 4.36069,-1.58643 l 51.79156,0 c 2.73157,0.35382 4.53726,1.67316 5.41554,3.96339 0.96887,2.37772 0.96887,5.72404 0,10.03817 l -1.58305,9.24611 0,0.26326 -5.41938,32.09774 m 1.3228,-32.09774 0,-0.13202 2.37841,-14.1328 c 0,-1.49586 -0.44144,-2.64098 -1.32279,-3.43227 -0.96887,-0.70457 -2.41987,-1.1006 -4.35761,-1.1904 l -46.37526,0 c -3.52387,0.26402 -5.54836,1.54115 -6.07886,3.83138 l -0.13205,0 -1.31972,14.79285 0,0.26326 -2.64174,29.456 c 0.1735,2.55118 1.36425,3.91887 3.56532,4.09232 l 17.30684,-0.39526 c 0.0906,0.35382 0.26717,0.65928 0.53127,0.92637 0.35085,0.35075 0.79153,0.52728 1.31972,0.52728 0.52743,0 1.0134,-0.17653 1.45407,-0.52728 0.2641,-0.26709 0.44068,-0.57255 0.5282,-0.92637 l 23.91313,-0.52804 c 4.05129,0 6.29766,-1.49587 6.73833,-4.49066 l 4.49274,-28.13436 z" /><path
         inkscape:connector-curvature="0"
         id="path3842"
         style="fill:#333333;fill-opacity:1;fill-rule:nonzero;stroke:#333333;stroke-width:2.4504087;stroke-linejoin:round;stroke-miterlimit:4;stroke-dasharray:none"
         d="m 282.84757,132.33532 -0.13205,0 0,-0.13508 -34.74881,-1.84661 0,-10.04048 9.51289,0.53035 0.13205,0.13201 c 0,0.0867 0.0453,0.13201 0.13205,0.13201 l 0.13205,-0.13201 0,-0.13201 18.23349,1.18732 c 3.87471,0.44055 5.85698,1.40914 5.94373,2.905 l 0.7946,7.3995 m -160.13076,77.00205 -7.79396,-2.64175 0.39538,-17.43306 7.39858,0 0,20.07481 m -3.96147,-3.30103 3.16994,-4.0954 -0.92664,-1.98169 -1.31972,1.1904 0,-4.75469 1.18767,1.71461 1.05869,-1.45135 -2.64251,-4.35865 -3.04096,4.22664 1.05869,0.92407 1.18767,-1.58643 -0.39538,5.2858 -1.05562,-2.11371 -1.19074,1.05532 2.90891,5.94508 m 34.21755,-80.96851 0,-10.43343 46.10886,2.77375 0,10.17172 -46.10886,-2.51204 m 61.17241,40.02145 -0.13205,-0.13201 -7.00243,-12.67915 0,-0.13201 -0.79459,-1.45365 -0.13205,0 0,-0.13201 -54.16691,-2.24572 0.92357,-10.0374 c 0.35085,0.0867 0.75007,0.13201 1.18767,0.13201 8.72061,0.52727 23.64981,1.32164 44.78914,2.37772 l 1.58612,0 c 12.85942,0.7038 27.92067,1.49587 45.18529,2.37696 1.14545,0 2.24637,0.0453 3.30199,0.13201 10.30672,0.52804 21.40574,1.05839 33.29704,1.58566 l 1.9792,0.13201 0.13205,0.52805 -1.58382,6.60436 0,0.26402 -10.83492,45.17216 0,0.13124 -6.60705,28.00236 -0.13128,0 c -0.44144,3.96338 -2.24636,6.60436 -5.4163,7.9237 -14.53306,6.42784 -31.6211,10.30449 -51.26414,11.62306 -20.34474,0.96859 -39.15096,-0.65928 -56.41251,-4.88669 -0.35392,-0.0867 -0.66255,-0.17652 -0.92665,-0.26325 l -0.13205,0 c -2.99259,-0.79207 -5.59288,-1.75989 -7.79395,-2.90577 l 7.26653,-73.437 63.55005,1.45058 0.13205,-0.13124 m -11.62721,70.13597 c 4.66931,-0.17653 7.53063,-1.93641 8.58932,-5.28196 l 5.41554,-32.09774 0,-0.13202 1.58382,-9.37735 c 0.97194,-4.40163 0.97194,-7.79246 0,-10.16941 -0.96887,-2.46753 -2.86132,-3.87359 -5.67964,-4.22741 l -51.92361,0 c -3.16994,0 -5.02016,1.1904 -5.54836,3.56735 l -1.98227,20.07558 0,0.26326 -2.24636,20.60592 0,0.26402 -1.45408,13.73677 c 0.2664,1.58336 0.7946,2.68626 1.58612,3.30103 l 0,0.13201 0.13205,0 c 0.5282,0.44055 1.14545,0.66236 1.85022,0.66236 l 49.67725,-1.32241 m 22.72316,-51.90777 0,0.13124 16.91377,0 0,-0.13124 2.64251,-9.64214 0,-0.13201 -0.13205,-0.13201 -6.87114,0 c -0.35316,-0.0898 -0.65948,-0.13201 -0.92665,-0.13201 -0.35085,0 -0.65948,0.0422 -0.92357,0.13201 l -8.7206,0 0,0.13201 -1.98227,9.77415 m -8.7183,-18.09696 0,-0.13124 0.66024,-3.69706 0,-0.13201 -5.1522,-8.98209 c 0,-0.0867 -0.0453,-0.13201 -0.13205,-0.13201 l -0.65948,-1.18963 0,-0.13201 -3.70121,-0.13201 c -0.0867,0 -0.13205,0.0445 -0.13205,0.13201 l 0,0.13201 0.7923,1.32164 0,0.13201 0.13205,0 6.73833,12.81039 0.13205,0.13201 1.19074,0 0.13128,-0.13201 m 5.15221,0.13201 c 0.0875,0 0.13205,-0.0414 0.13205,-0.13201 l 0.39615,-5.67798 0,-0.13201 -4.36069,-7.13241 0,-0.13201 -0.65948,-0.92638 0,-0.13201 -0.13204,0 -4.75607,-0.26325 -0.13205,0.13201 0,0.26325 0.65948,1.05839 c 0,0.0867 0.0453,0.13201 0.13205,0.13201 l 0,0.13201 7.26653,12.81039 0.13205,0.13509 1.19074,0 c 0.0867,0 0.13128,-0.0453 0.13128,-0.13509 m 4.62478,0.13509 0.13205,0 0,0.13201 1.05562,0 0,-0.13201 0.13436,0 1.84791,-4.75469 0,-0.13508 -5.15221,-8.31973 -0.13205,0 0,-0.13201 -0.39614,-0.65929 -0.13205,-0.13201 -5.55066,-0.13508 0,0.26709 0.5305,0.7913 c 0,0.0867 0.0422,0.13201 0.13205,0.13201 l 0,0.13201 7.53062,12.94548 m 33.02988,1.05531 c 0,0.0867 0.0453,0.13201 0.13205,0.13201 l 14.79715,0 c 0.0898,0 0.13128,-0.0453 0.13128,-0.13201 l 0.13205,0 2.90891,-12.81039 0,-0.13508 -0.13435,0 c 0,-0.0867 -0.0422,-0.13201 -0.13205,-0.13201 l -15.58867,-0.7913 -0.13205,0 c -0.0898,0 -0.13205,0.0445 -0.13205,0.13201 l -1.98227,13.60476 0,0.13201 m -20.61114,16.64254 c 0.61725,-0.26402 1.18997,-0.66005 1.71817,-1.1904 0.96887,-0.96859 1.45407,-2.15591 1.45407,-3.56505 0,-1.40914 -0.4852,-2.5957 -1.45407,-3.56735 -0.44068,-0.52805 -0.92358,-0.8788 -1.45484,-1.05532 l 5.41938,0 -2.51047,9.37812 -3.17224,0 m -7.00243,-4.75545 c 0,1.40914 0.52743,2.59646 1.58612,3.56505 0.44068,0.53035 0.96887,0.92638 1.58612,1.1904 l -9.24879,0 1.84791,-9.37812 7.26883,0 c -0.53049,0.17652 -1.01339,0.52727 -1.45407,1.05532 -1.05869,0.97165 -1.58612,2.15821 -1.58612,3.56735 m 1.85022,3.30103 c -0.96887,-0.87802 -1.45484,-1.97862 -1.45484,-3.30103 0,-1.32164 0.48597,-2.42224 1.45484,-3.30026 0.70477,-0.70457 1.4963,-1.14589 2.37765,-1.32241 l 1.71893,0 c 0.96811,0.17652 1.80493,0.61784 2.5097,1.32241 0.96887,0.87802 1.45177,1.97862 1.45177,3.30026 0,1.32241 -0.4829,2.42301 -1.45177,3.30103 -0.88135,0.88186 -1.93697,1.36692 -3.17301,1.45442 l -0.26333,0 c -1.23297,-0.0875 -2.28859,-0.57256 -3.16994,-1.45442 m -0.13205,-3.30103 c 0,1.05532 0.35085,1.93718 1.05562,2.64175 0.70478,0.70456 1.58613,1.05838 2.64482,1.05838 0.96887,0 1.80569,-0.35382 2.51046,-1.05838 0.70478,-0.70457 1.05563,-1.58643 1.05563,-2.64175 0,-0.96782 -0.35085,-1.8044 -1.05563,-2.50897 -0.70477,-0.70457 -1.54159,-1.05838 -2.51046,-1.05838 -1.05869,0 -1.94004,0.35381 -2.64482,1.05838 -0.70477,0.70457 -1.05562,1.54115 -1.05562,2.50897 m 1.32202,2.37772 c -0.61725,-0.61784 -0.92664,-1.40913 -0.92664,-2.37772 0,-0.88109 0.30939,-1.62787 0.92664,-2.24495 0.61495,-0.61784 1.40725,-0.92407 2.37842,-0.92407 0.87905,0 1.62835,0.30623 2.24329,0.92407 0.61802,0.61708 0.92665,1.36386 0.92665,2.24495 0,0.96859 -0.30863,1.75988 -0.92665,2.37772 -0.61494,0.61784 -1.36424,0.92331 -2.24329,0.92331 -0.97117,0 -1.76347,-0.30547 -2.37842,-0.92331 z" /><path
         inkscape:connector-curvature="0"
         id="path3844"
         style="fill:#333333;fill-opacity:1;fill-rule:nonzero;stroke:#333333;stroke-width:2.4504087;stroke-linejoin:round;stroke-miterlimit:4;stroke-dasharray:none"
         d="m 150.99062,125.73019 -0.13205,0 -21.00728,7.00039 6.60628,-11.2278 14.53305,-6.20833 0.13205,0 0.13205,-0.13201 1.32203,-0.52804 0,10.70052 -1.45408,0.52728 c 0,-0.0898 -0.0422,-0.13201 -0.13205,-0.13201 m -21.53548,7.39643 0,-0.13202 0.13205,0 -0.13205,0.13202 m 21.66753,15.0561 -0.13205,-0.13201 -2.37841,-0.52727 1.05869,-8.19079 c 0.43837,-0.0867 0.87905,-0.21874 1.31972,-0.39604 l 0.13205,0 c 0.52743,-0.17345 0.96887,-0.30546 1.32279,-0.39526 l -0.92664,9.64137 -0.39615,0 m -8.1901,88.89298 -4.88811,-2.50974 8.71753,-71.72239 3.30506,0.92637 -7.13448,73.30576 z" /><path
         inkscape:connector-curvature="0"
         id="path3846"
         style="fill:#333333;fill-opacity:1;fill-rule:nonzero;stroke:#333333;stroke-width:2.4504087;stroke-linejoin:round;stroke-miterlimit:4;stroke-opacity:1;stroke-dasharray:none"
         d="m 282.32014,142.50474 c 0,0.0867 -0.0453,0.13201 -0.13204,0.13201 l -33.1627,-1.45442 -0.13435,-0.13201 0,-8.715 0.13435,0 32.76348,1.97862 0.13205,0.13201 0.5305,7.92678 0,0.13201 -0.13129,0 m -0.26716,-0.26403 -0.39615,-7.52843 -32.36733,-1.9817 0,8.05648 32.76348,1.45365 m -127.89242,-5.68105 -0.13204,0 -0.13205,-0.13201 0.26409,-8.84778 0.13512,-0.13431 0.13205,0 44.38992,2.51204 0.13205,0 c 0.0898,0 0.13205,0.0422 0.13205,0.13201 l 0,8.847 c 0,0.0906 -0.0422,0.13201 -0.13205,0.13201 l -0.13205,0.13201 -44.65709,-2.64097 m 0.39922,-8.71577 -0.2641,8.45175 44.38992,2.50896 0,-8.58298 -44.12582,-2.37773 m -71.34478,69.47438 0,-0.39603 9.908273,3.16902 0,-6.73637 -9.908273,-2.37773 0,-0.26402 9.908273,2.24571 0,-16.51052 -9.908273,0 0,-0.39527 10.17237,0 0.132049,0.13201 0,24.30222 -0.264097,0 L 83.215,197.31827 m 39.89796,12.28312 -0.13205,0.13201 -0.13205,0 -8.1901,-2.77375 0.52742,-28.00159 7.92678,0 0,30.64333 m -8.19011,-2.90577 7.79396,2.64175 0,-20.07481 -7.39858,0 -0.39538,17.43306 m 7.79396,-27.47354 -7.26653,0 0,0.13201 -0.13205,9.50937 7.39858,0 0,-9.64138 m 3.30506,31.96497 c -0.0906,0 -0.13205,-0.0453 -0.13205,-0.13201 l -0.92664,-34.07867 16.77865,0 0,0.13201 -5.28426,37.3797 0,0.13201 -0.13128,0 -10.30442,-3.43304 m -0.13205,-11.2278 0.13205,1.84968 11.62644,2.37773 0.2641,-1.9817 -6.07885,-1.05531 c 0,-0.0898 -0.0453,-0.13201 -0.13205,-0.13201 l 0,-23.77725 -1.71817,0 0,23.37891 -0.13205,0.13125 -0.13205,0 -3.82942,-0.7913 m 0.13205,2.24571 0.13205,8.71807 10.04032,3.30103 1.31895,-9.64137 -11.49132,-2.37773 m -0.66332,-24.96457 0.53127,22.3236 3.69737,0.79129 0,-23.11489 -4.22864,0 m 6.7391,23.51016 5.81476,1.19039 3.43404,-24.70055 -9.2488,0 0,23.51016 m 140.1791,-2.905 -6.73603,28.00235 c -0.53049,4.05011 -2.42294,6.78165 -5.6827,8.18772 -14.53306,6.43014 -31.66563,10.30373 -51.39619,11.62307 -20.34474,0.96858 -39.19242,-0.70457 -56.54456,-5.01871 -0.26717,-0.0867 -0.5305,-0.13201 -0.7946,-0.13201 -0.0867,0 -0.13205,-0.0422 -0.13205,-0.13201 l -0.13205,0 c -2.99566,-0.79129 -5.63818,-1.75988 -7.926,-2.905 l -36.33494,-16.77378 -0.13205,0 -1.31972,-0.66005 -0.13205,0 -21.79881,-9.90846 0,-0.39527 21.93086,9.9054 0,0.13201 0.13205,0 1.31972,0.53034 0.13205,0 0,0.13201 30.91863,14.00079 7.39858,-60.89062 -30.52018,0 -0.13205,-0.13201 0,0.13201 -2.11432,0 0,42.26716 c 0,0.0867 -0.0445,0.13124 -0.13205,0.13124 l 0,0.13201 -0.13205,0 -28.80124,-11.49105 0,-0.26402 15.060482,5.94201 0,-36.45333 -15.060482,0 0,-0.26402 15.060482,0 0,-21.1332 -15.060482,3.83138 0,-0.39834 15.192531,-3.82907 c 0,-0.0898 0.04453,-0.13124 0.132049,-0.13124 l 11.75849,-2.90577 0.13205,0 1.58612,-0.39834 0,-0.13201 2.24637,-0.52804 0.2641,0 34.87779,-8.85008 c 0.5305,-0.17345 1.0134,-0.30546 1.45407,-0.39526 l 0.13205,0 c 0,-0.0875 0.0453,-0.13201 0.13205,-0.13201 0.52743,-0.17729 0.96887,-0.3093 1.32279,-0.39603 l 0.13129,-0.39603 0,-12.15111 0.13204,-0.13125 -0.13204,0 0,-10.83253 -1.32203,0.52804 -0.13205,0.13201 -0.13205,0 -14.53305,6.20833 -6.60628,11.2278 21.00728,-7.00039 0.13205,0 c 0.0898,0 0.13205,0.0422 0.13205,0.13201 l 0,0.13201 c 0,0.0867 -0.0422,0.13201 -0.13205,0.13201 l -21.40343,7.0004 c -7.39858,2.55425 -12.41874,4.26961 -15.06048,5.15071 l -0.13205,0 -31.17966,10.30142 0,-9.51013 17.57095,-7.79169 0.26333,0 5.4163,-2.50973 0.13205,0 44.26094,-19.67878 c 0,-0.0898 0.0453,-0.13201 0.13205,-0.13201 l 7.26653,-3.17209 0.13205,-0.13201 32.50245,-6.470054 49.017,4.488354 0.13205,0 17.83505,17.04088 0,0.26402 -0.13205,0.13201 c -0.0867,0 -0.13205,-0.0453 -0.13205,-0.13201 l -0.13205,-0.13201 -9.51289,-0.53035 0,10.04048 34.74881,1.84661 0,0.3991 -36.73108,-1.98169 0,9.77338 -0.13128,0.13201 -0.13205,0 c -0.35085,0 -0.70477,-0.0453 -1.05562,-0.13201 -14.62288,-1.14511 -29.33251,-1.80517 -44.12967,-1.98169 -0.0867,0 -0.13204,-0.0453 -0.13204,-0.13201 -0.0868,0 -0.13129,-0.0453 -0.13129,-0.13201 l 0,-10.03741 -47.2996,-2.64098 0,12.41437 -0.13205,0.13201 1.18768,0 c 8.80812,0.52804 23.73962,1.31934 44.78913,2.37772 l 1.58613,0 c 12.85941,0.70457 27.92066,1.49587 45.18528,2.37773 1.14545,0 2.24637,0.0445 3.30199,0.13124 10.30672,0.52804 21.40574,1.05532 33.29705,1.58643 l 1.97919,0.13201 -1.45177,-12.0191 0.2641,0 0,-0.13201 c 0.0867,0 0.13205,-0.0453 0.13205,-0.13201 l 1.45407,12.41513 0,0.13124 0.13205,0.66006 0,0.13201 -1.58612,6.60436 0,0.13201 -0.2641,1.32241 -10.57082,43.981 0,0.13201 m -58.26349,-32.88828 0.13204,0.13201 -0.13204,0.13124 -63.55006,-1.45058 -7.26653,73.437 c 2.20107,1.14588 4.80136,2.11371 7.79395,2.90577 l 0.13205,0 c 0.2641,0.0867 0.57273,0.17652 0.92665,0.26325 17.26155,4.22741 36.06777,5.85528 56.41251,4.88669 19.64304,-1.31857 36.73108,-5.19522 51.26414,-11.62306 3.16994,-1.31934 4.97486,-3.96032 5.4163,-7.9237 l 0.13129,0 6.60705,-28.00235 0,-0.13125 10.83491,-45.17216 0,-0.26402 1.58382,-6.60436 -0.13205,-0.52805 -1.97919,-0.13201 c -11.89131,-0.52727 -22.99033,-1.05762 -33.29705,-1.58566 -1.05562,-0.0867 -2.15654,-0.13201 -3.30199,-0.13201 -17.26462,-0.88109 -32.32587,-1.67316 -45.18528,-2.37696 l -1.58613,0 c -21.13933,-1.05608 -36.06853,-1.85045 -44.78913,-2.37772 -0.43761,0 -0.83683,-0.0453 -1.18768,-0.13201 l -0.92357,10.0374 54.16691,2.24572 0,0.13201 0.13205,0 0.7946,1.45365 0,0.13201 7.00243,12.67915 m -75.9688,69.60869 4.88811,2.50974 7.13448,-73.30576 -3.30506,-0.92637 -8.71753,71.72239 m -27.61434,-19.5506 1.45484,0.53111 0,-66.56938 -0.79536,0.13201 -0.52743,0.13201 0,58.90893 c -0.0867,3.07922 -0.13205,5.36945 -0.13205,6.86532 m -0.39615,-0.13201 c 0,-1.58259 0.0453,-3.82831 0.13205,-6.73331 l 0,-58.77692 -9.24879,2.37773 0,59.56821 9.11674,3.56429 m -11.362341,-4.49066 1.850221,0.79436 0,-59.4362 -1.850221,0.52727 0,58.11457 m 48.090361,-47.94515 3.43711,0.92637 0.52743,-6.47235 0,-0.13201 0.52819,-4.35942 0,-0.26402 0.2641,-3.56736 -0.39615,-0.13201 -0.2641,0 -2.24636,-0.52804 -1.85022,14.52884 m -34.48165,10.70052 32.8986,0 4.09351,-33.68033 -34.74574,8.71499 -0.13205,0.13201 -2.11432,0.52805 0,24.30528 m 38.84233,-16.37851 0,0.26325 -0.65947,6.34111 63.15391,1.45135 -6.87038,-12.28312 0,-0.13201 c -0.0898,0 -0.13205,-0.0453 -0.13205,-0.13201 l -0.66255,-1.32164 -54.03486,-2.37773 -0.39845,3.69937 0,0.13201 -0.39615,4.35942 m -0.13205,-8.71884 0.13205,0.13201 0.39615,0 0.92664,-9.64137 c -0.35392,0.0898 -0.79536,0.22181 -1.32279,0.39526 l -0.13205,0 c -0.44067,0.1773 -0.88135,0.30931 -1.31972,0.39604 l -1.05869,8.19079 2.37841,0.52727 m 1.98227,-33.41631 0,10.43343 46.10886,2.51204 0,-10.17172 -46.10886,-2.77375 m -23.51775,18.3602 0,0.13202 0.13205,-0.13202 -0.13205,0 m 114.15165,7.0004 c 0.35392,0 0.70477,0.0422 1.0587,0.13201 l 0.92357,0 0,-9.64137 c -12.85941,-3.70014 -27.83314,-4.49143 -44.92119,-2.37773 l 0,9.9054 0.39615,0 c 14.26896,0.26402 28.45039,0.9233 42.54277,1.98169 m -136.47866,66.56938 c 0,0.0867 -0.0445,0.13124 -0.13205,0.13124 l -0.13128,0 -3.70121,-1.84968 c -0.0867,0 -0.13204,-0.0445 -0.13204,-0.13201 l 0,-27.33923 c 0,-0.0898 0.0453,-0.13431 0.13204,-0.13431 l 3.96454,0.26632 0,29.05767 m -3.83249,-2.1137 3.43404,1.71767 0,-28.39761 -3.43404,-0.13202 0,26.81196 m 156.16623,-37.77574 c -0.0867,0 -0.13205,-0.0453 -0.13205,-0.13201 l 0,-0.13201 1.98227,-13.60476 c 0,-0.0875 0.0422,-0.13201 0.13205,-0.13201 l 0.13205,0 15.58867,0.7913 c 0.0898,0 0.13205,0.0453 0.13205,0.13201 l 0.13436,0 0,0.13508 -2.90892,12.81039 -0.13205,0 c 0,0.0867 -0.0414,0.13201 -0.13128,0.13201 l -14.79715,0 m 0.2641,-0.39603 14.401,0 2.90585,-12.41436 -15.32458,-0.92638 -1.98227,13.34074 m -33.29398,-0.79129 -0.13205,0 -7.53062,-12.94548 0,-0.13201 c -0.0898,0 -0.13205,-0.0453 -0.13205,-0.13201 l -0.5305,-0.7913 0,-0.26709 5.55066,0.13508 0.13205,0.13201 0.39615,0.65929 0,0.13201 0.13204,0 5.15221,8.31973 0,0.13508 -1.84791,4.75469 -0.13435,0 0,0.13201 -1.05563,0 0,-0.13201 m 0.13205,-0.2671 0.79153,0 1.71817,-4.48759 -5.15221,-8.19079 0,-0.26402 -0.39538,-0.52727 -4.88888,-0.26403 0.39615,0.65929 0,0.13201 7.53062,12.9424 m -4.75683,0 c 0,0.0906 -0.0445,0.13202 -0.13205,0.13202 0,0.0898 -0.0445,0.13508 -0.13128,0.13508 l -1.19074,0 -0.13205,-0.13508 -7.26653,-12.8104 0,-0.13201 c -0.0867,0 -0.13205,-0.0453 -0.13205,-0.13201 l -0.65947,-1.05839 0,-0.26325 0.13204,-0.13201 4.75607,0.26325 0.13205,0 0,0.13201 0.65947,0.92638 0,0.13201 4.36069,7.13241 0,0.13201 -0.39615,5.67798 m -1.32202,-0.13124 0.92664,0 0.39538,-5.54674 -4.22864,-7.0004 0,-0.13201 -0.13128,0 -0.52819,-0.92331 -4.22864,-0.26709 0.39615,0.92638 c 0.0898,0 0.13205,0.0453 0.13205,0.13201 l 7.26653,12.81116 m -3.96224,0 0,0.13124 -0.13128,0.13202 -1.19074,0 -0.13205,-0.13202 -6.73833,-12.81039 -0.13205,0 0,-0.13201 -0.7923,-1.32164 0,-0.13201 c 0,-0.0875 0.0453,-0.13201 0.13205,-0.13201 l 3.70121,0.13201 0,0.13201 0.65948,1.18963 c 0.0867,0 0.13205,0.0453 0.13205,0.13201 l 5.15221,8.98209 0,0.13201 -0.66025,3.69706 m -1.18997,-0.13201 0.92664,0 0.52743,-3.56505 -5.02016,-8.85008 0,-0.13201 c -0.0898,0 -0.13205,-0.0453 -0.13205,-0.13201 l -0.66255,-1.05839 -3.03789,-0.13201 0.52743,1.05839 0,0.13201 0.13205,0 6.7391,12.67915 m -4.22557,64.98602 c -1.05869,3.34555 -3.92001,5.10543 -8.58932,5.28196 l -49.67725,1.32241 c -0.70477,0 -1.32202,-0.22181 -1.85022,-0.66236 l -0.13205,0 0,-0.13201 c -0.79152,-0.61477 -1.31972,-1.71767 -1.58612,-3.30103 l 1.45408,-13.73677 0,-0.26402 2.24636,-20.60592 0,-0.26326 1.98227,-20.07558 c 0.5282,-2.37695 2.37842,-3.56735 5.54836,-3.56735 l 51.92361,0 c 2.81833,0.35382 4.71077,1.75988 5.67964,4.22741 0.97194,2.37695 0.97194,5.76778 0,10.16941 l -1.58382,9.37736 0,0.13201 -5.41554,32.09774 m -8.58932,4.88669 c 4.49274,-0.0898 7.222,-1.71843 8.1901,-4.88669 l 5.41938,-32.09774 0,-0.26326 1.58305,-9.24611 c 0.96887,-4.31413 0.96887,-7.66045 0,-10.03817 -0.87827,-2.29023 -2.68397,-3.60957 -5.41554,-3.96339 l -51.79156,0 c -2.0245,-0.0867 -3.47934,0.44132 -4.36069,1.58643 l -0.52742,0.7913 c -0.0875,0.26402 -0.17735,0.57256 -0.2641,0.92637 l 0,0.65929 -1.98227,19.41553 0,0.13201 -2.24637,20.73793 0,0.13201 -1.45177,13.73677 c 0.17428,1.31934 0.61495,2.28793 1.31972,2.905 0,0.0875 0.0453,0.13201 0.13205,0.13201 l 0,0.13201 0.13205,0 c 0.44068,0.35382 0.96887,0.57256 1.58612,0.65929 l 49.67725,-1.45059 m 9.5129,-37.11644 0,0.13201 -4.49274,28.13436 c -0.44067,2.99479 -2.68704,4.49066 -6.73833,4.49066 l -23.91313,0.52804 c -0.0875,0.35382 -0.2641,0.65928 -0.52819,0.92638 -0.44068,0.35074 -0.92665,0.52727 -1.45408,0.52727 -0.52819,0 -0.96887,-0.17653 -1.31972,-0.52727 -0.2641,-0.2671 -0.44067,-0.57256 -0.53127,-0.92638 l -17.30684,0.39526 c -2.20107,-0.17345 -3.39182,-1.54114 -3.56532,-4.09232 l 2.64174,-29.456 0,-0.26326 1.31972,-14.79285 0.13205,0 c 0.5305,-2.29023 2.55499,-3.56736 6.07886,-3.83138 l 46.37526,0 c 1.93774,0.0898 3.38874,0.48583 4.35761,1.1904 0.88135,0.7913 1.32279,1.93641 1.32279,3.43227 l -2.37841,14.13281 m -0.2641,0 0,-0.13125 2.24637,-14.13357 c 0,-1.23184 -0.39615,-2.20043 -1.19075,-2.905 -0.87828,-0.70456 -2.24636,-1.09983 -4.09351,-1.18963 l -46.37526,0 c -3.34652,0.26326 -5.28426,1.40837 -5.81476,3.43535 l -1.31972,14.9241 0,0.13201 -2.7738,29.456 c 0.17658,2.37772 1.2775,3.60956 3.30123,3.69706 l 17.30684,-0.39603 c 0,-0.44055 0.17735,-0.7913 0.53127,-1.05532 0.35085,-0.35382 0.79153,-0.53034 1.31972,-0.53034 0.44068,0 0.83606,0.0898 1.18998,0.26325 l 2.37841,-1.58259 -20.21576,0 c -1.31972,0.17652 -2.28859,0 -2.90584,-0.52804 -0.61802,-0.53035 -0.88212,-1.40914 -0.79153,-2.64405 l 0.79153,-7.13241 0.39538,0 -0.79153,7.26749 c -0.0898,1.05532 0.13205,1.8044 0.66025,2.24264 0.52742,0.44055 1.40877,0.57256 2.64174,0.39834 l 20.87524,0 14.40101,-9.90847 0.66024,0 0,-0.26402 -0.2641,0 3.30429,-2.24571 3.16995,-16.50976 0.13204,-0.13201 c 0.0875,-0.17423 0.21881,-0.30624 0.39615,-0.39603 l 0,-0.13201 c 0.0898,0 0.13205,-0.0445 0.13205,-0.13125 0.35392,-0.26402 0.66255,-0.39603 0.92665,-0.39603 0.26409,-0.0867 0.48289,0.0445 0.65947,0.39603 l 0,0.13125 0.13205,0 0,0.13201 c 0.0867,0.17729 0.13205,0.35381 0.13205,0.52804 l -3.69814,18.75547 -0.2664,0 -0.13205,0.13201 c 0,0.0898 0.0453,0.13201 0.13205,0.13201 l 0.2664,0 -1.05792,5.15379 -0.13205,0.13201 -1.85022,0 0,-0.26403 0.79459,-5.02177 -0.53126,0 -14.92843,9.90847 17.57094,0 c 3.96454,0.35075 6.03356,-0.79437 6.2109,-3.43535 l 0.92358,-6.47312 0.39845,0 -1.0587,6.47312 c -0.17657,2.905 -2.33311,4.18213 -6.47423,3.83138 l -18.09914,0 -4.09582,2.64098 0,0.26402 23.91313,-0.52804 c 3.78796,0 5.90151,-1.36386 6.34295,-4.09463 l 4.49197,-28.13436 c 0,-0.0867 0.0422,-0.13201 0.13205,-0.13201 m -15.1956,24.56623 1.19074,0 4.88811,-23.90618 -0.2641,-0.52804 0,-0.13201 c -0.17657,-0.17653 -0.30862,-0.26326 -0.39537,-0.26326 -0.17735,0.0867 -0.39615,0.21874 -0.66332,0.39527 0,0.0898 -0.0415,0.13201 -0.13128,0.13201 -0.0875,0.0898 -0.21957,0.26402 -0.39615,0.52804 l -4.22863,23.77417 m 0.39921,-5.67798 0.26333,-1.18733 -21.00728,14.26481 c 0,0.0867 -0.0445,0.13201 -0.13205,0.13201 l -0.13205,-0.13201 c -0.26333,-0.17729 -0.61725,-0.26402 -1.05793,-0.26402 -0.35085,0 -0.70477,0.13201 -1.05562,0.39603 -0.2641,0.26326 -0.39615,0.57256 -0.39615,0.92331 l 0,0.13201 c 0,0.35382 0.13205,0.61707 0.39615,0.79129 0.35085,0.2671 0.70477,0.39834 1.05562,0.39834 0.44068,0 0.83606,-0.13124 1.18998,-0.39834 0.2641,-0.26402 0.39614,-0.56948 0.39614,-0.9233 l 0,-0.52804 4.22864,-2.77299 0,-0.13201 15.58791,-10.17249 0.66331,-0.52727 m -41.61919,0.79129 c -0.16813,-0.0837 -0.34471,-0.12587 -0.5282,-0.13201 l 0.5282,0 0,0.13201 m 2.50969,-19.67954 0,0.13201 -2.11431,19.28351 -0.26333,0 -0.13205,0.13201 2.11432,-19.41552 c 0,-0.0867 0.0445,-0.12894 0.13204,-0.13201 -0.0875,0 -0.13204,-0.0445 -0.13204,-0.13125 l 0.65947,-5.15071 0.13205,0.13124 0.13205,0 -0.5282,5.15072 m 48.75368,19.41552 -0.2641,0 3.03789,-19.28351 c 0,-0.0867 0.0422,-0.12894 0.13205,-0.13201 -0.0898,0 -0.13205,-0.0445 -0.13205,-0.13125 l 0.92435,-5.01947 0.26333,0 0,-0.26325 -0.26333,0 0,-0.13201 0.79459,-4.88669 c 0.0868,-1.40914 -0.13512,-2.46753 -0.66255,-3.17209 -0.61494,-0.70457 -1.62911,-1.05532 -3.03866,-1.05532 l -42.67405,0 c -2.90661,-0.17729 -4.80136,0.96859 -5.6804,3.43227 l -0.5305,5.68183 0,0.13201 -0.2641,0 c -0.0837,0 -0.12898,0.0445 -0.13205,0.13201 l 0,-0.13201 0.65948,-5.81384 0,-0.13124 c 0.88212,-2.64175 2.86438,-3.82907 5.94757,-3.56505 l 42.67405,0 c 1.49707,-0.0898 2.59722,0.26402 3.30199,1.05531 0.61802,0.79437 0.88212,1.9817 0.7946,3.56813 l -0.7946,4.88669 0,0.13201 -0.92357,5.28196 0,0.13201 -3.03789,19.41552 -0.13205,0.13201 0,-0.26402 z" /><path
         inkscape:connector-curvature="0"
         id="path3848"
         style="fill:#333333;fill-opacity:1;fill-rule:nonzero;stroke:#333333;stroke-width:2.4504087;stroke-linejoin:round;stroke-miterlimit:4;stroke-dasharray:none"
         d="m 281.65683,134.71228 0.39614,7.52843 -32.76347,-1.45365 0,-8.05648 32.36733,1.9817 m -127.36115,1.58336 0.2641,-8.45175 44.12582,2.37773 0,8.58298 -44.38992,-2.50896 z" /><path
         inkscape:connector-curvature="0"
         id="path3850"
         style="fill:#333333;fill-opacity:1;fill-rule:nonzero;stroke:#333333;stroke-width:2.4504087;stroke-linejoin:round;stroke-miterlimit:4;stroke-dasharray:none"
         d="m 98.275482,173.54333 -15.060482,0 0,-17.30182 15.060482,-3.83138 0,21.1332 m 46.903458,-0.39527 -32.8986,0 0,-24.30528 2.11432,-0.52805 0.13205,-0.13201 34.74574,-8.71499 -4.09351,33.68033 z" /><path
         inkscape:connector-curvature="0"
         id="path3852"
         style="fill:#333333;fill-opacity:1;fill-rule:nonzero;stroke:#333333;stroke-width:2.4504087;stroke-linejoin:round;stroke-miterlimit:4;stroke-dasharray:none"
         d="m 83.215,190.71314 0,-14.26481 9.908272,0 0,16.51052 -9.908272,-2.24571 m 54.69741,11.2278 -5.81476,-1.1904 0,-23.51015 9.2488,0 -3.43404,24.70055 m -12.02259,-2.37696 -0.53127,-22.32359 4.22864,0 0,23.11489 -3.69737,-0.7913 m 0.2641,11.35905 -0.13205,-8.71807 11.49132,2.37773 -1.31895,9.64137 -10.04032,-3.30103 m -19.42424,-4.75468 -3.43404,-1.71767 0,-26.81196 3.43404,0.13201 0,28.39762 z" /><path
         inkscape:connector-curvature="0"
         id="path3854"
         style="fill:#333333;fill-opacity:1;fill-rule:nonzero;stroke:#333333;stroke-width:2.4504087;stroke-linejoin:round;stroke-miterlimit:4;stroke-dasharray:none"
         d="m 83.215,204.31867 0,-7.0004 10.040321,3.16902 0.264098,0 0,-24.30222 -0.132049,-0.13201 -10.17237,0 0,-2.24571 15.060482,0 0,36.45333 L 83.215,204.31867 m 23.51468,16.11449 0,-0.13201 -0.13205,0 -1.31972,-0.53034 -0.13205,0 0,-0.13201 -21.93086,-9.9054 0,-5.15071 28.80124,11.49105 0.13205,0 0,-0.13201 c 0.0875,0 0.13205,-0.0445 0.13205,-0.13124 l 0,-42.26716 2.11432,0 0,-0.13201 0.13205,0.13201 30.52018,0 -7.39858,60.89062 -30.91863,-14.00079 m 19.16014,-9.37812 c 0,0.0867 0.0415,0.13201 0.13205,0.13201 l 10.30442,3.43304 0.13128,0 0,-0.13201 5.28426,-37.3797 0,-0.13201 -16.77866,0 0.92665,34.07867 m -2.90891,-1.32164 0.13204,-0.13201 0,-30.64333 -7.92677,0 -0.52742,28.00158 8.1901,2.77376 0.13205,0 m 3.04096,-7.92447 -0.13205,-1.84968 3.82942,0.79129 0.13205,0 0.13205,-0.13124 0,-23.37891 1.71817,0 0,23.77725 c 0.0867,0 0.13205,0.0422 0.13205,0.13201 l 6.07885,1.05531 -0.2641,1.9817 -11.62644,-2.37773 m -15.85585,6.34111 c -0.0868,2.905 -0.13205,5.15072 -0.13205,6.73331 l -9.11674,-3.56429 0,-59.56821 9.24879,-2.37773 0,58.77692 m -3.16994,-1.45442 c 0.0875,0 0.13205,-0.0445 0.13205,-0.13124 l 0,-29.05767 -3.96454,-0.26632 c -0.0867,0 -0.13205,0.0445 -0.13205,0.13431 l 0,27.33923 c 0,0.0875 0.0453,0.13201 0.13205,0.13201 l 3.70121,1.84968 0.13128,0 z" /><path
         inkscape:connector-curvature="0"
         id="path3856"
         style="fill:#333333;fill-opacity:1;fill-rule:nonzero;stroke:#333333;stroke-width:2.4504087;stroke-linejoin:round;stroke-miterlimit:4;stroke-dasharray:none"
         d="m 115.31823,188.86346 0.13205,-9.50937 5.41631,9.50937 -5.54836,0 m 7.39858,-4.22434 -3.43404,-5.41704 3.43404,0 0,5.41704 m 28.40586,-27.60632 0,-0.26325 0.39615,-4.35942 0,-0.13201 0.39845,-3.69937 54.03486,2.37773 0.66255,1.32164 c 0,0.0867 0.0422,0.13201 0.13205,0.13201 l 0,0.13201 6.87038,12.28312 -63.15391,-1.45135 0.65947,-6.34111 m 76.2329,8.18772 -0.79153,0 -7.53063,-12.9424 0,-0.13201 -0.39614,-0.65929 4.88888,0.26403 0.39538,0.52727 0,0.26402 5.15221,8.19079 -1.71817,4.48759 z" /><path
         inkscape:connector-curvature="0"
         id="path3858"
         style="fill:#333333;fill-opacity:1;fill-rule:nonzero;stroke:#333333;stroke-width:2.4504087;stroke-linejoin:round;stroke-miterlimit:4;stroke-dasharray:none"
         d="m 119.28277,179.22208 3.43404,5.41704 0,4.22434 -1.85022,0 -5.41631,-9.50937 0,-0.13201 3.83249,0 m 102.12906,-14.1328 -0.92665,0 -7.26652,-12.81116 c 0,-0.0867 -0.0422,-0.13201 -0.13205,-0.13201 l -0.39615,-0.92638 4.22864,0.26709 0.52819,0.92331 0.13128,0 0,0.13201 4.22864,7.0004 -0.39538,5.54674 m -5.15221,-0.13201 -0.92664,0 -6.7391,-12.67915 -0.13205,0 0,-0.13201 -0.52743,-1.05839 3.03789,0.13201 0.66255,1.05839 c 0,0.0867 0.0422,0.13201 0.13205,0.13201 l 0,0.13201 5.02016,8.85008 -0.52743,3.56505 z" /><path
         inkscape:connector-curvature="0"
         id="path3860"
         style="fill:#333333;fill-opacity:1;fill-rule:nonzero;stroke:#333333;stroke-width:2.4504087;stroke-linejoin:round;stroke-miterlimit:4;stroke-dasharray:none"
         d="m 121.92528,201.94094 -3.16994,4.0954 -2.90891,-5.94508 1.19074,-1.05532 1.05562,2.11371 0.39538,-5.2858 -1.18767,1.58643 -1.05869,-0.92407 3.04096,-4.22664 2.64251,4.35865 -1.05869,1.45135 -1.18767,-1.71461 0,4.75469 1.31972,-1.1904 0.92664,1.98169 m 150.48275,-40.02068 -4.75606,3.16902 -3.56532,-3.56505 1.71817,0 1.58305,1.71767 0.79537,-5.68106 -2.37842,1.9817 -1.71817,0 5.02016,-4.0954 3.30122,4.75468 -1.84715,0 -1.45407,-2.77299 -0.79229,5.81307 1.84791,-1.32164 2.2456,0 m -47.16678,21.52846 0,-0.13124 1.98227,-9.77415 0,-0.13201 8.7206,0 c 0.26409,-0.0898 0.57272,-0.13201 0.92357,-0.13201 0.26717,0 0.57349,0.0422 0.92665,0.13201 l 6.87114,0 0.13205,0.13201 0,0.13201 -2.64251,9.64214 0,0.13124 -16.91377,0 m 6.87038,-5.0187 c 0,1.32241 0.48597,2.42301 1.45484,3.30103 0.88135,0.88186 1.93697,1.36692 3.16994,1.45442 l 0.26333,0 c 1.23604,-0.0875 2.29166,-0.57256 3.17301,-1.45442 0.96887,-0.87802 1.45177,-1.97862 1.45177,-3.30103 0,-1.32164 -0.4829,-2.42224 -1.45177,-3.30026 -0.70477,-0.70457 -1.54159,-1.14589 -2.5097,-1.32241 l -1.71893,0 c -0.88135,0.17652 -1.67288,0.61784 -2.37765,1.32241 -0.96887,0.87802 -1.45484,1.97862 -1.45484,3.30026 m 1.19074,3.56505 c -1.05869,-0.96859 -1.58612,-2.15591 -1.58612,-3.56505 0,-1.40914 0.52743,-2.5957 1.58612,-3.56735 0.44068,-0.52805 0.92358,-0.8788 1.45407,-1.05532 l -7.26883,0 -1.84791,9.37812 9.24879,0 c -0.61725,-0.26402 -1.14544,-0.66005 -1.58612,-1.1904 m 7.13448,0 c -0.5282,0.53035 -1.10092,0.92638 -1.71817,1.1904 l 3.17224,0 2.51047,-9.37812 -5.41938,0 c 0.53126,0.17652 1.01416,0.52727 1.45484,1.05532 0.96887,0.97165 1.45407,2.15821 1.45407,3.56735 0,1.40914 -0.4852,2.59646 -1.45407,3.56505 m -5.94681,-0.9233 c -0.70477,-0.70457 -1.05562,-1.58643 -1.05562,-2.64175 0,-0.96782 0.35085,-1.8044 1.05562,-2.50897 0.70478,-0.70457 1.58613,-1.05838 2.64482,-1.05838 0.96887,0 1.80569,0.35381 2.51046,1.05838 0.70478,0.70457 1.05563,1.54115 1.05563,2.50897 0,1.05532 -0.35085,1.93718 -1.05563,2.64175 -0.70477,0.70456 -1.54159,1.05838 -2.51046,1.05838 -1.05869,0 -1.94004,-0.35382 -2.64482,-1.05838 m -0.66024,-2.64175 c 0,0.96859 0.30939,1.75988 0.92664,2.37772 0.61495,0.61784 1.40725,0.92331 2.37842,0.92331 0.87905,0 1.62835,-0.30547 2.24329,-0.92331 0.61802,-0.61784 0.92665,-1.40913 0.92665,-2.37772 0,-0.88109 -0.30863,-1.62787 -0.92665,-2.24495 -0.61494,-0.61784 -1.36424,-0.92407 -2.24329,-0.92407 -0.97117,0 -1.76347,0.30623 -2.37842,0.92407 -0.61725,0.61708 -0.92664,1.36386 -0.92664,2.24495 m -23.25366,13.86955 0,0.26325 -52.31899,0 -0.13205,-0.13124 c 0.003,-0.0875 0.0484,-0.13201 0.13205,-0.13201 l 52.31899,0 m -16.6466,24.82949 0.2641,0 0,0.26402 -38.84233,0 0,-0.13201 0.13205,-0.13201 38.44618,0 m 4.88811,0.13201 0.13205,-0.13201 7.66498,0 0,0.26402 -7.66498,0 c -0.0867,0 -0.13205,-0.0422 -0.13205,-0.13201 z" /><path
         inkscape:connector-curvature="0"
         id="path3862"
         style="fill:#333333;fill-opacity:1;fill-rule:nonzero;stroke:#333333;stroke-width:2.4504087;stroke-linejoin:round;stroke-miterlimit:4;stroke-dasharray:none"
         d="m 201.06402,138.01331 c 16.03242,-1.84969 30.21079,-1.1904 42.54277,1.98169 -14.09238,-1.05839 -28.27381,-1.71767 -42.54277,-1.98169 m 40.2964,-2.64098 0.5305,0.13201 c 0.17428,0 0.35085,0.0445 0.5282,0.13201 l 3.16994,0.7913 0,2.24571 c -1.58689,-0.44131 -3.16994,-0.83658 -4.75606,-1.18733 -11.80379,-2.64174 -25.1914,-3.08229 -40.16513,-1.32241 l 0,-2.1137 c 14.70963,-1.75988 28.27382,-1.31934 40.69255,1.32241 m 0.2641,-4.35942 c 0.0898,0.0867 0.17658,0.13201 0.2664,0.13201 1.23297,0.26402 2.46517,0.57256 3.69814,0.92331 l 0,2.24571 c -1.40955,-0.44054 -2.81909,-0.83658 -4.22864,-1.18732 l -0.26409,0 c -10.30442,-2.11371 -20.47679,-2.86279 -30.52019,-2.24572 -3.34651,0.17729 -6.6485,0.48276 -9.90827,0.92331 l 0,-2.11371 c 3.34652,-0.43747 6.60705,-0.74601 9.77699,-0.9233 11.44987,-0.61707 21.84411,0.13201 31.17966,2.24571 z" /><path
         inkscape:connector-curvature="0"
         id="path3864"
         style="fill:#333333;fill-opacity:1;fill-rule:nonzero;stroke:#333333;stroke-width:2.4504087;stroke-linejoin:round;stroke-miterlimit:4;stroke-dasharray:none"
         d="m 150.1991,163.37391 -3.43711,-0.92637 1.85022,-14.52884 2.24636,0.52804 0.2641,0 0.39615,0.13201 -0.2641,3.56736 0,0.26402 -0.52819,4.35942 0,0.13201 -0.52743,6.47235 z" /><path
         inkscape:connector-curvature="0"
         id="path3866"
         style="fill:#333333;fill-opacity:1;fill-rule:nonzero;stroke:#333333;stroke-width:2.4504087;stroke-linejoin:round;stroke-miterlimit:4;stroke-dasharray:none"
         d="m 197.23383,215.41446 -0.26333,1.18733 -0.66331,0.52727 -15.58791,10.17249 0,0.13201 -4.22864,2.77299 0,0.52804 c 0,0.35382 -0.13205,0.65928 -0.39614,0.9233 -0.35392,0.26709 -0.7493,0.39834 -1.18998,0.39834 -0.35085,0 -0.70477,-0.13125 -1.05562,-0.39834 -0.2641,-0.17422 -0.39615,-0.43747 -0.39615,-0.79129 l 0,-0.13201 c 0,-0.35075 0.13205,-0.66005 0.39615,-0.92331 0.35085,-0.26402 0.70477,-0.39603 1.05562,-0.39603 0.44068,0 0.7946,0.0867 1.05793,0.26402 l 0.13205,0.13201 c 0.0875,0 0.13205,-0.0453 0.13205,-0.13201 l 21.00728,-14.26481 m 0.5282,6.86531 -1.19074,0 4.22863,-23.77417 c 0.17658,-0.26402 0.30863,-0.43825 0.39615,-0.52804 0.0898,0 0.13128,-0.0422 0.13128,-0.13201 0.26717,-0.17653 0.48597,-0.30854 0.66331,-0.39527 0.0868,0 0.21881,0.0867 0.39538,0.26325 l 0,0.13202 0.2641,0.52804 -4.88811,23.90618 z" /><path
         inkscape:connector-curvature="0"
         id="path3868"
         style="fill:#333333;fill-opacity:1;fill-rule:nonzero;stroke:#333333;stroke-width:2.4504087;stroke-linejoin:round;stroke-miterlimit:4;stroke-dasharray:none"
         d="m 179.13239,227.30155 -20.87524,0 c -1.23297,0.17422 -2.11432,0.0422 -2.64175,-0.39834 -0.52819,-0.43824 -0.75006,-1.18732 -0.66024,-2.24264 l 0.79153,-7.26749 37.7867,0 -14.401,9.90847 m 31.18042,-35.13399 0,0.13201 -51.79156,0 0,-0.13201 0.5305,-5.68183 c 0.87904,-2.46368 2.77379,-3.60956 5.6804,-3.43227 l 42.67405,0 c 1.40955,0 2.42371,0.35075 3.03866,1.05532 0.52743,0.70456 0.7493,1.76295 0.66255,3.17209 l -0.7946,4.88669 m -12.28668,30.51132 0.13205,-0.13202 1.05792,-5.15378 7.00013,0 -0.92358,6.47312 c -0.17734,2.64098 -2.24636,3.7861 -6.2109,3.43535 l -17.57095,0 14.92844,-9.90847 0.53126,0 -0.79459,5.02177 0,0.26403 1.85022,0 z" /><path
         inkscape:connector-curvature="0"
         id="path3870"
         style="fill:#333333;fill-opacity:1;fill-rule:nonzero;stroke:#333333;stroke-width:2.4504087;stroke-linejoin:round;stroke-miterlimit:4;stroke-dasharray:none"
         d="m 206.35058,217.12906 -7.13448,0 3.69814,-18.75547 c 0,-0.17423 -0.0453,-0.35075 -0.13205,-0.52804 l 0,-0.13202 -0.13205,0 0,-0.13124 c -0.17658,-0.35151 -0.39538,-0.48276 -0.65948,-0.39603 -0.26409,0 -0.57272,0.13201 -0.92664,0.39603 0,0.0867 -0.0422,0.13124 -0.13205,0.13124 l 0,0.13202 c -0.17734,0.0898 -0.30863,0.2218 -0.39615,0.39603 l -0.13205,0.13201 -3.16994,16.50976 -3.30429,2.24571 -38.18285,0 2.11431,-19.28351 0,-0.13202 0.5282,-5.15071 51.92361,0 -0.92434,5.01947 c 0,0.0867 0.0422,0.13124 0.13205,0.13124 -0.0898,0.003 -0.13205,0.0453 -0.13205,0.13202 l -3.03789,19.28351 z" /></g><path
       inkscape:connector-curvature="0"
       id="path3924"
       d="m 82.963446,165.33353 0,6.12774 7.292333,6.15431 0.02691,-10.30764 z"
       style="fill:#e6e6e6;stroke:#000000;stroke-width:0.80000001px;stroke-linecap:butt;stroke-linejoin:miter;stroke-opacity:1" /><path
       style="fill:#e6e6e6;stroke:#000000;stroke-width:1px;stroke-linecap:butt;stroke-linejoin:miter;stroke-opacity:1"
       d="m 3.8298362,98.418262 0,-7.659672 57.6603118,17.87257 0.212769,12.97889 z"
       id="path3922"
       inkscape:connector-curvature="0"
       transform="matrix(0.8,0,0,-0.8,80.069792,211.26768)" /><g
       id="g3817"
       transform="matrix(0.66349321,0,0,0.77469567,27.820699,17.287019)"><path
         d="m 202.78219,77.650725 4.36068,0 22.98956,0 -39.24078,21.531531 -32.50245,6.470054 c 19.55552,-12.501861 34.35267,-21.837768 44.39299,-28.001585 m 8.9847,119.931565 0,0.13124 c -0.0898,0 -0.13205,0.0453 -0.13205,0.13202 l -4.49197,28.13436 c -0.44144,2.73077 -2.55499,4.09463 -6.34295,4.09463 l -23.91313,0.52804 0,-0.26402 4.09582,-2.64098 18.09914,0 c 4.14111,0.35075 6.29766,-0.92638 6.47423,-3.83138 l 1.0587,-6.47312 0.13205,-0.13201 3.03789,-19.41552 0,-0.13202 0.92357,-5.28195 0,-0.13201 0.7946,-4.88669 c 0.0875,-1.58643 -0.17658,-2.77376 -0.7946,-3.56813 -0.70477,-0.79129 -1.80492,-1.14511 -3.30199,-1.05531 l -42.67405,0 c -3.08319,-0.26402 -5.06545,0.9233 -5.94757,3.56505 l 0,0.13124 -0.65948,5.81384 0,0.13201 -0.65948,5.15071 c 0,0.0867 0.0445,0.13124 0.13205,0.13124 -0.0875,0.003 -0.13205,0.0453 -0.13205,0.13202 l -2.11431,19.41552 -0.5282,0 c 0.18349,0.006 0.36006,0.0483 0.5282,0.13201 l -0.79153,7.13241 c -0.0906,1.23491 0.17351,2.1137 0.79153,2.64405 0.61725,0.52804 1.58612,0.70456 2.90584,0.52804 l 20.21576,0 -2.37841,1.58259 c -0.35392,-0.17346 -0.7493,-0.26325 -1.18998,-0.26325 -0.52819,0 -0.96887,0.17652 -1.31972,0.53034 -0.35392,0.26402 -0.53127,0.61477 -0.53127,1.05532 l -17.30684,0.39603 c -2.02373,-0.0875 -3.12465,-1.31934 -3.30123,-3.69706 l 2.7738,-29.456 0,-0.13202 1.31972,-14.92409 c 0.5305,-2.02698 2.46824,-3.17209 5.81476,-3.43535 l 46.37526,0 c 1.84714,0.0898 3.21523,0.48507 4.09351,1.18963 0.7946,0.70457 1.19074,1.67316 1.19074,2.905 l -2.24636,14.13357 m 81.91253,-119.931565 0,27.606315 -35.80367,15.45445 -17.83505,-17.04088 49.94135,-26.019885 z"
         style="fill:#999999;fill-opacity:1;fill-rule:nonzero;stroke:none"
         id="path16"
         inkscape:connector-curvature="0"
         sodipodi:nodetypes="cccccccccccccccccccccccccccccccccccccccccscccccccccccccccccc" /><path
         d="m 240.0407,103.67061 -0.13205,0 -49.017,-4.488354 39.24078,-21.531531 59.84962,0 -49.94135,26.019885 m -29.33251,126.27268 c -0.9681,3.16825 -3.69737,4.7969 -8.1901,4.88669 l -49.67725,1.45059 c -0.61725,-0.0867 -1.14544,-0.30547 -1.58612,-0.65929 l -0.13205,0 0,-0.13201 c -0.0867,0 -0.13205,-0.0445 -0.13205,-0.13201 -0.70477,-0.61707 -1.14544,-1.58566 -1.31972,-2.905 l 1.45177,-13.73677 0,-0.13201 2.24637,-20.73793 0,-0.13202 1.98227,-19.41552 0,-0.65929 c 0.0867,-0.35381 0.17657,-0.66235 0.26409,-0.92637 l 0.52743,-0.7913 c 0.88135,-1.14511 2.33619,-1.67315 4.36069,-1.58643 l 51.79156,0 c 2.73157,0.35382 4.53726,1.67316 5.41554,3.96339 0.96887,2.37772 0.96887,5.72404 0,10.03817 l -1.58305,9.24611 0,0.26326 -5.41938,32.09774 m 1.3228,-32.09774 0,-0.13202 2.37841,-14.1328 c 0,-1.49586 -0.44144,-2.64098 -1.32279,-3.43227 -0.96887,-0.70457 -2.41987,-1.1006 -4.35761,-1.1904 l -46.37526,0 c -3.52387,0.26402 -5.54836,1.54115 -6.07886,3.83138 l -0.13205,0 -1.31972,14.79285 0,0.26326 -2.64174,29.456 c 0.1735,2.55118 1.36425,3.91887 3.56532,4.09232 l 17.30684,-0.39526 c 0.0906,0.35382 0.26717,0.65928 0.53127,0.92637 0.35085,0.35075 0.79153,0.52728 1.31972,0.52728 0.52743,0 1.0134,-0.17653 1.45407,-0.52728 0.2641,-0.26709 0.44068,-0.57255 0.5282,-0.92637 l 23.91313,-0.52804 c 4.05129,0 6.29766,-1.49587 6.73833,-4.49066 l 4.49274,-28.13436 z"
         style="fill:#666666;fill-opacity:1;fill-rule:nonzero;stroke:none"
         id="path18"
         inkscape:connector-curvature="0" /><path
         d="m 282.84757,132.33532 -0.13205,0 0,-0.13508 -34.74881,-1.84661 0,-10.04048 9.51289,0.53035 0.13205,0.13201 c 0,0.0867 0.0453,0.13201 0.13205,0.13201 l 0.13205,-0.13201 0,-0.13201 18.23349,1.18732 c 3.87471,0.44055 5.85698,1.40914 5.94373,2.905 l 0.7946,7.3995 m -160.13076,77.00205 -7.79396,-2.64175 0.39538,-17.43306 7.39858,0 0,20.07481 m -3.96147,-3.30103 3.16994,-4.0954 -0.92664,-1.98169 -1.31972,1.1904 0,-4.75469 1.18767,1.71461 1.05869,-1.45135 -2.64251,-4.35865 -3.04096,4.22664 1.05869,0.92407 1.18767,-1.58643 -0.39538,5.2858 -1.05562,-2.11371 -1.19074,1.05532 2.90891,5.94508 m 34.21755,-80.96851 0,-10.43343 46.10886,2.77375 0,10.17172 -46.10886,-2.51204 m 61.17241,40.02145 -0.13205,-0.13201 -7.00243,-12.67915 0,-0.13201 -0.79459,-1.45365 -0.13205,0 0,-0.13201 -54.16691,-2.24572 0.92357,-10.0374 c 0.35085,0.0867 0.75007,0.13201 1.18767,0.13201 8.72061,0.52727 23.64981,1.32164 44.78914,2.37772 l 1.58612,0 c 12.85942,0.7038 27.92067,1.49587 45.18529,2.37696 1.14545,0 2.24637,0.0453 3.30199,0.13201 10.30672,0.52804 21.40574,1.05839 33.29704,1.58566 l 1.9792,0.13201 0.13205,0.52805 -1.58382,6.60436 0,0.26402 -10.83492,45.17216 0,0.13124 -6.60705,28.00236 -0.13128,0 c -0.44144,3.96338 -2.24636,6.60436 -5.4163,7.9237 -14.53306,6.42784 -31.6211,10.30449 -51.26414,11.62306 -20.34474,0.96859 -39.15096,-0.65928 -56.41251,-4.88669 -0.35392,-0.0867 -0.66255,-0.17652 -0.92665,-0.26325 l -0.13205,0 c -2.99259,-0.79207 -5.59288,-1.75989 -7.79395,-2.90577 l 7.26653,-73.437 63.55005,1.45058 0.13205,-0.13124 m -11.62721,70.13597 c 4.66931,-0.17653 7.53063,-1.93641 8.58932,-5.28196 l 5.41554,-32.09774 0,-0.13202 1.58382,-9.37735 c 0.97194,-4.40163 0.97194,-7.79246 0,-10.16941 -0.96887,-2.46753 -2.86132,-3.87359 -5.67964,-4.22741 l -51.92361,0 c -3.16994,0 -5.02016,1.1904 -5.54836,3.56735 l -1.98227,20.07558 0,0.26326 -2.24636,20.60592 0,0.26402 -1.45408,13.73677 c 0.2664,1.58336 0.7946,2.68626 1.58612,3.30103 l 0,0.13201 0.13205,0 c 0.5282,0.44055 1.14545,0.66236 1.85022,0.66236 l 49.67725,-1.32241 m 22.72316,-51.90777 0,0.13124 16.91377,0 0,-0.13124 2.64251,-9.64214 0,-0.13201 -0.13205,-0.13201 -6.87114,0 c -0.35316,-0.0898 -0.65948,-0.13201 -0.92665,-0.13201 -0.35085,0 -0.65948,0.0422 -0.92357,0.13201 l -8.7206,0 0,0.13201 -1.98227,9.77415 m -8.7183,-18.09696 0,-0.13124 0.66024,-3.69706 0,-0.13201 -5.1522,-8.98209 c 0,-0.0867 -0.0453,-0.13201 -0.13205,-0.13201 l -0.65948,-1.18963 0,-0.13201 -3.70121,-0.13201 c -0.0867,0 -0.13205,0.0445 -0.13205,0.13201 l 0,0.13201 0.7923,1.32164 0,0.13201 0.13205,0 6.73833,12.81039 0.13205,0.13201 1.19074,0 0.13128,-0.13201 m 5.15221,0.13201 c 0.0875,0 0.13205,-0.0414 0.13205,-0.13201 l 0.39615,-5.67798 0,-0.13201 -4.36069,-7.13241 0,-0.13201 -0.65948,-0.92638 0,-0.13201 -0.13204,0 -4.75607,-0.26325 -0.13205,0.13201 0,0.26325 0.65948,1.05839 c 0,0.0867 0.0453,0.13201 0.13205,0.13201 l 0,0.13201 7.26653,12.81039 0.13205,0.13509 1.19074,0 c 0.0867,0 0.13128,-0.0453 0.13128,-0.13509 m 4.62478,0.13509 0.13205,0 0,0.13201 1.05562,0 0,-0.13201 0.13436,0 1.84791,-4.75469 0,-0.13508 -5.15221,-8.31973 -0.13205,0 0,-0.13201 -0.39614,-0.65929 -0.13205,-0.13201 -5.55066,-0.13508 0,0.26709 0.5305,0.7913 c 0,0.0867 0.0422,0.13201 0.13205,0.13201 l 0,0.13201 7.53062,12.94548 m 33.02988,1.05531 c 0,0.0867 0.0453,0.13201 0.13205,0.13201 l 14.79715,0 c 0.0898,0 0.13128,-0.0453 0.13128,-0.13201 l 0.13205,0 2.90891,-12.81039 0,-0.13508 -0.13435,0 c 0,-0.0867 -0.0422,-0.13201 -0.13205,-0.13201 l -15.58867,-0.7913 -0.13205,0 c -0.0898,0 -0.13205,0.0445 -0.13205,0.13201 l -1.98227,13.60476 0,0.13201 m -20.61114,16.64254 c 0.61725,-0.26402 1.18997,-0.66005 1.71817,-1.1904 0.96887,-0.96859 1.45407,-2.15591 1.45407,-3.56505 0,-1.40914 -0.4852,-2.5957 -1.45407,-3.56735 -0.44068,-0.52805 -0.92358,-0.8788 -1.45484,-1.05532 l 5.41938,0 -2.51047,9.37812 -3.17224,0 m -7.00243,-4.75545 c 0,1.40914 0.52743,2.59646 1.58612,3.56505 0.44068,0.53035 0.96887,0.92638 1.58612,1.1904 l -9.24879,0 1.84791,-9.37812 7.26883,0 c -0.53049,0.17652 -1.01339,0.52727 -1.45407,1.05532 -1.05869,0.97165 -1.58612,2.15821 -1.58612,3.56735 m 1.85022,3.30103 c -0.96887,-0.87802 -1.45484,-1.97862 -1.45484,-3.30103 0,-1.32164 0.48597,-2.42224 1.45484,-3.30026 0.70477,-0.70457 1.4963,-1.14589 2.37765,-1.32241 l 1.71893,0 c 0.96811,0.17652 1.80493,0.61784 2.5097,1.32241 0.96887,0.87802 1.45177,1.97862 1.45177,3.30026 0,1.32241 -0.4829,2.42301 -1.45177,3.30103 -0.88135,0.88186 -1.93697,1.36692 -3.17301,1.45442 l -0.26333,0 c -1.23297,-0.0875 -2.28859,-0.57256 -3.16994,-1.45442 m -0.13205,-3.30103 c 0,1.05532 0.35085,1.93718 1.05562,2.64175 0.70478,0.70456 1.58613,1.05838 2.64482,1.05838 0.96887,0 1.80569,-0.35382 2.51046,-1.05838 0.70478,-0.70457 1.05563,-1.58643 1.05563,-2.64175 0,-0.96782 -0.35085,-1.8044 -1.05563,-2.50897 -0.70477,-0.70457 -1.54159,-1.05838 -2.51046,-1.05838 -1.05869,0 -1.94004,0.35381 -2.64482,1.05838 -0.70477,0.70457 -1.05562,1.54115 -1.05562,2.50897 m 1.32202,2.37772 c -0.61725,-0.61784 -0.92664,-1.40913 -0.92664,-2.37772 0,-0.88109 0.30939,-1.62787 0.92664,-2.24495 0.61495,-0.61784 1.40725,-0.92407 2.37842,-0.92407 0.87905,0 1.62835,0.30623 2.24329,0.92407 0.61802,0.61708 0.92665,1.36386 0.92665,2.24495 0,0.96859 -0.30863,1.75988 -0.92665,2.37772 -0.61494,0.61784 -1.36424,0.92331 -2.24329,0.92331 -0.97117,0 -1.76347,-0.30547 -2.37842,-0.92331 z"
         style="fill:#0088aa;fill-opacity:1;fill-rule:nonzero;stroke:#000000;stroke-width:1.66931295;stroke-miterlimit:4;stroke-dasharray:none"
         id="path20"
         inkscape:connector-curvature="0" /><path
         d="m 150.99062,125.73019 -0.13205,0 -21.00728,7.00039 6.60628,-11.2278 14.53305,-6.20833 0.13205,0 0.13205,-0.13201 1.32203,-0.52804 0,10.70052 -1.45408,0.52728 c 0,-0.0898 -0.0422,-0.13201 -0.13205,-0.13201 m -21.53548,7.39643 0,-0.13202 0.13205,0 -0.13205,0.13202 m 21.66753,15.0561 -0.13205,-0.13201 -2.37841,-0.52727 1.05869,-8.19079 c 0.43837,-0.0867 0.87905,-0.21874 1.31972,-0.39604 l 0.13205,0 c 0.52743,-0.17345 0.96887,-0.30546 1.32279,-0.39526 l -0.92664,9.64137 -0.39615,0 m -8.1901,88.89298 -4.88811,-2.50974 8.71753,-71.72239 3.30506,0.92637 -7.13448,73.30576 z"
         style="fill:#006680;fill-opacity:1;fill-rule:nonzero;stroke:none"
         id="path24"
         inkscape:connector-curvature="0" /><path
         d="m 282.32014,142.50474 c 0,0.0867 -0.0453,0.13201 -0.13204,0.13201 l -33.1627,-1.45442 -0.13435,-0.13201 0,-8.715 0.13435,0 32.76348,1.97862 0.13205,0.13201 0.5305,7.92678 0,0.13201 -0.13129,0 m -0.26716,-0.26403 -0.39615,-7.52843 -32.36733,-1.9817 0,8.05648 32.76348,1.45365 m -127.89242,-5.68105 -0.13204,0 -0.13205,-0.13201 0.26409,-8.84778 0.13512,-0.13431 0.13205,0 44.38992,2.51204 0.13205,0 c 0.0898,0 0.13205,0.0422 0.13205,0.13201 l 0,8.847 c 0,0.0906 -0.0422,0.13201 -0.13205,0.13201 l -0.13205,0.13201 -44.65709,-2.64097 m 0.39922,-8.71577 -0.2641,8.45175 44.38992,2.50896 0,-8.58298 -44.12582,-2.37773 m -71.34478,69.47438 0,-0.39603 9.908273,3.16902 0,-6.73637 -9.908273,-2.37773 0,-0.26402 9.908273,2.24571 0,-16.51052 -9.908273,0 0,-0.39527 10.17237,0 0.132049,0.13201 0,24.30222 -0.264097,0 L 83.215,197.31827 m 39.89796,12.28312 -0.13205,0.13201 -0.13205,0 -8.1901,-2.77375 0.52742,-28.00159 7.92678,0 0,30.64333 m -8.19011,-2.90577 7.79396,2.64175 0,-20.07481 -7.39858,0 -0.39538,17.43306 m 7.79396,-27.47354 -7.26653,0 0,0.13201 -0.13205,9.50937 7.39858,0 0,-9.64138 m 3.30506,31.96497 c -0.0906,0 -0.13205,-0.0453 -0.13205,-0.13201 l -0.92664,-34.07867 16.77865,0 0,0.13201 -5.28426,37.3797 0,0.13201 -0.13128,0 -10.30442,-3.43304 m -0.13205,-11.2278 0.13205,1.84968 11.62644,2.37773 0.2641,-1.9817 -6.07885,-1.05531 c 0,-0.0898 -0.0453,-0.13201 -0.13205,-0.13201 l 0,-23.77725 -1.71817,0 0,23.37891 -0.13205,0.13125 -0.13205,0 -3.82942,-0.7913 m 0.13205,2.24571 0.13205,8.71807 10.04032,3.30103 1.31895,-9.64137 -11.49132,-2.37773 m -0.66332,-24.96457 0.53127,22.3236 3.69737,0.79129 0,-23.11489 -4.22864,0 m 6.7391,23.51016 5.81476,1.19039 3.43404,-24.70055 -9.2488,0 0,23.51016 m 140.1791,-2.905 -6.73603,28.00235 c -0.53049,4.05011 -2.42294,6.78165 -5.6827,8.18772 -14.53306,6.43014 -31.66563,10.30373 -51.39619,11.62307 -20.34474,0.96858 -39.19242,-0.70457 -56.54456,-5.01871 -0.26717,-0.0867 -0.5305,-0.13201 -0.7946,-0.13201 -0.0867,0 -0.13205,-0.0422 -0.13205,-0.13201 l -0.13205,0 c -2.99566,-0.79129 -5.63818,-1.75988 -7.926,-2.905 l -36.33494,-16.77378 -0.13205,0 -1.31972,-0.66005 -0.13205,0 -21.79881,-9.90846 0,-0.39527 21.93086,9.9054 0,0.13201 0.13205,0 1.31972,0.53034 0.13205,0 0,0.13201 30.91863,14.00079 7.39858,-60.89062 -30.52018,0 -0.13205,-0.13201 0,0.13201 -2.11432,0 0,42.26716 c 0,0.0867 -0.0445,0.13124 -0.13205,0.13124 l 0,0.13201 -0.13205,0 -28.80124,-11.49105 0,-0.26402 15.060482,5.94201 0,-36.45333 -15.060482,0 0,-0.26402 15.060482,0 0,-21.1332 -15.060482,3.83138 0,-0.39834 15.192531,-3.82907 c 0,-0.0898 0.04453,-0.13124 0.132049,-0.13124 l 11.75849,-2.90577 0.13205,0 1.58612,-0.39834 0,-0.13201 2.24637,-0.52804 0.2641,0 34.87779,-8.85008 c 0.5305,-0.17345 1.0134,-0.30546 1.45407,-0.39526 l 0.13205,0 c 0,-0.0875 0.0453,-0.13201 0.13205,-0.13201 0.52743,-0.17729 0.96887,-0.3093 1.32279,-0.39603 l 0.13129,-0.39603 0,-12.15111 0.13204,-0.13125 -0.13204,0 0,-10.83253 -1.32203,0.52804 -0.13205,0.13201 -0.13205,0 -14.53305,6.20833 -6.60628,11.2278 21.00728,-7.00039 0.13205,0 c 0.0898,0 0.13205,0.0422 0.13205,0.13201 l 0,0.13201 c 0,0.0867 -0.0422,0.13201 -0.13205,0.13201 l -21.40343,7.0004 c -7.39858,2.55425 -12.41874,4.26961 -15.06048,5.15071 l -0.13205,0 -31.17966,10.30142 0,-9.51013 17.57095,-7.79169 0.26333,0 5.4163,-2.50973 0.13205,0 44.26094,-19.67878 c 0,-0.0898 0.0453,-0.13201 0.13205,-0.13201 l 7.26653,-3.17209 0.13205,-0.13201 32.50245,-6.470054 49.017,4.488354 0.13205,0 17.83505,17.04088 0,0.26402 -0.13205,0.13201 c -0.0867,0 -0.13205,-0.0453 -0.13205,-0.13201 l -0.13205,-0.13201 -9.51289,-0.53035 0,10.04048 34.74881,1.84661 0,0.3991 -36.73108,-1.98169 0,9.77338 -0.13128,0.13201 -0.13205,0 c -0.35085,0 -0.70477,-0.0453 -1.05562,-0.13201 -14.62288,-1.14511 -29.33251,-1.80517 -44.12967,-1.98169 -0.0867,0 -0.13204,-0.0453 -0.13204,-0.13201 -0.0868,0 -0.13129,-0.0453 -0.13129,-0.13201 l 0,-10.03741 -47.2996,-2.64098 0,12.41437 -0.13205,0.13201 1.18768,0 c 8.80812,0.52804 23.73962,1.31934 44.78913,2.37772 l 1.58613,0 c 12.85941,0.70457 27.92066,1.49587 45.18528,2.37773 1.14545,0 2.24637,0.0445 3.30199,0.13124 10.30672,0.52804 21.40574,1.05532 33.29705,1.58643 l 1.97919,0.13201 -1.45177,-12.0191 0.2641,0 0,-0.13201 c 0.0867,0 0.13205,-0.0453 0.13205,-0.13201 l 1.45407,12.41513 0,0.13124 0.13205,0.66006 0,0.13201 -1.58612,6.60436 0,0.13201 -0.2641,1.32241 -10.57082,43.981 0,0.13201 m -58.26349,-32.88828 0.13204,0.13201 -0.13204,0.13124 -63.55006,-1.45058 -7.26653,73.437 c 2.20107,1.14588 4.80136,2.11371 7.79395,2.90577 l 0.13205,0 c 0.2641,0.0867 0.57273,0.17652 0.92665,0.26325 17.26155,4.22741 36.06777,5.85528 56.41251,4.88669 19.64304,-1.31857 36.73108,-5.19522 51.26414,-11.62306 3.16994,-1.31934 4.97486,-3.96032 5.4163,-7.9237 l 0.13129,0 6.60705,-28.00235 0,-0.13125 10.83491,-45.17216 0,-0.26402 1.58382,-6.60436 -0.13205,-0.52805 -1.97919,-0.13201 c -11.89131,-0.52727 -22.99033,-1.05762 -33.29705,-1.58566 -1.05562,-0.0867 -2.15654,-0.13201 -3.30199,-0.13201 -17.26462,-0.88109 -32.32587,-1.67316 -45.18528,-2.37696 l -1.58613,0 c -21.13933,-1.05608 -36.06853,-1.85045 -44.78913,-2.37772 -0.43761,0 -0.83683,-0.0453 -1.18768,-0.13201 l -0.92357,10.0374 54.16691,2.24572 0,0.13201 0.13205,0 0.7946,1.45365 0,0.13201 7.00243,12.67915 m -75.9688,69.60869 4.88811,2.50974 7.13448,-73.30576 -3.30506,-0.92637 -8.71753,71.72239 m -27.61434,-19.5506 1.45484,0.53111 0,-66.56938 -0.79536,0.13201 -0.52743,0.13201 0,58.90893 c -0.0867,3.07922 -0.13205,5.36945 -0.13205,6.86532 m -0.39615,-0.13201 c 0,-1.58259 0.0453,-3.82831 0.13205,-6.73331 l 0,-58.77692 -9.24879,2.37773 0,59.56821 9.11674,3.56429 m -11.362341,-4.49066 1.850221,0.79436 0,-59.4362 -1.850221,0.52727 0,58.11457 m 48.090361,-47.94515 3.43711,0.92637 0.52743,-6.47235 0,-0.13201 0.52819,-4.35942 0,-0.26402 0.2641,-3.56736 -0.39615,-0.13201 -0.2641,0 -2.24636,-0.52804 -1.85022,14.52884 m -34.48165,10.70052 32.8986,0 4.09351,-33.68033 -34.74574,8.71499 -0.13205,0.13201 -2.11432,0.52805 0,24.30528 m 38.84233,-16.37851 0,0.26325 -0.65947,6.34111 63.15391,1.45135 -6.87038,-12.28312 0,-0.13201 c -0.0898,0 -0.13205,-0.0453 -0.13205,-0.13201 l -0.66255,-1.32164 -54.03486,-2.37773 -0.39845,3.69937 0,0.13201 -0.39615,4.35942 m -0.13205,-8.71884 0.13205,0.13201 0.39615,0 0.92664,-9.64137 c -0.35392,0.0898 -0.79536,0.22181 -1.32279,0.39526 l -0.13205,0 c -0.44067,0.1773 -0.88135,0.30931 -1.31972,0.39604 l -1.05869,8.19079 2.37841,0.52727 m 1.98227,-33.41631 0,10.43343 46.10886,2.51204 0,-10.17172 -46.10886,-2.77375 m -23.51775,18.3602 0,0.13202 0.13205,-0.13202 -0.13205,0 m 114.15165,7.0004 c 0.35392,0 0.70477,0.0422 1.0587,0.13201 l 0.92357,0 0,-9.64137 c -12.85941,-3.70014 -27.83314,-4.49143 -44.92119,-2.37773 l 0,9.9054 0.39615,0 c 14.26896,0.26402 28.45039,0.9233 42.54277,1.98169 m -136.47866,66.56938 c 0,0.0867 -0.0445,0.13124 -0.13205,0.13124 l -0.13128,0 -3.70121,-1.84968 c -0.0867,0 -0.13204,-0.0445 -0.13204,-0.13201 l 0,-27.33923 c 0,-0.0898 0.0453,-0.13431 0.13204,-0.13431 l 3.96454,0.26632 0,29.05767 m -3.83249,-2.1137 3.43404,1.71767 0,-28.39761 -3.43404,-0.13202 0,26.81196 m 156.16623,-37.77574 c -0.0867,0 -0.13205,-0.0453 -0.13205,-0.13201 l 0,-0.13201 1.98227,-13.60476 c 0,-0.0875 0.0422,-0.13201 0.13205,-0.13201 l 0.13205,0 15.58867,0.7913 c 0.0898,0 0.13205,0.0453 0.13205,0.13201 l 0.13436,0 0,0.13508 -2.90892,12.81039 -0.13205,0 c 0,0.0867 -0.0414,0.13201 -0.13128,0.13201 l -14.79715,0 m 0.2641,-0.39603 14.401,0 2.90585,-12.41436 -15.32458,-0.92638 -1.98227,13.34074 m -33.29398,-0.79129 -0.13205,0 -7.53062,-12.94548 0,-0.13201 c -0.0898,0 -0.13205,-0.0453 -0.13205,-0.13201 l -0.5305,-0.7913 0,-0.26709 5.55066,0.13508 0.13205,0.13201 0.39615,0.65929 0,0.13201 0.13204,0 5.15221,8.31973 0,0.13508 -1.84791,4.75469 -0.13435,0 0,0.13201 -1.05563,0 0,-0.13201 m 0.13205,-0.2671 0.79153,0 1.71817,-4.48759 -5.15221,-8.19079 0,-0.26402 -0.39538,-0.52727 -4.88888,-0.26403 0.39615,0.65929 0,0.13201 7.53062,12.9424 m -4.75683,0 c 0,0.0906 -0.0445,0.13202 -0.13205,0.13202 0,0.0898 -0.0445,0.13508 -0.13128,0.13508 l -1.19074,0 -0.13205,-0.13508 -7.26653,-12.8104 0,-0.13201 c -0.0867,0 -0.13205,-0.0453 -0.13205,-0.13201 l -0.65947,-1.05839 0,-0.26325 0.13204,-0.13201 4.75607,0.26325 0.13205,0 0,0.13201 0.65947,0.92638 0,0.13201 4.36069,7.13241 0,0.13201 -0.39615,5.67798 m -1.32202,-0.13124 0.92664,0 0.39538,-5.54674 -4.22864,-7.0004 0,-0.13201 -0.13128,0 -0.52819,-0.92331 -4.22864,-0.26709 0.39615,0.92638 c 0.0898,0 0.13205,0.0453 0.13205,0.13201 l 7.26653,12.81116 m -3.96224,0 0,0.13124 -0.13128,0.13202 -1.19074,0 -0.13205,-0.13202 -6.73833,-12.81039 -0.13205,0 0,-0.13201 -0.7923,-1.32164 0,-0.13201 c 0,-0.0875 0.0453,-0.13201 0.13205,-0.13201 l 3.70121,0.13201 0,0.13201 0.65948,1.18963 c 0.0867,0 0.13205,0.0453 0.13205,0.13201 l 5.15221,8.98209 0,0.13201 -0.66025,3.69706 m -1.18997,-0.13201 0.92664,0 0.52743,-3.56505 -5.02016,-8.85008 0,-0.13201 c -0.0898,0 -0.13205,-0.0453 -0.13205,-0.13201 l -0.66255,-1.05839 -3.03789,-0.13201 0.52743,1.05839 0,0.13201 0.13205,0 6.7391,12.67915 m -4.22557,64.98602 c -1.05869,3.34555 -3.92001,5.10543 -8.58932,5.28196 l -49.67725,1.32241 c -0.70477,0 -1.32202,-0.22181 -1.85022,-0.66236 l -0.13205,0 0,-0.13201 c -0.79152,-0.61477 -1.31972,-1.71767 -1.58612,-3.30103 l 1.45408,-13.73677 0,-0.26402 2.24636,-20.60592 0,-0.26326 1.98227,-20.07558 c 0.5282,-2.37695 2.37842,-3.56735 5.54836,-3.56735 l 51.92361,0 c 2.81833,0.35382 4.71077,1.75988 5.67964,4.22741 0.97194,2.37695 0.97194,5.76778 0,10.16941 l -1.58382,9.37736 0,0.13201 -5.41554,32.09774 m -8.58932,4.88669 c 4.49274,-0.0898 7.222,-1.71843 8.1901,-4.88669 l 5.41938,-32.09774 0,-0.26326 1.58305,-9.24611 c 0.96887,-4.31413 0.96887,-7.66045 0,-10.03817 -0.87827,-2.29023 -2.68397,-3.60957 -5.41554,-3.96339 l -51.79156,0 c -2.0245,-0.0867 -3.47934,0.44132 -4.36069,1.58643 l -0.52742,0.7913 c -0.0875,0.26402 -0.17735,0.57256 -0.2641,0.92637 l 0,0.65929 -1.98227,19.41553 0,0.13201 -2.24637,20.73793 0,0.13201 -1.45177,13.73677 c 0.17428,1.31934 0.61495,2.28793 1.31972,2.905 0,0.0875 0.0453,0.13201 0.13205,0.13201 l 0,0.13201 0.13205,0 c 0.44068,0.35382 0.96887,0.57256 1.58612,0.65929 l 49.67725,-1.45059 m 9.5129,-37.11644 0,0.13201 -4.49274,28.13436 c -0.44067,2.99479 -2.68704,4.49066 -6.73833,4.49066 l -23.91313,0.52804 c -0.0875,0.35382 -0.2641,0.65928 -0.52819,0.92638 -0.44068,0.35074 -0.92665,0.52727 -1.45408,0.52727 -0.52819,0 -0.96887,-0.17653 -1.31972,-0.52727 -0.2641,-0.2671 -0.44067,-0.57256 -0.53127,-0.92638 l -17.30684,0.39526 c -2.20107,-0.17345 -3.39182,-1.54114 -3.56532,-4.09232 l 2.64174,-29.456 0,-0.26326 1.31972,-14.79285 0.13205,0 c 0.5305,-2.29023 2.55499,-3.56736 6.07886,-3.83138 l 46.37526,0 c 1.93774,0.0898 3.38874,0.48583 4.35761,1.1904 0.88135,0.7913 1.32279,1.93641 1.32279,3.43227 l -2.37841,14.13281 m -0.2641,0 0,-0.13125 2.24637,-14.13357 c 0,-1.23184 -0.39615,-2.20043 -1.19075,-2.905 -0.87828,-0.70456 -2.24636,-1.09983 -4.09351,-1.18963 l -46.37526,0 c -3.34652,0.26326 -5.28426,1.40837 -5.81476,3.43535 l -1.31972,14.9241 0,0.13201 -2.7738,29.456 c 0.17658,2.37772 1.2775,3.60956 3.30123,3.69706 l 17.30684,-0.39603 c 0,-0.44055 0.17735,-0.7913 0.53127,-1.05532 0.35085,-0.35382 0.79153,-0.53034 1.31972,-0.53034 0.44068,0 0.83606,0.0898 1.18998,0.26325 l 2.37841,-1.58259 -20.21576,0 c -1.31972,0.17652 -2.28859,0 -2.90584,-0.52804 -0.61802,-0.53035 -0.88212,-1.40914 -0.79153,-2.64405 l 0.79153,-7.13241 0.39538,0 -0.79153,7.26749 c -0.0898,1.05532 0.13205,1.8044 0.66025,2.24264 0.52742,0.44055 1.40877,0.57256 2.64174,0.39834 l 20.87524,0 14.40101,-9.90847 0.66024,0 0,-0.26402 -0.2641,0 3.30429,-2.24571 3.16995,-16.50976 0.13204,-0.13201 c 0.0875,-0.17423 0.21881,-0.30624 0.39615,-0.39603 l 0,-0.13201 c 0.0898,0 0.13205,-0.0445 0.13205,-0.13125 0.35392,-0.26402 0.66255,-0.39603 0.92665,-0.39603 0.26409,-0.0867 0.48289,0.0445 0.65947,0.39603 l 0,0.13125 0.13205,0 0,0.13201 c 0.0867,0.17729 0.13205,0.35381 0.13205,0.52804 l -3.69814,18.75547 -0.2664,0 -0.13205,0.13201 c 0,0.0898 0.0453,0.13201 0.13205,0.13201 l 0.2664,0 -1.05792,5.15379 -0.13205,0.13201 -1.85022,0 0,-0.26403 0.79459,-5.02177 -0.53126,0 -14.92843,9.90847 17.57094,0 c 3.96454,0.35075 6.03356,-0.79437 6.2109,-3.43535 l 0.92358,-6.47312 0.39845,0 -1.0587,6.47312 c -0.17657,2.905 -2.33311,4.18213 -6.47423,3.83138 l -18.09914,0 -4.09582,2.64098 0,0.26402 23.91313,-0.52804 c 3.78796,0 5.90151,-1.36386 6.34295,-4.09463 l 4.49197,-28.13436 c 0,-0.0867 0.0422,-0.13201 0.13205,-0.13201 m -15.1956,24.56623 1.19074,0 4.88811,-23.90618 -0.2641,-0.52804 0,-0.13201 c -0.17657,-0.17653 -0.30862,-0.26326 -0.39537,-0.26326 -0.17735,0.0867 -0.39615,0.21874 -0.66332,0.39527 0,0.0898 -0.0415,0.13201 -0.13128,0.13201 -0.0875,0.0898 -0.21957,0.26402 -0.39615,0.52804 l -4.22863,23.77417 m 0.39921,-5.67798 0.26333,-1.18733 -21.00728,14.26481 c 0,0.0867 -0.0445,0.13201 -0.13205,0.13201 l -0.13205,-0.13201 c -0.26333,-0.17729 -0.61725,-0.26402 -1.05793,-0.26402 -0.35085,0 -0.70477,0.13201 -1.05562,0.39603 -0.2641,0.26326 -0.39615,0.57256 -0.39615,0.92331 l 0,0.13201 c 0,0.35382 0.13205,0.61707 0.39615,0.79129 0.35085,0.2671 0.70477,0.39834 1.05562,0.39834 0.44068,0 0.83606,-0.13124 1.18998,-0.39834 0.2641,-0.26402 0.39614,-0.56948 0.39614,-0.9233 l 0,-0.52804 4.22864,-2.77299 0,-0.13201 15.58791,-10.17249 0.66331,-0.52727 m -41.61919,0.79129 c -0.16813,-0.0837 -0.34471,-0.12587 -0.5282,-0.13201 l 0.5282,0 0,0.13201 m 2.50969,-19.67954 0,0.13201 -2.11431,19.28351 -0.26333,0 -0.13205,0.13201 2.11432,-19.41552 c 0,-0.0867 0.0445,-0.12894 0.13204,-0.13201 -0.0875,0 -0.13204,-0.0445 -0.13204,-0.13125 l 0.65947,-5.15071 0.13205,0.13124 0.13205,0 -0.5282,5.15072 m 48.75368,19.41552 -0.2641,0 3.03789,-19.28351 c 0,-0.0867 0.0422,-0.12894 0.13205,-0.13201 -0.0898,0 -0.13205,-0.0445 -0.13205,-0.13125 l 0.92435,-5.01947 0.26333,0 0,-0.26325 -0.26333,0 0,-0.13201 0.79459,-4.88669 c 0.0868,-1.40914 -0.13512,-2.46753 -0.66255,-3.17209 -0.61494,-0.70457 -1.62911,-1.05532 -3.03866,-1.05532 l -42.67405,0 c -2.90661,-0.17729 -4.80136,0.96859 -5.6804,3.43227 l -0.5305,5.68183 0,0.13201 -0.2641,0 c -0.0837,0 -0.12898,0.0445 -0.13205,0.13201 l 0,-0.13201 0.65948,-5.81384 0,-0.13124 c 0.88212,-2.64175 2.86438,-3.82907 5.94757,-3.56505 l 42.67405,0 c 1.49707,-0.0898 2.59722,0.26402 3.30199,1.05531 0.61802,0.79437 0.88212,1.9817 0.7946,3.56813 l -0.7946,4.88669 0,0.13201 -0.92357,5.28196 0,0.13201 -3.03789,19.41552 -0.13205,0.13201 0,-0.26402 z"
         style="fill:#333333;fill-opacity:1;fill-rule:nonzero;stroke:#000000;stroke-width:1.5063988;stroke-linejoin:round;stroke-miterlimit:4;stroke-opacity:1;stroke-dasharray:none"
         id="path26"
         inkscape:connector-curvature="0" /><path
         d="m 281.65683,134.71228 0.39614,7.52843 -32.76347,-1.45365 0,-8.05648 32.36733,1.9817 m -127.36115,1.58336 0.2641,-8.45175 44.12582,2.37773 0,8.58298 -44.38992,-2.50896 z"
         style="fill:#ffcc00;fill-opacity:1;fill-rule:nonzero;stroke:none"
         id="path28"
         inkscape:connector-curvature="0" /><path
         d="m 98.275482,173.54333 -15.060482,0 0,-17.30182 15.060482,-3.83138 0,21.1332 m 46.903458,-0.39527 -32.8986,0 0,-24.30528 2.11432,-0.52805 0.13205,-0.13201 34.74574,-8.71499 -4.09351,33.68033 z"
         style="fill:#808080;fill-opacity:1;fill-rule:nonzero;stroke:none"
         id="path30"
         inkscape:connector-curvature="0" /><path
         d="m 83.215,190.71314 0,-14.26481 9.908272,0 0,16.51052 -9.908272,-2.24571 m 54.69741,11.2278 -5.81476,-1.1904 0,-23.51015 9.2488,0 -3.43404,24.70055 m -12.02259,-2.37696 -0.53127,-22.32359 4.22864,0 0,23.11489 -3.69737,-0.7913 m 0.2641,11.35905 -0.13205,-8.71807 11.49132,2.37773 -1.31895,9.64137 -10.04032,-3.30103 m -19.42424,-4.75468 -3.43404,-1.71767 0,-26.81196 3.43404,0.13201 0,28.39762 z"
         style="fill:#f2f2f2;fill-opacity:1;fill-rule:nonzero;stroke:none"
         id="path32"
         inkscape:connector-curvature="0" /><path
         d="m 83.215,204.31867 0,-7.0004 10.040321,3.16902 0.264098,0 0,-24.30222 -0.132049,-0.13201 -10.17237,0 0,-2.24571 15.060482,0 0,36.45333 L 83.215,204.31867 m 23.51468,16.11449 0,-0.13201 -0.13205,0 -1.31972,-0.53034 -0.13205,0 0,-0.13201 -21.93086,-9.9054 0,-5.15071 28.80124,11.49105 0.13205,0 0,-0.13201 c 0.0875,0 0.13205,-0.0445 0.13205,-0.13124 l 0,-42.26716 2.11432,0 0,-0.13201 0.13205,0.13201 30.52018,0 -7.39858,60.89062 -30.91863,-14.00079 m 19.16014,-9.37812 c 0,0.0867 0.0415,0.13201 0.13205,0.13201 l 10.30442,3.43304 0.13128,0 0,-0.13201 5.28426,-37.3797 0,-0.13201 -16.77866,0 0.92665,34.07867 m -2.90891,-1.32164 0.13204,-0.13201 0,-30.64333 -7.92677,0 -0.52742,28.00158 8.1901,2.77376 0.13205,0 m 3.04096,-7.92447 -0.13205,-1.84968 3.82942,0.79129 0.13205,0 0.13205,-0.13124 0,-23.37891 1.71817,0 0,23.77725 c 0.0867,0 0.13205,0.0422 0.13205,0.13201 l 6.07885,1.05531 -0.2641,1.9817 -11.62644,-2.37773 m -15.85585,6.34111 c -0.0868,2.905 -0.13205,5.15072 -0.13205,6.73331 l -9.11674,-3.56429 0,-59.56821 9.24879,-2.37773 0,58.77692 m -3.16994,-1.45442 c 0.0875,0 0.13205,-0.0445 0.13205,-0.13124 l 0,-29.05767 -3.96454,-0.26632 c -0.0867,0 -0.13205,0.0445 -0.13205,0.13431 l 0,27.33923 c 0,0.0875 0.0453,0.13201 0.13205,0.13201 l 3.70121,1.84968 0.13128,0 z"
         style="fill:#a6a6a6;fill-opacity:1;fill-rule:nonzero;stroke:#000000;stroke-opacity:1"
         id="path34"
         inkscape:connector-curvature="0" /><path
         d="m 115.31823,188.86346 0.13205,-9.50937 5.41631,9.50937 -5.54836,0 m 7.39858,-4.22434 -3.43404,-5.41704 3.43404,0 0,5.41704 m 28.40586,-27.60632 0,-0.26325 0.39615,-4.35942 0,-0.13201 0.39845,-3.69937 54.03486,2.37773 0.66255,1.32164 c 0,0.0867 0.0422,0.13201 0.13205,0.13201 l 0,0.13201 6.87038,12.28312 -63.15391,-1.45135 0.65947,-6.34111 m 76.2329,8.18772 -0.79153,0 -7.53063,-12.9424 0,-0.13201 -0.39614,-0.65929 4.88888,0.26403 0.39538,0.52727 0,0.26402 5.15221,8.19079 -1.71817,4.48759 z"
         style="fill:#aa0000;fill-opacity:1;fill-rule:nonzero;stroke:none"
         id="path36"
         inkscape:connector-curvature="0" /><path
         d="m 119.28277,179.22208 3.43404,5.41704 0,4.22434 -1.85022,0 -5.41631,-9.50937 0,-0.13201 3.83249,0 m 102.12906,-14.1328 -0.92665,0 -7.26652,-12.81116 c 0,-0.0867 -0.0422,-0.13201 -0.13205,-0.13201 l -0.39615,-0.92638 4.22864,0.26709 0.52819,0.92331 0.13128,0 0,0.13201 4.22864,7.0004 -0.39538,5.54674 m -5.15221,-0.13201 -0.92664,0 -6.7391,-12.67915 -0.13205,0 0,-0.13201 -0.52743,-1.05839 3.03789,0.13201 0.66255,1.05839 c 0,0.0867 0.0422,0.13201 0.13205,0.13201 l 0,0.13201 5.02016,8.85008 -0.52743,3.56505 z"
         style="fill:#ff0000;fill-opacity:1;fill-rule:nonzero;stroke:none"
         id="path38"
         inkscape:connector-curvature="0" /><path
         d="m 121.92528,201.94094 -3.16994,4.0954 -2.90891,-5.94508 1.19074,-1.05532 1.05562,2.11371 0.39538,-5.2858 -1.18767,1.58643 -1.05869,-0.92407 3.04096,-4.22664 2.64251,4.35865 -1.05869,1.45135 -1.18767,-1.71461 0,4.75469 1.31972,-1.1904 0.92664,1.98169 m 150.48275,-40.02068 -4.75606,3.16902 -3.56532,-3.56505 1.71817,0 1.58305,1.71767 0.79537,-5.68106 -2.37842,1.9817 -1.71817,0 5.02016,-4.0954 3.30122,4.75468 -1.84715,0 -1.45407,-2.77299 -0.79229,5.81307 1.84791,-1.32164 2.2456,0 m -47.16678,21.52846 0,-0.13124 1.98227,-9.77415 0,-0.13201 8.7206,0 c 0.26409,-0.0898 0.57272,-0.13201 0.92357,-0.13201 0.26717,0 0.57349,0.0422 0.92665,0.13201 l 6.87114,0 0.13205,0.13201 0,0.13201 -2.64251,9.64214 0,0.13124 -16.91377,0 m 6.87038,-5.0187 c 0,1.32241 0.48597,2.42301 1.45484,3.30103 0.88135,0.88186 1.93697,1.36692 3.16994,1.45442 l 0.26333,0 c 1.23604,-0.0875 2.29166,-0.57256 3.17301,-1.45442 0.96887,-0.87802 1.45177,-1.97862 1.45177,-3.30103 0,-1.32164 -0.4829,-2.42224 -1.45177,-3.30026 -0.70477,-0.70457 -1.54159,-1.14589 -2.5097,-1.32241 l -1.71893,0 c -0.88135,0.17652 -1.67288,0.61784 -2.37765,1.32241 -0.96887,0.87802 -1.45484,1.97862 -1.45484,3.30026 m 1.19074,3.56505 c -1.05869,-0.96859 -1.58612,-2.15591 -1.58612,-3.56505 0,-1.40914 0.52743,-2.5957 1.58612,-3.56735 0.44068,-0.52805 0.92358,-0.8788 1.45407,-1.05532 l -7.26883,0 -1.84791,9.37812 9.24879,0 c -0.61725,-0.26402 -1.14544,-0.66005 -1.58612,-1.1904 m 7.13448,0 c -0.5282,0.53035 -1.10092,0.92638 -1.71817,1.1904 l 3.17224,0 2.51047,-9.37812 -5.41938,0 c 0.53126,0.17652 1.01416,0.52727 1.45484,1.05532 0.96887,0.97165 1.45407,2.15821 1.45407,3.56735 0,1.40914 -0.4852,2.59646 -1.45407,3.56505 m -5.94681,-0.9233 c -0.70477,-0.70457 -1.05562,-1.58643 -1.05562,-2.64175 0,-0.96782 0.35085,-1.8044 1.05562,-2.50897 0.70478,-0.70457 1.58613,-1.05838 2.64482,-1.05838 0.96887,0 1.80569,0.35381 2.51046,1.05838 0.70478,0.70457 1.05563,1.54115 1.05563,2.50897 0,1.05532 -0.35085,1.93718 -1.05563,2.64175 -0.70477,0.70456 -1.54159,1.05838 -2.51046,1.05838 -1.05869,0 -1.94004,-0.35382 -2.64482,-1.05838 m -0.66024,-2.64175 c 0,0.96859 0.30939,1.75988 0.92664,2.37772 0.61495,0.61784 1.40725,0.92331 2.37842,0.92331 0.87905,0 1.62835,-0.30547 2.24329,-0.92331 0.61802,-0.61784 0.92665,-1.40913 0.92665,-2.37772 0,-0.88109 -0.30863,-1.62787 -0.92665,-2.24495 -0.61494,-0.61784 -1.36424,-0.92407 -2.24329,-0.92407 -0.97117,0 -1.76347,0.30623 -2.37842,0.92407 -0.61725,0.61708 -0.92664,1.36386 -0.92664,2.24495 m -23.25366,13.86955 0,0.26325 -52.31899,0 -0.13205,-0.13124 c 0.003,-0.0875 0.0484,-0.13201 0.13205,-0.13201 l 52.31899,0 m -16.6466,24.82949 0.2641,0 0,0.26402 -38.84233,0 0,-0.13201 0.13205,-0.13201 38.44618,0 m 4.88811,0.13201 0.13205,-0.13201 7.66498,0 0,0.26402 -7.66498,0 c -0.0867,0 -0.13205,-0.0422 -0.13205,-0.13201 z"
         style="fill:#ffffff;fill-opacity:1;fill-rule:nonzero;stroke:none"
         id="path40"
         inkscape:connector-curvature="0" /><path
         d="m 201.06402,138.01331 c 16.03242,-1.84969 30.21079,-1.1904 42.54277,1.98169 -14.09238,-1.05839 -28.27381,-1.71767 -42.54277,-1.98169 m 40.2964,-2.64098 0.5305,0.13201 c 0.17428,0 0.35085,0.0445 0.5282,0.13201 l 3.16994,0.7913 0,2.24571 c -1.58689,-0.44131 -3.16994,-0.83658 -4.75606,-1.18733 -11.80379,-2.64174 -25.1914,-3.08229 -40.16513,-1.32241 l 0,-2.1137 c 14.70963,-1.75988 28.27382,-1.31934 40.69255,1.32241 m 0.2641,-4.35942 c 0.0898,0.0867 0.17658,0.13201 0.2664,0.13201 1.23297,0.26402 2.46517,0.57256 3.69814,0.92331 l 0,2.24571 c -1.40955,-0.44054 -2.81909,-0.83658 -4.22864,-1.18732 l -0.26409,0 c -10.30442,-2.11371 -20.47679,-2.86279 -30.52019,-2.24572 -3.34651,0.17729 -6.6485,0.48276 -9.90827,0.92331 l 0,-2.11371 c 3.34652,-0.43747 6.60705,-0.74601 9.77699,-0.9233 11.44987,-0.61707 21.84411,0.13201 31.17966,2.24571 z"
         style="fill:#aaa5a5;fill-opacity:1;fill-rule:nonzero;stroke:none"
         id="path42"
         inkscape:connector-curvature="0" /><path
         d="m 150.1991,163.37391 -3.43711,-0.92637 1.85022,-14.52884 2.24636,0.52804 0.2641,0 0.39615,0.13201 -0.2641,3.56736 0,0.26402 -0.52819,4.35942 0,0.13201 -0.52743,6.47235 z"
         style="fill:#aa0000;fill-opacity:1;fill-rule:nonzero;stroke:none"
         id="path44"
         inkscape:connector-curvature="0" /><path
         d="m 197.23383,215.41446 -0.26333,1.18733 -0.66331,0.52727 -15.58791,10.17249 0,0.13201 -4.22864,2.77299 0,0.52804 c 0,0.35382 -0.13205,0.65928 -0.39614,0.9233 -0.35392,0.26709 -0.7493,0.39834 -1.18998,0.39834 -0.35085,0 -0.70477,-0.13125 -1.05562,-0.39834 -0.2641,-0.17422 -0.39615,-0.43747 -0.39615,-0.79129 l 0,-0.13201 c 0,-0.35075 0.13205,-0.66005 0.39615,-0.92331 0.35085,-0.26402 0.70477,-0.39603 1.05562,-0.39603 0.44068,0 0.7946,0.0867 1.05793,0.26402 l 0.13205,0.13201 c 0.0875,0 0.13205,-0.0453 0.13205,-0.13201 l 21.00728,-14.26481 m 0.5282,6.86531 -1.19074,0 4.22863,-23.77417 c 0.17658,-0.26402 0.30863,-0.43825 0.39615,-0.52804 0.0898,0 0.13128,-0.0422 0.13128,-0.13201 0.26717,-0.17653 0.48597,-0.30854 0.66331,-0.39527 0.0868,0 0.21881,0.0867 0.39538,0.26325 l 0,0.13202 0.2641,0.52804 -4.88811,23.90618 z"
         style="fill:#000000;fill-opacity:1;fill-rule:nonzero;stroke:none"
         id="path46"
         inkscape:connector-curvature="0" /><path
         d="m 179.13239,227.30155 -20.87524,0 c -1.23297,0.17422 -2.11432,0.0422 -2.64175,-0.39834 -0.52819,-0.43824 -0.75006,-1.18732 -0.66024,-2.24264 l 0.79153,-7.26749 37.7867,0 -14.401,9.90847 m 31.18042,-35.13399 0,0.13201 -51.79156,0 0,-0.13201 0.5305,-5.68183 c 0.87904,-2.46368 2.77379,-3.60956 5.6804,-3.43227 l 42.67405,0 c 1.40955,0 2.42371,0.35075 3.03866,1.05532 0.52743,0.70456 0.7493,1.76295 0.66255,3.17209 l -0.7946,4.88669 m -12.28668,30.51132 0.13205,-0.13202 1.05792,-5.15378 7.00013,0 -0.92358,6.47312 c -0.17734,2.64098 -2.24636,3.7861 -6.2109,3.43535 l -17.57095,0 14.92844,-9.90847 0.53126,0 -0.79459,5.02177 0,0.26403 1.85022,0 z"
         style="fill:#aaccff;fill-opacity:1;fill-rule:nonzero;stroke:none"
         id="path48"
         inkscape:connector-curvature="0" /><path
         d="m 206.35058,217.12906 -7.13448,0 3.69814,-18.75547 c 0,-0.17423 -0.0453,-0.35075 -0.13205,-0.52804 l 0,-0.13202 -0.13205,0 0,-0.13124 c -0.17658,-0.35151 -0.39538,-0.48276 -0.65948,-0.39603 -0.26409,0 -0.57272,0.13201 -0.92664,0.39603 0,0.0867 -0.0422,0.13124 -0.13205,0.13124 l 0,0.13202 c -0.17734,0.0898 -0.30863,0.2218 -0.39615,0.39603 l -0.13205,0.13201 -3.16994,16.50976 -3.30429,2.24571 -38.18285,0 2.11431,-19.28351 0,-0.13202 0.5282,-5.15071 51.92361,0 -0.92434,5.01947 c 0,0.0867 0.0422,0.13124 0.13205,0.13124 -0.0898,0.003 -0.13205,0.0453 -0.13205,0.13202 l -3.03789,19.28351 z"
         style="fill:#afdde9;fill-opacity:1;fill-rule:nonzero;stroke:none"
         id="path50"
         inkscape:connector-curvature="0" /></g></g></svg>