<?xml version="1.0" encoding="UTF-8" standalone="no"?>
<!-- Created with Inkscape (http://www.inkscape.org/) -->

<svg
   xmlns:dc="http://purl.org/dc/elements/1.1/"
   xmlns:cc="http://creativecommons.org/ns#"
   xmlns:rdf="http://www.w3.org/1999/02/22-rdf-syntax-ns#"
   xmlns:svg="http://www.w3.org/2000/svg"
   xmlns="http://www.w3.org/2000/svg"
   xmlns:sodipodi="http://sodipodi.sourceforge.net/DTD/sodipodi-0.dtd"
   xmlns:inkscape="http://www.inkscape.org/namespaces/inkscape"
   id="svg2"
   version="1.1"
   inkscape:version="0.48.4 r9939"
   width="139.14134"
   height="68.030678"
   xml:space="preserve"
   sodipodi:docname="navio.svg"><metadata
     id="metadata8"><rdf:RDF><cc:Work
         rdf:about=""><dc:format>image/svg+xml</dc:format><dc:type
           rdf:resource="http://purl.org/dc/dcmitype/StillImage" /><dc:title /></cc:Work></rdf:RDF></metadata><defs
     id="defs6"><filter
       inkscape:collect="always"
       id="filter5218"
       color-interpolation-filters="sRGB"><feGaussianBlur
         inkscape:collect="always"
         stdDeviation="4.0321404"
         id="feGaussianBlur5220" /></filter></defs><sodipodi:namedview
     pagecolor="#ffffff"
     bordercolor="#666666"
     borderopacity="1"
     objecttolerance="10"
     gridtolerance="10"
     guidetolerance="10"
     inkscape:pageopacity="0"
     inkscape:pageshadow="2"
     inkscape:window-width="1600"
     inkscape:window-height="876"
     id="namedview4"
     showgrid="false"
     showguides="true"
     inkscape:guide-bbox="true"
     inkscape:zoom="4.1309609"
     inkscape:cx="73.073398"
     inkscape:cy="22.999242"
     inkscape:window-x="0"
     inkscape:window-y="1"
     inkscape:window-maximized="1"
     inkscape:current-layer="g3501"><sodipodi:guide
       orientation="1,0"
       position="-5.033504,-38.357108"
       id="guide4220" /><sodipodi:guide
       orientation="1,0"
       position="145.92752,-42.778562"
       id="guide4222" /><sodipodi:guide
       orientation="0,1"
       position="128.24171,91.128278"
       id="guide4224" /><sodipodi:guide
       orientation="0,1"
       position="155.40206,-59.832735"
       id="guide4226" /></sodipodi:namedview><g
     id="g10"
     inkscape:groupmode="layer"
     inkscape:label="map"
     transform="matrix(1.25,0,0,-1.25,6512.0926,1271.1529)"><g
       id="g3501"
       transform="matrix(0.20916586,0,0,-0.20916586,-5228.4536,1029.4679)"><g
         id="g5222"><g
           style="fill:#666666;stroke:#666666;stroke-width:15.29886341;stroke-miterlimit:4;stroke-dasharray:none;filter:url(#filter5218)"
           id="g5210"><path
             d="m 603.07533,193.5885 c -1.58309,-2.21691 -4.13726,-3.52816 -6.85425,-3.52816 l -29.20657,0 0,-54.54042 c 0,-4.65043 -3.77092,-8.41991 -8.42135,-8.41991 l -40.19374,0 0,-41.378501 c 0,-4.65043 -3.77092,-8.41991 -8.42135,-8.41991 l -30.70243,0 c -4.65043,0 -8.42135,3.76948 -8.42135,8.41991 l 0,41.378501 -20.18919,0 0,-41.378501 c 0,-4.65043 -3.77092,-8.41991 -8.42135,-8.41991 l -30.70243,0 c -4.65043,0 -8.42135,3.76948 -8.42135,8.41991 l 0,41.378501 -20.18484,0 0,-41.378501 c 0,-4.65043 -3.77092,-8.41991 -8.42135,-8.41991 l -30.70386,0 c -4.65043,0 -8.41991,3.76948 -8.41991,8.41991 l 0,41.378501 -67.47556,0 c -2.92777,0 -5.64623,1.52058 -7.17553,4.01661 l -36.18875,58.94372 -109.02992,0 c -2.9191,0 -5.6288,1.51331 -7.1625,3.9919 -1.5336,2.48439 -1.6732,5.58516 -0.3707,8.19603 l 47.974,95.95382 c 1.4261,2.85334 4.3408,4.65463 7.5317,4.65463 l 399.80463,0 c 3.59794,0 6.79612,-2.28668 7.96489,-5.68648 l 32.9237,-95.9541 c 0.88386,-2.57453 0.46811,-5.41509 -1.11064,-7.62764"
             style="fill:#666666;fill-opacity:1;fill-rule:nonzero;stroke:#666666;stroke-width:15.29886341;stroke-miterlimit:4;stroke-dasharray:none"
             id="path5212"
             inkscape:connector-curvature="0" /></g><path
           d="m 596.21962,182.79177 -21.93799,0 0,-47.27185 c 0,-8.65105 -7.03597,-15.68993 -15.68847,-15.68993 l -32.92516,0 0,-34.108481 c 0,-8.65105 -7.03888,-15.68848 -15.68993,-15.68848 l -30.70243,0 c -8.65105,0 -15.68993,7.03743 -15.68993,15.68848 l 0,34.108481 -5.65203,0 0,-34.108481 c 0,-8.65105 -7.03742,-15.68848 -15.68993,-15.68848 l -30.70389,0 c -8.65104,0 -15.68847,7.03743 -15.68847,15.68848 l 0,34.108481 -5.64768,0 0,-34.108481 c 0,-8.65105 -7.03888,-15.68848 -15.68993,-15.68848 l -30.70386,0 c -8.65105,0 -15.68993,7.03743 -15.68993,15.68848 l 0,34.108481 -60.207,0 c -5.41799,0 -10.54232,2.86963 -13.36835,7.48371 l -34.06194,55.47807 -104.96245,0 c -5.4747,0 -10.4639,2.7795 -13.348,7.44301 -2.876901,4.66061 -3.134201,10.36643 -0.6862,15.26399 l 47.9726,95.95252 c 2.6748,5.35098 8.0521,8.67401 14.0341,8.67401 l 399.80463,0 c 6.70015,0 12.66473,-4.25953 14.83951,-10.59626 l 32.92224,-95.95062 c 1.64416,-4.78272 0.87076,-10.0975 -2.07009,-14.21586 -2.93795,-4.11401 -7.71196,-6.57079 -12.76942,-6.57079"
           style="fill:#ffffff;fill-opacity:1;fill-rule:nonzero;stroke:none"
           id="path26"
           inkscape:connector-curvature="0" /><g
           id="g5207"><path
             inkscape:connector-curvature="0"
             id="path170"
             style="fill:#ffffff;fill-opacity:1;fill-rule:nonzero;stroke:none"
             d="m 603.07533,193.5885 c -1.58309,-2.21691 -4.13726,-3.52816 -6.85425,-3.52816 l -29.20657,0 0,-54.54042 c 0,-4.65043 -3.77092,-8.41991 -8.42135,-8.41991 l -40.19374,0 0,-41.378501 c 0,-4.65043 -3.77092,-8.41991 -8.42135,-8.41991 l -30.70243,0 c -4.65043,0 -8.42135,3.76948 -8.42135,8.41991 l 0,41.378501 -20.18919,0 0,-41.378501 c 0,-4.65043 -3.77092,-8.41991 -8.42135,-8.41991 l -30.70243,0 c -4.65043,0 -8.42135,3.76948 -8.42135,8.41991 l 0,41.378501 -20.18484,0 0,-41.378501 c 0,-4.65043 -3.77092,-8.41991 -8.42135,-8.41991 l -30.70386,0 c -4.65043,0 -8.41991,3.76948 -8.41991,8.41991 l 0,41.378501 -67.47556,0 c -2.92777,0 -5.64623,1.52058 -7.17553,4.01661 l -36.18875,58.94372 -109.02992,0 c -2.9191,0 -5.6288,1.51331 -7.1625,3.9919 -1.5336,2.48439 -1.6732,5.58516 -0.3707,8.19603 l 47.974,95.95382 c 1.4261,2.85334 4.3408,4.65463 7.5317,4.65463 l 399.80463,0 c 3.59794,0 6.79612,-2.28668 7.96489,-5.68648 l 32.9237,-95.9541 c 0.88386,-2.57453 0.46811,-5.41509 -1.11064,-7.62764" /></g><path
           d="m 343.80992,135.51992 30.70578,0 0,-33.6023 -30.70578,0 0,33.6023 z"
           style="fill:#ed1c28;fill-opacity:1;fill-rule:nonzero;stroke:none"
           id="path172"
           inkscape:connector-curvature="0" /><path
           d="m 343.80992,94.359469 30.70578,0 0,-8.63654 -30.70578,0 0,8.63654 z"
           style="fill:#ed1c28;fill-opacity:1;fill-rule:nonzero;stroke:none"
           id="path174"
           inkscape:connector-curvature="0" /><path
           d="m 343.80992,101.91733 30.70578,0 0,-7.557611 -30.70578,0 0,7.557611 z"
           style="fill:#fbc508;fill-opacity:1;fill-rule:nonzero;stroke:none"
           id="path176"
           inkscape:connector-curvature="0" /><path
           d="m 411.54132,135.51992 30.7052,0 0,-33.6023 -30.7052,0 0,33.6023 z"
           style="fill:#ed1c28;fill-opacity:1;fill-rule:nonzero;stroke:none"
           id="path178"
           inkscape:connector-curvature="0" /><path
           d="m 411.54132,94.359469 30.7052,0 0,-8.63654 -30.7052,0 0,8.63654 z"
           style="fill:#ed1c28;fill-opacity:1;fill-rule:nonzero;stroke:none"
           id="path180"
           inkscape:connector-curvature="0" /><path
           d="m 411.54132,101.91733 30.7052,0 0,-7.557611 -30.7052,0 0,7.557611 z"
           style="fill:#fbc508;fill-opacity:1;fill-rule:nonzero;stroke:none"
           id="path182"
           inkscape:connector-curvature="0" /><path
           d="m 479.27275,94.359469 30.70577,0 0,-8.63654 -30.70577,0 0,8.63654 z"
           style="fill:#ed1c28;fill-opacity:1;fill-rule:nonzero;stroke:none"
           id="path184"
           inkscape:connector-curvature="0" /><path
           d="m 479.27275,135.51992 30.70577,0 0,-33.6023 -30.70577,0 0,33.6023 z"
           style="fill:#ed1c28;fill-opacity:1;fill-rule:nonzero;stroke:none"
           id="path186"
           inkscape:connector-curvature="0" /><path
           d="m 479.27275,101.91733 30.70577,0 0,-7.557611 -30.70577,0 0,7.557611 z"
           style="fill:#fbc508;fill-opacity:1;fill-rule:nonzero;stroke:none"
           id="path188"
           inkscape:connector-curvature="0" /><path
           d="m 522.84635,187.6966 c -9.35028,0 -16.93287,-7.57966 -16.93287,-16.93285 0,-9.35029 7.58259,-16.9314 16.93287,-16.9314 9.35173,0 16.93286,7.58111 16.93286,16.9314 0,9.35319 -7.58113,16.93285 -16.93286,16.93285 z m -54.56079,0 c -9.35171,0 -16.93284,-7.57966 -16.93284,-16.93285 0,-9.35029 7.58113,-16.9314 16.93284,-16.9314 9.35174,0 16.93286,7.58111 16.93286,16.9314 0,9.35319 -7.58112,16.93285 -16.93286,16.93285 z m -54.56076,0 c -9.35174,0 -16.93287,-7.57966 -16.93287,-16.93285 0,-9.35029 7.58113,-16.9314 16.93287,-16.9314 9.35028,0 16.93286,7.58111 16.93286,16.9314 0,9.35319 -7.58258,16.93285 -16.93286,16.93285 z m -54.56222,0 c -9.35028,0 -16.93139,-7.57966 -16.93139,-16.93285 0,-9.35029 7.58111,-16.9314 16.93139,-16.9314 9.35174,0 16.93284,7.58111 16.93284,16.9314 0,9.35319 -7.5811,16.93285 -16.93284,16.93285 z m -54.56078,0 c -9.35174,0 -16.93283,-7.57966 -16.93283,-16.93285 0,-9.35029 7.58109,-16.9314 16.93283,-16.9314 9.35175,0 16.93287,7.58111 16.93287,16.9314 0,9.35319 -7.58112,16.93285 -16.93287,16.93285 z m 253.99136,-52.17668 -290.67871,0 -38.65278,62.96323 329.33149,0 0,-62.96323"
           style="fill:#fbc508;fill-opacity:1;fill-rule:nonzero;stroke:none"
           id="path190"
           inkscape:connector-curvature="0" /><path
           d="m 590.18963,216.06291 -2.50621,7.30491 8.53912,-24.88467 -480.70379,0 9.1322,18.26301 -0.3416,-0.68325 465.88028,0"
           style="fill:#58c5b9;fill-opacity:1;fill-rule:nonzero;stroke:none"
           id="path192"
           inkscape:connector-curvature="0" /><path
           d="m 129.69535,226.83493 33.8003,67.60044 399.80173,0 16.74097,-48.78648 -440.936,0 -5.386,-10.77057 450.01733,0 -1.09319,3.18654 3.85378,-11.22993 -456.79892,0"
           style="fill:#58c5b9;fill-opacity:1;fill-rule:nonzero;stroke:none"
           id="path194"
           inkscape:connector-curvature="0" /><path
           d="m 586.49427,226.83493 1.18915,-3.46711 2.50621,-7.30491 -465.88028,0 0.3416,0.68325 5.043,10.08877 456.80032,0"
           style="fill:#ed1c28;fill-opacity:1;fill-rule:nonzero;stroke:none"
           id="path196"
           inkscape:connector-curvature="0" /><path
           d="m 133.71635,234.87832 5.386,10.77057 440.936,0 2.60214,-7.58403 1.09319,-3.18654 -450.01733,0"
           style="fill:#fbc508;fill-opacity:1;fill-rule:nonzero;stroke:none"
           id="path198"
           inkscape:connector-curvature="0" /><path
           d="m 522.84635,153.83235 c -9.35028,0 -16.93287,7.58111 -16.93287,16.9314 0,9.35319 7.58259,16.93285 16.93287,16.93285 9.35173,0 16.93286,-7.57966 16.93286,-16.93285 0,-9.35029 -7.58113,-16.9314 -16.93286,-16.9314"
           style="fill:#967e72;fill-opacity:1;fill-rule:nonzero;stroke:none"
           id="path200"
           inkscape:connector-curvature="0" /><path
           d="m 468.28556,153.83235 c -9.35171,0 -16.93284,7.58111 -16.93284,16.9314 0,9.35319 7.58113,16.93285 16.93284,16.93285 9.35174,0 16.93286,-7.57966 16.93286,-16.93285 0,-9.35029 -7.58112,-16.9314 -16.93286,-16.9314"
           style="fill:#967e72;fill-opacity:1;fill-rule:nonzero;stroke:none"
           id="path202"
           inkscape:connector-curvature="0" /><path
           d="m 413.7248,153.83235 c -9.35174,0 -16.93287,7.58111 -16.93287,16.9314 0,9.35319 7.58113,16.93285 16.93287,16.93285 9.35028,0 16.93286,-7.57966 16.93286,-16.93285 0,-9.35029 -7.58258,-16.9314 -16.93286,-16.9314"
           style="fill:#967e72;fill-opacity:1;fill-rule:nonzero;stroke:none"
           id="path204"
           inkscape:connector-curvature="0" /><path
           d="m 359.16258,153.83235 c -9.35028,0 -16.93139,7.58111 -16.93139,16.9314 0,9.35319 7.58111,16.93285 16.93139,16.93285 9.35174,0 16.93284,-7.57966 16.93284,-16.93285 0,-9.35029 -7.5811,-16.9314 -16.93284,-16.9314"
           style="fill:#967e72;fill-opacity:1;fill-rule:nonzero;stroke:none"
           id="path206"
           inkscape:connector-curvature="0" /><path
           d="m 304.6018,153.83235 c -9.35174,0 -16.93283,7.58111 -16.93283,16.9314 0,9.35319 7.58109,16.93285 16.93283,16.93285 9.35175,0 16.93287,-7.57966 16.93287,-16.93285 0,-9.35029 -7.58112,-16.9314 -16.93287,-16.9314"
           style="fill:#967e72;fill-opacity:1;fill-rule:nonzero;stroke:none"
           id="path208"
           inkscape:connector-curvature="0" /></g></g></g></svg>