<?xml version="1.0" encoding="UTF-8" standalone="no"?>
<!-- Created with Inkscape (http://www.inkscape.org/) -->

<svg
   xmlns:dc="http://purl.org/dc/elements/1.1/"
   xmlns:cc="http://creativecommons.org/ns#"
   xmlns:rdf="http://www.w3.org/1999/02/22-rdf-syntax-ns#"
   xmlns:svg="http://www.w3.org/2000/svg"
   xmlns="http://www.w3.org/2000/svg"
   xmlns:sodipodi="http://sodipodi.sourceforge.net/DTD/sodipodi-0.dtd"
   xmlns:inkscape="http://www.inkscape.org/namespaces/inkscape"
   id="svg2"
   version="1.1"
   inkscape:version="0.48.4 r9939"
   width="134.57211"
   height="119.26877"
   xml:space="preserve"
   sodipodi:docname="ovelha.svg"><metadata
     id="metadata8"><rdf:RDF><cc:Work
         rdf:about=""><dc:format>image/svg+xml</dc:format><dc:type
           rdf:resource="http://purl.org/dc/dcmitype/StillImage" /><dc:title /></cc:Work></rdf:RDF></metadata><defs
     id="defs6"><filter
       inkscape:collect="always"
       id="filter7182"
       color-interpolation-filters="sRGB"><feGaussianBlur
         inkscape:collect="always"
         stdDeviation="7.5216929"
         id="feGaussianBlur7184" /></filter></defs><sodipodi:namedview
     pagecolor="#ffffff"
     bordercolor="#666666"
     borderopacity="1"
     objecttolerance="10"
     gridtolerance="10"
     guidetolerance="10"
     inkscape:pageopacity="0"
     inkscape:pageshadow="2"
     inkscape:window-width="1600"
     inkscape:window-height="876"
     id="namedview4"
     showgrid="false"
     showguides="true"
     inkscape:guide-bbox="true"
     inkscape:zoom="3.0159847"
     inkscape:cx="77.949498"
     inkscape:cy="55.221748"
     inkscape:window-x="0"
     inkscape:window-y="1"
     inkscape:window-maximized="1"
     inkscape:current-layer="g3501"><sodipodi:guide
       orientation="1,0"
       position="-7.0542389,-7.2485301"
       id="guide4220" /><sodipodi:guide
       orientation="1,0"
       position="143.90678,-11.669984"
       id="guide4222" /><sodipodi:guide
       orientation="0,1"
       position="126.22097,122.23686"
       id="guide4224" /><sodipodi:guide
       orientation="0,1"
       position="153.38132,-28.724158"
       id="guide4226" /></sodipodi:namedview><g
     id="g10"
     inkscape:groupmode="layer"
     inkscape:label="map"
     transform="matrix(1.25,0,0,-1.25,6510.0718,1291.2823)"><g
       id="g3501"
       transform="matrix(0.20916586,0,0,-0.20916586,-5228.4536,1029.4679)"><g
         id="g7186"
         transform="matrix(1.018138,0,0,1.0042663,17.112291,-0.69283426)"><path
           inkscape:connector-curvature="0"
           id="path7180"
           style="fill:#808080;fill-opacity:1;fill-rule:nonzero;stroke:#808080;stroke-width:15.1297369;stroke-miterlimit:4;stroke-dasharray:none;filter:url(#filter7182)"
           d="m 465.97595,125.23086 c 5.41482,-7.81614 18.78738,-10.20073 33.9202,-16.68602 18.60159,-7.97146 18.60159,-38.087889 -15.05824,-28.343974 -10.87224,3.145944 -19.51368,8.699319 -26.24868,14.771938 -1.49076,-8.842451 -7.93341,-17.957481 -28.66833,-16.544393 0,0 15.94443,-35.430745 -22.14499,-35.430745 0,0 -3.54187,-44.2884282 -38.97412,-15.944439 0,0 -29.23023,-34.5445269 -52.2599,-7.085245 0,0 -41.63128,-23.029674 -63.77473,22.143462 0,0 -42.5175,-10.62862 -46.9471,38.974118 0,0 -40.74506,4.429608 -27.45777,42.517508 0,0 -32.77359,7.08676 -17.71537,42.5175 0,0 -18.60159,18.60007 -6.20053,34.54451 0,0 -19.48782,15.94445 -0.88623,35.43075 l 0,0 c 0,0 -0.43245,0.5893 -1.05829,1.60952 -0.25125,0.40962 -0.53143,0.88927 -0.83293,1.43289 -1.60495,2.90536 -3.69565,7.58621 -4.02912,12.7254 -4.93668,-0.25886 -10.83876,-2.63584 -17.10933,-9.56727 -16.82915,-18.6016 -35.430746,4.42808 -20.37254,26.57306 11.1631,16.41649 30.11036,16.76062 43.85903,10.06978 l -0.0411,0.29997 c -0.43703,3.50531 -0.61822,7.57403 -0.10054,11.66406 0.14771,1.16946 0.35328,2.34043 0.62584,3.50075 1.49837,6.38174 5.0387,12.4437 12.34625,16.09671 0,0 -0.36089,0.78268 -0.82531,2.09222 -0.13096,0.37004 -0.26801,0.7781 -0.40962,1.22885 -0.335,1.06287 -0.68522,2.32977 -0.97607,3.74438 -0.0777,0.37458 -0.15075,0.76137 -0.21926,1.15574 -0.12639,0.74463 -0.23147,1.52119 -0.30911,2.31758 -0.0868,0.89384 -0.14011,1.81205 -0.14011,2.74854 0,0.44158 0.0108,0.88773 0.0351,1.33695 0.0715,1.34608 0.25734,2.71045 0.59538,4.05955 0.4492,1.79989 1.16945,3.5708 2.24907,5.2321 0.79637,1.22579 1.79224,2.38914 3.01651,3.46116 l 0.33805,0.2756 c 0.61822,0.5147 1.29888,1.00348 2.03283,1.46944 0.97455,0.61668 2.06024,1.18467 3.25711,1.69784 0.48879,0.21011 0.99738,0.41112 1.52577,0.60146 0.44158,0.15836 0.87405,0.3213 1.34456,0.46597 0,0 -0.32587,2.02523 -0.19795,4.86661 0.0183,0.40657 0.0457,0.82836 0.0838,1.26388 0.0334,0.37761 0.0746,0.76288 0.12639,1.15725 0.14618,1.10246 0.37154,2.26428 0.70806,3.43678 0.67153,2.34195 1.78768,4.72501 3.6043,6.74875 0.60603,0.67455 1.28973,1.30952 2.06023,1.88967 2.40744,1.8151 5.66911,3.0957 10.07435,3.3972 0.88165,0.0594 1.809,0.0807 2.78354,0.0579 1.94908,-0.0426 4.09156,-0.25888 6.44417,-0.67306 0,0 1.47552,3.03631 4.77679,6.52945 0.4964,0.5238 1.04762,1.05981 1.62778,1.59734 0.51012,0.47205 1.04611,0.94254 1.62171,1.41157 0.93952,0.76441 1.96279,1.51661 3.08503,2.23079 0.52078,0.33042 1.06134,0.65173 1.62171,0.96389 0.95018,0.52686 1.97193,1.01414 3.04088,1.46791 2.08308,0.88317 4.3824,1.61104 6.93601,2.0709 0.77202,0.13854 1.56688,0.25428 2.38459,0.34414 1.9171,0.20859 3.97582,0.25124 6.14571,0.13855 2.83683,10.89053 10.6347,30.41336 21.9059,31.07574 9.88705,0.58322 14.42781,-16.39972 16.37995,-28.13384 0.15836,0.0335 0.30607,0.0747 0.46747,0.10508 0.91212,0.16444 1.88057,0.26343 2.90536,0.28933 l 0.093,0.006 c 0.7172,0.0153 1.47552,-0.0229 2.25059,-0.0867 1.32933,7.09285 4.7311,17.55548 13.33449,19.84869 7.22838,1.92776 11.83005,-6.3665 14.52831,-14.33188 0.6426,0.33958 1.30193,0.66697 1.99629,0.96085 1.44963,0.61213 3.01194,1.11157 4.68542,1.4481 1.11464,0.22385 2.28104,0.37306 3.49466,0.43552 1.8227,0.0944 3.75504,-0.0108 5.79701,-0.36547 1.36284,-0.23755 2.77288,-0.58471 4.23316,-1.0583 0.72939,-0.23601 1.47097,-0.50403 2.22623,-0.80552 1.5075,-0.60451 3.06524,-1.3415 4.6702,-2.22619 0,0 1.83029,0.59384 4.82552,1.23033 1.36131,0.29085 2.96169,0.58929 4.74176,0.84664 4.1418,0.59691 9.24599,0.96389 14.52678,0.44922 1.97955,-0.19187 3.98344,-0.50862 5.97213,-0.98216 1.32478,-0.31672 2.64191,-0.70351 3.93929,-1.17098 1.29736,-0.4675 2.57491,-1.01413 3.8205,-1.65216 0.20254,-0.10357 0.39743,-0.22385 0.59843,-0.33348 2.85665,5.53509 7.88315,12.46808 15.60794,14.01211 8.30187,1.66128 13.48979,-9.12567 16.21546,-17.45499 l 0.093,-0.0518 c 1.29127,-0.65325 2.62516,-1.47552 3.99713,-2.4881 l 0.0442,-0.0306 c 3.23578,11.01692 10.80371,31.96504 21.2816,30.65549 8.80893,-1.10093 14.87852,-20.68163 18.21178,-35.34393 1.3491,-0.7903 2.6678,-1.69023 3.93165,-2.74396 0,0 2.93123,-0.31369 6.74109,-1.4466 0.34719,-0.10205 0.70048,-0.21165 1.05982,-0.32888 7.1888,-2.33587 16.66927,-7.52532 16.11501,-18.59705 0,0 9.36931,-0.62585 16.97988,-6.69542 1.20142,-0.9578 2.36023,-2.05262 3.43071,-3.30127 1.89884,-2.21404 3.50836,-4.92904 4.61233,-8.2227 0.29846,-0.89079 0.55884,-1.82269 0.77659,-2.80183 0.49031,-2.20795 0.77355,-4.6321 0.77355,-7.32431 0,0 1.99322,0.37311 4.67169,-0.14007 0.67,-0.1279 1.38112,-0.31216 2.1166,-0.571 1.22426,-0.43247 2.51098,-1.07355 3.76568,-2.01307 3.01045,-2.2582 5.83356,-6.24468 7.16139,-13.21876 0.41571,-2.18054 0.64869,-4.11745 0.73548,-5.8366 0.029,-0.57407 0.0426,-1.12378 0.041,-1.65064 -0.008,-2.1044 -0.25127,-3.84183 -0.64414,-5.27623 -0.23601,-0.85882 -0.5238,-1.60952 -0.84814,-2.26429 -0.21623,-0.43702 -0.44616,-0.83141 -0.68675,-1.18621 -0.29997,-0.44311 -0.61672,-0.82075 -0.93497,-1.1527 l -0.37914,-0.37002 c -0.21776,-0.19795 -0.43551,-0.37459 -0.65022,-0.52991 l -0.073,-0.0487 c -1.46791,-1.04307 -2.75616,-1.1725 -2.75919,-1.1725 0.006,-10e-4 10.98189,-4.12201 11.23924,-17.2875 0.0716,-3.68803 -0.72027,-8.10089 -2.80792,-13.31774 38.16707,-19.1315 45.72435,-62.9555 26.11321,-95.17482 -19.47871,-31.99853 -61.89113,-35.58911 -82.63825,-38.23104" /><path
           d="m 465.97595,125.23086 c 5.41482,-7.81614 18.78738,-10.20073 33.9202,-16.68602 18.60159,-7.97146 18.60159,-38.087889 -15.05824,-28.343974 -10.87224,3.145944 -19.51368,8.699319 -26.24868,14.771938 -1.49076,-8.842451 -7.93341,-17.957481 -28.66833,-16.544393 0,0 15.94443,-35.430745 -22.14499,-35.430745 0,0 -3.54187,-44.2884282 -38.97412,-15.944439 0,0 -29.23023,-34.5445269 -52.2599,-7.085245 0,0 -41.63128,-23.029674 -63.77473,22.143462 0,0 -42.5175,-10.62862 -46.9471,38.974118 0,0 -40.74506,4.429608 -27.45777,42.517508 0,0 -32.77359,7.08676 -17.71537,42.5175 0,0 -18.60159,18.60007 -6.20053,34.54451 0,0 -19.48782,15.94445 -0.88623,35.43075 l 0,0 c 0,0 -0.43245,0.5893 -1.05829,1.60952 -0.25125,0.40962 -0.53143,0.88927 -0.83293,1.43289 -1.60495,2.90536 -3.69565,7.58621 -4.02912,12.7254 -4.93668,-0.25886 -10.83876,-2.63584 -17.10933,-9.56727 -16.82915,-18.6016 -35.430746,4.42808 -20.37254,26.57306 11.1631,16.41649 30.11036,16.76062 43.85903,10.06978 l -0.0411,0.29997 c -0.43703,3.50531 -0.61822,7.57403 -0.10054,11.66406 0.14771,1.16946 0.35328,2.34043 0.62584,3.50075 1.49837,6.38174 5.0387,12.4437 12.34625,16.09671 0,0 -0.36089,0.78268 -0.82531,2.09222 -0.13096,0.37004 -0.26801,0.7781 -0.40962,1.22885 -0.335,1.06287 -0.68522,2.32977 -0.97607,3.74438 -0.0777,0.37458 -0.15075,0.76137 -0.21926,1.15574 -0.12639,0.74463 -0.23147,1.52119 -0.30911,2.31758 -0.0868,0.89384 -0.14011,1.81205 -0.14011,2.74854 0,0.44158 0.0108,0.88773 0.0351,1.33695 0.0715,1.34608 0.25734,2.71045 0.59538,4.05955 0.4492,1.79989 1.16945,3.5708 2.24907,5.2321 0.79637,1.22579 1.79224,2.38914 3.01651,3.46116 l 0.33805,0.2756 c 0.61822,0.5147 1.29888,1.00348 2.03283,1.46944 0.97455,0.61668 2.06024,1.18467 3.25711,1.69784 0.48879,0.21011 0.99738,0.41112 1.52577,0.60146 0.44158,0.15836 0.87405,0.3213 1.34456,0.46597 0,0 -0.32587,2.02523 -0.19795,4.86661 0.0183,0.40657 0.0457,0.82836 0.0838,1.26388 0.0334,0.37761 0.0746,0.76288 0.12639,1.15725 0.14618,1.10246 0.37154,2.26428 0.70806,3.43678 0.67153,2.34195 1.78768,4.72501 3.6043,6.74875 0.60603,0.67455 1.28973,1.30952 2.06023,1.88967 2.40744,1.8151 5.66911,3.0957 10.07435,3.3972 0.88165,0.0594 1.809,0.0807 2.78354,0.0579 1.94908,-0.0426 4.09156,-0.25888 6.44417,-0.67306 0,0 1.47552,3.03631 4.77679,6.52945 0.4964,0.5238 1.04762,1.05981 1.62778,1.59734 0.51012,0.47205 1.04611,0.94254 1.62171,1.41157 0.93952,0.76441 1.96279,1.51661 3.08503,2.23079 0.52078,0.33042 1.06134,0.65173 1.62171,0.96389 0.95018,0.52686 1.97193,1.01414 3.04088,1.46791 2.08308,0.88317 4.3824,1.61104 6.93601,2.0709 0.77202,0.13854 1.56688,0.25428 2.38459,0.34414 1.9171,0.20859 3.97582,0.25124 6.14571,0.13855 2.83683,10.89053 10.6347,30.41336 21.9059,31.07574 9.88705,0.58322 14.42781,-16.39972 16.37995,-28.13384 0.15836,0.0335 0.30607,0.0747 0.46747,0.10508 0.91212,0.16444 1.88057,0.26343 2.90536,0.28933 l 0.093,0.006 c 0.7172,0.0153 1.47552,-0.0229 2.25059,-0.0867 1.32933,7.09285 4.7311,17.55548 13.33449,19.84869 7.22838,1.92776 11.83005,-6.3665 14.52831,-14.33188 0.6426,0.33958 1.30193,0.66697 1.99629,0.96085 1.44963,0.61213 3.01194,1.11157 4.68542,1.4481 1.11464,0.22385 2.28104,0.37306 3.49466,0.43552 1.8227,0.0944 3.75504,-0.0108 5.79701,-0.36547 1.36284,-0.23755 2.77288,-0.58471 4.23316,-1.0583 0.72939,-0.23601 1.47097,-0.50403 2.22623,-0.80552 1.5075,-0.60451 3.06524,-1.3415 4.6702,-2.22619 0,0 1.83029,0.59384 4.82552,1.23033 1.36131,0.29085 2.96169,0.58929 4.74176,0.84664 4.1418,0.59691 9.24599,0.96389 14.52678,0.44922 1.97955,-0.19187 3.98344,-0.50862 5.97213,-0.98216 1.32478,-0.31672 2.64191,-0.70351 3.93929,-1.17098 1.29736,-0.4675 2.57491,-1.01413 3.8205,-1.65216 0.20254,-0.10357 0.39743,-0.22385 0.59843,-0.33348 2.85665,5.53509 7.88315,12.46808 15.60794,14.01211 8.30187,1.66128 13.48979,-9.12567 16.21546,-17.45499 l 0.093,-0.0518 c 1.29127,-0.65325 2.62516,-1.47552 3.99713,-2.4881 l 0.0442,-0.0306 c 3.23578,11.01692 10.80371,31.96504 21.2816,30.65549 8.80893,-1.10093 14.87852,-20.68163 18.21178,-35.34393 1.3491,-0.7903 2.6678,-1.69023 3.93165,-2.74396 0,0 2.93123,-0.31369 6.74109,-1.4466 0.34719,-0.10205 0.70048,-0.21165 1.05982,-0.32888 7.1888,-2.33587 16.66927,-7.52532 16.11501,-18.59705 0,0 9.36931,-0.62585 16.97988,-6.69542 1.20142,-0.9578 2.36023,-2.05262 3.43071,-3.30127 1.89884,-2.21404 3.50836,-4.92904 4.61233,-8.2227 0.29846,-0.89079 0.55884,-1.82269 0.77659,-2.80183 0.49031,-2.20795 0.77355,-4.6321 0.77355,-7.32431 0,0 1.99322,0.37311 4.67169,-0.14007 0.67,-0.1279 1.38112,-0.31216 2.1166,-0.571 1.22426,-0.43247 2.51098,-1.07355 3.76568,-2.01307 3.01045,-2.2582 5.83356,-6.24468 7.16139,-13.21876 0.41571,-2.18054 0.64869,-4.11745 0.73548,-5.8366 0.029,-0.57407 0.0426,-1.12378 0.041,-1.65064 -0.008,-2.1044 -0.25127,-3.84183 -0.64414,-5.27623 -0.23601,-0.85882 -0.5238,-1.60952 -0.84814,-2.26429 -0.21623,-0.43702 -0.44616,-0.83141 -0.68675,-1.18621 -0.29997,-0.44311 -0.61672,-0.82075 -0.93497,-1.1527 l -0.37914,-0.37002 c -0.21776,-0.19795 -0.43551,-0.37459 -0.65022,-0.52991 l -0.073,-0.0487 c -1.46791,-1.04307 -2.75616,-1.1725 -2.75919,-1.1725 0.006,-10e-4 10.98189,-4.12201 11.23924,-17.2875 0.0716,-3.68803 -0.72027,-8.10089 -2.80792,-13.31774 38.16707,-19.1315 45.72435,-62.9555 26.11321,-95.17482 -19.47871,-31.99853 -61.89113,-35.58911 -82.63825,-38.23104"
           style="fill:#ffffff;fill-opacity:1;fill-rule:nonzero;stroke:#ffffff;stroke-width:15.1297369;stroke-miterlimit:4;stroke-dasharray:none"
           id="path24"
           inkscape:connector-curvature="0" /><path
           d="m 397.16209,385.4493 c -1.28366,0.10357 -2.50187,0.0518 -3.64848,-0.11268 -1.52881,-0.21925 -2.92971,-0.64257 -4.18746,-1.17246 -0.31523,-0.1325 -0.61978,-0.27258 -0.91669,-0.41724 -0.59387,-0.28933 -1.15119,-0.59844 -1.67045,-0.91821 -0.25884,-0.15989 -0.50858,-0.32131 -0.74918,-0.48423 -2.64344,-1.7892 -4.10829,-3.67279 -4.10829,-3.67279 -0.94104,1.27298 -1.95213,2.42568 -3.01805,3.46724 l -0.16292,0.14616 c -0.89537,0.86034 -1.83336,1.63694 -2.8003,2.34956 -0.33347,0.24517 -0.67153,0.47966 -1.01261,0.70809 -0.78724,0.52989 -1.59277,1.01563 -2.41504,1.46027 2.85817,5.53512 7.88314,12.46807 15.60945,14.01211 8.30189,1.6613 13.4898,-9.12569 16.21548,-17.45499 -1.05676,0.52993 -2.08919,0.95477 -3.08807,1.27452 -1.41157,0.45227 -2.76224,0.71112 -4.04739,0.81465"
           style="fill:#6a5e50;fill-opacity:1;fill-rule:nonzero;stroke:none"
           id="path564"
           inkscape:connector-curvature="0" /><path
           d="m 437.57061,379.93098 c -0.20559,0.0396 -0.41115,0.0792 -0.61824,0.11412 -1.5425,0.27257 -3.07896,0.44768 -4.58493,0.54209 -0.59232,0.0366 -1.18008,0.064 -1.7618,0.0777 -10.18243,0.24057 -18.60767,-2.87948 -18.60767,-2.87948 -1.21512,1.15575 -2.40285,2.14247 -3.5662,3.00433 3.23579,11.01691 10.80371,31.96501 21.28156,30.65549 8.80896,-1.10093 14.87857,-20.68166 18.21177,-35.34397 -2.50791,1.47098 -5.13003,2.51859 -7.77347,3.23124 -0.86034,0.23295 -1.72067,0.43243 -2.58102,0.59844"
           style="fill:#6a5e50;fill-opacity:1;fill-rule:nonzero;stroke:none"
           id="path566"
           inkscape:connector-curvature="0" /><path
           d="m 266.88084,381.34863 c -0.61365,-0.44313 -1.17554,-0.90906 -1.69023,-1.38568 -0.51467,-0.47664 -0.98062,-0.96238 -1.40242,-1.44507 -0.84207,-0.96235 -1.50141,-1.90799 -2.00086,-2.72112 -0.24972,-0.40657 -0.45986,-0.77963 -0.63193,-1.10549 -0.23602,-0.44769 -0.39591,-0.79638 -0.4964,-1.02936 l -0.76898,0.0169 c -2.36783,1.23645 -4.65953,2.32216 -6.85683,3.22817 -2.39676,0.98978 -4.69303,1.79224 -6.89033,2.4272 -1.09941,0.31829 -2.17444,0.59389 -3.2236,0.83142 -2.78659,0.62889 -5.38587,0.96087 -7.83746,1.08877 2.83683,10.89051 10.6347,30.41336 21.9059,31.07726 9.88705,0.58167 14.42781,-16.40127 16.37995,-28.13539 -0.76289,-0.15988 -1.49531,-0.35324 -2.18054,-0.59231 -1.65216,-0.58015 -3.08047,-1.36896 -4.30627,-2.25516"
           style="fill:#6a5e50;fill-opacity:1;fill-rule:nonzero;stroke:none"
           id="path568"
           inkscape:connector-curvature="0" /><path
           d="m 295.07561,378.67169 c -1.65978,0.99586 -3.24798,1.84705 -4.76614,2.56732 -1.51815,0.72022 -2.96626,1.30951 -4.34737,1.78156 -2.51554,0.86034 -4.79506,1.3187 -6.87815,1.48922 1.32934,7.09285 4.73111,17.55551 13.33449,19.84872 7.22838,1.92777 11.83005,-6.3665 14.52832,-14.33189 -7.85878,-4.15702 -11.87115,-11.35493 -11.87115,-11.35493"
           style="fill:#6a5e50;fill-opacity:1;fill-rule:nonzero;stroke:none"
           id="path570"
           inkscape:connector-curvature="0" /><path
           d="m 156.00977,268.83606 c -1.10701,-0.77507 -2.08612,-1.5806 -2.94951,-2.412 -3.4505,-3.32106 -5.04021,-7.03041 -5.51683,-10.68344 -0.11877,-0.91362 -0.1675,-1.82422 -0.15988,-2.72415 0.004,-0.39743 0.0243,-0.79181 0.0487,-1.1862 -4.93667,-0.25886 -10.83875,-2.63583 -17.10933,-9.56727 -16.82915,-18.60161 -35.430744,4.42808 -20.37253,26.57306 11.16309,16.41648 30.11035,16.76062 43.85903,10.06977 0.0502,-0.39439 0.10357,-0.78725 0.15989,-1.1664 0.7842,-5.2397 2.04044,-8.90337 2.04044,-8.90337"
           style="fill:#6a5e50;fill-opacity:1;fill-rule:nonzero;stroke:none"
           id="path572"
           inkscape:connector-curvature="0" /><path
           d="m 172.02732,339.58943 c -0.73396,-0.46593 -1.41462,-0.95474 -2.03285,-1.46944 0.61823,0.5147 1.29889,1.00351 2.03285,1.46944"
           style="fill:#ffffff;fill-opacity:1;fill-rule:nonzero;stroke:none"
           id="path574"
           inkscape:connector-curvature="0" /><path
           d="m 163.76045,323.75463 c 0,-0.93649 0.0532,-1.85468 0.14008,-2.74852 -0.0868,0.89384 -0.14008,1.81203 -0.14008,2.74852"
           style="fill:#ffffff;fill-opacity:1;fill-rule:nonzero;stroke:none"
           id="path576"
           inkscape:connector-curvature="0" /><path
           d="m 165.40499,313.7884 c 0.1416,-0.45073 0.27865,-0.85881 0.40961,-1.22884 -0.13096,0.37003 -0.26801,0.77811 -0.40961,1.22884"
           style="fill:#ffffff;fill-opacity:1;fill-rule:nonzero;stroke:none"
           id="path578"
           inkscape:connector-curvature="0" /><path
           d="m 176.81019,341.88876 c -0.52839,-0.19034 -1.03698,-0.39134 -1.52578,-0.60149 0.4888,0.21015 0.99739,0.41115 1.52578,0.60149"
           style="fill:#ffffff;fill-opacity:1;fill-rule:nonzero;stroke:none"
           id="path580"
           inkscape:connector-curvature="0" /><path
           d="m 214.9529,376.26881 c -1.12224,-0.71415 -2.14551,-1.46638 -3.08503,-2.23079 0.94105,0.76441 1.96279,1.51664 3.08503,2.23079"
           style="fill:#ffffff;fill-opacity:1;fill-rule:nonzero;stroke:none"
           id="path582"
           inkscape:connector-curvature="0" /><path
           d="m 219.61549,378.70061 c -1.06895,-0.45378 -2.0907,-0.94105 -3.04088,-1.46792 0.95018,0.52687 1.97193,1.01414 3.04088,1.46792"
           style="fill:#ffffff;fill-opacity:1;fill-rule:nonzero;stroke:none"
           id="path584"
           inkscape:connector-curvature="0" /><path
           d="m 178.875,353.07926 c -0.33652,-1.1725 -0.56188,-2.33437 -0.70806,-3.43679 0.14618,1.10242 0.37154,2.26429 0.70806,3.43679"
           style="fill:#ffffff;fill-opacity:1;fill-rule:nonzero;stroke:none"
           id="path586"
           inkscape:connector-curvature="0" /><path
           d="m 343.617,390.49259 c 4.14181,0.59691 9.24598,0.96389 14.52679,0.44919 -5.28081,0.5147 -10.38498,0.14772 -14.52679,-0.44919"
           style="fill:#ffffff;fill-opacity:1;fill-rule:nonzero;stroke:none"
           id="path588"
           inkscape:connector-curvature="0" /><path
           d="m 317.12312,392.87107 c 4.85749,0.24973 10.50528,-0.91362 16.92661,-4.45549 0,0 3.87228,1.25474 9.56727,2.07701 -5.69499,-0.82227 -9.56727,-2.07701 -9.56727,-2.07701 -6.42133,3.54187 -12.06912,4.70522 -16.92661,4.45549"
           style="fill:#ffffff;fill-opacity:1;fill-rule:nonzero;stroke:none"
           id="path590"
           inkscape:connector-curvature="0" /><path
           d="m 178.15475,342.3547 0,0 c 0,0 -0.42483,2.64496 -0.11421,6.13049 -0.31062,-3.48553 0.11421,-6.13049 0.11421,-6.13049"
           style="fill:#ffffff;fill-opacity:1;fill-rule:nonzero;stroke:none"
           id="path592"
           inkscape:connector-curvature="0" /><path
           d="m 525.10134,271.92109 c 0.0716,-3.68803 -0.72024,-8.10089 -2.80789,-13.31774 2.08765,5.21685 2.87945,9.62971 2.80789,13.31774"
           style="fill:#ffffff;fill-opacity:1;fill-rule:nonzero;stroke:none"
           id="path594"
           inkscape:connector-curvature="0" /><path
           d="m 166.63992,334.38323 c 0.79638,1.22582 1.79224,2.38918 3.01651,3.46116 -1.22427,-1.07198 -2.22013,-2.23534 -3.01651,-3.46116"
           style="fill:#ffffff;fill-opacity:1;fill-rule:nonzero;stroke:none"
           id="path596"
           inkscape:connector-curvature="0" /><path
           d="m 151.4614,239.10487 c 0.3015,-0.54362 0.58168,-1.02328 0.83293,-1.43288 -0.25125,0.4096 -0.53143,0.88926 -0.83293,1.43288"
           style="fill:#ffffff;fill-opacity:1;fill-rule:nonzero;stroke:none"
           id="path598"
           inkscape:connector-curvature="0" /><path
           d="m 208.61837,371.02914 c 0.49641,0.52381 1.04763,1.05981 1.62779,1.59732 -0.58016,-0.53751 -1.13138,-1.07351 -1.62779,-1.59732"
           style="fill:#ffffff;fill-opacity:1;fill-rule:nonzero;stroke:none"
           id="path600"
           inkscape:connector-curvature="0" /><path
           d="m 184.53953,361.71767 c 3.8525,2.90231 9.8901,4.44177 19.30206,2.78201 l 0,0 c -9.41196,1.65976 -15.44956,0.12025 -19.30206,-2.78201"
           style="fill:#ffffff;fill-opacity:1;fill-rule:nonzero;stroke:none"
           id="path602"
           inkscape:connector-curvature="0" /><path
           d="m 502.34578,324.63934 c 0,2.69216 -0.28325,5.11634 -0.77355,7.32429 0.4903,-2.20795 0.77355,-4.63213 0.77355,-7.32429 0,0 14.17349,2.65713 17.71536,-15.94293 0.55426,-2.90688 0.78419,-5.38131 0.77657,-7.48723 0.006,2.10592 -0.22231,4.58035 -0.77657,7.48723 -3.54187,18.60006 -17.71536,15.94293 -17.71536,15.94293"
           style="fill:#ffffff;fill-opacity:1;fill-rule:nonzero;stroke:none"
           id="path604"
           inkscape:connector-curvature="0" /><path
           d="m 182.47929,359.82796 c 0.60604,0.67456 1.28975,1.30955 2.06024,1.88971 -0.77049,-0.58016 -1.4542,-1.21515 -2.06024,-1.88971"
           style="fill:#ffffff;fill-opacity:1;fill-rule:nonzero;stroke:none"
           id="path606"
           inkscape:connector-curvature="0" /><path
           d="m 517.3446,290.95971 c -1.74048,-1.58514 -3.47944,-1.75112 -3.48247,-1.75112 l 0,0 c 0,0 1.73893,0.16445 3.48247,1.75112"
           style="fill:#ffffff;fill-opacity:1;fill-rule:nonzero;stroke:none"
           id="path608"
           inkscape:connector-curvature="0" /><path
           d="m 371.87572,387.13651 c -1.24561,0.63802 -2.52315,1.18467 -3.82053,1.65213 1.29738,-0.46746 2.57492,-1.01411 3.82053,-1.65213"
           style="fill:#ffffff;fill-opacity:1;fill-rule:nonzero;stroke:none"
           id="path610"
           inkscape:connector-curvature="0" /><path
           d="m 500.79563,334.76543 c -1.10397,3.29367 -2.71351,6.00867 -4.61232,8.22274 1.89881,-2.21407 3.50835,-4.92907 4.61232,-8.22274"
           style="fill:#ffffff;fill-opacity:1;fill-rule:nonzero;stroke:none"
           id="path612"
           inkscape:connector-curvature="0" /><path
           d="m 517.72375,291.32974 c 0.31825,0.33196 0.63497,0.70959 0.93496,1.15271 -0.29999,-0.44312 -0.61671,-0.82075 -0.93496,-1.15271"
           style="fill:#ffffff;fill-opacity:1;fill-rule:nonzero;stroke:none"
           id="path614"
           inkscape:connector-curvature="0" /><path
           d="m 364.11592,389.95961 c -1.9887,0.47359 -3.99259,0.79031 -5.97213,0.98217 1.97954,-0.19186 3.98343,-0.50858 5.97213,-0.98217"
           style="fill:#ffffff;fill-opacity:1;fill-rule:nonzero;stroke:none"
           id="path616"
           inkscape:connector-curvature="0" /><path
           d="m 276.83336,384.59659 -0.093,-0.007 0.093,0.007"
           style="fill:#ffffff;fill-opacity:1;fill-rule:nonzero;stroke:none"
           id="path618"
           inkscape:connector-curvature="0" /><path
           d="m 375.90027,384.63465 c 0.96694,-0.71262 1.90493,-1.48922 2.8003,-2.34956 -0.89537,0.86034 -1.83336,1.63694 -2.8003,2.34956"
           style="fill:#ffffff;fill-opacity:1;fill-rule:nonzero;stroke:none"
           id="path620"
           inkscape:connector-curvature="0" /><path
           d="m 371.87572,387.13651 c 0.20253,-0.10356 0.39742,-0.22538 0.5969,-0.3335 0.82227,-0.44464 1.6278,-0.93038 2.41504,-1.46027 -0.97911,0.6578 -1.98105,1.26537 -3.01194,1.79377"
           style="fill:#ffffff;fill-opacity:1;fill-rule:nonzero;stroke:none"
           id="path622"
           inkscape:connector-curvature="0" /><path
           d="m 397.16209,385.4493 c 1.28515,-0.10356 2.63582,-0.36238 4.04739,-0.81465 -1.41157,0.45227 -2.76224,0.71112 -4.04739,0.81465"
           style="fill:#ffffff;fill-opacity:1;fill-rule:nonzero;stroke:none"
           id="path624"
           inkscape:connector-curvature="0" /><path
           d="m 437.57061,379.93098 c 0.86035,-0.16601 1.72068,-0.36548 2.58102,-0.59844 -0.86034,0.23296 -1.72067,0.43243 -2.58102,0.59844"
           style="fill:#ffffff;fill-opacity:1;fill-rule:nonzero;stroke:none"
           id="path626"
           inkscape:connector-curvature="0" /><path
           d="m 432.36744,380.58726 c 1.50597,-0.0944 3.04243,-0.26953 4.58493,-0.54209 -1.5425,0.27256 -3.07744,0.44767 -4.58493,0.54209"
           style="fill:#ffffff;fill-opacity:1;fill-rule:nonzero;stroke:none"
           id="path628"
           inkscape:connector-curvature="0" /><path
           d="m 430.60564,380.66494 c -10.18243,0.24056 -18.60767,-2.87948 -18.60767,-2.87948 -3.87535,3.68194 -7.49636,5.79548 -10.78849,6.84919 0.99888,-0.31975 2.03131,-0.74459 3.08807,-1.27452 1.33545,-0.66847 2.71504,-1.51967 4.13422,-2.57035 1.16335,-0.86186 2.35108,-1.84858 3.5662,-3.00432 0,0 8.42524,3.12004 18.60767,2.87948"
           style="fill:#ffffff;fill-opacity:1;fill-rule:nonzero;stroke:none"
           id="path630"
           inkscape:connector-curvature="0" /><path
           d="m 381.88154,378.67169 0,0 c -0.94104,1.27298 -1.95213,2.42568 -3.01805,3.46724 1.06592,-1.04156 2.07701,-2.19426 3.01805,-3.46724"
           style="fill:#ffffff;fill-opacity:1;fill-rule:nonzero;stroke:none"
           id="path632"
           inkscape:connector-curvature="0" /><path
           d="m 266.88084,381.34863 c 1.2258,0.88623 2.65411,1.675 4.30627,2.25515 -1.65216,-0.58015 -3.08047,-1.36892 -4.30627,-2.25515"
           style="fill:#ffffff;fill-opacity:1;fill-rule:nonzero;stroke:none"
           id="path634"
           inkscape:connector-curvature="0" /><path
           d="m 261.1554,374.69127 c 0.17207,0.32586 0.38221,0.69892 0.63193,1.10549 -0.24972,-0.40657 -0.45986,-0.77963 -0.63193,-1.10549"
           style="fill:#ffffff;fill-opacity:1;fill-rule:nonzero;stroke:none"
           id="path636"
           inkscape:connector-curvature="0" /><path
           d="m 271.18711,383.60378 c 0.68523,0.23907 1.41765,0.43246 2.18054,0.59232 0.15836,0.0335 0.30607,0.0747 0.46747,0.10509 -0.94104,-0.17054 -1.82269,-0.4081 -2.64801,-0.6974"
           style="fill:#ffffff;fill-opacity:1;fill-rule:nonzero;stroke:none"
           id="path638"
           inkscape:connector-curvature="0" /><path
           d="m 265.19061,379.96295 c -0.51467,-0.47664 -0.98062,-0.96238 -1.40242,-1.44507 0.4218,0.48269 0.88775,0.96843 1.40242,1.44507"
           style="fill:#ffffff;fill-opacity:1;fill-rule:nonzero;stroke:none"
           id="path640"
           inkscape:connector-curvature="0" /><path
           d="m 156.00977,268.83606 0,0 c -1.10701,-0.77507 -2.08612,-1.5806 -2.94951,-2.412 0.86339,0.8314 1.8425,1.63693 2.94951,2.412"
           style="fill:#ffffff;fill-opacity:1;fill-rule:nonzero;stroke:none"
           id="path642"
           inkscape:connector-curvature="0" /><path
           d="m 190.11576,279.46315 c 0,0 11.95795,31.88889 37.20319,18.6016 0,0 34.54452,23.9159 54.47393,6.64364 0,0 19.93093,14.61511 43.84532,-3.98649 0,0 18.60159,15.94444 34.54603,-6.64212 0,0 21.83586,-5.24426 25.84673,-19.97814 -0.76289,-0.22689 -1.55166,-0.50098 -2.37849,-0.83598 -28.344,-11.51636 5.31583,-70.86301 5.31583,-70.86301 7.97144,-20.37253 -12.40106,-29.23021 -12.40106,-29.23021 12.40106,-9.74391 9.7439,-28.34399 9.7439,-28.34399 23.91439,-0.88622 19.4863,-32.7736 19.4863,-32.7736 18.60159,13.28577 26.57306,-8.85768 26.57306,-8.85768 0,0 5.24273,4.93363 10.99558,10.0713 3.19164,-5.30212 8.09481,-12.08891 15.01561,-18.329031 -1.49075,-8.842463 -7.93341,-17.957488 -28.66836,-16.5444 0,0 15.94446,-35.43075 -22.14496,-35.43075 0,0 -3.54187,-44.2884282 -38.97412,-15.944439 0,0 -29.23022,-34.544516 -52.2599,-7.085234 0,0 -41.63128,-23.029685 -63.77473,22.143451 0,0 -42.5175,-10.628609 -46.9471,38.974126 0,0 -40.74506,4.429602 -27.45777,42.517497 0,0 -32.77359,7.08676 -17.71537,42.51751 0,0 -18.60159,18.60007 -6.20054,34.54452 0,0 -19.48781,15.94444 -0.88622,35.43075 l 0,0 c 0,0 8.86226,42.07286 36.76314,43.40068"
           style="fill:#ffffff;fill-opacity:1;fill-rule:nonzero;stroke:none"
           id="path644"
           inkscape:connector-curvature="0" /><path
           d="m 485.51662,267.94983 c -36.95957,2.36936 -62.0023,-16.55354 -77.30414,-34.66634 -3.33325,19.48479 -3.27232,46.44309 -22.18152,40.81815 -4.01087,14.73388 -25.84673,19.97814 -25.84673,19.97814 -15.94444,22.58656 -34.54603,6.64212 -34.54603,6.64212 -23.91439,18.6016 -43.84532,3.98649 -43.84532,3.98649 -19.92941,17.27226 -54.47393,-6.64364 -54.47393,-6.64364 -25.24524,13.28729 -37.20319,-18.6016 -37.20319,-18.6016 -27.90088,-1.32782 -36.76314,-43.40068 -36.76314,-43.40068 0,0 -0.43245,0.58928 -1.05829,1.60952 -0.25125,0.4096 -0.53143,0.88926 -0.83293,1.43288 -1.60495,2.90535 -3.69565,7.58621 -4.02913,12.7254 -0.0243,0.39439 -0.0442,0.78877 -0.0487,1.1862 -0.008,0.89993 0.0411,1.81053 0.15988,2.72415 0.47662,3.65303 2.06633,7.36238 5.51683,10.68344 0.86339,0.8314 1.8425,1.63693 2.94951,2.412 0,0 -1.25624,3.66367 -2.04044,8.90337 -0.0564,0.37915 -0.10964,0.77201 -0.15989,1.1664 l -0.0411,0.29998 c -0.43703,3.50531 -0.61823,7.57404 -0.10054,11.66407 0.14771,1.16945 0.35328,2.34043 0.62585,3.50075 1.49836,6.38173 5.03869,12.44369 12.34625,16.09671 0,0 -0.36089,0.78268 -0.82532,2.09222 -0.13096,0.37003 -0.26801,0.77811 -0.40962,1.22884 -0.33499,1.06286 -0.68522,2.32977 -0.97606,3.74437 -0.0777,0.3746 -0.15076,0.76137 -0.21928,1.15576 -0.12638,0.7446 -0.23145,1.5212 -0.30911,2.31758 -0.0868,0.89384 -0.14008,1.81203 -0.14008,2.74852 0,0.44157 0.0108,0.88773 0.0351,1.33694 0.0715,1.34609 0.25734,2.71045 0.59538,4.0596 0.4492,1.79985 1.16946,3.57079 2.24907,5.23206 0.79638,1.22582 1.79224,2.38918 3.01651,3.46116 l 0.33804,0.2756 c 0.61824,0.5147 1.29889,1.00351 2.03285,1.46944 0.97454,0.61672 2.06024,1.18467 3.25709,1.69784 0.48881,0.21015 0.99739,0.41115 1.52578,0.60149 0.44159,0.15836 0.87404,0.32128 1.34456,0.46594 l 0,0 c 0,0 -0.42483,2.64496 -0.1142,6.13049 0.0335,0.37765 0.0747,0.76287 0.12639,1.15728 0.14618,1.10242 0.37154,2.26429 0.70807,3.43679 0.67152,2.34194 1.78767,4.72501 3.60428,6.7487 0.60605,0.67456 1.28975,1.30955 2.06025,1.88971 3.85249,2.90231 9.89009,4.44177 19.30205,2.78201 l 0,0 c 0,0 1.47552,3.03632 4.77678,6.52946 0.49641,0.52381 1.04763,1.05981 1.6278,1.59732 0.51011,0.47205 1.0461,0.94257 1.6217,1.41156 0.93952,0.76441 1.96279,1.51664 3.08504,2.23079 0.52077,0.33044 1.06133,0.65172 1.6217,0.96388 0.95018,0.52687 1.97193,1.01414 3.04088,1.46792 2.08309,0.88317 4.38239,1.61104 6.93601,2.07089 0.77202,0.13858 1.56688,0.2543 2.38458,0.34415 1.91711,0.20861 3.97583,0.25123 6.14572,0.13857 2.45159,-0.1279 5.05087,-0.45988 7.83746,-1.08877 1.04916,-0.23753 2.12419,-0.51313 3.2236,-0.83137 2.1973,-0.635 4.49357,-1.43747 6.89033,-2.42725 2.1973,-0.90601 4.489,-1.99171 6.85683,-3.22817 0.21623,-0.11269 0.42332,-0.20557 0.64106,-0.32131 0,0 0.0443,0.11415 0.12792,0.30456 0.10054,0.23298 0.26038,0.58167 0.4964,1.02936 0.17207,0.32586 0.38221,0.69892 0.63193,1.10549 0.49945,0.81313 1.15879,1.75877 2.00086,2.72112 0.4218,0.48269 0.88775,0.96843 1.40243,1.44507 0.51468,0.47662 1.07657,0.94255 1.69023,1.38568 1.22579,0.88623 2.65411,1.675 4.30626,2.25515 0.82532,0.28933 1.70697,0.52687 2.64801,0.6974 0.91212,0.16447 1.88057,0.26343 2.90537,0.28933 l 0.093,0.006 c 0.7172,0.0153 1.47552,-0.0229 2.25059,-0.0867 2.08308,-0.17055 4.36261,-0.62888 6.87814,-1.48922 1.38111,-0.47205 2.82922,-1.06134 4.34738,-1.7816 1.51816,-0.72023 3.10636,-1.57143 4.76612,-2.56728 0,0 4.01239,7.19788 11.87116,11.35493 0.64259,0.33956 1.30194,0.66695 1.99629,0.96083 1.44964,0.61217 3.01196,1.11161 4.68542,1.44813 1.11464,0.22385 2.28104,0.37306 3.49466,0.43549 4.85749,0.24973 10.50527,-0.91362 16.9266,-4.45549 0,0 3.87229,1.25474 9.56727,2.07698 4.14182,0.59693 9.24599,0.96389 14.52679,0.44921 1.97955,-0.19186 3.98344,-0.50857 5.97214,-0.98216 1.32474,-0.31672 2.64191,-0.70347 3.93926,-1.17097 1.29739,-0.46746 2.57493,-1.01414 3.82053,-1.65216 1.0309,-0.52837 2.03284,-1.13594 3.01195,-1.79374 0.34108,-0.22843 0.67914,-0.46292 1.01261,-0.70809 0.96694,-0.71263 1.90492,-1.48922 2.8003,-2.34956 l 0.16291,-0.14616 c 1.06593,-1.04156 2.07702,-2.19426 3.01806,-3.46724 0,0 1.46485,1.88359 4.10829,3.67279 0.2406,0.16292 0.49034,0.32434 0.74918,0.48423 0.51926,0.31977 1.07658,0.62888 1.67045,0.9182 0.2969,0.14467 0.60146,0.28475 0.91668,0.41721 1.25776,0.52992 2.65866,0.95325 4.18747,1.1725 1.14661,0.16448 2.36481,0.21623 3.64845,0.11268 1.28518,-0.10356 2.63585,-0.36239 4.04742,-0.81465 3.29213,-1.05371 6.91314,-3.16725 10.78849,-6.8492 0,0 8.42523,3.12005 18.60767,2.87945 0.58169,-0.0137 1.16948,-0.041 1.7618,-0.0777 1.50749,-0.0944 3.04243,-0.26952 4.58492,-0.54209 0.20709,-0.0351 0.41266,-0.0747 0.61825,-0.11412 0.86033,-0.16601 1.72068,-0.36548 2.58102,-0.59844 2.64343,-0.71265 5.26556,-1.76029 7.77347,-3.23123 1.34915,-0.7903 2.66785,-1.69022 3.93169,-2.74396 0,0 2.93124,-0.31366 6.7411,-1.44657 0.34719,-0.10205 0.70044,-0.21168 1.05981,-0.32891 7.18878,-2.33587 16.66927,-7.52532 16.11498,-18.59705 0,0 9.36934,-0.62582 16.97991,-6.69541 1.20143,-0.95777 2.36023,-2.05262 3.43072,-3.30124 1.8988,-2.21408 3.50832,-4.92907 4.61232,-8.22274 0.29844,-0.89079 0.55884,-1.82269 0.77657,-2.8018 0.49033,-2.20795 0.77354,-4.63213 0.77354,-7.32429 0,0 14.17353,2.65713 17.71539,-15.94294 0.55427,-2.90687 0.78269,-5.3813 0.77657,-7.48723 -0.008,-2.1044 -0.25123,-3.84183 -0.64409,-5.27623 -0.23601,-0.85882 -0.52382,-1.60953 -0.84814,-2.2643 -0.21624,-0.43702 -0.44617,-0.83141 -0.68676,-1.1862 -0.29999,-0.44311 -0.61671,-0.82075 -0.93496,-1.15271 l -0.37915,-0.37002 c -1.74354,-1.58667 -3.48247,-1.75112 -3.48247,-1.75112 l 0,0 c 0.006,-10e-4 10.98189,-4.12202 11.2392,-17.2875 0.0716,-3.68803 -0.72023,-8.1009 -2.80788,-13.31774 -10.10023,5.06305 -22.31857,8.42066 -36.77683,9.34647"
           style="fill:#e9e9e9;fill-opacity:1;fill-rule:nonzero;stroke:none"
           id="path646"
           inkscape:connector-curvature="0" /><path
           d="m 426.16996,167.85812 c 5.87012,0 10.6286,4.75852 10.6286,10.62862 0,5.87162 -4.75848,10.63014 -10.6286,10.63014 -5.87008,0 -10.6286,-4.75852 -10.6286,-10.63014 0,-5.8701 4.75852,-10.62862 10.6286,-10.62862 z m 19.48783,-31.88736 c 5.87008,0 10.62859,4.75851 10.62859,10.62862 0,5.87009 -4.75851,10.63013 -10.62859,10.63013 -5.87161,0 -10.63013,-4.76004 -10.63013,-10.63013 0,-5.87011 4.75852,-10.62862 10.63013,-10.62862 z m 20.11062,-10.77327 c 5.41479,-7.81615 18.78738,-10.20073 33.9202,-16.68601 18.60159,-7.97147 18.60159,-38.087903 -15.05823,-28.34399 -10.87225,3.145948 -19.51369,8.699321 -26.24869,14.771949 -6.9208,6.240121 -11.82397,13.026911 -15.01561,18.329031 -5.75285,-5.13767 -10.99558,-10.0713 -10.99558,-10.0713 0,0 -7.97147,22.14345 -26.57306,8.85768 0,0 4.42809,31.88738 -19.4863,32.7736 0,0 2.65716,18.60008 -9.7439,28.34399 0,0 20.3725,8.85768 12.40106,29.23021 0,0 -33.65983,59.34665 -5.31583,70.86301 0.82683,0.335 1.6156,0.60909 2.37849,0.83598 18.9092,5.62494 18.84827,-21.33336 22.18152,-40.81815 15.30184,18.1128 40.34457,37.0357 77.30414,34.66634 14.45826,-0.92582 26.6766,-4.28342 36.77683,-9.34648 38.16708,-19.13151 45.72436,-62.9555 26.11318,-95.17482 -19.47868,-31.99853 -61.8911,-35.58911 -82.63822,-38.23104"
           style="fill:#6a5e50;fill-opacity:1;fill-rule:nonzero;stroke:none"
           id="path660"
           inkscape:connector-curvature="0" /><path
           d="m 426.16996,189.11688 c 5.87012,0 10.6286,-4.75852 10.6286,-10.63014 0,-5.8701 -4.75848,-10.62862 -10.6286,-10.62862 -5.87008,0 -10.6286,4.75852 -10.6286,10.62862 0,5.87162 4.75852,10.63014 10.6286,10.63014"
           style="fill:#ffffff;fill-opacity:1;fill-rule:nonzero;stroke:none"
           id="path662"
           inkscape:connector-curvature="0" /><path
           d="m 445.65779,157.22951 c 5.87008,0 10.62859,-4.76004 10.62859,-10.63013 0,-5.87011 -4.75851,-10.62862 -10.62859,-10.62862 -5.87161,0 -10.63013,4.75851 -10.63013,10.62862 0,5.87009 4.75852,10.63013 10.63013,10.63013"
           style="fill:#ffffff;fill-opacity:1;fill-rule:nonzero;stroke:none"
           id="path664"
           inkscape:connector-curvature="0" /></g></g></g></svg>