<?xml version="1.0" encoding="UTF-8" standalone="no"?>
<!-- Created with Inkscape (http://www.inkscape.org/) -->

<svg
   xmlns:dc="http://purl.org/dc/elements/1.1/"
   xmlns:cc="http://creativecommons.org/ns#"
   xmlns:rdf="http://www.w3.org/1999/02/22-rdf-syntax-ns#"
   xmlns:svg="http://www.w3.org/2000/svg"
   xmlns="http://www.w3.org/2000/svg"
   xmlns:sodipodi="http://sodipodi.sourceforge.net/DTD/sodipodi-0.dtd"
   xmlns:inkscape="http://www.inkscape.org/namespaces/inkscape"
   width="158.03673"
   height="180.35742"
   id="svg6854"
   version="1.1"
   inkscape:version="0.48.4 r9939"
   sodipodi:docname="patinete.svg">
  <defs
     id="defs6856">
    <clipPath
       clipPathUnits="userSpaceOnUse"
       id="clipPath9511">
      <path
         sodipodi:nodetypes="cccccccccccccc"
         inkscape:connector-curvature="0"
         id="path9513"
         d="m 431.66605,461.29199 c -2.25766,0.67223 -4.30287,-1.26257 -4.72119,-3.37436 -0.83626,-3.26292 0.51814,-6.5473 1.36041,-9.66781 1.01078,-3.14289 1.94906,-6.30963 3.42192,-9.27539 1.92657,-4.51476 4.13637,-8.90375 6.0984,-13.39932 2.18024,-5.40893 4.53098,-11.32353 9.67547,-14.58786 2.58084,-1.57279 6.09979,-1.87676 8.69332,-0.16905 0.90228,1.94627 -1.05632,3.47612 -2.2973,4.66552 -1.45433,1.35841 -2.93386,3.07992 -4.14288,4.63362 -1.93701,3.15653 -3.64879,6.14773 -4.89019,9.6991 -1.60513,3.91588 -2.80945,7.97407 -4.03613,12.01526 -1.30196,3.45303 -2.6764,6.88144 -3.84403,10.38026 -1.07661,2.4679 -2.22641,4.91402 -3.34574,7.35586 -0.48867,0.73349 -1.14889,1.38128 -1.97206,1.72417 z"
         style="fill:#ff80b2;stroke:#000000;stroke-width:0.40000001;stroke-linecap:butt;stroke-linejoin:miter;stroke-miterlimit:4;stroke-opacity:1;stroke-dasharray:none" />
    </clipPath>
    <filter
       inkscape:collect="always"
       id="filter9643"
       color-interpolation-filters="sRGB">
      <feGaussianBlur
         inkscape:collect="always"
         stdDeviation="1.0554959"
         id="feGaussianBlur9645" />
    </filter>
  </defs>
  <sodipodi:namedview
     id="base"
     pagecolor="#ffffff"
     bordercolor="#666666"
     borderopacity="1.0"
     inkscape:pageopacity="0.0"
     inkscape:pageshadow="2"
     inkscape:zoom="2.199588"
     inkscape:cx="151.19295"
     inkscape:cy="154.82928"
     inkscape:document-units="px"
     inkscape:current-layer="g7721"
     showgrid="false"
     inkscape:window-width="1600"
     inkscape:window-height="874"
     inkscape:window-x="0"
     inkscape:window-y="1"
     inkscape:window-maximized="1" />
  <metadata
     id="metadata6859">
    <rdf:RDF>
      <cc:Work
         rdf:about="">
        <dc:format>image/svg+xml</dc:format>
        <dc:type
           rdf:resource="http://purl.org/dc/dcmitype/StillImage" />
        <dc:title />
      </cc:Work>
    </rdf:RDF>
  </metadata>
  <g
     inkscape:label="Camada 1"
     inkscape:groupmode="layer"
     id="layer1"
     transform="translate(-316.57085,-405.86607)">
    <path
       style="color:#000000;fill:#8d5fd3;fill-opacity:1;fill-rule:nonzero;stroke:none;stroke-width:4;marker:none;visibility:visible;display:inline;overflow:visible;enable-background:accumulate"
       d=""
       id="path7568"
       inkscape:connector-curvature="0" />
    <g
       id="g7721"
       transform="matrix(-0.50165131,-0.86506992,0.86506992,-0.50165131,241.32869,1002.0795)">
      <g
         id="g9651"
         transform="matrix(1.4935674,0,0,1.4935674,-158.74029,-134.41879)">
        <g
           transform="translate(-113.00214,-132.52563)"
           id="g9647">
          <path
             inkscape:connector-curvature="0"
             id="path9637"
             d="m 429.1122,424.62224 c 5.64055,-6.18939 12.7665,-7.85455 19.56282,-4.57136 3.24924,1.56962 5.55927,3.73947 8.05356,7.56482 l 0.43297,1.33216 0.11954,-3.82843 c 0.11973,-3.83451 9.56589,4.29999 9.96706,9.60999 0.23509,3.11177 0.5228,5.69237 -1.60769,9.3663 -2.74979,4.74185 -1.92844,7.17841 4.23628,12.56689 4.21987,3.68854 14.64906,12.38615 17.05444,14.22287 1.86572,1.42465 8.2606,6.59143 13.46374,10.8781 5.12113,4.2191 7.18936,4.4801 8.59926,1.08517 0.73181,-1.76215 1.07052,-2.09862 3.37048,-3.34832 1.40631,-0.76412 3.11303,-2.08142 3.79273,-2.92734 2.33692,-2.90833 5.13587,-3.34556 7.97036,-1.24506 1.25861,0.93269 1.68974,1.61506 2.0467,3.23946 0.5353,2.43599 -0.15336,3.90432 -2.67341,5.70087 -1.13535,0.80934 -2.1592,2.01436 -3.12152,3.67381 -1.24356,2.14445 -1.63663,2.52856 -2.98699,2.91877 -1.25258,0.36195 -1.95548,0.98274 -3.61453,3.19222 -1.13275,1.50858 -3.3406,3.98599 -4.90632,5.50535 -2.08599,2.02425 -2.85514,3.00877 -2.8782,3.68413 -0.0504,1.47533 -1.47002,3.54187 -3.20167,4.66049 -0.88125,0.56928 -1.97335,1.67434 -2.42689,2.45571 -1.05199,1.81239 -3.30606,3.296 -4.86071,3.1993 -1.77547,-0.11038 -5.17791,-2.21205 -6.27127,-3.87363 -0.54811,-0.83295 -0.88203,-2.12571 -0.81048,-3.1378 0.11835,-1.67575 0.19325,-1.78847 2.83155,-4.26837 2.11633,-1.9893 2.84788,-2.9364 3.34008,-4.3242 0.69046,-1.94689 1.54823,-2.85187 2.92305,-3.08394 2.18855,-0.36942 1.83182,-2.45605 -0.92285,-5.39816 -1.43809,-1.53594 -14.50983,-12.70747 -18.02279,-15.40283 -0.95356,-0.73164 -4.86959,-3.82723 -8.7023,-6.8791 -8.80758,-7.01319 -11.23763,-8.5187 -13.93099,-8.63073 -2.62076,-0.10909 -4.77874,0.69586 -7.20529,2.68745 -5.99993,4.92447 -9.33648,11.38028 -16.14845,31.24552 -5.42569,15.82256 -7.92284,19.82977 -12.97953,20.82867 -1.88291,0.37194 -2.15504,0.30035 -4.29536,-1.1299 -1.8308,-1.22342 -2.4785,-1.94726 -3.25791,-3.64088 l -0.97282,-2.11391 -2.42002,-0.47301 c -3.21181,-0.62778 -7.26208,-2.97311 -9.68575,-5.60857 -2.17673,-2.36696 -4.14157,-6.68185 -4.30568,-9.45559 -0.26891,-4.54514 1.90278,-10.83426 4.80638,-13.91897 4.37506,-4.64795 10.01628,-6.83498 14.58497,-5.65441 1.45367,0.37563 3.34903,1.09238 4.21195,1.59278 1.9254,1.11653 1.66795,1.49306 5.24392,-7.66935 2.3259,-5.95951 2.95395,-7.22502 4.62854,-9.32637 2.06855,-2.59571 2.14158,-3.07006 0.61171,-3.97272 -0.41644,-0.24569 -1.61261,-1.7015 -2.65817,-3.23507 -1.37417,-2.01558 -2.08855,-3.70191 -2.57773,-6.08476 -0.84034,-4.09356 -0.65844,-6.37729 0.80739,-10.13654 1.43954,-3.69185 2.36706,-5.21738 4.78584,-7.87151 z"
             style="fill:#333333;stroke:#333333;stroke-width:2.67815161;stroke-linejoin:round;stroke-miterlimit:4;stroke-dasharray:none;filter:url(#filter9643)" />
          <path
             inkscape:connector-curvature="0"
             style="fill:#ffffff;stroke:#ffffff;stroke-width:2.67815161;stroke-linejoin:round;stroke-miterlimit:4;stroke-dasharray:none"
             d="m 429.1122,424.62224 c 5.64055,-6.18939 12.7665,-7.85455 19.56282,-4.57136 3.24924,1.56962 5.55927,3.73947 8.05356,7.56482 l 0.43297,1.33216 0.11954,-3.82843 c 0.11973,-3.83451 9.56589,4.29999 9.96706,9.60999 0.23509,3.11177 0.5228,5.69237 -1.60769,9.3663 -2.74979,4.74185 -1.92844,7.17841 4.23628,12.56689 4.21987,3.68854 14.64906,12.38615 17.05444,14.22287 1.86572,1.42465 8.2606,6.59143 13.46374,10.8781 5.12113,4.2191 7.18936,4.4801 8.59926,1.08517 0.73181,-1.76215 1.07052,-2.09862 3.37048,-3.34832 1.40631,-0.76412 3.11303,-2.08142 3.79273,-2.92734 2.33692,-2.90833 5.13587,-3.34556 7.97036,-1.24506 1.25861,0.93269 1.68974,1.61506 2.0467,3.23946 0.5353,2.43599 -0.15336,3.90432 -2.67341,5.70087 -1.13535,0.80934 -2.1592,2.01436 -3.12152,3.67381 -1.24356,2.14445 -1.63663,2.52856 -2.98699,2.91877 -1.25258,0.36195 -1.95548,0.98274 -3.61453,3.19222 -1.13275,1.50858 -3.3406,3.98599 -4.90632,5.50535 -2.08599,2.02425 -2.85514,3.00877 -2.8782,3.68413 -0.0504,1.47533 -1.47002,3.54187 -3.20167,4.66049 -0.88125,0.56928 -1.97335,1.67434 -2.42689,2.45571 -1.05199,1.81239 -3.30606,3.296 -4.86071,3.1993 -1.77547,-0.11038 -5.17791,-2.21205 -6.27127,-3.87363 -0.54811,-0.83295 -0.88203,-2.12571 -0.81048,-3.1378 0.11835,-1.67575 0.19325,-1.78847 2.83155,-4.26837 2.11633,-1.9893 2.84788,-2.9364 3.34008,-4.3242 0.69046,-1.94689 1.54823,-2.85187 2.92305,-3.08394 2.18855,-0.36942 1.83182,-2.45605 -0.92285,-5.39816 -1.43809,-1.53594 -14.50983,-12.70747 -18.02279,-15.40283 -0.95356,-0.73164 -4.86959,-3.82723 -8.7023,-6.8791 -8.80758,-7.01319 -11.23763,-8.5187 -13.93099,-8.63073 -2.62076,-0.10909 -4.77874,0.69586 -7.20529,2.68745 -5.99993,4.92447 -9.33648,11.38028 -16.14845,31.24552 -5.42569,15.82256 -7.92284,19.82977 -12.97953,20.82867 -1.88291,0.37194 -2.15504,0.30035 -4.29536,-1.1299 -1.8308,-1.22342 -2.4785,-1.94726 -3.25791,-3.64088 l -0.97282,-2.11391 -2.42002,-0.47301 c -3.21181,-0.62778 -7.26208,-2.97311 -9.68575,-5.60857 -2.17673,-2.36696 -4.14157,-6.68185 -4.30568,-9.45559 -0.26891,-4.54514 1.90278,-10.83426 4.80638,-13.91897 4.37506,-4.64795 10.01628,-6.83498 14.58497,-5.65441 1.45367,0.37563 3.34903,1.09238 4.21195,1.59278 1.9254,1.11653 1.66795,1.49306 5.24392,-7.66935 2.3259,-5.95951 2.95395,-7.22502 4.62854,-9.32637 2.06855,-2.59571 2.14158,-3.07006 0.61171,-3.97272 -0.41644,-0.24569 -1.61261,-1.7015 -2.65817,-3.23507 -1.37417,-2.01558 -2.08855,-3.70191 -2.57773,-6.08476 -0.84034,-4.09356 -0.65844,-6.37729 0.80739,-10.13654 1.43954,-3.69185 2.36706,-5.21738 4.78584,-7.87151 z"
             id="path9635" />
        </g>
        <g
           transform="translate(-120.80097,-85.545034)"
           id="g9515">
          <path
             style="fill:#000000"
             d="m 436.91104,377.64165 c 5.64055,-6.18939 12.7665,-7.85455 19.56282,-4.57136 3.24924,1.56962 5.55927,3.73947 8.05356,7.56482 l 0.43297,1.33216 0.11954,-3.82843 c 0.11973,-3.83451 9.56589,4.29999 9.96706,9.60999 0.23509,3.11177 0.5228,5.69237 -1.60769,9.3663 -2.74979,4.74185 -1.92844,7.17841 4.23628,12.56689 4.21987,3.68854 14.64906,12.38615 17.05444,14.22287 1.86572,1.42465 8.2606,6.59143 13.46374,10.8781 5.12113,4.2191 7.18936,4.4801 8.59926,1.08517 0.73181,-1.76215 1.07052,-2.09862 3.37048,-3.34832 1.40631,-0.76412 3.11303,-2.08142 3.79273,-2.92734 2.33692,-2.90833 5.13587,-3.34556 7.97036,-1.24506 1.25861,0.93269 1.68974,1.61506 2.0467,3.23946 0.5353,2.43599 -0.15336,3.90432 -2.67341,5.70087 -1.13535,0.80934 -2.1592,2.01436 -3.12152,3.67381 -1.24356,2.14445 -1.63663,2.52856 -2.98699,2.91877 -1.25258,0.36195 -1.95548,0.98274 -3.61453,3.19222 -1.13275,1.50858 -3.3406,3.98599 -4.90632,5.50535 -2.08599,2.02425 -2.85514,3.00877 -2.8782,3.68413 -0.0504,1.47533 -1.47002,3.54187 -3.20167,4.66049 -0.88125,0.56928 -1.97335,1.67434 -2.42689,2.45571 -1.05199,1.81239 -3.30606,3.296 -4.86071,3.1993 -1.77547,-0.11038 -5.17791,-2.21205 -6.27127,-3.87363 -0.54811,-0.83295 -0.88203,-2.12571 -0.81048,-3.1378 0.11835,-1.67575 0.19325,-1.78847 2.83155,-4.26837 2.11633,-1.9893 2.84788,-2.9364 3.34008,-4.3242 0.69046,-1.94689 1.54823,-2.85187 2.92305,-3.08394 2.18855,-0.36942 1.83182,-2.45605 -0.92285,-5.39816 -1.43809,-1.53594 -14.50983,-12.70747 -18.02279,-15.40283 -0.95356,-0.73164 -4.86959,-3.82723 -8.7023,-6.8791 -8.80758,-7.01319 -11.23763,-8.5187 -13.93099,-8.63073 -2.62076,-0.10909 -4.77874,0.69586 -7.20529,2.68745 -5.99993,4.92447 -9.33648,11.38028 -16.14845,31.24552 -5.42569,15.82256 -7.92284,19.82977 -12.97953,20.82867 -1.88291,0.37194 -2.15504,0.30035 -4.29536,-1.1299 -1.8308,-1.22342 -2.4785,-1.94726 -3.25791,-3.64088 l -0.97282,-2.11391 -2.42002,-0.47301 c -3.21181,-0.62778 -7.26208,-2.97311 -9.68575,-5.60857 -2.17673,-2.36696 -4.14157,-6.68185 -4.30568,-9.45559 -0.26891,-4.54514 1.90278,-10.83426 4.80638,-13.91897 4.37506,-4.64795 10.01628,-6.83498 14.58497,-5.65441 1.45367,0.37563 3.34903,1.09238 4.21195,1.59278 1.9254,1.11653 1.66795,1.49306 5.24392,-7.66935 2.3259,-5.95951 2.95395,-7.22502 4.62854,-9.32637 2.06855,-2.59571 2.14158,-3.07006 0.61171,-3.97272 -0.41644,-0.24569 -1.61261,-1.7015 -2.65817,-3.23507 -1.37417,-2.01558 -2.08855,-3.70191 -2.57773,-6.08476 -0.84034,-4.09356 -0.65844,-6.37729 0.80739,-10.13654 1.43954,-3.69185 2.36706,-5.21738 4.78584,-7.87151 z m -3.83124,12.48314 c -0.29304,4.40057 0.96593,8.83595 3.32328,11.70813 2.04818,2.49552 3.09847,3.09766 6.83911,3.921 5.70945,1.25669 8.03411,-0.30803 6.50701,-4.37977 -0.77961,-2.07868 -1.06763,-2.40628 -3.20549,-3.64603 -2.22859,-1.29235 -2.38024,-1.47989 -2.96045,-3.66192 -0.61046,-2.29582 -0.4123,-3.17189 1.26201,-5.57925 3.02201,-4.34509 10.8012,-1.69813 10.92053,3.71588 0.0198,0.89364 -0.22916,2.08323 -0.55306,2.64353 -0.97954,1.69435 0.96038,3.75868 3.34042,3.55467 1.68018,-0.14409 3.09215,-2.87903 4.56723,-8.84685 1.17605,-4.75806 1.17709,-4.84993 0.0802,-7.09835 -1.57719,-3.23277 -4.86491,-6.65034 -7.56662,-7.8655 -4.12197,-1.85394 -9.1469,-1.71252 -12.80806,0.36044 -3.8318,2.16957 -5.36616,3.77155 -7.53037,7.86213 -1.78713,3.37784 -2.00067,4.08253 -2.2157,7.31189 z m -28.24962,48.94192 c -0.71491,3.30361 0.0537,7.63055 1.8773,10.56783 2.08068,3.35147 5.30506,6.08845 8.26591,7.01647 3.5362,1.10836 3.40073,1.22338 4.4902,-3.81289 l 0.96702,-4.47029 -2.15045,-1.19534 c -1.78601,-0.99277 -2.22542,-1.44477 -2.5929,-2.66728 -0.9716,-3.23245 1.37108,-6.94425 4.42535,-7.0116 0.89301,-0.0196 1.99368,0.17799 2.44595,0.4392 0.45227,0.26127 0.97319,0.39338 1.15761,0.29365 0.37629,-0.20355 3.20173,-8.0335 3.17987,-8.81222 -0.0209,-0.74901 -2.90996,-2.28025 -5.46616,-2.89722 -4.23915,-1.02318 -8.17844,0.0854 -11.29297,3.17822 -2.10285,2.08817 -4.73741,6.74071 -5.30673,9.37147 z m 40.88934,-46.32583 c 0.20251,0.78208 0.30706,0.68191 0.90431,-0.86623 1.18898,-3.08203 3.89842,-3.01565 5.61186,0.13743 0.97207,1.7888 1.05093,1.8389 1.54739,0.98278 0.60355,-1.04079 -0.26348,-3.30409 -1.57696,-4.11652 -3.15274,-1.95005 -7.34522,0.54639 -6.4866,3.86247 z m -27.648,50.60458 c 0.32668,1.22858 0.86464,1.71901 2.10361,1.91782 1.12876,0.18114 1.44576,-0.86162 0.43936,-1.44522 -1.97576,-1.14574 -0.89549,-3.55439 1.21751,-2.71464 0.72632,0.28865 0.87282,0.20568 0.76497,-0.43319 -0.32023,-1.89723 -2.96402,-1.74536 -4.11317,0.23627 -0.43741,0.75427 -0.60173,1.72645 -0.41228,2.43896 z M 447.795,393.07982 c -0.0524,1.53862 0.535,2.90889 2.77887,6.48132 3.18582,5.07212 3.02368,7.32027 -0.60881,8.44183 -1.36041,0.42002 -3.05354,0.42199 -5.38974,0.006 -3.03367,-0.53987 -3.58302,-0.49033 -5.02254,0.45304 -2.36074,1.54709 -6.03055,8.15674 -9.04538,16.2915 -4.4707,12.06308 -8.09819,22.39611 -8.68774,24.74734 -0.93444,3.72675 -0.98929,7.69192 -0.13983,10.11357 0.94385,2.69095 1.82887,3.61031 4.0499,4.20704 4.77728,1.28351 8.53722,-3.78887 12.98829,-17.52204 4.47652,-13.81162 6.16653,-18.08821 9.2327,-23.36356 4.65282,-8.0051 9.03492,-12.41004 13.39336,-13.46309 2.36056,-0.57034 4.01185,-0.33474 6.0864,0.8684 1.85326,1.07481 10.88964,8.25028 18.93184,15.03313 3.14602,2.65335 8.90662,7.46458 12.80136,10.69163 8.75567,7.25467 10.19647,8.81061 10.03639,10.83839 -0.0932,1.1788 0.19208,1.79787 1.33078,2.88915 0.79709,0.76388 1.75613,1.70709 2.1312,2.09605 0.56899,0.59003 0.97664,0.51717 2.46089,-0.43986 5.26418,-3.39423 9.26367,-10.30724 7.55841,-13.06446 -1.06376,-1.71997 -2.91795,-1.41313 -5.52657,0.91457 -2.47009,2.20405 -4.17765,1.62395 -10.10109,-3.43163 -3.55418,-3.03344 -6.21537,-5.22255 -24.81213,-20.41046 -10.63074,-8.68211 -12.95845,-11.02071 -12.89252,-12.95291 0.0189,-0.55367 0.96984,-2.96681 2.11323,-5.36251 2.25683,-4.72867 2.13773,-9.48639 0.80947,-12.13226 -0.81195,-1.6174 -4.81534,-6.34328 -5.46919,-5.38042 2.24571,4.26642 -1.21311,6.80219 -2.51629,12.51868 -0.68794,3.01768 -1.43435,5.94398 -1.74712,6.48332 -1.33743,2.30634 -3.5399,2.81198 -6.00975,1.37973 -1.80712,-1.04795 -3.12777,-2.72385 -4.47813,-5.68273 -1.25425,-2.74833 -1.95705,-3.45269 -3.13296,-3.14001 -0.8847,0.23523 -1.07783,0.56041 -1.12327,1.89102 z m 50.69056,67.95475 c 0.2335,1.64497 1.584,2.92925 3.64885,3.46993 1.56012,0.40854 2.5243,-0.0665 4.40843,-2.17153 0.48709,-0.54422 1.84987,-1.82446 3.02837,-2.84493 2.05544,-1.77984 2.14836,-1.92509 2.28079,-3.56589 0.17335,-2.1491 -1.00676,-4.36732 -2.91312,-5.47525 -2.08942,-1.2143 -3.30405,-0.83184 -4.70431,1.4813 -0.6291,1.0392 -1.84989,2.60736 -2.71284,3.48478 -2.36048,2.39997 -3.25768,4.06117 -3.03617,5.62159 z m 2.081,-0.80815 c 1.57211,-0.41802 3.09277,1.41675 2.30297,2.7787 -0.51507,0.8882 -1.70641,0.59029 -2.52737,-0.63197 -0.82375,-1.22642 -0.75476,-1.88638 0.2244,-2.14673 z m 19.14082,-24.58021 c 0.19404,0.11242 0.53081,0.10927 0.74834,-0.007 0.72807,-0.38996 2.68899,0.58156 3.60297,1.78508 0.49802,0.65576 0.87074,1.89062 0.82936,2.74761 -0.1002,2.07439 0.67491,1.80627 2.7971,-0.96754 0.92992,-1.21547 2.15196,-2.57722 2.71564,-3.02611 1.65943,-1.32152 2.19808,-2.66723 1.77091,-4.42438 -0.74377,-3.05947 -4.42734,-3.83971 -6.6143,-1.401 -0.46108,0.51417 -1.91291,1.6645 -3.22628,2.55627 -2.53947,1.72432 -3.19366,2.40682 -2.62374,2.73729 z"
             id="path9434"
             inkscape:connector-curvature="0"
             sodipodi:nodetypes="ssscsssssssscsscsssscsscscscsssscssssscsssssssscsssscsssssscccscsssccscsscscccccssscssssccscsscsscsscssscssssssscccssssscsscscsscccsccscsccsssssccccssscscc" />
          <path
             style="color:#000000;fill:#0044aa;fill-opacity:1;fill-rule:nonzero;stroke:#333333;stroke-width:0;stroke-linecap:round;stroke-linejoin:round;stroke-miterlimit:4;stroke-opacity:1;stroke-dasharray:none;stroke-dashoffset:0;marker:none;visibility:visible;display:inline;overflow:visible;enable-background:accumulate"
             d="m 63.229063,-30.383786 c -4.457736,-0.754356 -9.160847,-4.258541 -11.047467,-8.231224 -1.288139,-2.712455 -1.725154,-5.129752 -1.354123,-7.490164 0.542835,-3.453392 2.440738,-7.766805 4.093073,-9.302433 0.672442,-0.624946 3.199134,-1.520149 6.935085,-2.457089 5.807859,-1.456554 7.821718,-1.095822 8.307098,1.488009 0.186452,0.99254 -0.391188,2.345654 -1.129268,2.645298 -0.321098,0.130358 -1.239856,0.431495 -2.041685,0.669192 -1.083702,0.321257 -1.709734,0.705417 -2.439205,1.496798 -1.253498,1.359885 -1.634738,2.537715 -1.513857,4.677012 0.124077,2.195857 0.980907,3.921337 2.465299,4.964607 0.940918,0.661302 1.350706,0.774308 3.095097,0.853525 2.641357,0.11995 3.083314,-0.01719 4.586489,-1.423238 1.688838,-1.579711 1.896257,-2.066097 2.045443,-4.796471 0.144985,-2.653474 0.496028,-3.420724 2.344792,-5.124856 1.296363,-1.194945 2.28171,-1.354078 3.409946,-0.550704 1.462517,1.041404 3.356329,5.874311 3.382299,8.631447 0.01578,1.67591 -0.793932,4.269542 -1.855536,5.943518 -2.463423,3.884415 -7.654672,7.409479 -11.780352,7.999329 -2.039476,0.291585 -5.801987,0.295318 -7.503128,0.0074 l 0,1.3e-5 z"
             id="path9436"
             inkscape:connector-curvature="0"
             transform="matrix(-0.50165131,0.86506992,-0.86506992,-0.50165131,443.36701,309.03044)" />
          <path
             style="color:#000000;fill:#0044aa;fill-opacity:1;fill-rule:nonzero;stroke:#333333;stroke-width:0;stroke-linecap:round;stroke-linejoin:round;stroke-miterlimit:4;stroke-opacity:1;stroke-dasharray:none;stroke-dashoffset:0;marker:none;visibility:visible;display:inline;overflow:visible;enable-background:accumulate"
             d="m 123.14781,-31.5919 c -4.14754,-0.538207 -7.32698,-2.540318 -9.23917,-5.817954 -1.51037,-2.588904 -2.2984,-8.032995 -1.24442,-8.59707 0.79227,-0.424008 5.66105,-1.334334 7.36354,-1.376775 l 1.61575,-0.04028 0.29837,1.156632 c 0.45429,1.761124 1.18197,2.803818 2.40987,3.45315 1.56576,0.827994 3.5496,0.80307 5.29464,-0.06652 2.02364,-1.008423 2.42786,-1.758361 2.54703,-4.725394 0.0548,-1.364462 0.14685,-2.480839 0.20454,-2.480839 0.0577,0 1.77989,-0.520031 3.82711,-1.155623 2.18515,-0.678416 3.95989,-1.095972 4.29776,-1.01117 1.41505,0.355154 1.90718,5.605861 0.87558,9.341967 -1.13418,4.107647 -3.13239,6.990143 -6.3355,9.139196 -2.17003,1.455934 -3.25525,1.856435 -5.94368,2.193536 -2.3303,0.292194 -3.64237,0.289369 -5.97142,-0.01286 l 0,0 z"
             id="path9438"
             inkscape:connector-curvature="0"
             transform="matrix(-0.50165131,0.86506992,-0.86506992,-0.50165131,443.36701,309.03044)" />
          <path
             style="color:#000000;fill:#cd87de;fill-opacity:1;fill-rule:nonzero;stroke:#333333;stroke-width:0;stroke-linecap:round;stroke-linejoin:round;stroke-miterlimit:4;stroke-opacity:1;stroke-dasharray:none;stroke-dashoffset:0;marker:none;visibility:visible;display:inline;overflow:visible;enable-background:accumulate"
             d="m 68.306257,-46.313689 c -0.438163,-0.818716 -0.149038,-1.679418 1.384872,-4.122653 1.80996,-2.882932 2.436056,-4.572144 2.435556,-6.571153 -6.34e-4,-2.542934 -1.042938,-4.012431 -3.189434,-4.496645 -1.168575,-0.263611 -1.716944,-0.148073 -7.462044,1.572224 -2.547876,0.762928 -6.972767,2.580015 -7.780104,2.941591 -1.653845,0.740695 -4.351428,2.415287 -4.208568,0.328209 -0.883158,-0.730029 2.02946,-7.582311 4.626439,-8.975074 1.758809,-0.943251 3.18156,-2.125683 8.142854,-2.733304 2.430179,-0.297631 4.81456,-0.670956 5.298625,-0.829611 2.026498,-0.6642 2.78096,-3.415129 5.469702,-19.943706 0.782838,-4.812364 2.347201,-14.284919 3.476362,-21.050129 2.245793,-13.45536 2.477022,-15.97824 1.597682,-17.432 -0.27285,-0.45109 -0.900549,-1.00654 -1.394889,-1.23434 -3.696344,-1.70333 -4.086924,-1.93641 -4.462738,-2.66315 -0.715689,-1.38399 0.161357,-2.7183 2.268883,-3.45182 1.806541,-0.62876 5.947797,-0.56536 8.546798,0.13085 2.461769,0.65944 5.259321,1.92528 5.470358,2.47523 0.177214,0.46182 -0.558813,3.94788 -1.023747,4.84877 -0.157097,0.30441 -0.767574,0.90204 -1.356612,1.32808 -2.018844,1.46019 -2.400128,2.84055 -5.119632,18.53454 -5.442066,31.405634 -6.115584,36.7847 -4.927688,39.355035 1.171123,2.534042 3.837727,4.595806 7.440868,5.753127 2.701003,0.867557 5.948221,1.3179 10.670703,1.479874 6.576367,0.225564 10.208937,-0.230055 23.821077,-2.987784 11.52859,-2.335616 15.37193,-2.795642 18.89439,-2.261547 3.74311,0.567552 5.45307,2.027252 5.84617,4.990554 0.20639,1.555848 -0.37136,2.83527 -2.12887,4.71441 -2.3709,2.534983 -6.28943,4.277325 -12.59386,5.599768 -4.8896,1.025661 -21.21989,3.916686 -25.3616,4.489878 -4.544813,0.628981 -11.559972,0.773775 -13.314842,0.274824 -2.128653,-0.605227 -2.898463,-1.316503 -3.791973,-3.503634 -1.369394,-3.352005 -2.092454,-4.62779 -3.203005,-5.65146 -2.859597,-2.635882 -4.875002,-1.598872 -8.083857,4.159482 -0.830708,1.490722 -1.897839,3.163066 -2.371403,3.716319 -1.453631,1.698241 -3.067709,2.240619 -3.616473,1.215245 z"
             id="path9440"
             inkscape:connector-curvature="0"
             transform="matrix(-0.50165131,0.86506992,-0.86506992,-0.50165131,443.36701,309.03044)"
             sodipodi:nodetypes="cssssscssssssssssssssssssssssssssssc" />
          <path
             style="color:#000000;fill:#aaccff;fill-opacity:1;fill-rule:nonzero;stroke:#333333;stroke-width:0;stroke-linecap:round;stroke-linejoin:round;stroke-miterlimit:4;stroke-opacity:1;stroke-dasharray:none;stroke-dashoffset:0;marker:none;visibility:visible;display:inline;overflow:visible;enable-background:accumulate"
             d="m 67.55014,-130.58652 c -1.331662,-0.59937 -3.022041,-1.28934 -3.756399,-1.53325 -1.678424,-0.55748 -2.500859,-1.26402 -2.928175,-2.51552 -0.462496,-1.35453 -0.08391,-2.73305 1.015757,-3.69856 1.198424,-1.05223 2.253859,-1.18209 4.601835,-0.56618 1.081569,0.28371 2.822443,0.65315 3.868609,0.82097 1.046166,0.16783 2.177097,0.40892 2.513181,0.53577 0.598231,0.22578 0.581101,0.25732 -0.815869,1.50242 -1.96902,1.75496 -2.469794,3.67183 -1.471035,5.63083 l 0.479892,0.94128 -0.543296,-0.014 c -0.298814,-0.008 -1.632838,-0.50439 -2.9645,-1.10377 z"
             id="path9442"
             inkscape:connector-curvature="0"
             transform="matrix(-0.50165131,0.86506992,-0.86506992,-0.50165131,443.36701,309.03044)" />
          <path
             style="color:#000000;fill:#aaccff;fill-opacity:1;fill-rule:nonzero;stroke:#333333;stroke-width:0;stroke-linecap:round;stroke-linejoin:round;stroke-miterlimit:4;stroke-opacity:1;stroke-dasharray:none;stroke-dashoffset:0;marker:none;visibility:visible;display:inline;overflow:visible;enable-background:accumulate"
             d="m 96.981448,-123.90235 c -1.325144,-0.25313 -3.199716,-0.53614 -4.165716,-0.62892 -1.465133,-0.14071 -1.875153,-0.28746 -2.472756,-0.88507 -0.608923,-0.60892 -0.715557,-0.91906 -0.710822,-2.06738 0.0065,-1.58744 0.618389,-3.07721 1.713608,-4.17243 0.82613,-0.82613 2.268458,-1.61685 2.94925,-1.61685 0.830442,0 8.918798,2.54569 9.532068,3.00007 1.1672,0.8648 1.63505,3.4206 0.88992,4.86151 -0.20908,0.40433 -0.76196,1.02636 -1.22861,1.3823 -0.71963,0.54888 -1.09514,0.64258 -2.47302,0.61707 -0.89352,-0.0165 -2.708778,-0.23718 -4.033922,-0.4903 z m 6.811692,-1.64727 c 1.1966,-1.52123 0.88941,-3.15829 -0.59264,-3.15829 -1.05053,0 -1.65396,0.73041 -1.65396,2.00199 0,1.66368 1.31508,2.34054 2.2466,1.1563 l 0,0 z"
             id="path9444"
             inkscape:connector-curvature="0"
             transform="matrix(-0.50165131,0.86506992,-0.86506992,-0.50165131,443.36701,309.03044)" />
          <path
             style="color:#000000;fill:#ff00cc;fill-opacity:1;fill-rule:nonzero;stroke:#333333;stroke-width:0;stroke-linecap:round;stroke-linejoin:round;stroke-miterlimit:4;stroke-opacity:1;stroke-dasharray:none;stroke-dashoffset:0;marker:none;visibility:visible;display:inline;overflow:visible;enable-background:accumulate"
             d="m 67.079285,-43.767408 c -1.627064,-0.991925 -2.512091,-2.737814 -2.208417,-4.356535 0.187689,-1.000468 1.528954,-2.610596 2.374103,-2.850002 0.771711,-0.218604 0.742302,0.262352 -0.109198,1.785851 -0.902703,1.615111 -0.961153,3.404883 -0.138127,4.22948 0.461106,0.461987 0.944794,0.603524 2.409352,0.705026 l 1.832425,0.126998 -0.811657,0.443638 c -1.078706,0.589603 -2.293055,0.558974 -3.348481,-0.08446 l 0,0 z"
             id="path9446"
             inkscape:connector-curvature="0"
             transform="matrix(-0.50165131,0.86506992,-0.86506992,-0.50165131,443.36701,309.03044)" />
          <path
             style="color:#000000;fill:#ff00cc;fill-opacity:1;fill-rule:nonzero;stroke:#333333;stroke-width:0;stroke-linecap:round;stroke-linejoin:round;stroke-miterlimit:4;stroke-opacity:1;stroke-dasharray:none;stroke-dashoffset:0;marker:none;visibility:visible;display:inline;overflow:visible;enable-background:accumulate"
             d="m 124.94942,-45.246547 c -0.87716,-0.550678 -1.31321,-1.631628 -0.91369,-2.264993 0.40016,-0.634392 0.77226,-0.611133 0.9404,0.05878 0.22477,0.895561 0.84257,1.423669 1.66545,1.423669 0.87359,0 1.20973,-0.379555 1.4775,-1.668365 0.24236,-1.166474 0.78898,-1.305432 1.26102,-0.320564 0.97169,2.027365 -2.32812,4.091457 -4.43068,2.771471 z"
             id="path9448"
             inkscape:connector-curvature="0"
             transform="matrix(-0.50165131,0.86506992,-0.86506992,-0.50165131,443.36701,309.03044)" />
          <path
             style="fill:#ff80b2;stroke:#000000;stroke-width:0.26781517;stroke-linecap:butt;stroke-linejoin:miter;stroke-miterlimit:4;stroke-opacity:1;stroke-dasharray:none"
             d="m 431.66605,461.29199 c -2.25766,0.67223 -4.30287,-1.26257 -4.72119,-3.37436 -0.83626,-3.26292 0.51814,-6.5473 1.36041,-9.66781 1.01078,-3.14289 1.94906,-6.30963 3.42192,-9.27539 1.92657,-4.51476 4.13637,-8.90375 6.0984,-13.39932 2.18024,-5.40893 4.53098,-11.32353 9.67547,-14.58786 2.58084,-1.57279 6.09979,-1.87676 8.69332,-0.16905 0.90228,1.94627 -1.05632,3.47612 -2.2973,4.66552 -1.45433,1.35841 -2.93386,3.07992 -4.14288,4.63362 -1.93701,3.15653 -3.64879,6.14773 -4.89019,9.6991 -1.60513,3.91588 -2.80945,7.97407 -4.03613,12.01526 -1.30196,3.45303 -2.6764,6.88144 -3.84403,10.38026 -1.07661,2.4679 -2.22641,4.91402 -3.34574,7.35586 -0.48867,0.73349 -1.14889,1.38128 -1.97206,1.72417 z"
             id="path9450"
             inkscape:connector-curvature="0"
             sodipodi:nodetypes="cccccccccccccc" />
          <g
             id="g9495"
             clip-path="url(#clipPath9511)"
             transform="matrix(0.95444173,-0.02641909,-0.01758485,0.9898026,27.701073,15.932379)"
             style="fill:#ff00cc">
            <path
               sodipodi:nodetypes="ccc"
               inkscape:connector-curvature="0"
               id="path9457"
               d="m 457.79584,419.71668 c -3.98101,-4.32492 -9.17504,-13.44232 -11.77694,-12.34699 0.74574,2.09529 9.17257,12.91173 11.77694,12.34699 z"
               style="fill:#ff00cc;stroke:none" />
            <path
               style="fill:#ff00cc;stroke:none"
               d="m 455.14939,421.50343 c -4.4276,-3.86649 -10.58206,-12.36517 -13.04945,-10.99347 0.96911,2.0018 10.52191,11.83799 13.04945,10.99347 z"
               id="path9473"
               inkscape:connector-curvature="0"
               sodipodi:nodetypes="ccc" />
            <path
               sodipodi:nodetypes="ccc"
               inkscape:connector-curvature="0"
               id="path9475"
               d="m 453.18734,423.97248 c -4.74746,-3.46627 -11.61856,-11.39677 -13.95714,-9.81544 1.13974,1.90981 11.51274,10.87684 13.95714,9.81544 z"
               style="fill:#ff00cc;stroke:none" />
            <path
               style="fill:#ff00cc;stroke:none"
               d="m 451.1729,426.39679 c -5.08996,-2.94035 -12.76743,-10.09306 -14.92409,-8.27141 1.33687,1.77741 12.60679,9.58738 14.92409,8.27141 z"
               id="path9477"
               inkscape:connector-curvature="0"
               sodipodi:nodetypes="ccc" />
            <path
               sodipodi:nodetypes="ccc"
               inkscape:connector-curvature="0"
               id="path9479"
               d="m 449.15706,429.87299 c -5.08996,-2.94035 -12.76743,-10.09306 -14.92409,-8.27141 1.33687,1.77741 12.60679,9.58738 14.92409,8.27141 z"
               style="fill:#ff00cc;stroke:none" />
            <path
               style="fill:#ff00cc;stroke:none"
               d="m 447.77391,433.33989 c -5.22416,-2.69472 -13.23341,-9.47385 -15.30091,-7.5516 1.41996,1.71175 13.04888,8.97639 15.30091,7.5516 z"
               id="path9481"
               inkscape:connector-curvature="0"
               sodipodi:nodetypes="ccc" />
            <path
               sodipodi:nodetypes="ccc"
               inkscape:connector-curvature="0"
               id="path9483"
               d="m 446.09046,437.84497 c -5.22416,-2.69472 -13.23341,-9.47385 -15.30091,-7.5516 1.41996,1.71175 13.04888,8.97639 15.30091,7.5516 z"
               style="fill:#ff00cc;stroke:none" />
            <path
               style="fill:#ff00cc;stroke:none"
               d="m 444.75463,442.55164 c -5.22416,-2.69472 -13.23341,-9.47385 -15.30091,-7.5516 1.41996,1.71175 13.04888,8.97639 15.30091,7.5516 z"
               id="path9485"
               inkscape:connector-curvature="0"
               sodipodi:nodetypes="ccc" />
            <path
               sodipodi:nodetypes="ccc"
               inkscape:connector-curvature="0"
               id="path9487"
               d="m 443.07118,447.05672 c -5.22416,-2.69472 -13.23341,-9.47385 -15.30091,-7.5516 1.41996,1.71175 13.04888,8.97639 15.30091,7.5516 z"
               style="fill:#ff00cc;stroke:none" />
            <path
               style="fill:#ff00cc;stroke:none"
               d="m 441.15694,451.79958 c -5.22416,-2.69472 -13.23341,-9.47385 -15.30091,-7.5516 1.41996,1.71175 13.04888,8.97639 15.30091,7.5516 z"
               id="path9489"
               inkscape:connector-curvature="0"
               sodipodi:nodetypes="ccc" />
            <path
               sodipodi:nodetypes="ccc"
               inkscape:connector-curvature="0"
               id="path9491"
               d="m 440.0338,455.97926 c -5.22416,-2.69472 -13.23341,-9.47385 -15.30091,-7.5516 1.41996,1.71175 13.04888,8.97639 15.30091,7.5516 z"
               style="fill:#ff00cc;stroke:none" />
            <path
               style="fill:#ff00cc;stroke:none"
               d="m 438.81193,460.00879 c -5.22416,-2.69472 -13.23341,-9.47385 -15.30091,-7.5516 1.41996,1.71175 13.04888,8.97639 15.30091,7.5516 z"
               id="path9493"
               inkscape:connector-curvature="0"
               sodipodi:nodetypes="ccc" />
          </g>
        </g>
      </g>
    </g>
  </g>
</svg>
