<?xml version="1.0" encoding="UTF-8" standalone="no"?>
<!-- Created with Inkscape (http://www.inkscape.org/) -->

<svg
   xmlns:dc="http://purl.org/dc/elements/1.1/"
   xmlns:cc="http://creativecommons.org/ns#"
   xmlns:rdf="http://www.w3.org/1999/02/22-rdf-syntax-ns#"
   xmlns:svg="http://www.w3.org/2000/svg"
   xmlns="http://www.w3.org/2000/svg"
   xmlns:xlink="http://www.w3.org/1999/xlink"
   xmlns:sodipodi="http://sodipodi.sourceforge.net/DTD/sodipodi-0.dtd"
   xmlns:inkscape="http://www.inkscape.org/namespaces/inkscape"
   version="1.1"
   width="133.17583"
   height="149.98906"
   id="svg2"
   xml:space="preserve"
   inkscape:version="0.48.4 r9939"
   sodipodi:docname="rato.svg"><sodipodi:namedview
     pagecolor="#ffffff"
     bordercolor="#666666"
     borderopacity="1"
     objecttolerance="10"
     gridtolerance="10"
     guidetolerance="10"
     inkscape:pageopacity="0"
     inkscape:pageshadow="2"
     inkscape:window-width="640"
     inkscape:window-height="480"
     id="namedview29391" /><metadata
     id="metadata8"><rdf:RDF><cc:Work
         rdf:about=""><dc:format>image/svg+xml</dc:format><dc:type
           rdf:resource="http://purl.org/dc/dcmitype/StillImage" /><dc:title /></cc:Work></rdf:RDF></metadata><defs
     id="defs6"><clipPath
       id="clipPath3840"><path
         d="m 76.288,471.202 c 1.703,-3.717 6.361,-7.176 16.198,-4.052 l 0,0 c 6.442,2.044 13.83,-4.087 14.936,-6.012 l 0,0 c 1.104,-1.924 3.361,1.861 3.361,1.861 l 0,0 c 0,0 -9.269,10.423 -20.607,5.534 l 0,0 c -10.035,-4.327 -16.36,5.16 -12.658,9.841 l 0,0 c 0,0 -3.091,-3.108 -1.23,-7.172"
         id="path3842" /></clipPath><radialGradient
       cx="0"
       cy="0"
       r="1"
       fx="0"
       fy="0"
       id="radialGradient3848"
       gradientUnits="userSpaceOnUse"
       gradientTransform="matrix(30.354462,-4.6996918,-4.6996918,-30.354462,74.794922,476.48486)"
       spreadMethod="pad"><stop
         id="stop3850"
         style="stop-color:#858789;stop-opacity:1"
         offset="0" /><stop
         id="stop3852"
         style="stop-color:#606163;stop-opacity:1"
         offset="1" /></radialGradient><clipPath
       id="clipPath3860"><path
         d="m 101.452,453.174 c 0,0 -2.012,-1.585 -2.348,-2.864 l 0,0 c -0.381,-1.431 1.661,-2.873 3.41,-1.558 l 0,0 c 1.751,1.31 2.584,5.446 2.584,5.446 l 0,0 -3.646,-1.024 z"
         id="path3862" /></clipPath><radialGradient
       cx="0"
       cy="0"
       r="1"
       fx="0"
       fy="0"
       id="radialGradient3868"
       gradientUnits="userSpaceOnUse"
       gradientTransform="matrix(7.6339569,0,0,-7.6339569,96.786133,447.40283)"
       spreadMethod="pad"><stop
         id="stop3870"
         style="stop-color:#858789;stop-opacity:1"
         offset="0" /><stop
         id="stop3872"
         style="stop-color:#606163;stop-opacity:1"
         offset="1" /></radialGradient><clipPath
       id="clipPath3880"><path
         d="m 104.515,465.425 c 0,0 -5.103,-2.043 -7.438,-6.418 l 0,0 c -1.293,-2.431 -0.438,-8.167 6.124,-7.729 l 0,0 c 4.343,0.291 12.832,4.956 12.832,4.956 l 0,0 -7.438,10.502 -4.08,-1.311 z"
         id="path3882" /></clipPath><radialGradient
       cx="0"
       cy="0"
       r="1"
       fx="0"
       fy="0"
       id="radialGradient3888"
       gradientUnits="userSpaceOnUse"
       gradientTransform="matrix(17.803726,0,0,-17.803711,96.932129,466.15332)"
       spreadMethod="pad"><stop
         id="stop3890"
         style="stop-color:#858789;stop-opacity:1"
         offset="0" /><stop
         id="stop3892"
         style="stop-color:#6a6b6d;stop-opacity:1"
         offset="1" /></radialGradient><clipPath
       id="clipPath3900"><path
         d="m 104.904,482.338 c 0,0 -10.405,-1.765 -15.07,-4.605 l 0,0 c 0,0 -2.251,0.083 -2.665,-0.391 l 0,0 c -0.588,-0.681 1.37,-1.235 1.37,-1.235 l 0,0 c 0,0 -2.165,-0.868 -2.173,-1.446 l 0,0 c -0.012,-0.949 2.897,-0.148 2.897,-0.148 l 0,0 c 0,0 -2.518,-1.39 -2.004,-2.024 l 0,0 c 0.425,-0.527 1.169,-0.204 1.993,0.119 l 0,0 c 0.671,0.263 1.395,0.526 2.044,0.331 l 0,0 c 1.451,-0.435 1.513,-1.151 2.311,-0.597 l 0,0 c 0.484,0.334 -0.579,2.027 -0.579,2.027 l 0,0 c 0,0 9.703,-0.29 12.454,-1.88 l 0,0 c 2.751,-1.594 8.978,3.908 8.978,3.908 l 0,0 -8.253,7.243 -1.303,-1.302 z"
         id="path3902" /></clipPath><radialGradient
       cx="0"
       cy="0"
       r="1"
       fx="0"
       fy="0"
       id="radialGradient3908"
       gradientUnits="userSpaceOnUse"
       gradientTransform="matrix(25.764023,0,0,-25.764023,79.415039,473.64648)"
       spreadMethod="pad"><stop
         id="stop3910"
         style="stop-color:#858789;stop-opacity:1"
         offset="0" /><stop
         id="stop3912"
         style="stop-color:#606163;stop-opacity:1"
         offset="1" /></radialGradient><clipPath
       id="clipPath3920"><path
         d="m 133.255,492.043 c -5.405,0.805 -15.672,-1.617 -15.672,-1.617 l 0,0 -1.706,0.697 -4.794,-9.885 c 0,0 8.897,-2.617 10.768,-0.044 l 0,0 c 2.768,3.805 9.769,6.507 9.769,6.507 l 0,0 c 0,0 -0.319,-1.968 0.252,-2.093 l 0,0 c 0.953,-0.198 0.731,0.483 1.897,1.447 l 0,0 c 1.165,0.965 3.556,-0.024 3.897,1.155 l 0,0 c 0.228,0.785 -2.634,1.088 -2.634,1.088 l 0,0 c 0,0 2.994,0.39 2.613,1.259 l 0,0 c -0.232,0.53 -2.565,0.49 -2.565,0.49 l 0,0 c 0,0 1.591,1.271 0.785,1.67 l 0,0 c -0.072,0.034 -0.167,0.05 -0.278,0.05 l 0,0 c -0.772,0 -2.332,-0.724 -2.332,-0.724"
         id="path3922" /></clipPath><radialGradient
       cx="0"
       cy="0"
       r="1"
       fx="0"
       fy="0"
       id="radialGradient3928"
       gradientUnits="userSpaceOnUse"
       gradientTransform="matrix(-23.740204,-10.012421,10.012421,-23.740204,144.56494,492.33105)"
       spreadMethod="pad"><stop
         id="stop3930"
         style="stop-color:#858789;stop-opacity:1"
         offset="0" /><stop
         id="stop3932"
         style="stop-color:#606163;stop-opacity:1"
         offset="1" /></radialGradient><clipPath
       id="clipPath3940"><path
         d="m 138.247,472.31 c -3.838,4.777 -10.4,2.737 -10.4,2.737 l 0,0 c 0,0 -4.913,-15.53 -0.875,-13.271 l 0,0 c 4.036,2.267 13.936,-1.92 13.936,-1.92 l 0,0 c 0.58,6.951 3.817,16.047 3.817,16.047 l 0,0 c -0.492,0.162 -0.958,0.233 -1.399,0.233 l 0,0 c -3.235,-0.001 -5.079,-3.826 -5.079,-3.826"
         id="path3942" /></clipPath><radialGradient
       cx="0"
       cy="0"
       r="1"
       fx="0"
       fy="0"
       id="radialGradient3948"
       gradientUnits="userSpaceOnUse"
       gradientTransform="matrix(15.771454,0,0,-15.771454,144.71143,467.27197)"
       spreadMethod="pad"><stop
         id="stop3950"
         style="stop-color:#aaacae;stop-opacity:1"
         offset="0" /><stop
         id="stop3952"
         style="stop-color:#737577;stop-opacity:1"
         offset="0.84269702" /><stop
         id="stop3954"
         style="stop-color:#737577;stop-opacity:1"
         offset="1" /></radialGradient><clipPath
       id="clipPath3962"><path
         d="m 105.952,488.876 c 0,0 -8.731,-25.104 2.912,-33.474 l 0,0 c 8.447,-6.073 26.883,0.721 24.373,15.283 l 0,0 c -2.291,13.283 -19.645,19.645 -19.645,19.645 l 0,0 -7.64,-1.454 z"
         id="path3964" /></clipPath><radialGradient
       cx="0"
       cy="0"
       r="1"
       fx="0"
       fy="0"
       id="radialGradient3970"
       gradientUnits="userSpaceOnUse"
       gradientTransform="matrix(37.835861,0,0,-37.835861,132.87207,453.58301)"
       spreadMethod="pad"><stop
         id="stop3972"
         style="stop-color:#aaacae;stop-opacity:1"
         offset="0" /><stop
         id="stop3974"
         style="stop-color:#737577;stop-opacity:1"
         offset="0.84269702" /><stop
         id="stop3976"
         style="stop-color:#737577;stop-opacity:1"
         offset="1" /></radialGradient><clipPath
       id="clipPath3984"><path
         d="m 109.103,482.19 c 0,0 -2.019,-10.558 0,-16.94 l 0,0 c 3.054,-9.669 15.142,-8.885 19.823,-4.128 l 0,0 c 5.522,5.614 1.03,18.607 -9.396,24.834 l 0,0 c -2.477,1.479 -4.366,2.043 -5.805,2.043 l 0,0 c -4.622,0 -4.622,-5.809 -4.622,-5.809"
         id="path3986" /></clipPath><radialGradient
       cx="0"
       cy="0"
       r="1"
       fx="0"
       fy="0"
       id="radialGradient3992"
       gradientUnits="userSpaceOnUse"
       gradientTransform="matrix(25.556549,0,0,-25.556549,130.10156,461.62744)"
       spreadMethod="pad"><stop
         id="stop3994"
         style="stop-color:#fee7d5;stop-opacity:1"
         offset="0" /><stop
         id="stop3996"
         style="stop-color:#efb794;stop-opacity:1"
         offset="1" /></radialGradient><clipPath
       id="clipPath4004"><path
         d="m 51.272,532.546 c 0,-9.893 8.02,-17.917 17.915,-17.917 l 0,0 c 9.89,0 17.911,8.024 17.911,17.917 l 0,0 c 0,9.892 -8.021,17.913 -17.911,17.913 l 0,0 c -9.895,0 -17.915,-8.021 -17.915,-17.913"
         id="path4006" /></clipPath><radialGradient
       cx="0"
       cy="0"
       r="1"
       fx="0"
       fy="0"
       id="radialGradient4012"
       gradientUnits="userSpaceOnUse"
       gradientTransform="matrix(32.50293,0,0,-32.50293,57.533691,543.14355)"
       spreadMethod="pad"><stop
         id="stop4014"
         style="stop-color:#aaacae;stop-opacity:1"
         offset="0" /><stop
         id="stop4016"
         style="stop-color:#737577;stop-opacity:1"
         offset="0.84269702" /><stop
         id="stop4018"
         style="stop-color:#858789;stop-opacity:1"
         offset="1" /></radialGradient><clipPath
       id="clipPath4026"><path
         d="m 0,595.276 841.89,0 L 841.89,0 0,0 0,595.276 z"
         id="path4028" /></clipPath><clipPath
       id="clipPath4038"><path
         d="m 58.126,532.546 c 0,-6.112 4.953,-11.06 11.061,-11.06 l 0,0 c 6.105,0 11.058,4.948 11.058,11.06 l 0,0 c 0,6.108 -4.953,11.056 -11.058,11.056 l 0,0 c -6.108,0 -11.061,-4.948 -11.061,-11.056"
         id="path4040" /></clipPath><radialGradient
       cx="0"
       cy="0"
       r="1"
       fx="0"
       fy="0"
       id="radialGradient4046"
       gradientUnits="userSpaceOnUse"
       gradientTransform="matrix(17.906891,0,0,-17.906891,63.268555,539.08545)"
       spreadMethod="pad"><stop
         id="stop4048"
         style="stop-color:#fee7d5;stop-opacity:1"
         offset="0" /><stop
         id="stop4050"
         style="stop-color:#fdd3b3;stop-opacity:1"
         offset="1" /></radialGradient><clipPath
       id="clipPath4058"><path
         d="m 104.283,546.514 c -3.385,-8.518 0.779,-18.164 9.299,-21.546 l 0,0 c 8.516,-3.383 18.161,0.777 21.546,9.295 l 0,0 c 3.382,8.518 -0.78,18.163 -9.297,21.546 l 0,0 c -2.01,0.799 -4.083,1.178 -6.121,1.178 l 0,0 c -6.601,0 -12.841,-3.968 -15.427,-10.473"
         id="path4060" /></clipPath><radialGradient
       cx="0"
       cy="0"
       r="1"
       fx="0"
       fy="0"
       id="radialGradient4066"
       gradientUnits="userSpaceOnUse"
       gradientTransform="matrix(27.98143,-11.114578,-11.114578,-27.98143,113.24268,553.35596)"
       spreadMethod="pad"><stop
         id="stop4068"
         style="stop-color:#aaacae;stop-opacity:1"
         offset="0" /><stop
         id="stop4070"
         style="stop-color:#737577;stop-opacity:1"
         offset="0.84269702" /><stop
         id="stop4072"
         style="stop-color:#858789;stop-opacity:1"
         offset="1" /></radialGradient><clipPath
       id="clipPath4080"><path
         d="m 0,595.276 841.89,0 L 841.89,0 0,0 0,595.276 z"
         id="path4082" /></clipPath><clipPath
       id="clipPath4092"><path
         d="m 110.183,544.172 c -2.088,-5.259 0.482,-11.216 5.74,-13.303 l 0,0 c 5.26,-2.092 11.216,0.477 13.302,5.736 l 0,0 c 2.092,5.26 -0.48,11.216 -5.739,13.304 l 0,0 c -1.241,0.494 -2.521,0.728 -3.781,0.728 l 0,0 c -4.073,-10e-4 -7.925,-2.448 -9.522,-6.465"
         id="path4094" /></clipPath><radialGradient
       cx="0"
       cy="0"
       r="1"
       fx="0"
       fy="0"
       id="radialGradient4100"
       gradientUnits="userSpaceOnUse"
       gradientTransform="matrix(16.292953,0,0,-16.292953,114.86377,546.69141)"
       spreadMethod="pad"><stop
         id="stop4102"
         style="stop-color:#fee7d5;stop-opacity:1"
         offset="0" /><stop
         id="stop4104"
         style="stop-color:#fdd3b3;stop-opacity:1"
         offset="1" /></radialGradient><clipPath
       id="clipPath4112"><path
         d="m 70.277,509.96 c 0,-16.519 13.394,-29.518 29.904,-29.909 l 0,0 c 17.725,-0.418 42.056,19.625 42.056,19.625 l 0,0 -0.623,2.495 c -2.523,-2.339 -8.162,-1.144 -12.477,0.283 l 0,0 c 0.62,2.398 0.951,4.912 0.951,7.506 l 0,0 c 0,16.514 -13.389,29.905 -29.907,29.905 l 0,0 c -16.514,0 -29.904,-13.391 -29.904,-29.905"
         id="path4114" /></clipPath><radialGradient
       cx="0"
       cy="0"
       r="1"
       fx="0"
       fy="0"
       id="radialGradient4120"
       gradientUnits="userSpaceOnUse"
       gradientTransform="matrix(55.939575,0,0,-55.939575,92.679199,534.35645)"
       spreadMethod="pad"><stop
         id="stop4122"
         style="stop-color:#aaacae;stop-opacity:1"
         offset="0" /><stop
         id="stop4124"
         style="stop-color:#737577;stop-opacity:1"
         offset="0.84269702" /><stop
         id="stop4126"
         style="stop-color:#858789;stop-opacity:1"
         offset="1" /></radialGradient><clipPath
       id="clipPath4134"><path
         d="m 121.855,489.537 c -2.457,-2.008 -5.743,-3.251 -11.371,-1.693 l 0,0 c -6.448,1.785 -9.07,-5.207 -9.809,-7.788 l 0,0 c 8.219,-0.021 17.775,4.206 25.652,8.752 l 0,0 c -0.781,0.768 -1.74,1.393 -2.753,1.393 l 0,0 c -0.563,0 -1.144,-0.194 -1.719,-0.664"
         id="path4136" /></clipPath><linearGradient
       x1="0"
       y1="0"
       x2="1"
       y2="0"
       id="linearGradient4142"
       gradientUnits="userSpaceOnUse"
       gradientTransform="matrix(-0.8466339,3.7503357,3.7503357,0.8466339,113.58936,484.03809)"
       spreadMethod="pad"><stop
         id="stop4144"
         style="stop-color:#ee3338;stop-opacity:1"
         offset="0" /><stop
         id="stop4146"
         style="stop-color:#8f2a2a;stop-opacity:1"
         offset="1" /></linearGradient><clipPath
       id="clipPath4154"><path
         d="m 112.598,487.37 c 0.181,-1.319 0.528,-2.893 1.155,-3.032 l 0,0 c 1.087,-0.247 4.718,1.211 4.958,1.813 l 0,0 c 0.077,0.199 0.004,0.8 -0.133,1.529 l 0,0 c -1.606,-0.542 -3.54,-0.721 -5.98,-0.31"
         id="path4156" /></clipPath><linearGradient
       x1="0"
       y1="0"
       x2="1"
       y2="0"
       id="linearGradient4162"
       gradientUnits="userSpaceOnUse"
       gradientTransform="matrix(-0.2418823,1.9350128,1.9350128,0.2418823,115.84619,485.57959)"
       spreadMethod="pad"><stop
         id="stop4164"
         style="stop-color:#ffffff;stop-opacity:1"
         offset="0" /><stop
         id="stop4166"
         style="stop-color:#aaacae;stop-opacity:1"
         offset="1" /></linearGradient><clipPath
       id="clipPath4174"><path
         d="m 134.138,498.74 c 0,-2.753 2.72,-4.98 6.073,-4.98 l 0,0 c 3.355,0 6.076,2.227 6.076,4.98 l 0,0 c 0,2.757 -2.721,4.985 -6.076,4.985 l 0,0 c -3.353,0 -6.073,-2.228 -6.073,-4.985"
         id="path4176" /></clipPath><radialGradient
       cx="0"
       cy="0"
       r="1"
       fx="0"
       fy="0"
       id="radialGradient4182"
       gradientUnits="userSpaceOnUse"
       gradientTransform="matrix(5.9834595,0,0,-5.9834595,137.87549,500.61133)"
       spreadMethod="pad"><stop
         id="stop4184"
         style="stop-color:#ffffff;stop-opacity:1"
         offset="0" /><stop
         id="stop4186"
         style="stop-color:#373535;stop-opacity:1"
         offset="1" /></radialGradient><clipPath
       id="clipPath4194"><path
         d="m 0,595.276 841.89,0 L 841.89,0 0,0 0,595.276 z"
         id="path4196" /></clipPath><clipPath
       id="clipPath4210"><path
         d="m 116.026,501.912 c 0,-0.796 0.644,-1.446 1.442,-1.446 l 0,0 c 0.799,0 1.445,0.65 1.445,1.446 l 0,0 c 0,0.793 -0.646,1.442 -1.445,1.442 l 0,0 c -0.798,0 -1.442,-0.649 -1.442,-1.442"
         id="path4212" /></clipPath><radialGradient
       cx="0"
       cy="0"
       r="1"
       fx="0"
       fy="0"
       id="radialGradient4218"
       gradientUnits="userSpaceOnUse"
       gradientTransform="matrix(1.3345032,0,0,-1.3344879,117.02979,502.4751)"
       spreadMethod="pad"><stop
         id="stop4220"
         style="stop-color:#ffffff;stop-opacity:1"
         offset="0" /><stop
         id="stop4222"
         style="stop-color:#373535;stop-opacity:1"
         offset="1" /></radialGradient><clipPath
       id="clipPath4230"><path
         d="m 0,595.276 841.89,0 L 841.89,0 0,0 0,595.276 z"
         id="path4232" /></clipPath><clipPath
       id="clipPath4246"><path
         d="m 99.846,495.222 c 0,-0.796 0.648,-1.442 1.444,-1.442 l 0,0 c 0.797,0 1.443,0.646 1.443,1.442 l 0,0 c 0,0.798 -0.646,1.447 -1.443,1.447 l 0,0 c -0.796,0 -1.444,-0.649 -1.444,-1.447"
         id="path4248" /></clipPath><radialGradient
       cx="0"
       cy="0"
       r="1"
       fx="0"
       fy="0"
       id="radialGradient4254"
       gradientUnits="userSpaceOnUse"
       gradientTransform="matrix(1.3345795,0,0,-1.3345795,100.8501,495.79004)"
       spreadMethod="pad"><stop
         id="stop4256"
         style="stop-color:#ffffff;stop-opacity:1"
         offset="0" /><stop
         id="stop4258"
         style="stop-color:#373535;stop-opacity:1"
         offset="1" /></radialGradient><clipPath
       id="clipPath4266"><path
         d="m 0,595.276 841.89,0 L 841.89,0 0,0 0,595.276 z"
         id="path4268" /></clipPath><filter
       color-interpolation-filters="sRGB"
       id="filter16540"><feGaussianBlur
         id="feGaussianBlur16542"
         stdDeviation="2.2363288" /></filter><radialGradient
       cx="0"
       cy="0"
       r="1"
       fx="0"
       fy="0"
       id="radialGradient16841"
       xlink:href="#radialGradient3848"
       gradientUnits="userSpaceOnUse"
       gradientTransform="matrix(30.354462,-4.6996918,-4.6996918,-30.354462,74.794922,476.48486)"
       spreadMethod="pad" /><radialGradient
       cx="0"
       cy="0"
       r="1"
       fx="0"
       fy="0"
       id="radialGradient16843"
       xlink:href="#radialGradient3868"
       gradientUnits="userSpaceOnUse"
       gradientTransform="matrix(7.6339569,0,0,-7.6339569,96.786133,447.40283)"
       spreadMethod="pad" /><radialGradient
       cx="0"
       cy="0"
       r="1"
       fx="0"
       fy="0"
       id="radialGradient16845"
       xlink:href="#radialGradient3888"
       gradientUnits="userSpaceOnUse"
       gradientTransform="matrix(17.803726,0,0,-17.803711,96.932129,466.15332)"
       spreadMethod="pad" /><radialGradient
       cx="0"
       cy="0"
       r="1"
       fx="0"
       fy="0"
       id="radialGradient16847"
       xlink:href="#radialGradient3908"
       gradientUnits="userSpaceOnUse"
       gradientTransform="matrix(25.764023,0,0,-25.764023,79.415039,473.64648)"
       spreadMethod="pad" /><radialGradient
       cx="0"
       cy="0"
       r="1"
       fx="0"
       fy="0"
       id="radialGradient16849"
       xlink:href="#radialGradient3928"
       gradientUnits="userSpaceOnUse"
       gradientTransform="matrix(-23.740204,-10.012421,10.012421,-23.740204,144.56494,492.33105)"
       spreadMethod="pad" /><radialGradient
       cx="0"
       cy="0"
       r="1"
       fx="0"
       fy="0"
       id="radialGradient16851"
       xlink:href="#radialGradient3948"
       gradientUnits="userSpaceOnUse"
       gradientTransform="matrix(15.771454,0,0,-15.771454,144.71143,467.27197)"
       spreadMethod="pad" /><radialGradient
       cx="0"
       cy="0"
       r="1"
       fx="0"
       fy="0"
       id="radialGradient16853"
       xlink:href="#radialGradient3970"
       gradientUnits="userSpaceOnUse"
       gradientTransform="matrix(37.835861,0,0,-37.835861,132.87207,453.58301)"
       spreadMethod="pad" /><radialGradient
       cx="0"
       cy="0"
       r="1"
       fx="0"
       fy="0"
       id="radialGradient16855"
       xlink:href="#radialGradient3992"
       gradientUnits="userSpaceOnUse"
       gradientTransform="matrix(25.556549,0,0,-25.556549,130.10156,461.62744)"
       spreadMethod="pad" /><radialGradient
       cx="0"
       cy="0"
       r="1"
       fx="0"
       fy="0"
       id="radialGradient16857"
       xlink:href="#radialGradient4012"
       gradientUnits="userSpaceOnUse"
       gradientTransform="matrix(32.50293,0,0,-32.50293,57.533691,543.14355)"
       spreadMethod="pad" /><radialGradient
       cx="0"
       cy="0"
       r="1"
       fx="0"
       fy="0"
       id="radialGradient16859"
       xlink:href="#radialGradient4046"
       gradientUnits="userSpaceOnUse"
       gradientTransform="matrix(17.906891,0,0,-17.906891,63.268555,539.08545)"
       spreadMethod="pad" /><radialGradient
       cx="0"
       cy="0"
       r="1"
       fx="0"
       fy="0"
       id="radialGradient16861"
       xlink:href="#radialGradient4066"
       gradientUnits="userSpaceOnUse"
       gradientTransform="matrix(27.98143,-11.114578,-11.114578,-27.98143,113.24268,553.35596)"
       spreadMethod="pad" /><radialGradient
       cx="0"
       cy="0"
       r="1"
       fx="0"
       fy="0"
       id="radialGradient16863"
       xlink:href="#radialGradient4100"
       gradientUnits="userSpaceOnUse"
       gradientTransform="matrix(16.292953,0,0,-16.292953,114.86377,546.69141)"
       spreadMethod="pad" /><radialGradient
       cx="0"
       cy="0"
       r="1"
       fx="0"
       fy="0"
       id="radialGradient16865"
       xlink:href="#radialGradient4120"
       gradientUnits="userSpaceOnUse"
       gradientTransform="matrix(55.939575,0,0,-55.939575,92.679199,534.35645)"
       spreadMethod="pad" /><linearGradient
       x1="0"
       y1="0"
       x2="1"
       y2="0"
       id="linearGradient16867"
       xlink:href="#linearGradient4142"
       gradientUnits="userSpaceOnUse"
       gradientTransform="matrix(-0.8466339,3.7503357,3.7503357,0.8466339,113.58936,484.03809)"
       spreadMethod="pad" /><linearGradient
       x1="0"
       y1="0"
       x2="1"
       y2="0"
       id="linearGradient16869"
       xlink:href="#linearGradient4162"
       gradientUnits="userSpaceOnUse"
       gradientTransform="matrix(-0.2418823,1.9350128,1.9350128,0.2418823,115.84619,485.57959)"
       spreadMethod="pad" /><radialGradient
       cx="0"
       cy="0"
       r="1"
       fx="0"
       fy="0"
       id="radialGradient16871"
       xlink:href="#radialGradient4182"
       gradientUnits="userSpaceOnUse"
       gradientTransform="matrix(5.9834595,0,0,-5.9834595,137.87549,500.61133)"
       spreadMethod="pad" /><radialGradient
       cx="0"
       cy="0"
       r="1"
       fx="0"
       fy="0"
       id="radialGradient16873"
       xlink:href="#radialGradient4218"
       gradientUnits="userSpaceOnUse"
       gradientTransform="matrix(1.3345032,0,0,-1.3344879,117.02979,502.4751)"
       spreadMethod="pad" /><radialGradient
       cx="0"
       cy="0"
       r="1"
       fx="0"
       fy="0"
       id="radialGradient16875"
       xlink:href="#radialGradient4254"
       gradientUnits="userSpaceOnUse"
       gradientTransform="matrix(1.3345795,0,0,-1.3345795,100.8501,495.79004)"
       spreadMethod="pad" /></defs><g
     transform="matrix(1.25,0,0,-1.25,-163.37141,699.93313)"
     id="g10"><g
       transform="matrix(0.99559411,0,0,0.99559411,0.57583249,1.9383401)"
       id="g16712"><g
         id="g16544"><g
           transform="translate(-38.009119,-2.3921821)"
           id="g16708"><path
             d="m 303.8125,47.875 c -8.25125,0 -16.04875,4.93125 -19.28125,13.0625 -1.11158,2.79717 -1.55604,5.706986 -1.4375,8.53125 C 281.87674,69.349195 280.62344,69.25 279.375,69.25 c -6.09132,0 -11.82472,1.47721 -16.90625,4.0625 -2.30878,-9.908065 -11.20421,-17.28125 -21.8125,-17.28125 -12.36875,0 -22.40625,10.01 -22.40625,22.375 0,12.36625 10.0375,22.40625 22.40625,22.40625 0.61191,0 1.21297,-0.0455 1.8125,-0.0937 -0.30626,1.92633 -0.46875,3.92508 -0.46875,5.9375 0,13.88584 7.57677,25.76723 18.8125,32.21875 -1.08491,0.38401 -2.17946,0.89097 -2.875,1.46875 l 3.25,-1.25 c 1.38424,0.77418 2.82707,1.4587 4.3125,2.0625 -1.41764,0.99316 -3.13298,2.42487 -3.9375,4.03125 l 4.375,-3.875 c 2.78363,1.09269 5.72238,1.87797 8.78125,2.3125 -3.06023,0.89598 -6.1206,2.01615 -8.25,3.3125 0,0 -2.82625,-0.12375 -3.34375,0.46875 -0.735,0.85125 1.71875,1.5625 1.71875,1.5625 0,0 -2.70875,1.09 -2.71875,1.8125 -0.015,1.18625 3.625,0.1875 3.625,0.1875 0,0 -3.1425,1.7075 -2.5,2.5 0.53125,0.65875 1.43875,0.27875 2.46875,-0.125 0.83875,-0.32875 1.75125,-0.68125 2.5625,-0.4375 1.81375,0.54375 1.8775,1.4425 2.875,0.75 0.605,-0.4175 -0.71875,-2.53125 -0.71875,-2.53125 0,0 7.46623,0.22585 12.34375,1.28125 -0.12147,2.03104 -0.13532,4.09137 0,6.125 -4.38731,-1.82783 -9.91405,-2.67762 -15.90625,-0.0937 -12.54375,5.40875 -20.44,-6.46125 -15.8125,-12.3125 0,0 -3.8575,3.88875 -1.53125,8.96875 2.12875,4.64625 7.95375,8.9675 20.25,5.0625 4.70443,-1.49268 9.78996,0.50934 13.5,2.90625 -2.06326,1.10007 -5.74456,3.46517 -7.78125,7.28125 -1.29093,2.42712 -0.83925,7.4643 3.5625,9.125 -0.46799,0.55601 -0.88289,1.18525 -1.03125,1.75 -0.47625,1.78875 2.095,3.58125 4.28125,1.9375 0.92514,-0.69214 1.63311,-2.01532 2.15625,-3.3125 2.71366,-0.49403 6.18111,-1.9194 9.09375,-3.25 8.63428,3.14051 21.40862,-1.01411 25.84375,-10.375 4.84082,0.62217 9.75541,2.59912 10.5,2.90625 0.12328,0.0655 0.27133,0.12422 0.40625,0.15625 2.15875,0.5125 4.96125,-3.555 6.28125,-9.09375 1.315,-5.5425 0.63,-10.455 -1.53125,-10.96875 -0.615,-0.2025 -1.19875,-0.28125 -1.75,-0.28125 -4.04375,0.001 -6.34375,4.78125 -6.34375,4.78125 -2.37088,-2.95094 -5.5544,-3.84378 -8.1875,-3.96875 -2.08414,-4.26381 -5.39099,-7.7523 -8.8125,-10.53125 3.89983,-2.90302 8.71875,-4.75 8.71875,-4.75 0,0 -0.40125,2.46875 0.3125,2.625 1.19125,0.2475 0.9175,-0.6075 2.375,-1.8125 1.45625,-1.20625 4.44875,0.0362 4.875,-1.4375 0.285,-0.98125 -3.3125,-1.375 -3.3125,-1.375 0,0 3.7575,-0.47625 3.28125,-1.5625 -0.29,-0.6625 -3.21875,-0.625 -3.21875,-0.625 0,0 2.0075,-1.595 1,-2.09375 -0.09,-0.0425 -0.205,-0.0625 -0.34375,-0.0625 -0.965,0 -2.9375,0.90625 -2.9375,0.90625 -0.56614,-0.0843 -1.17214,-0.12442 -1.8125,-0.15625 1.95482,-1.26921 3.78132,-2.53398 5.375,-3.65625 1.35411,1.02787 3.16586,1.6875 5.15625,1.6875 4.19375,0 7.59375,-2.80875 7.59375,-6.25 0,-3.44625 -3.4,-6.21875 -7.59375,-6.21875 -2.92102,0 -5.44947,1.35722 -6.71875,3.34375 -2.40178,-0.34691 -4.89682,-1.01313 -7.125,-1.75 0.775,-2.9975 1.1875,-6.1325 1.1875,-9.375 0,-6.879393 -1.88209,-13.337816 -5.125,-18.875 5.02431,-2.062497 9.24147,-6.052555 11.40625,-11.5 C 327.29,65.63375 322.08375,53.5725 311.4375,49.34375 308.925,48.345 306.36,47.875 303.8125,47.875 z"
             transform="matrix(0.8,0,0,-0.8,0,595.276)"
             id="path16538"
             style="fill:#b3b3b3;stroke:#b3b3b3;stroke-width:4.01770163;stroke-linejoin:round;stroke-miterlimit:4;stroke-dasharray:none;filter:url(#filter16540)" /><path
             d="m 303.8125,47.875 c -8.25125,0 -16.04875,4.93125 -19.28125,13.0625 -1.11158,2.79717 -1.55604,5.706986 -1.4375,8.53125 C 281.87674,69.349195 280.62344,69.25 279.375,69.25 c -6.09132,0 -11.82472,1.47721 -16.90625,4.0625 -2.30878,-9.908065 -11.20421,-17.28125 -21.8125,-17.28125 -12.36875,0 -22.40625,10.01 -22.40625,22.375 0,12.36625 10.0375,22.40625 22.40625,22.40625 0.61191,0 1.21297,-0.0455 1.8125,-0.0937 -0.30626,1.92633 -0.46875,3.92508 -0.46875,5.9375 0,13.88584 7.57677,25.76723 18.8125,32.21875 -1.08491,0.38401 -2.17946,0.89097 -2.875,1.46875 l 3.25,-1.25 c 1.38424,0.77418 2.82707,1.4587 4.3125,2.0625 -1.41764,0.99316 -3.13298,2.42487 -3.9375,4.03125 l 4.375,-3.875 c 2.78363,1.09269 5.72238,1.87797 8.78125,2.3125 -3.06023,0.89598 -6.1206,2.01615 -8.25,3.3125 0,0 -2.82625,-0.12375 -3.34375,0.46875 -0.735,0.85125 1.71875,1.5625 1.71875,1.5625 0,0 -2.70875,1.09 -2.71875,1.8125 -0.015,1.18625 3.625,0.1875 3.625,0.1875 0,0 -3.1425,1.7075 -2.5,2.5 0.53125,0.65875 1.43875,0.27875 2.46875,-0.125 0.83875,-0.32875 1.75125,-0.68125 2.5625,-0.4375 1.81375,0.54375 1.8775,1.4425 2.875,0.75 0.605,-0.4175 -0.71875,-2.53125 -0.71875,-2.53125 0,0 7.46623,0.22585 12.34375,1.28125 -0.12147,2.03104 -0.13532,4.09137 0,6.125 -4.38731,-1.82783 -9.91405,-2.67762 -15.90625,-0.0937 -12.54375,5.40875 -20.44,-6.46125 -15.8125,-12.3125 0,0 -3.8575,3.88875 -1.53125,8.96875 2.12875,4.64625 7.95375,8.9675 20.25,5.0625 4.70443,-1.49268 9.78996,0.50934 13.5,2.90625 -2.06326,1.10007 -5.74456,3.46517 -7.78125,7.28125 -1.29093,2.42712 -0.83925,7.4643 3.5625,9.125 -0.46799,0.55601 -0.88289,1.18525 -1.03125,1.75 -0.47625,1.78875 2.095,3.58125 4.28125,1.9375 0.92514,-0.69214 1.63311,-2.01532 2.15625,-3.3125 2.71366,-0.49403 6.18111,-1.9194 9.09375,-3.25 8.63428,3.14051 21.40862,-1.01411 25.84375,-10.375 4.84082,0.62217 9.75541,2.59912 10.5,2.90625 0.12328,0.0655 0.27133,0.12422 0.40625,0.15625 2.15875,0.5125 4.96125,-3.555 6.28125,-9.09375 1.315,-5.5425 0.63,-10.455 -1.53125,-10.96875 -0.615,-0.2025 -1.19875,-0.28125 -1.75,-0.28125 -4.04375,0.001 -6.34375,4.78125 -6.34375,4.78125 -2.37088,-2.95094 -5.5544,-3.84378 -8.1875,-3.96875 -2.08414,-4.26381 -5.39099,-7.7523 -8.8125,-10.53125 3.89983,-2.90302 8.71875,-4.75 8.71875,-4.75 0,0 -0.40125,2.46875 0.3125,2.625 1.19125,0.2475 0.9175,-0.6075 2.375,-1.8125 1.45625,-1.20625 4.44875,0.0362 4.875,-1.4375 0.285,-0.98125 -3.3125,-1.375 -3.3125,-1.375 0,0 3.7575,-0.47625 3.28125,-1.5625 -0.29,-0.6625 -3.21875,-0.625 -3.21875,-0.625 0,0 2.0075,-1.595 1,-2.09375 -0.09,-0.0425 -0.205,-0.0625 -0.34375,-0.0625 -0.965,0 -2.9375,0.90625 -2.9375,0.90625 -0.56614,-0.0843 -1.17214,-0.12442 -1.8125,-0.15625 1.95482,-1.26921 3.78132,-2.53398 5.375,-3.65625 1.35411,1.02787 3.16586,1.6875 5.15625,1.6875 4.19375,0 7.59375,-2.80875 7.59375,-6.25 0,-3.44625 -3.4,-6.21875 -7.59375,-6.21875 -2.92102,0 -5.44947,1.35722 -6.71875,3.34375 -2.40178,-0.34691 -4.89682,-1.01313 -7.125,-1.75 0.775,-2.9975 1.1875,-6.1325 1.1875,-9.375 0,-6.879393 -1.88209,-13.337816 -5.125,-18.875 5.02431,-2.062497 9.24147,-6.052555 11.40625,-11.5 C 327.29,65.63375 322.08375,53.5725 311.4375,49.34375 308.925,48.345 306.36,47.875 303.8125,47.875 z"
             transform="matrix(0.8,0,0,-0.8,0,595.276)"
             id="path15113"
             style="fill:#ffffff;stroke:#ffffff;stroke-width:4.01770163;stroke-linejoin:round;stroke-miterlimit:4;stroke-dasharray:none" /></g></g><g
         transform="translate(85.318681,-2.664733)"
         id="g16548"><g
           id="g3836"><g
             clip-path="url(#clipPath3840)"
             id="g3838"><g
               id="g3844"><g
                 id="g3846"><path
                   d="m 76.288,471.202 c 1.703,-3.717 6.361,-7.176 16.198,-4.052 l 0,0 c 6.442,2.044 13.83,-4.087 14.936,-6.012 l 0,0 c 1.104,-1.924 3.361,1.861 3.361,1.861 l 0,0 c 0,0 -9.269,10.423 -20.607,5.534 l 0,0 c -10.035,-4.327 -16.36,5.16 -12.658,9.841 l 0,0 c 0,0 -3.091,-3.108 -1.23,-7.172"
                   id="path3854"
                   style="fill:url(#radialGradient16841);stroke:none" /></g></g></g></g><g
           id="g3856"><g
             clip-path="url(#clipPath3860)"
             id="g3858"><g
               id="g3864"><g
                 id="g3866"><path
                   d="m 101.452,453.174 c 0,0 -2.012,-1.585 -2.348,-2.864 l 0,0 c -0.381,-1.431 1.661,-2.873 3.41,-1.558 l 0,0 c 1.751,1.31 2.584,5.446 2.584,5.446 l 0,0 -3.646,-1.024 z"
                   id="path3874"
                   style="fill:url(#radialGradient16843);stroke:none" /></g></g></g></g><g
           id="g3876"><g
             clip-path="url(#clipPath3880)"
             id="g3878"><g
               id="g3884"><g
                 id="g3886"><path
                   d="m 104.515,465.425 c 0,0 -5.103,-2.043 -7.438,-6.418 l 0,0 c -1.293,-2.431 -0.438,-8.167 6.124,-7.729 l 0,0 c 4.343,0.291 12.832,4.956 12.832,4.956 l 0,0 -7.438,10.502 -4.08,-1.311 z"
                   id="path3894"
                   style="fill:url(#radialGradient16845);stroke:none" /></g></g></g></g><g
           id="g3896"><g
             clip-path="url(#clipPath3900)"
             id="g3898"><g
               id="g3904"><g
                 id="g3906"><path
                   d="m 104.904,482.338 c 0,0 -10.405,-1.765 -15.07,-4.605 l 0,0 c 0,0 -2.251,0.083 -2.665,-0.391 l 0,0 c -0.588,-0.681 1.37,-1.235 1.37,-1.235 l 0,0 c 0,0 -2.165,-0.868 -2.173,-1.446 l 0,0 c -0.012,-0.949 2.897,-0.148 2.897,-0.148 l 0,0 c 0,0 -2.518,-1.39 -2.004,-2.024 l 0,0 c 0.425,-0.527 1.169,-0.204 1.993,0.119 l 0,0 c 0.671,0.263 1.395,0.526 2.044,0.331 l 0,0 c 1.451,-0.435 1.513,-1.151 2.311,-0.597 l 0,0 c 0.484,0.334 -0.579,2.027 -0.579,2.027 l 0,0 c 0,0 9.703,-0.29 12.454,-1.88 l 0,0 c 2.751,-1.594 8.978,3.908 8.978,3.908 l 0,0 -8.253,7.243 -1.303,-1.302 z"
                   id="path3914"
                   style="fill:url(#radialGradient16847);stroke:none" /></g></g></g></g><g
           id="g3916"><g
             clip-path="url(#clipPath3920)"
             id="g3918"><g
               id="g3924"><g
                 id="g3926"><path
                   d="m 133.255,492.043 c -5.405,0.805 -15.672,-1.617 -15.672,-1.617 l 0,0 -1.706,0.697 -4.794,-9.885 c 0,0 8.897,-2.617 10.768,-0.044 l 0,0 c 2.768,3.805 9.769,6.507 9.769,6.507 l 0,0 c 0,0 -0.319,-1.968 0.252,-2.093 l 0,0 c 0.953,-0.198 0.731,0.483 1.897,1.447 l 0,0 c 1.165,0.965 3.556,-0.024 3.897,1.155 l 0,0 c 0.228,0.785 -2.634,1.088 -2.634,1.088 l 0,0 c 0,0 2.994,0.39 2.613,1.259 l 0,0 c -0.232,0.53 -2.565,0.49 -2.565,0.49 l 0,0 c 0,0 1.591,1.271 0.785,1.67 l 0,0 c -0.072,0.034 -0.167,0.05 -0.278,0.05 l 0,0 c -0.772,0 -2.332,-0.724 -2.332,-0.724"
                   id="path3934"
                   style="fill:url(#radialGradient16849);stroke:none" /></g></g></g></g><g
           id="g3936"><g
             clip-path="url(#clipPath3940)"
             id="g3938"><g
               id="g3944"><g
                 id="g3946"><path
                   d="m 138.247,472.31 c -3.838,4.777 -10.4,2.737 -10.4,2.737 l 0,0 c 0,0 -4.913,-15.53 -0.875,-13.271 l 0,0 c 4.036,2.267 13.936,-1.92 13.936,-1.92 l 0,0 c 0.58,6.951 3.817,16.047 3.817,16.047 l 0,0 c -0.492,0.162 -0.958,0.233 -1.399,0.233 l 0,0 c -3.235,-0.001 -5.079,-3.826 -5.079,-3.826"
                   id="path3956"
                   style="fill:url(#radialGradient16851);stroke:none" /></g></g></g></g><g
           id="g3958"><g
             clip-path="url(#clipPath3962)"
             id="g3960"><g
               id="g3966"><g
                 id="g3968"><path
                   d="m 105.952,488.876 c 0,0 -8.731,-25.104 2.912,-33.474 l 0,0 c 8.447,-6.073 26.883,0.721 24.373,15.283 l 0,0 c -2.291,13.283 -19.645,19.645 -19.645,19.645 l 0,0 -7.64,-1.454 z"
                   id="path3978"
                   style="fill:url(#radialGradient16853);stroke:none" /></g></g></g></g><g
           id="g3980"><g
             clip-path="url(#clipPath3984)"
             id="g3982"><g
               id="g3988"><g
                 id="g3990"><path
                   d="m 109.103,482.19 c 0,0 -2.019,-10.558 0,-16.94 l 0,0 c 3.054,-9.669 15.142,-8.885 19.823,-4.128 l 0,0 c 5.522,5.614 1.03,18.607 -9.396,24.834 l 0,0 c -2.477,1.479 -4.366,2.043 -5.805,2.043 l 0,0 c -4.622,0 -4.622,-5.809 -4.622,-5.809"
                   id="path3998"
                   style="fill:url(#radialGradient16855);stroke:none" /></g></g></g></g><g
           id="g4000"><g
             clip-path="url(#clipPath4004)"
             id="g4002"><g
               id="g4008"><g
                 id="g4010"><path
                   d="m 51.272,532.546 c 0,-9.893 8.02,-17.917 17.915,-17.917 l 0,0 c 9.89,0 17.911,8.024 17.911,17.917 l 0,0 c 0,9.892 -8.021,17.913 -17.911,17.913 l 0,0 c -9.895,0 -17.915,-8.021 -17.915,-17.913"
                   id="path4020"
                   style="fill:url(#radialGradient16857);stroke:none" /></g></g></g></g><g
           id="g4022"><g
             clip-path="url(#clipPath4026)"
             id="g4024"><g
               transform="translate(79.9937,533.0479)"
               id="g4030"><path
                 d="m 0,0 c 0,-6.247 -5.062,-11.311 -11.311,-11.311 -6.245,0 -11.309,5.064 -11.309,11.311 0,6.243 5.064,11.307 11.309,11.307 C -5.062,11.307 0,6.243 0,0"
                 id="path4032"
                 style="fill:#858789;fill-opacity:1;fill-rule:nonzero;stroke:none" /></g></g></g><g
           id="g4034"><g
             clip-path="url(#clipPath4038)"
             id="g4036"><g
               id="g4042"><g
                 id="g4044"><path
                   d="m 58.126,532.546 c 0,-6.112 4.953,-11.06 11.061,-11.06 l 0,0 c 6.105,0 11.058,4.948 11.058,11.06 l 0,0 c 0,6.108 -4.953,11.056 -11.058,11.056 l 0,0 c -6.108,0 -11.061,-4.948 -11.061,-11.056"
                   id="path4052"
                   style="fill:url(#radialGradient16859);stroke:none" /></g></g></g></g><g
           id="g4054"><g
             clip-path="url(#clipPath4058)"
             id="g4056"><g
               id="g4062"><g
                 id="g4064"><path
                   d="m 104.283,546.514 c -3.385,-8.518 0.779,-18.164 9.299,-21.546 l 0,0 c 8.516,-3.383 18.161,0.777 21.546,9.295 l 0,0 c 3.382,8.518 -0.78,18.163 -9.297,21.546 l 0,0 c -2.01,0.799 -4.083,1.178 -6.121,1.178 l 0,0 c -6.601,0 -12.841,-3.968 -15.427,-10.473"
                   id="path4074"
                   style="fill:url(#radialGradient16861);stroke:none" /></g></g></g></g><g
           id="g4076"><g
             clip-path="url(#clipPath4080)"
             id="g4078"><g
               transform="translate(129.1836,537.1235)"
               id="g4084"><path
                 d="m 0,0 c -2.138,-5.378 -8.228,-8.004 -13.606,-5.869 -5.378,2.136 -8.008,8.228 -5.869,13.606 2.134,5.379 8.227,8.004 13.606,5.869 C -0.492,11.47 2.135,5.378 0,0"
                 id="path4086"
                 style="fill:#858789;fill-opacity:1;fill-rule:nonzero;stroke:none" /></g></g></g><g
           id="g4088"><g
             clip-path="url(#clipPath4092)"
             id="g4090"><g
               id="g4096"><g
                 id="g4098"><path
                   d="m 110.183,544.172 c -2.088,-5.259 0.482,-11.216 5.74,-13.303 l 0,0 c 5.26,-2.092 11.216,0.477 13.302,5.736 l 0,0 c 2.092,5.26 -0.48,11.216 -5.739,13.304 l 0,0 c -1.241,0.494 -2.521,0.728 -3.781,0.728 l 0,0 c -4.073,-10e-4 -7.925,-2.448 -9.522,-6.465"
                   id="path4106"
                   style="fill:url(#radialGradient16863);stroke:none" /></g></g></g></g><g
           id="g4108"><g
             clip-path="url(#clipPath4112)"
             id="g4110"><g
               id="g4116"><g
                 id="g4118"><path
                   d="m 70.277,509.96 c 0,-16.519 13.394,-29.518 29.904,-29.909 l 0,0 c 17.725,-0.418 42.056,19.625 42.056,19.625 l 0,0 -0.623,2.495 c -2.523,-2.339 -8.162,-1.144 -12.477,0.283 l 0,0 c 0.62,2.398 0.951,4.912 0.951,7.506 l 0,0 c 0,16.514 -13.389,29.905 -29.907,29.905 l 0,0 c -16.514,0 -29.904,-13.391 -29.904,-29.905"
                   id="path4128"
                   style="fill:url(#radialGradient16865);stroke:none" /></g></g></g></g><g
           id="g4130"><g
             clip-path="url(#clipPath4134)"
             id="g4132"><g
               id="g4138"><g
                 id="g4140"><path
                   d="m 121.855,489.537 c -2.457,-2.008 -5.743,-3.251 -11.371,-1.693 l 0,0 c -6.448,1.785 -9.07,-5.207 -9.809,-7.788 l 0,0 c 8.219,-0.021 17.775,4.206 25.652,8.752 l 0,0 c -0.781,0.768 -1.74,1.393 -2.753,1.393 l 0,0 c -0.563,0 -1.144,-0.194 -1.719,-0.664"
                   id="path4148"
                   style="fill:url(#linearGradient16867);stroke:none" /></g></g></g></g><g
           id="g4150"><g
             clip-path="url(#clipPath4154)"
             id="g4152"><g
               id="g4158"><g
                 id="g4160"><path
                   d="m 112.598,487.37 c 0.181,-1.319 0.528,-2.893 1.155,-3.032 l 0,0 c 1.087,-0.247 4.718,1.211 4.958,1.813 l 0,0 c 0.077,0.199 0.004,0.8 -0.133,1.529 l 0,0 c -1.606,-0.542 -3.54,-0.721 -5.98,-0.31"
                   id="path4168"
                   style="fill:url(#linearGradient16869);stroke:none" /></g></g></g></g><g
           id="g4170"><g
             clip-path="url(#clipPath4174)"
             id="g4172"><g
               id="g4178"><g
                 id="g4180"><path
                   d="m 134.138,498.74 c 0,-2.753 2.72,-4.98 6.073,-4.98 l 0,0 c 3.355,0 6.076,2.227 6.076,4.98 l 0,0 c 0,2.757 -2.721,4.985 -6.076,4.985 l 0,0 c -3.353,0 -6.073,-2.228 -6.073,-4.985"
                   id="path4188"
                   style="fill:url(#radialGradient16871);stroke:none" /></g></g></g></g><g
           id="g4190"><g
             clip-path="url(#clipPath4194)"
             id="g4192"><g
               transform="translate(118.9482,502.0596)"
               id="g4198"><path
                 d="m 0,0 c 0,-0.817 -0.664,-1.482 -1.48,-1.482 -0.819,0 -1.482,0.665 -1.482,1.482 0,0.816 0.663,1.478 1.482,1.478 C -0.664,1.478 0,0.816 0,0"
                 id="path4200"
                 style="fill:#606163;fill-opacity:1;fill-rule:nonzero;stroke:none" /></g><g
               transform="translate(118.9482,501.7607)"
               id="g4202"><path
                 d="m 0,0 c 0,-0.821 -0.664,-1.482 -1.48,-1.482 -0.819,0 -1.482,0.661 -1.482,1.482 0,0.816 0.663,1.478 1.482,1.478 C -0.664,1.478 0,0.816 0,0"
                 id="path4204"
                 style="fill:#858789;fill-opacity:1;fill-rule:nonzero;stroke:none" /></g></g></g><g
           id="g4206"><g
             clip-path="url(#clipPath4210)"
             id="g4208"><g
               id="g4214"><g
                 id="g4216"><path
                   d="m 116.026,501.912 c 0,-0.796 0.644,-1.446 1.442,-1.446 l 0,0 c 0.799,0 1.445,0.65 1.445,1.446 l 0,0 c 0,0.793 -0.646,1.442 -1.445,1.442 l 0,0 c -0.798,0 -1.442,-0.649 -1.442,-1.442"
                   id="path4224"
                   style="fill:url(#radialGradient16873);stroke:none" /></g></g></g></g><g
           id="g4226"><g
             clip-path="url(#clipPath4230)"
             id="g4228"><g
               transform="translate(102.7705,495.374)"
               id="g4234"><path
                 d="m 0,0 c 0,-0.817 -0.663,-1.478 -1.48,-1.478 -0.819,0 -1.482,0.661 -1.482,1.478 0,0.817 0.663,1.478 1.482,1.478 C -0.663,1.478 0,0.817 0,0"
                 id="path4236"
                 style="fill:#606163;fill-opacity:1;fill-rule:nonzero;stroke:none" /></g><g
               transform="translate(102.7705,495.0752)"
               id="g4238"><path
                 d="m 0,0 c 0,-0.817 -0.663,-1.482 -1.48,-1.482 -0.819,0 -1.482,0.665 -1.482,1.482 0,0.817 0.663,1.478 1.482,1.478 C -0.663,1.478 0,0.817 0,0"
                 id="path4240"
                 style="fill:#858789;fill-opacity:1;fill-rule:nonzero;stroke:none" /></g></g></g><g
           id="g4242"><g
             clip-path="url(#clipPath4246)"
             id="g4244"><g
               id="g4250"><g
                 id="g4252"><path
                   d="m 99.846,495.222 c 0,-0.796 0.648,-1.442 1.444,-1.442 l 0,0 c 0.797,0 1.443,0.646 1.443,1.442 l 0,0 c 0,0.798 -0.646,1.447 -1.443,1.447 l 0,0 c -0.796,0 -1.444,-0.649 -1.444,-1.447"
                   id="path4260"
                   style="fill:url(#radialGradient16875);stroke:none" /></g></g></g></g><g
           id="g4262"><g
             clip-path="url(#clipPath4266)"
             id="g4264"><g
               transform="translate(112.1772,515.5498)"
               id="g4270"><path
                 d="M 0,0 C 0,0 3.395,2.307 6.05,0.243 9.317,-2.295 8.349,-6.411 8.349,-6.411"
                 id="path4272"
                 style="fill:none;stroke:#373535;stroke-width:1.00442541;stroke-linecap:round;stroke-linejoin:round;stroke-miterlimit:4;stroke-opacity:1;stroke-dasharray:none" /></g><g
               transform="translate(98.5059,499.3379)"
               id="g4274"><path
                 d="M 0,0 C 0,0 -5.927,-0.486 -6.048,-6.657"
                 id="path4276"
                 style="fill:none;stroke:#373535;stroke-width:1.00442541;stroke-linecap:round;stroke-linejoin:round;stroke-miterlimit:4;stroke-opacity:1;stroke-dasharray:none" /></g><g
               transform="translate(90.8862,483.4893)"
               id="g4278"><path
                 d="M 0,0 C 0,0 -3.751,-1.936 -4.962,-4.354"
                 id="path4280"
                 style="fill:none;stroke:#373535;stroke-width:0.75331903;stroke-linecap:round;stroke-linejoin:round;stroke-miterlimit:4;stroke-opacity:1;stroke-dasharray:none" /></g><g
               transform="translate(88.1011,484.9395)"
               id="g4282"><path
                 d="M 0,0 C 0,0 -3.625,-0.725 -5.078,-1.932"
                 id="path4284"
                 style="fill:none;stroke:#373535;stroke-width:0.75331903;stroke-linecap:round;stroke-linejoin:round;stroke-miterlimit:4;stroke-opacity:1;stroke-dasharray:none" /></g><g
               transform="translate(145.9463,467.1348)"
               id="g4286"><path
                 d="m 0,0 c -1.056,-4.431 -3.311,-7.689 -5.038,-7.279 -1.727,0.41 -2.275,4.339 -1.219,8.769 1.054,4.43 3.307,7.689 5.036,7.279 C 0.508,8.358 1.052,4.434 0,0"
                 id="path4288"
                 style="fill:#737577;fill-opacity:1;fill-rule:nonzero;stroke:none" /></g></g></g></g></g></g></svg>