<?xml version="1.0" encoding="UTF-8" standalone="no"?>
<!-- Created with Inkscape (http://www.inkscape.org/) -->

<svg
   xmlns:dc="http://purl.org/dc/elements/1.1/"
   xmlns:cc="http://creativecommons.org/ns#"
   xmlns:rdf="http://www.w3.org/1999/02/22-rdf-syntax-ns#"
   xmlns:svg="http://www.w3.org/2000/svg"
   xmlns="http://www.w3.org/2000/svg"
   xmlns:xlink="http://www.w3.org/1999/xlink"
   xmlns:sodipodi="http://sodipodi.sourceforge.net/DTD/sodipodi-0.dtd"
   xmlns:inkscape="http://www.inkscape.org/namespaces/inkscape"
   version="1.1"
   width="98.67823"
   height="126.29384"
   id="svg2"
   xml:space="preserve"
   inkscape:version="0.48.4 r9939"
   sodipodi:docname="tartaruga.svg"><sodipodi:namedview
     pagecolor="#ffffff"
     bordercolor="#666666"
     borderopacity="1"
     objecttolerance="10"
     gridtolerance="10"
     guidetolerance="10"
     inkscape:pageopacity="0"
     inkscape:pageshadow="2"
     inkscape:window-width="640"
     inkscape:window-height="480"
     id="namedview38585" /><metadata
     id="metadata8"><rdf:RDF><cc:Work
         rdf:about=""><dc:format>image/svg+xml</dc:format><dc:type
           rdf:resource="http://purl.org/dc/dcmitype/StillImage" /><dc:title /></cc:Work></rdf:RDF></metadata><defs
     id="defs6"><linearGradient
       x1="0"
       y1="0"
       x2="1"
       y2="0"
       id="linearGradient5862"
       gradientUnits="userSpaceOnUse"
       gradientTransform="matrix(8.62797,4.6481,4.6481,-8.62797,560.222,504.55)"
       spreadMethod="pad"><stop
         id="stop5864"
         style="stop-color:#3fbb73;stop-opacity:1"
         offset="0" /><stop
         id="stop5866"
         style="stop-color:#2ea356;stop-opacity:1"
         offset="1" /></linearGradient><linearGradient
       x1="0"
       y1="0"
       x2="1"
       y2="0"
       id="linearGradient5894"
       gradientUnits="userSpaceOnUse"
       gradientTransform="matrix(7.18236,9.52491,9.52491,-7.18236,570.167,473.258)"
       spreadMethod="pad"><stop
         id="stop5896"
         style="stop-color:#3fbb73;stop-opacity:1"
         offset="0" /><stop
         id="stop5898"
         style="stop-color:#2ea356;stop-opacity:1"
         offset="1" /></linearGradient><linearGradient
       x1="0"
       y1="0"
       x2="1"
       y2="0"
       id="linearGradient5926"
       gradientUnits="userSpaceOnUse"
       gradientTransform="matrix(-6.87241,11.0555,11.0555,6.87241,606.768,470.351)"
       spreadMethod="pad"><stop
         id="stop5928"
         style="stop-color:#3fbb73;stop-opacity:1"
         offset="0" /><stop
         id="stop5930"
         style="stop-color:#2ea356;stop-opacity:1"
         offset="1" /></linearGradient><radialGradient
       cx="0"
       cy="0"
       r="1"
       fx="0"
       fy="0"
       id="radialGradient5958"
       gradientUnits="userSpaceOnUse"
       gradientTransform="matrix(11.1911,2.94042,2.94042,-11.1911,611.446,530.631)"
       spreadMethod="pad"><stop
         id="stop5960"
         style="stop-color:#2ea356;stop-opacity:1"
         offset="0" /><stop
         id="stop5962"
         style="stop-color:#206734;stop-opacity:1"
         offset="1" /></radialGradient><radialGradient
       cx="0"
       cy="0"
       r="1"
       fx="0"
       fy="0"
       id="radialGradient5974"
       gradientUnits="userSpaceOnUse"
       gradientTransform="matrix(13.7633,0,0,-13.7633,607.211,520.673)"
       spreadMethod="pad"><stop
         id="stop5976"
         style="stop-color:#2ea356;stop-opacity:1"
         offset="0" /><stop
         id="stop5978"
         style="stop-color:#206734;stop-opacity:1"
         offset="1" /></radialGradient><radialGradient
       cx="0"
       cy="0"
       r="1"
       fx="0"
       fy="0"
       id="radialGradient5990"
       gradientUnits="userSpaceOnUse"
       gradientTransform="matrix(20.6549,0,0,-20.6549,622.982,504.593)"
       spreadMethod="pad"><stop
         id="stop5992"
         style="stop-color:#2ea356;stop-opacity:1"
         offset="0" /><stop
         id="stop5994"
         style="stop-color:#206734;stop-opacity:1"
         offset="1" /></radialGradient><radialGradient
       cx="0"
       cy="0"
       r="1"
       fx="0"
       fy="0"
       id="radialGradient6006"
       gradientUnits="userSpaceOnUse"
       gradientTransform="matrix(8.7781,0,0,-8.7781,610.491,488.04)"
       spreadMethod="pad"><stop
         id="stop6008"
         style="stop-color:#2ea356;stop-opacity:1"
         offset="0" /><stop
         id="stop6010"
         style="stop-color:#206734;stop-opacity:1"
         offset="1" /></radialGradient><radialGradient
       cx="0"
       cy="0"
       r="1"
       fx="0"
       fy="0"
       id="radialGradient6022"
       gradientUnits="userSpaceOnUse"
       gradientTransform="matrix(17.4624,0,0,-17.4624,627.669,500.844)"
       spreadMethod="pad"><stop
         id="stop6024"
         style="stop-color:#2ea356;stop-opacity:1"
         offset="0" /><stop
         id="stop6026"
         style="stop-color:#206734;stop-opacity:1"
         offset="1" /></radialGradient><radialGradient
       cx="0"
       cy="0"
       r="1"
       fx="0"
       fy="0"
       id="radialGradient6038"
       gradientUnits="userSpaceOnUse"
       gradientTransform="matrix(15.5757,0,0,-15.5757,623.606,517.55)"
       spreadMethod="pad"><stop
         id="stop6040"
         style="stop-color:#2ea356;stop-opacity:1"
         offset="0" /><stop
         id="stop6042"
         style="stop-color:#206734;stop-opacity:1"
         offset="1" /></radialGradient><radialGradient
       cx="0"
       cy="0"
       r="1"
       fx="0"
       fy="0"
       id="radialGradient6054"
       gradientUnits="userSpaceOnUse"
       gradientTransform="matrix(14.3783,0,0,-14.3783,609.865,526.919)"
       spreadMethod="pad"><stop
         id="stop6056"
         style="stop-color:#2ea356;stop-opacity:1"
         offset="0" /><stop
         id="stop6058"
         style="stop-color:#206734;stop-opacity:1"
         offset="1" /></radialGradient><radialGradient
       cx="0"
       cy="0"
       r="1"
       fx="0"
       fy="0"
       id="radialGradient6070"
       gradientUnits="userSpaceOnUse"
       gradientTransform="matrix(21.2379,0,0,-21.2379,586.558,507.513)"
       spreadMethod="pad"><stop
         id="stop6072"
         style="stop-color:#278547;stop-opacity:1"
         offset="0" /><stop
         id="stop6074"
         style="stop-color:#34b35b;stop-opacity:1"
         offset="1" /></radialGradient><radialGradient
       cx="0"
       cy="0"
       r="1"
       fx="0"
       fy="0"
       id="radialGradient6102"
       gradientUnits="userSpaceOnUse"
       gradientTransform="matrix(44.6687,0,0,-44.6687,594.833,523.116)"
       spreadMethod="pad"><stop
         id="stop6104"
         style="stop-color:#ffffff;stop-opacity:1"
         offset="0" /><stop
         id="stop6106"
         style="stop-color:#babbbc;stop-opacity:1"
         offset="0.848315" /><stop
         id="stop6108"
         style="stop-color:#e9e9e9;stop-opacity:1"
         offset="1" /></radialGradient><linearGradient
       x1="0"
       y1="0"
       x2="1"
       y2="0"
       id="linearGradient6120"
       gradientUnits="userSpaceOnUse"
       gradientTransform="matrix(-0.512184,10.4536,10.4536,0.512184,586.745,507.298)"
       spreadMethod="pad"><stop
         id="stop6122"
         style="stop-color:#5ac58c;stop-opacity:1"
         offset="0" /><stop
         id="stop6124"
         style="stop-color:#34b35b;stop-opacity:1"
         offset="1" /></linearGradient><radialGradient
       cx="0"
       cy="0"
       r="1"
       fx="0"
       fy="0"
       id="radialGradient6136"
       gradientUnits="userSpaceOnUse"
       gradientTransform="matrix(38.8746,0,0,-38.8746,574.449,456.431)"
       spreadMethod="pad"><stop
         id="stop6138"
         style="stop-color:#f5f014;stop-opacity:1"
         offset="0" /><stop
         id="stop6140"
         style="stop-color:#f9d108;stop-opacity:1"
         offset="1" /></radialGradient><radialGradient
       cx="0"
       cy="0"
       r="1"
       fx="0"
       fy="0"
       id="radialGradient6152"
       gradientUnits="userSpaceOnUse"
       gradientTransform="matrix(30.9797,0,0,-30.9797,579.333,477.028)"
       spreadMethod="pad"><stop
         id="stop6154"
         style="stop-color:#f5f014;stop-opacity:1"
         offset="0" /><stop
         id="stop6156"
         style="stop-color:#fbc709;stop-opacity:1"
         offset="1" /></radialGradient><radialGradient
       cx="0"
       cy="0"
       r="1"
       fx="0"
       fy="0"
       id="radialGradient6168"
       gradientUnits="userSpaceOnUse"
       gradientTransform="matrix(26.2688,0,0,-26.2688,580.819,489.981)"
       spreadMethod="pad"><stop
         id="stop6170"
         style="stop-color:#f5f014;stop-opacity:1"
         offset="0" /><stop
         id="stop6172"
         style="stop-color:#f9d108;stop-opacity:1"
         offset="1" /></radialGradient><radialGradient
       cx="0"
       cy="0"
       r="1"
       fx="0"
       fy="0"
       id="radialGradient6184"
       gradientUnits="userSpaceOnUse"
       gradientTransform="matrix(23.9329,2.4487,2.4487,-23.9329,582.523,564.833)"
       spreadMethod="pad"><stop
         id="stop6186"
         style="stop-color:#73cd9b;stop-opacity:1"
         offset="0" /><stop
         id="stop6188"
         style="stop-color:#3fbb73;stop-opacity:1"
         offset="1" /></radialGradient><radialGradient
       cx="0"
       cy="0"
       r="1"
       fx="0"
       fy="0"
       id="radialGradient6226"
       gradientUnits="userSpaceOnUse"
       gradientTransform="matrix(1.07485,-0.252985,-0.489676,-2.08041,583.916,547.125)"
       spreadMethod="pad"><stop
         id="stop6228"
         style="stop-color:#ffffff;stop-opacity:1"
         offset="0" /><stop
         id="stop6230"
         style="stop-color:#211d1d;stop-opacity:1"
         offset="1" /></radialGradient><radialGradient
       cx="0"
       cy="0"
       r="1"
       fx="0"
       fy="0"
       id="radialGradient6242"
       gradientUnits="userSpaceOnUse"
       gradientTransform="matrix(1.07604,-0.253264,-0.490216,-2.0827,576.348,550.42)"
       spreadMethod="pad"><stop
         id="stop6244"
         style="stop-color:#ffffff;stop-opacity:1"
         offset="0" /><stop
         id="stop6246"
         style="stop-color:#211d1d;stop-opacity:1"
         offset="1" /></radialGradient><linearGradient
       x1="0"
       y1="0"
       x2="1"
       y2="0"
       id="linearGradient6270"
       gradientUnits="userSpaceOnUse"
       gradientTransform="matrix(-3.6175,-1.45994,-1.45994,3.6175,618.792,491.313)"
       spreadMethod="pad"><stop
         id="stop6272"
         style="stop-color:#3fbb73;stop-opacity:1"
         offset="0" /><stop
         id="stop6274"
         style="stop-color:#2ea356;stop-opacity:1"
         offset="1" /></linearGradient><linearGradient
       x1="0"
       y1="0"
       x2="1"
       y2="0"
       id="linearGradient6286"
       gradientUnits="userSpaceOnUse"
       gradientTransform="matrix(-3.6186,-1.46039,-1.46039,3.6186,621.771,490.383)"
       spreadMethod="pad"><stop
         id="stop6288"
         style="stop-color:#3fbb73;stop-opacity:1"
         offset="0" /><stop
         id="stop6290"
         style="stop-color:#2ea356;stop-opacity:1"
         offset="1" /></linearGradient><radialGradient
       cx="0"
       cy="0"
       r="1"
       fx="0"
       fy="0"
       id="radialGradient6302"
       gradientUnits="userSpaceOnUse"
       gradientTransform="matrix(10.5658,0.239739,0.239739,-10.5658,590.582,509.398)"
       spreadMethod="pad"><stop
         id="stop6304"
         style="stop-color:#73cd9b;stop-opacity:1"
         offset="0" /><stop
         id="stop6306"
         style="stop-color:#3fbb73;stop-opacity:1"
         offset="1" /></radialGradient><filter
       color-interpolation-filters="sRGB"
       id="filter17357"><feGaussianBlur
         id="feGaussianBlur17359"
         stdDeviation="1.7122632" /></filter><linearGradient
       x1="0"
       y1="0"
       x2="1"
       y2="0"
       id="linearGradient17412"
       xlink:href="#linearGradient5862"
       gradientUnits="userSpaceOnUse"
       gradientTransform="matrix(0.862797,0.46481,0.46481,-0.862797,56.0222,50.455)"
       spreadMethod="pad" /><linearGradient
       x1="0"
       y1="0"
       x2="1"
       y2="0"
       id="linearGradient17414"
       xlink:href="#linearGradient5894"
       gradientUnits="userSpaceOnUse"
       gradientTransform="matrix(0.718236,0.952491,0.952491,-0.718236,57.0167,47.3258)"
       spreadMethod="pad" /><linearGradient
       x1="0"
       y1="0"
       x2="1"
       y2="0"
       id="linearGradient17416"
       xlink:href="#linearGradient5926"
       gradientUnits="userSpaceOnUse"
       gradientTransform="matrix(-0.687241,1.10555,1.10555,0.687241,60.6768,47.0351)"
       spreadMethod="pad" /><radialGradient
       cx="0"
       cy="0"
       r="1"
       fx="0"
       fy="0"
       id="radialGradient17418"
       xlink:href="#radialGradient5958"
       gradientUnits="userSpaceOnUse"
       gradientTransform="matrix(1.11911,0.294042,0.294042,-1.11911,61.1446,53.0631)"
       spreadMethod="pad" /><radialGradient
       cx="0"
       cy="0"
       r="1"
       fx="0"
       fy="0"
       id="radialGradient17420"
       xlink:href="#radialGradient5974"
       gradientUnits="userSpaceOnUse"
       gradientTransform="matrix(1.37633,0,0,-1.37633,60.7211,52.0673)"
       spreadMethod="pad" /><radialGradient
       cx="0"
       cy="0"
       r="1"
       fx="0"
       fy="0"
       id="radialGradient17422"
       xlink:href="#radialGradient5990"
       gradientUnits="userSpaceOnUse"
       gradientTransform="matrix(2.06549,0,0,-2.06549,62.2982,50.4593)"
       spreadMethod="pad" /><radialGradient
       cx="0"
       cy="0"
       r="1"
       fx="0"
       fy="0"
       id="radialGradient17424"
       xlink:href="#radialGradient6006"
       gradientUnits="userSpaceOnUse"
       gradientTransform="matrix(0.87781,0,0,-0.87781,61.0491,48.804)"
       spreadMethod="pad" /><radialGradient
       cx="0"
       cy="0"
       r="1"
       fx="0"
       fy="0"
       id="radialGradient17426"
       xlink:href="#radialGradient6022"
       gradientUnits="userSpaceOnUse"
       gradientTransform="matrix(1.74624,0,0,-1.74624,62.7669,50.0844)"
       spreadMethod="pad" /><radialGradient
       cx="0"
       cy="0"
       r="1"
       fx="0"
       fy="0"
       id="radialGradient17428"
       xlink:href="#radialGradient6038"
       gradientUnits="userSpaceOnUse"
       gradientTransform="matrix(1.55757,0,0,-1.55757,62.3606,51.755)"
       spreadMethod="pad" /><radialGradient
       cx="0"
       cy="0"
       r="1"
       fx="0"
       fy="0"
       id="radialGradient17430"
       xlink:href="#radialGradient6054"
       gradientUnits="userSpaceOnUse"
       gradientTransform="matrix(1.43783,0,0,-1.43783,60.9865,52.6919)"
       spreadMethod="pad" /><radialGradient
       cx="0"
       cy="0"
       r="1"
       fx="0"
       fy="0"
       id="radialGradient17432"
       xlink:href="#radialGradient6070"
       gradientUnits="userSpaceOnUse"
       gradientTransform="matrix(2.12379,0,0,-2.12379,58.6558,50.7513)"
       spreadMethod="pad" /><radialGradient
       cx="0"
       cy="0"
       r="1"
       fx="0"
       fy="0"
       id="radialGradient17434"
       xlink:href="#radialGradient6102"
       gradientUnits="userSpaceOnUse"
       gradientTransform="matrix(4.46687,0,0,-4.46687,59.4833,52.3116)"
       spreadMethod="pad" /><linearGradient
       x1="0"
       y1="0"
       x2="1"
       y2="0"
       id="linearGradient17436"
       xlink:href="#linearGradient6120"
       gradientUnits="userSpaceOnUse"
       gradientTransform="matrix(-0.0512184,1.04536,1.04536,0.0512184,58.6745,50.7298)"
       spreadMethod="pad" /><radialGradient
       cx="0"
       cy="0"
       r="1"
       fx="0"
       fy="0"
       id="radialGradient17438"
       xlink:href="#radialGradient6136"
       gradientUnits="userSpaceOnUse"
       gradientTransform="matrix(3.88746,0,0,-3.88746,57.4449,45.6431)"
       spreadMethod="pad" /><radialGradient
       cx="0"
       cy="0"
       r="1"
       fx="0"
       fy="0"
       id="radialGradient17440"
       xlink:href="#radialGradient6152"
       gradientUnits="userSpaceOnUse"
       gradientTransform="matrix(3.09797,0,0,-3.09797,57.9333,47.7028)"
       spreadMethod="pad" /><radialGradient
       cx="0"
       cy="0"
       r="1"
       fx="0"
       fy="0"
       id="radialGradient17442"
       xlink:href="#radialGradient6168"
       gradientUnits="userSpaceOnUse"
       gradientTransform="matrix(2.62688,0,0,-2.62688,58.0819,48.9981)"
       spreadMethod="pad" /><radialGradient
       cx="0"
       cy="0"
       r="1"
       fx="0"
       fy="0"
       id="radialGradient17444"
       xlink:href="#radialGradient6184"
       gradientUnits="userSpaceOnUse"
       gradientTransform="matrix(2.39329,0.24487,0.24487,-2.39329,58.2523,56.4833)"
       spreadMethod="pad" /><radialGradient
       cx="0"
       cy="0"
       r="1"
       fx="0"
       fy="0"
       id="radialGradient17446"
       xlink:href="#radialGradient6226"
       gradientUnits="userSpaceOnUse"
       gradientTransform="matrix(0.107485,-0.0252985,-0.0489676,-0.208041,58.3916,54.7125)"
       spreadMethod="pad" /><radialGradient
       cx="0"
       cy="0"
       r="1"
       fx="0"
       fy="0"
       id="radialGradient17448"
       xlink:href="#radialGradient6242"
       gradientUnits="userSpaceOnUse"
       gradientTransform="matrix(0.107604,-0.0253264,-0.0490216,-0.20827,57.6348,55.042)"
       spreadMethod="pad" /><linearGradient
       x1="0"
       y1="0"
       x2="1"
       y2="0"
       id="linearGradient17450"
       xlink:href="#linearGradient6270"
       gradientUnits="userSpaceOnUse"
       gradientTransform="matrix(-0.36175,-0.145994,-0.145994,0.36175,61.8792,49.1313)"
       spreadMethod="pad" /><linearGradient
       x1="0"
       y1="0"
       x2="1"
       y2="0"
       id="linearGradient17452"
       xlink:href="#linearGradient6286"
       gradientUnits="userSpaceOnUse"
       gradientTransform="matrix(-0.36186,-0.146039,-0.146039,0.36186,62.1771,49.0383)"
       spreadMethod="pad" /><radialGradient
       cx="0"
       cy="0"
       r="1"
       fx="0"
       fy="0"
       id="radialGradient17454"
       xlink:href="#radialGradient6302"
       gradientUnits="userSpaceOnUse"
       gradientTransform="matrix(1.05658,0.0239739,0.0239739,-1.05658,59.0582,50.9398)"
       spreadMethod="pad" /></defs><g
     transform="matrix(1.25,0,0,-1.25,-680.25875,701.20069)"
     id="g10"><g
       transform="matrix(0.82895257,0,0,0.82895257,99.878099,87.338277)"
       id="g17365"><g
         id="g17361"><path
           d="m 728.03125,49.3125 c -4.85555,-0.122834 -9.53809,1.036445 -13.34375,3.625 -10.53441,7.171675 -10.5681,15.541618 -10.25,21.6875 -0.82912,0.297749 -1.59472,0.605943 -2.1875,0.875 -5.1725,2.3425 -15.72125,11.94875 -8.1875,34.625 4.7113,-2.11098 9.64388,-1.72332 14.90625,-0.78125 -0.53718,0.63578 -0.97323,1.46062 -1.3125,2.4375 -11.84971,4.05392 -15.46032,10.2603 -17.03125,10.46875 -2.89,0.3825 -9.0125,-0.88625 -13.3125,2.78125 0.37185,0.57085 0.75997,1.04516 1.1875,1.5 0.0728,0.0774 0.14305,0.17332 0.21875,0.25 0.20506,0.20515 0.4206,0.42002 0.65625,0.625 -0.87127,0.64782 -1.61797,1.29745 -1.875,1.78125 0,0 0.97704,1.18993 2.34375,2.46875 -0.23218,0.19461 -0.41872,0.39597 -0.59375,0.59375 -0.011,0.011 -0.0203,0.0201 -0.0312,0.0312 -0.0539,0.0622 -0.10923,0.12525 -0.15625,0.1875 -0.24346,0.2619 -0.4944,0.54052 -0.71875,0.84375 5.73,5.7875 12.04,4.90125 13.28125,4.875 2.24625,-0.0488 10.0025,-1.0025 10.21875,-6.65625 0.31213,-0.56525 0.86156,-1.01301 1.5625,-1.375 -0.20191,3.75518 0.93915,9.42089 6.59375,16.875 0.86989,1.14643 2.26002,2.63158 4.03125,4.1875 -6.639,4.81924 -7.37145,12.92254 -8.84375,12.9375 -2.915,0.0325 -8.85625,-1.9425 -13.5625,1.1875 0.49297,1.00026 1.03,1.75854 1.78125,2.59375 -0.9463,0.54044 -1.77845,1.11076 -2.09375,1.5625 0,0 0.8199,1.27879 2.03125,2.71875 -0.22969,0.14965 -0.40942,0.3108 -0.59375,0.46875 -0.0318,0.0244 -0.0617,0.0371 -0.0937,0.0625 -0.064,0.0578 -0.13084,0.12876 -0.1875,0.1875 -0.26812,0.2275 -0.55932,0.44949 -0.8125,0.71875 4.8275,8.1375 16.7875,10.3625 18,10.625 3.925,0.85125 12.86125,2.29625 12.75,-6.9375 1.1665,-8.55723 5.04488,-14.04586 11.625,-17.46875 0.0103,6.2e-4 0.0209,-6.1e-4 0.0312,0 0.76959,0.13318 1.55058,0.24443 2.34375,0.34375 0.0403,0.56282 0.11845,1.0739 0.25,1.5 3.1475,10.2175 15.985,11.45375 16.03125,13.21875 0.0762,2.78875 -1.74875,8.5075 1.3125,12.96875 0.95829,-0.48934 1.67845,-1.01246 2.46875,-1.75 0.52953,0.89437 1.06574,1.6751 1.5,1.96875 0,0 1.00294,-0.63917 2.1875,-1.625 0.11482,-0.0954 0.22579,-0.21095 0.34375,-0.3125 0.0159,-0.0137 0.0465,-0.0174 0.0625,-0.0312 0.14954,0.22228 0.31163,0.41702 0.46875,0.59375 0.26565,0.33193 0.59049,0.68676 0.9375,1 7.71,-4.7375 9.64375,-16.21375 9.875,-17.375 0.76375,-3.76625 2.01625,-12.33125 -6.8125,-12.09375 -2.08086,0.17587 -3.89227,0.10696 -5.5,-0.1875 4.70345,-0.67713 8.27446,-2.78599 9.40625,-3.53125 0.0616,-0.004 0.1274,0.0159 0.1875,0 3.06988,-2.08169 5.21764,-3.76217 7.09375,-6.0625 0.63583,-0.0884 1.29227,-0.1824 1.96875,-0.3125 -0.41839,-0.31922 -0.75935,-0.5501 -1.125,-0.8125 1.04348,-1.45776 2.05012,-3.15305 3.09375,-5.34375 3.31375,-9.3175 2.125,-23.4375 2.125,-23.4375 -0.85625,-6.85625 -4.6875,-12.96875 -4.6875,-12.96875 -0.0325,-0.0192 -0.0612,-0.0435 -0.0937,-0.0625 C 770.42962,93.224911 760.859,91.40525 756.125,91.34375 757.37861,86.96642 758.35182,78.873667 757,72.46875 753.99023,58.268047 740.43987,49.626408 728.03125,49.3125 z"
           transform="matrix(0.8,0,0,-0.8,0,605.58)"
           id="path17351"
           style="fill:#4d4d4d;fill-opacity:1;fill-rule:nonzero;stroke:#4d4d4d;stroke-width:4.8253665;stroke-miterlimit:4;stroke-dasharray:none;filter:url(#filter17357)" /><path
           d="m 728.03125,49.3125 c -4.85555,-0.122834 -9.53809,1.036445 -13.34375,3.625 -10.53441,7.171675 -10.5681,15.541618 -10.25,21.6875 -0.82912,0.297749 -1.59472,0.605943 -2.1875,0.875 -5.1725,2.3425 -15.72125,11.94875 -8.1875,34.625 4.7113,-2.11098 9.64388,-1.72332 14.90625,-0.78125 -0.53718,0.63578 -0.97323,1.46062 -1.3125,2.4375 -11.84971,4.05392 -15.46032,10.2603 -17.03125,10.46875 -2.89,0.3825 -9.0125,-0.88625 -13.3125,2.78125 0.37185,0.57085 0.75997,1.04516 1.1875,1.5 0.0728,0.0774 0.14305,0.17332 0.21875,0.25 0.20506,0.20515 0.4206,0.42002 0.65625,0.625 -0.87127,0.64782 -1.61797,1.29745 -1.875,1.78125 0,0 0.97704,1.18993 2.34375,2.46875 -0.23218,0.19461 -0.41872,0.39597 -0.59375,0.59375 -0.011,0.011 -0.0203,0.0201 -0.0312,0.0312 -0.0539,0.0622 -0.10923,0.12525 -0.15625,0.1875 -0.24346,0.2619 -0.4944,0.54052 -0.71875,0.84375 5.73,5.7875 12.04,4.90125 13.28125,4.875 2.24625,-0.0488 10.0025,-1.0025 10.21875,-6.65625 0.31213,-0.56525 0.86156,-1.01301 1.5625,-1.375 -0.20191,3.75518 0.93915,9.42089 6.59375,16.875 0.86989,1.14643 2.26002,2.63158 4.03125,4.1875 -6.639,4.81924 -7.37145,12.92254 -8.84375,12.9375 -2.915,0.0325 -8.85625,-1.9425 -13.5625,1.1875 0.49297,1.00026 1.03,1.75854 1.78125,2.59375 -0.9463,0.54044 -1.77845,1.11076 -2.09375,1.5625 0,0 0.8199,1.27879 2.03125,2.71875 -0.22969,0.14965 -0.40942,0.3108 -0.59375,0.46875 -0.0318,0.0244 -0.0617,0.0371 -0.0937,0.0625 -0.064,0.0578 -0.13084,0.12876 -0.1875,0.1875 -0.26812,0.2275 -0.55932,0.44949 -0.8125,0.71875 4.8275,8.1375 16.7875,10.3625 18,10.625 3.925,0.85125 12.86125,2.29625 12.75,-6.9375 1.1665,-8.55723 5.04488,-14.04586 11.625,-17.46875 0.0103,6.2e-4 0.0209,-6.1e-4 0.0312,0 0.76959,0.13318 1.55058,0.24443 2.34375,0.34375 0.0403,0.56282 0.11845,1.0739 0.25,1.5 3.1475,10.2175 15.985,11.45375 16.03125,13.21875 0.0762,2.78875 -1.74875,8.5075 1.3125,12.96875 0.95829,-0.48934 1.67845,-1.01246 2.46875,-1.75 0.52953,0.89437 1.06574,1.6751 1.5,1.96875 0,0 1.00294,-0.63917 2.1875,-1.625 0.11482,-0.0954 0.22579,-0.21095 0.34375,-0.3125 0.0159,-0.0137 0.0465,-0.0174 0.0625,-0.0312 0.14954,0.22228 0.31163,0.41702 0.46875,0.59375 0.26565,0.33193 0.59049,0.68676 0.9375,1 7.71,-4.7375 9.64375,-16.21375 9.875,-17.375 0.76375,-3.76625 2.01625,-12.33125 -6.8125,-12.09375 -2.08086,0.17587 -3.89227,0.10696 -5.5,-0.1875 4.70345,-0.67713 8.27446,-2.78599 9.40625,-3.53125 0.0616,-0.004 0.1274,0.0159 0.1875,0 3.06988,-2.08169 5.21764,-3.76217 7.09375,-6.0625 0.63583,-0.0884 1.29227,-0.1824 1.96875,-0.3125 -0.41839,-0.31922 -0.75935,-0.5501 -1.125,-0.8125 1.04348,-1.45776 2.05012,-3.15305 3.09375,-5.34375 3.31375,-9.3175 2.125,-23.4375 2.125,-23.4375 -0.85625,-6.85625 -4.6875,-12.96875 -4.6875,-12.96875 -0.0325,-0.0192 -0.0612,-0.0435 -0.0937,-0.0625 C 770.42962,93.224911 760.859,91.40525 756.125,91.34375 757.37861,86.96642 758.35182,78.873667 757,72.46875 753.99023,58.268047 740.43987,49.626408 728.03125,49.3125 z"
           transform="matrix(0.8,0,0,-0.8,0,605.58)"
           id="path16496"
           style="fill:#ffffff;fill-opacity:1;fill-rule:nonzero;stroke:#ffffff;stroke-width:4.8253665;stroke-miterlimit:4;stroke-dasharray:none" /></g><path
         d="m 571.294,517.58 c -13.702,-2.918 -17.325,-9.6 -18.787,-9.794 -2.312,-0.306 -7.224,0.693 -10.664,-2.241 0.512,-0.786 1.031,-1.359 1.76,-1.979 -0.565,-0.288 -0.76,-0.655 -1.283,-1.317 0.262,-0.494 1.239,-1.424 1.737,-1.926 -0.424,-0.244 -0.944,-0.79 -1.382,-1.382 4.584,-4.63 9.63,-3.92 10.623,-3.899 1.797,0.039 8.014,0.789 8.187,5.312 1.92,3.477 14.073,1.435 20.497,4.825 8.265,4.359 -5.5,13.506 -10.688,12.401"
         id="path5868"
         style="fill:url(#linearGradient17412);fill-opacity:1;fill-rule:nonzero;stroke:none" /><path
         d="m 546.917,504.015 0.544,0.378 -0.87,1.127 c 0,0 -2.221,-0.505 -3.824,-1.158 0.252,-0.269 0.523,-0.531 0.836,-0.796 -0.565,-0.288 -0.76,-0.655 -1.283,-1.317 0.262,-0.494 1.239,-1.424 1.737,-1.926 -0.145,-0.084 -0.306,-0.217 -0.47,-0.358 0.664,-0.823 1.424,-1.584 2.21,-2.022 2.367,-1.307 3.298,1.218 3.298,1.218 l -2.178,4.854"
         id="path5878"
         style="fill:#278547;fill-opacity:1;fill-rule:nonzero;stroke:none" /><path
         d="m 546.741,505.74 c 0,0 -4.116,-2.349 -4.736,-3.516 0,0 3.022,-3.683 5.62,-4.429 2.596,-0.75 2.948,1.912 2.948,1.912 l -3.199,4.256 0.451,0.488 -1.084,1.289"
         id="path5880"
         style="fill:#3fbb73;fill-opacity:1;fill-rule:nonzero;stroke:none" /><path
         d="m 547.539,500.159 -0.024,0.756 0.478,1.531 c 0,0 -3.138,-0.321 -4.644,-1.676 1.12,-1.115 2.766,-2.54 4.276,-2.975 0.552,-0.163 0.994,-0.159 1.362,-0.069 l -1.448,2.433"
         id="path5882"
         style="fill:#278547;fill-opacity:1;fill-rule:nonzero;stroke:none" /><path
         d="m 548.745,502.86 c 0,0 -4.854,-1.859 -5.7,-3.588 0,0 2.228,-1.794 4.824,-2.543 2.593,-0.755 3.846,2.445 3.846,2.445 l -3.772,1.491 0.842,1.683 -0.04,0.512"
         id="path5884"
         style="fill:#3fbb73;fill-opacity:1;fill-rule:nonzero;stroke:none" /><path
         d="m 576.246,486.884 c -10.088,-2.428 -10.62,-12.616 -12.096,-12.631 -2.332,-0.026 -7.091,1.558 -10.856,-0.946 0.413,-0.838 0.861,-1.468 1.508,-2.174 -0.595,-0.218 -0.833,-0.559 -1.431,-1.153 0.202,-0.523 1.06,-1.563 1.496,-2.12 -0.45,-0.191 -1.034,-0.67 -1.538,-1.206 3.862,-6.51 13.427,-8.279 14.397,-8.489 3.14,-0.681 10.277,-1.846 10.188,5.541 1.072,7.864 5.005,12.513 11.791,15.107 8.724,3.334 -8.303,9.313 -13.459,8.071"
         id="path5900"
         style="fill:url(#linearGradient17414);fill-opacity:1;fill-rule:nonzero;stroke:none" /><path
         d="m 558.147,471.185 0.588,0.303 -0.729,1.229 c 0,0 -2.265,-0.239 -3.935,-0.693 0.22,-0.299 0.456,-0.588 0.731,-0.891 -0.595,-0.218 -0.833,-0.559 -1.431,-1.153 0.202,-0.523 1.06,-1.563 1.496,-2.12 -0.155,-0.067 -0.328,-0.179 -0.512,-0.303 0.562,-0.895 1.224,-1.741 1.951,-2.268 2.193,-1.582 3.42,0.812 3.42,0.812 l -1.579,5.084"
         id="path5910"
         style="fill:#278547;fill-opacity:1;fill-rule:nonzero;stroke:none" /><path
         d="m 558.176,472.915 c 0,0 -4.363,-1.837 -5.121,-2.923 0,0 2.56,-4.017 5.048,-5.071 2.489,-1.057 3.155,1.546 3.155,1.546 l -2.666,4.607 0.508,0.433 -0.924,1.408"
         id="path5912"
         style="fill:#3fbb73;fill-opacity:1;fill-rule:nonzero;stroke:none" /><path
         d="m 558.302,467.278 0.069,0.756 0.656,1.462 c 0,0 -3.152,0.055 -4.811,-1.109 0.977,-1.241 2.441,-2.851 3.887,-3.466 0.531,-0.227 0.968,-0.277 1.344,-0.231 l -1.145,2.588"
         id="path5914"
         style="fill:#278547;fill-opacity:1;fill-rule:nonzero;stroke:none" /><path
         d="m 559.821,469.814 c 0,0 -5.038,-1.261 -6.088,-2.878 0,0 4.149,-4.299 6.638,-5.357 2.485,-1.059 1.053,1.546 1.053,1.546 l -2.66,4.609 1.038,1.567 0.019,0.513"
         id="path5916"
         style="fill:#3fbb73;fill-opacity:1;fill-rule:nonzero;stroke:none" /><path
         d="m 589.323,476.206 c 2.518,-8.174 12.78,-9.172 12.817,-10.584 0.061,-2.231 -1.386,-6.804 1.063,-10.373 0.799,0.408 1.395,0.849 2.059,1.479 0.218,-0.569 0.546,-0.79 1.122,-1.357 0.498,0.202 1.481,1.038 2.008,1.464 0.191,-0.428 0.656,-0.983 1.18,-1.456 6.168,3.79 7.723,12.968 7.908,13.897 0.611,3.013 1.617,9.858 -5.446,9.668 -9.158,-0.774 -12.047,4.608 -14.623,11.06 -3.322,8.3 -9.585,-8.949 -8.088,-13.798"
         id="path5932"
         style="fill:url(#linearGradient17416);fill-opacity:1;fill-rule:nonzero;stroke:none" /><path
         d="m 605.165,459.927 -0.302,0.555 -1.162,-0.714 c 0,0 0.259,-2.164 0.717,-3.754 0.283,0.212 0.558,0.443 0.844,0.714 0.218,-0.569 0.546,-0.79 1.122,-1.357 0.498,0.202 1.481,1.038 2.008,1.464 0.065,-0.149 0.176,-0.313 0.296,-0.485 0.849,0.55 1.65,1.195 2.143,1.897 1.481,2.122 -0.829,3.262 -0.829,3.262 l -4.837,-1.582"
         id="path5942"
         style="fill:#278547;fill-opacity:1;fill-rule:nonzero;stroke:none" /><path
         d="m 603.506,459.929 c 0,0 1.825,-4.15 2.872,-4.858 0,0 3.804,2.506 4.778,4.903 0.976,2.396 -1.524,2.997 -1.524,2.997 l -4.37,-2.619 -0.416,0.479 -1.34,-0.902"
         id="path5944"
         style="fill:#3fbb73;fill-opacity:1;fill-rule:nonzero;stroke:none" /><path
         d="m 608.9,460.127 -0.726,0.059 -1.406,0.603 c 0,0 -0.01,-3.017 1.13,-4.586 1.174,0.952 2.69,2.376 3.258,3.771 0.21,0.508 0.256,0.93 0.202,1.287 l -2.458,-1.134"
         id="path5946"
         style="fill:#278547;fill-opacity:1;fill-rule:nonzero;stroke:none" /><path
         d="m 606.451,461.549 c 0,0 1.279,-4.806 2.841,-5.787 0,0 4.052,4.037 5.026,6.43 0.98,2.391 -1.49,0.985 -1.49,0.985 l -4.375,-2.613 -1.511,0.97 -0.491,0.015"
         id="path5948"
         style="fill:#3fbb73;fill-opacity:1;fill-rule:nonzero;stroke:none" /><path
         d="m 602.575,532.334 c 0,0 13.585,2.813 21.236,-14.832 l -11.175,1.824 -6.706,6.21 -3.355,6.798"
         id="path5964"
         style="fill:url(#radialGradient17418);fill-opacity:1;fill-rule:nonzero;stroke:none" /><path
         d="m 597.815,519.429 10.848,0.557 7.567,-9.677 -2.56,-8.701 -10.973,-3.067 -4.882,20.888"
         id="path5980"
         style="fill:url(#radialGradient17420);fill-opacity:1;fill-rule:nonzero;stroke:none" /><path
         d="m 625.824,510.711 c 0,0 0.947,-11.302 -1.704,-18.756 -2.502,-5.252 -4.564,-7.145 -8.82,-10.031 -1.804,-0.477 -4.534,6.094 -4.534,6.094 l 3.424,12.256 11.634,10.437"
         id="path5996"
         style="fill:url(#radialGradient17422);fill-opacity:1;fill-rule:nonzero;stroke:none" /><path
         d="m 614.388,487.09 1.066,-4.941 c 0,0 -6.692,-4.939 -14.44,-2.586 -6.435,1.952 6.172,8.355 6.172,8.355 l 7.202,-0.828"
         id="path6012"
         style="fill:url(#radialGradient17424);fill-opacity:1;fill-rule:nonzero;stroke:none" /><path
         d="m 608.732,504.093 c 4.378,-0.118 9.638,-0.644 12.149,-0.796 0.838,-3.657 1.714,-10.478 1.714,-10.478 0,0 -3.393,-4.217 -9.089,-7.011 -4.488,-0.304 -8.937,3.316 -8.937,3.316 0,0 -0.221,15.083 4.163,14.969"
         id="path6028"
         style="fill:url(#radialGradient17426);fill-opacity:1;fill-rule:nonzero;stroke:none" /><path
         d="m 610.866,524.24 c 0,0 5.801,0.024 11.2,-3.168 0,0 3.073,-4.876 3.758,-10.361 0,0 -2.141,-3.956 -4.943,-7.414 0,0 -5.123,-0.662 -9.027,1.328 0,0 1.248,6.975 -3.792,12.355 l 2.804,7.26"
         id="path6044"
         style="fill:url(#radialGradient17428);fill-opacity:1;fill-rule:nonzero;stroke:none" /><path
         d="m 596.708,533.936 c 0,0 10.466,1.187 15.704,-9.096 0,0 -0.312,-2.966 -3.576,-8.556 -4.52,1.349 -12.337,0.745 -12.337,0.745 l 0.209,16.907"
         id="path6060"
         style="fill:url(#radialGradient17430);fill-opacity:1;fill-rule:nonzero;stroke:none" /><path
         d="m 594.537,524.317 c 2.984,-14.379 10.29,-10.694 10.828,-13.633 0.531,-2.935 -3.956,-14.752 -3.956,-14.752 0,0 -20.293,-5.607 -21.629,-5.607 -1.334,0 -11.699,11.882 -11.699,12.684 0,0.801 -1.92,11.882 -1.92,11.882 l 14.421,9.077 8.741,0.171"
         id="path6076"
         style="fill:url(#radialGradient17432);fill-opacity:1;fill-rule:nonzero;stroke:none" /><path
         d="m 603.98,532.802 c 0,0 6.404,-3.433 8.588,-8.43 0,0 4.024,-0.259 9.498,-3.3"
         id="path6086"
         style="fill:none;stroke:#ffffff;stroke-width:1.20634162;stroke-linecap:round;stroke-linejoin:round;stroke-miterlimit:4;stroke-opacity:1;stroke-dasharray:none" /><path
         d="m 597.735,517.188 11.101,-0.904 3.732,8.088"
         id="path6088"
         style="fill:none;stroke:#ffffff;stroke-width:1.20634162;stroke-linecap:round;stroke-linejoin:round;stroke-miterlimit:4;stroke-opacity:1;stroke-dasharray:none" /><path
         d="m 608.836,516.284 c 0,0 2.588,-4.79 3.78,-12.117 0,0 5.906,-0.796 8.265,-0.87 l 1.714,-10.478 c 0,0 -6.085,-5.706 -8.077,-7.084 -4.038,-0.151 -6.244,0.534 -6.244,0.534"
         id="path6090"
         style="fill:none;stroke:#ffffff;stroke-width:1.20634162;stroke-linecap:round;stroke-linejoin:round;stroke-miterlimit:4;stroke-opacity:1;stroke-dasharray:none" /><path
         d="m 620.881,503.297 c 0,0 3.767,4.624 4.779,7.908"
         id="path6092"
         style="fill:none;stroke:#ffffff;stroke-width:1.20634162;stroke-linecap:round;stroke-linejoin:round;stroke-miterlimit:4;stroke-opacity:1;stroke-dasharray:none" /><path
         d="m 584.843,528.983 c 0,0 7.416,3.72 7.818,-5.393 0.242,-5.573 1.516,-9.113 9.567,-13.281 10.454,-5.416 -0.749,-26.332 -23.532,-28.385 -5.859,-0.527 10.645,-6.909 20.356,-4.108 18.84,5.436 18.831,31.367 6.645,35.783 -7.733,2.801 -8.824,5.084 -9.122,7.63 -0.298,2.548 -0.484,5.777 -1.79,9.123 -4.15,10.622 -8.184,2.98 -10.633,2.548 -2.448,-0.436 0.691,-3.917 0.691,-3.917"
         id="path6110"
         style="fill:url(#radialGradient17434);fill-opacity:1;fill-rule:nonzero;stroke:none" /><path
         d="m 588.057,527.487 c 0,0 -1.494,-10.644 -6.534,-11.016 -5.589,-0.414 -7.411,-7.914 6.78,-9.033 6.867,-0.543 10.196,3.073 4.366,7.566 -3.43,2.644 1.222,12.487 1.222,12.487 l -5.834,-0.004"
         id="path6126"
         style="fill:url(#linearGradient17436);fill-opacity:1;fill-rule:nonzero;stroke:none" /><path
         d="m 564.006,505.78 c 0,0 -4.805,-6.207 4.006,-17.822 3.52,-4.639 16.909,-16.262 33.643,-6.611 5.207,3.006 6.008,10.419 6.008,10.419 l -43.657,14.014"
         id="path6142"
         style="fill:url(#radialGradient17438);fill-opacity:1;fill-rule:nonzero;stroke:none" /><path
         d="m 570.214,511.789 c -1.496,1.413 -2.782,2.554 -3.896,3.49 -2.611,-2.688 -3.936,-7.919 -2.712,-11.499 1.28,-4.93 11.216,-27.034 42.854,-14.619 4.207,5.007 2.207,11.114 0.453,13.474 -7.609,0.013 -27.919,0.86 -36.699,9.154"
         id="path6158"
         style="fill:url(#radialGradient17440);fill-opacity:1;fill-rule:nonzero;stroke:none" /><path
         d="m 584.032,496.766 c 12.207,-3.008 21.326,0.586 24.335,2.708 1.3,3.304 -1.505,8.71 -7.313,7.31 -9.441,-2.283 -18.686,-0.846 -23.629,2.4 -7.009,4.609 -4.633,11.119 -8.611,10.016 -1.806,-0.502 -2.904,-2.603 -3.254,-5.638 1.25,-4.173 3.054,-12.987 18.472,-16.796"
         id="path6174"
         style="fill:url(#radialGradient17442);fill-opacity:1;fill-rule:nonzero;stroke:none" /><path
         d="m 562.642,539.609 c 3.526,2.945 -4.275,14.505 9.111,23.618 10.825,7.363 30.499,0.183 33.849,-15.623 1.229,-5.823 0.057,-13.399 -1.118,-16.363 -4.516,-11.415 -12.455,-14.415 -22.326,-15.129 -15.304,2.311 -7.17,4.708 -13.888,13.591 -5.485,7.254 -17.007,0.397 -5.628,9.906"
         id="path6190"
         style="fill:url(#radialGradient17444);fill-opacity:1;fill-rule:nonzero;stroke:none" /><path
         d="m 590.207,555.123 c -2.549,0.691 -5.182,0.107 -7.377,-1.398 -0.779,3.271 -2.985,5.902 -6.092,6.746 -4.828,1.315 -9.986,-2.187 -11.516,-7.823 -1.534,-5.634 1.142,-11.267 5.97,-12.581 2.308,-0.626 4.68,-0.147 6.706,1.13 0.722,-3.624 3.092,-6.58 6.485,-7.5 5.073,-1.378 10.486,2.299 12.096,8.216 1.607,5.918 -1.2,11.831 -6.272,13.21"
         id="path6200"
         style="fill:#ffffff;fill-opacity:1;fill-rule:nonzero;stroke:none" /><path
         d="m 561.806,545.182 c 4.576,2.077 18.504,6.506 31.177,-11.481 7.042,-9.993 -0.614,-17.219 -10.825,-17.589 -10.306,-0.374 -18.988,4.918 -26.902,1.372 -6.027,18.141 2.412,25.824 6.55,27.698"
         id="path6216"
         style="fill:#88aa00;fill-opacity:1;fill-rule:nonzero;stroke:none" /><path
         d="m 584.877,545.772 c -0.226,-0.967 -0.818,-1.662 -1.32,-1.544 -0.5,0.115 -0.72,1 -0.491,1.971 0.226,0.972 0.817,1.661 1.319,1.544 0.5,-0.12 0.724,-1.002 0.492,-1.971"
         id="path6232"
         style="fill:url(#radialGradient17446);fill-opacity:1;fill-rule:nonzero;stroke:none" /><path
         d="m 577.31,549.064 c -0.228,-0.969 -0.818,-1.662 -1.32,-1.544 -0.502,0.119 -0.724,1.001 -0.492,1.974 0.224,0.969 0.816,1.658 1.316,1.544 0.504,-0.119 0.728,-1.002 0.496,-1.974"
         id="path6248"
         style="fill:url(#radialGradient17448);fill-opacity:1;fill-rule:nonzero;stroke:none" /><path
         d="m 614.824,485.661 c 0,0 -0.054,-1.762 0.63,-3.512"
         id="path6258"
         style="fill:none;stroke:#ffffff;stroke-width:1.20634162;stroke-linecap:round;stroke-linejoin:round;stroke-miterlimit:4;stroke-opacity:1;stroke-dasharray:none" /><path
         d="m 624.12,491.955 -1.525,0.864"
         id="path6260"
         style="fill:none;stroke:#ffffff;stroke-width:1.20634162;stroke-linecap:round;stroke-linejoin:round;stroke-miterlimit:4;stroke-opacity:1;stroke-dasharray:none" /><path
         d="m 613.602,490.979 7.042,0.955 -4.454,-3.43 -4.38,1.586 1.792,0.889"
         id="path6276"
         style="fill:url(#linearGradient17450);fill-opacity:1;fill-rule:nonzero;stroke:none" /><path
         d="m 616.11,490.023 6.916,-0.063 -5.078,-3.046 -3.048,1.966 1.21,1.143"
         id="path6292"
         style="fill:url(#linearGradient17452);fill-opacity:1;fill-rule:nonzero;stroke:none" /><path
         d="m 589.507,500.894 c 1.984,-5.533 9.957,-7.964 15.129,-4.132 1.735,-5.41 5.416,-12.124 17.906,-9.722 -2.527,1.928 -3.613,2.361 -6.86,4.312 1.082,10.393 -2.765,21.703 -10.485,23.55 -11.496,2.75 -19.248,-4.08 -15.69,-14.008"
         id="path6308"
         style="fill:url(#radialGradient17454);fill-opacity:1;fill-rule:nonzero;stroke:none" /></g></g></svg>