<?xml version="1.0" encoding="UTF-8" standalone="no"?>
<!-- Created with Inkscape (http://www.inkscape.org/) -->

<svg
   xmlns:dc="http://purl.org/dc/elements/1.1/"
   xmlns:cc="http://creativecommons.org/ns#"
   xmlns:rdf="http://www.w3.org/1999/02/22-rdf-syntax-ns#"
   xmlns:svg="http://www.w3.org/2000/svg"
   xmlns="http://www.w3.org/2000/svg"
   xmlns:sodipodi="http://sodipodi.sourceforge.net/DTD/sodipodi-0.dtd"
   xmlns:inkscape="http://www.inkscape.org/namespaces/inkscape"
   id="svg2"
   version="1.1"
   inkscape:version="0.48.4 r9939"
   width="125.39434"
   height="95.532532"
   xml:space="preserve"
   sodipodi:docname="trem.svg"><metadata
     id="metadata8"><rdf:RDF><cc:Work
         rdf:about=""><dc:format>image/svg+xml</dc:format><dc:type
           rdf:resource="http://purl.org/dc/dcmitype/StillImage" /><dc:title /></cc:Work></rdf:RDF></metadata><defs
     id="defs6"><filter
       inkscape:collect="always"
       id="filter4101"
       color-interpolation-filters="sRGB"><feGaussianBlur
         inkscape:collect="always"
         stdDeviation="7.7450096"
         id="feGaussianBlur4103" /></filter></defs><sodipodi:namedview
     pagecolor="#ffffff"
     bordercolor="#666666"
     borderopacity="1"
     objecttolerance="10"
     gridtolerance="10"
     guidetolerance="10"
     inkscape:pageopacity="0"
     inkscape:pageshadow="2"
     inkscape:window-width="1600"
     inkscape:window-height="876"
     id="namedview4"
     showgrid="false"
     inkscape:zoom="0.67604167"
     inkscape:cx="222.30182"
     inkscape:cy="-173.60373"
     inkscape:window-x="0"
     inkscape:window-y="1"
     inkscape:window-maximized="1"
     inkscape:current-layer="g10" /><g
     id="g10"
     inkscape:groupmode="layer"
     inkscape:label="ink_ext_XXXXXX"
     transform="matrix(1.25,0,0,-1.25,-180.91081,756.63626)"><g
       id="g4105"
       transform="matrix(0.29768326,0,0,0.29768326,136.87197,398.28101)"><path
         inkscape:connector-curvature="0"
         id="path3331"
         style="fill:#666666;fill-opacity:1;fill-rule:nonzero;stroke:none;filter:url(#filter4101)"
         d="m 329.792,676.491 -132.964,0 c -8.284,0 -15,-6.715 -15,-15 l 0,-12.316 c 0,-8.089 6.403,-14.682 14.417,-14.989 l 0,-18.123 -15.033,0 0,8.093 c 0,8.285 -6.716,15 -15,15 l -17.331,0 0,22.72 c 0,8.284 -6.716,15 -15,15 l -43.8783,0 c -8.2839,0 -15,-6.716 -15,-15 l 0,-25.402 c 0,-5.789 3.2793,-10.813 8.0825,-13.314 l 0,-10.637 C 71.4871,606.837 63.4559,594.892 63.4559,581.2 l 0,-37.638 c 0,-7.612 2.4515,-14.66 6.607,-20.4 L 47.2547,486.607 c -2.8852,-4.625 -3.0352,-10.451 -0.3906,-15.217 2.6441,-4.767 7.666,-7.724 13.1168,-7.724 l 14.0488,0 c 5.3797,0 10.348,2.881 13.0199,7.551 l 1.368,2.392 c 5.8566,-9.753 16.5394,-16.293 28.7204,-16.293 8.046,0 15.438,2.853 21.217,7.601 5.78,-4.748 13.171,-7.601 21.218,-7.601 13.025,0 24.337,7.477 29.867,18.366 l 32.866,-6.999 c 6.273,-7.146 15.371,-11.367 25.136,-11.367 8.046,0 15.438,2.853 21.218,7.601 5.779,-4.748 13.17,-7.601 21.217,-7.601 18.458,0 33.474,15.016 33.474,33.474 0,2.736 -0.326,5.422 -0.959,8.013 7.417,0.906 13.163,7.227 13.163,14.889 l 0,10.007 c 0,4.978 -2.426,9.39 -6.159,12.119 l 0,98.357 0.396,0 c 8.284,0 15,6.716 15,15 l 0,12.316 c 0,8.285 -6.716,15 -15,15" /><path
         d="m 329.792,676.491 -132.964,0 c -8.284,0 -15,-6.715 -15,-15 l 0,-12.316 c 0,-8.089 6.403,-14.682 14.417,-14.989 l 0,-18.123 -15.033,0 0,8.093 c 0,8.285 -6.716,15 -15,15 l -17.331,0 0,22.72 c 0,8.284 -6.716,15 -15,15 l -43.8783,0 c -8.2839,0 -15,-6.716 -15,-15 l 0,-25.402 c 0,-5.789 3.2793,-10.813 8.0825,-13.314 l 0,-10.637 C 71.4871,606.837 63.4559,594.892 63.4559,581.2 l 0,-37.638 c 0,-7.612 2.4515,-14.66 6.607,-20.4 L 47.2547,486.607 c -2.8852,-4.625 -3.0352,-10.451 -0.3906,-15.217 2.6441,-4.767 7.666,-7.724 13.1168,-7.724 l 14.0488,0 c 5.3797,0 10.348,2.881 13.0199,7.551 l 1.368,2.392 c 5.8566,-9.753 16.5394,-16.293 28.7204,-16.293 8.046,0 15.438,2.853 21.217,7.601 5.78,-4.748 13.171,-7.601 21.218,-7.601 13.025,0 24.337,7.477 29.867,18.366 l 32.866,-6.999 c 6.273,-7.146 15.371,-11.367 25.136,-11.367 8.046,0 15.438,2.853 21.218,7.601 5.779,-4.748 13.17,-7.601 21.217,-7.601 18.458,0 33.474,15.016 33.474,33.474 0,2.736 -0.326,5.422 -0.959,8.013 7.417,0.906 13.163,7.227 13.163,14.889 l 0,10.007 c 0,4.978 -2.426,9.39 -6.159,12.119 l 0,98.357 0.396,0 c 8.284,0 15,6.716 15,15 l 0,12.316 c 0,8.285 -6.716,15 -15,15"
         style="fill:#ffffff;fill-opacity:1;fill-rule:nonzero;stroke:none"
         id="path34"
         inkscape:connector-curvature="0" /><path
         d="m 229.014,491.723 -54.23,9.542 c 1.569,-2.274 2.625,-4.92 3.044,-7.775 l 53.293,-11.348 c -1.371,2.581 -2.154,5.522 -2.154,8.649 0,0.315 0.032,0.621 0.047,0.932"
         style="fill:#52423b;fill-opacity:1;fill-rule:nonzero;stroke:none"
         id="path42"
         inkscape:connector-curvature="0" /><path
         d="m 159.572,509.266 c 4.434,0 8.5,-1.565 11.684,-4.168 l 4.417,8.594 -81.6046,0 7.6716,-12.701 c 3.308,4.985 8.967,8.275 15.398,8.275 10.203,0 18.475,-8.272 18.475,-18.475 l 5.484,0 c 0,10.203 8.272,18.475 18.475,18.475"
         style="fill:#52423b;fill-opacity:1;fill-rule:nonzero;stroke:none"
         id="path44"
         inkscape:connector-curvature="0" /><path
         d="m 233.154,502.499 c 3.388,4.13 8.529,6.767 14.288,6.767 10.204,0 18.475,-8.272 18.475,-18.475 l 5.485,0 c 0,10.203 8.271,18.475 18.475,18.475 5.102,0 9.721,-2.069 13.065,-5.413 l 5.056,9.839 -81.605,0 6.761,-11.193"
         style="fill:#52423b;fill-opacity:1;fill-rule:nonzero;stroke:none"
         id="path46"
         inkscape:connector-curvature="0" /><path
         d="m 125.798,601.063 0,35.41 -27.7125,0 0,-35.422 0.2329,0.012 27.4796,0"
         style="fill:#3d302a;fill-opacity:1;fill-rule:nonzero;stroke:none"
         id="path48"
         inkscape:connector-curvature="0" /><path
         d="m 146.005,601.063 20.207,0 0,23.093 -20.207,0 0,-23.093 z"
         style="fill:#3d302a;fill-opacity:1;fill-rule:nonzero;stroke:none"
         id="path50"
         inkscape:connector-curvature="0" /><path
         d="m 235.652,636.473 55.317,0 c 1.15,0 2.083,-0.932 2.083,-2.083 l 0,-53.567 c 0,-1.151 -0.933,-2.084 -2.083,-2.084 l -55.317,0 c -1.151,0 -2.084,0.933 -2.084,2.084 l 0,53.567 c 0,1.151 0.933,2.083 2.084,2.083 z m 61.616,-68.943 0,-4.524 c 0,-0.344 -0.281,-0.625 -0.625,-0.625 l -18.379,0 c -0.344,0 -0.625,0.281 -0.625,0.625 l 0,4.524 c 0,0.343 0.281,0.625 0.625,0.625 l 18.379,0 c 0.344,0 0.625,-0.282 0.625,-0.625 z m -87.738,16.619 c 0,-0.435 -0.356,-0.791 -0.792,-0.791 l -106.957,0 c -0.435,0 -0.791,0.356 -0.791,0.791 l 0,5.73 c 0,0.436 0.356,0.792 0.791,0.792 l 106.957,0 c 0.436,0 0.792,-0.356 0.792,-0.792 l 0,-5.73 z m 1.715,16.914 -112.9266,0 -0.2329,-0.012 c -10.8613,-0.126 -19.6296,-8.959 -19.6296,-19.85 l 0,-1.788 c 0,7.504 3.823,14.111 9.6222,17.994 l 0,-70.052 c -5.7992,3.884 -9.6222,10.49 -9.6222,17.994 l 0,-1.787 c 0,-10.97 8.8925,-19.863 19.8625,-19.863 l 216.0776,0 0,125.476 -103.151,0 0,-48.112"
         style="fill:#52423b;fill-opacity:1;fill-rule:nonzero;stroke:none"
         id="path158"
         inkscape:connector-curvature="0" /><path
         d="m 233.568,580.823 c 0,-1.151 0.933,-2.084 2.084,-2.084 l 55.317,0 c 1.15,0 2.083,0.933 2.083,2.084 l 0,53.567 c 0,1.151 -0.933,2.083 -2.083,2.083 l -55.317,0 c -1.151,0 -2.084,-0.932 -2.084,-2.083 l 0,-53.567"
         style="fill:#ffffff;fill-opacity:1;fill-rule:nonzero;stroke:none"
         id="path160"
         inkscape:connector-curvature="0" /><path
         d="m 196.828,649.175 132.964,0 0,12.316 -132.964,0 0,-12.316"
         style="fill:#3d302a;fill-opacity:1;fill-rule:nonzero;stroke:none"
         id="path162"
         inkscape:connector-curvature="0" /><path
         d="m 98.3184,523.699 -10.2403,0 -28.0972,-45.032 14.0488,0 20.0387,35.025 226.4866,0 0,10.007 -222.2366,0"
         style="fill:#3d302a;fill-opacity:1;fill-rule:nonzero;stroke:none"
         id="path164"
         inkscape:connector-curvature="0" /><path
         d="m 133.881,636.473 0,25.403 -43.8783,0 0,-25.403 43.8783,0"
         style="fill:#fddf50;fill-opacity:1;fill-rule:nonzero;stroke:none"
         id="path166"
         inkscape:connector-curvature="0" /><path
         d="m 88.0781,527.355 0,70.052 c -5.7992,-3.883 -9.6222,-10.49 -9.6222,-17.994 l 0,-34.064 c 0,-7.504 3.823,-14.11 9.6222,-17.994"
         style="fill:#fddf50;fill-opacity:1;fill-rule:nonzero;stroke:none"
         id="path168"
         inkscape:connector-curvature="0" /><path
         d="m 208.738,590.671 -106.957,0 c -0.435,0 -0.791,-0.356 -0.791,-0.792 l 0,-5.73 c 0,-0.435 0.356,-0.791 0.791,-0.791 l 106.957,0 c 0.436,0 0.792,0.356 0.792,0.791 l 0,5.73 c 0,0.436 -0.356,0.792 -0.792,0.792"
         style="fill:#fddf50;fill-opacity:1;fill-rule:nonzero;stroke:none"
         id="path170"
         inkscape:connector-curvature="0" /><path
         d="m 277.639,567.53 0,-4.524 c 0,-0.344 0.281,-0.625 0.625,-0.625 l 18.379,0 c 0.344,0 0.625,0.281 0.625,0.625 l 0,4.524 c 0,0.343 -0.281,0.625 -0.625,0.625 l -18.379,0 c -0.344,0 -0.625,-0.282 -0.625,-0.625"
         style="fill:#fddf50;fill-opacity:1;fill-rule:nonzero;stroke:none"
         id="path172"
         inkscape:connector-curvature="0" /><path
         d="m 117.138,509.266 c -6.431,0 -12.09,-3.29 -15.398,-8.275 -1.9412,-2.924 -3.0771,-6.428 -3.0771,-10.2 0,-10.204 8.2711,-18.475 18.4751,-18.475 10.203,0 18.475,8.271 18.475,18.475 0,10.203 -8.272,18.475 -18.475,18.475"
         style="fill:#3d302a;fill-opacity:1;fill-rule:nonzero;stroke:none"
         id="path174"
         inkscape:connector-curvature="0" /><path
         d="m 171.256,505.098 c -3.184,2.603 -7.25,4.168 -11.684,4.168 -10.203,0 -18.475,-8.272 -18.475,-18.475 0,-10.204 8.272,-18.475 18.475,-18.475 10.204,0 18.475,8.271 18.475,18.475 0,0.919 -0.089,1.816 -0.219,2.699 -0.419,2.855 -1.475,5.501 -3.044,7.775 -0.992,1.438 -2.179,2.729 -3.528,3.833"
         style="fill:#3d302a;fill-opacity:1;fill-rule:nonzero;stroke:none"
         id="path176"
         inkscape:connector-curvature="0" /><path
         d="m 247.442,509.266 c -5.759,0 -10.9,-2.637 -14.288,-6.767 -2.43,-2.962 -3.935,-6.697 -4.14,-10.776 -0.015,-0.311 -0.047,-0.617 -0.047,-0.932 0,-3.127 0.783,-6.068 2.154,-8.649 3.103,-5.843 9.244,-9.826 16.321,-9.826 10.204,0 18.475,8.271 18.475,18.475 0,10.203 -8.271,18.475 -18.475,18.475"
         style="fill:#3d302a;fill-opacity:1;fill-rule:nonzero;stroke:none"
         id="path178"
         inkscape:connector-curvature="0" /><path
         d="m 289.877,509.266 c -10.204,0 -18.475,-8.272 -18.475,-18.475 0,-10.204 8.271,-18.475 18.475,-18.475 10.203,0 18.475,8.271 18.475,18.475 0,5.101 -2.068,9.719 -5.41,13.062 -3.344,3.344 -7.963,5.413 -13.065,5.413"
         style="fill:#3d302a;fill-opacity:1;fill-rule:nonzero;stroke:none"
         id="path180"
         inkscape:connector-curvature="0" /></g></g></svg>