<?xml version="1.0" encoding="UTF-8" standalone="no"?>
<!-- Created with Inkscape (http://www.inkscape.org/) -->

<svg
   xmlns:dc="http://purl.org/dc/elements/1.1/"
   xmlns:cc="http://creativecommons.org/ns#"
   xmlns:rdf="http://www.w3.org/1999/02/22-rdf-syntax-ns#"
   xmlns:svg="http://www.w3.org/2000/svg"
   xmlns="http://www.w3.org/2000/svg"
   xmlns:xlink="http://www.w3.org/1999/xlink"
   xmlns:sodipodi="http://sodipodi.sourceforge.net/DTD/sodipodi-0.dtd"
   xmlns:inkscape="http://www.inkscape.org/namespaces/inkscape"
   id="svg2"
   version="1.1"
   inkscape:version="0.48.4 r9939"
   width="291.30536"
   height="149.86543"
   xml:space="preserve"
   sodipodi:docname="tucano.svg"><metadata
     id="metadata8"><rdf:RDF><cc:Work
         rdf:about=""><dc:format>image/svg+xml</dc:format><dc:type
           rdf:resource="http://purl.org/dc/dcmitype/StillImage" /><dc:title /></cc:Work></rdf:RDF></metadata><defs
     id="defs6"><clipPath
       clipPathUnits="userSpaceOnUse"
       id="clipPath1062"><path
         d="m 456.715,407.231 c -1.711,-0.227 -2.915,-1.798 -2.688,-3.509 l 0,0 c 0.227,-1.711 1.798,-2.915 3.509,-2.687 l 0,0 c 1.711,0.225 2.914,1.798 2.688,3.509 l 0,0 c -0.209,1.571 -1.551,2.714 -3.094,2.715 l 0,0 c -0.137,0 -0.276,-0.009 -0.415,-0.028"
         id="path1064"
         inkscape:connector-curvature="0" /></clipPath><radialGradient
       fx="0"
       fy="0"
       cx="0"
       cy="0"
       r="1"
       gradientUnits="userSpaceOnUse"
       gradientTransform="matrix(-3.0985565,-0.4105682,0.4105682,-3.0985565,457.12695,404.13281)"
       spreadMethod="pad"
       id="radialGradient1070"><stop
         style="stop-opacity:1;stop-color:#6c86eb"
         offset="0"
         id="stop1072" /><stop
         style="stop-opacity:1;stop-color:#092185"
         offset="0.736267"
         id="stop1074" /><stop
         style="stop-opacity:1;stop-color:#030a29"
         offset="1"
         id="stop1076" /></radialGradient><clipPath
       clipPathUnits="userSpaceOnUse"
       id="clipPath1120"><path
         d="m 405.691,413.559 c -22.929,-3.039 -37.623,-9.521 -43.67,-19.268 l 0,0 c -3.619,-5.829 -4.069,-12.848 -1.341,-20.863 l 0,0 0.523,0.128 c -0.002,0.013 -0.182,1.333 1.14,3.087 l 0,0 c 2.033,2.702 7.454,6.319 21.718,8.209 l 0,0 c 1.571,0.207 3.238,0.391 4.953,0.549 l 0,0 c 13.841,1.261 24.892,0.32 33.771,-0.435 l 0,0 c 6.546,-0.558 12.2,-1.039 16.894,-0.418 l 0,0 c 2.574,0.342 4.77,0.999 6.714,2.008 l 0,0 0.041,0.022 0.033,0.034 c 0.146,0.159 3.583,3.969 3.035,11.211 l 0,0 c -0.511,6.728 0.325,11.205 2.557,13.688 l 0,0 0.032,0.032 0.018,0.042 c 0.023,0.056 0.572,1.386 -0.039,2.391 l 0,0 c -0.359,0.593 -1.031,0.933 -1.996,1.01 l 0,0 c -0.106,0.008 -5.777,0.41 -14.283,0.41 l 0,0 c -8.208,0 -19.058,-0.374 -30.1,-1.837"
         id="path1122"
         inkscape:connector-curvature="0" /></clipPath><linearGradient
       x1="0"
       y1="0"
       x2="1"
       y2="0"
       gradientUnits="userSpaceOnUse"
       gradientTransform="matrix(-95.92569,-12.715256,12.715256,-95.92569,453.70801,402.84082)"
       spreadMethod="pad"
       id="linearGradient1128"><stop
         style="stop-opacity:1;stop-color:#ffc412"
         offset="0"
         id="stop1130" /><stop
         style="stop-opacity:1;stop-color:#ff1212"
         offset="1"
         id="stop1132" /></linearGradient><clipPath
       clipPathUnits="userSpaceOnUse"
       id="clipPath1140"><path
         d="m 0,485.035 648.988,0 L 648.988,0 0,0 0,485.035 z"
         id="path1142"
         inkscape:connector-curvature="0" /></clipPath><clipPath
       clipPathUnits="userSpaceOnUse"
       id="clipPath1160"><path
         d="m 371.835,415.12 80.253,0 0,-12.264 -80.253,0 0,12.264 z"
         id="path1162"
         inkscape:connector-curvature="0" /></clipPath><clipPath
       clipPathUnits="userSpaceOnUse"
       id="clipPath1176"><path
         d="m 398.907,394.079 c -25.153,-3.333 -38.046,-9.982 -38.326,-19.766 l 0,0 -0.008,-0.007 -0.138,-0.117 0.055,-0.172 0.053,-0.168 c 0.044,-0.139 0.089,-0.28 0.137,-0.421 l 0,0 0.523,0.129 c -0.002,0.012 -0.182,1.332 1.138,3.086 l 0,0 c 2.034,2.702 7.452,6.319 21.721,8.209 l 0,0 c 1.573,0.208 3.237,0.393 4.952,0.549 l 0,0 c 13.843,1.262 24.893,0.32 33.772,-0.435 l 0,0 c 6.547,-0.558 12.199,-1.04 16.893,-0.419 l 0,0 c 2.575,0.342 4.77,0.999 6.714,2.008 l 0,0 0.041,0.023 0.033,0.034 c 0.121,0.131 2.962,3.272 3.088,9.271 l 0,0 0.007,0.265 -0.265,0.01 c -0.431,0.018 -4.741,0.182 -11.243,0.182 l 0,0 c -9.93,0.001 -24.975,-0.383 -39.147,-2.261"
         id="path1178"
         inkscape:connector-curvature="0" /></clipPath><linearGradient
       x1="0"
       y1="0"
       x2="1"
       y2="0"
       gradientUnits="userSpaceOnUse"
       gradientTransform="matrix(1.1639099,-18.757324,18.757324,1.1639099,404.39062,394.96973)"
       spreadMethod="pad"
       id="linearGradient1184"><stop
         style="stop-opacity:1;stop-color:#ffc412"
         offset="0"
         id="stop1186" /><stop
         style="stop-opacity:1;stop-color:#ff1212"
         offset="1"
         id="stop1188" /></linearGradient><clipPath
       clipPathUnits="userSpaceOnUse"
       id="clipPath1196"><path
         d="m 0,485.035 648.988,0 L 648.988,0 0,0 0,485.035 z"
         id="path1198"
         inkscape:connector-curvature="0" /></clipPath><clipPath
       clipPathUnits="userSpaceOnUse"
       id="clipPath1208"><path
         d="m 435.65,414.88 16.438,0 0,-30.346 -16.438,0 0,30.346 z"
         id="path1210"
         inkscape:connector-curvature="0" /></clipPath><linearGradient
       inkscape:collect="always"
       xlink:href="#linearGradient1128"
       id="linearGradient4828"
       gradientUnits="userSpaceOnUse"
       gradientTransform="matrix(-95.92569,-12.715256,12.715256,-95.92569,453.70801,402.84082)"
       spreadMethod="pad"
       x1="0"
       y1="0"
       x2="1"
       y2="0" /><linearGradient
       inkscape:collect="always"
       xlink:href="#linearGradient1184"
       id="linearGradient4830"
       gradientUnits="userSpaceOnUse"
       gradientTransform="matrix(1.1639099,-18.757324,18.757324,1.1639099,404.39062,394.96973)"
       spreadMethod="pad"
       x1="0"
       y1="0"
       x2="1"
       y2="0" /><filter
       inkscape:collect="always"
       id="filter5920"
       color-interpolation-filters="sRGB"><feGaussianBlur
         inkscape:collect="always"
         stdDeviation="1.778373"
         id="feGaussianBlur5922" /></filter><radialGradient
       inkscape:collect="always"
       xlink:href="#radialGradient1070"
       id="radialGradient6004"
       gradientUnits="userSpaceOnUse"
       gradientTransform="matrix(-3.0985565,-0.4105682,0.4105682,-3.0985565,457.12695,404.13281)"
       spreadMethod="pad"
       cx="0"
       cy="0"
       fx="0"
       fy="0"
       r="1" /></defs><sodipodi:namedview
     pagecolor="#ffffff"
     bordercolor="#666666"
     borderopacity="1"
     objecttolerance="10"
     gridtolerance="10"
     guidetolerance="10"
     inkscape:pageopacity="0"
     inkscape:pageshadow="2"
     inkscape:window-width="1600"
     inkscape:window-height="876"
     id="namedview4"
     showgrid="false"
     inkscape:zoom="0.83953204"
     inkscape:cx="195.49154"
     inkscape:cy="77.873296"
     inkscape:window-x="0"
     inkscape:window-y="1"
     inkscape:window-maximized="1"
     inkscape:current-layer="g10" /><g
     id="g10"
     inkscape:groupmode="layer"
     inkscape:label="FreeVector-Cartoon-Exotic-Birds"
     transform="matrix(1.25,0,0,-1.25,-288.17407,436.65626)"><g
       id="g5930"
       transform="matrix(1.0251432,0,0,1.0251432,-5.7955838,-8.7844549)"><g
         id="g5926"><path
           style="fill:#999999;fill-opacity:1;fill-rule:nonzero;stroke:#999999;stroke-width:3.90189385;stroke-linejoin:round;stroke-miterlimit:4;stroke-dasharray:none;filter:url(#filter5920)"
           d="m 412.09375,175.84375 c -1.02937,-0.0161 -2.00861,0.0481 -2.96875,0.1875 -4.93185,0.71993 -8.86953,3.1996 -11.0625,4.90625 -0.0499,-0.13087 -0.0922,-0.24971 -0.15625,-0.375 -0.52945,-1.03769 -1.41589,-1.61026 -2.625,-1.65625 -0.23921,-0.007 -25.08022,-0.58819 -50.375,6.09375 -11.52026,3.04229 -21.26395,7.10677 -28.9375,12.125 -9.36832,6.12601 -15.7802,13.74335 -19.03125,22.59375 -3.43756,9.36279 -3.37908,20.22985 0.125,32.34375 l 0.15625,0.53125 0.0625,0.25 c 0.0668,0.22941 0.14615,0.45692 0.21875,0.6875 l 1.15625,-0.5 c -0.013,-0.0809 -0.3118,-1.97779 0.96875,-4.75 0.25657,-0.55635 0.58012,-1.14579 0.96875,-1.75 0.19148,-0.2985 0.39665,-0.59874 0.625,-0.90625 2.96651,-3.99698 9.16676,-8.6569 22.0625,-12.0625 1.76212,-0.4658 3.63261,-0.91764 5.5625,-1.3125 15.58686,-3.18764 28.24729,-2.60826 38.40625,-2.15625 3.75766,0.16757 7.24321,0.31133 10.46875,0.25 0.80652,-0.0154 1.60336,-0.048 2.375,-0.0937 2.31468,-0.13706 4.47877,-0.41171 6.46875,-0.9375 2.06238,-0.54438 3.88034,-1.32954 5.53125,-2.375 -0.0474,0.49711 -0.0894,0.96453 -0.15625,1.5 -0.2359,1.88625 -0.22276,3.65125 -0.0312,5.25 0.0485,0.40008 0.11871,0.77543 0.1875,1.15625 0.006,0.0315 0.0254,0.0624 0.0312,0.0937 0.0644,0.34682 0.13964,0.70076 0.21875,1.03125 0.10511,0.43851 0.21685,0.87188 0.34375,1.28125 0.0791,0.254 0.16393,0.5074 0.25,0.75 0.65209,1.83859 1.47347,3.31047 2.25,4.46875 0.0772,0.11552 0.14295,0.23519 0.21875,0.34375 0.19917,0.28454 0.41005,0.51411 0.59375,0.75 0.12546,0.1617 0.22878,0.29871 0.34375,0.4375 0.0499,0.0603 0.0774,0.13147 0.125,0.1875 0.0887,0.1043 0.20179,0.22344 0.28125,0.3125 0.0906,0.10083 0.2051,0.23205 0.28125,0.3125 0.0627,0.066 0.13722,0.16792 0.1875,0.21875 0.0576,0.0573 0.15081,0.12145 0.1875,0.15625 l 0,0.0312 c 1.34519,7.04261 6.69718,12.40949 13.375,16.4375 4.61232,2.78182 9.87609,4.90503 14.9375,6.5625 L 422.5,292.28125 c -0.93221,-0.1425 -3.80796,-0.4925 -6.78125,-0.0625 -2.67129,0.39125 -5.45207,1.43 -6.90625,3.96875 l -0.46875,0.78125 0.8125,-0.3125 c 10e-4,10e-4 0.31382,-0.10375 0.84375,-0.25 0.52993,-0.145 1.2602,-0.32 2.0625,-0.4375 1.02337,-0.15125 2.18985,-0.2075 3.15625,0 -1.49064,0.65625 -4.43756,2.2775 -5.40625,5.25 l -0.25,0.8125 0.6875,-0.40625 c 0.003,0 0.78695,-0.47375 1.96875,-1 1.18294,-0.5275 2.75805,-1.085 4.3125,-1.3125 0.39318,-0.0562 0.77447,-0.0875 1.15625,-0.0937 -1.02909,0.985 -2.79714,3.18125 -2.40625,6.53125 0.0263,0.21 0.0817,0.43875 0.125,0.65625 l 0.125,0.65625 0.40625,-0.53125 c 0.005,-0.002 1.76718,-2.2975 3.90625,-4.6875 1.37188,-1.54517 2.93025,-3.1105 4.1875,-4.125 0.45532,-0.11193 0.98155,-0.22793 1.5625,-0.3125 1.02452,-0.15125 2.1586,-0.20625 3.125,0 -1.49064,0.65625 -4.43529,2.28125 -5.40625,5.25 l -0.25,0.8125 0.6875,-0.40625 c 10e-4,0 0.78924,-0.47375 1.96875,-1 1.18065,-0.5275 2.75805,-1.0875 4.3125,-1.3125 0.39204,-0.0575 0.80344,-0.0875 1.1875,-0.0937 -1.03022,0.985 -2.79714,3.18125 -2.40625,6.53125 0.0274,0.21 0.0505,0.4375 0.0937,0.65625 l 0.125,0.65625 0.40625,-0.53125 c 0.003,-0.005 1.79843,-2.2975 3.9375,-4.6875 2.11971,-2.38875 4.67317,-4.86875 5.90625,-5.1875 0,0 0.143,-0.0387 0.40625,-0.0937 0.26439,-0.0537 0.64521,-0.11875 1.125,-0.1875 2.20176,-0.32375 6.36429,-0.575 9.90625,1.125 l 0.34375,-0.53125 c -0.0274,-0.0163 -4.97647,-5.81875 -11.40625,-4.90625 -0.041,0.006 -0.0829,-0.007 -0.125,0 l 4.2188,-20.7189 c 9.72454,1.94459 18.94254,3.09992 26.375,3.625 2.06727,0.14375 4.0231,0.05 5.875,-0.21875 6.252,-0.91125 11.24559,-3.58625 14.375,-4.03125 0.58121,-0.085 1.09476,-0.115 1.53125,-0.0312 1.8177,0.3375 6.80366,2.64125 11.28125,4.84375 4.48786,2.20625 8.5125,4.31875 8.5,4.3125 0.003,0.001 35.79815,22.51625 41.40625,25.875 3.64454,2.1825 6.66179,2.69625 9.09375,2.34375 1.34817,-0.1975 2.52155,-0.665 3.53125,-1.25 0.27806,-0.14 0.43088,-0.49125 0.375,-0.8125 -0.082,-0.55125 -0.46126,-1.07375 -1.09375,-1.78125 -0.63706,-0.69625 -1.54169,-1.53125 -2.65625,-2.46875 -2.22797,-1.87125 -5.32764,-4.20625 -8.96875,-6.78125 C 546.09391,291.2575 536.67618,285.1125 527.9375,279.5 517.33326,272.69 508.05027,267.84375 502,264.9375 c 6.67366,1.595 11.98175,1.09375 12,1.09375 l 0.0937,-0.65625 c -7.73921,-3.67625 -11.12662,-9.21875 -12.34375,-11.75 -0.0444,-0.095 -0.0863,-0.195 -0.125,-0.28125 8.08225,5.86125 17.06862,6.86875 17.09375,6.875 l 0.15625,-0.65625 c -7.10216,-2.9 -10.3899,-7.32375 -14.90625,-12.75 -4.51179,-5.4225 -10.2364,-11.80375 -22.125,-18.375 -22.27631,-12.31875 -41.73245,-14.93625 -44.09375,-15.21875 -1.18294,-8.64125 -4.07171,-17.31875 -8,-24.125 -3.96478,-6.8675 -8.98486,-11.86625 -14.46875,-12.9375 -1.0855,-0.21125 -2.15813,-0.29641 -3.1875,-0.3125 z m 18.46875,93.84375 c 0.65211,0.18053 1.30457,0.36747 1.9375,0.53125 2.15414,0.55715 4.29853,1.05235 6.4375,1.53125 L 436,293.71875 c -0.4951,-0.0764 -1.55669,-0.20058 -2.875,-0.25 -1.90601,-1.03308 -4.31471,-1.81371 -6.96875,-1.4375 -0.0433,0.006 -0.0829,0.0238 -0.125,0.0312 l 4.53125,-22.375 z"
           transform="matrix(0.8,0,0,-0.8,0,485.035)"
           id="path4834"
           inkscape:connector-curvature="0" /><path
           id="path5924"
           transform="matrix(0.8,0,0,-0.8,0,485.035)"
           d="m 412.09375,175.84375 c -1.02937,-0.0161 -2.00861,0.0481 -2.96875,0.1875 -4.93185,0.71993 -8.86953,3.1996 -11.0625,4.90625 -0.0499,-0.13087 -0.0922,-0.24971 -0.15625,-0.375 -0.52945,-1.03769 -1.41589,-1.61026 -2.625,-1.65625 -0.23921,-0.007 -25.08022,-0.58819 -50.375,6.09375 -11.52026,3.04229 -21.26395,7.10677 -28.9375,12.125 -9.36832,6.12601 -15.7802,13.74335 -19.03125,22.59375 -3.43756,9.36279 -3.37908,20.22985 0.125,32.34375 l 0.15625,0.53125 0.0625,0.25 c 0.0668,0.22941 0.14615,0.45692 0.21875,0.6875 l 1.15625,-0.5 c -0.013,-0.0809 -0.3118,-1.97779 0.96875,-4.75 0.25657,-0.55635 0.58012,-1.14579 0.96875,-1.75 0.19148,-0.2985 0.39665,-0.59874 0.625,-0.90625 2.96651,-3.99698 9.16676,-8.6569 22.0625,-12.0625 1.76212,-0.4658 3.63261,-0.91764 5.5625,-1.3125 15.58686,-3.18764 28.24729,-2.60826 38.40625,-2.15625 3.75766,0.16757 7.24321,0.31133 10.46875,0.25 0.80652,-0.0154 1.60336,-0.048 2.375,-0.0937 2.31468,-0.13706 4.47877,-0.41171 6.46875,-0.9375 2.06238,-0.54438 3.88034,-1.32954 5.53125,-2.375 -0.0474,0.49711 -0.0894,0.96453 -0.15625,1.5 -0.2359,1.88625 -0.22276,3.65125 -0.0312,5.25 0.0485,0.40008 0.11871,0.77543 0.1875,1.15625 0.006,0.0315 0.0254,0.0624 0.0312,0.0937 0.0644,0.34682 0.13964,0.70076 0.21875,1.03125 0.10511,0.43851 0.21685,0.87188 0.34375,1.28125 0.0791,0.254 0.16393,0.5074 0.25,0.75 0.65209,1.83859 1.47347,3.31047 2.25,4.46875 0.0772,0.11552 0.14295,0.23519 0.21875,0.34375 0.19917,0.28454 0.41005,0.51411 0.59375,0.75 0.12546,0.1617 0.22878,0.29871 0.34375,0.4375 0.0499,0.0603 0.0774,0.13147 0.125,0.1875 0.0887,0.1043 0.20179,0.22344 0.28125,0.3125 0.0906,0.10083 0.2051,0.23205 0.28125,0.3125 0.0627,0.066 0.13722,0.16792 0.1875,0.21875 0.0576,0.0573 0.15081,0.12145 0.1875,0.15625 l 0,0.0312 c 1.34519,7.04261 6.69718,12.40949 13.375,16.4375 4.61232,2.78182 9.87609,4.90503 14.9375,6.5625 L 422.5,292.28125 c -0.93221,-0.1425 -3.80796,-0.4925 -6.78125,-0.0625 -2.67129,0.39125 -5.45207,1.43 -6.90625,3.96875 l -0.46875,0.78125 0.8125,-0.3125 c 10e-4,10e-4 0.31382,-0.10375 0.84375,-0.25 0.52993,-0.145 1.2602,-0.32 2.0625,-0.4375 1.02337,-0.15125 2.18985,-0.2075 3.15625,0 -1.49064,0.65625 -4.43756,2.2775 -5.40625,5.25 l -0.25,0.8125 0.6875,-0.40625 c 0.003,0 0.78695,-0.47375 1.96875,-1 1.18294,-0.5275 2.75805,-1.085 4.3125,-1.3125 0.39318,-0.0562 0.77447,-0.0875 1.15625,-0.0937 -1.02909,0.985 -2.79714,3.18125 -2.40625,6.53125 0.0263,0.21 0.0817,0.43875 0.125,0.65625 l 0.125,0.65625 0.40625,-0.53125 c 0.005,-0.002 1.76718,-2.2975 3.90625,-4.6875 1.37188,-1.54517 2.93025,-3.1105 4.1875,-4.125 0.45532,-0.11193 0.98155,-0.22793 1.5625,-0.3125 1.02452,-0.15125 2.1586,-0.20625 3.125,0 -1.49064,0.65625 -4.43529,2.28125 -5.40625,5.25 l -0.25,0.8125 0.6875,-0.40625 c 10e-4,0 0.78924,-0.47375 1.96875,-1 1.18065,-0.5275 2.75805,-1.0875 4.3125,-1.3125 0.39204,-0.0575 0.80344,-0.0875 1.1875,-0.0937 -1.03022,0.985 -2.79714,3.18125 -2.40625,6.53125 0.0274,0.21 0.0505,0.4375 0.0937,0.65625 l 0.125,0.65625 0.40625,-0.53125 c 0.003,-0.005 1.79843,-2.2975 3.9375,-4.6875 2.11971,-2.38875 4.67317,-4.86875 5.90625,-5.1875 0,0 0.143,-0.0387 0.40625,-0.0937 0.26439,-0.0537 0.64521,-0.11875 1.125,-0.1875 2.20176,-0.32375 6.36429,-0.575 9.90625,1.125 l 0.34375,-0.53125 c -0.0274,-0.0163 -4.97647,-5.81875 -11.40625,-4.90625 -0.041,0.006 -0.0829,-0.007 -0.125,0 l 4.2188,-20.7189 c 9.72454,1.94459 18.94254,3.09992 26.375,3.625 2.06727,0.14375 4.0231,0.05 5.875,-0.21875 6.252,-0.91125 11.24559,-3.58625 14.375,-4.03125 0.58121,-0.085 1.09476,-0.115 1.53125,-0.0312 1.8177,0.3375 6.80366,2.64125 11.28125,4.84375 4.48786,2.20625 8.5125,4.31875 8.5,4.3125 0.003,0.001 35.79815,22.51625 41.40625,25.875 3.64454,2.1825 6.66179,2.69625 9.09375,2.34375 1.34817,-0.1975 2.52155,-0.665 3.53125,-1.25 0.27806,-0.14 0.43088,-0.49125 0.375,-0.8125 -0.082,-0.55125 -0.46126,-1.07375 -1.09375,-1.78125 -0.63706,-0.69625 -1.54169,-1.53125 -2.65625,-2.46875 -2.22797,-1.87125 -5.32764,-4.20625 -8.96875,-6.78125 C 546.09391,291.2575 536.67618,285.1125 527.9375,279.5 517.33326,272.69 508.05027,267.84375 502,264.9375 c 6.67366,1.595 11.98175,1.09375 12,1.09375 l 0.0937,-0.65625 c -7.73921,-3.67625 -11.12662,-9.21875 -12.34375,-11.75 -0.0444,-0.095 -0.0863,-0.195 -0.125,-0.28125 8.08225,5.86125 17.06862,6.86875 17.09375,6.875 l 0.15625,-0.65625 c -7.10216,-2.9 -10.3899,-7.32375 -14.90625,-12.75 -4.51179,-5.4225 -10.2364,-11.80375 -22.125,-18.375 -22.27631,-12.31875 -41.73245,-14.93625 -44.09375,-15.21875 -1.18294,-8.64125 -4.07171,-17.31875 -8,-24.125 -3.96478,-6.8675 -8.98486,-11.86625 -14.46875,-12.9375 -1.0855,-0.21125 -2.15813,-0.29641 -3.1875,-0.3125 z m 18.46875,93.84375 c 0.65211,0.18053 1.30457,0.36747 1.9375,0.53125 2.15414,0.55715 4.29853,1.05235 6.4375,1.53125 L 436,293.71875 c -0.4951,-0.0764 -1.55669,-0.20058 -2.875,-0.25 -1.90601,-1.03308 -4.31471,-1.81371 -6.96875,-1.4375 -0.0433,0.006 -0.0829,0.0238 -0.125,0.0312 l 4.53125,-22.375 z"
           style="fill:#ffffff;fill-opacity:1;fill-rule:nonzero;stroke:#ffffff;stroke-width:3.90189385;stroke-linejoin:round;stroke-miterlimit:4;stroke-dasharray:none"
           inkscape:connector-curvature="0" /></g><g
         transform="matrix(0.91170243,0,0,1,341.08066,272.52873)"
         id="g1014"><path
           inkscape:connector-curvature="0"
           id="path1016"
           style="fill:#242424;fill-opacity:1;fill-rule:nonzero;stroke:none"
           d="m 0,0 -3.156,-21.635 c 0,0 -9.198,1.57 -12.017,-2.94 0,0 3.966,1.275 6.251,0.319 0,0 -4.27,-1.255 -5.334,-4.303 0,0 4.167,2.26 7.415,1.942 0,0 -3.347,-2.091 -2.509,-5.936 0,0 6.304,7.367 8.768,7.994 0,0 5.64,1.317 10.219,-0.684 0,0 -4.568,4.848 -10.268,3.764 L 4.331,0.783 1.107,3.862 0,0 z" /></g><g
         transform="matrix(0.91170243,0,0,1,340.48951,248.23143)"
         id="g1018"><path
           inkscape:connector-curvature="0"
           id="path1020"
           style="fill:#000000;fill-opacity:1;fill-rule:nonzero;stroke:none"
           d="M 0,0 C 0.013,0.002 0.542,0.126 1.408,0.241 3.124,0.466 6.164,0.666 9.072,-0.214 7.502,1.061 4.281,3.132 0.552,2.632 0.393,2.611 0.231,2.585 0.071,2.554 L -0.335,2.475 4.682,24.992 1.892,27.657 0.913,24.24 -2.279,2.352 -2.553,2.397 C -2.555,2.398 -3.296,2.524 -4.43,2.602 -5.565,2.678 -7.086,2.703 -8.618,2.5 -10.623,2.236 -12.621,1.578 -13.84,0.193 c 0.483,0.12 1.149,0.266 1.89,0.365 1.229,0.161 2.656,0.2 3.78,-0.267 l 0.701,-0.293 -0.728,-0.214 c 0,-0.001 -0.253,-0.075 -0.659,-0.236 -1.097,-0.427 -3.229,-1.489 -4.199,-3.233 1.008,0.476 2.997,1.314 5.014,1.583 0.63,0.083 1.264,0.112 1.876,0.051 L -5.381,-2.13 -6.05,-2.549 c 0,0 -0.173,-0.108 -0.44,-0.332 -0.803,-0.673 -2.332,-2.301 -2.041,-4.766 0.578,0.658 1.76,1.98 3.097,3.342 C -3.526,-2.375 -1.378,-0.37 0,0 m -8.497,-8.43 -0.355,-0.415 -0.114,0.533 c -0.038,0.174 -0.068,0.345 -0.091,0.513 -0.343,2.68 1.209,4.452 2.112,5.24 -0.335,-0.005 -0.68,-0.032 -1.025,-0.077 -1.364,-0.182 -2.747,-0.646 -3.785,-1.068 -1.037,-0.421 -1.721,-0.794 -1.724,-0.794 l -0.613,-0.333 0.231,0.658 c 0.85,2.378 3.42,3.665 4.728,4.19 -0.848,0.166 -1.849,0.127 -2.747,0.006 -0.704,-0.094 -1.341,-0.231 -1.806,-0.347 -0.465,-0.117 -0.754,-0.21 -0.755,-0.209 l -0.704,-0.227 0.392,0.626 c 1.276,2.031 3.72,2.857 6.064,3.17 2.609,0.344 5.136,0.049 5.954,-0.065 L 0.384,24.354 0.389,24.372 0.65,24.297 0.389,24.372 1.619,28.664 5.276,25.172 0.37,3.151 c 0.037,0.006 0.074,0.011 0.112,0.016 5.641,0.729 9.978,-3.914 10,-3.927 L 10.178,-1.193 C 7.071,0.168 3.409,-0.036 1.479,-0.294 0.635,-0.406 0.13,-0.525 0.128,-0.525 -0.953,-0.779 -3.188,-2.771 -5.049,-4.682 -6.926,-6.594 -8.493,-8.428 -8.497,-8.43" /></g><g
         transform="matrix(0.91170243,0,0,1,351.88935,271.37793)"
         id="g1022"><path
           inkscape:connector-curvature="0"
           id="path1024"
           style="fill:#242424;fill-opacity:1;fill-rule:nonzero;stroke:none"
           d="m 0,0 -3.157,-21.634 c 0,0 -9.197,1.568 -12.016,-2.941 0,0 3.966,1.275 6.252,0.32 0,0 -4.27,-1.255 -5.334,-4.303 0,0 4.164,2.26 7.413,1.94 0,0 -3.347,-2.09 -2.509,-5.935 0,0 6.305,7.367 8.769,7.994 0,0 5.641,1.316 10.22,-0.684 0,0 -4.569,4.849 -10.268,3.764 L 4.33,0.784 1.106,3.863 0,0 z" /></g><g
         transform="matrix(0.91170243,0,0,1,351.2982,247.08003)"
         id="g1026"><path
           inkscape:connector-curvature="0"
           id="path1028"
           style="fill:#000000;fill-opacity:1;fill-rule:nonzero;stroke:none"
           d="M 0,0 C 0.013,0.003 0.541,0.127 1.408,0.241 3.125,0.467 6.165,0.667 9.072,-0.213 7.504,1.06 4.281,3.133 0.553,2.632 0.392,2.611 0.23,2.586 0.07,2.554 L -0.335,2.475 4.684,24.992 1.893,27.657 0.912,24.24 -2.28,2.352 -2.553,2.398 c -0.003,0 -0.743,0.127 -1.879,0.204 -1.134,0.077 -2.655,0.102 -4.188,-0.102 -2.002,-0.263 -4,-0.92 -5.22,-2.307 0.482,0.12 1.15,0.267 1.889,0.365 1.229,0.161 2.656,0.202 3.781,-0.266 l 0.701,-0.293 -0.728,-0.215 c -0.001,-0.001 -0.253,-0.075 -0.66,-0.236 -1.096,-0.427 -3.228,-1.488 -4.198,-3.232 1.008,0.476 2.998,1.314 5.013,1.582 0.63,0.084 1.265,0.112 1.876,0.051 l 0.786,-0.077 -0.67,-0.42 c -0.001,-10e-4 -0.173,-0.107 -0.44,-0.332 -0.802,-0.674 -2.333,-2.301 -2.041,-4.766 0.578,0.658 1.759,1.98 3.097,3.343 C -3.525,-2.374 -1.377,-0.37 0,0 m -8.497,-8.43 -0.354,-0.413 -0.115,0.531 c -0.038,0.175 -0.067,0.346 -0.091,0.514 -0.343,2.68 1.208,4.452 2.112,5.24 -0.337,-0.005 -0.681,-0.032 -1.025,-0.078 -1.364,-0.18 -2.749,-0.646 -3.785,-1.068 -1.035,-0.421 -1.722,-0.793 -1.723,-0.793 l -0.613,-0.334 0.229,0.66 c 0.852,2.375 3.42,3.664 4.728,4.189 -0.848,0.165 -1.848,0.127 -2.747,0.006 -1.409,-0.187 -2.557,-0.558 -2.559,-0.558 l -0.705,-0.226 0.391,0.626 c 1.277,2.032 3.723,2.858 6.065,3.17 2.608,0.344 5.136,0.05 5.953,-0.065 L 0.385,24.355 0.389,24.373 0.648,24.298 0.389,24.373 1.618,28.665 5.275,25.172 0.37,3.151 c 0.037,0.006 0.075,0.011 0.111,0.016 5.642,0.73 9.978,-3.914 10.002,-3.927 L 10.179,-1.191 C 7.071,0.169 3.41,-0.035 1.478,-0.294 1.057,-0.349 0.719,-0.407 0.487,-0.45 0.256,-0.494 0.129,-0.524 0.129,-0.524 -0.953,-0.779 -3.189,-2.771 -5.049,-4.682 -6.926,-6.594 -8.494,-8.426 -8.497,-8.43" /></g><g
         transform="matrix(0.91170243,0,0,1,317.07991,338.73723)"
         id="g1030"><path
           inkscape:connector-curvature="0"
           id="path1032"
           style="fill:#242424;fill-opacity:1;fill-rule:nonzero;stroke:none"
           d="m 0,0 c 0,0 7.18,6.758 16.563,5.098 9.382,-1.66 17.507,-15.734 19.528,-29.619 0,0 18.008,-1.696 38.811,-12.184 20.804,-10.489 19.915,-20.223 32.511,-24.904 0,0 -8.462,0.874 -15.673,5.997 0,0 2.337,-6.677 11.48,-10.637 0,0 -8.607,-0.776 -17.09,2.998 0,0 12.773,-4.658 29.2,-14.275 16.423,-9.617 35.568,-21.279 33.151,-22.551 -2.416,-1.273 -5.884,-1.8 -10.798,0.882 -4.914,2.684 -36.355,20.698 -36.355,20.698 0,0 -14.098,6.774 -17.44,7.351 -3.343,0.579 -10.153,-3.998 -19.142,-3.42 -8.991,0.578 -20.966,2.12 -32.976,4.952 -12.011,2.831 -28.378,8.76 -30.601,19.896 0,0 -5.924,4.817 -4.77,13.225 1.155,8.409 -1.085,10.925 -2.093,11.698 0,0 -1.615,18.338 5.694,24.795" /></g><g
         transform="matrix(0.91170243,0,0,1,403.19841,271.70993)"
         id="g1034"><path
           inkscape:connector-curvature="0"
           id="path1036"
           style="fill:#000000;fill-opacity:1;fill-rule:nonzero;stroke:none"
           d="m 0,0 c -2.393,1.079 -4.356,1.908 -5.785,2.49 -0.878,0.302 -1.767,0.647 -2.653,1.041 l 0.203,0.5 C -8.234,4.029 -7.289,3.685 -5.586,2.991 -2.285,1.862 0.896,1.35 3.421,1.132 5.016,0.994 6.349,0.973 7.28,0.987 7.408,0.988 7.529,0.992 7.641,0.995 -0.757,5.03 -2.961,11.288 -2.973,11.326 l -0.28,0.801 0.691,-0.492 C 1.009,9.099 4.899,7.608 7.896,6.755 8.976,6.448 9.939,6.223 10.729,6.061 c -4.953,2.346 -7.677,5.644 -11.152,9.45 -3.948,4.322 -8.885,9.339 -19.255,14.571 -10.381,5.232 -20.063,8.272 -27.151,10.004 -3.542,0.866 -6.437,1.404 -8.443,1.727 -2.006,0.321 -3.119,0.425 -3.122,0.426 l -0.21,0.02 -0.032,0.21 c -1.004,6.904 -3.531,13.864 -6.965,19.287 -3.431,5.429 -7.769,9.3 -12.343,10.104 -1.846,0.327 -3.607,0.322 -5.243,0.105 -3.271,-0.433 -6.048,-1.717 -8.003,-2.896 -0.98,-0.589 -1.752,-1.151 -2.28,-1.564 -0.527,-0.413 -0.801,-0.673 -0.803,-0.673 l -0.186,0.195 0.18,-0.201 c -3.558,-3.129 -4.997,-9.276 -5.498,-14.643 -0.255,-2.682 -0.282,-5.166 -0.245,-6.979 0.03,-1.476 0.102,-2.501 0.127,-2.832 0.726,-0.587 1.873,-1.946 2.275,-5.02 0.224,-1.701 0.229,-3.927 -0.171,-6.854 -0.201,-1.46 -0.185,-2.81 -0.022,-4.041 0.38,-2.869 1.556,-5.106 2.64,-6.628 0.539,-0.761 1.056,-1.341 1.436,-1.729 0.381,-0.39 0.617,-0.581 0.617,-0.581 l 0.076,-0.062 0.019,-0.095 c 1.083,-5.445 5.654,-9.668 11.496,-12.88 5.835,-3.209 12.911,-5.394 18.902,-6.806 11.992,-2.828 23.956,-4.369 32.932,-4.945 1.773,-0.114 3.464,-0.025 5.059,0.186 5.399,0.713 9.695,2.834 12.606,3.227 0.547,0.072 1.048,0.083 1.506,0.004 1.748,-0.307 6.082,-2.143 10.037,-3.912 3.946,-1.767 7.471,-3.461 7.472,-3.462 0.024,-0.012 1.983,-1.134 5.007,-2.865 9.072,-5.193 27.683,-15.831 31.361,-17.839 3.122,-1.702 5.622,-2.082 7.626,-1.817 1.113,0.147 2.079,0.495 2.918,0.936 0.079,0.06 0.059,0.025 0.063,0.115 -0.011,0.166 -0.287,0.603 -0.82,1.126 -3.746,3.75 -19.002,12.994 -32.406,20.839 C 12.531,-5.928 5.24,-2.363 0,0 m 54.149,-33.287 c -0.886,-0.468 -1.916,-0.838 -3.099,-0.996 -2.134,-0.282 -4.758,0.134 -7.956,1.88 -4.921,2.687 -36.357,20.699 -36.36,20.7 0.011,-0.005 -3.504,1.682 -7.442,3.447 -3.929,1.762 -8.314,3.602 -9.909,3.872 -0.383,0.067 -0.832,0.06 -1.342,-0.008 -2.746,-0.356 -7.12,-2.497 -12.606,-3.226 -1.625,-0.215 -3.351,-0.306 -5.165,-0.191 -9.005,0.58 -20.994,2.123 -33.021,4.959 -6.019,1.42 -13.133,3.614 -19.038,6.861 -5.868,3.227 -10.574,7.508 -11.746,13.154 -0.562,0.486 -4.08,3.726 -4.812,9.221 -0.169,1.278 -0.186,2.676 0.021,4.186 0.396,2.889 0.388,5.068 0.171,6.708 -0.416,3.105 -1.556,4.269 -2.162,4.738 l -0.095,0.073 -0.011,0.117 c 0,0.011 -0.404,4.608 0.108,10.026 0.518,5.414 1.925,11.661 5.673,14.991 0.021,0.016 4.644,4.378 11.384,5.275 1.685,0.223 3.503,0.229 5.408,-0.109 4.812,-0.857 9.226,-4.852 12.705,-10.346 3.447,-5.445 5.976,-12.379 7.014,-19.292 2.072,-0.226 19.148,-2.335 38.695,-12.19 C -9.004,25.306 -3.982,20.212 -0.023,15.874 3.94,11.533 6.816,7.99 13.048,5.67 L 12.927,5.149 c -0.022,0.005 -7.918,0.815 -15.01,5.504 0.034,-0.069 0.072,-0.14 0.111,-0.216 C -0.904,8.412 2.077,3.969 8.868,1.028 L 8.785,0.511 c -0.016,0 -4.67,-0.422 -10.526,0.854 5.309,-2.325 13.442,-6.182 22.747,-11.63 7.668,-4.49 15.929,-9.425 22.318,-13.544 3.195,-2.06 5.92,-3.916 7.875,-5.413 0.978,-0.75 1.763,-1.409 2.322,-1.966 0.555,-0.566 0.902,-0.996 0.974,-1.437 0.049,-0.257 -0.102,-0.55 -0.346,-0.662" /></g><g
         transform="matrix(0.91170243,0,0,1,313.79723,302.24413)"
         id="g1038"><path
           inkscape:connector-curvature="0"
           id="path1040"
           style="fill:#f2dcb6;fill-opacity:1;fill-rule:nonzero;stroke:none"
           d="m 0,0 c 1.154,8.409 -1.085,10.925 -2.094,11.698 0,0 -1.511,17.189 5.025,24.143 0.42,0.082 1.027,0.019 1.027,0.019 0,0 6.415,2.076 11.623,-1.793 5.207,-3.868 7.42,-13.374 5.64,-20.482 C 19.558,6.945 7.061,2.311 4.55,-13.032 3.493,-12.062 -1.021,-7.437 0,0" /></g><g
         transform="matrix(0.91170243,0,0,1,318.18754,289.16893)"
         id="g1042"><path
           inkscape:connector-curvature="0"
           id="path1044"
           style="fill:#000000;fill-opacity:1;fill-rule:nonzero;stroke:none"
           d="m 0,0 c 1.246,7.603 4.955,12.54 8.586,16.432 3.624,3.896 7.199,6.702 8.081,10.163 0.667,2.663 0.78,5.644 0.396,8.548 -0.662,4.961 -2.765,9.705 -6.136,12.216 C 7.456,49.936 3.48,49.932 1.135,49.622 0.054,49.478 -0.687,49.27 -0.886,49.209 -1.034,49.222 -1.442,49.25 -1.812,49.203 -1.854,49.197 -1.895,49.189 -1.937,49.182 L -2.021,49.165 -2.082,49.102 C -8.74,41.963 -7.16,24.777 -7.179,24.75 l 0.011,-0.118 0.095,-0.073 c 0.606,-0.469 1.745,-1.632 2.162,-4.738 0.218,-1.64 0.225,-3.819 -0.171,-6.709 l 0.267,-0.036 0.268,-0.037 c 0.401,2.926 0.396,5.153 0.17,6.854 -0.401,3.075 -1.548,4.434 -2.272,5.019 -0.026,0.319 -0.092,1.277 -0.125,2.662 -0.039,1.713 -0.023,4.07 0.195,6.64 0.43,5.109 1.683,11.057 4.829,14.452 0.003,0.001 0.005,0.001 0.009,0.001 0.362,0.049 0.855,0.002 0.855,0 l 0.058,-0.005 0.054,0.017 c 0.001,-0.001 0.193,0.062 0.539,0.144 0.34,0.082 0.833,0.183 1.439,0.263 2.276,0.302 6.099,0.296 9.402,-2.161 3.198,-2.369 5.281,-6.993 5.92,-11.853 0.379,-2.841 0.265,-5.761 -0.382,-8.345 C 15.364,23.546 11.859,20.716 8.19,16.8 4.609,12.965 0.899,8.048 -0.446,0.592 c -1.117,1.132 -3.546,4.041 -4.122,8.405 -0.163,1.232 -0.18,2.581 0.021,4.042 l -0.268,0.037 -0.267,0.036 C -5.289,11.603 -5.271,10.205 -5.103,8.926 -4.422,3.805 -1.317,0.644 -0.449,-0.156 L -0.079,-0.494 0,0 z" /></g><g
         transform="matrix(0.91170243,0,0,1,330.24071,322.9688)"
         id="g1046"><path
           inkscape:connector-curvature="0"
           id="path1048"
           style="fill:#000000;fill-opacity:1;fill-rule:nonzero;stroke:none"
           d="M 0,0 C 2.323,1.588 4.047,3.62 3.774,5.797 L 3.239,5.727 C 3.495,3.919 1.969,1.986 -0.304,0.446 c -2.258,-1.54 -5.205,-2.675 -7.577,-2.988 -0.296,-0.04 -0.583,-0.066 -0.858,-0.079 -4.125,-0.195 -6.05,1.781 -6.457,2.25 -0.057,0.068 -0.08,0.098 -0.08,0.098 l -0.437,-0.316 c 0.025,-0.041 2.064,-2.809 7,-2.571 0.291,0.014 0.594,0.042 0.904,0.083 C -5.331,-2.747 -2.338,-1.589 0,0" /></g><path
         d="m 353.46245,293.71426 c 0,0 9.56194,-15.484 23.92581,-18.84 14.36205,-3.356 23.66141,-1.256 23.66141,-1.256 0,0 -19.36456,5.215 -24.98976,8.139 -5.62703,2.924 -22.59746,11.957 -22.59746,11.957"
         style="fill:#000000;fill-opacity:1;fill-rule:nonzero;stroke:none"
         id="path1094"
         inkscape:connector-curvature="0" /><path
         d="m 401.20129,273.91256 c 0,0 -31.47106,-1.376 -48.03851,20.235"
         style="fill:#242424;fill-opacity:1;fill-rule:nonzero;stroke:none"
         id="path1098"
         inkscape:connector-curvature="0" /><path
         d="m 401.19062,274.18156 c -0.005,0.001 -1.95195,-0.085 -5.15112,0.123 -3.20007,0.208 -7.64006,0.71 -12.59334,1.885 -9.91021,2.349 -21.86627,7.393 -30.09712,18.131 l -0.37562,-0.347 c 16.6878,-21.735 48.21447,-20.321 48.23635,-20.33 l 0,-10e-4 -0.0191,0.539 z"
         style="fill:#999999;fill-opacity:1;fill-rule:nonzero;stroke:#999999;stroke-width:0.9754734"
         id="path1102"
         inkscape:connector-curvature="0" /><path
         d="m 401.15415,283.36316 c 0,0 -23.58209,8.48 -28.28192,18.615"
         style="fill:#242424;fill-opacity:1;fill-rule:nonzero;stroke:none"
         id="path1106"
         inkscape:connector-curvature="0" /><path
         d="m 401.23065,283.62056 -0.15226,-0.514 c -0.0374,0.014 -5.92698,2.134 -12.40827,5.521 -6.49861,3.404 -13.59713,8.04 -16.01679,13.229 l 0.43853,0.244 c 2.27926,-4.946 9.32125,-9.617 15.78886,-12.987 3.23472,-1.689 6.32357,-3.064 8.60374,-4.015 2.28017,-0.951 3.74436,-1.478 3.74619,-1.478 m -0.15226,-0.514 0,0 z"
         style="fill:#999999;fill-opacity:1;fill-rule:nonzero;stroke:#999999;stroke-width:0.9754734"
         id="path1110"
         inkscape:connector-curvature="0" /><g
         transform="matrix(0.90958839,0.06806021,-0.06205066,0.99768122,41.363416,-20.300527)"
         id="g4792"><g
           id="g1116"
           transform="matrix(1,0,0,1.2814306,-124.66205,-191.28138)"><g
             id="g1118"
             clip-path="url(#clipPath1120)"><g
               id="g1124"><g
                 id="g1126"><path
                   d="m 405.691,413.559 c -22.929,-3.039 -37.623,-9.521 -43.67,-19.268 l 0,0 c -3.619,-5.829 -4.069,-12.848 -1.341,-20.863 l 0,0 0.523,0.128 c -0.002,0.013 -0.182,1.333 1.14,3.087 l 0,0 c 2.033,2.702 7.454,6.319 21.718,8.209 l 0,0 c 1.571,0.207 3.238,0.391 4.953,0.549 l 0,0 c 13.841,1.261 24.892,0.32 33.771,-0.435 l 0,0 c 6.546,-0.558 12.2,-1.039 16.894,-0.418 l 0,0 c 2.574,0.342 4.77,0.999 6.714,2.008 l 0,0 0.041,0.022 0.033,0.034 c 0.146,0.159 3.583,3.969 3.035,11.211 l 0,0 c -0.511,6.728 0.325,11.205 2.557,13.688 l 0,0 0.032,0.032 0.018,0.042 c 0.023,0.056 0.572,1.386 -0.039,2.391 l 0,0 c -0.359,0.593 -1.031,0.933 -1.996,1.01 l 0,0 c -0.106,0.008 -5.777,0.41 -14.283,0.41 l 0,0 c -8.208,0 -19.058,-0.374 -30.1,-1.837"
                   style="fill:url(#linearGradient4828);stroke:none"
                   id="path1134"
                   inkscape:connector-curvature="0" /></g></g></g></g><g
           id="g1136"
           transform="matrix(1,0,0,1.2814306,-124.66205,-191.28138)"><g
             id="g1138"
             clip-path="url(#clipPath1140)"><g
               id="g1144"
               transform="translate(405.6523,413.8242)"><path
                 d="m 0,0 c -10.251,-1.358 -18.995,-3.451 -25.986,-6.219 -8.535,-3.379 -14.548,-7.811 -17.876,-13.172 -3.661,-5.9 -4.12,-12.996 -1.366,-21.093 l 1.044,0.254 c -0.005,0.051 -0.153,1.257 1.118,2.924 2.02,2.647 7.391,6.195 21.51,8.066 1.569,0.207 3.232,0.392 4.943,0.548 13.818,1.259 24.855,0.319 33.721,-0.436 6.565,-0.559 12.232,-1.04 16.954,-0.415 2.605,0.346 4.831,1.011 6.803,2.035 l 0.083,0.044 0.064,0.068 c 0.151,0.163 3.665,4.057 3.105,11.415 -0.504,6.651 0.312,11.063 2.492,13.486 l 0.061,0.068 0.036,0.084 c 0.025,0.061 0.624,1.514 -0.057,2.635 C 46.242,0.963 45.5,1.346 44.444,1.431 44.235,1.447 22.512,2.983 0.004,0 0.002,0 0.001,0 0,0 M 0.075,-0.534 C 21.729,2.335 43.064,1 44.4,0.893 c 2.981,-0.241 1.808,-3.027 1.808,-3.027 -2.155,-2.395 -3.175,-6.68 -2.627,-13.887 0.546,-7.208 -2.966,-11.008 -2.966,-11.008 -2.011,-1.045 -4.204,-1.659 -6.625,-1.98 -10.912,-1.446 -26.441,3.06 -50.653,0.854 -1.763,-0.16 -3.413,-0.345 -4.963,-0.551 -24.438,-3.238 -23.091,-11.603 -23.091,-11.603 -8.972,26.357 18.155,36.246 44.792,39.775"
                 style="fill:#000000;fill-opacity:1;fill-rule:nonzero;stroke:none"
                 id="path1146"
                 inkscape:connector-curvature="0" /></g><g
               id="g1148"
               transform="translate(360.8652,375.0703)"><path
                 d="M 0,0 C 0,0 -0.153,8.349 13.884,13.338 27.917,18.328 30.415,24.647 25.13,26.532 19.845,28.417 -8.846,19.512 0,0"
                 style="fill:#000000;fill-opacity:1;fill-rule:nonzero;stroke:none"
                 id="path1150"
                 inkscape:connector-curvature="0" /></g><g
               id="g1152"
               transform="translate(385.9053,401.3486)"><path
                 d="M 0,0 C -0.736,0.267 -2.091,0.312 -3.776,0.088 -3.788,0.086 -3.802,0.085 -3.814,0.083 c -4.114,-0.543 -10.208,-2.6 -15.021,-6.137 -4.817,-3.545 -8.34,-8.518 -7.486,-14.962 0.177,-1.337 0.542,-2.74 1.128,-4.211 0.469,2.445 2.782,8.585 13.945,12.542 4.989,1.772 8.503,3.713 10.708,5.542 2.214,1.83 3.075,3.536 2.9,4.789 C 2.227,-1.352 1.458,-0.526 0,0 m -25.04,-26.278 -0.27,-0.005 0.27,0.005 z m 0.269,0.006 -0.514,-0.117 c -0.843,1.858 -1.351,3.626 -1.571,5.302 -0.89,6.697 2.797,11.873 7.702,15.468 4.911,3.603 11.056,5.678 15.267,6.237 1.752,0.229 3.163,0.209 4.068,-0.11 1.566,-0.553 2.548,-1.532 2.715,-2.791 0.197,-1.567 -0.824,-3.39 -3.091,-5.276 -2.278,-1.886 -5.842,-3.845 -10.872,-5.635 -6.974,-2.481 -10.385,-5.776 -12.067,-8.43 -0.841,-1.329 -1.249,-2.499 -1.447,-3.333 -0.1,-0.418 -0.147,-0.752 -0.168,-0.978 -0.022,-0.227 -0.019,-0.337 -0.022,-0.337"
                 style="fill:#000000;fill-opacity:1;fill-rule:nonzero;stroke:none"
                 id="path1154"
                 inkscape:connector-curvature="0" /></g><g
               id="g1156"><g
                 id="g1158" /><g
                 id="g1164"><g
                   clip-path="url(#clipPath1160)"
                   id="g1166"
                   style="opacity:0.39999402"><g
                     transform="translate(371.835,402.856)"
                     id="g1168"><path
                       d="m 0,0 c 0.03,0.125 0.067,0.248 0.103,0.372 24.518,14.859 76.014,11.658 78.115,11.489 2.98,-0.24 1.807,-3.027 1.807,-3.027 l 0,-10e-4 C 79.735,8.592 79.408,8.352 79.032,8.113 79.032,8.113 36.187,13.776 0,0"
                       style="fill:#ffffff;fill-opacity:1;fill-rule:nonzero;stroke:none"
                       id="path1170"
                       inkscape:connector-curvature="0" /></g></g></g></g></g></g><g
           id="g1172"
           transform="matrix(1,0,0,1.2814306,-124.66205,-191.28138)"><g
             id="g1174"
             clip-path="url(#clipPath1176)"><g
               id="g1180"><g
                 id="g1182"><path
                   d="m 398.907,394.079 c -25.153,-3.333 -38.046,-9.982 -38.326,-19.766 l 0,0 -0.008,-0.007 -0.138,-0.117 0.055,-0.172 0.053,-0.168 c 0.044,-0.139 0.089,-0.28 0.137,-0.421 l 0,0 0.523,0.129 c -0.002,0.012 -0.182,1.332 1.138,3.086 l 0,0 c 2.034,2.702 7.452,6.319 21.721,8.209 l 0,0 c 1.573,0.208 3.237,0.393 4.952,0.549 l 0,0 c 13.843,1.262 24.893,0.32 33.772,-0.435 l 0,0 c 6.547,-0.558 12.199,-1.04 16.893,-0.419 l 0,0 c 2.575,0.342 4.77,0.999 6.714,2.008 l 0,0 0.041,0.023 0.033,0.034 c 0.121,0.131 2.962,3.272 3.088,9.271 l 0,0 0.007,0.265 -0.265,0.01 c -0.431,0.018 -4.741,0.182 -11.243,0.182 l 0,0 c -9.93,0.001 -24.975,-0.383 -39.147,-2.261"
                   style="fill:url(#linearGradient4830);stroke:none"
                   id="path1190"
                   inkscape:connector-curvature="0" /></g></g></g></g><g
           id="g1192"
           transform="matrix(1,0,0,1.2814306,-124.66205,-191.28138)"><g
             id="g1194"
             clip-path="url(#clipPath1196)"><g
               id="g1200"
               transform="translate(398.8721,394.3467)"><path
                 d="m 0,0 c -11.249,-1.49 -20.178,-3.69 -26.537,-6.537 -7.766,-3.476 -11.808,-7.973 -12.021,-13.368 l -0.191,-0.162 0.109,-0.345 0.05,-0.156 c 0.046,-0.146 0.092,-0.291 0.143,-0.438 l 1.044,0.254 c -0.007,0.051 -0.155,1.256 1.117,2.923 2.016,2.646 7.388,6.195 21.511,8.066 1.568,0.208 3.231,0.392 4.942,0.548 13.819,1.259 24.856,0.32 33.725,-0.435 6.561,-0.559 12.228,-1.041 16.95,-0.415 2.606,0.345 4.833,1.011 6.804,2.035 l 0.083,0.043 0.063,0.069 c 0.125,0.134 3.032,3.35 3.161,9.449 L 50.964,2.06 50.436,2.082 C 49.346,2.125 23.473,3.11 0,0 m 0.071,-0.534 c 23.441,3.106 49.224,2.121 50.343,2.076 -0.126,-5.965 -3.018,-9.093 -3.018,-9.093 -2.011,-1.045 -4.205,-1.659 -6.625,-1.98 -10.914,-1.446 -26.441,3.06 -50.654,0.853 -1.76,-0.16 -3.415,-0.344 -4.963,-0.55 -24.442,-3.239 -23.091,-11.604 -23.091,-11.604 -0.067,0.197 -0.126,0.391 -0.189,0.585 0.064,0.054 0.102,0.084 0.102,0.084 0.202,11.471 18.316,17.008 38.095,19.629"
                 style="fill:#000000;fill-opacity:1;fill-rule:nonzero;stroke:none"
                 id="path1202"
                 inkscape:connector-curvature="0" /></g><g
               id="g1204"><g
                 id="g1206" /><g
                 id="g1212"><g
                   clip-path="url(#clipPath1208)"
                   id="g1214"
                   style="opacity:0.60000598"><g
                     transform="translate(441.7676,392.3447)"
                     id="g1216"><path
                       d="m 0,0 c 3.203,5.958 5.92,3.597 5.92,3.597 -4.862,6.568 -0.759,18.724 -0.759,18.724 0,0 0.064,0.077 0.176,0.215 1.651,-0.074 2.686,-0.143 2.948,-0.164 2.981,-0.24 1.808,-3.026 1.808,-3.026 C 7.938,16.951 6.918,12.665 7.466,5.458 8.012,-1.75 4.5,-5.549 4.5,-5.549 1.438,-7.141 -2.049,-7.73 -6.117,-7.811 -3.217,-6.396 -3.042,-5.658 0,0"
                       style="fill:#242424;fill-opacity:1;fill-rule:nonzero;stroke:none"
                       id="path1218"
                       inkscape:connector-curvature="0" /></g></g></g></g></g></g></g><g
         transform="matrix(1.1770441,0,0,1.3013394,317.50048,329.25173)"
         id="g1050"><path
           inkscape:connector-curvature="0"
           id="path1052"
           style="fill:#ffffff;fill-opacity:1;fill-rule:nonzero;stroke:none"
           d="m 0,0 c 0.382,-2.88 3.116,-4.894 6.106,-4.498 2.993,0.396 5.109,3.053 4.727,5.933 C 10.45,4.316 7.717,6.329 4.727,5.933 1.733,5.537 -0.382,2.88 0,0" /></g><g
         transform="matrix(1.1770441,0,0,1.3013394,329.93524,331.07348)"
         id="g1054"><path
           inkscape:connector-curvature="0"
           id="path1056"
           style="fill:#000000;fill-opacity:1;fill-rule:nonzero;stroke:none"
           d="m 0,0 c -0.365,2.725 -2.952,4.643 -5.804,4.266 -2.85,-0.378 -4.848,-2.905 -4.492,-5.631 0.365,-2.723 2.952,-4.642 5.804,-4.265 C -1.642,-5.251 0.356,-2.726 0,0 m 0.535,0.071 c 0.402,-3.037 -1.826,-5.816 -4.956,-6.237 -3.133,-0.409 -6.007,1.694 -6.41,4.73 -0.401,3.037 1.826,5.816 4.956,6.236 3.133,0.41 6.007,-1.693 6.41,-4.729" /></g><g
         transform="matrix(1.1770441,0,0,1.3013394,-214.09358,-195.56801)"
         id="g1058"><g
           clip-path="url(#clipPath1062)"
           id="g1060"><g
             id="g1066"><g
               id="g1068"><path
                 inkscape:connector-curvature="0"
                 id="path1078"
                 style="fill:url(#radialGradient6004);stroke:none"
                 d="m 456.715,407.231 c -1.711,-0.227 -2.915,-1.798 -2.688,-3.509 l 0,0 c 0.227,-1.711 1.798,-2.915 3.509,-2.687 l 0,0 c 1.711,0.225 2.914,1.798 2.688,3.509 l 0,0 c -0.209,1.571 -1.551,2.714 -3.094,2.715 l 0,0 c -0.137,0 -0.276,-0.009 -0.415,-0.028" /></g></g></g></g><path
         d="m 323.56302,332.79853 c 0.0413,-0.32967 0.32702,-0.56189 0.63647,-0.51886 0.31097,0.0447 0.52796,0.34753 0.48823,0.67719 -0.0412,0.32967 -0.32625,0.56189 -0.63647,0.51804 -0.31097,-0.0438 -0.52873,-0.34671 -0.48823,-0.67637"
         style="fill:#ffffff;fill-opacity:1;fill-rule:nonzero;stroke:none"
         id="path1090"
         inkscape:connector-curvature="0" /><path
         d="m 322.63101,330.54017 c 0.0703,-0.54971 0.54401,-0.93621 1.06129,-0.86313 0.51727,0.0723 0.88173,0.57732 0.81296,1.12703 -0.0687,0.5497 -0.54325,0.93702 -1.06128,0.86394 -0.51728,-0.0731 -0.88097,-0.57813 -0.81297,-1.12784"
         style="fill:#000000;fill-opacity:1;fill-rule:nonzero;stroke:none"
         id="path1114"
         inkscape:connector-curvature="0" /></g></g></svg>