<?xml version="1.0" encoding="UTF-8" standalone="no"?>
<svg
   xmlns:osb="http://www.openswatchbook.org/uri/2009/osb"
   xmlns:dc="http://purl.org/dc/elements/1.1/"
   xmlns:cc="http://creativecommons.org/ns#"
   xmlns:rdf="http://www.w3.org/1999/02/22-rdf-syntax-ns#"
   xmlns:svg="http://www.w3.org/2000/svg"
   xmlns="http://www.w3.org/2000/svg"
   xmlns:xlink="http://www.w3.org/1999/xlink"
   xmlns:sodipodi="http://sodipodi.sourceforge.net/DTD/sodipodi-0.dtd"
   xmlns:inkscape="http://www.inkscape.org/namespaces/inkscape"
   version="1.1"
   id="svg2"
   viewBox="0 0 108.25163 102.72658"
   height="102.72658"
   width="108.25162"
   inkscape:version="0.48.4 r9939"
   sodipodi:docname="urso.svg">
  <sodipodi:namedview
     pagecolor="#ffffff"
     bordercolor="#666666"
     borderopacity="1"
     objecttolerance="10"
     gridtolerance="10"
     guidetolerance="10"
     inkscape:pageopacity="0"
     inkscape:pageshadow="2"
     inkscape:window-width="1600"
     inkscape:window-height="876"
     id="namedview1313"
     showgrid="false"
     fit-margin-top="0"
     fit-margin-left="0"
     fit-margin-right="0"
     fit-margin-bottom="0"
     inkscape:zoom="3.0346545"
     inkscape:cx="64.049962"
     inkscape:cy="50.556404"
     inkscape:window-x="0"
     inkscape:window-y="1"
     inkscape:window-maximized="1"
     inkscape:current-layer="svg2" />
  <script
     xlink:href="C:\wamp\www\bingo\js/snap.svg-min.js"
     id="script4164" />
  <title
     id="title4162">Bingo das Letras</title>
  <defs
     id="defs4">
    <linearGradient
       osb:paint="solid"
       id="linearGradient12614">
      <stop
         id="stop12616"
         offset="0"
         style="stop-color:#000000;stop-opacity:1;" />
    </linearGradient>
    <linearGradient
       gradientTransform="matrix(-0.19399818,0,0,-0.19399818,259.22818,12173.784)"
       osb:paint="solid"
       id="linearGradient59274">
      <stop
         id="stop59276"
         offset="0"
         style="stop-color:#930033;stop-opacity:1;" />
    </linearGradient>
    <linearGradient
       id="linearGradient4269"
       osb:paint="solid"
       gradientTransform="matrix(110.20782,22.122239,-29.697412,82.096171,6261218,4265945.4)">
      <stop
         style="stop-color:#ffffff;stop-opacity:1;"
         offset="0"
         id="stop4271" />
    </linearGradient>
    <linearGradient
       id="linearGradient4251"
       osb:paint="solid"
       gradientTransform="translate(106155.96,125143.42)">
      <stop
         style="stop-color:#555555;stop-opacity:1;"
         offset="0"
         id="stop4253" />
    </linearGradient>
    <linearGradient
       id="linearGradient4241"
       osb:paint="solid"
       gradientTransform="matrix(0.19125385,0,0,0.19125385,-7105.7784,-48892.331)">
      <stop
         style="stop-color:#3fb5ae;stop-opacity:1;"
         offset="0"
         id="stop4243" />
    </linearGradient>
    <linearGradient
       id="linearGradient4231"
       osb:paint="solid"
       gradientTransform="translate(2399.1562,2075.6965)">
      <stop
         style="stop-color:#d1f2a5;stop-opacity:1;"
         offset="0"
         id="stop4233" />
    </linearGradient>
    <linearGradient
       id="linearGradient4221"
       osb:paint="solid"
       gradientTransform="matrix(0.66768435,0,0,0.66768435,-186.89148,394.64653)">
      <stop
         style="stop-color:#effab4;stop-opacity:1;"
         offset="0"
         id="stop4223" />
    </linearGradient>
    <linearGradient
       id="linearGradient4211"
       osb:paint="solid"
       gradientTransform="translate(-699.20463,883.12976)">
      <stop
         style="stop-color:#ffc48c;stop-opacity:1;"
         offset="0"
         id="stop4213" />
    </linearGradient>
    <linearGradient
       id="linearGradient4201"
       osb:paint="solid"
       gradientTransform="matrix(0.35946858,0,0,0.22423084,-331.07911,5516.4706)">
      <stop
         style="stop-color:#ff9f80;stop-opacity:1;"
         offset="0"
         id="stop4203" />
    </linearGradient>
    <linearGradient
       id="linearGradient4191"
       osb:paint="solid"
       gradientTransform="matrix(0.52321996,0,0,0.52321996,2015.4535,3072.5352)">
      <stop
         style="stop-color:#f56991;stop-opacity:1;"
         offset="0"
         id="stop4193" />
    </linearGradient>
    <style
       id="style6"
       type="text/css">
    .str0 {stroke:#006633;stroke-width:282.22}
    .str1 {stroke:#AB754F;stroke-width:282.22}
    .fil2 {fill:none}
    .fil3 {fill:#606062}
    .fil5 {fill:#CE8F64}
    .fil4 {fill:#006633}
    .fil8 {fill:#009933}
    .fil9 {fill:#00B33C}
    .fil10 {fill:#00C943}
    .fil0 {fill:#00D447}
    .fil1 {fill:#00DB49}
    .fil6 {fill:#B88059}
    .fil11 {fill:#BA8058}
    .fil12 {fill:#D49264}
    .fil7 {fill:#E49C6D}
  </style>
    <style
       id="style13042"
       type="text/css">
   
    .fil4 {fill:url(#id0)}
    .fil9 {fill:url(#id1)}
    .fil6 {fill:url(#id2)}
    .fil1 {fill:url(#id3)}
    .fil5 {fill:url(#id4)}
    .fil0 {fill:url(#id5)}
    .fil8 {fill:url(#id6)}
    .fil3 {fill:url(#id7)}
    .fil7 {fill:url(#id8)}
    .fil2 {fill:url(#id9)}
   
  </style>
    <clipPath
       id="clipPath46742"
       clipPathUnits="userSpaceOnUse">
      <path
         id="path46744"
         d="m 578.961,38.659 244.911,0 0,189.248 -244.911,0 0,-189.248 z"
         inkscape:connector-curvature="0" />
    </clipPath>
  </defs>
  <metadata
     id="metadata7">
    <rdf:RDF>
      <cc:Work
         rdf:about="">
        <dc:format>image/svg+xml</dc:format>
        <dc:type
           rdf:resource="http://purl.org/dc/dcmitype/StillImage" />
        <dc:title>Bingo das Letras</dc:title>
        <cc:license
           rdf:resource="" />
        <dc:rights>
          <cc:Agent>
            <dc:title>Copyright © 2002-2016. Portal Clickideia ® - Todos os Direitos Reservados</dc:title>
          </cc:Agent>
        </dc:rights>
        <dc:description>SVG game with snapSVG lib and other javascripts included</dc:description>
        <dc:language>pt_BR</dc:language>
        <dc:subject>
          <rdf:Bag>
            <rdf:li>Educativo</rdf:li>
            <rdf:li>ensino fundamental</rdf:li>
            <rdf:li>clickiéia</rdf:li>
            <rdf:li>letras</rdf:li>
            <rdf:li>lingua portuguesa</rdf:li>
            <rdf:li>infantil</rdf:li>
            <rdf:li>educational game</rdf:li>
            <rdf:li>game design</rdf:li>
            <rdf:li>multimidia</rdf:li>
          </rdf:Bag>
        </dc:subject>
        <dc:creator>
          <cc:Agent>
            <dc:title>http://www.clickideia.com.br/</dc:title>
          </cc:Agent>
        </dc:creator>
        <dc:publisher>
          <cc:Agent>
            <dc:title>http://www.clickideia.com.br/</dc:title>
          </cc:Agent>
        </dc:publisher>
        <dc:date>18/01/2016</dc:date>
        <dc:contributor>
          <cc:Agent>
            <dc:title>michel morandi - michel.morandi@clickideia.com.br</dc:title>
          </cc:Agent>
        </dc:contributor>
      </cc:Work>
    </rdf:RDF>
  </metadata>
  <g
     id="g46738"
     transform="matrix(0.58743027,0,0,-0.58743027,-363.23839,129.23814)">
    <g
       id="g46740"
       clip-path="url(#clipPath46742)">
      <g
         id="g46746"
         transform="translate(800.9805,77.9463)">
        <path
           inkscape:connector-curvature="0"
           d="m 0,0 c -1.527,2.215 -4.354,2.931 -7.729,2.101 -0.588,5.202 -3.46,19.324 -17.198,31.216 -0.208,3.161 -1.212,15.704 -4.245,24.752 2.267,2.228 7.809,9.023 8.261,22.554 0.015,0.45 0.02,0.897 0.02,1.333 0,12.831 -6.235,20.3 -8.828,22.849 0.298,0.772 0.547,1.768 0.547,3.247 0,0.2 -0.003,0.404 -0.012,0.619 l -0.105,2.539 -1.954,-1.148 c -0.041,-0.026 -0.74,-0.416 -1.796,-0.402 0.388,0.877 0.698,1.962 0.698,3.2 0,0.564 -0.064,1.156 -0.215,1.775 l -0.628,2.592 -1.691,-1.833 c -0.016,-0.018 -1.142,-1.147 -2.722,-1.591 0.052,0.146 1.053,3.225 1.053,3.225 l -2.445,-0.493 c -1.327,-0.268 -3.648,-0.28 -4.405,0.544 -0.597,0.649 -1.24,2.621 -1.756,4.206 -0.525,1.61 -0.998,3.052 -1.62,4.041 0.18,1.064 0.315,2.256 0.315,3.58 0,4.527 -1.368,9.955 -6.402,12.046 -5.464,2.272 -8.266,-2.184 -10.31,-5.436 -1.162,-1.851 -2.259,-3.593 -3.435,-3.652 -3.93,-0.188 -6.339,-0.779 -8.523,-1.648 -1.668,4.321 -5.502,10.027 -11.151,7.962 -2.802,-1.028 -4.975,-3.117 -6.278,-6.045 -0.958,-2.151 -1.439,-4.717 -1.439,-7.482 0,-1.798 0.26,-3.686 0.672,-5.586 -4.765,-3.044 -27.042,-17.798 -43.219,-37.659 -16.546,-20.315 -26.776,-37.453 -32.195,-53.931 -2.614,-7.938 -3.901,-14.768 -3.901,-21.175 0,-4.149 0.573,-8.117 1.644,-12.095 -1.721,-0.477 -4.832,-1.054 -7.524,0.034 -1.088,0.439 -2.149,0.141 -2.839,-0.795 -1.105,-1.504 -0.996,-4.355 0.287,-7.265 1.391,-3.164 7.387,-13.223 26.141,-11.355 1.629,-1.264 7.818,-5.443 16.364,-3.783 1.526,-0.728 7.49,-3.267 14.841,-2.289 6.219,0.825 9.975,3.305 11.597,4.625 1.082,-0.801 3.021,-1.858 5.755,-1.872 1.299,-0.528 8.817,-3.403 15.063,-2.349 0.494,-0.664 1.221,-1.359 2.163,-1.254 0.433,0.046 0.964,0.295 1.415,0.96 0.26,-0.481 0.601,-0.869 1.068,-1.041 0.743,-0.271 1.513,-0.021 2.125,0.314 0.99,-0.595 2.518,-0.828 4.413,0.464 0.934,0.634 1.593,1.34 2.09,2.025 0.023,-0.039 0.024,-0.083 0.051,-0.117 0.319,-0.422 1.048,-1.087 2.349,-0.806 2.101,0.457 3.985,1.98 4.218,2.172 0.046,-0.082 0.086,-0.135 0.15,-0.274 0.646,-1.423 1.718,-2.273 3.018,-2.396 1.341,-0.127 2.772,0.601 3.737,1.798 0.023,-0.059 0.036,-0.073 0.061,-0.143 0.355,-0.975 1.096,-1.699 2.041,-1.99 1.139,-0.351 2.376,-0.019 3.401,0.906 0.923,0.833 4.411,1.839 6.623,2.078 l 1.044,0.079 c 2.41,0.162 5.919,0.427 7.102,2.992 0.849,0.584 3.041,2.18 5.118,4.402 1.397,-1.619 4.159,-3.867 8.505,-3.339 5.124,0.622 10.722,0.856 14.261,0.598 2.804,-0.203 9.917,0.519 15.397,11.603 C 2.348,-5.124 1.062,-1.542 0,0"
           style="fill:#1a1a1a;fill-opacity:1;fill-rule:nonzero;stroke:#333333"
           id="path46748" />
      </g>
      <g
         id="g46750"
         transform="translate(741.166,206.1406)">
        <path
           inkscape:connector-curvature="0"
           d="m 0,0 c 0,0 -9.695,1.678 -16.498,-2.116 0,0 -2.543,9.87 -8.554,9.892 -6.011,0.023 -7.907,-11.322 -4.719,-17.919 3.185,-6.595 -5.257,-10.269 -7.257,-10.124 0,0 1.602,-0.946 3.504,-0.669 0,0 -3.017,-3.516 -7.914,-2.469 0,0 2.858,-1.729 4.531,-1.298 0,0 -3.648,-4.3 -6.488,-4.508 0,0 -2.087,-10.501 -7.108,-11.794 0,0 0.401,-32.542 27.575,-35.903 0,0 -4.222,7.085 3.369,16.908 7.593,9.824 10.828,10.833 12.633,13.746 0,0 -3.273,-1.699 -6.417,1.298 -3.138,2.994 -2.587,11.255 1.155,17.345 3.742,6.093 7.405,6.24 9.814,0.532 2.407,-5.71 0.945,-15.563 -5.638,-21.863 -6.58,-6.3 -14.1,-12.532 -14.972,-20.076 -0.87,-7.547 4.08,-14.273 14.032,-15.55 9.952,-1.278 14.385,0.059 20.497,1.965 6.115,1.908 9.943,3.011 14.067,9.631 4.122,6.615 7.003,18.718 1.564,22.852 0,0 -2.874,-5.327 -6.149,-7.026 0,0 1.958,-12.041 -2.105,-19.765 0,0 3.48,12.335 0.542,19.187 0,0 -10.5,-2.416 -15.554,4.595 0,0 -1.521,0.247 -4.623,-2.711 -3.103,-2.953 -11.997,-6.181 -13.734,-14.492 -1.736,-8.314 0.437,-9.579 0.437,-9.579 0,0 -2.431,0.87 -1.728,7.459 0.704,6.591 3.925,9.536 7.241,12.062 3.313,2.525 7.117,5.291 8.603,6.706 1.491,1.413 3.385,1.551 3.385,1.551 0,0 -0.598,6.546 6.148,9.237 0,0 -6.289,-0.787 -8.003,9.16 -1.714,9.947 2.262,13.808 2.262,13.808 0,0 2.951,2.277 6.965,-4.243 4.019,-6.518 3.032,-16.267 0.566,-18.303 0,0 13.298,4.014 15.79,-6.821 0,0 8.368,-2.268 1.54,-19.896 0,0 7.058,6.403 7.464,22.975 0.404,16.572 -9.423,22.407 -9.423,22.407 0,0 1.458,0.863 1.326,2.811 0,0 -3.676,-0.426 -5.338,1.633 0,0 1.358,1.145 1.579,3.066 0,0 -2.451,-1.759 -5.461,-0.71 l 0.71,2.302 c 0,0 -4.256,-0.245 -6.232,2.528 -1.975,2.773 -1.912,8.439 -5.098,10.609 0,0 1.007,1.171 2.371,0.244 0,0 0.82,8.794 -4.239,11.236 -5.056,2.445 -9.029,-8.057 -9.029,-8.057 0,0 2.464,-0.181 2.611,-1.853"
           style="fill:#fdd3b4;fill-opacity:1;fill-rule:nonzero;stroke:none"
           id="path46752" />
      </g>
      <g
         id="g46754"
         transform="translate(738.5566,174.6514)">
        <path
           inkscape:connector-curvature="0"
           d="m 0,0 c 0,0 -0.068,7.612 -3.936,8.034 -3.867,0.422 -8.473,-10.865 -7.663,-15.628 0.81,-4.762 3.285,-7.018 5.647,-6.913 2.362,0.105 4.349,4.25 4.349,4.25 0,0 -3.984,0.427 -3.458,5.922 C -4.534,1.16 0,0 0,0"
           style="fill:#ffffff;fill-opacity:1;fill-rule:nonzero;stroke:none"
           id="path46756" />
      </g>
      <g
         id="g46758"
         transform="translate(738.3682,171.0684)">
        <path
           inkscape:connector-curvature="0"
           d="m 0,0 c -0.066,-1.218 -0.643,-2.168 -1.291,-2.12 -0.647,0.048 -1.12,1.074 -1.058,2.291 0.064,1.217 0.641,2.167 1.291,2.12 C -0.406,2.243 0.064,1.218 0,0"
           style="fill:#ffffff;fill-opacity:1;fill-rule:nonzero;stroke:none"
           id="path46760" />
      </g>
      <g
         id="g46762"
         transform="translate(743.2109,175.6953)">
        <path
           inkscape:connector-curvature="0"
           d="m 0,0 c 0,0 -0.707,8.906 2.521,9.777 3.23,0.871 8.583,-9.339 7.998,-15.938 -0.583,-6.597 -5.223,-5.154 -7.601,-3.32 0,0 2.552,1.473 2.117,6.623 C 4.6,2.295 1.255,1.432 0,0"
           style="fill:#ffffff;fill-opacity:1;fill-rule:nonzero;stroke:none"
           id="path46764" />
      </g>
      <g
         id="g46766"
         transform="translate(746.5635,172.2002)">
        <path
           inkscape:connector-curvature="0"
           d="m 0,0 c -0.047,-0.875 -0.479,-1.556 -0.968,-1.519 -0.485,0.035 -0.843,0.773 -0.796,1.647 0.047,0.875 0.48,1.558 0.967,1.521 C -0.313,1.613 0.044,0.877 0,0"
           style="fill:#ffffff;fill-opacity:1;fill-rule:nonzero;stroke:none"
           id="path46768" />
      </g>
      <g
         id="g46770"
         transform="translate(756.584,153.8906)">
        <path
           inkscape:connector-curvature="0"
           d="m 0,0 c -0.126,-1.289 -1.848,-2.117 -3.848,-1.852 -2.002,0.265 -3.526,1.526 -3.4,2.812 0.123,1.289 1.702,0.608 3.703,0.344 C -1.544,1.038 0.124,1.286 0,0"
           style="fill:#ffffff;fill-opacity:1;fill-rule:nonzero;stroke:none"
           id="path46772" />
      </g>
      <g
         id="g46774"
         transform="translate(760.8438,155.2773)">
        <path
           inkscape:connector-curvature="0"
           d="m 0,0 c 0.187,-0.921 -0.422,-1.88 -1.358,-2.139 -0.938,-0.26 -1.849,0.268 -2.037,1.189 -0.185,0.918 0.642,0.799 1.58,1.061 C -0.883,0.374 -0.188,0.918 0,0"
           style="fill:#ffffff;fill-opacity:1;fill-rule:nonzero;stroke:none"
           id="path46776" />
      </g>
      <g
         id="g46778"
         transform="translate(737.3262,189.2666)">
        <path
           inkscape:connector-curvature="0"
           d="m 0,0 c 0,0 -4.06,3.479 -6.156,-2.733 -2.097,-6.212 -3.438,-11.51 -5.947,-14.371 0,0 2.363,4.533 3.863,10.65 C -6.736,-0.339 -4.052,3.615 0,0"
           style="fill:#743f2f;fill-opacity:1;fill-rule:nonzero;stroke:none"
           id="path46780" />
      </g>
      <g
         id="g46782"
         transform="translate(744.1719,193.8887)">
        <path
           inkscape:connector-curvature="0"
           d="m 0,0 c 0,0 3.634,-0.404 4.743,-3.943 1.11,-3.54 2.799,-5.047 4.693,-4.908 0,0 -2.465,0.18 -3.665,4.278 C 4.573,-0.472 1.447,0.586 0,0"
           style="fill:#743f2f;fill-opacity:1;fill-rule:nonzero;stroke:none"
           id="path46784" />
      </g>
      <g
         id="g46786"
         transform="translate(709.2109,194.8662)">
        <path
           inkscape:connector-curvature="0"
           d="m 0,0 c 0,0 -26.698,-17.423 -42.201,-37.14 -15.504,-19.716 -25.665,-36.5 -31.355,-51.947 0,0 12.352,22.524 24.65,8.349 0,0 -1.867,12.31 1.468,21.845 0,0 -2.639,-14.197 0.475,-23.649 0,0 15.08,-18.065 12.721,-41.872 0,0 7.024,5.02 13.779,-1.005 6.754,-6.026 3.52,-12.202 1.223,-13.28 0,0 0.036,-1.524 -0.486,-2.456 0,0 3.283,-2.589 5.661,0.007 2.377,2.592 9.263,12.467 16.163,11.412 0,0 -13.116,28.345 -5.618,67.646 0,0 -15.553,4.591 -16.525,33.021 0,0 5.558,0.286 7.976,12.563 0,0 2.802,-0.483 5.053,1.983 0,0 -3.377,0.799 -4.198,3.071 0,0 5.277,-0.522 6.313,1.203 0,0 -1.411,0.102 -1.787,1.928 0,0 6.284,0.649 8.162,4.94 C 3.352,0.907 0,0 0,0"
           style="fill:#fcc6a1;fill-opacity:1;fill-rule:nonzero;stroke:none"
           id="path46788" />
      </g>
      <g
         id="g46790"
         transform="translate(632.3428,69.9102)">
        <path
           inkscape:connector-curvature="0"
           d="m 0,0 c 0,0 6.508,-10.711 12.903,-14.633 0,0 -10.445,-1.318 -17.604,3.772 -7.008,4.978 -5.963,9.841 -5.963,9.841 0,0 5.683,-1.797 10.664,1.02"
           style="fill:#fab27e;fill-opacity:1;fill-rule:nonzero;stroke:none"
           id="path46792" />
      </g>
      <g
         id="g46794"
         transform="translate(673.5898,69.6738)">
        <path
           inkscape:connector-curvature="0"
           d="m 0,0 c 0,0 1.748,17.443 -6.402,32.702 -8.154,15.26 -14.231,16.256 -19.183,13.986 -4.955,-2.266 -14.56,-12.219 -16.081,-25.392 -1.522,-13.168 0.905,-23.029 10.01,-31.441 9.102,-8.412 17.63,-7.648 17.63,-7.648 0,0 -0.528,12.353 14.026,17.793"
           style="fill:#fdd3b4;fill-opacity:1;fill-rule:nonzero;stroke:none"
           id="path46796" />
      </g>
      <g
         id="g46798"
         transform="translate(676.7842,63.2168)">
        <path
           inkscape:connector-curvature="0"
           d="m 0,0 c -1.357,1.491 -6.736,4.087 -11.088,-0.161 -4.352,-4.249 -6.837,-11.123 -3.159,-10.7 3.677,0.424 10.331,3.673 13.061,4.03 C 1.547,-6.477 5.127,-5.633 0,0"
           style="fill:#fee1c4;fill-opacity:1;fill-rule:nonzero;stroke:none"
           id="path46800" />
      </g>
      <g
         id="g46802"
         transform="translate(686.3125,65.0146)">
        <path
           inkscape:connector-curvature="0"
           d="m 0,0 c -1.748,2.616 -7.137,5.499 -11.717,3.618 -4.578,-1.879 -1.201,-2.68 1.002,-3.392 2.201,-0.714 5.82,-3.608 4.772,-7.821 0,0 4.64,-1.444 6.4,0.642 C 2.219,-4.868 1.233,-1.853 0,0"
           style="fill:#fee1c4;fill-opacity:1;fill-rule:nonzero;stroke:none"
           id="path46804" />
      </g>
      <g
         id="g46806"
         transform="translate(687.3203,57.3311)">
        <path
           inkscape:connector-curvature="0"
           d="m 0,0 c 0,0 5.341,5.143 -5.105,12.682 0,0 2.518,0.786 5.579,-1.511 C 3.535,8.871 4.747,5.048 4.521,2.99 4.294,0.933 3.023,-0.773 0,0"
           style="fill:#fee1c4;fill-opacity:1;fill-rule:nonzero;stroke:none"
           id="path46808" />
      </g>
      <g
         id="g46810"
         transform="translate(688.3262,56.2891)">
        <path
           inkscape:connector-curvature="0"
           d="m 0,0 c 0,0 -1.379,0.653 -2.708,0.058 -1.327,-0.595 -4.366,-0.099 -5.423,-0.02 -1.057,0.077 -4.17,-0.804 -5.849,-1.372 -1.682,-0.568 -4.491,-2.441 -6.862,-2.682 -2.372,-0.244 -1.174,-2.13 3.275,-2.728 4.447,-0.604 3.361,3.349 7.762,4.137 4.403,0.788 4.701,-2.556 4.701,-2.556 0,0 6.45,1.604 5.104,5.163"
           style="fill:#c67a3b;fill-opacity:1;fill-rule:nonzero;stroke:none"
           id="path46812" />
      </g>
      <g
         id="g46814"
         transform="translate(681.4004,52.3662)">
        <path
           inkscape:connector-curvature="0"
           d="M 0,0 C -0.614,0.495 -2.665,0.886 -4.765,-0.9 -6.863,-2.682 -3.442,-2.655 -0.946,-2.28 1.548,-1.912 0.564,-0.458 0,0"
           style="fill:#fee1c4;fill-opacity:1;fill-rule:nonzero;stroke:none"
           id="path46816" />
      </g>
      <g
         id="g46818"
         transform="translate(717.3809,61.7822)">
        <path
           inkscape:connector-curvature="0"
           d="m 0,0 c -1.284,0.749 -5.558,4.14 -12.001,0.457 -6.442,-3.68 -7.782,-8.978 -9.456,-9.409 -1.674,-0.433 1.322,-1.756 6.671,-3.115 5.351,-1.359 6.416,0.917 8.257,0.088 1.843,-0.826 -1.608,5.239 -6.563,7.397 -4.956,2.161 5.645,-0.272 7.613,-5.397 1.968,-5.122 5.272,-0.66 4.448,1.615 -0.824,2.274 -2.203,5.141 -5.162,7.152 -2.958,2.017 5.688,-1.657 6.116,-6.946 0.428,-5.289 2.73,-4.073 3.465,-1.36 C 4.121,-6.803 2.974,-1.739 0,0"
           style="fill:#fee1c4;fill-opacity:1;fill-rule:nonzero;stroke:none"
           id="path46820" />
      </g>
      <g
         id="g46822"
         transform="translate(717.7402,49.8115)">
        <path
           inkscape:connector-curvature="0"
           d="m 0,0 c -0.319,0.454 -1.146,-2.452 0.565,-2.073 1.716,0.384 1.656,1.826 1.043,1.786 C 0.998,-0.325 0.315,-0.446 0,0"
           style="fill:#fce68e;fill-opacity:1;fill-rule:nonzero;stroke:none"
           id="path46824" />
      </g>
      <g
         id="g46826"
         transform="translate(745.9004,62.332)">
        <path
           inkscape:connector-curvature="0"
           d="m 0,0 c -1.122,1.099 -9.511,5.95 -15.596,2.334 -6.084,-3.614 -5.802,-10.184 -3.929,-11.886 1.875,-1.706 3.534,-0.076 3.41,2.058 -0.122,2.129 0.283,5.42 3.357,7.042 3.073,1.619 -1.2,-0.467 -1.956,-2.81 -0.753,-2.346 -1.09,-5.824 1.265,-7.286 2.36,-1.463 4.144,1.081 5.768,3.544 1.624,2.465 3.938,4.602 5.812,4.373 1.875,-0.228 -2.006,0.701 -4.492,-3.175 -2.483,-3.879 -0.941,-5.927 1.423,-5.821 2.362,0.102 5.505,1.53 7.554,1.659 2.049,0.129 3.749,-0.457 4.772,1.039 1.02,1.492 -0.012,1.29 -1.565,3.155 C 4.271,-3.907 0,0 0,0"
           style="fill:#fee1c4;fill-opacity:1;fill-rule:nonzero;stroke:none"
           id="path46828" />
      </g>
      <g
         id="g46830"
         transform="translate(726.707,51.6494)">
        <path
           inkscape:connector-curvature="0"
           d="M 0,0 C -0.234,0.081 -0.986,0.624 -1.439,1.025 -1.888,1.427 -2.365,-0.198 -1.866,-1.155 -1.368,-2.116 1.312,-0.466 0,0"
           style="fill:#fce68e;fill-opacity:1;fill-rule:nonzero;stroke:none"
           id="path46832" />
      </g>
      <g
         id="g46834"
         transform="translate(734.377,50.9951)">
        <path
           inkscape:connector-curvature="0"
           d="M 0,0 C 0,0 -1.973,-0.131 -2.633,0.748 -3.292,1.624 -2.197,-1.407 -1.096,-1.396 0.004,-1.382 0,0 0,0"
           style="fill:#fce68e;fill-opacity:1;fill-rule:nonzero;stroke:none"
           id="path46836" />
      </g>
      <g
         id="g46838"
         transform="translate(740.1563,50.2988)">
        <path
           inkscape:connector-curvature="0"
           d="M 0,0 C -0.317,-0.068 -1.092,0.173 -1.46,0.659 -1.828,1.146 -1.705,-0.98 -0.853,-1.228 0,-1.475 0,0 0,0"
           style="fill:#fce68e;fill-opacity:1;fill-rule:nonzero;stroke:none"
           id="path46840" />
      </g>
      <g
         id="g46842"
         transform="translate(757.4648,120.5195)">
        <path
           inkscape:connector-curvature="0"
           d="m 0,0 c 0,0 3.183,-29.008 -27.121,-43.219 0,0 1.319,4.144 -0.736,6.879 0,0 2.322,-9.579 -6.454,-15.028 0,0 4.61,0.958 6.38,4.704 0,0 0.979,-5.236 -0.144,-8.659 0,0 -7.241,-3.161 -4.859,-11.638 0,0 -0.252,-0.257 -0.457,-1.168 l -1.333,0.007 c 0,0 0.894,9.526 -9.857,12.802 0,0 -12.357,27.83 -5.972,63.888 0,0 5.532,-17.972 22.357,-20.859 16.822,-2.884 22.63,13.295 28.779,15.892 6.149,2.595 9.445,6.92 10.954,10.959 0,0 16.532,-48.519 -14.105,-79.49 0,0 -11.347,15.077 -24.313,10.627 0,0 0.862,2.979 0.106,8.705 0,0 29.849,13.092 26.775,45.598"
           style="fill:#fcc6a1;fill-opacity:1;fill-rule:nonzero;stroke:none"
           id="path46844" />
      </g>
      <g
         id="g46846"
         transform="translate(710.0684,126.3672)">
        <path
           inkscape:connector-curvature="0"
           d="m 0,0 c 0,0 6.192,-14.423 18.449,-16.698 12.261,-2.277 21.298,10.344 25.429,12.673 0,0 -6.061,-3.157 -9.348,-5.128 C 31.241,-11.128 15.381,-14.539 0,0"
           style="fill:#ffffff;fill-opacity:1;fill-rule:nonzero;stroke:none"
           id="path46848" />
      </g>
      <g
         id="g46850"
         transform="translate(708.7607,130.6133)">
        <path
           inkscape:connector-curvature="0"
           d="m 0,0 c 0,0 12.07,-12.499 22.039,-13.502 9.968,-1.001 17.304,3.996 17.304,3.996 0,0 -20.342,-5.711 -28.82,5.697 0,0 -4.929,0.36 -10.523,3.809"
           style="fill:#fab27e;fill-opacity:1;fill-rule:nonzero;stroke:none"
           id="path46852" />
      </g>
      <g
         id="g46854"
         transform="translate(790.5928,77.4785)">
        <path
           inkscape:connector-curvature="0"
           d="m 0,0 c 0,0 0.332,17.406 -15.774,31.583 0,0 2.449,-27.248 -12.33,-48.123 0,0 2.208,-2.835 4.671,-3.753 0,0 -1.736,2.804 5.304,11.051 7.036,8.252 11.694,7.172 11.694,7.172 0,0 4.143,2.559 6.435,2.07"
           style="fill:#fdd3b4;fill-opacity:1;fill-rule:nonzero;stroke:none"
           id="path46856" />
      </g>
      <g
         id="g46858"
         transform="translate(783.7236,74.6582)">
        <path
           inkscape:connector-curvature="0"
           d="m 0,0 c -0.832,-0.244 -5.193,-0.176 -10.733,-6.829 -5.541,-6.653 -2.414,-7.709 -0.146,-7.181 2.268,0.526 7.758,4 11.631,3.716 C 4.63,-10.576 4.55,1.329 0,0"
           style="fill:#fee1c4;fill-opacity:1;fill-rule:nonzero;stroke:none"
           id="path46860" />
      </g>
      <g
         id="g46862"
         transform="translate(791.1152,76.1943)">
        <path
           inkscape:connector-curvature="0"
           d="m 0,0 c 0,0 -2.092,0.567 -5.129,-1.148 0,0 2.018,-1.948 1.938,-5.676 -0.079,-3.729 1.243,-3.272 2.666,-3.099 C 0.898,-9.749 5.015,-3.271 0,0"
           style="fill:#fee1c4;fill-opacity:1;fill-rule:nonzero;stroke:none"
           id="path46864" />
      </g>
      <g
         id="g46866"
         transform="translate(796.2383,77.2051)">
        <path
           inkscape:connector-curvature="0"
           d="m 0,0 c -1.779,0.319 -4.844,-0.202 -4.169,-0.803 0.675,-0.603 3.503,-2.885 2.352,-6.811 -1.152,-3.931 3.663,-2.068 4.91,1.44 C 4.34,-2.669 1.284,-0.232 0,0"
           style="fill:#fee1c4;fill-opacity:1;fill-rule:nonzero;stroke:none"
           id="path46868" />
      </g>
      <g
         id="g46870"
         transform="translate(796.6016,66.248)">
        <path
           inkscape:connector-curvature="0"
           d="m 0,0 c -0.942,1.253 -2.054,-0.956 -2.958,-0.198 -0.901,0.757 -2.181,-1.087 -4.418,-1.063 -2.238,0.025 -2.868,-0.76 -4.212,-1.632 -1.341,-0.867 -5.313,-0.164 -8.132,-2.172 -2.817,-2.01 -5.277,-1.693 -6.831,-2.13 -1.556,-0.444 -0.303,-3.438 6.465,-2.549 6.769,0.891 8.354,-0.329 11.84,0.937 C -4.76,-7.539 1.762,-2.341 0,0"
           style="fill:#c67a3b;fill-opacity:1;fill-rule:nonzero;stroke:none"
           id="path46872" />
      </g>
      <g
         id="g46874"
         transform="translate(730.6611,121.7725)">
        <path
           inkscape:connector-curvature="0"
           d="m 0,0 c 0.541,-0.107 1.095,-0.203 1.668,-0.277 9.95,-1.278 14.385,0.059 20.497,1.965 6.115,1.909 9.945,3.011 14.065,9.629 4.121,6.611 6.998,18.694 1.578,22.837 -0.006,0.002 -0.012,0.006 -0.017,0.008 -0.034,-0.065 -2.894,-5.328 -6.146,-7.016 0,0 1.956,-12.042 -2.108,-19.769 0,0 3.484,12.337 0.545,19.19 0,0 -10.5,-2.417 -15.553,4.592 0,0 -1.52,0.249 -4.624,-2.706 C 6.802,25.497 -2.092,22.27 -3.828,13.959 -4.69,9.84 -4.588,7.457 -4.27,6.093 c 0.138,-0.429 0.294,-0.837 0.463,-1.224 0.224,-0.371 0.414,-0.49 0.414,-0.49 0,0 -0.101,0.041 -0.253,0.15 C -2.271,1.654 -0.183,0.131 0,0"
           style="fill:#ffffff;fill-opacity:1;fill-rule:nonzero;stroke:none"
           id="path46876" />
      </g>
    </g>
  </g>
</svg>
