<?xml version="1.0" encoding="UTF-8" standalone="no"?>
<!-- Created with Inkscape (http://www.inkscape.org/) -->

<svg
   xmlns:dc="http://purl.org/dc/elements/1.1/"
   xmlns:cc="http://creativecommons.org/ns#"
   xmlns:rdf="http://www.w3.org/1999/02/22-rdf-syntax-ns#"
   xmlns:svg="http://www.w3.org/2000/svg"
   xmlns="http://www.w3.org/2000/svg"
   xmlns:sodipodi="http://sodipodi.sourceforge.net/DTD/sodipodi-0.dtd"
   xmlns:inkscape="http://www.inkscape.org/namespaces/inkscape"
   id="svg2"
   version="1.1"
   inkscape:version="0.48.4 r9939"
   width="162.75446"
   height="125.22164"
   xml:space="preserve"
   sodipodi:docname="vaca.svg"><metadata
     id="metadata8"><rdf:RDF><cc:Work
         rdf:about=""><dc:format>image/svg+xml</dc:format><dc:type
           rdf:resource="http://purl.org/dc/dcmitype/StillImage" /><dc:title /></cc:Work></rdf:RDF></metadata><defs
     id="defs6"><filter
       inkscape:collect="always"
       id="filter4932"
       color-interpolation-filters="sRGB"><feGaussianBlur
         inkscape:collect="always"
         stdDeviation="7.033187"
         id="feGaussianBlur4934" /></filter></defs><sodipodi:namedview
     pagecolor="#ffffff"
     bordercolor="#666666"
     borderopacity="1"
     objecttolerance="10"
     gridtolerance="10"
     guidetolerance="10"
     inkscape:pageopacity="0"
     inkscape:pageshadow="2"
     inkscape:window-width="1600"
     inkscape:window-height="874"
     id="namedview4"
     showgrid="false"
     inkscape:zoom="3.0693485"
     inkscape:cx="65.688056"
     inkscape:cy="44.953451"
     inkscape:window-x="0"
     inkscape:window-y="1"
     inkscape:window-maximized="1"
     inkscape:current-layer="g10" /><g
     id="g10"
     inkscape:groupmode="layer"
     inkscape:label="cute animal farms"
     transform="matrix(1.25,0,0,-1.25,1375.9214,-175.77955)"><g
       id="g4940"
       transform="matrix(0.19025188,0,0,0.19025188,-890.5842,-193.93769)"><g
         id="g4936"><path
           id="path4926"
           transform="matrix(0.8,0,0,-0.8,0,980)"
           d="m -750.53125,902.09375 c -18.56845,0.0373 -22.73393,13.0751 0.53125,17.96875 32.29861,6.79351 34.37703,39.84534 18.59375,59.84375 -15.3923,3.28417 -31.1633,9.40794 -45.53125,15.34375 -6.04829,2.49886 -11.50587,5.3107 -16.375,8.375 -24.44286,2.2928 -49.98499,-15.59837 -40.3125,-45.96875 10.03969,-31.51576 -19.82907,-24.6259 -22.75,18.25 -0.63428,9.30749 0.16823,18.97042 2.5625,27.99995 -35.46566,1.6086 -75.32,14.8128 -111.90625,15.25 -53.86335,-0.3869 -62.61005,-8.3376 -130.81245,-8.6562 -2.1249,-0.016 -4.3131,-0.031 -6.5626,-0.031 -38.8352,0 -61.9783,22.261 -75.6874,53.4374 -27.3737,6.8918 -49.0813,18.5349 -63.4063,34.375 -23.4113,25.889 -27.23,61.684 -11.3437,106.4063 25.9988,73.1808 25.6225,142.0404 -0.9063,171.375 -4.0498,4.4787 -8.6092,7.8598 -13.6563,10.125 -8.9465,-5.0197 -25.4989,-12.4355 -43.125,-10.7813 -26.1537,2.4547 -44.6874,24 -44.6874,24 -1e-4,0 23.8787,17.5172 50.0312,15.0626 13.7325,-1.2894 25.3335,-7.8222 33.2812,-13.75 11.6331,-2.3781 21.8838,-8.2363 30.0626,-17.2813 29.6487,-32.7885 30.9262,-104.3097 3.25,-182.2187 -14.4951,-40.8041 -11.4838,-72.9756 8.9687,-95.5938 10.6908,-11.8223 26.3462,-20.9957 46,-27.2188 -3.8648,11.7491 -6.6763,24.3399 -8.7187,37.2188 -0.032,0.1977 -0.062,0.396 -0.094,0.5938 -0.1222,0.7801 -0.2584,1.5617 -0.375,2.3437 -7.3471,48.0154 -3.9375,99.2582 -3.9375,124.3437 0,17.0254 1.0989,49.0703 2.625,85.0626 0.016,0.3923 0.046,0.7629 0.062,1.1562 0.2908,6.835 0.5908,13.7764 0.9062,20.8125 0.2418,5.5373 0.4672,10.9517 0.7188,16.5313 0.015,-0.017 0.017,-0.045 0.031,-0.063 2.176,47.0161 4.3346,88.733 5.6876,114.25 -0.3739,0.069 -0.7541,0.1159 -1.125,0.1876 0.8204,15.2712 1.3437,24.6562 1.3437,24.6562 l 1.0625,-0.3125 c 10e-5,0 0.031,0.3125 0.031,0.3125 l 24.3126,-7.5312 23.875,7.5312 0,-0.031 0.125,0.031 0,-154.7188 c 3.528,11.4321 10.1387,20.762 18.625,27.9063 0.7929,0.7684 1.6082,1.501 2.4374,2.2187 -7.8283,19.7751 -14.1608,47.977 -0.5312,50.625 7.8306,1.5234 12.5228,-12.0877 15.2188,-25.1874 0.8776,13.2753 3.3789,21.9062 10.4062,21.9062 3.5881,0 6.0188,-2.5731 7.6562,-6.5625 l 5.4063,72.9375 22.875,-7.4375 23.9687,7.4375 2.1563,-69.25 c 8.7766,7.1496 17.0539,-0.2166 11.8125,-21.9688 16.6179,18.6104 35.388,10.2887 4.9375,-35.0624 5.9656,-8.8406 9.764,-19.8519 10.4063,-33.125 9.96361,2.1446 25.08438,4.649 45.9687,6.2187 -0.0191,0.1454 -0.0436,0.2921 -0.0625,0.4375 11.74005,0.7558 25.18538,1.1898 40.4375,1.0938 4.52437,0.02 9.2039,-0.018 14.0625,-0.094 42.8448,-0.6696 77.68853,-1.965 105.9375,-3.5625 l 4.09375,133.375 0.6875,21.9375 23.96875,-7.4375 22.875,7.4375 11.90625,-160.3125 c 35.75609,-3.8581 47.375,-7.5 47.375,-7.5 l 8.0625,141.0937 c -2.41432,0.3257 -4.78431,0.7026 -7.09375,1.125 l 1.53125,23.4063 6.875,-1.5 0.0937,1.5 20.1875,-5.0313 26.1875,5.0313 c 0,0 -5.64165,-135.1137 -0.90625,-231 0.15299,-3.0993 0.26151,-6.2183 0.375,-9.3437 16.04969,-5.614 30.98136,-14.2127 43.34375,-25.0938 2.02577,-1.783 3.99314,-3.6303 5.875,-5.5312 2.82277,-2.8515 5.47408,-5.8395 7.9375,-8.9376 1.64229,-2.0653 3.18948,-4.1769 4.65625,-6.3437 0.73338,-1.0834 1.43787,-2.1738 2.125,-3.2813 0.68714,-1.1074 1.36069,-2.2442 2,-3.375 7.67159,-13.5689 11.85152,-28.7922 11.15625,-44.9374 -0.11582,-2.6917 -0.3299,-5.2809 -0.59375,-7.8126 -0.0593,-0.5691 -0.12097,-1.1261 -0.1875,-1.6874 -0.0814,-0.687 -0.15795,-1.3871 -0.25,-2.0626 -0.14853,-1.0896 -0.32434,-2.1586 -0.5,-3.2187 -0.0228,-0.1378 -0.0392,-0.2689 -0.0625,-0.4063 -0.0361,-0.2129 -0.0878,-0.4132 -0.125,-0.625 -0.58625,-3.3395 -1.2824,-6.535 -2.125,-9.5937 -0.23091,-0.8388 -0.4697,-1.65 -0.71875,-2.4687 -0.0738,-0.2426 -0.14342,-0.478 -0.21875,-0.7188 -0.24271,-0.7761 -0.49133,-1.554 -0.75,-2.3125 -0.0936,-0.2743 -0.18557,-0.5404 -0.28125,-0.8125 -0.25273,-0.7196 -0.51444,-1.4211 -0.78125,-2.125 -0.11131,-0.2934 -0.23003,-0.5843 -0.34375,-0.875 -0.26522,-0.6788 -0.53443,-1.3355 -0.8125,-2 -0.12681,-0.303 -0.24556,-0.6062 -0.375,-0.9062 -0.27208,-0.6309 -0.56031,-1.2569 -0.84375,-1.875 -0.006,-0.013 -0.0254,-0.019 -0.0312,-0.031 -0.82426,-1.7955 -1.67855,-3.5571 -2.59375,-5.25 -0.19665,-0.3633 -0.39311,-0.7349 -0.59375,-1.0937 -0.27809,-0.4979 -0.55816,-0.9795 -0.84375,-1.4688 -0.21669,-0.3712 -0.43534,-0.7274 -0.65625,-1.0938 -0.27466,-0.4557 -0.56271,-0.8953 -0.84375,-1.3437 -0.24211,-0.3861 -0.47202,-0.7754 -0.71875,-1.1563 -0.27078,-0.4181 -0.53629,-0.838 -0.8125,-1.25 -0.2684,-0.4 -0.5391,-0.7932 -0.8125,-1.1874 -0.26564,-0.3834 -0.54225,-0.747 -0.8125,-1.125 -0.29075,-0.4065 -0.57905,-0.8184 -0.875,-1.2188 -0.26034,-0.3524 -0.517,-0.7147 -0.78125,-1.0625 -0.32086,-0.4222 -0.64229,-0.8344 -0.96875,-1.25 -0.24944,-0.3177 -0.49737,-0.6235 -0.75,-0.9375 -0.0185,-0.023 -0.044,-0.04 -0.0625,-0.062 -0.56463,-0.7005 -1.1389,-1.3801 -1.71875,-2.0625 -0.37314,-0.4389 -0.74586,-0.8808 -1.125,-1.3125 -0.22962,-0.2616 -0.45575,-0.5222 -0.6875,-0.7813 -0.0197,-0.022 -0.0428,-0.04 -0.0625,-0.062 -0.59053,-0.659 -1.1775,-1.3259 -1.78125,-1.9688 -0.43508,-0.463 -0.87095,-0.92 -1.3125,-1.375 -0.19604,-0.2022 -0.39647,-0.3931 -0.59375,-0.5938 -0.45975,-0.4673 -0.90882,-0.9469 -1.375,-1.4062 -0.18429,-0.1817 -0.37724,-0.3508 -0.5625,-0.5312 -0.48424,-0.4715 -0.97818,-0.9429 -1.46875,-1.4063 -0.17175,-0.1623 -0.35876,-0.3074 -0.53125,-0.4687 -0.51287,-0.4796 -1.0121,-0.9662 -1.53125,-1.4376 -0.15277,-0.1387 -0.31546,-0.2681 -0.46875,-0.4062 -0.54285,-0.4888 -1.07596,-0.9882 -1.625,-1.4688 -0.13386,-0.1172 -0.27204,-0.227 -0.40625,-0.3437 -0.56931,-0.495 -1.1435,-0.9818 -1.71875,-1.4687 -0.80748,-0.6836 -1.6196,-1.3625 -2.4375,-2.0313 -0.18387,-0.1503 -0.37815,-0.2879 -0.5625,-0.4375 -23.93945,-19.434 -51.83555,-33.0643 -64.6875,-59.5938 20.84697,4.3193 36.65382,19.6529 49.71875,-1.75 23.1927,-37.99781 -36.30418,-63.53877 -73.875,-30.12495 -0.9473,-0.56898 -1.89963,-1.10041 -2.875,-1.59375 13.14885,-32.46461 -9.90496,-60.4969 -37.3125,-73.65625 -10.89683,-5.2321 -20.39034,-7.20209 -27.65625,-7.1875 z"
           style="fill:#4d4d4d;fill-opacity:1;fill-rule:nonzero;stroke:#4d4d4d;stroke-width:21.02475929;stroke-linejoin:round;stroke-miterlimit:4;stroke-opacity:1;stroke-dasharray:none;filter:url(#filter4932)"
           inkscape:connector-curvature="0" /><path
           style="fill:#ffffff;fill-opacity:1;fill-rule:nonzero;stroke:#ffffff;stroke-width:21.02475929;stroke-linejoin:round;stroke-miterlimit:4;stroke-opacity:1;stroke-dasharray:none"
           d="m -750.53125,902.09375 c -18.56845,0.0373 -22.73393,13.0751 0.53125,17.96875 32.29861,6.79351 34.37703,39.84534 18.59375,59.84375 -15.3923,3.28417 -31.1633,9.40794 -45.53125,15.34375 -6.04829,2.49886 -11.50587,5.3107 -16.375,8.375 -24.44286,2.2928 -49.98499,-15.59837 -40.3125,-45.96875 10.03969,-31.51576 -19.82907,-24.6259 -22.75,18.25 -0.63428,9.30749 0.16823,18.97042 2.5625,27.99995 -35.46566,1.6086 -75.32,14.8128 -111.90625,15.25 -53.86335,-0.3869 -62.61005,-8.3376 -130.81245,-8.6562 -2.1249,-0.016 -4.3131,-0.031 -6.5626,-0.031 -38.8352,0 -61.9783,22.261 -75.6874,53.4374 -27.3737,6.8918 -49.0813,18.5349 -63.4063,34.375 -23.4113,25.889 -27.23,61.684 -11.3437,106.4063 25.9988,73.1808 25.6225,142.0404 -0.9063,171.375 -4.0498,4.4787 -8.6092,7.8598 -13.6563,10.125 -8.9465,-5.0197 -25.4989,-12.4355 -43.125,-10.7813 -26.1537,2.4547 -44.6874,24 -44.6874,24 -1e-4,0 23.8787,17.5172 50.0312,15.0626 13.7325,-1.2894 25.3335,-7.8222 33.2812,-13.75 11.6331,-2.3781 21.8838,-8.2363 30.0626,-17.2813 29.6487,-32.7885 30.9262,-104.3097 3.25,-182.2187 -14.4951,-40.8041 -11.4838,-72.9756 8.9687,-95.5938 10.6908,-11.8223 26.3462,-20.9957 46,-27.2188 -3.8648,11.7491 -6.6763,24.3399 -8.7187,37.2188 -0.032,0.1977 -0.062,0.396 -0.094,0.5938 -0.1222,0.7801 -0.2584,1.5617 -0.375,2.3437 -7.3471,48.0154 -3.9375,99.2582 -3.9375,124.3437 0,17.0254 1.0989,49.0703 2.625,85.0626 0.016,0.3923 0.046,0.7629 0.062,1.1562 0.2908,6.835 0.5908,13.7764 0.9062,20.8125 0.2418,5.5373 0.4672,10.9517 0.7188,16.5313 0.015,-0.017 0.017,-0.045 0.031,-0.063 2.176,47.0161 4.3346,88.733 5.6876,114.25 -0.3739,0.069 -0.7541,0.1159 -1.125,0.1876 0.8204,15.2712 1.3437,24.6562 1.3437,24.6562 l 1.0625,-0.3125 c 10e-5,0 0.031,0.3125 0.031,0.3125 l 24.3126,-7.5312 23.875,7.5312 0,-0.031 0.125,0.031 0,-154.7188 c 3.528,11.4321 10.1387,20.762 18.625,27.9063 0.7929,0.7684 1.6082,1.501 2.4374,2.2187 -7.8283,19.7751 -14.1608,47.977 -0.5312,50.625 7.8306,1.5234 12.5228,-12.0877 15.2188,-25.1874 0.8776,13.2753 3.3789,21.9062 10.4062,21.9062 3.5881,0 6.0188,-2.5731 7.6562,-6.5625 l 5.4063,72.9375 22.875,-7.4375 23.9687,7.4375 2.1563,-69.25 c 8.7766,7.1496 17.0539,-0.2166 11.8125,-21.9688 16.6179,18.6104 35.388,10.2887 4.9375,-35.0624 5.9656,-8.8406 9.764,-19.8519 10.4063,-33.125 9.96361,2.1446 25.08438,4.649 45.9687,6.2187 -0.0191,0.1454 -0.0436,0.2921 -0.0625,0.4375 11.74005,0.7558 25.18538,1.1898 40.4375,1.0938 4.52437,0.02 9.2039,-0.018 14.0625,-0.094 42.8448,-0.6696 77.68853,-1.965 105.9375,-3.5625 l 4.09375,133.375 0.6875,21.9375 23.96875,-7.4375 22.875,7.4375 11.90625,-160.3125 c 35.75609,-3.8581 47.375,-7.5 47.375,-7.5 l 8.0625,141.0937 c -2.41432,0.3257 -4.78431,0.7026 -7.09375,1.125 l 1.53125,23.4063 6.875,-1.5 0.0937,1.5 20.1875,-5.0313 26.1875,5.0313 c 0,0 -5.64165,-135.1137 -0.90625,-231 0.15299,-3.0993 0.26151,-6.2183 0.375,-9.3437 16.04969,-5.614 30.98136,-14.2127 43.34375,-25.0938 2.02577,-1.783 3.99314,-3.6303 5.875,-5.5312 2.82277,-2.8515 5.47408,-5.8395 7.9375,-8.9376 1.64229,-2.0653 3.18948,-4.1769 4.65625,-6.3437 0.73338,-1.0834 1.43787,-2.1738 2.125,-3.2813 0.68714,-1.1074 1.36069,-2.2442 2,-3.375 7.67159,-13.5689 11.85152,-28.7922 11.15625,-44.9374 -0.11582,-2.6917 -0.3299,-5.2809 -0.59375,-7.8126 -0.0593,-0.5691 -0.12097,-1.1261 -0.1875,-1.6874 -0.0814,-0.687 -0.15795,-1.3871 -0.25,-2.0626 -0.14853,-1.0896 -0.32434,-2.1586 -0.5,-3.2187 -0.0228,-0.1378 -0.0392,-0.2689 -0.0625,-0.4063 -0.0361,-0.2129 -0.0878,-0.4132 -0.125,-0.625 -0.58625,-3.3395 -1.2824,-6.535 -2.125,-9.5937 -0.23091,-0.8388 -0.4697,-1.65 -0.71875,-2.4687 -0.0738,-0.2426 -0.14342,-0.478 -0.21875,-0.7188 -0.24271,-0.7761 -0.49133,-1.554 -0.75,-2.3125 -0.0936,-0.2743 -0.18557,-0.5404 -0.28125,-0.8125 -0.25273,-0.7196 -0.51444,-1.4211 -0.78125,-2.125 -0.11131,-0.2934 -0.23003,-0.5843 -0.34375,-0.875 -0.26522,-0.6788 -0.53443,-1.3355 -0.8125,-2 -0.12681,-0.303 -0.24556,-0.6062 -0.375,-0.9062 -0.27208,-0.6309 -0.56031,-1.2569 -0.84375,-1.875 -0.006,-0.013 -0.0254,-0.019 -0.0312,-0.031 -0.82426,-1.7955 -1.67855,-3.5571 -2.59375,-5.25 -0.19665,-0.3633 -0.39311,-0.7349 -0.59375,-1.0937 -0.27809,-0.4979 -0.55816,-0.9795 -0.84375,-1.4688 -0.21669,-0.3712 -0.43534,-0.7274 -0.65625,-1.0938 -0.27466,-0.4557 -0.56271,-0.8953 -0.84375,-1.3437 -0.24211,-0.3861 -0.47202,-0.7754 -0.71875,-1.1563 -0.27078,-0.4181 -0.53629,-0.838 -0.8125,-1.25 -0.2684,-0.4 -0.5391,-0.7932 -0.8125,-1.1874 -0.26564,-0.3834 -0.54225,-0.747 -0.8125,-1.125 -0.29075,-0.4065 -0.57905,-0.8184 -0.875,-1.2188 -0.26034,-0.3524 -0.517,-0.7147 -0.78125,-1.0625 -0.32086,-0.4222 -0.64229,-0.8344 -0.96875,-1.25 -0.24944,-0.3177 -0.49737,-0.6235 -0.75,-0.9375 -0.0185,-0.023 -0.044,-0.04 -0.0625,-0.062 -0.56463,-0.7005 -1.1389,-1.3801 -1.71875,-2.0625 -0.37314,-0.4389 -0.74586,-0.8808 -1.125,-1.3125 -0.22962,-0.2616 -0.45575,-0.5222 -0.6875,-0.7813 -0.0197,-0.022 -0.0428,-0.04 -0.0625,-0.062 -0.59053,-0.659 -1.1775,-1.3259 -1.78125,-1.9688 -0.43508,-0.463 -0.87095,-0.92 -1.3125,-1.375 -0.19604,-0.2022 -0.39647,-0.3931 -0.59375,-0.5938 -0.45975,-0.4673 -0.90882,-0.9469 -1.375,-1.4062 -0.18429,-0.1817 -0.37724,-0.3508 -0.5625,-0.5312 -0.48424,-0.4715 -0.97818,-0.9429 -1.46875,-1.4063 -0.17175,-0.1623 -0.35876,-0.3074 -0.53125,-0.4687 -0.51287,-0.4796 -1.0121,-0.9662 -1.53125,-1.4376 -0.15277,-0.1387 -0.31546,-0.2681 -0.46875,-0.4062 -0.54285,-0.4888 -1.07596,-0.9882 -1.625,-1.4688 -0.13386,-0.1172 -0.27204,-0.227 -0.40625,-0.3437 -0.56931,-0.495 -1.1435,-0.9818 -1.71875,-1.4687 -0.80748,-0.6836 -1.6196,-1.3625 -2.4375,-2.0313 -0.18387,-0.1503 -0.37815,-0.2879 -0.5625,-0.4375 -23.93945,-19.434 -51.83555,-33.0643 -64.6875,-59.5938 20.84697,4.3193 36.65382,19.6529 49.71875,-1.75 23.1927,-37.99781 -36.30418,-63.53877 -73.875,-30.12495 -0.9473,-0.56898 -1.89963,-1.10041 -2.875,-1.59375 13.14885,-32.46461 -9.90496,-60.4969 -37.3125,-73.65625 -10.89683,-5.2321 -20.39034,-7.20209 -27.65625,-7.1875 z"
           transform="matrix(0.8,0,0,-0.8,0,980)"
           id="path4857"
           inkscape:connector-curvature="0" /></g><path
         inkscape:connector-curvature="0"
         id="path4789"
         style="fill:#cebca7;fill-opacity:1;fill-rule:nonzero;stroke:none"
         d="m -1027.8336,-141.54118 0,9.83509 c 9.612,0 17.784,3.65102 24.291,10.84714 21.22304,23.467662 21.51004,78.568961 0.711,137.113571 -12.709,35.77786 -9.658,64.419181 9.07104,85.130369 19.441,21.49733 55.88,33.33667 102.60903,33.33667 l 0,-9.83591 c -42.89103,0 -75.95203,-10.43835 -93.09303,-29.393538 -16.36204,-18.09456 -18.78004,-43.82053 -7.184,-76.463741 22.141,-62.327208 21.122,-119.549441 -2.597,-145.780201 -8.74804,-9.67454 -20.43904,-14.78779 -33.80804,-14.78945" /><path
         inkscape:connector-curvature="0"
         id="path4791"
         style="fill:#eee5d8;fill-opacity:1;fill-rule:nonzero;stroke:none"
         d="m -873.3072,-74.480607 10.461,-141.213003 18.306,5.942 19.176,-5.942 4.359,141.213003 -52.302,0 z" /><path
         inkscape:connector-curvature="0"
         id="path4793"
         style="fill:#cebca7;fill-opacity:1;fill-rule:nonzero;stroke:none"
         d="m -824.8228,-198.15301 c -5.766,0.777 -11.88,1.2 -18.224,1.2 -7.404,0 -14.475,-0.599 -21.066,-1.642 l 1.267,-17.099 18.305,5.942 19.177,-5.942 0.541,17.541 z" /><path
         inkscape:connector-curvature="0"
         id="path4795"
         style="fill:#f6b0ce;fill-opacity:1;fill-rule:nonzero;stroke:none"
         d="m -882.0005,-122.63351 c 0,-22.275 -0.302,-39.963 8.693,-39.963 12.927,0 7.358,41.601 7.358,41.601" /><path
         inkscape:connector-curvature="0"
         id="path4797"
         style="fill:#eee5d8;fill-opacity:1;fill-rule:nonzero;stroke:none"
         d="m -585.08347,-74.480607 -10.461,-141.213003 -18.306,5.942 -19.176,-5.942 -4.358,141.213003 52.301,0 z" /><path
         inkscape:connector-curvature="0"
         id="path4799"
         style="fill:#cebca7;fill-opacity:1;fill-rule:nonzero;stroke:none"
         d="m -633.56787,-198.15301 c 5.767,0.777 11.881,1.2 18.224,1.2 7.643,0 14.664,-0.629 21.067,-1.642 l -1.268,-17.099 -18.305,5.942 -19.177,-5.942 -0.541,17.541 z" /><path
         inkscape:connector-curvature="0"
         id="path4801"
         style="fill:#eee5d8;fill-opacity:1;fill-rule:nonzero;stroke:none"
         d="m -769.32365,164.64389 c 48.57811,0 104.5434,27.894 140.90659,0 36.36319,-27.895 91.66624,-28.765 91.66624,-28.765 24.99996,0 36.36232,-88.320997 32.57573,-165.029997 -3.78832,-76.709003 0.71265,-184.798003 0.71265,-184.798003 l -19.65164,4.358 -17.42419,-4.358 -7.57578,132.496003 c 0,0 -34.05143,-10.678 -173.48319,-12.857 -65.15147,-1.019 -92.42494,9.371 -92.42494,9.371 0,-71.478003 -96.20892,-66.408003 -96.20892,-0.16 l 0,-139.311003 -18.94074,6.102 -19.69599,-6.102 c 0,0 -9.09232,166.492003 -9.09232,210.077003 0,43.586 -12.772,185.951997 77.37772,185.951997 59.0905,0 64.29021,-6.975 111.25878,-6.975" /><path
         inkscape:connector-curvature="0"
         id="path4803"
         style="fill:#cebca7;fill-opacity:1;fill-rule:nonzero;stroke:none"
         d="m -930.8095,-202.80141 c -7.07124,0 -13.80451,-0.683 -20.01887,-1.884 0.65639,-12.217 1.07594,-19.725 1.07594,-19.725 l 20.10224,6.102 19.33141,-6.102 0,19.638 c -6.34298,1.259 -13.24477,1.971 -20.49072,1.971" /><path
         inkscape:connector-curvature="0"
         id="path4805"
         style="fill:#f6b0ce;fill-opacity:1;fill-rule:nonzero;stroke:none"
         d="m -835.813,-126.49481 c 3.142,-49.882 40.064,-47.638 13.179,5.499" /><path
         inkscape:connector-curvature="0"
         id="path4807"
         style="fill:#f8c3da;fill-opacity:1;fill-rule:nonzero;stroke:none"
         d="m -801.8355,-85.091507 c -64.336,64.331 -110.695,22.729 -110.695,-0.007 l 1.064,-10.612 c 11.128,-55.894003 109.477,-56.661003 109.631,10.619" /><path
         inkscape:connector-curvature="0"
         id="path4809"
         style="fill:#f8c3da;fill-opacity:1;fill-rule:nonzero;stroke:none"
         d="m -824.8228,-122.96161 c 11.146,-36.859 48.349,-39.364 11.936,12.116" /><path
         inkscape:connector-curvature="0"
         id="path4811"
         style="fill:#f8c3da;fill-opacity:1;fill-rule:nonzero;stroke:none"
         d="m -891.8277,-120.99581 c -6.879,-15.725 -13.757,-41.931 -1.965,-44.222 11.792,-2.294 14.741,38.326 14.741,38.326" /><path
         inkscape:connector-curvature="0"
         id="path4813"
         style="fill:#cebca7;fill-opacity:1;fill-rule:nonzero;stroke:none"
         d="m -651.53991,172.88559 c -34.75833,12.823 -81.35404,-8.242 -122.51299,-8.242 -45.77414,0 -50.84246,6.975 -108.42941,6.975 -57.97914,0 -72.27191,-61.998 -75.29054,-116.693997 55.39923,-22.292 57.22108,-78.816 152.31651,-43.567 75.53952,28.002 153.50649,108.113997 153.91643,161.527997 m 7.14935,-134.785997 c -64.46019,42.567 -109.93958,-48.141 -120.80632,-131.59 10.73376,-0.691 23.23348,-1.052 37.65669,-0.82 78.2795,1.255 122.47148,5.33 145.87775,8.561 12.57509,40.616 -13.92942,91.6249999 -62.72812,123.849 m -313.6474,-41.8680001 c 0.0839,-3.949 0.14569,-7.5069999 0.14569,-10.5639999 0,-18.355 1.57199,-58.504 3.39045,-98.837003 32.3775,38.409003 46.29336,94.377003 -3.53614,109.4010029" /><g
         transform="matrix(0.92353207,-0.38352122,0.38352122,0.92353207,-109.3098,-208.97053)"
         id="g4843"><path
           d="m -561.22407,192.30449 c 11.454,46.861 73.664,49.607 67.688,11.211 -4.221,-27.112 -33.322,-4.962 -54.15,-25.79 -20.829,-20.828 -13.538,9.373 -13.538,9.373 l 0,5.206 z"
           style="fill:#d38d5f;fill-opacity:1;fill-rule:nonzero;stroke:none"
           id="path4815"
           inkscape:connector-curvature="0" /><path
           d="m -624.19287,117.87729 c -48.221,1.314 -67.284,-57.964997 -28.671,-62.330997 27.268,-3.082 13.578,30.832 39.162,45.424997 25.587,14.599 -5.468,15.533 -5.468,15.533 l -5.023,1.373 z"
           style="fill:#d38d5f;fill-opacity:1;fill-rule:nonzero;stroke:none"
           id="path4817"
           inkscape:connector-curvature="0" /><path
           d="m -601.97507,178.39089 c 17.589,19.422 7.418,57.795 -24.888,51.706 -26.004,-4.901 -17.615,18.131 16.718,16.274 26.832,-1.451 55.336,-17.923 49.399,-52.239 -5.94,-34.316 -40.672,-17.228 -40.672,-17.228"
           style="fill:#f6f1e9;fill-opacity:1;fill-rule:nonzero;stroke:none"
           id="path4819"
           inkscape:connector-curvature="0" /><path
           d="m -620.64207,166.55449 c -13.994,-22.156 -53.689,-22.646 -56.489,10.108 -2.252,26.365 -22.19,12.105 -11.193,-20.469 8.595,-25.461 32.11,-48.504 63.574,-33.58 31.465,14.925 5.687,43.803 5.687,43.803"
           style="fill:#f6f1e9;fill-opacity:1;fill-rule:nonzero;stroke:none"
           id="path4821"
           inkscape:connector-curvature="0" /><path
           d="m -623.70647,166.27129 c 25.393,25.392 58.838,55.71 91.641,22.909 32.8,-32.802 93.72,-9.371 122.88,-71.853 29.159,-62.481997 -52.069,-147.873997 -123.922,-112.4679971 -71.856,35.4060001 -149.435,102.5759971 -90.599,161.4119971"
           style="fill:#e2dbce;fill-opacity:1;fill-rule:nonzero;stroke:none"
           id="path4823"
           inkscape:connector-curvature="0" /><path
           d="m -586.83247,117.89729 c 0,-7.838 -6.355,-14.194 -14.195,-14.194 -7.839,0 -14.194,6.356 -14.194,14.194 0,7.841 6.355,14.195 14.194,14.195 7.84,0 14.195,-6.354 14.195,-14.195"
           style="fill:#373535;fill-opacity:1;fill-rule:nonzero;stroke:none"
           id="path4825"
           inkscape:connector-curvature="0" /><path
           d="m -586.83247,125.74149 c 0,-3.506 -2.843,-6.35 -6.351,-6.35 -3.507,0 -6.35,2.844 -6.35,6.35 0,3.508 2.843,6.351 6.35,6.351 3.508,0 6.351,-2.843 6.351,-6.351"
           style="fill:#ffffff;fill-opacity:1;fill-rule:nonzero;stroke:none"
           id="path4827"
           inkscape:connector-curvature="0" /><path
           d="m -542.65087,162.82989 c 0,-7.839 -6.354,-14.194 -14.194,-14.194 -7.839,0 -14.195,6.355 -14.195,14.194 0,7.84 6.356,14.195 14.195,14.195 7.84,0 14.194,-6.355 14.194,-14.195"
           style="fill:#373535;fill-opacity:1;fill-rule:nonzero;stroke:none"
           id="path4829"
           inkscape:connector-curvature="0" /><path
           d="m -542.65087,170.67459 c 0,-3.506 -2.842,-6.35 -6.35,-6.35 -3.506,0 -6.35,2.844 -6.35,6.35 0,3.508 2.844,6.351 6.35,6.351 3.508,0 6.35,-2.843 6.35,-6.351"
           style="fill:#ffffff;fill-opacity:1;fill-rule:nonzero;stroke:none"
           id="path4831"
           inkscape:connector-curvature="0" /><path
           d="m -409.18597,117.32699 c -14.158,30.34 -35.808,40.41 -58.089,46.511 -50.518,-37.305 -72.19,-112.680997 -67.872,-157.9619971 0.68,-0.34 1.36,-0.682 2.039,-1.017 71.854,-35.4059999 153.081,49.9870001 123.922,112.4679971"
           style="fill:#f8c3da;fill-opacity:1;fill-rule:nonzero;stroke:none"
           id="path4833"
           inkscape:connector-curvature="0" /><path
           d="m -479.06687,31.840193 c 0,-5.751 -4.663,-10.414 -10.414,-10.414 -5.753,0 -10.416,4.663 -10.416,10.414 0,5.753 4.663,10.416 10.416,10.416 5.751,0 10.414,-4.663 10.414,-10.416"
           style="fill:#f49dc3;fill-opacity:1;fill-rule:nonzero;stroke:none"
           id="path4835"
           inkscape:connector-curvature="0" /><path
           d="m -437.85987,95.965193 c 0,-7.999 -6.483,-14.484 -14.481,-14.484 -8,0 -14.486,6.485 -14.486,14.484 0,7.998997 6.486,14.483997 14.486,14.483997 7.998,0 14.481,-6.485 14.481,-14.483997"
           style="fill:#f49dc3;fill-opacity:1;fill-rule:nonzero;stroke:none"
           id="path4837"
           inkscape:connector-curvature="0" /></g><path
         inkscape:connector-curvature="0"
         id="path4839"
         style="fill:#cebca7;fill-opacity:1;fill-rule:nonzero;stroke:none"
         d="m -547.35587,-195.21751 1.232,-18.732 20.049,4.358 22.613,-4.358 c 0,0 -0.351,7.34 -0.792,19.485 -6.057,0.863 -12.504,1.345 -19.214,1.345 -8.467,0 -16.529,-0.752 -23.888,-2.098" /><path
         inkscape:connector-curvature="0"
         id="path4841"
         style="fill:#b9aa97;fill-opacity:1;fill-rule:nonzero;stroke:none"
         d="m -1044.6939,-151.58413 c -20.922,-1.96371 -40.026,12.07021 -40.026,12.07021 0,0 14.817,17.22071 35.74,19.18442 20.923,1.9637 40.026,-12.06939 40.026,-12.06939 0,0 -14.817,-17.22071 -35.74,-19.18524" /></g></g></svg>