<svg xmlns="http://www.w3.org/2000/svg" width="106.55" height="226.56" viewBox="0 0 106.55 226.56"><defs><style>.cls-1{fill:#98ac48;}.cls-2{fill:#fefefd;}.cls-3{fill:#b3cd4a;}</style></defs><g id="Layer_2" data-name="Layer 2"><g id="Layer_1-2" data-name="Layer 1"><path class="cls-1" d="M0,62.46c-.18-1.17,1-1.64,2.13-2,10.16-2.89,20.34-5.69,30.48-8.64,2.84-.82,3.06,1.37,3.74,2.92C44.85,74,53.31,93.31,62.24,112.38c13.59,29,28.12,57.59,43.32,85.81,1.72,3.21,1.3,4.4-2.09,5.54-7.25,2.44-14.41,5.18-21.53,8-2.43.95-3.46.41-4.35-2-3-8.07-6.27-16-9.22-24.1-.86-2.34-1.91-3.14-4.33-2.48-4.33,1.18-8.69,2.22-13.06,3.24-2,.47-2.75,1.16-2.12,3.52,2.21,8.32,4,16.76,6.18,25.08.74,2.78.42,4-2.55,4.8q-11.49,3-22.85,6.47c-2.62.81-3.46.31-3.8-2.41q-2.43-19.34-5.14-38.63C15.62,149,9.83,112.84,2.8,77,1.88,72.27,1,67.58,0,62.46ZM46.65,188c-.35-2,.92-2.51,2.49-2.88,5.39-1.28,10.8-2.48,16.13-4,2.41-.69,3.24.13,4,2.25,2.91,7.81,6.15,15.51,8.93,23.36,1.07,3,2.13,3.93,5.31,2.57,5.82-2.47,11.8-4.62,17.81-6.62,3.12-1,3.67-2.06,2-5.17-13.14-24.35-25.77-49-37.65-74-10.46-22-20.58-44.15-30-66.61-1.35-3.2-2.78-3.6-5.81-2.62-6.15,2-12.42,3.58-18.65,5.33-9.69,2.71-9.61,2.69-7.63,12.7q10.52,53,17.9,106.55,2.93,21,5.6,42.15c.39,3.13,1.43,3.88,4.56,2.84a176.55,176.55,0,0,1,17.89-5c3.72-.82,4.42-2.22,3.4-5.83C50.59,204.79,48.72,196.38,46.65,188Z"/><path class="cls-1" d="M7.33,43.32c3.35-14,6.66-27.78,9.91-41.58C17.65,0,18.36-.34,20,.31,26.41,2.8,32.83,5.24,39.29,7.58c1.89.69,2,1.58,1.2,3.26Q31.31,29.35,22.25,47.93c-.73,1.49-1.49,2.28-3.37,1.52-3.18-1.3-6.47-2.31-9.72-3.41C7.72,45.55,6.82,44.79,7.33,43.32Zm1.94-.69c-.51.92.22,1.72,1.53,2.19,2.48.89,5,1.73,7.45,2.64,1.55.56,2.41,0,3.1-1.44q8.41-17.3,16.94-34.53c.79-1.6.55-2.37-1.1-3-3.46-1.26-6.87-2.67-10.34-3.93C19,1.72,18.91,1.74,16.94,10,14.41,20.7,11.92,31.38,9.27,42.63Z"/><path class="cls-2" d="M46.65,188c2.07,8.35,3.94,16.76,6.28,25,1,3.61.32,5-3.4,5.83a176.55,176.55,0,0,0-17.89,5c-3.13,1-4.17.29-4.56-2.84Q24.4,200,21.48,178.93,14,125.4,3.58,72.38c-2-10-2.06-10,7.63-12.7,6.23-1.75,12.5-3.34,18.65-5.33,3-1,4.46-.58,5.81,2.62,9.44,22.46,19.56,44.61,30,66.61,11.88,25,24.51,49.62,37.65,74,1.68,3.11,1.13,4.14-2,5.17-6,2-12,4.15-17.81,6.62-3.18,1.36-4.24.47-5.31-2.57-2.78-7.85-6-15.55-8.93-23.36-.79-2.12-1.62-2.94-4-2.25-5.33,1.51-10.74,2.71-16.13,4C47.57,185.52,46.3,186,46.65,188ZM5.78,66.4C7.13,73.94,8.26,81.53,9.86,89c4,18.78,6.91,37.76,9.85,56.71,3.72,23.95,6.92,48,10.17,72,.4,2.93,1.33,3.16,3.77,2.37,4.52-1.46,9.11-2.73,13.71-3.94,1.92-.52,2.88-1,2.2-3.46-2.1-7.61-3.9-15.32-5.69-23-1.09-4.67-.09-6.27,4.53-7.51,5-1.33,10-2.61,15-3.8,5.95-1.41,7-.77,9.19,4.87,2.55,6.69,5.24,13.32,7.64,20.06,1,2.82,2.3,3.3,5,2.11,3.61-1.61,7.41-2.8,11.12-4.18,4.47-1.68,4.49-1.7,2.19-6q-19.87-36.94-37.85-74.85c-9.52-20-18.55-40.18-27.3-60.5-.92-2.14-1.78-2.7-4.05-2-7.2,2.21-14.46,4.2-21.7,6.22C6.31,64.45,5.26,64.78,5.78,66.4Z"/><path class="cls-2" d="M9.27,42.63C11.92,31.38,14.41,20.7,16.94,10c2-8.29,2-8.31,9.91-5.44,3.47,1.26,6.88,2.67,10.34,3.93,1.65.6,1.89,1.37,1.1,3Q29.74,28.71,21.35,46c-.69,1.43-1.55,2-3.1,1.44-2.48-.91-5-1.75-7.45-2.64C9.49,44.35,8.76,43.55,9.27,42.63Zm25.27-30.9c-.1-1.08-1-1.19-1.67-1.44C29.93,9.13,26.92,8.14,24,6.91c-2.06-.86-2.94-.58-3.48,1.84-2.21,9.93-4.67,19.8-7,29.7-.41,1.76-1.62,3.65,1.59,4.6,2.67.79,4,.54,5.21-2.1,4.27-9.1,8.77-18.08,13.19-27.1Z"/><path class="cls-3" d="M5.78,66.4c-.52-1.62.53-2,1.81-2.3,7.24-2,14.5-4,21.7-6.22,2.27-.7,3.13-.14,4.05,2,8.75,20.32,17.78,40.52,27.3,60.5q18.06,37.88,37.85,74.85c2.3,4.27,2.28,4.29-2.19,6-3.71,1.38-7.51,2.57-11.12,4.18-2.68,1.19-4,.71-5-2.11-2.4-6.74-5.09-13.37-7.64-20.06-2.15-5.64-3.24-6.28-9.19-4.87-5,1.19-10,2.47-15,3.8-4.62,1.24-5.62,2.84-4.53,7.51,1.79,7.7,3.59,15.41,5.69,23,.68,2.48-.28,2.94-2.2,3.46-4.6,1.21-9.19,2.48-13.71,3.94-2.44.79-3.37.56-3.77-2.37-3.25-24-6.45-48-10.17-72-2.94-19-5.83-37.93-9.85-56.71C8.26,81.53,7.13,73.94,5.78,66.4ZM22.12,85.7c.82,3.71,1.69,7.41,2.45,11.13q7.18,35,14.33,70c1,4.66,2.77,5.8,7.32,4.6,4.21-1.1,8.38-2.37,12.55-3.64,5.53-1.68,6.32-3.39,4.09-8.69-4.32-10.24-8.57-20.51-13-30.71C43.51,113.72,37,99.08,30.61,84.4c-1.08-2.49-2.69-3.94-5.51-3.31C22.68,81.63,22.15,83.46,22.12,85.7Z"/><path class="cls-3" d="M34.54,11.73l-1,2.12c-4.42,9-8.92,18-13.19,27.1-1.23,2.64-2.54,2.89-5.21,2.1-3.21-.95-2-2.84-1.59-4.6,2.32-9.9,4.78-19.77,7-29.7C21.07,6.33,22,6.05,24,6.91c2.91,1.23,5.92,2.22,8.86,3.38C33.52,10.54,34.44,10.65,34.54,11.73Z"/><path class="cls-2" d="M22.12,85.7c0-2.24.56-4.07,3-4.61,2.82-.63,4.43.82,5.51,3.31,6.41,14.68,12.9,29.32,19.26,44,4.42,10.2,8.67,20.47,13,30.71,2.23,5.3,1.44,7-4.09,8.69-4.17,1.27-8.34,2.54-12.55,3.64-4.55,1.2-6.36.06-7.32-4.6q-7.2-35-14.33-70C23.81,93.11,22.94,89.41,22.12,85.7Zm3.2-1.91c1.41,7.34,2.65,14.06,4,20.76,4.15,20.37,8.41,40.72,12.48,61.1.57,2.87,1.61,3.51,4.27,2.61A96.77,96.77,0,0,1,57.47,165c3.57-.72,3.58-2.12,2.31-5.14-10.19-24.15-20.54-48.23-31.27-72.15C28,86.43,27.83,84.81,25.32,83.79Z"/><path class="cls-1" d="M25.32,83.79c2.51,1,2.64,2.64,3.19,3.88,10.73,23.92,21.08,48,31.27,72.15,1.27,3,1.26,4.42-2.31,5.14a96.77,96.77,0,0,0-11.39,3.3c-2.66.9-3.7.26-4.27-2.61-4.07-20.38-8.33-40.73-12.48-61.1C28,97.85,26.73,91.13,25.32,83.79Zm4.07,13.14c.34,1.54.6,2.65.83,3.76,4.24,20.75,8.53,41.48,12.65,62.25.63,3.15,1.51,4.68,5,3.24a49.6,49.6,0,0,1,7.95-2.41c2.7-.62,3.19-1.67,2-4.33C49.21,139.67,40.76,119.83,32.2,100,31.74,99,31.73,97.35,29.39,96.93Z"/></g></g></svg>