<svg xmlns="http://www.w3.org/2000/svg" width="78.25" height="171" viewBox="0 0 78.25 171"><defs><style>.cls-1{fill:#97ab47;}.cls-2{fill:#f9faf3;}.cls-3{fill:#b7cf54;}.cls-4{fill:none;}</style></defs><g id="Layer_2" data-name="Layer 2"><g id="Layer_1-2" data-name="Layer 1"><path class="cls-1" d="M54.55,97.64C73.89,107.77,77.32,126.7,73.62,142S58.8,165.12,44.35,169c-9.75,2.6-19.49,2.86-29.23-.13-2.84-.87-4.14-2.27-4.18-5.6-.39-33-1.8-66-4.75-98.88C4.54,46,2.73,27.7.26,9.44,0,7.83-.67,6,1.87,5.29c13-3.71,26-7,39.66-4.29C63.19,5.33,77.15,21.44,78.17,44.24c.81,18.27-4,34.91-17.3,48.21C59,94.3,56.81,95.8,54.55,97.64ZM76.66,50.56c.25-26.14-12.94-43.17-35.4-47.91C28.31-.09,15.91,3.16,3.53,6.47c-2.33.62-1.64,2.17-1.45,3.76q5.21,41.61,8,83.46c1.53,22.88,2.16,45.82,2.44,68.75,0,3.18,1.24,4.45,4,5.18a52.37,52.37,0,0,0,27.72-.32c21.31-5.84,31.32-20.5,28.34-42.4C71.08,113.6,65.18,105,54.73,99.85,51,98,51,97.92,54.39,95.43A48.74,48.74,0,0,0,60,91C71.93,79.28,76,64.37,76.66,50.56Z"/><path class="cls-2" d="M76.66,50.56C76,64.37,71.93,79.28,60,91a48.74,48.74,0,0,1-5.59,4.4C51,97.92,51,98,54.73,99.85,65.18,105,71.08,113.6,72.62,124.9c3,21.9-7,36.56-28.34,42.4a52.37,52.37,0,0,1-27.72.32c-2.77-.73-4-2-4-5.18-.28-22.93-.91-45.87-2.44-68.75q-2.82-41.83-8-83.46C1.89,8.64,1.2,7.09,3.53,6.47,15.91,3.16,28.31-.09,41.26,2.65,63.72,7.39,76.91,24.42,76.66,50.56Zm-3.9,4.29A45.75,45.75,0,0,0,67.6,24.43c-4.94-9-12.91-14-22.21-17.31-10.63-3.78-21.25-2-31.87,0-8.21,1.59-8.19,1.6-7.32,10,.2,2,.14,4,.87,5.86L9.4,44.49,12,75.54l2.46,39c.44,15.33,1,30.66,1.25,46,.06,2.78.85,3.81,3.61,4.44a45.25,45.25,0,0,0,18.39.43c10.55-1.93,20.35-5.33,26.64-15,10.06-15.4,6.5-35.81-8-45.95-.91-.54-1.78-1.12-2.72-1.6-6.73-3.42-7-6-.83-10.22A35.72,35.72,0,0,0,64.3,80.36C69,72.5,72.27,64.13,72.76,54.85Z"/><path class="cls-3" d="M52.82,92.68A35.75,35.75,0,0,0,64.3,80.36c4.74-7.86,8-16.23,8.46-25.51A45.76,45.76,0,0,0,67.6,24.43c-4.94-9-12.91-14-22.21-17.31-10.63-3.78-21.25-2-31.87.06-8.21,1.58-8.19,1.6-7.32,10,.2,2,.14,4,.87,5.86Q8.23,33.75,9.4,44.5l2.61,31q1.23,19.51,2.47,39c.43,15.33.95,30.66,1.24,46,.06,2.77.85,3.8,3.61,4.43a45.43,45.43,0,0,0,18.39.44c10.55-1.94,20.35-5.33,26.64-15,10.06-15.41,6.5-35.82-8-46-.9-.53-1.78-1.12-2.71-1.59C46.92,99.48,46.69,96.9,52.82,92.68ZM37.58,156.33c-4.87,2.48-7.44,1.31-7.7-4.06-.62-12.57-.92-25.16-1.34-37.74,0-2.51,0-5,.07-7.54.12-4,2.29-5.72,6.23-4.95a28.44,28.44,0,0,1,12.61,6.21C61.06,125.58,56.75,146.57,37.58,156.33ZM36.58,99c-5.41,2.75-8,1.21-8.12-4.8-.18-6.48.34-13-.56-19.44h0q-.15-15.12-.29-30.22,0-10.75,0-21.49c.47-5.63,2-6.66,7.53-5.82,6.56,1,11.5,4.65,16.07,9.08,5.79,8.63,8,18.24,7.73,28.53-.66,8.8-3,17.21-5.84,25.51C49.19,88,44.51,94.93,36.58,99Z"/><path class="cls-2" d="M28.54,114.53c0-2.52,0-5,.07-7.54.12-4,2.29-5.72,6.23-5a28.42,28.42,0,0,1,12.6,6.22c13.62,17.33,9.31,38.32-9.87,48.08-4.86,2.48-7.43,1.31-7.7-4.07C29.26,139.69,29,127.11,28.54,114.53Zm3.07-3.15c.22,4.49.51,9,.65,13.48.3,8.87.58,17.75.74,26.63,0,2.59.53,3.28,3.15,2a28.26,28.26,0,0,0,14-15c5.21-12.41.07-27-11.2-31.8C33.21,104.21,31.62,105.24,31.61,111.38Z"/><path class="cls-2" d="M58.91,54.8c-.67,8.81-3,17.22-5.84,25.52C49.19,88,44.51,94.93,36.58,99c-5.41,2.76-8,1.21-8.12-4.79-.18-6.48.34-13-.56-19.45q-.13-15.1-.28-30.22,0-10.74,0-21.48c.47-5.63,2-6.66,7.53-5.83,6.56,1,11.5,4.65,16.07,9.08C57,34.9,59.18,44.51,58.91,54.8ZM40.54,92.23c.56-.6,1.18-1.15,1.73-1.72A38.72,38.72,0,0,0,45.39,87a45.5,45.5,0,0,0,7-15c3.58-12.41,5.25-24.84-.16-37.21-3.54-8.1-9.54-13-18.34-14.53-2.44-.41-3.07.28-3,2.55.11,3.57,0,7.15.06,10.72.22,20.26.52,40.5.6,60.76,0,3.07,1.23,2.78,3.13,2a8.58,8.58,0,0,0,3-1.75c.58-.63,1.58-.67,2.09-1.36A9.05,9.05,0,0,1,40.54,92.23Z"/><path class="cls-1" d="M31.61,111.38c0-6.14,1.6-7.17,7.33-4.71,11.27,4.84,16.41,19.39,11.2,31.8a28.26,28.26,0,0,1-14,15c-2.62,1.28-3.1.59-3.15-2-.16-8.88-.44-17.76-.74-26.63C32.12,120.36,31.83,115.87,31.61,111.38ZM34,152.25c10.79-4.55,17.47-15.48,16.62-25.61-.75-8.9-6.58-16.86-13.9-19.1-2.3-.7-3.41-.43-3.3,2.39.3,7.68.46,15.37.57,23.06C34.08,139.19,34,145.4,34,152.25Z"/><path class="cls-4" d="M53.61,46.46c-.93-10.07-4.77-19.08-15.16-23.34a23.57,23.57,0,0,0-3-.9c-2.2-.57-3,.19-3,2.57.17,14.31.18,28.63.32,42.95.07,7.82.27,15.64.47,23.46,0,1.1-.63,2.65.59,3.23S36,93.74,37,93.1c.63-.42,3.85-3.46,5.92-5.35C51.57,75.39,55,61.42,53.61,46.46Z"/><path class="cls-1" d="M52.23,34.77c-3.54-8.1-9.54-13-18.34-14.53-2.44-.41-3.07.28-3,2.55.11,3.57,0,7.15.06,10.72.22,20.26.52,40.5.6,60.76,0,3.07,1.23,2.78,3.13,2C44.52,92,49.55,81.77,52.39,72,56,59.57,57.64,47.14,52.23,34.77Zm-9.35,53c-2.07,1.89-5.29,4.93-5.92,5.35-1,.64-2,1.87-3.09,1.33s-.56-2.13-.59-3.23c-.2-7.82-.4-15.64-.47-23.46-.14-14.32-.15-28.64-.32-42.95,0-2.38.76-3.14,3-2.57a23.57,23.57,0,0,1,3,.9c10.39,4.26,14.23,13.27,15.16,23.34C55,61.42,51.57,75.39,42.88,87.75Z"/></g></g></svg>