<svg xmlns="http://www.w3.org/2000/svg" width="89.88" height="170.05" viewBox="0 0 89.88 170.05"><defs><style>.cls-1{fill:#98ac48;}.cls-2{fill:#fefefd;}.cls-3{fill:#b2cc4a;}</style></defs><g id="Layer_2" data-name="Layer 2"><g id="Layer_1-2" data-name="Layer 1"><path class="cls-1" d="M26.05,0c2.4-.13,2,1.87,2.12,3.31,1.06,9.34,1.92,18.71,3.12,28,3,23.37,6.91,46.62,10.85,69.85,2.21,13.05,4.4,26.11,6.46,39.19.35,2.22.84,2.65,3.17,2.17A311,311,0,0,0,82,134.77c2.74-.86,4-.52,4.48,2.65.88,6.28,2.06,12.53,3.27,18.77.43,2.2-.15,3.23-2.38,3.51A531.09,531.09,0,0,0,31,169.91c-2.69.64-2.82-.93-3.07-2.73q-2.14-15.74-4.3-31.48c-3.83-27.94-8.39-55.77-14-83.42Q5.22,30.31.24,8.43C-.4,5.56.15,4.83,3,4.46A173.79,173.79,0,0,0,26.05,0ZM88,156c-1.09-6.12-2.21-12.24-3.25-18.37-.4-2.34-1.76-1.29-2.91-.94-10.1,3-20.32,5.55-30.62,7.82-2.61.57-3.66.15-4.12-2.82-2.59-16.6-5.47-33.15-8.19-49.72C34.14,63.09,29.13,34.28,26.69,5.11,26.45,2.18,25.41,1.94,23,2.44,17.34,3.63,11.66,4.86,5.93,5.63c-3.63.49-4.26,1.63-3.41,5.28Q14.19,61,21.8,111.82c2.67,17.65,5,35.37,7.37,53.07.33,2.43,1.12,3.47,3.79,2.83,17.45-4.15,35.11-7.15,52.87-9.55C87.15,158,88.19,157.67,88,156Z"/><path class="cls-2" d="M88,156c.22,1.69-.82,2-2.14,2.19-17.76,2.4-35.42,5.4-52.87,9.55-2.67.64-3.46-.4-3.79-2.83-2.4-17.7-4.7-35.42-7.37-53.07Q14.11,61,2.52,10.91C1.67,7.26,2.3,6.12,5.93,5.63c5.73-.77,11.41-2,17.08-3.19,2.4-.5,3.44-.26,3.68,2.67,2.44,29.17,7.45,58,12.19,86.84,2.72,16.57,5.6,33.12,8.19,49.72.46,3,1.51,3.39,4.12,2.82,10.3-2.27,20.52-4.79,30.62-7.82,1.15-.35,2.51-1.4,2.91.94C85.76,143.74,86.88,149.86,88,156Zm-3.54-2.18c-.73-3.94-1.57-7.43-2-11-.28-2.6-1.14-2.93-3.48-2.15-9,3-18.31,4.89-27.57,6.92-4.64,1-6.55-.18-7.3-4.67-2.7-16.26-5.29-32.55-8.06-48.81C31.25,65.84,26.59,37.53,23.7,9c-.26-2.59-1.12-3.12-3.44-2.59A69,69,0,0,1,9.41,8.45C5.94,8.68,5.62,10.13,6.29,13c6.87,29.61,12.4,59.48,17.25,89.5,3.16,19.58,5.81,39.24,8.42,58.91.37,2.8,1.17,3.06,3.64,2.49q9.81-2.26,19.73-4c8.56-1.52,17.17-2.75,25.73-4.26C82.3,155.4,84.58,156,84.43,153.8Z"/><path class="cls-3" d="M84.43,153.8c.15,2.23-2.13,1.6-3.37,1.82-8.56,1.51-17.17,2.74-25.73,4.26q-9.91,1.77-19.73,4c-2.47.57-3.27.31-3.64-2.49-2.61-19.67-5.26-39.33-8.42-58.91C18.69,72.49,13.16,42.62,6.29,13c-.67-2.88-.35-4.33,3.12-4.56A69,69,0,0,0,20.26,6.38c2.32-.53,3.18,0,3.44,2.59,2.89,28.56,7.55,56.87,12.37,85.15,2.77,16.26,5.36,32.55,8.06,48.81.75,4.49,2.66,5.69,7.3,4.67,9.26-2,18.55-3.94,27.57-6.92,2.34-.78,3.2-.45,3.48,2.15C82.86,146.37,83.7,149.86,84.43,153.8Z"/></g></g></svg>