<svg xmlns="http://www.w3.org/2000/svg" width="152.8" height="187.96" viewBox="0 0 152.8 187.96"><defs><style>.cls-1{fill:#98ac48;}.cls-2{fill:#fdfdfd;}.cls-3{fill:#b3cd4b;}</style></defs><g id="Layer_2" data-name="Layer 2"><g id="Layer_1-2" data-name="Layer 1"><path class="cls-1" d="M112.15,76.7Q90.76,122.38,72,169.19c-3,7.51-1.25,6.61-9.14,4.32-4.07-1.18-8.07-2.58-12.17-3.63-2.74-.71-3.83-1.8-3.41-4.94,2.4-18.21,4.54-36.45,6.83-54.66,1.67-13.34,3.45-26.66,5.15-40a6.55,6.55,0,0,0-.69-3.91C56.71,73,54.79,79.54,53,86.14c-7,25.77-14.81,51.34-20.12,77.56-.44,2.18-1.22,3.08-3.79,2.47-8.88-2.12-17.82-4-26.78-5.78C0,159.92-.5,159.23.48,157,21.77,107.89,34.79,56.19,48.15,4.59c1.4-5.38,1.32-5.37,6.2-3.33a183.94,183.94,0,0,0,29.79,9.66c3.1.72,4.37,1.72,3.87,5.26-2.7,19.1-5.17,38.23-7.66,57.36-1.56,11.9-3,23.81-4.59,36.24,1.67-1.49,2-3.2,2.69-4.69C90.31,77.92,101,50.28,111.16,22.45c1.84-5,1.84-4.94,6.91-3.19,10.14,3.49,20.39,6.64,31,8.37,3.19.53,4.49,1.33,3.28,5.05Q135.57,84.45,121.8,137.12c-4.08,15.7-7.79,31.49-10.61,47.47-.57,3.22-1.58,3.9-4.68,3-6.87-2-13.81-3.7-20.79-5.18-3.29-.7-3.52-2-2.6-4.92,10-32,19.68-64,28.85-96.23.36-1.28.65-2.58,1-3.87.42-.73.85-1.47.12-2.27ZM63.75,46.05C64,50.18,63,54,62.55,57.79c-2.81,22-5.69,44.06-8.5,66.09-1.7,13.33-3.25,26.68-5,40-.38,2.84.5,4,3.24,4.68a72.52,72.52,0,0,1,11.35,3.56c3.79,1.59,5.38.54,6.86-3.25C84.32,133.45,99.88,98.78,116,64.36c.55-1.18.6-3,2.44-3.2.8.76.35,1.51.15,2.24-1.61,5.9-3.16,11.81-4.83,17.69Q100.05,129.21,85,176.93c-.81,2.58-.48,3.63,2.37,4.2a160.67,160.67,0,0,1,17.33,4.31c3.77,1.22,4.78-.06,5.34-3.5,2.35-14.31,5.81-28.39,9.4-42.42C128.57,104,139,68.81,150.16,33.88c1.06-3.32.48-4.27-2.95-4.87a178.32,178.32,0,0,1-27.93-7.61C114,19.56,114,19.57,112,25c-11.07,30.35-22.88,60.39-36,89.91-.51,1.13-.52,2.89-2.23,3.09-.75-.78-.47-1.44-.39-2.09,4.25-32.84,8.45-65.7,12.82-98.53.43-3.23-.44-4.28-3.53-5A175,175,0,0,1,54,2.89c-2.95-1.3-3.64-.49-4.38,2.4-13.15,51.1-26.18,102.25-47,150.93-.88,2.07-.16,2.49,1.56,2.85q12,2.55,24.05,5.19c2,.43,2.9-.2,3.24-2.27.54-3.28,1.28-6.52,2.07-9.75C42,117.49,52.2,83.23,61.8,48.79,62.06,47.86,62.06,46.67,63.75,46.05Z"/><path class="cls-2" d="M63.75,46.05c-1.69.62-1.69,1.81-2,2.74C52.2,83.23,42,117.49,33.57,152.24c-.79,3.23-1.53,6.47-2.07,9.75-.34,2.07-1.26,2.7-3.24,2.27q-12-2.64-24-5.19c-1.72-.36-2.44-.78-1.56-2.85,20.83-48.68,33.86-99.83,47-150.93.74-2.89,1.43-3.7,4.38-2.4a175,175,0,0,0,28.62,9.43c3.09.76,4,1.81,3.53,5-4.37,32.83-8.57,65.69-12.82,98.53-.08.65-.36,1.31.39,2.09,1.71-.2,1.72-2,2.23-3.09C89.11,85.37,100.92,55.33,112,25c2-5.41,2-5.42,7.29-3.58A178.32,178.32,0,0,0,147.21,29c3.43.6,4,1.55,2.95,4.87C139,68.81,128.57,104,119.47,139.52c-3.59,14-7,28.11-9.4,42.42-.56,3.44-1.57,4.72-5.34,3.5a160.67,160.67,0,0,0-17.33-4.31c-2.85-.57-3.18-1.62-2.37-4.2Q100,129.19,113.76,81.09c1.67-5.88,3.22-11.79,4.83-17.69.2-.73.65-1.48-.15-2.24-1.84.24-1.89,2-2.44,3.2C99.88,98.78,84.32,133.45,70.49,168.87c-1.48,3.79-3.07,4.84-6.86,3.25a72.52,72.52,0,0,0-11.35-3.56c-2.74-.65-3.62-1.84-3.24-4.68,1.76-13.32,3.31-26.67,5-40,2.81-22,5.69-44.06,8.5-66.09C63,54,64,50.18,63.75,46.05Zm40.73,136c2.51.68,2.45-1.14,2.78-2.74,3.81-19,8.17-37.9,13.37-56.58,4.09-14.69,7.77-29.51,12.06-44.14s9-28.92,13.66-43.32c.74-2.29.2-3.17-2-3.58a168.08,168.08,0,0,1-25.6-7.12c-2.3-.82-3.1-.28-3.92,2-4.08,11.11-8.31,22.16-12.55,33.21-7.47,19.48-15.61,38.68-24,57.79-1,2.28-2.28,4.48-5.27,3.75-2.74-.67-3.22-3-2.93-5.36Q72,100.47,74,85c2.87-22.29,5.74-44.58,8.75-66.85.27-2-.32-2.46-2-2.91C72.28,13,64,10.32,55.78,7.2,53.32,6.26,52.62,7,52,9.34,49.55,19,46.79,28.55,44.3,38.19c-10.11,39.16-21.5,77.89-37,115.3-1,2.39-.23,3.06,1.83,3.49,5.45,1.12,10.91,2.15,16.31,3.46,2.36.58,3.23,0,3.71-2.37,3-15.11,7.28-29.91,11.23-44.79C46.31,91,53.22,68.93,58.77,46.51c.54-2.22,1.89-4.26,4.8-3.63,2.6.57,3.69,2.38,3.61,5,0,.66-.22,1.31-.3,2L60.07,102c-2.06,15.82-3.89,31.68-6.26,47.45s-2.62,15.73,9.91,19.24c.13,0,.24.1.37.15,1.79.72,3,.35,3.61-1.69,1-3.14,2-6.28,3.33-9.31q8.72-20.43,17.59-40.81,12.07-27.91,25-55.41c1.27-2.69,3-4.78,6.08-3.54s2.52,3.86,1.83,6.49c-6,22.89-12.9,45.53-19.74,68.18-4.19,13.87-8.45,27.72-12.66,41.59-.47,1.55-1.67,3.45,1,4.16C95,179.76,99.73,180.89,104.48,182.06Z"/><path class="cls-3" d="M104.48,182.06c-4.75-1.17-9.52-2.3-14.26-3.53-2.71-.71-1.51-2.61-1-4.16,4.21-13.87,8.47-27.72,12.66-41.59,6.84-22.65,13.71-45.29,19.74-68.18.69-2.63,1.19-5.3-1.83-6.49s-4.81.85-6.08,3.54q-13,27.48-25,55.41Q79.79,137.45,71,157.87c-1.29,3-2.34,6.17-3.33,9.31-.65,2-1.82,2.41-3.61,1.69-.13-.05-.24-.11-.37-.15-12.53-3.51-12.29-3.47-9.91-19.24S58,117.85,60.07,102l6.81-52.22c.08-.66.27-1.31.3-2,.08-2.58-1-4.39-3.61-5-2.91-.63-4.26,1.41-4.8,3.63C53.22,68.93,46.31,91,40.39,113.28c-4,14.88-8.19,29.68-11.23,44.79-.48,2.38-1.35,3-3.71,2.37-5.4-1.31-10.86-2.34-16.31-3.46-2.06-.43-2.82-1.1-1.83-3.49,15.49-37.41,26.88-76.14,37-115.3C46.79,28.55,49.55,19,52,9.34c.6-2.37,1.3-3.08,3.76-2.14C64,10.32,72.28,13,80.71,15.27c1.67.45,2.26.89,2,2.91C79.69,40.45,76.82,62.74,74,85q-2,15.43-3.83,30.89c-.29,2.4.19,4.69,2.93,5.36,3,.73,4.27-1.47,5.27-3.75,8.37-19.11,16.51-38.31,24-57.79,4.24-11.05,8.47-22.1,12.55-33.21.82-2.23,1.62-2.77,3.92-2a168.08,168.08,0,0,0,25.6,7.12c2.18.41,2.72,1.29,2,3.58-4.67,14.4-9.4,28.79-13.66,43.32s-8,29.45-12.06,44.14c-5.2,18.68-9.56,37.56-13.37,56.58C106.93,180.92,107,182.74,104.48,182.06Z"/></g></g></svg>