<svg xmlns="http://www.w3.org/2000/svg" width="83.25" height="167.89" viewBox="0 0 83.25 167.89"><defs><style>.cls-1{fill:#98ac48;}.cls-2{fill:#fdfdfc;}.cls-3{fill:#b3cd4c;}</style></defs><g id="Layer_2" data-name="Layer 2"><g id="Layer_1-2" data-name="Layer 1"><path class="cls-1" d="M83.19,27c-1.18,27-3,54-6.49,80.83-2.1,16-5.92,31.5-15.4,45-9.75,14-27.71,19-42.69,11.6C9.3,159.9,5,151.39,2.57,141.88c-3.73-14.38-2.71-29-1.23-43.49C4.6,66.33,11.56,34.89,17.75,3.33,18.24.83,19.11-.34,22,.09c6.3,1,12.64,1.73,19,2.28C44.14,2.65,44.54,4,44,6.76c-3.66,19.65-7.56,39.26-10.7,59-3.37,21.18-7,42.38-6.08,64a27.74,27.74,0,0,0,1.9,9.3c1.69,4.2,5,4.75,7.94,1.27,3.63-4.35,5.54-9.62,7.29-14.91,4.83-14.55,7-29.59,8.44-44.79,2.35-25.07,4.34-50.17,4.9-75.37C57.77,2.87,58.65,2,61,2c6.26,0,12.52-.08,18.77-.29,2.6-.09,3.49.85,3.44,3.46C83.1,12.43,83.19,19.72,83.19,27ZM81.54,16.76c0-3.58-.11-7.16,0-10.74.09-2.1-.63-2.77-2.73-2.67q-8.17.36-16.36.38c-2.08,0-3.11.46-3.15,2.84-.3,19-1.63,37.86-3.29,56.74-1.46,16.61-2.51,33.28-6.43,49.58C47.42,122,45,131.14,40,139.24c-1.7,2.73-3.73,5.43-7.54,4.88s-4.66-3.61-5.51-6.57a52.58,52.58,0,0,1-1.67-16.93c.63-15.1,2.6-30.08,4.75-45,3.27-22.8,7.79-45.39,12.17-68,.52-2.7-.23-3.46-2.86-3.69-5.55-.47-11.11-1.12-16.62-2-2.37-.38-3,.45-3.38,2.52-7,35.58-15,71-17.29,107.32-.65,10.51-.24,21,2.61,31.15C7,151.43,11,159,19.49,163.05a32.15,32.15,0,0,0,40.3-10.87c7.56-10.76,11.59-22.93,13.72-35.68C79,83.49,80.36,50.13,81.54,16.76Z"/><path class="cls-2" d="M81.54,16.76c-1.18,33.37-2.54,66.73-8,99.74-2.13,12.75-6.16,24.92-13.72,35.68a32.15,32.15,0,0,1-40.3,10.87C11,159,7,151.43,4.62,142.9,1.77,132.71,1.36,122.26,2,111.75,4.26,75.42,12.32,40,19.3,4.43c.41-2.07,1-2.9,3.38-2.52,5.51.88,11.07,1.53,16.62,2,2.63.23,3.38,1,2.86,3.69-4.38,22.61-8.9,45.2-12.17,68-2.15,14.94-4.12,29.92-4.75,45a52.58,52.58,0,0,0,1.67,16.93c.85,3,1.84,6,5.51,6.57S38.26,142,40,139.24c5.06-8.1,7.46-17.2,9.66-26.35,3.92-16.3,5-33,6.43-49.58,1.66-18.88,3-37.78,3.29-56.74,0-2.38,1.07-2.83,3.15-2.84q8.17,0,16.36-.38c2.1-.1,2.82.57,2.73,2.67C81.43,9.6,81.54,13.18,81.54,16.76Zm-3.19,1.06c-.46-3.52,1.53-8.06-.86-10.31-2.17-2-6.62-.4-10-.53-.67,0-1.34.07-2,0-2.29-.26-2.95.8-3,3-.13,15.24-1.25,30.43-2.53,45.6-1.53,18.06-2.48,36.2-6.32,54-2.35,10.88-5,21.71-10.94,31.34-2.4,3.86-5.43,7.09-10.54,6.44s-7-4.38-8.21-8.65a54.66,54.66,0,0,1-1.88-19.28A565.18,565.18,0,0,1,30.17,54c2.74-14.42,5.36-28.87,8.1-43.29.45-2.35.26-3.73-2.68-3.83a51.86,51.86,0,0,1-8.67-1.14c-3.23-.67-4.65.19-5.32,3.67C16.19,37.4,9.93,65.29,6.8,93.73c-1.72,15.68-3.16,31.35.46,47,6.11,26.38,31.58,26.5,44.37,15.52,7.74-6.64,11.74-15.58,14.84-25,4.61-13.93,6-28.4,7.46-42.91C76.24,64.9,77.59,41.39,78.35,17.82Z"/><path class="cls-3" d="M78.35,17.82c-.76,23.57-2.11,47.08-4.42,70.56-1.43,14.51-2.85,29-7.46,42.91-3.1,9.39-7.1,18.33-14.84,25-12.79,11-38.26,10.86-44.37-15.52-3.62-15.66-2.18-31.33-.46-47C9.93,65.29,16.19,37.4,21.6,9.36c.67-3.48,2.09-4.34,5.32-3.67a51.86,51.86,0,0,0,8.67,1.14c2.94.1,3.13,1.48,2.68,3.83C35.53,25.08,32.91,39.53,30.17,54a565.18,565.18,0,0,0-8.12,65.45,54.66,54.66,0,0,0,1.88,19.28c1.24,4.27,3.24,8,8.21,8.65s8.14-2.58,10.54-6.44c6-9.63,8.59-20.46,10.94-31.34,3.84-17.79,4.79-35.93,6.32-54,1.28-15.17,2.4-30.36,2.53-45.6,0-2.19.68-3.25,3-3,.66.08,1.33,0,2,0,3.43.13,7.88-1.5,10,.53C79.88,9.76,77.89,14.3,78.35,17.82Z"/></g></g></svg>