<svg xmlns="http://www.w3.org/2000/svg" width="93.45" height="79.33" viewBox="0 0 93.45 79.33"><defs><style>.cls-1{fill:#8faf10;}.cls-2{fill:#fcfdfc;}.cls-3{fill:#fbfdfc;}.cls-4{fill:#37c7aa;}.cls-5{fill:#fafcfa;}.cls-6{fill:#f8fcfa;}.cls-7{fill:#91b014;}.cls-8{fill:#96b420;}</style></defs><g id="Layer_2" data-name="Layer 2"><g id="Layer_1-2" data-name="Layer 1"><path class="cls-1" d="M52.36,64.9c-2.26-6.44-4.28-13-6.41-19.46Q39.26,25,32.56,4.63c-1.73-5.26-2.22-5.48-7.2-3.42C22.56,2.37,19.74,3.47,17,4.64c-4.61,2-4.85,2.51-3.07,7.05,1,2.56,1.95,5.16,3.08,7.68.9,2,.77,2.74-1.73,2.71C9.88,22,6,24.79,3.18,29.13A21.3,21.3,0,0,0,0,42,35.22,35.22,0,0,0,2.38,55.07C4.74,62,7.79,68.47,13.12,73.69c7.28,7.13,15.19,7.52,23.1,1.06.39-.32.91-.93,1.22-.85,4.57,1.2,8-2,12-3C52.64,70.08,53.49,68.1,52.36,64.9ZM19.62,36.46c2-.83,3.33.65,4.22,2.1,3.82,6.2,6.57,12.82,7.37,19.2-.11,2.76.32,5-1.91,5.7S26,62.08,25.08,60.64a54.72,54.72,0,0,1-7.33-19.42C17.39,39.41,17.55,37.33,19.62,36.46Z"/><path class="cls-1" d="M93.25,48.94c-2.72-8.53-5.66-9.88-13.46-6.07-1.77.87-3.57,1.68-5.41,2.39a9.47,9.47,0,0,1-3.06.61,2.79,2.79,0,0,1-2.83-1.8c-.39-1.4,1.21-1.49,2-1.91,4.43-2.31,8.91-4.51,13.38-6.75,1.6-.81,3-1.81,2.49-3.93C84.32,23.54,81.68,15.85,75.9,9.7A16.9,16.9,0,0,0,63.64,4.13a19.26,19.26,0,0,0-19,15.41c-2.82,14.19.9,26.89,10.6,37.61a16.53,16.53,0,0,0,16.16,5.31c7.78-1.54,14.39-5.64,20.8-10.06A2.8,2.8,0,0,0,93.25,48.94ZM63.37,30.47c-1.24-.23-1.71-1.32-1.92-2.45a17.2,17.2,0,0,1-.28-3.79A3.09,3.09,0,0,1,61.4,23c1.54-3.26,5,3.59,5.21,5C66.81,29.65,64.9,30.75,63.37,30.47Z"/><path class="cls-2" d="M51,65.61c-1.33-3.28-2.26-6.71-3.36-10.09C42.14,38.68,36.54,21.86,31.22,5c-1.09-3.49-2.41-4-5.5-2.45a89.37,89.37,0,0,1-9.09,3.8c-2.21.84-2.67,2-1.68,4.22,1.89,4.27,3.46,8.67,5.22,13.19C7.5,23.17,1.56,28.77,1.52,41.23c0,11.23,4.11,21,11,29.75a18.27,18.27,0,0,0,6.69,5.44c4.43,2,8.89,2.31,13.23-.25,2.63-1.54,4-6,8.32-3.57.15.08.48-.15.73-.25,2.58-1,5.13-2,7.74-2.94C51.22,68.72,51.88,67.8,51,65.61Zm-27.16-27c3.82,6.2,6.57,12.82,7.37,19.2-.11,2.76.32,5-1.91,5.7S26,62.08,25.08,60.64a54.72,54.72,0,0,1-7.33-19.42c-.36-1.81-.2-3.89,1.87-4.76S23,37.11,23.84,38.56Z"/><path class="cls-3" d="M88.21,43c-.92-1.7-1.93-1.8-3.51-1-3.42,1.69-6.88,3.3-10.36,4.86A5.48,5.48,0,0,1,67.8,45.7c-1.77-1.69-2.36-2.83.55-4.12,4.81-2.14,9.44-4.69,14.15-7,1.46-.73,2.91-1.4,2.31-3.49-2.18-7.64-4.64-15.16-10.55-20.89a14.85,14.85,0,0,0-14.91-4c-9,2.3-14.22,10-14.18,23.64a43.13,43.13,0,0,0,8.59,23.67c5.87,7.77,13.46,9.83,22.4,6.17a59.17,59.17,0,0,0,9.21-4.53C94.25,49.47,93.06,52,88.21,43ZM61.09,25.52c.16-1.4-.18-3.5,1.58-3,2.39.66,3.66,3.1,3.94,5.45.23,1.89-2.26,2.82-3.25,2.57C60.91,29.9,61.66,27.2,61.09,25.52Z"/><path class="cls-4" d="M47.9,63.16C42.26,46.62,37,30,31.58,13.33,28.37,3.4,28.4,3.39,19,7.77a2.79,2.79,0,0,1-.37.14c-1.63.49-1.82,1.38-1.16,2.93,1.8,4.23,3.43,8.54,5.12,12.82.41,1.06,1.43,2.18.6,3.28-1,1.38-2.18,0-3.16-.36a13.28,13.28,0,0,0-4.26-.72c-6-.17-10.71,4-11.66,11.1C2.34,50,6.88,61.16,15.37,70.64c7.19,8,15.25,6.84,20.76-2.47,1.1-1.86,2.08-2.71,2.94,0,.76,2.38,2,2.27,3.82,1.32a8.35,8.35,0,0,1,2.22-.82C48.33,67.94,49.06,66.59,47.9,63.16ZM23.84,38.56c3.82,6.2,6.57,12.82,7.37,19.2-.11,2.76.32,5-1.91,5.7S26,62.08,25.08,60.64a54.72,54.72,0,0,1-7.33-19.42c-.36-1.81-.2-3.89,1.87-4.76S23,37.11,23.84,38.56Z"/><path class="cls-4" d="M87.73,46.57c-.81-1.46-1.38-3.16-3.81-1.76a62.41,62.41,0,0,1-8.58,4c-4.41,1.73-7.6.69-10.39-3-1.9-2.47-2.14-4.21,1.24-5.7,4.82-2.12,9.44-4.67,14.17-7,1.36-.67,2.52-1.17,1.88-3.19C80.51,24.4,78.58,19,75,14.27c-4.29-5.7-9.73-7.66-15.87-5.75C51.35,10.94,47.33,17.39,47.4,27.4c.08,10.29,4.1,21,10.2,27.06,4.27,4.24,9.27,5.8,15.17,4a64.67,64.67,0,0,0,14.84-7.27C90.15,49.61,88.57,48.09,87.73,46.57ZM66.61,28c.23,1.89-2.26,2.82-3.25,2.57-2.45-.62-1.7-3.32-2.27-5,.16-1.4-.18-3.5,1.58-3C65.06,23.16,66.33,25.6,66.61,28Z"/><path class="cls-5" d="M26.17,35.72c-1.89-2.55-4.46-4.14-7.89-2.72s-4.33,4-4.08,7.34c.63,8.3,3.77,15.75,8.11,22.72,1.83,3,4.44,5.15,8.22,3.91s4.38-4.52,4.49-9.2C33.78,50.58,31.27,42.63,26.17,35.72ZM29.3,63.46c-2.24.72-3.29-1.38-4.22-2.82a54.72,54.72,0,0,1-7.33-19.42c-.36-1.81-.2-3.89,1.87-4.76s3.33.65,4.22,2.1c3.82,6.2,6.57,12.82,7.37,19.2C31.1,60.52,31.53,62.74,29.3,63.46Z"/><path class="cls-6" d="M67,21.07c-1.83-2-4-3.27-6.65-2.08-2.44,1.09-2.94,3.52-3.09,5.79.29,3.63,1.55,6.83,2.61,10.06.53,1.63,2,1.2,2.91.42,2.64-2.35,8-1.87,8.08-6.59C70.91,26,69,23.27,67,21.07Zm-3.67,9.45c-2.45-.62-1.7-3.32-2.27-5,.16-1.4-.18-3.5,1.58-3,2.39.66,3.66,3.1,3.94,5.45C66.84,29.84,64.35,30.77,63.36,30.52Z"/><path class="cls-7" d="M24.93,37.67c-1.27-2-3.05-3.83-5.91-2.54S15.93,39,16.36,41.48A54,54,0,0,0,24,61.56c1.24,1.95,2.77,4.18,5.62,3.38,3-.86,3.11-3.53,3.17-6.13A49,49,0,0,0,24.93,37.67ZM29.3,63.46c-2.24.72-3.29-1.38-4.22-2.82a54.72,54.72,0,0,1-7.33-19.42c-.36-1.81-.2-3.89,1.87-4.76s3.33.65,4.22,2.1c3.82,6.2,6.57,12.82,7.37,19.2C31.1,60.52,31.53,62.74,29.3,63.46Z"/><path class="cls-8" d="M62.42,20.74a2.72,2.72,0,0,0-2,.92,4.37,4.37,0,0,0-.73,2,6.23,6.23,0,0,0-.18,1,5.89,5.89,0,0,0,.17,1.18c.17.77.31,1.55.45,2.34a15.46,15.46,0,0,0,.36,2.23,2.93,2.93,0,0,0,2.14,2.09c1.56.37,5.25-1.21,5.93-4C69.15,26.2,64.5,20.59,62.42,20.74Zm.94,9.78c-2.45-.62-1.7-3.32-2.27-5,.16-1.4-.18-3.5,1.58-3,2.39.66,3.66,3.1,3.94,5.45C66.84,29.84,64.35,30.77,63.36,30.52Z"/></g></g></svg>