<?xml version="1.0" encoding="UTF-8" standalone="no"?>
<svg
   xmlns:osb="http://www.openswatchbook.org/uri/2009/osb"
   xmlns:dc="http://purl.org/dc/elements/1.1/"
   xmlns:cc="http://creativecommons.org/ns#"
   xmlns:rdf="http://www.w3.org/1999/02/22-rdf-syntax-ns#"
   xmlns:svg="http://www.w3.org/2000/svg"
   xmlns="http://www.w3.org/2000/svg"
   xmlns:xlink="http://www.w3.org/1999/xlink"
   xmlns:sodipodi="http://sodipodi.sourceforge.net/DTD/sodipodi-0.dtd"
   xmlns:inkscape="http://www.inkscape.org/namespaces/inkscape"
   version="1.1"
   id="svg2"
   viewBox="0 0 129.24405 143.17682"
   height="143.17683"
   width="129.24405"
   inkscape:version="0.48.4 r9939"
   sodipodi:docname="abelha.svg">
  <sodipodi:namedview
     pagecolor="#ffffff"
     bordercolor="#666666"
     borderopacity="1"
     objecttolerance="10"
     gridtolerance="10"
     guidetolerance="10"
     inkscape:pageopacity="0"
     inkscape:pageshadow="2"
     inkscape:window-width="1600"
     inkscape:window-height="876"
     id="namedview1313"
     showgrid="false"
     fit-margin-top="0"
     fit-margin-left="0"
     fit-margin-right="0"
     fit-margin-bottom="0"
     inkscape:zoom="1.8728938"
     inkscape:cx="-77.667553"
     inkscape:cy="28.07113"
     inkscape:window-x="0"
     inkscape:window-y="1"
     inkscape:window-maximized="1"
     inkscape:current-layer="svg2" />
  <script
     xlink:href="C:\wamp\www\bingo\js/snap.svg-min.js"
     id="script4164" />
  <title
     id="title4162">Bingo das Letras</title>
  <defs
     id="defs4">
    <linearGradient
       osb:paint="solid"
       id="linearGradient12614">
      <stop
         id="stop12616"
         offset="0"
         style="stop-color:#000000;stop-opacity:1;" />
    </linearGradient>
    <linearGradient
       gradientTransform="matrix(-0.19399818,0,0,-0.19399818,259.22818,12173.784)"
       osb:paint="solid"
       id="linearGradient59274">
      <stop
         id="stop59276"
         offset="0"
         style="stop-color:#930033;stop-opacity:1;" />
    </linearGradient>
    <linearGradient
       id="linearGradient4269"
       osb:paint="solid"
       gradientTransform="matrix(110.20782,22.122239,-29.697412,82.096171,6264040.4,4302781.5)">
      <stop
         style="stop-color:#ffffff;stop-opacity:1;"
         offset="0"
         id="stop4271" />
    </linearGradient>
    <linearGradient
       id="linearGradient4251"
       osb:paint="solid"
       gradientTransform="translate(106155.96,125143.42)">
      <stop
         style="stop-color:#555555;stop-opacity:1;"
         offset="0"
         id="stop4253" />
    </linearGradient>
    <linearGradient
       id="linearGradient4241"
       osb:paint="solid"
       gradientTransform="matrix(0.19125385,0,0,0.19125385,-4286.2405,-12057.646)">
      <stop
         style="stop-color:#3fb5ae;stop-opacity:1;"
         offset="0"
         id="stop4243" />
    </linearGradient>
    <linearGradient
       id="linearGradient4231"
       osb:paint="solid"
       gradientTransform="translate(2399.1562,2075.6965)">
      <stop
         style="stop-color:#d1f2a5;stop-opacity:1;"
         offset="0"
         id="stop4233" />
    </linearGradient>
    <linearGradient
       id="linearGradient4221"
       osb:paint="solid"
       gradientTransform="matrix(0.66768435,0,0,0.66768435,-186.89148,394.64653)">
      <stop
         style="stop-color:#effab4;stop-opacity:1;"
         offset="0"
         id="stop4223" />
    </linearGradient>
    <linearGradient
       id="linearGradient4211"
       osb:paint="solid"
       gradientTransform="translate(-699.20463,883.12976)">
      <stop
         style="stop-color:#ffc48c;stop-opacity:1;"
         offset="0"
         id="stop4213" />
    </linearGradient>
    <linearGradient
       id="linearGradient4201"
       osb:paint="solid"
       gradientTransform="matrix(0.35946858,0,0,0.22423084,-331.07911,5516.4706)">
      <stop
         style="stop-color:#ff9f80;stop-opacity:1;"
         offset="0"
         id="stop4203" />
    </linearGradient>
    <linearGradient
       id="linearGradient4191"
       osb:paint="solid"
       gradientTransform="matrix(0.52321996,0,0,0.52321996,2015.4535,3072.5352)">
      <stop
         style="stop-color:#f56991;stop-opacity:1;"
         offset="0"
         id="stop4193" />
    </linearGradient>
    <g
       id="Layer0_0_FILL-7">
      <path
         d="m 350.1,60.5 q -0.61152,1.193359 0.45,-0.05 l -0.45,0.05 m -31.2,-77.7 0.05,0 q 10.78652,-2.541406 21.5,1.1 3.03652,1.009961 5.6,2.7 5.07207,3.389258 8.45,8.4 l 0,-0.05 q 3.62891,5.52949219 6.3,11.5 5.59707,12.463477 1.75,25.55 -4.0873,14.032227 -11.4,26.75 L 351,59 q -0.12695,0.238867 -0.25,0.45 -0.26484,0.453711 -0.2,0.95 0.94707,-1.086328 3.1,-4 6.02852,-7.912695 11,-22.8 4.95781,-14.902344 -1.1,-28.4 -2.77891,-6.17949219 -6.55,-11.9 l 0,0 q -3.72207,-5.489453 -9.3,-9.2 -2.88652,-1.910156 -6.3,-3.05 -11.53652,-3.908398 -23.15,-1.15 l 0.05,-0.05 q -2.88047,0.625391 -2.85,3.7 l 0,0.05 q 0.15449,7.3228516 3.6,14.15 l 0,0.05 q 2.33418,4.4767578 4.2,9.2 5.9709,15.368555 10.25,29.3 4.32695,13.972656 5.65,18.15 1.18848,3.610547 1.45,5.15 -1.50469,-11.185547 -4.3,-22.1 -4.22051,-16.063867 -10.25,-31.6 -1.93418,-4.8767578 -4.35,-9.5 l 0.05,0 q -3.14883,-6.2111328 -3.3,-12.9 l 0,0 q -0.059,-0.577734 0.45,-0.7 z"
         id="path60623"
         inkscape:connector-curvature="0"
         style="fill:#02cbe8;fill-opacity:0.50196078;stroke:none" />
      <path
         d="m 318.95,-17.2 -0.05,0 q -0.50898,0.122266 -0.45,0.7 l 0,0 q 0.15117,6.6888672 3.3,12.9 l -0.05,0 q 2.41582,4.6232422 4.35,9.5 6.02949,15.536133 10.25,31.6 2.79531,10.914453 4.3,22.1 0.0213,0.207031 0.05,0.4 0.1459,1.081055 0.25,2.15 l 9.2,-1.65 0.45,-0.05 0,0 0,-0.05 q -0.0648,-0.496289 0.2,-0.95 0.12305,-0.211133 0.25,-0.45 l 0.15,-0.25 Q 358.4627,46.032227 362.55,32 366.39707,18.913477 360.8,6.45 358.12891,0.47949219 354.5,-5.05 l 0,0.05 q -3.37793,-5.010742 -8.45,-8.4 -2.56348,-1.690039 -5.6,-2.7 -10.71348,-3.641406 -21.5,-1.1 m 26.9,16.4 1.05,-0.6 3.4,13.55 9.5,0.25 1.85,3.1 -2.15,-2.5 -8.9,0.9 1.35,26.05 -0.6,0.65 -2.65,-26.2 -6.95,3.15 q 2.94199,13.556445 1.95,27.15 l -3.75,-26 -3.65,3.2 -0.25,-1.9 0.7,-0.55 0.65,-1.7 q 0.22187,-0.0752 0.45,-0.2 0.64297,-0.157031 1.05,-0.55 0.0555,-0.007 -0.1,-0.25 l -4.25,-6.55 1.75,-0.65 4.4,6.65 1.7,-1.65 5.95,-1.9 -2.5,-13.45 m -13.75,0.6 q 10.2416,-6.0800781 21.6,-2.45 -11.01738,-0.8955078 -20.85,3.7 -0.63008,0.3382812 -1,0.9 -0.95859,1.9154297 -1.75,2.85 l -0.4,-2.45 q 0.88672,-1.61621094 2.4,-2.55 z"
         id="path60625"
         inkscape:connector-curvature="0"
         style="fill:#8febfe;fill-opacity:0.47058824;stroke:none" />
      <path
         d="m 353.7,-2.65 q -11.3584,-3.6300781 -21.6,2.45 -1.51328,0.93378906 -2.4,2.55 l 0.4,2.45 q 0.79141,-0.9345703 1.75,-2.85 0.36992,-0.5617188 1,-0.9 9.83262,-4.5955078 20.85,-3.7 m -6.8,1.25 -1.05,0.6 2.5,13.45 -5.95,1.9 -1.7,1.65 -4.4,-6.65 -1.75,0.65 4.25,6.55 q 0.15547,0.242969 0.1,0.25 -0.40703,0.392969 -1.05,0.55 -0.22813,0.124805 -0.45,0.2 l -0.65,1.7 -0.7,0.55 0.25,1.9 3.65,-3.2 3.75,26 q 0.99199,-13.593555 -1.95,-27.15 l 6.95,-3.15 2.65,26.2 0.6,-0.65 -1.35,-26.05 8.9,-0.9 2.15,2.5 -1.85,-3.1 -9.5,-0.25 -3.4,-13.55 z"
         id="path60627"
         inkscape:connector-curvature="0"
         style="fill:#05dffe;fill-opacity:0.6;stroke:none" />
    </g>
    <g
       id="Layer0_1_FILL-08">
      <path
         d="m 435.65,364.35 0,-0.05 -0.05,0.05 0.05,0 M 389.5,259.3 l -0.1,-0.15 q -0.25,0.25 -2.45,1.9 1.15,-0.65 2.55,-1.75 m -27.4,21.6 1.2,3.25 8.4,0 q -12.15,18.55 -13.05,40.4 -0.5,12.75 5.15,24 8.6,17.25 27.1,22.2 -4.4,-3.7 -8.1,-7.75 -7.3,-8.2 -9,-19.1 6.65,7.8 16.15,11.9 9.35,3.95 19.8,1.9 -5.4,-1.7 -10.7,-4.5 -14.95,-8.05 -18.1,-24.05 l -0.3,-4.55 -1.35,-18.45 q -2.05,7.75 -2.05,15.5 -0.05,23.15 20.8,34.2 -13.3,-3.7 -22.15,-14.25 -1.95,-2.15 -2.55,-4.35 -5.2,-16.45 0.35,-32.1 4.15,-15.65 9.6,-23.4 l -5.85,-8.25 q -1,0.6 -2.3,1.9 l 3.65,5.45 1.5,1.85 q -13.35,22.5 -12,48 0.95,18.9 13,33.35 -2.65,-1.6 -4.35,-2.95 -13.2,-8.75 -14.5,-24.65 -2.3,-29.4 12.85,-54.95 l -0.25,-0.25 -8.45,-0.3 -4.5,-0.1 0,0.05 m -24.15,-0.7 q 2.55,3.15 3.25,7.35 0.25,1.75 -0.9,3.1 -8.1,9.7 -15.95,20.65 -4.6,6.5 -0.65,13.25 3.65,6.35 10.5,9.05 4.7,-4.55 7.8,-10.85 l 1.3,-2.7 q 1.9,-4.2 3.2,-8.5 0,12.35 -4.55,20.25 -2.6,4.5 -3.2,5.25 -1.8,2.15 -4.7,2.8 -3.45,0.7 -7.2,-1.7 -3.95,-2.55 -6.8,-7.55 -5.95,-10.35 -4.65,-18.4 l 19.3,-22.95 -1.85,-13.9 -1.95,-3.45 -0.95,4.5 1.75,11.95 -4.85,5.65 q -11.1,10.4 -18.05,23.35 -1.25,2.35 -1.35,4.75 -0.35,8.6 5.65,13 l 2.45,-5.1 4.35,5.85 q 0.45,4.4 -4.65,6.1 -3.55,1.1 -7.55,-3.8 -5.75,-7.25 -5.6,-16.6 l 0.2,-1.25 q 2.45,-13.4 13.25,-21.1 l -5.45,0 q -4.8,4.65 -7.45,10.4 -2.95,6.25 -3.15,13 -0.3,8.5 4.2,15.65 5.95,9.55 13.15,6.3 5.9,-2.6 5.6,-6.2 4.45,4.15 10.65,4.2 4.55,0.1 7.3,-3.75 12.6,-17.3 6.5,-38.45 -0.65,10 -5.85,18.45 -3.65,5.9 -7.5,11.35 -8.75,-4.55 -8.6,-13.95 0,-1.25 0.7,-2.2 8.2,-10.4 16.4,-20.3 2.65,-3.25 2.35,-7.35 l -6.45,-6.15 m -24.05,46.4 -0.75,2.85 -0.5,0.3 Q 308.6,323 312,315.95 l 1.9,10.65 m 60.8,-124.1 -0.05,-0.2 -0.2,0.05 q -0.05,0.05 0.25,0.15 m 15.7,-12.6 0.2,-0.1 0.05,-0.1 -0.25,0.2 z"
         id="path60630"
         inkscape:connector-curvature="0"
         style="fill:#381c01;stroke:none" />
      <path
         d="m 307.7,338.15 q 4,4.9 7.55,3.8 5.1,-1.7 4.65,-6.1 l -4.35,-5.85 -2.45,5.1 q -6,-4.4 -5.65,-13 0.1,-2.4 1.35,-4.75 6.95,-12.95 18.05,-23.35 -2.1,1.1 -3.1,1.75 -14.95,9.2 -21.65,25.8 -0.15,9.35 5.6,16.6 m 67.4,-62.75 0.05,0 -0.05,-0.05 0,0.05 m 5.2,7.3 -1.5,-1.85 q -15.2,22.85 -14.25,50.3 0.45,13.15 7.95,23.85 l 4.45,6.1 q 1.7,1.35 4.35,2.95 -12.05,-14.45 -13,-33.35 -1.35,-25.5 12,-48 m 35.5,1.95 q 0,4.2 2.8,7.15 0.26211,0.2748 0.5,0.5 1.87207,0.8207 3.8,1.55 1.19785,0.4791 2.45,1.05 l 8.5,2.65 q -3.73652,16.7334 -3.8,29.95 l 0.9,9.8 1.75,9.7 q -0.9,-26.05 9,-49.95 0.65,-1.6 1.35,-3.15 l -27.25,-9.25 z"
         id="path60632"
         inkscape:connector-curvature="0"
         style="fill:#783d01;stroke:none" />
      <path
         d="m 389.35,283.05 -2.1,-5.7 -3.95,4.4 q -5.45,7.75 -9.6,23.4 -5.55,15.65 -0.35,32.1 0.6,2.2 2.55,4.35 8.85,10.55 22.15,14.25 -20.85,-11.05 -20.8,-34.2 0,-7.75 2.05,-15.5 2.5,-12.05 10.05,-23.1 m -13.5,-11.5 0.05,-0.1 -0.1,0.05 0.05,0.05 m -41.15,5.55 -1.85,-1.75 1.85,13.9 -19.3,22.95 q -1.3,8.05 4.65,18.4 2.85,5 6.8,7.55 3.75,2.4 7.2,1.7 2.9,-0.65 4.7,-2.8 0.6,-0.75 3.2,-5.25 4.55,-7.9 4.55,-20.25 -1.3,4.3 -3.2,8.5 l -1.3,2.7 q -3.1,6.3 -7.8,10.85 -6.85,-2.7 -10.5,-9.05 -3.95,-6.75 0.65,-13.25 7.85,-10.95 15.95,-20.65 1.15,-1.35 0.9,-3.1 -0.7,-4.2 -3.25,-7.35 -1.2,-1.5 -3,-2.9 l -0.25,-0.2 m -31.55,-60.95 0.05,0.05 0,-0.05 -0.05,0 m 25.4,35.95 -0.05,-0.05 0,0 0.05,0.05 m 110.25,32.05 -10.55,-3.35 q -20.65,-8 -38.5,-21.35 l -0.25,-0.15 q -1.4,1.1 -2.55,1.75 -1,0.4 -1.8,0.55 -3,0.7 -0.1,1.65 21,15.35 45.4,24 7.3,2.6 15.1,4.2 l 0,16.55 q -0.0514,11.19863 2.8,18.4 2.90137,7.20137 4.85,11 l 5.3,9.5 q -8.45,-29.5 -4.75,-60.05 l -14.95,-2.7 z"
         id="path60634"
         inkscape:connector-curvature="0"
         style="fill:#b45a01;stroke:none" />
      <path
         d="m 375.15,275.4 -0.05,0 -8.5,5.55 8.45,0.3 0.25,0.25 q -15.15,25.55 -12.85,54.95 1.3,15.9 14.5,24.65 L 372.5,355 q -7.5,-10.7 -7.95,-23.85 -0.95,-27.45 14.25,-50.3 l -3.65,-5.45 m -43.45,12.95 -1.75,-11.95 q -2.55,13.25 -12.75,21.65 -0.6,0.55 -1.65,1.15 -10.8,7.7 -13.25,21.1 l -0.2,1.25 q 6.7,-16.6 21.65,-25.8 1,-0.65 3.1,-1.75 l 4.85,-5.65 m 86.9,3.45 q -2.8,-2.95 -2.8,-7.15 l -20.4,-10.9 -4.2,-2.65 q 11.49434,14.00879 27.9,21.2 -0.23789,-0.2252 -0.5,-0.5 z"
         id="path60636"
         inkscape:connector-curvature="0"
         style="fill:#582c01;stroke:none" />
      <path
         d="m 380.65,269.55 2.9,-2.1 0,-0.1 -2.9,2.2 m -48.9,-1.55 0.1,0.25 0.5,-3 -0.6,2.75 0,0 z"
         id="path60638"
         inkscape:connector-curvature="0"
         style="fill:#000000;stroke:none" />
      <path
         d="m 375.9,271.45 -0.05,0.1 1.6,1.95 5.85,8.25 3.95,-4.4 -3.7,-9.9 -2.9,2.1 -0.95,0.75 -0.3,0.15 -3.5,1 z"
         id="path60640"
         inkscape:connector-curvature="0"
         style="fill:#8d4601;stroke:none" />
      <path
         d="m 370,264.25 q -2.15,1.7 -2.15,4.1 7,1.45 12.55,-2.35 0.55,-0.3 1.2,-0.95 l -6.45,-2.55 q -2.95,0 -5.15,1.75 m -37.65,1 -0.5,3 6.8,9.1 -0.5,-6.15 q 1.4,-0.85 2.05,0.55 6.35,13.25 20.5,14.05 l -2.2,-8.65 q 4,0.45 8.2,0.6 1.7,-0.3 3.1,-1.55 l 3.05,-2.75 q -3.7,-0.75 -5.4,-3.35 -0.5,-0.8 0,-1.4 -15.45,6.25 -24.9,-7.2 l -1.5,-2.25 -1.75,5 -6.35,-4.5 q -0.2,2.65 -0.6,5.5 m 53.05,-22.35 -1.6,2.55 -12.2,12 3.25,2.4 q 6.65,1.1 12.25,-2.55 l 1.3,-1.05 -7.25,-5.65 8.2,-2.5 q -3.1,-1.25 -3.95,-5.2 m 0,0 5.55,0.65 q 2.1,0.8 1.7,-3.65 -0.5,-5.6 -5.35,-7.95 l -1.9,10.95 m -26.1,-11.3 q 0.65,-0.35 1.3,-0.7 l -1.95,0.65 -5.3,-8.65 1.05,8.85 -9.35,-3.1 7,9.8 -9.2,2.8 8.7,4 -2.1,-0.05 5.85,1.25 q -5.4,-9.7 4,-14.85 z"
         id="path60642"
         inkscape:connector-curvature="0"
         style="fill:#e27c01;stroke:none" />
      <path
         d="m 331.7,268.1 0.05,-0.1 0,0 0.6,-2.75 q 0.4,-2.85 0.6,-5.5 0.75,-9.7 -0.2,-19.25 -1.55,-16.8 -15.35,-25.3 l -3.25,-1.5 q -3.3,-0.05 -8.6,-0.55 -26.85,1.6 -35.3,27.65 -1.3,3.9 -3.05,7.25 -0.45,0.8 -0.85,2.55 -3.75,16.6 7.55,30 6.4,7.6 14.85,4.7 l 0.15,-0.05 q 8.45,9.65 21.2,13.95 l 5.45,0 q 1.05,-0.6 1.65,-1.15 10.2,-8.4 12.75,-21.65 l 0.95,-4.5 0.8,-3.8 0,0 m -5.2,-39.95 q 3.66758,7.10098 2.95,15.7 l -6.8,-15.7 3.85,0 q -5.35,-3.05 -8.3,0.3 l -1,2.55 -2.7,-2.85 -0.05,-0.05 q -1.85,-1.65 -3.85,-3.15 -3.3,-2.65 -7.4,-2.7 -9.9,-0.05 -12.55,10.15 -6.1,23.5 8.7,42.9 2.05,2.65 4.25,5.3 7.3,8.6 16.2,3.8 l -7.6,-0.75 q 3,0.15 5.5,-0.95 2.65,-1.2 4,-3.75 9.94004,-19.41328 0.5,-39.2 l -4.05,-7.95 q 0.3,-0.4 0.65,-0.75 l 0.45,-0.5 q 7.1,9.75 9.25,21.5 l 0.05,0.05 q 1.5,5.3 1.9,10.3 0.7,3.55 -2.55,14 -3.5,11.8 -14.4,20.25 -4.26133,0.85684 -7.75,-2.3 -7.1125,-6.1125 -14.25,-12.25 l 1.4,-6.95 q -0.1,-7.9 -3.3,-15.05 -5.45,-12.2 -17.95,-14.15 0.6,-2.25 1.3,-4.45 7.25,-22.4 30.2,-25.35 l 0.05,0 q 9.15,0 15.6,3.25 6.5,3.3 7.7,8.75 m -31.9,1.6 q 1.7,-2.95 4.9,-3.6 9.3,-2.25 14.9,6.45 l 5.95,10.65 q 0.45,-0.05 0.5,0.1 0,-0.05 -0.45,0.1 8.4,15.95 0.05,30.85 -2.2,4 -6.15,6.2 -9.25,0 -15.8,-12.6 -1.77188,-3.43809 -3.1,-7.3 -0.21074,-0.22637 -0.45,-0.45 -0.14648,-0.0977 0.15,-0.45 -1.51172,-4.79609 -2.3,-10.25 -0.18477,-0.20195 -0.35,-0.45 -0.0842,-0.0842 0.2,-0.45 -0.66699,-5.21211 -0.7,-11 l 0.3,-1.45 q 0.65,-3.35 2.35,-6.35 m -23.65,41 q -6.35,-11.65 -0.2,-21.65 3.4125,0.7875 6.8,1.55 4.2875,5.2375 8.55,10.45 4.15,7 3.65,15.2 -0.05,0.95 -0.15,1.9 0.25,0.25 0.25,0.35 l -0.3,-0.2 q 0.05,2.05 -1.2,3.45 -1.25,1.4 -3.05,1.35 -2.55,0.15 -4.75,-1.45 -6,-4.35 -9.6,-10.95 z"
         id="path60644"
         inkscape:connector-curvature="0"
         style="fill:#4e2701;stroke:none" />
      <path
         d="m 287.2,279.2 -1.95,-0.65 -3.45,0.15 3.45,1.05 1.95,-0.55 m -18.55,-23.45 1.65,0.35 3,-2.6 -4.65,2.25 m 11.85,1.35 -0.3,-0.3 -0.1,4.85 -3.35,-0.25 -1.55,-6.65 0.1,5.55 -5.8,-0.75 5.45,3.25 1.1,4.35 -4.6,-0.35 5.2,2 1.3,3.95 -5.1,-1.65 7.65,4.6 4.8,-0.55 4.25,3.2 0.3,0.2 q 0,-0.1 -0.25,-0.35 l -5.6,-9.05 5,-0.65 -5.5,-0.5 -0.55,-5.55 3.15,-1.35 -3.3,0.45 -1.4,0.1 -0.9,-4.55 m -1.9,12.9 3.7,-0.8 3.05,5.4 -6.55,-2.2 -0.2,-2.4 m -1.6,-2.4 0,-4.45 4.45,0 0,4.45 -4.45,0 m 24.1,-35.35 q -0.4,0.45 -0.5,1.15 l 2.3,2.2 -0.05,7.1 -6.2,-3.05 -1.45,-2.95 -0.95,1.55 -2,-2.15 -0.3,1.45 2.7,3 0.1,9.15 -1.95,-1.3 q -0.0713,0.0791 -0.15,0.15 -0.28418,0.36582 -0.2,0.45 0.16523,0.24805 0.35,0.45 0.82559,1.07441 2.05,1.85 l 0.75,8.1 q -0.3,0.1 -0.45,0.3 l -0.05,0 q -0.29648,0.35234 -0.15,0.45 0.23926,0.22363 0.45,0.45 2.04766,1.99121 3.75,4.5 0.85,1.15 1.7,2.35 l -1.4,-4.65 6.85,1.1 4.55,8.3 -4.45,-0.2 q -0.2,-1.45 -0.75,-0.6 -0.55,0.75 -0.65,1.9 5.1,3.1 9.4,-0.9 l -3.55,-0.2 -3.2,-8.35 5.6,-1.1 2.75,8.15 -1.2,-8.75 6.1,-4.25 -6.15,3.35 -0.7,-8.25 5.5,-1.7 1.35,-0.65 -1.4,0.05 -5.6,0.35 -0.25,-5.75 3.7,-1 3.05,-0.85 q 0.45,-0.15 0.45,-0.1 -0.05,-0.15 -0.5,-0.1 l -3.4,0.35 -3.35,0.35 1,-4.65 -1.3,-3.1 -1.4,2.4 -7.8,-3.9 -0.3,-1.6 -2.1,-0.9 q -0.45,-0.1 -0.6,0.05 m -4.4,9.2 6.2,2.65 0.7,6.9 -6.1,-0.7 -0.8,-8.85 m 8.1,3.2 6.7,0 0,6.65 -6.7,0 0,-6.65 m -0.3,-1.55 -0.35,-6.55 7.75,2.7 -0.25,4.7 -7.15,-0.85 m 1.15,10.15 6.25,0.05 1.15,8.5 -5.7,0.75 -1.7,-9.3 m -1.75,-0.2 2.05,9.45 -6.15,-1.8 -2.1,-8.75 6.2,1.1 z"
         id="path60646"
         inkscape:connector-curvature="0"
         style="fill:#fe2c2c;stroke:none" />
      <path
         d="m 285.3,283.15 q 1.8,0.05 3.05,-1.35 1.25,-1.4 1.2,-3.45 l -4.25,-3.2 -0.05,3.4 1.95,0.65 -1.95,0.55 0.05,3.4 m -1.8,-15.15 5.5,0.5 -5,0.65 5.6,9.05 q 0.1,-0.95 0.15,-1.9 0.5,-8.2 -3.65,-15.2 l -3.15,1.35 0.55,5.55 m -3.3,-11.2 0.3,0.3 2.3,4.45 3.3,-0.45 q -4.2625,-5.2125 -8.55,-10.45 l 2.65,6.15 m 40.2,-13.35 -3.05,0.85 2.15,6.4 1.4,-0.05 -1.35,0.65 1.35,6.6 q 0.1,1.4 0.1,2.8 0.15,11.05 -6.7,19.8 3.95,-2.2 6.15,-6.2 8.35,-14.9 -0.05,-30.85 m -3.45,0.15 3.4,-0.35 -5.95,-10.65 2.55,11 z"
         id="path60648"
         inkscape:connector-curvature="0"
         style="fill:#980101;stroke:none" />
      <path
         d="m 281.4,261.65 1.4,-0.1 -2.3,-4.45 0.9,4.55 m -1.2,-4.85 -2.65,-6.15 q -3.3875,-0.7625 -6.8,-1.55 -6.15,10 0.2,21.65 3.6,6.6 9.6,10.95 2.2,1.6 4.75,1.45 l -0.05,-3.4 -3.45,-1.05 3.45,-0.15 0.05,-3.4 -4.8,0.55 -7.65,-4.6 5.1,1.65 -1.3,-3.95 -5.2,-2 4.6,0.35 -1.1,-4.35 -5.45,-3.25 5.8,0.75 -0.1,-5.55 1.55,6.65 3.35,0.25 0.1,-4.85 m -9.9,-0.7 -1.65,-0.35 4.65,-2.25 -3,2.6 m 6.7,7.05 0,4.45 4.45,0 0,-4.45 -4.45,0 m 5.3,6.05 -3.7,0.8 0.2,2.4 6.55,2.2 -3.05,-5.4 m 12.85,-9.5 q 0.15,-0.2 0.45,-0.3 l -0.75,-8.1 q -1.22441,-0.77559 -2.05,-1.85 0.78828,5.45391 2.3,10.25 l 0.05,0 m 15.7,12.5 -4.55,-8.3 -6.85,-1.1 1.4,4.65 q -0.85,-1.2 -1.7,-2.35 -1.70234,-2.50879 -3.75,-4.5 1.32812,3.86191 3.1,7.3 6.55,12.6 15.8,12.6 6.85,-8.75 6.7,-19.8 0,-1.4 -0.1,-2.8 l -6.1,4.25 1.2,8.75 -2.75,-8.15 -5.6,1.1 3.2,8.35 3.55,0.2 q -4.3,4 -9.4,0.9 0.1,-1.15 0.65,-1.9 0.55,-0.85 0.75,0.6 l 4.45,0.2 m 10.05,-14.3 -1.35,-6.6 -5.5,1.7 0.7,8.25 6.15,-3.35 m -3.55,-13.6 -3.7,1 0.25,5.75 5.6,-0.35 -2.15,-6.4 m -22.7,-3.75 -2.7,-3 q 0.033,5.78789 0.7,11 0.0787,-0.0709 0.15,-0.15 l 1.95,1.3 -0.1,-9.15 m 11.3,21.95 -2.05,-9.45 -6.2,-1.1 2.1,8.75 6.15,1.8 m 5.95,-9.2 -6.25,-0.05 1.7,9.3 5.7,-0.75 -1.15,-8.5 m -7.75,-16.75 0.35,6.55 7.15,0.85 0.25,-4.7 -7.75,-2.7 m 7.35,8.1 -6.7,0 0,6.65 6.7,0 0,-6.65 m -8.6,-0.55 -6.2,-2.65 0.8,8.85 6.1,0.7 -0.7,-6.9 m -2.3,-10.7 q 0.1,-0.7 0.5,-1.15 0.15,-0.15 0.6,-0.05 l 2.1,0.9 0.3,1.6 7.8,3.9 1.4,-2.4 1.3,3.1 -1,4.65 3.35,-0.35 -2.55,-11 q -5.6,-8.7 -14.9,-6.45 -3.2,0.65 -4.9,3.6 -1.7,3 -2.35,6.35 l 2,2.15 0.95,-1.55 1.45,2.95 6.2,3.05 0.05,-7.1 -2.3,-2.2 z"
         id="path60650"
         inkscape:connector-curvature="0"
         style="fill:#cc0000;stroke:none" />
      <path
         d="m 292.9,275.15 -1.4,6.95 q 7.1375,6.1375 14.25,12.25 l -12.85,-19.2 m 10.3,-59 0,0.05 11.4,11.75 -0.1,0.2 2.7,2.85 1,-2.55 q 2.95,-3.35 8.3,-0.3 -1.2,-5.45 -7.7,-8.75 -6.45,-3.25 -15.6,-3.25 m 25.3,35.9 0,0 q -2.15,-11.75 -9.25,-21.5 l -0.45,0.5 q -0.35,0.35 -0.65,0.75 l 4.05,7.95 6.3,12.3 m 0.95,-8.2 q 0.71758,-8.59902 -2.95,-15.7 l -3.85,0 6.8,15.7 z"
         id="path60652"
         inkscape:connector-curvature="0"
         style="fill:#985301;stroke:none" />
      <path
         d="m 314.45,228.1 0.05,0.05 0.1,-0.2 -0.15,0.15 z"
         id="path60654"
         inkscape:connector-curvature="0"
         style="fill:#894401;stroke:none" />
      <path
         d="m 328.55,252.1 -0.05,-0.05 -6.3,-12.3 q 9.44004,19.78672 -0.5,39.2 -1.35,2.55 -4,3.75 -2.5,1.1 -5.5,0.95 l 7.6,0.75 q -8.9,4.8 -16.2,-3.8 -2.2,-2.65 -4.25,-5.3 -14.8,-19.4 -8.7,-42.9 2.65,-10.2 12.55,-10.15 4.1,0.05 7.4,2.7 2,1.5 3.85,3.15 l 0.15,-0.15 -11.4,-11.75 -0.05,-0.05 q -22.95,2.95 -30.2,25.35 -0.7,2.2 -1.3,4.45 12.5,1.95 17.95,14.15 3.2,7.15 3.3,15.05 l 12.85,19.2 q 3.48867,3.15684 7.75,2.3 10.9,-8.45 14.4,-20.25 3.25,-10.45 2.55,-14 -0.4,-5 -1.9,-10.3 z"
         id="path60656"
         inkscape:connector-curvature="0"
         style="fill:#cd7101;stroke:none" />
      <path
         d="m 389.6,230.8 4.95,-7.45 -3.4,0 q -1.55,0 -2.7,2.55 -1.15,2.55 -1.15,6.05 4.85,2.35 5.35,7.95 0.4,4.45 -1.7,3.65 l -5.55,-0.65 q 0.85,3.95 3.95,5.2 l -8.2,2.5 7.25,5.65 -1.3,1.05 q -5.6,3.65 -12.25,2.55 l 0.3,2.65 6.45,2.55 q -0.65,0.65 -1.2,0.95 -5.55,3.8 -12.55,2.35 l -0.4,0.35 q -0.5,0.6 0,1.4 1.7,2.6 5.4,3.35 l -3.05,2.75 q -1.4,1.25 -3.1,1.55 -4.2,-0.15 -8.2,-0.6 l 2.2,8.65 q -14.15,-0.8 -20.5,-14.05 -0.65,-1.4 -2.05,-0.55 l 0.5,6.15 -6.8,-9.1 -0.1,-0.25 -0.05,0.1 0,0 -0.8,3.8 1.95,3.45 1.85,1.75 0.25,0.2 q 1.8,1.4 3,2.9 l 6.45,6.15 -2.1,-6.35 q 8.95,11.2 21.9,6.6 l -0.9,-2.45 -1.2,-3.25 0,-0.05 4.5,0.1 8.5,-5.55 0,-0.05 0.05,0.05 q 1.3,-1.3 2.3,-1.9 l -1.6,-1.95 -0.05,-0.05 0.1,-0.05 3.5,-1 0.3,-0.15 0.95,-0.75 2.9,-2.2 1.5,-4.1 q -2.9,-0.95 0.1,-1.65 0.8,-0.15 1.8,-0.55 2.2,-1.65 2.45,-1.9 0.85,-0.75 1.7,-1.65 l 2.6,-3.7 -9.7,-1.75 7.1,-3.4 0.45,-0.4 -4.1,-3.6 6.75,0.55 q 3.15,-6.8 -4.6,-14.4 m -51.2,8.6 q 0.2,0.3 0.4,0.7 3.35,6.7 10.65,5.1 l 2.1,0.05 -8.7,-4 9.2,-2.8 -7,-9.8 9.35,3.1 -1.05,-8.85 5.3,8.65 1.95,-0.65 q 6,-3.5 12.9,-1.7 -6.8,-3.9 -14,-1 l -7.15,-12.15 -1.5,13.15 -9.05,-5 q -0.55,8.45 5.8,14.15 l -9.2,1.05 m 24.3,-46.85 q -5.3,1.7 -6,0.4 l 1.95,-5.4 q -11.7,-0.9 -20.8,6.15 l 0.2,-3.4 q -0.5,0.45 -1.2,0.6 -13.55,4.25 -16.1,17.65 l -3.05,-5.5 -3.55,10.65 3.25,1.5 0.25,-6.35 5.75,6.5 q 0.3,-0.4 0.25,-0.65 -1.4,-13.55 10.8,-19.65 l -0.7,6 q 0.55,0 0.7,-0.25 7.35,-10.2 20.25,-10.35 l -0.9,7.85 q 1.85,0.5 3.5,-0.6 9.5,-6.35 16.6,1.9 l -6.45,0.35 -0.9,2.3 8.15,0.25 q -0.3,-0.1 -0.25,-0.15 l 0.2,-0.05 6.35,0.65 -3.45,-3.35 q -2.25,-3.55 -5.65,-5.8 -4.25,-2.85 -9.2,-1.25 z"
         id="path60658"
         inkscape:connector-curvature="0"
         style="fill:#583101;stroke:none" />
      <path
         d="m 375.6,207.85 7.85,1.75 -8.75,-7.1 -8.15,-0.25 0.9,-2.3 6.45,-0.35 q -7.1,-8.25 -16.6,-1.9 -1.65,1.1 -3.5,0.6 l 0.9,-7.85 q -12.9,0.15 -20.25,10.35 -0.15,0.25 -0.7,0.25 l 0.7,-6 q -12.2,6.1 -10.8,19.65 0.05,0.25 -0.25,0.65 l -5.75,-6.5 -0.25,6.35 q 13.8,8.5 15.35,25.3 0.95,9.55 0.2,19.25 l 6.35,4.5 1.75,-5 1.5,2.25 q 9.45,13.45 24.9,7.2 l 0.4,-0.35 q 0,-2.4 2.15,-4.1 2.2,-1.75 5.15,-1.75 l -0.3,-2.65 -3.25,-2.4 12.2,-12 1.6,-2.55 1.9,-10.95 q 0,-3.5 1.15,-6.05 1.15,-2.55 2.7,-2.55 l -9.75,-1.6 q -0.9,-2.4 1.8,-3.8 1.75,-0.9 3.8,-0.75 l -13.05,-7.95 1.65,-1.4 m -36.8,32.25 q -0.2,-0.4 -0.4,-0.7 l 9.2,-1.05 q -6.35,-5.7 -5.8,-14.15 l 9.05,5 1.5,-13.15 7.15,12.15 q 7.2,-2.9 14,1 -6.9,-1.8 -12.9,1.7 -0.65,0.35 -1.3,0.7 -9.4,5.15 -4,14.85 l -5.85,-1.25 q -7.3,1.6 -10.65,-5.1 m 74.75,-57.8 -20.25,9.35 q 2.65,4.65 7.65,11.1 9.35,12.1 11.35,26.9 1.9,13.8 -1.4,27.3 l 16.65,6.4 q 9.45,-25.3 3.4,-51.35 -4.1,-17.55 -17.4,-29.7 m 64.65,28.6 q -1.35,-3.75 -4.15,-6.85 -7.5,-8.4 -17,-14.7 9.95,37.7 -3.25,75.05 l 21.1,-4.85 q 12.6,-23.45 3.3,-48.65 z"
         id="path60660"
         inkscape:connector-curvature="0"
         style="fill:#ff9900;stroke:none" />
      <path
         d="m 409.7,263.2 1.15,-6.15 -19.75,-8.4 -7.1,3.4 9.7,1.75 -2.6,3.7 18.6,5.7 z"
         id="path60662"
         inkscape:connector-curvature="0"
         style="fill:#391500;stroke:none" />
      <path
         d="m 425.8,268.55 1.75,-5.2 -16.65,-6.4 -0.05,0.1 -1.15,6.15 16.1,5.35 m 43.95,-1.45 5.15,-7.55 -21.1,4.85 -1.65,5.35 17.6,-2.65 z"
         id="path60664"
         inkscape:connector-curvature="0"
         style="fill:#d87701;stroke:none" />
      <path
         d="m 390.6,189.8 -0.2,0.1 -12.85,9.7 3.45,3.35 -6.35,-0.65 0.05,0.2 8.75,7.1 -7.85,-1.75 -1.65,1.4 13.05,7.95 q -2.05,-0.15 -3.8,0.75 -2.7,1.4 -1.8,3.8 l 9.75,1.6 3.4,0 -4.95,7.45 q 7.75,7.6 4.6,14.4 l -6.75,-0.55 4.1,3.6 -0.45,0.4 19.75,8.4 0.05,-0.1 q 3.3,-13.5 1.4,-27.3 -2,-14.8 -11.35,-26.9 -5,-6.45 -7.65,-11.1 l 20.25,-9.35 q 13.3,12.15 17.4,29.7 6.05,26.05 -3.4,51.35 l -1.75,5.2 -16.1,-5.35 -18.6,-5.7 q -0.85,0.9 -1.7,1.65 l 0.1,0.15 0.25,0.15 q 17.85,13.35 38.5,21.35 l 10.55,3.35 14.95,2.7 q -3.7,30.55 4.75,60.05 l -5.3,-9.5 q -1.94863,-3.79863 -4.85,-11 -2.85137,-7.20137 -2.8,-18.4 l 0,-16.55 q -7.8,-1.6 -15.1,-4.2 -24.4,-8.65 -45.4,-24 l -1.5,4.1 0,0.1 3.7,9.9 2.1,5.7 q -7.55,11.05 -10.05,23.1 l 1.35,18.45 -0.05,-1.65 q -0.05,-21.65 11.9,-39.45 l -3.8,-10.8 3.95,4.35 q 15.6,16.95 38.1,22.45 -1.4,7 -2.4,14.2 -3.45,26.35 7.4,50.75 -0.95,-16.05 0,-32 0.4,-7.20508 2.4,-15.6 2.05,-8.38496 5.05,-15.15 -0.55,21.2 5.05,32 5.65,10.9 8.4,14.7 2.8,3.95 6.8,7.75 Q 452.4,319.8 455.3,292.2 l 0.8,-7.65 q -31.15,-4.45 -57.4,-22.5 44.3,20.6 90.2,2.9 7.8,-2.9 12.05,-9.7 6.6,-4.3 13.6,-1.5 -0.35,-3.75 -5.3,-9.15 -2.6,-2.95 -6.35,-3.95 Q 492.3,219.55 475.85,201 458.2,181.05 432,177.95 q -9.45,-1.2 -18.4,1.4 -12.3,3.4 -22.95,10.35 l 0.25,-0.05 -0.3,0.15 m 83.45,14.25 q 2.8,3.1 4.15,6.85 9.3,25.2 -3.3,48.65 l -5.15,7.55 -17.6,2.65 1.65,-5.35 q 13.2,-37.35 3.25,-75.05 9.5,6.3 17,14.7 m -51.15,89.8 q -1.92793,-0.7293 -3.8,-1.55 -16.40566,-7.19121 -27.9,-21.2 l 4.2,2.65 20.4,10.9 27.25,9.25 q -0.7,1.55 -1.35,3.15 -9.9,23.9 -9,49.95 l -1.75,-9.7 -0.9,-9.8 q 0.0635,-13.2166 3.8,-29.95 l -8.5,-2.65 q -1.25215,-0.5709 -2.45,-1.05 m 89,-42.65 q -5.175,-1.05 -9.6,0 l 1.3,-7.15 q 4.95684,0.97695 8.3,7.15 z"
         id="path60666"
         inkscape:connector-curvature="0"
         style="fill:#150900;stroke:none" />
      <path
         d="m 502.3,251.2 q 4.425,-1.05 9.6,0 -3.34316,-6.17305 -8.3,-7.15 l -1.3,7.15 z"
         id="path60668"
         inkscape:connector-curvature="0"
         style="fill:#cc6600;stroke:none" />
    </g>
    <g
       id="Layer0_2_FILL-3">
      <path
         d="m 269.85,66.25 q -1.88086,0.47168 -1.2,2.3 0.67812,1.9 1.5,2.8 8.97051,14.201758 9.85,26.3 0.3252,4.25898 -1.05,8.4 -2.72715,8.17344 -10.35,12.45 -0.56758,0.89434 1.7,1.95 2.8541,0.38047 4.2,-0.35 5.23105,-2.67578 6.1,-9 2.8873,-19.614844 -7.15,-37.3 -0.35508,-0.678516 -2.1,-3.15 -2.16582,-3.079297 -0.95,-3.05 9.27695,0.306445 17.35,8.4 3.46289,14.332227 2.75,28.95 -0.62246,13.54863 -10.85,22.45 -0.93203,1.46621 2.15,2.25 5.79453,1.32344 7.5,-5.45 5.79531,-23.26699 0.05,-46.9 l 2.9,1.8 -3.35,-3.8 q -2.51582,-11.667383 -8.5,-21.25 1.075,-2.435156 7.25,0.85 6.17383,3.318164 10.7,9.45 4.53633,6.09707 4.85,5.85 0.33437,-0.129102 -0.25,-1.4 -0.49844,-1.083594 -3.1,-4.55 -2.45137,-3.255859 -7.4,-7.7 -4.82617,-4.27207 -11.25,-4.8 -3.41387,0.272852 -2.05,3.4 5.95488,8.624219 8.1,18.8 -5.95996,-5.144727 -10.7,-6.7 -4.75625,-1.493164 -6.7,-1 z"
         id="path60671"
         inkscape:connector-curvature="0"
         style="fill:#4e2701;stroke:none" />
      <path
         d="m 354.3,-28.1 0,0 q -2.25586,9.916797 -2.2,20.35 l 0,0 q -0.0486,5.8623047 -0.45,11.75 -2.11836,29.728516 -10.9,58.2 l 0.05,-0.05 q -0.26133,0.951367 -0.6,1.85 -0.0127,0.129102 -0.05,0.25 l 11.4,3.05 q 0.14023,-0.50918 0.55,-0.85 2.34062,-1.623828 -0.55,0.85 13.78555,-10.325 22.25,-16.7 1.74082,-1.308984 3.2,-2.9 11.11523,-12.296875 14.4,-28.35 2.44687,-11.9755859 -1.75,-23.3 -2.64355,-7.075781 -7.95,-12.45 -10.83223,-10.96582 -25.7,-13.15 l -0.05,0 q -0.39141,0.0039 -0.85,0.1 -0.61191,0.541406 -0.8,1.35 m 17.95,42.95 -4.95,-6.7 -4.35,-1.55 4.65,0.15 5.2,6 2.2,-6.3 -1.55,7.35 2.8,8 -3.35,-5.9 -4,11.15 5,9.3 7.35,-11.1 -6.6,12.9 0.95,3.45 -1.45,-2.7 q -7.22793,10.021484 -17,17.35 -0.22187,1.229687 -1.25,2 -1.52559,1.08457 -3.2,0.5 l 20.7,-21.8 -5.5,-7.7 -20.5,32.65 -0.65,-2.35 18.85,-32.35 -4.25,-3.55 q -2.48105,-0.107617 -4.9,0.2 -0.26953,-0.127148 -0.75,0 l -0.45,-1.9 q 0.74687,-0.308203 1.5,-0.3 6.16602,-0.591016 10.7,3.85 l 4.8,-10.65 z"
         id="path60673"
         inkscape:connector-curvature="0"
         style="fill:#8febfe;fill-opacity:0.47058824;stroke:none" />
      <path
         d="m 367.3,8.15 4.95,6.7 -4.8,10.65 q -4.53398,-4.441016 -10.7,-3.85 -0.75313,-0.0082 -1.5,0.3 l 0.45,1.9 q 0.48047,-0.127148 0.75,0 2.41895,-0.307617 4.9,-0.2 l 4.25,3.55 -18.85,32.35 0.65,2.35 20.5,-32.65 5.5,7.7 -20.7,21.8 q 1.67441,0.58457 3.2,-0.5 1.02813,-0.770313 1.25,-2 9.77207,-7.328516 17,-17.35 l 1.45,2.7 -0.95,-3.45 6.6,-12.9 -7.35,11.1 -5,-9.3 4,-11.15 3.35,5.9 -2.8,-8 1.55,-7.35 -2.2,6.3 -5.2,-6 -4.65,-0.15 4.35,1.55 z"
         id="path60675"
         inkscape:connector-curvature="0"
         style="fill:#05dffe;fill-opacity:0.6;stroke:none" />
      <path
         d="m 351.35,-28.7 0.05,-0.05 q -2.34141,10.220898 -2.3,20.95 l 0,0.05 q -0.0484,5.7427734 -1.05,23.7 -1.00918,18.014844 -4.6,33.25 -3.33633,14.140625 -3.6,15 0.0615,0.0082 0.2,0.3 0.0414,-0.07324 0.05,-0.2 0.0385,-0.01602 0.05,-0.05 0.0373,-0.120898 0.05,-0.25 0.33867,-0.898633 0.6,-1.85 l -0.05,0.05 q 8.78164,-28.471484 10.9,-58.2 0.40137,-5.8876953 0.45,-11.75 l 0,0 q -0.0559,-10.433203 2.2,-20.35 l 0,0 q 0.18809,-0.808594 0.8,-1.35 0.45859,-0.09609 0.85,-0.1 l 0.05,0 q 14.86777,2.18418 25.7,13.15 5.30645,5.374219 7.95,12.45 4.19687,11.3244141 1.75,23.3 -3.28477,16.053125 -14.4,28.35 -1.45918,1.591016 -3.2,2.9 -8.46445,6.375 -22.25,16.7 11.075,-5.025195 18.55,-10.25 7.51309,-5.163867 14.15,-12.7 6.6373,-7.549023 10.1,-24.4 2.60312,-12.8242188 -1.9,-24.95 -2.85645,-7.674219 -8.6,-13.5 -11.64492,-11.760742 -27.65,-14.05 -0.1002,0.0049 -0.2,0 -0.96816,-5.86e-4 -2,0.3 -0.21484,0.0959 -0.4,0.2 -1.81055,1.268359 -2.25,3.35 z"
         id="path60677"
         inkscape:connector-curvature="0"
         style="fill:#02cbe8;fill-opacity:0.50196078;stroke:none" />
    </g>
    <style
       id="style6"
       type="text/css">
    .str0 {stroke:#006633;stroke-width:282.22}
    .str1 {stroke:#AB754F;stroke-width:282.22}
    .fil2 {fill:none}
    .fil3 {fill:#606062}
    .fil5 {fill:#CE8F64}
    .fil4 {fill:#006633}
    .fil8 {fill:#009933}
    .fil9 {fill:#00B33C}
    .fil10 {fill:#00C943}
    .fil0 {fill:#00D447}
    .fil1 {fill:#00DB49}
    .fil6 {fill:#B88059}
    .fil11 {fill:#BA8058}
    .fil12 {fill:#D49264}
    .fil7 {fill:#E49C6D}
  </style>
    <filter
       inkscape:collect="always"
       id="filter3940"
       color-interpolation-filters="sRGB">
      <feGaussianBlur
         inkscape:collect="always"
         stdDeviation="0.97799452"
         id="feGaussianBlur3942" />
    </filter>
  </defs>
  <metadata
     id="metadata7">
    <rdf:RDF>
      <cc:Work
         rdf:about="">
        <dc:format>image/svg+xml</dc:format>
        <dc:type
           rdf:resource="http://purl.org/dc/dcmitype/StillImage" />
        <dc:title>Bingo das Letras</dc:title>
        <cc:license
           rdf:resource="" />
        <dc:rights>
          <cc:Agent>
            <dc:title>Copyright © 2002-2016. Portal Clickideia ® - Todos os Direitos Reservados</dc:title>
          </cc:Agent>
        </dc:rights>
        <dc:description>SVG game with snapSVG lib and other javascripts included</dc:description>
        <dc:language>pt_BR</dc:language>
        <dc:subject>
          <rdf:Bag>
            <rdf:li>Educativo</rdf:li>
            <rdf:li>ensino fundamental</rdf:li>
            <rdf:li>clickiéia</rdf:li>
            <rdf:li>letras</rdf:li>
            <rdf:li>lingua portuguesa</rdf:li>
            <rdf:li>infantil</rdf:li>
            <rdf:li>educational game</rdf:li>
            <rdf:li>game design</rdf:li>
            <rdf:li>multimidia</rdf:li>
          </rdf:Bag>
        </dc:subject>
        <dc:creator>
          <cc:Agent>
            <dc:title>http://www.clickideia.com.br/</dc:title>
          </cc:Agent>
        </dc:creator>
        <dc:publisher>
          <cc:Agent>
            <dc:title>http://www.clickideia.com.br/</dc:title>
          </cc:Agent>
        </dc:publisher>
        <dc:date>18/01/2016</dc:date>
        <dc:contributor>
          <cc:Agent>
            <dc:title>michel morandi - michel.morandi@clickideia.com.br</dc:title>
          </cc:Agent>
        </dc:contributor>
      </cc:Work>
    </rdf:RDF>
  </metadata>
  <g
     id="g3948"
     transform="matrix(1.3543257,0,0,1.3543257,5.186674,5.1366419)">
    <g
       transform="translate(155.34741,-92.355148)"
       id="g3944">
      <path
         inkscape:connector-curvature="0"
         id="path3938"
         d="m -108.01589,190.13408 c -3.06489,-1.02018 -5.44388,-3.15713 -7.11133,-6.3878 -1.51897,-2.94302 -1.87593,-4.73919 -1.66391,-8.37261 0.21173,-3.62857 0.76264,-5.7866 2.33557,-9.14888 0.64768,-1.38448 1.1776,-2.56607 1.1776,-2.62574 0,-0.29891 -1.06847,-0.0512 -1.51371,0.35088 -0.87306,0.78853 -3.27139,0.87461 -4.62992,0.16619 -0.65024,-0.33908 -1.20091,-0.58478 -1.22371,-0.54602 -0.0228,0.0388 -0.19723,0.61319 -0.38762,1.27649 -0.21024,0.73246 -1.42533,2.54929 -3.09451,4.62697 -2.68683,3.3444 -2.745,3.45046 -2.59944,4.73935 0.14838,1.3137 1.14542,2.78145 1.88945,2.78145 0.59323,0 2.93474,-3.86206 3.61867,-5.96859 1.02733,-3.16423 1.63208,-2.73751 1.65766,1.16966 0.008,1.27151 -0.14303,2.9052 -0.33635,3.63041 -0.48499,1.81936 -2.05304,4.68871 -2.94491,5.38884 -0.82318,0.64621 -2.46584,0.75812 -3.88432,0.26463 -0.78292,-0.27237 -1.06699,-0.20973 -2.04132,0.45013 -1.56848,1.06226 -2.85729,1.00709 -4.2124,-0.18033 -1.47618,-1.29348 -2.29947,-3.03417 -2.47659,-5.23623 -0.1905,-2.36857 0.31885,-4.45643 1.6087,-6.59413 0.56401,-0.93476 1.02548,-1.74845 1.02548,-1.80819 0,-0.0598 -0.68876,-0.45695 -1.53057,-0.88267 -0.84182,-0.42573 -2.10857,-1.30575 -2.81501,-1.95561 -1.06881,-0.98321 -1.49583,-1.18157 -2.54367,-1.18157 -0.69258,0 -1.6764,-0.21529 -2.18628,-0.47842 -1.12628,-0.58126 -1.43704,-0.2624 -1.44401,1.48158 -0.006,1.40191 -1.11373,6.95442 -1.56133,7.82333 -0.71344,1.385 -1.52905,1.97657 -2.72511,1.97657 -1.26343,0 -2.33334,-0.42984 -2.33334,-0.93741 0,-0.17388 0.60363,-1.00478 1.34139,-1.84645 2.41547,-2.7557 4.07103,-6.69849 4.07103,-9.69537 0,-0.70653 -0.34547,-2.01644 -0.79459,-3.01283 -0.93259,-2.069 -1.09232,-4.71541 -0.44386,-7.35388 0.26031,-1.05913 0.33713,-2.21047 0.20581,-3.08444 -0.18095,-1.20417 -0.4096,-1.55231 -1.67539,-2.55085 -1.83545,-1.44792 -3.86248,-2.4384 -5.41571,-2.64631 -1.37071,-0.18349 -1.51461,0.12768 -0.63483,1.37281 1.61128,2.28038 3.36645,6.61727 4.09481,10.11789 0.56774,2.72869 0.64606,8.29038 0.14798,10.50844 -0.75666,3.36957 -4.27266,5.77524 -5.86858,4.01531 -0.54645,-0.60261 -0.52726,-0.63761 1.27508,-2.32566 2.55347,-2.39155 3.4661,-4.29748 3.63412,-7.58948 0.18562,-3.6367 -0.61725,-6.56875 -3.26426,-11.92107 -1.16769,-2.36109 -2.08077,-4.50723 -2.02907,-4.7692 0.0517,-0.26197 0.3289,-0.62393 0.61599,-0.80436 0.78459,-0.4931 4.25677,0.51305 6.19663,1.79563 0.88379,0.58433 1.68351,0.98596 1.77715,0.89251 0.31631,-0.31567 -0.57191,-2.70915 -2.05717,-5.54343 -0.81247,-1.55041 -1.47722,-3.04258 -1.47722,-3.31594 0,-1.47794 2.03835,-1.60276 4.81104,-0.29462 1.46915,0.69314 2.55963,1.55075 4.39145,3.45366 l 2.43697,2.53155 1.17131,-0.49197 c 0.64422,-0.27059 2.36845,-0.56146 3.83162,-0.64638 l 2.66032,-0.15441 0.57601,-1.34107 c 0.45825,-1.06691 0.69601,-1.30976 1.16301,-1.18788 0.45098,0.11769 0.76972,-0.15797 1.37554,-1.18965 0.91192,-1.55293 3.21051,-3.1616 4.35095,-3.04501 0.4172,0.0427 1.20179,-0.10567 1.74352,-0.32962 1.22187,-0.50509 1.31236,-0.0268 -1.759,-9.29724 -2.1491,-6.48672 -3.20705,-9.26692 -6.46217,-16.98203 -1.44962,-3.43582 -1.97584,-6.65809 -1.2643,-7.741849 1.39921,-2.13117 11.25595,-1.64565 15.18483,0.747969 1.28335,0.78187 1.87168,0.53892 1.87168,-0.772909 0,-2.24802 0.87767,-5.69944 1.64374,-6.46397 0.73982,-0.73833 0.76193,-0.74092 3.08382,-0.36096 8.05071,1.31741 15.303522,7.627879 17.569406,15.286629 0.746989,2.52484 1.032178,7.35679 0.597931,10.13073 -0.446326,2.85112 -1.681677,7.06402 -2.736629,9.3327 l -0.861915,1.85356 1.251829,0.18593 c 4.288245,0.63692 8.132651,2.2437 11.204011,4.68274 3.052567,2.42412 8.28395,9.12522 10.441018,13.37435 0.477158,0.93994 1.194144,1.79734 1.83197,2.19075 1.285476,0.79287 2.366784,2.44466 2.083176,3.18224 -0.140461,0.3653 -0.09425,0.46487 0.146773,0.31621 0.193485,-0.11934 0.351789,-0.0884 0.351789,0.0687 0,0.36757 -0.871011,0.70456 -1.23723,0.47868 -0.654352,-0.4036 -2.230544,0.33419 -3.91113,1.83073 -1.490465,1.32724 -2.275262,1.75841 -4.565078,2.50802 -4.471709,1.46391 -7.156787,1.90507 -11.635538,1.91173 -3.074541,0.005 -4.746698,-0.14921 -6.892775,-0.63392 -1.558403,-0.35199 -2.879406,-0.59412 -2.93556,-0.53808 -0.166041,0.16571 3.80501,1.88151 5.919368,2.55763 1.074966,0.34374 2.967399,0.8352 4.205405,1.09213 1.238009,0.25692 2.383463,0.59941 2.545457,0.76108 0.175503,0.17515 0.259366,2.26274 0.207518,5.1657 -0.09578,5.36245 0.347955,9.12458 1.649963,13.98911 0.567588,2.12062 0.668006,2.89834 0.406839,3.1509 -0.531421,0.5139 -2.40234,-1.82905 -4.147096,-5.19342 -1.448392,-2.7929 -1.918449,-4.28283 -2.3229,-7.36289 -0.468866,-3.57057 -1.613493,2.21142 -1.854063,9.36563 -0.206255,6.13373 -0.499545,6.8058 -1.569601,3.59675 -1.529861,-4.58798 -1.935856,-10.30033 -1.071433,-15.075 0.239046,-1.32037 0.437291,-2.42358 0.440547,-2.45158 0.0032,-0.028 -0.704465,-0.28299 -1.572707,-0.56664 -3.092435,-1.01031 -6.996015,-3.32436 -8.776255,-5.2026 -1.02693,-1.08345 -1.49741,-1.1986 -1.21044,-0.29626 0.13895,0.43692 -0.18056,1.39813 -1.02242,3.07587 -1.73807,3.46378 -2.27011,5.70953 -2.28441,9.6424 -0.0112,3.0769 0.0486,3.42021 0.88024,5.05832 1.07511,2.11759 2.91194,3.79888 5.4938,5.02861 1.06,0.50487 1.86296,1.07043 1.79574,1.2648 -0.078,0.22538 -0.86663,0.34547 -2.1972,0.33455 -2.23955,-0.0184 -4.66425,-0.90049 -6.66819,-2.4259 -0.55533,-0.42271 -1.07755,-0.70084 -1.16049,-0.61806 -0.31008,0.30945 1.46149,3.28008 2.90436,4.87014 1.9096,2.10442 1.91534,2.16791 0.1425,1.57781 z m 15.048695,-7.01794 c -0.285273,-1.51758 -0.888436,-1.30521 -0.643028,0.22641 0.109872,0.6857 0.293128,1.39465 0.407239,1.57544 0.312393,0.49493 0.458155,-0.61893 0.235789,-1.80185 z m 7.939654,-0.28746 c -0.533946,-0.64207 -0.702288,-0.30831 -0.26025,0.51599 0.237557,0.44298 0.422587,0.55892 0.503827,0.31569 0.07061,-0.21141 -0.039,-0.58567 -0.243577,-0.83168 z m -4.856753,-13.99663 c 0.771937,-0.77038 0.285442,-3.24091 -0.638196,-3.24091 -0.152555,0 -0.111271,0.19973 0.09174,0.44386 0.279669,0.3363 0.28859,0.67438 0.03682,1.39516 -0.563743,1.61389 -0.334539,2.24437 0.509636,1.40189 z m -18.591836,-2.19062 c 0,-0.16504 -0.13117,-0.0975 -0.29148,0.15005 -0.16032,0.24757 -0.29148,0.58516 -0.29148,0.75021 0,0.16505 0.13116,0.0975 0.29148,-0.15004 0.16031,-0.24757 0.29148,-0.58517 0.29148,-0.75022 z m 10.232659,-0.86605 c 0,-0.0637 -0.913345,-0.67135 -2.029659,-1.3503 -1.11631,-0.67896 -2.50324,-1.60585 -3.08207,-2.05978 -0.61489,-0.48221 -0.86505,-0.588 -0.60173,-0.25447 1.04884,1.3285 5.713459,4.32033 5.713459,3.66455 z m -1.815679,-3.72934 c -1.57745,-0.77841 -4.02239,-2.18974 -5.43321,-3.13629 -1.41081,-0.94654 -2.65725,-1.72099 -2.76984,-1.72099 -0.30701,0 -0.24683,0.99025 0.12485,2.0543 0.28051,0.80305 0.43966,0.91594 1.06906,0.75829 0.53189,-0.13323 0.96635,0.0146 1.54759,0.52666 0.61806,0.54449 0.68486,0.5652 0.28404,0.0881 -0.28823,-0.34309 -0.52406,-0.72574 -0.52406,-0.85034 0,-0.12459 1.54393,0.58275 3.43094,1.57188 3.187232,1.67068 4.062837,2.05138 4.838034,2.10348 0.165379,0.0111 -0.989949,-0.61667 -2.567404,-1.39509 z m 13.117584,-3.15071 c -0.514198,-0.37523 -0.496139,-0.54651 0.378754,-3.59234 0.505286,-1.75908 1.088242,-4.04622 1.295462,-5.08253 0.550368,-2.7524 0.461454,-10.92715 -0.151048,-13.88761 -0.6077,-2.93725 -0.609261,-2.78244 0.02941,-2.92073 0.40862,-0.0885 0.291032,-0.26209 -0.526207,-0.77693 -1.532847,-0.96567 -5.550833,-2.17025 -7.905243,-2.36996 -1.942625,-0.16478 -2.085016,-0.13187 -2.931726,0.6777 -0.489462,0.46799 -0.889933,0.95936 -0.889933,1.09192 0,0.13256 0.594515,1.10766 1.321147,2.16688 3.648597,5.3186 4.486776,13.33918 2.182433,20.8838 -0.579273,1.89659 -1.008883,3.49259 -0.95469,3.54668 0.266529,0.26599 3.31933,0.59035 5.852723,0.62185 2.412007,0.03 2.757668,-0.024 2.298912,-0.35873 z m 6.739483,-0.76878 c 4.01242,-1.03573 5.766004,-1.84 7.321262,-3.35784 1.114446,-1.08764 1.412322,-1.56579 1.264674,-2.03004 -0.106225,-0.33402 0.0089,-1.08985 0.255812,-1.67963 0.246923,-0.58977 0.330022,-1.07232 0.184666,-1.07232 -0.145357,0 -0.806303,-0.97903 -1.468768,-2.17562 -1.536621,-2.77554 -5.13494,-7.95136 -6.206574,-8.92752 l -0.823584,-0.75022 0.639607,1.26592 c 2.622851,5.19116 1.764426,13.36033 -1.883714,17.92633 -0.571503,0.71529 -1.07354,0.93147 -2.918534,1.25671 l -2.228298,0.39281 1.804139,-0.13322 c 0.992276,-0.0733 2.818967,-0.39519 4.059312,-0.71536 z m -23.077577,-1.28209 c -0.14839,-0.5663 -0.0755,-0.62101 0.6016,-0.45141 0.42374,0.10614 1.00818,0.28402 1.29874,0.3953 0.36613,0.14021 0.46007,0.0921 0.30602,-0.1566 -0.12224,-0.19741 0.0744,-1.31543 0.43692,-2.48449 0.923068,-2.97651 0.744305,-8.43182 -0.3741,-11.41621 -0.7982,-2.12995 -2.52356,-5.04781 -2.98481,-5.04781 -0.26581,0 -4.02609,2.24281 -4.59984,2.74355 -0.16466,0.14372 -0.0534,0.4914 0.27212,0.85038 0.51342,0.56618 0.51701,0.64438 0.053,1.15603 -0.69572,0.76722 -0.64429,0.8574 0.62441,1.09493 0.61713,0.11554 1.35574,0.33489 1.64135,0.48743 0.48572,0.25943 0.47987,0.34404 -0.0906,1.30892 l -0.60987,1.03157 0.77266,1.13478 c 1.04093,1.52879 1.04477,3.00767 0.009,3.40074 -0.60291,0.22876 -0.70649,0.40105 -0.49166,0.8178 0.14968,0.29039 0.21153,0.69671 0.13744,0.90293 -0.0741,0.20623 0.0795,0.45699 0.34132,0.55726 0.61408,0.23517 0.61841,1.49978 0.006,1.73434 -0.25855,0.099 -0.3777,0.32922 -0.26478,0.51157 0.16672,0.26922 2.79525,2.07337 3.02076,2.07337 0.0348,0 -0.0127,-0.28997 -0.10552,-0.64438 z m -40.08683,-10.41166 c 0.19476,-0.46924 1.02304,-1.51071 1.84062,-2.31438 0.81758,-0.80367 1.48652,-1.62605 1.48652,-1.8275 0,-0.70772 -3.77862,-4.16812 -5.60485,-5.13283 -1.86186,-0.98353 -3.11516,-1.24649 -3.11516,-0.65361 0,0.17692 0.32859,0.88587 0.73019,1.57545 0.87531,1.50295 2.41504,5.34235 2.72918,6.80535 0.54611,2.5433 1.27731,3.12853 1.9335,1.54752 z m 62.262338,-10.09995 c -0.730385,-0.74271 -1.395628,-1.35038 -1.478317,-1.35038 -0.08269,0 0.447243,0.60767 1.177627,1.35038 0.730385,0.74271 1.395628,1.35039 1.478317,1.35039 0.08269,0 -0.447243,-0.60768 -1.177627,-1.35039 z m -1.804139,-1.45391 c 0,-0.0569 -0.304448,-0.36078 -0.676552,-0.67519 l -0.676552,-0.57166 0.572811,0.67519 c 0.538301,0.63451 0.780293,0.8118 0.780293,0.57166 z"
         style="fill:#808080;stroke:#808080;stroke-width:2.95349932;stroke-linejoin:round;stroke-miterlimit:4;stroke-dasharray:none;filter:url(#filter3940)" />
      <path
         style="fill:#ffffff;stroke:#ffffff;stroke-width:2.95349932;stroke-linejoin:round;stroke-miterlimit:4;stroke-dasharray:none"
         d="m -108.01589,190.13408 c -3.06489,-1.02018 -5.44388,-3.15713 -7.11133,-6.3878 -1.51897,-2.94302 -1.87593,-4.73919 -1.66391,-8.37261 0.21173,-3.62857 0.76264,-5.7866 2.33557,-9.14888 0.64768,-1.38448 1.1776,-2.56607 1.1776,-2.62574 0,-0.29891 -1.06847,-0.0512 -1.51371,0.35088 -0.87306,0.78853 -3.27139,0.87461 -4.62992,0.16619 -0.65024,-0.33908 -1.20091,-0.58478 -1.22371,-0.54602 -0.0228,0.0388 -0.19723,0.61319 -0.38762,1.27649 -0.21024,0.73246 -1.42533,2.54929 -3.09451,4.62697 -2.68683,3.3444 -2.745,3.45046 -2.59944,4.73935 0.14838,1.3137 1.14542,2.78145 1.88945,2.78145 0.59323,0 2.93474,-3.86206 3.61867,-5.96859 1.02733,-3.16423 1.63208,-2.73751 1.65766,1.16966 0.008,1.27151 -0.14303,2.9052 -0.33635,3.63041 -0.48499,1.81936 -2.05304,4.68871 -2.94491,5.38884 -0.82318,0.64621 -2.46584,0.75812 -3.88432,0.26463 -0.78292,-0.27237 -1.06699,-0.20973 -2.04132,0.45013 -1.56848,1.06226 -2.85729,1.00709 -4.2124,-0.18033 -1.47618,-1.29348 -2.29947,-3.03417 -2.47659,-5.23623 -0.1905,-2.36857 0.31885,-4.45643 1.6087,-6.59413 0.56401,-0.93476 1.02548,-1.74845 1.02548,-1.80819 0,-0.0598 -0.68876,-0.45695 -1.53057,-0.88267 -0.84182,-0.42573 -2.10857,-1.30575 -2.81501,-1.95561 -1.06881,-0.98321 -1.49583,-1.18157 -2.54367,-1.18157 -0.69258,0 -1.6764,-0.21529 -2.18628,-0.47842 -1.12628,-0.58126 -1.43704,-0.2624 -1.44401,1.48158 -0.006,1.40191 -1.11373,6.95442 -1.56133,7.82333 -0.71344,1.385 -1.52905,1.97657 -2.72511,1.97657 -1.26343,0 -2.33334,-0.42984 -2.33334,-0.93741 0,-0.17388 0.60363,-1.00478 1.34139,-1.84645 2.41547,-2.7557 4.07103,-6.69849 4.07103,-9.69537 0,-0.70653 -0.34547,-2.01644 -0.79459,-3.01283 -0.93259,-2.069 -1.09232,-4.71541 -0.44386,-7.35388 0.26031,-1.05913 0.33713,-2.21047 0.20581,-3.08444 -0.18095,-1.20417 -0.4096,-1.55231 -1.67539,-2.55085 -1.83545,-1.44792 -3.86248,-2.4384 -5.41571,-2.64631 -1.37071,-0.18349 -1.51461,0.12768 -0.63483,1.37281 1.61128,2.28038 3.36645,6.61727 4.09481,10.11789 0.56774,2.72869 0.64606,8.29038 0.14798,10.50844 -0.75666,3.36957 -4.27266,5.77524 -5.86858,4.01531 -0.54645,-0.60261 -0.52726,-0.63761 1.27508,-2.32566 2.55347,-2.39155 3.4661,-4.29748 3.63412,-7.58948 0.18562,-3.6367 -0.61725,-6.56875 -3.26426,-11.92107 -1.16769,-2.36109 -2.08077,-4.50723 -2.02907,-4.7692 0.0517,-0.26197 0.3289,-0.62393 0.61599,-0.80436 0.78459,-0.4931 4.25677,0.51305 6.19663,1.79563 0.88379,0.58433 1.68351,0.98596 1.77715,0.89251 0.31631,-0.31567 -0.57191,-2.70915 -2.05717,-5.54343 -0.81247,-1.55041 -1.47722,-3.04258 -1.47722,-3.31594 0,-1.47794 2.03835,-1.60276 4.81104,-0.29462 1.46915,0.69314 2.55963,1.55075 4.39145,3.45366 l 2.43697,2.53155 1.17131,-0.49197 c 0.64422,-0.27059 2.36845,-0.56146 3.83162,-0.64638 l 2.66032,-0.15441 0.57601,-1.34107 c 0.45825,-1.06691 0.69601,-1.30976 1.16301,-1.18788 0.45098,0.11769 0.76972,-0.15797 1.37554,-1.18965 0.91192,-1.55293 3.21051,-3.1616 4.35095,-3.04501 0.4172,0.0427 1.20179,-0.10567 1.74352,-0.32962 1.22187,-0.50509 1.31236,-0.0268 -1.759,-9.29724 -2.1491,-6.48672 -3.20705,-9.26692 -6.46217,-16.98203 -1.44962,-3.43582 -1.97584,-6.65809 -1.2643,-7.741849 1.39921,-2.13117 11.25595,-1.64565 15.18483,0.747969 1.28335,0.78187 1.87168,0.53892 1.87168,-0.772909 0,-2.24802 0.87767,-5.69944 1.64374,-6.46397 0.73982,-0.73833 0.76193,-0.74092 3.08382,-0.36096 8.05071,1.31741 15.303522,7.627879 17.569406,15.286629 0.746989,2.52484 1.032178,7.35679 0.597931,10.13073 -0.446326,2.85112 -1.681677,7.06402 -2.736629,9.3327 l -0.861915,1.85356 1.251829,0.18593 c 4.288245,0.63692 8.132651,2.2437 11.204011,4.68274 3.052567,2.42412 8.28395,9.12522 10.441018,13.37435 0.477158,0.93994 1.194144,1.79734 1.83197,2.19075 1.285476,0.79287 2.366784,2.44466 2.083176,3.18224 -0.140461,0.3653 -0.09425,0.46487 0.146773,0.31621 0.193485,-0.11934 0.351789,-0.0884 0.351789,0.0687 0,0.36757 -0.871011,0.70456 -1.23723,0.47868 -0.654352,-0.4036 -2.230544,0.33419 -3.91113,1.83073 -1.490465,1.32724 -2.275262,1.75841 -4.565078,2.50802 -4.471709,1.46391 -7.156787,1.90507 -11.635538,1.91173 -3.074541,0.005 -4.746698,-0.14921 -6.892775,-0.63392 -1.558403,-0.35199 -2.879406,-0.59412 -2.93556,-0.53808 -0.166041,0.16571 3.80501,1.88151 5.919368,2.55763 1.074966,0.34374 2.967399,0.8352 4.205405,1.09213 1.238009,0.25692 2.383463,0.59941 2.545457,0.76108 0.175503,0.17515 0.259366,2.26274 0.207518,5.1657 -0.09578,5.36245 0.347955,9.12458 1.649963,13.98911 0.567588,2.12062 0.668006,2.89834 0.406839,3.1509 -0.531421,0.5139 -2.40234,-1.82905 -4.147096,-5.19342 -1.448392,-2.7929 -1.918449,-4.28283 -2.3229,-7.36289 -0.468866,-3.57057 -1.613493,2.21142 -1.854063,9.36563 -0.206255,6.13373 -0.499545,6.8058 -1.569601,3.59675 -1.529861,-4.58798 -1.935856,-10.30033 -1.071433,-15.075 0.239046,-1.32037 0.437291,-2.42358 0.440547,-2.45158 0.0032,-0.028 -0.704465,-0.28299 -1.572707,-0.56664 -3.092435,-1.01031 -6.996015,-3.32436 -8.776255,-5.2026 -1.02693,-1.08345 -1.49741,-1.1986 -1.21044,-0.29626 0.13895,0.43692 -0.18056,1.39813 -1.02242,3.07587 -1.73807,3.46378 -2.27011,5.70953 -2.28441,9.6424 -0.0112,3.0769 0.0486,3.42021 0.88024,5.05832 1.07511,2.11759 2.91194,3.79888 5.4938,5.02861 1.06,0.50487 1.86296,1.07043 1.79574,1.2648 -0.078,0.22538 -0.86663,0.34547 -2.1972,0.33455 -2.23955,-0.0184 -4.66425,-0.90049 -6.66819,-2.4259 -0.55533,-0.42271 -1.07755,-0.70084 -1.16049,-0.61806 -0.31008,0.30945 1.46149,3.28008 2.90436,4.87014 1.9096,2.10442 1.91534,2.16791 0.1425,1.57781 z m 15.048695,-7.01794 c -0.285273,-1.51758 -0.888436,-1.30521 -0.643028,0.22641 0.109872,0.6857 0.293128,1.39465 0.407239,1.57544 0.312393,0.49493 0.458155,-0.61893 0.235789,-1.80185 z m 7.939654,-0.28746 c -0.533946,-0.64207 -0.702288,-0.30831 -0.26025,0.51599 0.237557,0.44298 0.422587,0.55892 0.503827,0.31569 0.07061,-0.21141 -0.039,-0.58567 -0.243577,-0.83168 z m -4.856753,-13.99663 c 0.771937,-0.77038 0.285442,-3.24091 -0.638196,-3.24091 -0.152555,0 -0.111271,0.19973 0.09174,0.44386 0.279669,0.3363 0.28859,0.67438 0.03682,1.39516 -0.563743,1.61389 -0.334539,2.24437 0.509636,1.40189 z m -18.591836,-2.19062 c 0,-0.16504 -0.13117,-0.0975 -0.29148,0.15005 -0.16032,0.24757 -0.29148,0.58516 -0.29148,0.75021 0,0.16505 0.13116,0.0975 0.29148,-0.15004 0.16031,-0.24757 0.29148,-0.58517 0.29148,-0.75022 z m 10.232659,-0.86605 c 0,-0.0637 -0.913345,-0.67135 -2.029659,-1.3503 -1.11631,-0.67896 -2.50324,-1.60585 -3.08207,-2.05978 -0.61489,-0.48221 -0.86505,-0.588 -0.60173,-0.25447 1.04884,1.3285 5.713459,4.32033 5.713459,3.66455 z m -1.815679,-3.72934 c -1.57745,-0.77841 -4.02239,-2.18974 -5.43321,-3.13629 -1.41081,-0.94654 -2.65725,-1.72099 -2.76984,-1.72099 -0.30701,0 -0.24683,0.99025 0.12485,2.0543 0.28051,0.80305 0.43966,0.91594 1.06906,0.75829 0.53189,-0.13323 0.96635,0.0146 1.54759,0.52666 0.61806,0.54449 0.68486,0.5652 0.28404,0.0881 -0.28823,-0.34309 -0.52406,-0.72574 -0.52406,-0.85034 0,-0.12459 1.54393,0.58275 3.43094,1.57188 3.187232,1.67068 4.062837,2.05138 4.838034,2.10348 0.165379,0.0111 -0.989949,-0.61667 -2.567404,-1.39509 z m 13.117584,-3.15071 c -0.514198,-0.37523 -0.496139,-0.54651 0.378754,-3.59234 0.505286,-1.75908 1.088242,-4.04622 1.295462,-5.08253 0.550368,-2.7524 0.461454,-10.92715 -0.151048,-13.88761 -0.6077,-2.93725 -0.609261,-2.78244 0.02941,-2.92073 0.40862,-0.0885 0.291032,-0.26209 -0.526207,-0.77693 -1.532847,-0.96567 -5.550833,-2.17025 -7.905243,-2.36996 -1.942625,-0.16478 -2.085016,-0.13187 -2.931726,0.6777 -0.489462,0.46799 -0.889933,0.95936 -0.889933,1.09192 0,0.13256 0.594515,1.10766 1.321147,2.16688 3.648597,5.3186 4.486776,13.33918 2.182433,20.8838 -0.579273,1.89659 -1.008883,3.49259 -0.95469,3.54668 0.266529,0.26599 3.31933,0.59035 5.852723,0.62185 2.412007,0.03 2.757668,-0.024 2.298912,-0.35873 z m 6.739483,-0.76878 c 4.01242,-1.03573 5.766004,-1.84 7.321262,-3.35784 1.114446,-1.08764 1.412322,-1.56579 1.264674,-2.03004 -0.106225,-0.33402 0.0089,-1.08985 0.255812,-1.67963 0.246923,-0.58977 0.330022,-1.07232 0.184666,-1.07232 -0.145357,0 -0.806303,-0.97903 -1.468768,-2.17562 -1.536621,-2.77554 -5.13494,-7.95136 -6.206574,-8.92752 l -0.823584,-0.75022 0.639607,1.26592 c 2.622851,5.19116 1.764426,13.36033 -1.883714,17.92633 -0.571503,0.71529 -1.07354,0.93147 -2.918534,1.25671 l -2.228298,0.39281 1.804139,-0.13322 c 0.992276,-0.0733 2.818967,-0.39519 4.059312,-0.71536 z m -23.077577,-1.28209 c -0.14839,-0.5663 -0.0755,-0.62101 0.6016,-0.45141 0.42374,0.10614 1.00818,0.28402 1.29874,0.3953 0.36613,0.14021 0.46007,0.0921 0.30602,-0.1566 -0.12224,-0.19741 0.0744,-1.31543 0.43692,-2.48449 0.923068,-2.97651 0.744305,-8.43182 -0.3741,-11.41621 -0.7982,-2.12995 -2.52356,-5.04781 -2.98481,-5.04781 -0.26581,0 -4.02609,2.24281 -4.59984,2.74355 -0.16466,0.14372 -0.0534,0.4914 0.27212,0.85038 0.51342,0.56618 0.51701,0.64438 0.053,1.15603 -0.69572,0.76722 -0.64429,0.8574 0.62441,1.09493 0.61713,0.11554 1.35574,0.33489 1.64135,0.48743 0.48572,0.25943 0.47987,0.34404 -0.0906,1.30892 l -0.60987,1.03157 0.77266,1.13478 c 1.04093,1.52879 1.04477,3.00767 0.009,3.40074 -0.60291,0.22876 -0.70649,0.40105 -0.49166,0.8178 0.14968,0.29039 0.21153,0.69671 0.13744,0.90293 -0.0741,0.20623 0.0795,0.45699 0.34132,0.55726 0.61408,0.23517 0.61841,1.49978 0.006,1.73434 -0.25855,0.099 -0.3777,0.32922 -0.26478,0.51157 0.16672,0.26922 2.79525,2.07337 3.02076,2.07337 0.0348,0 -0.0127,-0.28997 -0.10552,-0.64438 z m -40.08683,-10.41166 c 0.19476,-0.46924 1.02304,-1.51071 1.84062,-2.31438 0.81758,-0.80367 1.48652,-1.62605 1.48652,-1.8275 0,-0.70772 -3.77862,-4.16812 -5.60485,-5.13283 -1.86186,-0.98353 -3.11516,-1.24649 -3.11516,-0.65361 0,0.17692 0.32859,0.88587 0.73019,1.57545 0.87531,1.50295 2.41504,5.34235 2.72918,6.80535 0.54611,2.5433 1.27731,3.12853 1.9335,1.54752 z m 62.262338,-10.09995 c -0.730385,-0.74271 -1.395628,-1.35038 -1.478317,-1.35038 -0.08269,0 0.447243,0.60767 1.177627,1.35038 0.730385,0.74271 1.395628,1.35039 1.478317,1.35039 0.08269,0 -0.447243,-0.60768 -1.177627,-1.35039 z m -1.804139,-1.45391 c 0,-0.0569 -0.304448,-0.36078 -0.676552,-0.67519 l -0.676552,-0.57166 0.572811,0.67519 c 0.538301,0.63451 0.780293,0.8118 0.780293,0.57166 z"
         id="path3168"
         inkscape:connector-curvature="0" />
    </g>
    <g
       transform="matrix(0.50754372,0,0,0.50754372,-95.656277,-52.70842)"
       id="g60725">
      <g
         transform="translate(-80,136.4)"
         id="g60679">
        <use
           height="800"
           width="1280"
           y="0"
           x="0"
           xlink:href="#Layer0_0_FILL-7"
           id="use60681" />
      </g>
      <g
         transform="matrix(0.62046814,0,0,0.62046814,42.2,67.15)"
         id="g60683">
        <use
           height="800"
           width="1280"
           y="0"
           x="0"
           xlink:href="#Layer0_1_FILL-08"
           id="use60685" />
      </g>
      <g
         transform="translate(-80,136.4)"
         id="g60687">
        <use
           height="800"
           width="1280"
           y="0"
           x="0"
           xlink:href="#Layer0_2_FILL-3"
           id="use60689" />
      </g>
    </g>
  </g>
</svg>
