<?xml version="1.0" encoding="UTF-8" standalone="no"?>
<svg
   xmlns:osb="http://www.openswatchbook.org/uri/2009/osb"
   xmlns:dc="http://purl.org/dc/elements/1.1/"
   xmlns:cc="http://creativecommons.org/ns#"
   xmlns:rdf="http://www.w3.org/1999/02/22-rdf-syntax-ns#"
   xmlns:svg="http://www.w3.org/2000/svg"
   xmlns="http://www.w3.org/2000/svg"
   xmlns:xlink="http://www.w3.org/1999/xlink"
   xmlns:sodipodi="http://sodipodi.sourceforge.net/DTD/sodipodi-0.dtd"
   xmlns:inkscape="http://www.inkscape.org/namespaces/inkscape"
   version="1.1"
   id="svg2"
   viewBox="0 0 160.10618 108.85339"
   height="108.8534"
   width="160.10619"
   inkscape:version="0.48.4 r9939"
   sodipodi:docname="aranha.svg">
  <sodipodi:namedview
     pagecolor="#ffffff"
     bordercolor="#666666"
     borderopacity="1"
     objecttolerance="10"
     gridtolerance="10"
     guidetolerance="10"
     inkscape:pageopacity="0"
     inkscape:pageshadow="2"
     inkscape:window-width="1600"
     inkscape:window-height="876"
     id="namedview1313"
     showgrid="false"
     fit-margin-top="0"
     fit-margin-left="0"
     fit-margin-right="0"
     fit-margin-bottom="0"
     inkscape:zoom="3.2064039"
     inkscape:cx="-90.874888"
     inkscape:cy="54.429401"
     inkscape:window-x="0"
     inkscape:window-y="1"
     inkscape:window-maximized="1"
     inkscape:current-layer="svg2" />
  <script
     id="script4164"
     xlink:href="C:\wamp\www\bingo\js/snap.svg-min.js" />
  <title
     id="title4162">Bingo das Letras</title>
  <defs
     id="defs4">
    <linearGradient
       id="linearGradient12614"
       osb:paint="solid">
      <stop
         style="stop-color:#000000;stop-opacity:1;"
         offset="0"
         id="stop12616" />
    </linearGradient>
    <linearGradient
       id="linearGradient59274"
       osb:paint="solid"
       gradientTransform="matrix(-0.19399818,0,0,-0.19399818,259.22818,12173.784)">
      <stop
         style="stop-color:#930033;stop-opacity:1;"
         offset="0"
         id="stop59276" />
    </linearGradient>
    <linearGradient
       gradientTransform="matrix(110.20782,22.122239,-29.697412,82.096171,6264986.9,4301855.4)"
       osb:paint="solid"
       id="linearGradient4269">
      <stop
         id="stop4271"
         offset="0"
         style="stop-color:#ffffff;stop-opacity:1;" />
    </linearGradient>
    <linearGradient
       gradientTransform="translate(106155.96,125143.42)"
       osb:paint="solid"
       id="linearGradient4251">
      <stop
         id="stop4253"
         offset="0"
         style="stop-color:#555555;stop-opacity:1;" />
    </linearGradient>
    <linearGradient
       gradientTransform="matrix(0.19125385,0,0,0.19125385,-3339.6871,-12983.848)"
       osb:paint="solid"
       id="linearGradient4241">
      <stop
         id="stop4243"
         offset="0"
         style="stop-color:#3fb5ae;stop-opacity:1;" />
    </linearGradient>
    <linearGradient
       gradientTransform="translate(2399.1562,2075.6965)"
       osb:paint="solid"
       id="linearGradient4231">
      <stop
         id="stop4233"
         offset="0"
         style="stop-color:#d1f2a5;stop-opacity:1;" />
    </linearGradient>
    <linearGradient
       gradientTransform="matrix(0.66768435,0,0,0.66768435,-186.89148,394.64653)"
       osb:paint="solid"
       id="linearGradient4221">
      <stop
         id="stop4223"
         offset="0"
         style="stop-color:#effab4;stop-opacity:1;" />
    </linearGradient>
    <linearGradient
       gradientTransform="translate(-699.20463,883.12976)"
       osb:paint="solid"
       id="linearGradient4211">
      <stop
         id="stop4213"
         offset="0"
         style="stop-color:#ffc48c;stop-opacity:1;" />
    </linearGradient>
    <linearGradient
       gradientTransform="matrix(0.35946858,0,0,0.22423084,-331.07911,5516.4706)"
       osb:paint="solid"
       id="linearGradient4201">
      <stop
         id="stop4203"
         offset="0"
         style="stop-color:#ff9f80;stop-opacity:1;" />
    </linearGradient>
    <linearGradient
       gradientTransform="matrix(0.52321996,0,0,0.52321996,2015.4535,3072.5352)"
       osb:paint="solid"
       id="linearGradient4191">
      <stop
         id="stop4193"
         offset="0"
         style="stop-color:#f56991;stop-opacity:1;" />
    </linearGradient>
    <style
       type="text/css"
       id="style6">
    .str0 {stroke:#006633;stroke-width:282.22}
    .str1 {stroke:#AB754F;stroke-width:282.22}
    .fil2 {fill:none}
    .fil3 {fill:#606062}
    .fil5 {fill:#CE8F64}
    .fil4 {fill:#006633}
    .fil8 {fill:#009933}
    .fil9 {fill:#00B33C}
    .fil10 {fill:#00C943}
    .fil0 {fill:#00D447}
    .fil1 {fill:#00DB49}
    .fil6 {fill:#B88059}
    .fil11 {fill:#BA8058}
    .fil12 {fill:#D49264}
    .fil7 {fill:#E49C6D}
  </style>
    <linearGradient
       spreadMethod="pad"
       y2="188.4875"
       x2="586.59998"
       y1="169.5125"
       x1="594.5"
       gradientUnits="userSpaceOnUse"
       id="Gradient_1-58">
      <stop
         id="stop63277"
         stop-color="#B86501"
         offset="53.72549019607843%" />
      <stop
         id="stop63279"
         stop-color="#FF0000"
         offset="100%" />
    </linearGradient>
    <linearGradient
       spreadMethod="pad"
       y2="192.55"
       x2="569.45001"
       y1="175.85001"
       x1="558.25"
       gradientUnits="userSpaceOnUse"
       id="Gradient_2-5">
      <stop
         id="stop63282"
         stop-color="#B86501"
         offset="53.72549019607843%" />
      <stop
         id="stop63284"
         stop-color="#FF0000"
         offset="100%" />
    </linearGradient>
    <g
       id="Layer0_0_FILL-99">
      <path
         style="fill:#493701;stroke:none"
         inkscape:connector-curvature="0"
         id="path63287"
         d="m 525.25,72.5 q -0.75273,-0.215234 -1.5,-0.45 l 0,0 q -20.02676,-5.516992 -35.35,12.8 -9.25664,11.026953 -16.75,30.9 -0.0996,0.27539 0,0.55 0.10098,0.26445 0.35,0.4 0.24902,0.13555 0.5,0.05 0.29141,-0.0432 0.45,-0.3 13.17734,-18.002344 24.15,-26.85 13.14121,-10.553711 23,-7.75 1.1623,0.343359 2.3,0.75 l 0,0 q 0.24961,0.07539 0.45,0.15 0.0254,0.05137 0.05,0.05 1.0873,0.431055 2.15,0.9 14.48027,6.692188 26.25,26.6 -3.25449,-1.47207 -6.45,-2.6 -6.47227,-2.31777 -12.6,-3.05 -8.11055,-1.00313 -15.6,0.8 -0.19277,0.0469 -0.35,0.2 -0.1418,0.15879 -0.2,0.35 -0.99434,5.12832 -0.3,11.3 l 0,0 q 0.0102,0.0656 0,0.1 -2.26797,0.95059 -4.15,3.1 0.001,0.0213 0,0.05 0.002,0.0426 0,0.05 l 0.05,0 q 0.0551,0.0231 0.05,0 1.8418,-2.08965 4.05,-3.05 0.74766,6.3498 3.3,13.8 0.0732,0.19395 0.2,0.3 -0.0191,0.20645 0.05,0.4 4.97988,14.37324 17.6,33.75 0.62539,1.22383 1.85,0.6 0,-0.09 0,-0.2 -0.06,-0.34258 -0.15,-0.75 -8.2625,-21.60801 -10.9,-36 -1.05098,-5.82148 -1.2,-10.5 3.64902,1.50352 7.35,3.1 0.0248,0.0369 0.05,0 0.033,0.009 0.05,-0.05 0.0119,0 0,-0.05 -0.0166,-0.008 -0.05,-0.05 -3.72871,-1.6209 -7.4,-3.15 -0.0172,-0.0838 -0.05,-0.2 -0.0488,-3.23262 0.35,-5.85 0.75312,0.0748 1.5,0.15 7.76563,1.02188 14.65,4.15 5.80762,2.69258 11,6.9 0.24219,0.22852 0.55,0.2 l 6.95,-0.8 0.2,0 q 0.10527,-0.026 0.15,-0.1 0.13555,-0.0158 0.2,-0.1 0.0975,-0.0676 0.15,-0.15 l 0.05,-0.15 q 0.0334,-0.0336 0.05,-0.1 l 0,-0.05 1.2,-8.55 q 0.0318,-0.25137 -0.1,-0.5 -20.3625,-35.435156 -38.15,-41.1 m -2.9,0.75 q 0.52168,0.128711 1,0.25 l 0,0 q 0.71035,0.222461 1.45,0.45 17.27559,5.614453 37.15,40.15 l -0.9,6.6 -0.2,1.15 -0.75,0.1 -5.4,0.6 q -5.22559,-4.20859 -11.05,-6.9 -0.4584,-0.18027 -0.95,-0.4 -6.67461,-2.89551 -14.15,-3.9 l -0.05,0 q -1.0998,-0.11875 -2.25,-0.2 -0.25312,-0.0252 -0.5,0.15 -0.20176,0.17207 -0.25,0.45 -0.53145,2.84961 -0.5,6.45 -0.95918,-0.39121 -1.95,-0.8 -2.32754,-0.9041 -4.65,-0.65 -0.57402,0.0855 -1.15,0.2 -0.58398,-5.52695 0.25,-10.15 6.99688,-1.59473 14.6,-0.65 5.94512,0.70449 12.25,2.95 0.0877,0.0486 0.15,0.05 4.02051,1.44258 8.15,3.5 0.10273,0.0393 0.15,0.05 0.25293,0.12656 0.5,0.05 0.23633,-0.0201 0.4,-0.2 0.16953,-0.17988 0.2,-0.45 0.0385,-0.21367 -0.1,-0.45 -12.49687,-22.151563 -28.1,-29.3 -1.1252,-0.508398 -2.25,-0.95 -0.26113,-0.114062 -0.55,-0.2 l 0,0 q -1.03789,-0.385156 -2.1,-0.7 -0.13789,-0.03711 -0.3,-0.1 -10.29766,-3.085156 -23.9,7.7 -0.1873,0.17168 -0.4,0.35 -9.71113,7.788477 -21.1,22.65 6.36816,-15.381055 13.95,-24.7 0.25078,-0.303906 0.5,-0.6 14.27617,-17.074805 32.8,-12.55 m -5.05,43.9 0,-0.05 q 0.5502,-0.1127 1.1,-0.2 2.31016,-0.24453 4.6,0.65 1.01445,0.4252 2,0.8 0.0223,0.1375 0,0.25 0.14785,4.8291 1.25,10.95 0.0361,0.10156 0.05,0.2 2.33047,12.87187 10,32.3 -10.98848,-17.35039 -15.55,-30.5 -0.0607,-0.16895 -0.2,-0.3 0.0439,-0.19375 -0.05,-0.4 0,-0.0609 -0.05,-0.15 -2.47793,-7.32852 -3.15,-13.55 m 132.55,-30.45 0,0 q -5.64902,-1.26543 -11.85,0.8 -7.99922,2.63125 -16.9,10.95 13.16914,-27.07168 26.05,-34.95 l 0,0 q 0.37383,-0.238477 0.75,-0.45 0.0486,0.01328 0.05,0 5.94648,-3.305273 17.75,-2.8 16.2582,0.779102 43.5,8.75 0.28418,0.08145 0.55,-0.05 0.26562,-0.129492 0.35,-0.4 0.13184,-0.274219 0,-0.55 -0.0854,-0.272656 -0.35,-0.4 Q 687.03437,56.581055 671,52.7 q -10.43555,-2.482227 -18.1,-1.95 -7.55059,0.486719 -12.4,3.9 -17.05176,12.055078 -40.75,62.9 -0.12422,0.23047 -0.1,0.45 0.0895,0.2832 0.3,0.45 l 7.1,5.5 0,-0.05 0.1,0.05 5.05,4.85 q 0.20625,0.19434 0.45,0.2 0.23867,0.0627 0.45,-0.05 0.20586,-0.12363 0.3,-0.35 11.70352,-25.37168 25.15,-30.35 4.17422,-1.497266 8.55,-1 11.79531,1.411719 24.55,13.85 0.0613,0.0859 0.1,0.1 7.22578,7.0916 14.75,17.65 0.18301,0.25723 0.45,0.3 0.27402,0.0869 0.5,-0.05 0.27539,-0.13555 0.35,-0.4 0.125,-0.26152 0,-0.55 -8.14629,-21.49453 -20.5,-32.2 -7.87617,-6.79668 -17.45,-9.25 M 669.4,53.9 q 0.6459,0.147266 1.25,0.3 12.92852,3.102344 30.2,10.9 -21.38496,-5.707227 -35.1,-6.35 -0.0387,0.02246 -0.1,0 -12.26836,-0.522461 -18.45,2.95 l 0.1,0 q -0.0781,0.05273 -0.15,0.05 -0.42754,0.24082 -0.8,0.5 l 0,-0.05 q -14.05547,8.523242 -28.4,39.4 l -0.05,0 q -0.0941,0.28027 -0.05,0.55 0.0986,0.2541 0.3,0.4 0.25156,0.16602 0.5,0.15 0.30254,-0.0277 0.5,-0.25 0.0238,-0.0123 0.05,-0.05 9.99297,-10.225781 18.8,-13.3 0.25312,-0.0793 0.45,-0.15 l 0,-0.05 q 5.79551,-1.903906 11.05,-0.75 8.65059,2.2375 15.85,8.15 0.51895,0.413477 1,0.8 10.41094,9.07852 17.8,26.05 -4.95195,-6.49277 -9.75,-11.45 -0.84004,-0.85742 -1.7,-1.7 -0.0369,-0.0369 -0.1,-0.1 -13.14141,-12.761719 -25.35,-14.15 -4.70898,-0.530273 -9.25,1.1 l 0,0 q -13.6625,4.95254 -25.5,30.15 l -4,-3.8 -0.4,-0.4 q -0.0248,-10e-4 -0.05,-0.05 l -0.75,-0.55 -5.95,-4.6 q 23.29375,-49.811328 40,-61.7 4.56367,-3.195898 11.65,-3.65 0.76016,-0.04941 1.5,-0.1 6.50762,-0.145117 14.9,1.75 z" />
      <path
         style="fill:#cc9900;stroke:none"
         inkscape:connector-curvature="0"
         id="path63289"
         d="m 526.25,129.55 q -3.1666,-0.0924 -5.8,1.15 0.05,0.0891 0.05,0.15 0.0939,0.20625 0.05,0.4 0.13926,0.13105 0.2,0.3 4.56152,13.14961 15.55,30.5 -7.66953,-19.42813 -10,-32.3 -0.0139,-0.0984 -0.05,-0.2 m 33.85,-7.6 -7.45,-9.3 q -4.12949,-2.05742 -8.15,-3.5 -0.2625,1.16387 -1.05,2.5 -1.15566,2.12266 -0.75,3.6 0.4916,0.21973 0.95,0.4 5.82441,2.69141 11.05,6.9 l 5.4,-0.6 M 496.6,88.1 q -0.006,-1.144531 -0.1,-2.3 -4.73047,0.662891 -7.75,6.25 0.39199,-2.999023 0.3,-5.65 -7.58184,9.318945 -13.95,24.7 11.38887,-14.861523 21.1,-22.65 0.2127,-0.17832 0.4,-0.35 m 26.75,-14.6 q -0.47832,-0.121289 -1,-0.25 -2.10859,0.846094 -4.4,1.75 -2.18359,0.93418 -4.6,1.45 3.83594,1.504883 7.45,4.05 1.06211,0.314844 2.1,0.7 l 0,0 q 0.28887,0.08594 0.55,0.2 1.1248,0.441602 2.25,0.95 15.60313,7.148437 28.1,29.3 l 7.25,9.05 0.9,-6.6 Q 542.07559,79.564453 524.8,73.95 524.06035,73.722461 523.35,73.5 l 0,0 M 638,96.85 q -0.91426,-2.385156 -0.35,-5.75 0.17266,-0.995898 0.35,-2 -8.80703,3.074219 -18.8,13.3 l -10.7,20.8 4,3.8 Q 624.3375,101.80254 638,96.85 m 27.35,-0.55 q -3.12656,-0.46875 -6,0 1.88027,1.387891 3.4,2.95 7.14668,7.11602 14.2,13.2 -1.36836,-0.27422 -2.55,-0.75 4.79805,4.95723 9.75,11.45 -7.38906,-16.97148 -17.8,-26.05 -0.48105,-0.386523 -1,-0.8 M 654.5,52.15 q -0.73984,0.05059 -1.5,0.1 -7.08633,0.454102 -11.65,3.65 -16.70625,11.888672 -40,61.7 l 5.95,4.6 10.6,-20.6 0.05,0 q 14.34453,-30.876758 28.4,-39.4 l 0,0.05 q 0.37246,-0.25918 0.8,-0.5 0.1832,-1.401758 -1.7,-2.55 -0.91426,-0.5375 -1.35,-2.6 4.40918,-1.241602 8.95,-2 2.38535,-0.363672 3.85,-1.35 -1.18711,-0.538477 -2.4,-1.1 m 16.15,2.05 q -0.6041,-0.152734 -1.25,-0.3 -3.50117,0.932227 -7.95,0.5 3.73008,0.806836 4.2,4.35 0.0613,0.02246 0.1,0 13.71504,0.642773 35.1,6.35 -17.27148,-7.797656 -30.2,-10.9 z" />
      <path
         style="fill:#ad8201;stroke:none"
         inkscape:connector-curvature="0"
         id="path63291"
         d="m 517.3,117.1 0,0.05 q 0.67207,6.22148 3.15,13.55 2.6334,-1.24238 5.8,-1.15 -1.10215,-6.1209 -1.25,-10.95 0.0223,-0.1125 0,-0.25 -0.98555,-0.3748 -2,-0.8 -2.28984,-0.89453 -4.6,-0.65 -0.5498,0.0873 -1.1,0.2 m 27.2,-7.95 q -0.0623,-0.001 -0.15,-0.05 -6.30488,-2.24551 -12.25,-2.95 -7.60312,-0.94473 -14.6,0.65 -0.83398,4.62305 -0.25,10.15 0.57598,-0.11445 1.15,-0.2 2.32246,-0.2541 4.65,0.65 0.99082,0.40879 1.95,0.8 -0.0314,-3.60039 0.5,-6.45 0.0482,-0.27793 0.25,-0.45 0.24688,-0.1752 0.5,-0.15 1.1502,0.0812 2.25,0.2 l 0.05,0 q 7.47539,1.00449 14.15,3.9 -0.40566,-1.47734 0.75,-3.6 0.7875,-1.33613 1.05,-2.5 m -48,-23.35 q 0.0935,1.155469 0.1,2.3 13.60234,-10.785156 23.9,-7.7 0.16211,0.06289 0.3,0.1 -3.61406,-2.545117 -7.45,-4.05 2.41641,-0.51582 4.6,-1.45 2.29141,-0.903906 4.4,-1.75 -18.52383,-4.524805 -32.8,12.55 -0.24922,0.296094 -0.5,0.6 0.092,2.650977 -0.3,5.65 3.01953,-5.587109 7.75,-6.25 m 162.85,10.5 q 2.87344,-0.46875 6,0 -7.19941,-5.9125 -15.85,-8.15 -5.25449,-1.153906 -11.05,0.75 l 0,0.05 q -0.19688,0.0707 -0.45,0.15 -0.17734,1.004102 -0.35,2 -0.56426,3.364844 0.35,5.75 l 0,0 q 4.54102,-1.630273 9.25,-1.1 12.20859,1.388281 25.35,14.15 0.0631,0.0631 0.1,0.1 0.85996,0.84258 1.7,1.7 1.18164,0.47578 2.55,0.75 -7.05332,-6.08398 -14.2,-13.2 -1.51973,-1.562109 -3.4,-2.95 M 654.5,52.15 q 1.21289,0.561523 2.4,1.1 -1.46465,0.986328 -3.85,1.35 -4.54082,0.758398 -8.95,2 0.43574,2.0625 1.35,2.6 1.8832,1.148242 1.7,2.55 0.0719,0.0027 0.15,-0.05 l -0.1,0 q 6.18164,-3.472461 18.45,-2.95 -0.46992,-3.543164 -4.2,-4.35 4.44883,0.432227 7.95,-0.5 -8.39238,-1.895117 -14.9,-1.75 z" />
      <path
         style="fill:#000000;stroke:none"
         inkscape:connector-curvature="0"
         id="path63293"
         d="m 552.8,112.7 q -0.0473,-0.0107 -0.15,-0.05 l 7.45,9.3 0.75,-0.1 0.2,-1.15 -7.25,-9.05 q 0.13848,0.23633 0.1,0.45 -0.0305,0.27012 -0.2,0.45 -0.16367,0.17988 -0.4,0.2 -0.24707,0.0766 -0.5,-0.05 m 54.25,11.25 q 0.0588,0.016 0.1,0 l -0.1,-0.05 0,0.05 M 619.2,102.4 q -0.0262,0.0377 -0.05,0.05 -0.19746,0.22227 -0.5,0.25 -0.24844,0.016 -0.5,-0.15 -0.20137,-0.1459 -0.3,-0.4 -0.0441,-0.26973 0.05,-0.55 l -10.6,20.6 0.75,0.55 q 0.0252,0.0488 0.05,0.05 l 0.4,0.4 10.7,-20.8 z" />
    </g>
    <g
       id="Layer0_1_FILL-2">
      <path
         style="fill:#584201;stroke:none"
         inkscape:connector-curvature="0"
         id="path63296"
         d="m 609.6,167.7 q 1.36113,0.91875 2.5,2.25 0.24297,-3.0457 -4.85,-6.05 0.82363,1.70742 1.45,3.25 0.48281,0.2791 0.9,0.55 m 1.45,-5.8 q 0.64687,0.13848 1.3,0.35 1.39043,0.45781 2.9,1.3 -2.10859,-3.28926 -6,-4.55 0.67266,1.41973 1.8,2.9 m -7.2,10.15 q -0.12051,0.2791 -0.25,0.55 0.1457,0.20937 0.25,0.4 l 0.05,0.05 q 0.57461,1.05312 0.9,2.1 0.7959,-2.38535 -0.4,-5.55 -0.019,1.25449 -0.55,2.45 M 591.9,164.8 q -0.2291,-0.41621 -0.2,-0.85 -0.23184,0.72227 -0.7,1.35 -1.32793,1.87109 -2.95,3.35 -0.27559,0.26445 -0.55,0.55 0.0729,0.0959 0.1,0.2 0.66035,1.03223 0.9,2.4 0.17031,0.67012 0.2,1.4 0.68203,-2.16543 1.35,-4.35 0.15176,-0.33359 0.25,-0.7 3.16367,1.48457 3.1,4.5 0.81309,-2.25605 2.3,-5.15 -0.31758,-0.5291 -0.75,-0.45 -0.20254,0.0885 -0.85,0.5 -0.3541,0.29922 -0.75,0.5 -0.50469,-0.88516 -0.9,-2.05 -0.22383,-0.6168 -0.55,-1.2 m 15.3,-21.05 q -0.11699,1.78594 -0.05,3.8 0.11719,2.81992 -0.6,5.6 -0.27676,1.09766 1.5,1.4 2.67969,0.41855 4.85,2 0.86895,0.60352 1.5,1.4 0.17637,0.0746 0.3,0.1 0.0959,0.0531 0.15,0.1 -1.55234,-2.27891 -5.35,-3.95 -0.19648,-0.0959 -0.35,-0.3 -0.0953,-0.20957 -0.1,-0.45 0.28672,-3.56348 -1,-7.3 -0.40391,-1.26211 -0.85,-2.4 M 570.55,127.7 q -0.0897,-0.81074 -0.5,-1.5 -0.43301,-0.10449 -0.9,-0.2 l 0.05,0.05 q -0.71699,-0.1002 -1.45,-0.1 2.71523,1.80762 2.65,4.3 -0.0119,0.20879 -0.15,0.35 1.10469,0.66152 1.7,1.35 -1.01035,-1.55332 -1.4,-4.25 m 8.55,6.05 q 0.21172,-1.13906 0.55,-2.65 -0.23691,-0.0504 -0.4,-0.3 -1.45957,-1.94082 -2.45,-4.5 -0.44473,-1.14473 -0.8,-2.4 -0.50449,1.12461 -0.65,2.35 l 0,0 q -0.0836,0.89766 0,1.8 0.0463,0.26406 -0.1,0.45 -0.0707,0.19355 -0.25,0.3 1.2584,1.79062 2.75,3.55 0.64238,0.76191 1.35,1.4 m 7.1,-9.55 q -0.52559,0.30098 -1.05,0.65 -0.64297,0.93887 -1.05,2 -0.21758,0.66406 -0.35,1.35 -0.48594,2.54746 0.6,4.8 0.24687,-1.79727 1.35,-2.75 -0.0672,-0.017 -0.15,-0.05 -0.11719,0.01 -0.25,0 l 0.25,-0.05 q -0.22754,-0.16211 -0.3,-0.45 -0.1293,-1.27012 0.05,-2.5 l 0,0 q 0.21562,-1.54219 0.9,-3 m -41.25,36.6 q 0.63965,-1.42754 1.45,-2.85 -2.3002,1.49531 -3.25,3.45 0.28965,-0.0883 0.55,-0.2 0.20117,-0.0437 0.75,-0.25 0.26543,-0.0551 0.5,-0.15 m 18.5,8.85 q -0.98574,2.05859 -3.2,2.95 0.1377,0.44551 0.2,0.85 0.29434,1.58437 1.15,2.35 0.55801,-3.09883 1.85,-6.15 m -12.65,2.4 q 0.3877,-0.24512 0.8,-0.5 0.18047,-0.11777 0.35,-0.15 0.1125,-0.14199 0.25,-0.25 0.1873,-0.0883 0.35,-0.2 -0.16816,-2.16484 -0.2,-4 -1.7248,2.79062 -1.55,5.1 m -1.5,-17.85 q 0.93691,0.16641 1.4,-0.4 -2.8,-1.32969 -2.4,-4.7 0.25527,-1.99824 0.05,-3.8 -0.77656,2.50781 -0.8,5.4 -0.005,0.26074 -0.15,0.45 -0.13125,0.19668 -0.35,0.25 -0.2375,0.11191 -0.5,0.05 -4.00859,-1.25391 -5.1,1.3 -0.59629,1.46094 -0.95,2 0.26328,-0.0621 0.5,-0.15 l -0.05,0 q 0.49414,-0.12754 0.95,-0.25 1.36719,-1.35234 3.7,-0.85 1.77852,0.37305 3.7,0.7 m 24.45,1.9 q 0.0184,0.6498 -0.15,1.3 l 0,0 q -0.0383,0.14824 -0.1,0.25 0.85449,-0.42734 1.6,-0.8 -0.76211,-0.22773 -1.35,-0.75 m 5.5,-0.6 q 0.64844,-0.13945 1.3,-0.2 -0.4375,-0.36797 -0.8,-0.9 -0.15703,0.62305 -0.5,1.1 m -3.5,-14.15 0.05,0 q 1.56777,0.44551 2.5,1.65 0.0606,-0.4166 0.15,-0.85 0.58359,-1.96289 2.35,-3 0.49395,-0.26152 1,-0.4 1.33437,-0.43262 2.75,-0.05 l 0.05,0 q 1.96953,0.56914 2.95,2.35 0.0404,0.1 0.05,0.15 -0.0852,-1.24551 0.3,-2.6 0.11035,-0.40215 0.25,-0.8 -0.61934,0.004 -1.3,-0.05 -2.18887,-0.18477 -4.4,0.6 -2.70391,1.03984 -5.5,1.85 -2.45781,0.74199 -5.1,0.1 0.27891,0.7 0.45,1.4 1.43145,-0.71543 2.95,-0.45 l -0.05,0 q 0.2998,0.0445 0.55,0.1 m -16.2,12.55 q -0.29063,-0.1 -0.6,-0.2 -3.33047,-1.12559 -5.25,-4.1 0.32715,1.22578 0.7,2.45 0.9543,2.8209 3.7,3.8 2.27637,0.8418 4.25,0.65 0.17813,2.30059 2.3,4 1.90313,1.51855 4,0.8 0.39082,-0.14023 0.65,-0.3 -0.85527,0.0955 -1.8,-0.15 5.9e-4,0.0123 -0.05,0 -1.93789,-0.55859 -2.95,-2.35 l 0,-0.05 q -0.99082,-1.7668 -0.45,-3.7 0.11094,-0.32617 0.2,-0.65 -2.24531,0.47383 -4.65,-0.2 l -0.05,0 m 13.85,-2.95 q -0.12754,-0.006 -0.25,-0.05 l 0,0 q -1.3002,-0.36211 -2.2,-1.3 -0.54199,0.86055 -1.25,1.55 0.23633,0.0771 0.45,0.15 1.49062,0.39473 2.4,1.5 0.0637,-0.18887 0.1,-0.4 0.0359,-0.0256 0.05,-0.05 0.2084,-0.79102 0.7,-1.4 m 12.25,-3.15 q -0.22695,0.1668 -0.5,0.25 0.93184,0.43418 1.55,1.2 0.64766,-2.11641 2.6,-3.25 l 0,0.05 q 0.28789,-0.16699 0.55,-0.3 -0.73281,-0.72559 -1.3,-1.7 -0.16953,-0.33613 -0.35,-0.7 0.0422,0.72227 -0.15,1.45 l 0,0 q -0.55859,1.98789 -2.35,3 l -0.05,0 m -6.4,-0.35 0,0.05 q -0.43145,1.48984 -1.6,2.4 0.89766,0.39297 1.5,1.15 0.0184,-0.0848 0.05,-0.2 0.43828,-1.5582 1.75,-2.45 l -0.05,0.05 q 0.1623,-0.11719 0.3,-0.2 0.0496,-0.0135 0.05,-0.05 0.12344,-0.0287 0.2,-0.1 -1.22559,-0.44844 -2.05,-1.5 -0.0361,0.44238 -0.15,0.85 z" />
      <path
         inkscape:connector-curvature="0"
         style="fill:url(#Gradient_1-58);stroke:none"
         id="path63298"
         d="m 595.95,166.45 -0.05,0.25 -0.2,0.8 q -1.48691,2.89395 -2.3,5.15 0.0637,-3.01543 -3.1,-4.5 -0.0982,0.36641 -0.25,0.7 -0.66797,2.18457 -1.35,4.35 0.10742,1.44648 -0.15,3.15 l 0,0.05 q -0.53496,3.96426 -2.75,9.5 9.01934,-3.33223 10,-17.1 -0.002,-0.36426 0,-0.7 0.0482,-0.18496 0.1,-1.3 0.0389,-0.14785 0.05,-0.35 z" />
      <path
         style="fill:#cc9900;stroke:none"
         inkscape:connector-curvature="0"
         id="path63300"
         d="m 634.8,119.2 q -0.0756,-0.53223 -0.2,-1.1 -0.10156,-0.003 -0.25,-0.05 -11.47227,-1.67734 -25.3,5.75 2.92832,3.31582 2.5,8.65 8.33887,-9.79082 21.3,-7.6 0.63477,-3.00742 1.95,-5.65 m -110.05,38.5 q -7.53398,11.4957 -5.95,27.8 2.60898,-14.45664 8.85,-22.8 0.10977,-0.10977 0.2,-0.25 -1.4918,-2.42734 -3.1,-4.75 M 512.9,115.6 q -0.1873,0.0725 -0.4,0.15 -19.12656,6.61348 -23.9,39.2 9.45156,-23.99102 22.25,-30.85 0.99727,-4.30586 2.05,-8.5 m 26.05,28.5 q -0.22188,0.17441 -0.45,0.3 -0.0637,1.2543 -0.45,2.7 -1.11133,4.21289 -2.25,8.15 1.50898,-0.90586 3.15,-1.65 0.1873,-0.0484 0.35,-0.05 2.30586,-4.71953 6.8,-3.8 0.15312,-3.19551 1.15,-5.95 l -0.05,0.1 q -0.59883,0.85977 0.45,-1.3 0.88809,-1.73496 2.15,-3.4 -4.63926,0.73184 -10.85,4.9 m -4.2,-29.6 q -0.009,0.0119 -0.05,0 -0.47793,1.44531 -1.05,2.75 -1.22988,2.86133 -3.45,3.9 4.57031,0.58223 6.8,2.65 0.5875,0.2043 1.15,0.4 12.00293,3.9459 13.85,12.55 0.73789,-0.6668 1.5,-1.3 0.20605,-0.13301 0.4,-0.15 0.0402,-0.0654 0.05,-0.15 -0.13027,-0.16543 -0.15,-0.45 0.005,-2.99258 2.35,-5.4 0.71465,-0.71621 1.65,-1.4 -0.91602,-1.34219 -2.4,-1.5 -1.31152,-0.12012 -3,0.55 -0.21992,0.11133 -0.45,0.05 -0.2377,-0.049 -0.4,-0.25 -0.15586,-0.15918 -0.2,-0.4 0.003,-0.24023 0.1,-0.45 0.91289,-1.50645 1.9,-2.55 -9.2416,-6.65703 -18.6,-8.85 m 98.85,43.8 q -3.89746,-1.2752 -5.85,1.5 0.0609,0.59805 0.05,1.15 0.11602,2.39082 -0.55,4.7 -0.62715,2.42461 -2.8,6.3 -2.70566,4.81172 -10.1,11.5 1.92012,-0.81055 4.35,-2.3 4.85293,-2.86738 10.25,-9.05 4.61172,-5.23691 4.65,-13.5 0.025,-0.14707 0,-0.3 m -25.15,-15.4 q 0.51621,1.29805 1,2.75 1.19023,3.43848 1.15,6.7 5.70176,-2.25508 10.25,-1.15 1.87129,0.49707 3.25,1.45 0.11113,-0.55039 0.2,-1.15 0.73555,-3.39668 -1.8,-4.95 2.45742,-0.9252 4.9,-2 -1.11465,-0.62715 -2.45,-1.05 -4.85215,-1.4627 -16.5,-0.6 m -42.9,-21 q -1.10215,-0.21133 -1.75,0.4 -2.18574,2.24316 -3.1,5.35 2.10625,-0.64668 4.05,-1.7 -0.0998,-0.19434 -0.1,-0.45 0.0447,-0.21387 0.2,-0.4 0.14961,-0.17402 0.35,-0.25 2.18027,-0.55781 4.15,-0.3 l 0.05,0 q 1.54043,0.22598 2.95,0.95 l -0.05,0 q 0.7959,0.42129 1.5,0.95 0.0492,-0.16289 0.05,-0.35 0.28496,-2.46621 1.85,-4.6 0.20547,-0.2207 0.5,-0.3 0.29883,-0.0223 0.55,0.15 0.24316,0.17539 0.3,0.45 0.44414,2.14551 1.15,3.95 0.66992,1.74648 1.55,3.15 0.94434,-1.70703 2.5,-3.55 1.5668,-1.79609 3.85,-2.75 1.72148,-0.64355 1.75,-0.55 0.0627,-0.0154 0.1,-0.05 0.30684,-0.0144 0.55,0.15 0.25371,0.21777 0.3,0.5 0.0262,0.33164 -0.2,0.55 -1.51836,1.98848 -1.8,4.2 l 0,0.05 q -0.11895,0.71719 0,1.35 0.0772,-0.0193 0.3,-0.05 0.4207,-0.0631 0.9,-0.1 0.23945,-0.0252 0.45,-0.05 0.0256,-0.0131 0.05,-0.05 7.89551,-0.60195 12,3.35 3.70586,3.46738 3.95,3.75 l 0,0 q 0.80234,0.98633 1.55,2.15 l -0.55,-3.6 q -0.0342,-0.27422 0.1,-0.55 0.20273,-0.21875 0.5,-0.3 0.29355,-0.0352 0.55,0.1 l 4.4,2.75 q -0.35059,-0.84238 -0.9,-1.65 -0.0789,-0.0647 -0.15,-0.2 l -0.05,-0.05 q -0.34434,-0.46484 -0.5,-0.65 -0.30371,-0.38379 -0.7,-0.75 -0.49102,-0.46953 -0.65,-0.6 -0.0232,-0.0266 -0.05,-0.05 l -0.05,-0.05 q -1.68066,-1.39844 -4.15,-2.55 -0.19863,-0.0982 -0.35,-0.3 -0.0947,-0.21074 -0.1,-0.45 0.0467,-0.22695 0.2,-0.4 0.1502,-0.18535 0.35,-0.25 1.71563,-0.59746 5.15,2.95 0.15527,0.13516 0.75,0.65 0.18027,0.19531 0.35,0.35 0.51875,-4.44922 -2.4,-7.6 -0.23809,-0.10352 -0.6,-0.3 -1.53672,-0.89512 -3.2,-1.65 -0.29043,-0.14941 -0.5,-0.25 -0.20039,-0.085 -0.45,-0.2 -0.23633,-0.0912 -0.35,-0.35 -0.10313,-0.27246 0,-0.55 0.0135,-0.0623 0,-0.15 -2.3709,-1.18516 -4.85,-2.6 -2.07188,-1.14941 -3.85,0.35 -0.87246,0.7498 -1.5,-0.5 -0.31738,-0.59863 -0.4,-1.15 -0.61055,0.15449 -1.35,0.1 -2.0377,-0.1127 -4.1,-0.25 0.1207,-0.79375 0.55,-1.45 1.82285,-2.58398 2.9,-5.95 -1.13301,0.37988 -2.35,0.95 -0.26816,0.15742 -0.55,0.05 -0.3041,-0.0979 -0.45,-0.4 -0.13281,-0.25723 -0.05,-0.55 1.11523,-3.31211 6.25,-5 -1.2207,-0.26406 -2.55,-0.25 l 0,0 q -1.28613,0.0572 -2.6,0.4 -0.76016,0.21055 -1.55,0.5 -0.18652,0.27539 -0.4,0.6 -0.78105,1.34863 -2.15,2.15 -4.02578,2.63437 -3.75,8 -2.32148,-0.68613 -4.15,-0.8 0.15977,0.51543 0.15,1.55 0.38125,1.09121 0.95,2 -0.84863,-0.11777 -1.6,-0.45 -2.23652,-0.9584 -4.6,-1.75 -0.24082,2.04707 -2.45,2.15 -1.4832,0.0832 -1.3,1.7 0.13184,0.88516 0.1,1.8 -0.74238,-0.32969 -1.45,-0.45 m 35.7,7.95 q 1.40859,0.39219 2,0.95 -4.26152,-0.38281 -8.25,-2.7 -0.95859,-0.55371 -1.95,-1.25 -0.70137,-0.50156 -1.55,-0.9 -1.36016,-0.61094 -0.35,-1.35 0.12813,-1.1625 -0.75,-2.15 3.0541,0.31934 7.2,2.85 0.82559,-1.9791 2.9,-2.2 0.15449,4.15762 0.75,6.75 m 48.45,-0.2 q -0.0805,1.4 -0.2,3.1 1.97363,2.48887 3.8,5.5 1.35,2.2 2.25,4.65 1.75,5.05 2.65,10.35 1,6.15 1.35,12.5 0.1,1.7 0.1,3.45 0.65,-3.95 1.15,-7.85 0.45,-3.75 0.55,-7.45 0.10625,-4.2502 -0.25,-8.75 -0.36641,-4.45215 -2.35,-8.65 l -1.35,-2.85 -0.05,0 0,-0.05 q -5.55156,-3.21797 -7.65,-3.95 z" />
      <path
         style="fill:#694f01;stroke:none"
         inkscape:connector-curvature="0"
         id="path63302"
         d="m 563.9,168.65 q 0.17461,-0.32813 0.7,0.2 1.57773,1.72949 2.85,3.7 -0.17793,-0.52773 -0.2,-1.2 -0.0293,-1.19043 0.25,-2.4 0.91504,0.95859 2,1.55 l 0.05,0 q -0.025,-1.81055 -1.15,-2.5 -1.78477,-1.1125 -2.5,0.85 -0.83926,-1.4875 -2.25,-2.4 -0.27949,1.0916 0.15,2.4 l 0,0 q 0.0766,-0.0865 0.1,-0.2 m -15.05,-1.9 q -0.10918,-1.50957 0.1,-3.25 -1.27715,2.29199 -1.5,4.75 0.23438,-0.22402 0.45,-0.45 0.14062,-0.16836 0.5,-0.6 0.24512,-0.22324 0.45,-0.45 m 41.7,-10.4 0,0 q -2.13281,-0.59102 -3.3,-2.5 -0.44785,1.02422 -1.4,1.65 -0.0367,0.0656 -0.1,0.1 -0.1377,0.075 -0.25,0.15 l -0.05,0 q -0.12148,0.082 -0.3,0.15 1.65313,0.4002 3.5,1 2.73574,0.92109 5.4,0.4 1.85879,-0.35254 2.1,-2.45 -0.55645,0.57383 -1.3,1 l -0.05,0 q -0.6,0.3416 -1.25,0.55 l 0,0 q -1.46543,0.41172 -3,-0.05 m 6.45,-8.25 0,0.05 q 0.34375,0.60234 0.55,1.2 0.45664,-0.45313 0.85,-0.8 1.6377,-1.46719 2,-3.7 0.005,-0.0342 -0.05,-0.1 0.032,0.10078 0,0.15 -0.0156,0.20039 -0.15,0.35 -0.77031,0.86738 -1.9,1.5 l 0,0 q -0.83652,0.51035 -1.75,0.75 0.25195,0.28965 0.45,0.6 m 3.1,-3.9 q 0.0543,0.0258 0.05,0.05 0.0969,-0.0775 0.05,-0.1 l -0.1,0.05 M 595.65,39.45 q 1.19355,1.414453 2.3,2.85 24.16875,31.185742 4.5,72.35 0.0615,0.0334 0.1,0.05 0.20234,0.1293 0.3,0.35 0.0824,0.21777 0,0.45 -0.0133,0.21953 -0.2,0.35 -0.36367,0.4123 -0.7,0.85 0.46738,-0.026 0.75,0 0.27383,0.0164 0.45,0 0.22793,0.0418 2.15,0.4 1.97461,0.41016 2.45,1.05 0.725,0.76641 0.4,1.85 -0.0658,0.25312 -0.25,0.4 -0.20059,0.14277 -0.45,0.15 -1.93359,0.0816 -2.8,0.6 l 0,0 q 1.52773,0.84531 2.05,1.05 0.53633,0.26367 0.6,0.3 10.13301,-13.42109 12.95,-20 4.08535,-9.367188 5.25,-19.85 l 0,0 q 1.90117,-20.004883 -13.75,-33.05 -4.92832,-4.17832 -10.5,-7.3 -2.71387,-1.553906 -5.6,-2.85 m -0.9,-0.4 q -0.22617,-0.07852 -0.45,-0.2 -0.43125,1.731836 -0.85,3.45 -7.20937,29.573828 -9.9,62.65 1.93555,-0.99902 3.8,-1.5 1.51543,-0.39004 2.95,-0.45 2.86133,-0.069 5.45,1.15 0.24922,0.13379 0.35,0.35 0.14746,0.21055 0.1,0.45 -0.008,0.24258 -0.2,0.4 -0.13926,0.20117 -0.4,0.25 -4.2332,0.93711 -6.2,2.75 0.36523,-0.12344 0.7,-0.25 4.19043,-1.20039 7.6,0.3 6.16602,-32.836914 -2.1,-66.1 -0.41016,-1.612109 -0.85,-3.25 m -9.75,1.6 q -0.16582,0.07637 -0.35,0 -0.11855,0.161914 -0.3,0.2 -1.91562,0.682227 -3.7,1.35 -0.0787,0.05 -0.15,0.1 -18.14727,11.542188 -24.45,32.45 -6.32754,20.960937 -1.25,38.85 0.72363,1.25801 1.45,2.5 0.12969,-0.0269 0.25,-0.05 3.32422,-0.64004 5.95,0.3 0.56172,0.18008 1.05,0.4 l -1.4,-2.4 q -0.12891,-0.20918 -0.1,-0.5 0.0576,-0.24551 0.25,-0.45 0.16406,-0.11563 0.3,-0.25 -7.42754,-44.421289 26.25,-70.85 2.08223,-1.648047 4.3,-3.25 -4.17852,0.560547 -8.1,1.6 z" />
      <path
         inkscape:connector-curvature="0"
         style="fill:url(#Gradient_2-5);stroke:none"
         id="path63304"
         d="m 559.85,171.35 q 0.15625,0.62559 0.35,1.35 0.42266,1.56074 1,3.75 2.2084,7.77969 10.15,11.05 -6.85547,-8.62969 -1.8,-17 l -0.05,0 q -1.08496,-0.59141 -2,-1.55 -0.2793,1.20957 -0.25,2.4 0.0221,0.67227 0.2,1.2 -1.27227,-1.97051 -2.85,-3.7 -0.52539,-0.52813 -0.7,-0.2 -0.0234,0.11348 -0.1,0.2 -0.0238,0.15078 -0.1,0.25 -0.10703,0.28633 -0.25,0.55 -1.29199,3.05117 -1.85,6.15 -0.85566,-0.76563 -1.15,-2.35 -0.0623,-0.40449 -0.2,-0.85 -0.15234,-0.60781 -0.4,-1.25 z" />
      <path
         style="fill:#7e5f01;stroke:none"
         inkscape:connector-curvature="0"
         id="path63306"
         d="m 559.1,133.8 0,0 q -2.24102,1.06738 -4.1,2.4 -0.12344,0.11035 -0.3,0.1 -0.0656,0.20156 -0.25,0.3 -0.90762,0.74434 -1.75,1.55 -0.19199,0.22207 -0.5,0.2 -0.0609,0.0318 -0.15,0 -0.0293,0.10996 -0.1,0.15 0.0168,0.0609 0,0.1 0.0373,0.31133 -0.2,0.55 -1.57754,1.83203 -2.55,3.95 -0.10332,0.21816 -0.6,1.55 l 0.2,-0.6 q -0.24961,0.60957 -0.45,1.25 0.20527,1.80176 -0.05,3.8 -0.4,3.37031 2.4,4.7 -0.46309,0.56641 -1.4,0.4 -1.92148,-0.32695 -3.7,-0.7 -2.33281,-0.50234 -3.7,0.85 3.4748,-0.76426 5.95,1.75 0.16699,0.16738 0.2,0.4 0.0369,0.24902 -0.1,0.45 -0.0856,0.24062 -0.3,0.35 -0.65234,0.32559 -1.25,0.65 -0.81035,1.42246 -1.45,2.85 2.95293,-0.72012 4.65,0.15 0.23164,0.10254 0.35,0.3 0.11348,0.19766 0.1,0.4 -0.0131,0.24512 -0.15,0.4 -0.53437,0.74043 -0.95,1.45 -0.20918,1.74043 -0.1,3.25 1.54414,-1.39805 3.3,-1.85 0.22793,-0.0594 0.45,0 0.23086,0.10566 0.35,0.3 0.15625,0.19297 0.15,0.4 0.005,0.2582 -0.15,0.45 -0.3123,0.46875 -0.6,0.9 0.0318,1.83516 0.2,4 2.2793,-1.35176 5.7,-2.75 0.24551,-0.0719 0.45,-0.05 0.24922,0.0891 0.4,0.25 0.16523,0.19668 0.2,0.4 0.0647,0.62871 0.55,2.55 0.24766,0.64219 0.4,1.25 2.21426,-0.89141 3.2,-2.95 0.14297,-0.26367 0.25,-0.55 0.0762,-0.0992 0.1,-0.25 l 0,0 q -0.42949,-1.3084 -0.15,-2.4 1.41074,0.9125 2.25,2.4 0.71523,-1.9625 2.5,-0.85 1.125,0.68945 1.15,2.5 0.0504,-0.0613 0.1,-0.15 0.0631,-0.0836 0.15,-0.15 0.6834,-1.03281 0.7,-1.1 2.96191,-4.02383 6.85,-4.4 3.81094,-0.37988 8.5,2.85 l -0.05,-0.05 q 1.04219,0.68887 1.7,1.7 0.27441,-0.28555 0.55,-0.55 1.62207,-1.47891 2.95,-3.35 0.46816,-0.62773 0.7,-1.35 -0.0291,0.43379 0.2,0.85 0.32617,0.5832 0.55,1.2 0.39531,1.16484 0.9,2.05 0.3959,-0.20078 0.75,-0.5 0.64746,-0.41152 0.85,-0.5 0.43242,-0.0791 0.75,0.45 l 0.2,-0.8 q -0.031,-0.30117 0.15,-0.55 0.17695,-0.23926 0.45,-0.3 0.34004,-0.0275 0.6,0.15 4.45332,3.27988 6.5,6.6 0.12949,-0.2709 0.25,-0.55 0.53105,-1.19551 0.55,-2.45 -0.44629,-1.23047 -1.25,-2.6 -0.10781,-0.23633 -0.05,-0.5 0.0555,-0.27422 0.25,-0.45 0.23242,-0.1666 0.5,-0.15 2.66699,0.0994 4.85,1.25 -0.62637,-1.54258 -1.45,-3.25 -0.42793,-0.26543 -0.9,-0.55 -0.27852,-0.12715 -0.4,-0.45 -0.0549,-0.26074 0.1,-0.55 0.13867,-0.25313 0.4,-0.35 2.11484,-0.65625 4.6,-0.1 -1.12734,-1.48027 -1.8,-2.9 -0.2707,-0.0793 -0.55,-0.15 -0.29707,-0.0814 -0.45,-0.35 -0.15586,-0.27363 -0.1,-0.6 0.10645,-0.27227 0.35,-0.45 0.27363,-0.11484 0.55,-0.05 0.38027,-0.0172 1.25,-0.05 2.31348,0.0207 4.1,0.6 -0.63105,-0.79648 -1.5,-1.4 -2.17031,-1.58145 -4.85,-2 -1.77676,-0.30234 -1.5,-1.4 0.71719,-2.78008 0.6,-5.6 -0.067,-2.01406 0.05,-3.8 -0.24121,-0.64414 -0.5,-1.25 l 0,0 q -0.5502,-1.27773 -1.1,-2.4 l 0,0.05 q -1.10703,-2.06484 -2.3,-3.55 -0.38203,-0.38926 -3.85,-3.6 -3.69844,-3.47695 -10.8,-2.95 -0.20957,0.0625 -0.45,0.1 -0.0344,-0.007 -1.2,0 -0.25195,0.003 -0.5,0 -0.14141,0.16191 -0.4,0.2 -0.21016,0.0269 -0.4,-0.1 -1.10313,0.95273 -1.35,2.75 -1.08594,-2.25254 -0.6,-4.8 0.13242,-0.68594 0.35,-1.35 0.40703,-1.06113 1.05,-2 -1.18223,0.79844 -2.2,2 -1.35488,1.58125 -2.45,3.85 -0.0869,0.23848 -0.35,0.35 -0.21602,0.12754 -0.5,0.05 -0.33828,1.51094 -0.55,2.65 -0.70762,-0.63809 -1.35,-1.4 -1.4916,-1.75938 -2.75,-3.55 -0.0127,0.0256 -0.05,0.05 -0.21543,0.0977 -0.45,0.05 -0.23281,-0.0361 -0.4,-0.2 -1.18242,-1.1752 -2.5,-1.85 -0.74141,-0.40723 -1.55,-0.65 0.41035,0.68926 0.5,1.5 0.38965,2.69668 1.4,4.25 -0.59531,-0.68848 -1.7,-1.35 -0.008,0.10742 -0.1,0.15 -0.19219,0.24707 -0.5,0.25 -2.24648,0.002 -4.95,0.75 -3.05371,0.86191 -5.6,2.05 m -1.8,1.35 -0.05,0 q 2.77422,-1.55039 5.75,-1.35 l 0,0 q 1.01816,0.0889 2.05,0.35 4.07051,1.15605 6.15,4.85 l 0,0 q 0.2123,0.33027 0.4,0.7 0.13594,0.32129 0.25,0.6 2.64219,0.64199 5.1,-0.1 2.79609,-0.81016 5.5,-1.85 2.21113,-0.78477 4.4,-0.6 0.68066,0.0541 1.3,0.05 0.075,-0.13066 0.15,-0.3 0.083,-0.14902 0.2,-0.25 0.0123,-0.22285 0.1,-0.45 0.9625,-1.55762 2.65,-2.5 l 0,0 q 2.58672,-1.45059 5.45,-0.65 2.87461,0.76562 4.35,3.35 l -0.05,0 q 0.72773,1.2623 0.9,2.6 0.20039,1.4043 -0.2,2.85 l 0,0.05 q -0.22578,0.69805 -0.9,1.75 -0.24961,0.4291 -0.4,0.6 -0.3623,2.23281 -2,3.7 -0.39336,0.34687 -0.85,0.8 0.0727,0.27246 0.1,0.5 l 0,0.05 q 0.23789,1.20664 -0.1,2.5 l 0,0.05 q -0.24121,0.86914 -0.75,1.6 -0.27246,0.43105 -0.65,0.8 -0.24121,2.09746 -2.1,2.45 -2.66426,0.52109 -5.4,-0.4 -1.84687,-0.5998 -3.5,-1 -0.69922,0.33594 -1.5,0.35 -0.67109,0.0465 -0.75,-0.1 -0.50566,0.0539 -1.05,-0.15 -0.76484,-0.22969 -1.3,-0.7 -0.65156,0.0605 -1.3,0.2 -0.46094,0.65215 -1.25,1.05 -2e-4,0.0389 -0.05,0.05 -0.15,0.0754 -0.35,0.15 -0.15742,0.12676 -0.35,0.1 -0.11074,0.0953 -0.25,0.1 -0.875,0.20664 -1.75,-0.05 -0.073,0.003 -0.15,-0.05 -0.74551,0.37266 -1.6,0.8 -0.15684,0.51934 -0.4,0.95 -0.0246,0.05 -0.05,0.05 -0.64805,1.0373 -1.75,1.7 -0.0383,0.0254 -0.1,0.05 -0.425,0.22031 -0.9,0.35 -9.8e-4,0.0371 -0.05,0.05 -0.44551,0.14629 -0.95,0.2 -0.25918,0.15977 -0.65,0.3 -2.09687,0.71855 -4,-0.8 -2.12187,-1.69941 -2.3,-4 -1.97363,0.1918 -4.25,-0.65 -2.7457,-0.9791 -3.7,-3.8 -0.37285,-1.22422 -0.7,-2.45 -0.12852,-0.25703 -0.3,-0.55 l 0.05,0.05 q -0.6791,-1.17129 -1,-2.4 l 0,0.05 q -0.7502,-2.62793 0,-5.45 1.15977,-4.07773 4.85,-6.15 z" />
      <path
         style="fill:#4e0101;stroke:none"
         inkscape:connector-curvature="0"
         id="path63308"
         d="m 557.25,135.15 0.05,0 q -3.69023,2.07227 -4.85,6.15 -0.7502,2.82207 0,5.45 l 0,-0.05 q 0.3209,1.22871 1,2.4 l -0.05,-0.05 q 0.17148,0.29297 0.3,0.55 1.91953,2.97441 5.25,4.1 0.30937,0.1 0.6,0.2 l 0.05,0 q 2.40469,0.67383 4.65,0.2 -0.0891,0.32383 -0.2,0.65 -0.54082,1.9332 0.45,3.7 l 0,0.05 q 1.01211,1.79141 2.95,2.35 0.0506,0.0123 0.05,0 0.94473,0.24551 1.8,0.15 0.50449,-0.0537 0.95,-0.2 0.049,-0.0129 0.05,-0.05 0.475,-0.12969 0.9,-0.35 0.0617,-0.0246 0.1,-0.05 1.10195,-0.6627 1.75,-1.7 0.0254,0 0.05,-0.05 0.24316,-0.43066 0.4,-0.95 0.0617,-0.10176 0.1,-0.25 l 0,0 q 0.16836,-0.6502 0.15,-1.3 0.58789,0.52227 1.35,0.75 0.077,0.0527 0.15,0.05 0.875,0.25664 1.75,0.05 0.13926,-0.005 0.25,-0.1 0.19258,0.0268 0.35,-0.1 0.2,-0.0746 0.35,-0.15 0.0498,-0.0111 0.05,-0.05 0.78906,-0.39785 1.25,-1.05 0.34297,-0.47695 0.5,-1.1 0.3625,0.53203 0.8,0.9 0.53516,0.47031 1.3,0.7 0.54434,0.20391 1.05,0.15 0.0789,0.14648 0.75,0.1 0.80078,-0.0141 1.5,-0.35 0.17852,-0.068 0.3,-0.15 l 0.05,0 q 0.1123,-0.075 0.25,-0.15 0.0633,-0.0344 0.1,-0.1 0.95215,-0.62578 1.4,-1.65 1.16719,1.90898 3.3,2.5 l 0,0 q 1.53457,0.46172 3,0.05 l 0,0 q 0.65,-0.2084 1.25,-0.55 l 0.05,0 q 0.74355,-0.42617 1.3,-1 0.37754,-0.36895 0.65,-0.8 0.50879,-0.73086 0.75,-1.6 l 0,-0.05 q 0.33789,-1.29336 0.1,-2.5 l 0,-0.05 q -0.0273,-0.22754 -0.1,-0.5 -0.20625,-0.59766 -0.55,-1.2 l 0,-0.05 q -0.19805,-0.31035 -0.45,-0.6 0.91348,-0.23965 1.75,-0.75 l 0,0 q 1.12969,-0.63262 1.9,-1.5 0.13438,-0.14961 0.15,-0.35 0.032,-0.0492 0,-0.15 0.0547,0.0658 0.05,0.1 0.15039,-0.1709 0.4,-0.6 0.67422,-1.05195 0.9,-1.75 l 0,-0.05 q 0.40039,-1.4457 0.2,-2.85 -0.17227,-1.3377 -0.9,-2.6 l 0.05,0 q -1.47539,-2.58438 -4.35,-3.35 -2.86328,-0.80059 -5.45,0.65 l 0,0 q -1.6875,0.94238 -2.65,2.5 -0.0877,0.22715 -0.1,0.45 -0.11699,0.10098 -0.2,0.25 -0.075,0.16934 -0.15,0.3 -0.13965,0.39785 -0.25,0.8 -0.38516,1.35449 -0.3,2.6 -0.01,-0.05 -0.05,-0.15 -0.98047,-1.78086 -2.95,-2.35 l -0.05,0 q -1.41563,-0.38262 -2.75,0.05 -0.50605,0.13848 -1,0.4 -1.76641,1.03711 -2.35,3 -0.0895,0.4334 -0.15,0.85 -0.93223,-1.20449 -2.5,-1.65 l -0.05,0 q -0.2502,-0.0555 -0.55,-0.1 l 0.05,0 q -1.51855,-0.26543 -2.95,0.45 -0.17109,-0.7 -0.45,-1.4 -0.11406,-0.27871 -0.25,-0.6 -0.1877,-0.36973 -0.4,-0.7 l 0,0 q -2.07949,-3.69395 -6.15,-4.85 -1.03184,-0.26113 -2.05,-0.35 l 0,0 q -2.97578,-0.20039 -5.75,1.35 m 5.65,0.15 q 0.87227,0.0787 1.75,0.3 3.46484,0.99668 5.25,4.15 l 0,0.05 q 0.1875,0.27227 0.35,0.6 0.60742,1.25859 0.75,2.6 0.21621,1.65898 -0.25,3.4 l 0,-0.05 q -0.24746,0.83945 -0.6,1.6 l 0,0 q -1.07988,2.2334 -3.35,3.55 -0.16641,0.13574 -0.25,0.3 -0.23125,-0.003 -0.45,0.1 -0.0377,0.0246 -0.1,0.05 -2.8666,1.38555 -6.05,0.5 l 0.05,0 q -0.28965,-0.0625 -0.55,-0.15 -1.45156,-0.49707 -2.6,-1.4 -1.24336,-1.01895 -2.1,-2.55 l -0.05,0 q -0.55059,-0.99922 -0.85,-2.05 -0.6084,-2.20488 0.05,-4.6 0.97305,-3.46758 4.1,-5.25 1.59434,-0.8625 3.25,-1.1 0.81406,-0.0848 1.65,-0.05 l 0,0 m 3.9,17.9 0.05,0 q 0.17266,-0.0963 0.25,-0.3 0.2168,0.0418 0.4,-0.05 1.08867,-0.46406 2.25,-0.15 l 0,0 q 1.38086,0.40898 2.1,1.65 l -0.05,0 q 0.7123,1.22812 0.35,2.6 -0.14023,0.49824 -0.35,0.9 -0.4875,0.74961 -1.3,1.2 -0.33711,0.18457 -0.7,0.3 -0.35781,0.12227 -0.75,0.15 -0.57656,0.0432 -1.2,-0.1 l 0.05,0 q -1.38359,-0.38027 -2.1,-1.65 l 0,0 q -0.69004,-1.23828 -0.3,-2.6 l 0,-0.05 q 0.32148,-1.19668 1.3,-1.9 m 8.2,-10.45 0,0 q 0.21309,0.0236 0.4,0.05 1.37969,0.38477 2.05,1.6 l 0,0.05 q 0.74375,1.22617 0.35,2.6 -0.38105,1.38301 -1.65,2.1 l 0,0 q -0.46172,0.2582 -1,0.35 -0.16016,0.0391 -0.35,0.05 l 0.05,0 q -0.28789,0.0738 -0.6,0.05 -0.33789,-0.0213 -0.7,-0.15 l 0,0 q -1.16895,-0.30176 -1.85,-1.25 0.27539,-0.67168 0.5,-1.4 l 0,-0.05 q 0.48984,-1.76504 0.35,-3.5 0.10859,-0.043 0.2,-0.1 l 0,-0.05 q 0.88574,-0.46406 1.8,-0.45 0.22031,0.0504 0.45,0.1 m 11.25,-0.95 0,0 q 0.70996,1.24043 0.35,2.6 -0.39277,1.39609 -1.65,2.1 l 0,0 q -0.98965,0.55859 -2.05,0.4 l -0.05,0 q -0.24785,-0.0285 -0.5,-0.1 -0.0371,0.024 -0.1,0 -0.11914,-0.0307 -0.25,-0.1 -1.14258,-0.43418 -1.8,-1.55 -0.67617,-1.20156 -0.3,-2.6 0.38418,-1.21543 1.4,-1.95 0.14785,-0.0541 0.25,-0.15 l 0.05,0 q 0.30117,-0.1709 0.6,-0.3 l 0.05,0 q 0.92656,-0.26719 1.9,0 1.40684,0.39453 2.1,1.65 m -7,5.7 0,-0.05 q 0.11387,-0.40762 0.15,-0.85 0.82441,1.05156 2.05,1.5 -0.0766,0.0713 -0.2,0.1 -3.9e-4,0.0365 -0.05,0.05 -0.1377,0.0828 -0.3,0.2 l 0.05,-0.05 q -1.31172,0.8918 -1.75,2.45 -0.0316,0.11523 -0.05,0.2 -0.60234,-0.75703 -1.5,-1.15 1.16855,-0.91016 1.6,-2.4 m 5.9,0.55 q 0.27305,-0.0832 0.5,-0.25 l 0.05,0 q 1.79141,-1.01211 2.35,-3 l 0,0 q 0.19219,-0.72773 0.15,-1.45 0.18047,0.36387 0.35,0.7 0.56719,0.97441 1.3,1.7 -0.26211,0.13301 -0.55,0.3 l 0,-0.05 q -1.95234,1.13359 -2.6,3.25 -0.61816,-0.76582 -1.55,-1.2 m 6.85,-12.45 0,0 q 2.04336,-1.16211 4.3,-0.55 2.26641,0.64883 3.4,2.7 l 0.05,0 q 0.54766,0.99805 0.65,2.05 0.17637,1.09902 -0.15,2.25 l 0,0 q -0.17285,0.58652 -0.65,1.45 -0.17969,0.37637 -0.25,0.55 -0.1541,0.0863 -0.3,0.2 -0.16016,0.23262 -0.4,0.4 -0.45801,0.46895 -1.1,0.8 l 0,0 q -1.12051,0.66152 -2.35,0.75 -0.70059,-0.47676 -1.6,-0.75 -0.99063,-0.24648 -1.95,-0.2 -1.08926,-0.71328 -1.8,-1.95 -1.16035,-2.01953 -0.55,-4.25 l 0,-0.05 q 0.10352,-0.26523 0.2,-0.55 0.0721,-0.14375 0.15,-0.3 0.0811,-0.16035 0.05,-0.35 0.1293,-0.0639 0.2,-0.2 0.74785,-1.23672 2.1,-2 m -1.95,11.7 q 0.46562,-0.2377 0.95,-0.4 0.27266,-0.059 0.55,-0.1 l 0,0 q 0.81191,-0.10117 1.65,0.1 0.7627,0.225 1.35,0.65 0.0279,0.0266 0.05,0.05 0.6416,0.50098 1.05,1.25 0.39121,0.67461 0.55,1.35 l 0,-0.05 q 0.15254,0.89941 -0.1,1.9 -0.18672,0.63809 -0.55,1.15 -0.52383,0.82559 -1.45,1.3 -0.475,0.29062 -1,0.45 -0.49141,0.14258 -1.05,0.1 -0.51641,0.0322 -1.1,-0.15 l 0,0 q -1.63027,-0.43086 -2.45,-1.95 l 0,0 q -0.43477,-0.75078 -0.55,-1.5 l 0,-0.05 q -0.0973,-0.7625 0.15,-1.55 l 0,-0.05 q 0.45586,-1.61777 1.95,-2.45 l 0,-0.05 m 10.1,-3.05 q 0.004,-0.0242 -0.05,-0.05 l 0.1,-0.05 q 0.0469,0.0225 -0.05,0.1 m -14.35,6.35 0,0 q 0.27285,0.50352 0.35,1 0.073,0.6 -0.1,1.2 l 0.05,-0.05 q -0.28613,0.97051 -1.1,1.5 -0.13516,0.11504 -0.3,0.2 -0.52285,0.30488 -0.95,0.3 -0.43242,0.003 -0.7,0 -0.21406,0.005 -0.4,-0.15 l 0,0 q -0.14023,-0.0266 -0.3,-0.1 -0.95449,-0.21914 -1.45,-1.1 l 0,-0.05 q -0.58047,-0.97832 -0.25,-2.1 l 0,0 q 0.17676,-0.64199 0.55,-1.1 0.26387,-0.27031 0.55,-0.5 l 0.05,0 q 0.0627,-0.0453 0.1,-0.1 0.0488,0.0125 0.05,0 0.50215,-0.27676 1,-0.35 0.0613,0.0264 0.1,0 0.50293,-0.0603 1.05,0.1 1.1332,0.29687 1.7,1.3 m -7.45,3.35 0,-0.05 q -0.22969,0.86758 -1,1.3 l -0.05,0.05 q -0.20078,0.0975 -0.45,0.2 l 0,0.05 q -0.076,-0.0131 -0.2,0 -0.0521,0.0131 -0.15,0 -0.40254,0.10098 -0.85,0 -0.88789,-0.27832 -1.35,-1.1 l 0,0.05 q -0.4252,-0.80352 -0.2,-1.65 l 0.05,-0.05 q 0.21074,-0.84727 0.95,-1.3 l 0.05,0 0,-0.05 q 0.1252,-0.0346 0.2,-0.1 0.12227,-0.009 0.2,-0.05 0.0231,0.0137 0.05,0 0.60273,-0.19922 1.25,-0.05 l -0.05,0 q 0.87422,0.27266 1.3,1.05 l 0,0.05 q 0.47363,0.79258 0.25,1.65 m 4.45,1.6 -0.05,-0.05 0.05,0 0,0.05 m -9.65,-4.65 q 0.12246,0.0441 0.25,0.05 -0.4916,0.60898 -0.7,1.4 -0.0141,0.0244 -0.05,0.05 -0.0363,0.21113 -0.1,0.4 -0.90938,-1.10527 -2.4,-1.5 -0.21367,-0.0729 -0.45,-0.15 0.70801,-0.68945 1.25,-1.55 0.8998,0.93789 2.2,1.3 l 0,0 z" />
      <path
         style="fill:#bd0202;stroke:none"
         inkscape:connector-curvature="0"
         id="path63310"
         d="m 582.75,155.5 0.05,0.05 0,-0.05 -0.05,0 m -8.6,-2.75 -0.05,0.05 q -0.2252,0.84648 0.2,1.65 l 0,-0.05 q 0.46211,0.82168 1.35,1.1 0.44746,0.10098 0.85,0 -1.80781,-1.65215 -1.4,-4.05 -0.73926,0.45273 -0.95,1.3 m 8.2,1.75 q 0.15977,0.0734 0.3,0.1 -1.54961,-1.77598 -1.45,-4.45 -0.37324,0.45801 -0.55,1.1 l 0,0 q -0.33047,1.12168 0.25,2.1 l 0,0.05 q 0.49551,0.88086 1.45,1.1 m 8.65,-7.6 q -0.48438,0.1623 -0.95,0.4 l 0,0.05 q -1.49414,0.83223 -1.95,2.45 l 0,0.05 q -0.24727,0.7875 -0.15,1.55 l 0,0.05 q 0.11523,0.74922 0.55,1.5 l 0,0 q 0.81973,1.51914 2.45,1.95 l 0,0 q 0.58359,0.18223 1.1,0.15 -0.75859,-0.64414 -1.1,-2.1 -1.59844,-2.77383 0.05,-6.05 m -1.5,-8.45 q -0.0965,0.28477 -0.2,0.55 l 0,0.05 q -0.61035,2.23047 0.55,4.25 0.71074,1.23672 1.8,1.95 0.95937,-0.0465 1.95,0.2 0.89941,0.27324 1.6,0.75 1.22949,-0.0885 2.35,-0.75 l 0,0 q 0.64199,-0.33105 1.1,-0.8 -3.37207,-0.33359 -5.3,-1.75 -3.00488,-1.48125 -3.85,-4.45 m -9.6,4.1 q -0.37617,1.39844 0.3,2.6 0.65742,1.11582 1.8,1.55 -2.13535,-3.00625 -0.7,-6.1 -1.01582,0.73457 -1.4,1.95 m -7.15,0.6 q -0.0914,0.057 -0.2,0.1 0.13984,1.73496 -0.35,3.5 l 0,0.05 q -0.22461,0.72832 -0.5,1.4 0.68105,0.94824 1.85,1.25 l 0,0 q 0.36211,0.12871 0.7,0.15 -0.30703,-0.48691 -0.5,-1.2 -1.23984,-2.98477 0.8,-5.75 -0.91426,-0.0141 -1.8,0.45 l 0,0.05 m -7.25,11.95 0,0.05 q -0.39004,1.36172 0.3,2.6 l 0,0 q 0.71641,1.26973 2.1,1.65 l -0.05,0 q 0.62344,0.14316 1.2,0.1 -3.37891,-2.20332 -2.25,-6.3 -0.97852,0.70332 -1.3,1.9 m -11.65,-8.8 q 0.29941,1.05078 0.85,2.05 l 0.05,0 q 0.85664,1.53105 2.1,2.55 -0.9416,-1.42969 -1.1,-3.4 -0.3834,-4.1168 1.5,-7.9 1.41758,-2.7584 4,-4.25 -1.65566,0.2375 -3.25,1.1 -3.12695,1.78242 -4.1,5.25 -0.6584,2.39512 -0.05,4.6 z" />
      <path
         style="fill:#7e0101;stroke:none"
         inkscape:connector-curvature="0"
         id="path63312"
         d="m 578.35,153.9 0,0.05 q 0.22363,-0.85742 -0.25,-1.65 l 0,-0.05 q -0.42578,-0.77734 -1.3,-1.05 l 0.05,0 q -0.64727,-0.14922 -1.25,0.05 -0.027,0.0137 -0.05,0 -0.0777,0.0408 -0.2,0.05 -0.0748,0.0654 -0.2,0.1 l 0,0.05 -0.05,0 q -0.40781,2.39785 1.4,4.05 0.0978,0.0131 0.15,0 0.12402,-0.0131 0.2,0 l 0,-0.05 q 0.24922,-0.10254 0.45,-0.2 l 0.05,-0.05 q 0.77031,-0.43242 1,-1.3 m 7.45,-3.3 0,0 q -0.5668,-1.00313 -1.7,-1.3 -0.54707,-0.16035 -1.05,-0.1 -0.0387,0.0264 -0.1,0 -0.49785,0.0732 -1,0.35 -0.001,0.0125 -0.05,0 -0.0373,0.0547 -0.1,0.1 l -0.05,0 q -0.28613,0.22969 -0.55,0.5 -0.0996,2.67402 1.45,4.45 l 0,0 q 0.18594,0.15547 0.4,0.15 0.26758,0.003 0.7,0 0.42715,0.005 0.95,-0.3 0.16484,-0.085 0.3,-0.2 0.81387,-0.52949 1.1,-1.5 l -0.05,0.05 q 0.17305,-0.6 0.1,-1.2 -0.0771,-0.49648 -0.35,-1 m 5.75,-3.8 q -0.27734,0.041 -0.55,0.1 -1.64844,3.27617 -0.05,6.05 0.34141,1.45586 1.1,2.1 0.55859,0.0426 1.05,-0.1 0.525,-0.15938 1,-0.45 0.92617,-0.47441 1.45,-1.3 0.36328,-0.51191 0.55,-1.15 0.25254,-1.00059 0.1,-1.9 l 0,0.05 q -0.15879,-0.67539 -0.55,-1.35 -0.4084,-0.74902 -1.05,-1.25 -0.0221,-0.0234 -0.05,-0.05 -0.5873,-0.425 -1.35,-0.65 -0.83809,-0.20117 -1.65,-0.1 l 0,0 m 0.45,-11.2 0,0 q -1.35215,0.76328 -2.1,2 -0.0707,0.13613 -0.2,0.2 0.031,0.18965 -0.05,0.35 -0.0779,0.15625 -0.15,0.3 0.84512,2.96875 3.85,4.45 1.92793,1.41641 5.3,1.75 0.23984,-0.16738 0.4,-0.4 0.1459,-0.11367 0.3,-0.2 0.0703,-0.17363 0.25,-0.55 0.47715,-0.86348 0.65,-1.45 l 0,0 q 0.32637,-1.15098 0.15,-2.25 -0.10234,-1.05195 -0.65,-2.05 l -0.05,0 q -1.13359,-2.05117 -3.4,-2.7 -2.25664,-0.61211 -4.3,0.55 m -5.75,6.2 0,0 q -0.69316,-1.25547 -2.1,-1.65 -0.97344,-0.26719 -1.9,0 l -0.05,0 q -0.29883,0.1291 -0.6,0.3 l -0.05,0 q -0.10215,0.0959 -0.25,0.15 -1.43535,3.09375 0.7,6.1 0.13086,0.0693 0.25,0.1 0.0629,0.024 0.1,0 0.25215,0.0715 0.5,0.1 l 0.05,0 q 1.06035,0.15859 2.05,-0.4 l 0,0 q 1.25723,-0.70391 1.65,-2.1 0.35996,-1.35957 -0.35,-2.6 m -11.25,0.95 0,0 q -0.22969,-0.0496 -0.45,-0.1 -2.03984,2.76523 -0.8,5.75 0.19297,0.71309 0.5,1.2 0.31211,0.0238 0.6,-0.05 l -0.05,0 q 0.18984,-0.0109 0.35,-0.05 0.53828,-0.0918 1,-0.35 l 0,0 q 1.26895,-0.71699 1.65,-2.1 0.39375,-1.37383 -0.35,-2.6 l 0,-0.05 q -0.67031,-1.21523 -2.05,-1.6 -0.18691,-0.0264 -0.4,-0.05 m -8.15,10.45 -0.05,0 q -1.12891,4.09668 2.25,6.3 0.39219,-0.0277 0.75,-0.15 0.36289,-0.11543 0.7,-0.3 0.8125,-0.45039 1.3,-1.2 0.20977,-0.40176 0.35,-0.9 0.3623,-1.37188 -0.35,-2.6 l 0.05,0 q -0.71914,-1.24102 -2.1,-1.65 l 0,0 q -1.16133,-0.31406 -2.25,0.15 -0.1832,0.0918 -0.4,0.05 -0.0773,0.20371 -0.25,0.3 m -2.2,-17.6 q -0.87773,-0.22129 -1.75,-0.3 l 0,0 q -0.83594,-0.0348 -1.65,0.05 -2.58242,1.4916 -4,4.25 -1.8834,3.7832 -1.5,7.9 0.1584,1.97031 1.1,3.4 1.14844,0.90293 2.6,1.4 0.26035,0.0875 0.55,0.15 l -0.05,0 q 3.1834,0.88555 6.05,-0.5 0.0623,-0.0254 0.1,-0.05 0.21875,-0.10332 0.45,-0.1 0.0836,-0.16426 0.25,-0.3 2.27012,-1.3166 3.35,-3.55 l 0,0 q 0.35254,-0.76055 0.6,-1.6 l 0,0.05 q 0.46621,-1.74102 0.25,-3.4 -0.14258,-1.34141 -0.75,-2.6 -0.1625,-0.32773 -0.35,-0.6 l 0,-0.05 q -1.78516,-3.15332 -5.25,-4.15 z" />
      <path
         style="fill:#ad8201;stroke:none"
         inkscape:connector-curvature="0"
         id="path63314"
         d="m 538.05,147.1 q 0.38633,-1.4457 0.45,-2.7 -2.88184,2.01875 -6.1,4.75 -4.47207,3.76602 -7.5,8.3 -0.077,0.14902 -0.15,0.25 1.6082,2.32266 3.1,4.75 3.16621,-4.14434 7.3,-6.8 0.31855,-0.18145 0.65,-0.4 1.13867,-3.93711 2.25,-8.15 m -7.85,-25.95 q 2.22012,-1.03867 3.45,-3.9 0.57207,-1.30469 1.05,-2.75 -10.61504,-2.47656 -21.35,0.95 l 0.05,0 q -0.2373,0.0725 -0.5,0.15 -1.05273,4.19414 -2.05,8.5 0.69277,-0.38945 1.4,-0.75 6.53516,-2.97852 13.85,-1.65 6.17891,0.7043 10.9,2.1 -2.22969,-2.06777 -6.8,-2.65 m 97.2,23.4 q -2.44258,1.0748 -4.9,2 2.53555,1.55332 1.8,4.95 -0.0889,0.59961 -0.2,1.15 0.14961,0.13203 0.3,0.25 2.07676,1.6332 2.9,4.55 0.31855,1.18555 0.45,2.35 1.95254,-2.7752 5.85,-1.5 0.008,-1.16055 -0.1,-2.35 -0.57441,-7.88359 -5.65,-11.1 -0.1959,-0.14316 -0.45,-0.3 m 22.1,-11.8 q 0.11953,-1.7 0.2,-3.1 2.09844,0.73203 7.65,3.95 -2.94395,-5.33066 -7.95,-9.05 -6.98008,-5.17441 -14.8,-6.45 0.12441,0.56777 0.2,1.1 -1.31523,2.64258 -1.95,5.65 3.83984,0.66426 8.05,2.25 4.91758,1.89414 8.55,5.6 l 0.05,0.05 z" />
      <path
         style="fill:#594300;stroke:none"
         inkscape:connector-curvature="0"
         id="path63316"
         d="m 554.45,122.35 q -0.0287,-0.043 -0.1,-0.1 -9.57832,-6.95742 -19.25,-9.2 -11.0293,-2.59531 -22.15,0.95 l -0.05,0 q -0.425,0.175 -0.9,0.3 -21.78574,7.35605 -25.65,46.85 -0.0234,0.3 0.15,0.5 0.1582,0.26016 0.4,0.3 0.30117,0.0879 0.55,-0.05 0.25293,-0.14844 0.35,-0.45 10.35195,-29.84766 25.05,-36.75 6.13574,-2.77891 13,-1.55 0.026,0.0381 0.05,0.05 6.7748,0.75723 11.75,2.4 l 0,0 q 11.46289,3.76621 13,12 -0.092,-0.0129 -0.25,0 -5.15918,0.48223 -12.3,5.3 -3.11875,2.11094 -6.65,5.1 -4.65117,3.9 -7.8,8.6 -9.22012,13.76523 -5.65,34.3 0.067,0.27383 0.25,0.45 0.24355,0.16621 0.5,0.15 0.29746,-0.01 0.5,-0.2 0.22363,-0.18086 0.25,-0.45 2.26992,-17.71719 9.35,-27.25 3.08223,-4.10957 7.1,-6.7 1.26582,-0.79609 2.6,-1.45 0.0873,-0.0244 0.15,-0.05 -0.0256,-0.15625 0,-0.35 0.0623,-0.13164 0.1,-0.25 0.0977,-0.28945 0.35,-0.45 0.30469,-0.10645 0.6,0 0.14004,0.0424 0.25,0.1 0.0471,-0.1998 -0.05,-0.45 -0.13066,-0.26016 -0.45,-0.4 -0.075,-0.0107 -0.2,-0.05 -0.1627,0.002 -0.35,0.05 -1.64102,0.74414 -3.15,1.65 -0.33145,0.21855 -0.65,0.4 -4.13379,2.65566 -7.3,6.8 -0.0902,0.14023 -0.2,0.25 -6.24102,8.34336 -8.85,22.8 -1.58398,-16.3043 5.95,-27.8 0.073,-0.10098 0.15,-0.25 3.02793,-4.53398 7.5,-8.3 3.21816,-2.73125 6.1,-4.75 0.22812,-0.12559 0.45,-0.3 6.21074,-4.16816 10.85,-4.9 0.39375,-0.0654 0.75,-0.1 0.3293,-0.0328 0.5,-0.3 0.10293,-0.069 0.15,-0.2 0.1832,0.10586 0.4,0.05 0.20527,-0.003 0.35,-0.15 0.0707,-0.04 0.1,-0.15 -0.20156,-0.0125 -0.4,-0.2 -0.19727,-0.21719 -0.2,-0.55 0.003,-0.2832 0.2,-0.5 0.20039,-0.16387 0.35,-0.35 -1.84707,-8.6041 -13.85,-12.55 -0.5625,-0.1957 -1.15,-0.4 -4.72109,-1.3957 -10.9,-2.1 -7.31484,-1.32852 -13.85,1.65 -0.70723,0.36055 -1.4,0.75 -12.79844,6.85898 -22.25,30.85 4.77344,-32.58652 23.9,-39.2 0.2127,-0.0775 0.4,-0.15 0.2627,-0.0775 0.5,-0.15 l -0.05,0 q 10.73496,-3.42656 21.35,-0.95 0.0412,0.0119 0.05,0 9.3584,2.19297 18.6,8.85 0.0658,0.0609 0.1,0.1 0.27285,0.18984 0.55,0.15 0.32363,-0.0486 0.5,-0.3 0.19062,-0.24785 0.15,-0.55 -0.0389,-0.21699 -0.2,-0.4 M 659.4,134.4 q 0.16934,0.28789 0.05,0.05 -3.16719,-6.66211 -9.15,-11.1 -7.4207,-5.47949 -15.75,-6.75 -11.38477,-1.72793 -25,5.2 -0.60801,0.34043 -1.25,0.65 -0.24102,0.16309 -0.35,0.45 -0.0688,0.31113 0.05,0.6 0.16289,0.2666 0.45,0.35 0.31016,0.0934 0.6,-0.05 13.82773,-7.42734 25.3,-5.75 0.14844,0.0467 0.25,0.05 7.81992,1.27559 14.8,6.45 5.00605,3.71934 7.95,9.05 l 0,0.05 0.05,0 1.35,2.85 q 1.98359,4.19785 2.35,8.65 0.35625,4.4998 0.25,8.75 -0.1,3.7 -0.55,7.45 -0.5,3.9 -1.15,7.85 0,-1.75 -0.1,-3.45 -0.35,-6.35 -1.35,-12.5 -0.9,-5.3 -2.65,-10.35 -0.9,-2.45 -2.25,-4.65 -1.82637,-3.01113 -3.8,-5.5 l -0.05,-0.05 q -3.63242,-3.70586 -8.55,-5.6 -4.21016,-1.58574 -8.05,-2.25 -12.96113,-2.19082 -21.3,7.6 -0.36504,0.45996 -0.75,0.9 -0.17695,0.26934 -0.15,0.55 0.0463,0.31992 0.3,0.5 0.24355,0.20215 0.55,0.15 0.16621,0.006 0.3,-0.1 0.11094,-0.0412 0.2,-0.15 7.9377,-10.11445 20.6,-7.95 3.6959,0.62969 7.75,2.2 4.9043,1.85156 8.45,5.65 0.15918,0.16523 0.5,0.55 l 0.05,0.05 q 9.84609,11.37871 9.05,38.55 -0.01,0.29453 0.15,0.5 0.20176,0.22734 0.45,0.25 0.30957,0.0621 0.55,-0.1 0.23281,-0.16621 0.3,-0.45 6.20039,-24.15215 -0.05,-38.35 -0.091,-0.18457 -0.4,-0.8 z" />
      <path
         style="fill:#493701;stroke:none"
         inkscape:connector-curvature="0"
         id="path63318"
         d="m 583.85,39.45 q -4.02617,1.402539 -7.5,2.85 -11.59082,4.788281 -16.75,10.05 -6.68477,6.930859 -9.35,12.2 -2.67832,5.226758 -4.25,13.65 -1.54453,8.441602 0.55,18.35 2.14883,9.90078 8.7,20.75 0.15586,0.29531 0.45,0.35 0.0488,0.20723 0.2,0.35 l 3.1,3.1 q -2.4791,-0.24824 -4.55,1.25 0.16113,0.18301 0.2,0.4 0.0406,0.30215 -0.15,0.55 -0.17637,0.25137 -0.5,0.3 -0.27715,0.0398 -0.55,-0.15 -0.0342,-0.0391 -0.1,-0.1 -0.98711,1.04355 -1.9,2.55 -0.0973,0.20977 -0.1,0.45 0.0441,0.24082 0.2,0.4 0.1623,0.20098 0.4,0.25 0.23008,0.0613 0.45,-0.05 1.68848,-0.67012 3,-0.55 1.48398,0.15781 2.4,1.5 -0.93535,0.68379 -1.65,1.4 -2.34531,2.40742 -2.35,5.4 0.0197,0.28457 0.15,0.45 -0.01,0.0846 -0.05,0.15 -0.19395,0.017 -0.4,0.15 -0.76211,0.6332 -1.5,1.3 -0.14961,0.18613 -0.35,0.35 -0.19727,0.2168 -0.2,0.5 0.003,0.33281 0.2,0.55 0.19844,0.1875 0.4,0.2 0.0891,0.0318 0.15,0 0.30801,0.0221 0.5,-0.2 0.84238,-0.80566 1.75,-1.55 0.18437,-0.0984 0.25,-0.3 0.17656,0.0103 0.3,-0.1 1.85898,-1.33262 4.1,-2.4 l 0,0 q 2.54629,-1.18809 5.6,-2.05 2.70352,-0.74785 4.95,-0.75 0.30781,-0.003 0.5,-0.25 0.0918,-0.0426 0.1,-0.15 0.13809,-0.14121 0.15,-0.35 0.0652,-2.49238 -2.65,-4.3 0.73301,-2e-4 1.45,0.1 L 569.15,126 q 0.46699,0.0955 0.9,0.2 0.80859,0.24277 1.55,0.65 1.31758,0.6748 2.5,1.85 0.16719,0.16387 0.4,0.2 0.23457,0.0477 0.45,-0.05 0.0373,-0.0244 0.05,-0.05 0.1793,-0.10645 0.25,-0.3 0.14629,-0.18594 0.1,-0.45 -0.0836,-0.90234 0,-1.8 l 0,0 q 0.14551,-1.22539 0.65,-2.35 0.35527,1.25527 0.8,2.4 0.99043,2.55918 2.45,4.5 0.16309,0.24961 0.4,0.3 0.28398,0.0775 0.5,-0.05 0.26309,-0.11152 0.35,-0.35 1.09512,-2.26875 2.45,-3.85 1.01777,-1.20156 2.2,-2 0.52441,-0.34902 1.05,-0.65 -0.68438,1.45781 -0.9,3 l 0,0 q -0.1793,1.22988 -0.05,2.5 0.0725,0.28789 0.3,0.45 l -0.25,0.05 q 0.13281,0.01 0.25,0 0.0828,0.033 0.15,0.05 0.18984,0.12695 0.4,0.1 0.25859,-0.0381 0.4,-0.2 0.24805,0.003 0.5,0 1.16562,-0.007 1.2,0 0.24043,-0.0375 0.45,-0.1 7.10156,-0.52695 10.8,2.95 3.46797,3.21074 3.85,3.6 1.19297,1.48516 2.3,3.55 l 0,-0.05 q 0.5498,1.12227 1.1,2.4 l 0,0 q 0.25879,0.60586 0.5,1.25 0.44609,1.13789 0.85,2.4 1.28672,3.73652 1,7.3 0.005,0.24043 0.1,0.45 0.15352,0.2041 0.35,0.3 3.79766,1.67109 5.35,3.95 -0.0541,-0.0469 -0.15,-0.1 -0.12363,-0.0254 -0.3,-0.1 -1.78652,-0.5793 -4.1,-0.6 -0.86973,0.0328 -1.25,0.05 -0.27637,-0.0648 -0.55,0.05 -0.24355,0.17773 -0.35,0.45 -0.0559,0.32637 0.1,0.6 0.15293,0.26855 0.45,0.35 0.2793,0.0707 0.55,0.15 3.89141,1.26074 6,4.55 -1.50957,-0.84219 -2.9,-1.3 -0.65313,-0.21152 -1.3,-0.35 -2.48516,-0.55625 -4.6,0.1 -0.26133,0.0969 -0.4,0.35 -0.15488,0.28926 -0.1,0.55 0.12148,0.32285 0.4,0.45 0.47207,0.28457 0.9,0.55 5.09297,3.0043 4.85,6.05 -1.13887,-1.33125 -2.5,-2.25 -0.41719,-0.2709 -0.9,-0.55 -2.18301,-1.15059 -4.85,-1.25 -0.26758,-0.0166 -0.5,0.15 -0.19453,0.17578 -0.25,0.45 -0.0578,0.26367 0.05,0.5 0.80371,1.36953 1.25,2.6 1.1959,3.16465 0.4,5.55 -0.32539,-1.04688 -0.9,-2.1 L 603.85,173 q -0.1043,-0.19063 -0.25,-0.4 -2.04668,-3.32012 -6.5,-6.6 -0.25996,-0.17754 -0.6,-0.15 -0.27305,0.0607 -0.45,0.3 -0.18105,0.24883 -0.15,0.55 l 0.05,-0.25 q -0.0111,0.20215 -0.05,0.35 -0.0518,1.11504 -0.1,1.3 -0.002,0.33574 0,0.7 -0.98066,13.76777 -10,17.1 2.21504,-5.53574 2.75,-9.5 l 0,-0.05 q 0.25742,-1.70352 0.15,-3.15 -0.0297,-0.72988 -0.2,-1.4 -0.23965,-1.36777 -0.9,-2.4 -0.0272,-0.1041 -0.1,-0.2 -0.65781,-1.01113 -1.7,-1.7 l 0.05,0.05 q -4.68906,-3.22988 -8.5,-2.85 -3.88809,0.37617 -6.85,4.4 -0.0166,0.0672 -0.7,1.1 -0.0869,0.0664 -0.15,0.15 -0.0496,0.0887 -0.1,0.15 -5.05547,8.37031 1.8,17 -7.9416,-3.27031 -10.15,-11.05 -0.57734,-2.18926 -1,-3.75 -0.19375,-0.72441 -0.35,-1.35 -0.48535,-1.92129 -0.55,-2.55 -0.0348,-0.20332 -0.2,-0.4 -0.15078,-0.16094 -0.4,-0.25 -0.20449,-0.0219 -0.45,0.05 -3.4207,1.39824 -5.7,2.75 -0.1627,0.11172 -0.35,0.2 -0.1375,0.10801 -0.25,0.25 -0.16953,0.0322 -0.35,0.15 -0.4123,0.25488 -0.8,0.5 -0.1748,-2.30938 1.55,-5.1 0.2877,-0.43125 0.6,-0.9 0.15547,-0.1918 0.15,-0.45 0.006,-0.20703 -0.15,-0.4 -0.11914,-0.19434 -0.35,-0.3 -0.22207,-0.0594 -0.45,0 -1.75586,0.45195 -3.3,1.85 -0.20488,0.22676 -0.45,0.45 -0.35938,0.43164 -0.5,0.6 -0.21562,0.22598 -0.45,0.45 0.22285,-2.45801 1.5,-4.75 0.41563,-0.70957 0.95,-1.45 0.13691,-0.15488 0.15,-0.4 0.0135,-0.20234 -0.1,-0.4 -0.11836,-0.19746 -0.35,-0.3 -1.69707,-0.87012 -4.65,-0.15 -0.23457,0.0949 -0.5,0.15 -0.54883,0.20625 -0.75,0.25 -0.26035,0.11172 -0.55,0.2 0.9498,-1.95469 3.25,-3.45 0.59766,-0.32441 1.25,-0.65 0.21445,-0.10938 0.3,-0.35 0.13691,-0.20098 0.1,-0.45 -0.033,-0.23262 -0.2,-0.4 -2.4752,-2.51426 -5.95,-1.75 -0.45586,0.12246 -0.95,0.25 l 0.05,0 q -0.23672,0.0879 -0.5,0.15 0.35371,-0.53906 0.95,-2 1.09141,-2.55391 5.1,-1.3 0.2625,0.0619 0.5,-0.05 0.21875,-0.0533 0.35,-0.25 0.14492,-0.18926 0.15,-0.45 0.0234,-2.89219 0.8,-5.4 0.20039,-0.64043 0.45,-1.25 l -0.2,0.6 q 0.49668,-1.33184 0.6,-1.55 0.97246,-2.11797 2.55,-3.95 0.2373,-0.23867 0.2,-0.55 0.0168,-0.0391 0,-0.1 -0.14473,0.14707 -0.35,0.15 -0.2168,0.0559 -0.4,-0.05 -0.0471,0.13105 -0.15,0.2 -0.1707,0.26719 -0.5,0.3 -0.35625,0.0346 -0.75,0.1 -1.26191,1.66504 -2.15,3.4 -1.04883,2.15977 -0.45,1.3 l 0.05,-0.1 q -0.99688,2.75449 -1.15,5.95 -4.49414,-0.91953 -6.8,3.8 0.125,0.0393 0.2,0.05 0.31934,0.13984 0.45,0.4 0.0971,0.2502 0.05,0.45 -0.10996,-0.0576 -0.25,-0.1 -0.29531,-0.10645 -0.6,0 -0.25234,0.16055 -0.35,0.45 -0.0377,0.11836 -0.1,0.25 -0.0256,0.19375 0,0.35 -0.0627,0.0256 -0.15,0.05 -0.0146,0.1041 -0.05,0.2 -0.19062,0.72246 -0.05,1 0.1791,0.26953 0.45,0.35 0.31543,0.0799 0.55,-0.1 1.02793,-0.56348 1.95,-0.85 l 0.05,0 q 2.61074,-0.88477 4.55,0.45 -4.11348,2.41172 -4.75,6.05 -0.0537,0.32422 0.1,0.55 0.20234,0.29297 0.6,0.3 0.39629,0.0299 0.75,-0.2 0.3959,-0.15215 0.6,-0.25 0.21484,-0.0773 0.85,-0.35 l 0,0.05 q 0.53125,-0.17656 0.7,-0.25 1.94219,-0.54688 3.25,-0.35 -2.61563,4.05273 -2.1,8.75 0.0715,0.30684 0.3,0.5 0.26816,0.18945 0.55,0.15 0.33184,-0.0338 0.5,-0.3 0.13008,-0.10137 0.15,-0.25 0.12852,-0.16387 0.25,-0.4 0.79883,-1.1918 1.25,-1.75 0.16328,-0.1332 0.55,-0.65 l -0.05,0.15 q 0.40586,-0.42734 0.8,-0.8 -1.63828,3.40703 -0.65,6.2 0.0982,0.32734 0.35,0.45 0.29004,0.16074 0.55,-0.05 0.32754,-0.15996 0.55,-0.3 0.26934,-0.14609 0.3,-0.2 0.0234,-0.002 0.05,-0.05 0.43301,-0.36367 0.95,-0.7 0.17344,-0.0988 0.6,-0.4 1.99902,-1.2127 4.95,-2.45 0.26738,1.08984 0.8,3.15 0.43496,1.55996 1,3.75 2.72129,9.79727 13.85,13 0.24023,0.0822 0.45,0 0.26523,-0.1002 0.4,-0.35 0.13008,-0.1959 0.1,-0.45 -0.0258,-0.2459 -0.2,-0.45 -8.53652,-8.82578 -3.5,-17.35 0.42949,-0.40625 1.65,-2.2 1.72773,-2.46934 5,-2.85 3.3625,-0.27598 7.5,2.55 l 0,0.05 q 0.84063,0.53418 1.35,1.35 0.50664,0.85547 0.7,1.95 0.34727,1.72461 0,4.1 l 0.05,-0.05 q -0.62402,4.35195 -3.3,10.6 -0.093,0.29883 0,0.55 0.0957,0.29219 0.35,0.4 0.24961,0.1666 0.5,0.1 11.48926,-2.8041 12.65,-18.9 9.8e-4,-0.0131 0,-0.05 -9.8e-4,-0.31367 0,-0.6 0.0315,-0.0928 0,-0.2 3.60664,2.86621 5.25,5.7 1.02598,1.83789 1.25,3.65 0.0713,0.30918 0.3,0.5 0.2709,0.1916 0.55,0.15 0.33555,-0.0473 0.5,-0.3 3.06602,-3.96504 0,-10.25 1.98555,0.36992 3.6,1.45 1.71738,1.15586 3.05,3.1 0.17246,0.21172 0.4,0.25 0.28125,0.10449 0.5,0 0.27676,-0.10996 0.4,-0.35 2.3832,-4.57383 -4.2,-8.8 1.39512,-0.008 2.95,0.5 2.25098,0.75605 4.85,2.55 0.2043,0.1748 0.45,0.15 0.25059,0.0105 0.45,-0.15 0.18965,-0.14473 0.25,-0.4 0.0781,-0.21641 0,-0.45 -1.6043,-4.09375 -4.95,-6.25 0.60762,0.14609 1.2,0.35 0.16836,0.0867 0.45,0.2 0.94297,0.34375 1.55,0.6 0.26973,0.15176 0.55,0.05 0.28555,-0.0881 0.4,-0.35 0.16426,-0.27871 0.05,-0.6 -0.95801,-3.38281 -5.45,-5.8 4.89629,-1.8084 8.85,-0.85 1.74668,0.4293 2.95,1.35 1.72402,1.38574 2.4,3.8 0.42227,1.5875 0.45,3.15 0.11543,2.15137 -0.5,4.25 l 0,0 q -0.6,2.28711 -2.7,5.95 -3.05566,5.4291 -12.3,13.35 -0.1916,0.16016 -0.25,0.4 -0.0529,0.24492 0.05,0.45 0.1043,0.25176 0.3,0.35 0.23613,0.15195 0.45,0.1 3.02051,-0.33047 8.15,-3.4 4.99746,-2.95684 10.6,-9.35 4.94238,-5.62207 5,-14.5 0.0113,-1.37227 -0.1,-2.8 -0.63672,-8.69785 -6.35,-12.2 -1.46582,-0.95703 -3.3,-1.5 l 0.05,0 q -5.0584,-1.60957 -17.3,-0.7 -0.0996,0.0113 -0.2,0.05 -0.28613,-0.6209 -0.6,-1.2 l -0.15,-4.65 4.65,2.9 q 0.28164,0.16172 0.55,0.1 0.3125,-0.0564 0.45,-0.3 0.19785,-0.25059 0.15,-0.55 -0.29551,-1.73555 -1.15,-3.3 -0.13379,0.10566 -0.3,0.1 -0.30645,0.0521 -0.55,-0.15 -0.25371,-0.18008 -0.3,-0.5 -0.0269,-0.28066 0.15,-0.55 0.38496,-0.44004 0.75,-0.9 0.42832,-5.33418 -2.5,-8.65 -0.28984,0.14336 -0.6,0.05 -0.28711,-0.0834 -0.45,-0.35 -0.11875,-0.28887 -0.05,-0.6 0.10898,-0.28691 0.35,-0.45 0.64199,-0.30957 1.25,-0.65 9.4625,-12.56641 12.1,-18.7 4.15566,-9.580273 5.35,-20.3 1.97539,-20.769141 -14.3,-34.35 -4.04258,-3.410742 -8.5,-6.15 -4.50078,-2.768359 -9.4,-4.85 -0.28906,-0.09414 -0.6,0 -0.0707,0.05508 -0.15,0.1 -0.17285,-0.07676 -0.4,-0.05 -4.66953,0.54375 -9,1.7 -0.20977,0.08242 -0.35,0.2 -0.2082,-0.02383 -0.45,0.05 m 0.8,1.2 q 0.18418,0.07637 0.35,0 3.92148,-1.039453 8.1,-1.6 0.38359,-0.01582 0.75,-0.05 0.20586,-0.02695 0.35,-0.15 l 0,0 q 0.0654,0.01445 0.1,0 0.22383,0.121484 0.45,0.2 0.44941,0.210352 0.9,0.4 2.88613,1.296094 5.6,2.85 5.57168,3.12168 10.5,7.3 15.65117,13.045117 13.75,33.05 l 0,0 q -1.16465,10.482812 -5.25,19.85 -2.81699,6.57891 -12.95,20 -0.0637,-0.0363 -0.6,-0.3 -0.52227,-0.20469 -2.05,-1.05 l 0,0 q 0.86641,-0.51836 2.8,-0.6 0.24941,-0.007 0.45,-0.15 0.18418,-0.14688 0.25,-0.4 0.325,-1.08359 -0.4,-1.85 -0.47539,-0.63984 -2.45,-1.05 -1.92207,-0.3582 -2.15,-0.4 -0.17617,0.0164 -0.45,0 -0.28262,-0.026 -0.75,0 0.33633,-0.4377 0.7,-0.85 0.18672,-0.13047 0.2,-0.35 0.0824,-0.23223 0,-0.45 -0.0977,-0.2207 -0.3,-0.35 -0.0385,-0.0166 -0.1,-0.05 -4.01953,-2.44609 -8.5,-2.15 l 4.05,-2.7 q 0.25117,-0.13164 0.3,-0.4 0.0957,-0.26875 -0.05,-0.55 -0.0949,-0.21699 -0.35,-0.35 -0.0902,-0.024 -0.2,-0.1 -3.40957,-1.50039 -7.6,-0.3 -0.33477,0.12656 -0.7,0.25 1.9668,-1.81289 6.2,-2.75 0.26074,-0.0488 0.4,-0.25 0.19199,-0.15742 0.2,-0.4 0.0475,-0.23945 -0.1,-0.45 -0.10078,-0.21621 -0.35,-0.35 -2.58867,-1.21895 -5.45,-1.15 -1.43457,0.06 -2.95,0.45 -1.86445,0.50098 -3.8,1.5 -0.20234,0.13555 -0.4,0.25 -0.0248,0.0127 -0.05,0 -0.55215,0.3084 -1.1,0.65 l 0.05,-0.05 q -1.06797,0.68047 -2.15,1.5 l 1.4,-5.2 q 0.1041,-0.25879 -0.05,-0.5 -0.10605,-0.26484 -0.4,-0.4 -0.2377,-0.0793 -0.5,0 -5.17559,1.98438 -5.85,7.5 -3.00801,-2.84961 -7.75,-1 -0.23281,0.11992 -0.4,0.35 -0.10078,0.23613 -0.05,0.5 0.0477,0.26758 0.25,0.45 l 3,2.6 q -3.93379,-0.8752 -7,1.55 -0.13594,0.13437 -0.3,0.25 -0.19238,0.20449 -0.25,0.45 -0.0289,0.29082 0.1,0.5 l 1.4,2.4 q -0.48828,-0.21992 -1.05,-0.4 -2.62578,-0.94004 -5.95,-0.3 -0.12031,0.023 -0.25,0.05 -0.72637,-1.24199 -1.45,-2.5 -4.95977,-9.03574 -6.75,-17.35 -2.06855,-9.609961 -0.6,-17.8 1.54434,-8.148047 4.15,-13.25 2.59238,-5.075391 9.05,-11.8 5.7918,-5.838477 19.75,-11.1 0.125,-0.05 0.25,-0.1 1.78438,-0.667773 3.7,-1.35 0.18145,-0.03809 0.3,-0.2 m -23.4,82.6 q 0.24551,0.1041 0.5,0 0.26484,-0.0506 0.4,-0.3 0.17656,-0.20352 0.15,-0.5 -0.0297,-0.2252 -0.25,-0.4 l -4.65,-4.65 q 2.54297,-0.36152 4.6,0.35 2.03281,0.68984 3.55,2.5 0.21367,0.23027 0.5,0.25 0.2873,0.0652 0.5,-0.1 0.26309,-0.16777 0.3,-0.45 0.0789,-0.29102 -0.1,-0.55 l -3.05,-5.25 q 3.91055,-2.7459 9.5,0.6 0.25781,0.17871 0.55,0.1 0.28105,-0.0363 0.45,-0.3 0.17715,-0.21113 0.15,-0.5 -0.0316,-0.28516 -0.25,-0.5 l -5.6,-4.85 q 3.80313,-0.91172 6.05,2.35 0.14004,0.23672 0.35,0.3 0.25,0.10332 0.45,0 0.25664,-0.0488 0.4,-0.25 0.1498,-0.20195 0.15,-0.45 -0.0621,-5.13359 3.55,-7.35 l -1.65,5.85 q -0.0529,0.24043 0,0.45 0.11465,0.24883 0.3,0.35 0.24492,0.16348 0.5,0.15 0.24141,-0.0164 0.4,-0.2 1.9543,-1.6375 3.8,-2.8 l 0.05,0 q 0.47344,-0.30312 0.95,-0.55 l 0.05,-0.05 q 1.1957,-0.65566 2.35,-1.1 0.78984,-0.28945 1.55,-0.5 1.31387,-0.34277 2.6,-0.4 l 0,0 q 1.3293,-0.0141 2.55,0.25 -5.13477,1.68789 -6.25,5 -0.0828,0.29277 0.05,0.55 0.1459,0.30215 0.45,0.4 0.28184,0.10742 0.55,-0.05 1.21699,-0.57012 2.35,-0.95 0.24199,-0.0797 0.45,-0.15 2.94883,-0.8498 5.45,-0.2 l -6.05,4 q -0.20371,0.1793 -0.3,0.45 -0.0486,0.27109 0.05,0.5 0.14453,0.2707 0.4,0.35 0.2582,0.13613 0.5,0.05 5.5623,-1.75703 10.4,0.8 -0.68398,0.90879 -1.2,2.05 -0.10566,0.20391 -0.1,0.4 0.0641,0.25566 0.2,0.4 0.19277,0.19707 0.4,0.25 0.24219,0.0434 0.45,-0.05 0.95371,-0.39492 1.8,-0.45 0.86387,-9.8e-4 0.95,0 0.13105,9.8e-4 1.5,0.35 1.35996,0.34902 1.65,0.65 -3.34277,0.31484 -3.95,2.05 0.0135,0.0877 0,0.15 -0.10313,0.27754 0,0.55 0.11367,0.25879 0.35,0.35 0.24961,0.11504 0.45,0.2 0.20957,0.10059 0.5,0.25 1.66328,0.75488 3.2,1.65 0.36191,0.19648 0.6,0.3 2.91875,3.15078 2.4,7.6 -0.16973,-0.15469 -0.35,-0.35 -0.59473,-0.51484 -0.75,-0.65 -3.43437,-3.54746 -5.15,-2.95 -0.1998,0.0647 -0.35,0.25 -0.15332,0.17305 -0.2,0.4 0.005,0.23926 0.1,0.45 0.15137,0.20176 0.35,0.3 2.46934,1.15156 4.15,2.55 l 0.05,0.05 q 0.0268,0.0234 0.05,0.05 0.15898,0.13047 0.65,0.6 0.39629,0.36621 0.7,0.75 0.15566,0.18516 0.5,0.65 l 0.05,0.05 q 0.0711,0.13535 0.15,0.2 0.54941,0.80762 0.9,1.65 l -4.4,-2.75 q -0.25645,-0.13516 -0.55,-0.1 -0.29727,0.0813 -0.5,0.3 -0.13418,0.27578 -0.1,0.55 l 0.55,3.6 q -0.74766,-1.16367 -1.55,-2.15 l 0,0 q -0.24414,-0.28262 -3.95,-3.75 -4.10449,-3.95195 -12,-3.35 -0.0244,0.0369 -0.05,0.05 -0.21055,0.0248 -0.45,0.05 -0.4793,0.0369 -0.9,0.1 -0.22285,0.0307 -0.3,0.05 -0.11895,-0.63281 0,-1.35 l 0,-0.05 q 0.28164,-2.21152 1.8,-4.2 0.22617,-0.21836 0.2,-0.55 -0.0463,-0.28223 -0.3,-0.5 -0.24316,-0.16445 -0.55,-0.15 -0.0373,0.0346 -0.1,0.05 -0.0285,-0.0935 -1.75,0.55 -2.2832,0.95391 -3.85,2.75 -1.55566,1.84297 -2.5,3.55 -0.88008,-1.40352 -1.55,-3.15 -0.70586,-1.80449 -1.15,-3.95 -0.0568,-0.27461 -0.3,-0.45 -0.25117,-0.17227 -0.55,-0.15 -0.29453,0.0793 -0.5,0.3 -1.56504,2.13379 -1.85,4.6 -7.8e-4,0.18711 -0.05,0.35 -0.7041,-0.52871 -1.5,-0.95 l 0.05,0 q -1.40957,-0.72402 -2.95,-0.95 l -0.05,0 q -1.96973,-0.25781 -4.15,0.3 -0.20039,0.076 -0.35,0.25 -0.15527,0.18613 -0.2,0.4 2e-4,0.25566 0.1,0.45 l 0,0 q 0.15254,0.2291 0.35,0.3 3.13164,1.37363 3.65,3.3 -2.03926,0.1084 -4.45,0.75 -3.19102,0.91602 -5.85,2.15 -1.6459,0.79746 -3.1,1.7 0.20566,-2.07539 1.9,-3.8 0.80547,-0.81641 1.95,-1.6 0.27227,-0.1375 0.35,-0.45 0.0682,-0.24961 -0.1,-0.5 -1.3668,-2.67285 -3.9,-2.9 -0.76094,-0.0873 -1.65,0.05 0.54707,-0.61523 1.1,-1.1 2.63418,-2.17461 6.25,-0.6 m 48.2,22.4 q -0.48379,-1.45195 -1,-2.75 11.64785,-0.8627 16.5,0.6 1.33535,0.42285 2.45,1.05 0.2541,0.15684 0.45,0.3 5.07559,3.21641 5.65,11.1 0.10762,1.18945 0.1,2.35 0.025,0.15293 0,0.3 -0.0383,8.26309 -4.65,13.5 -5.39707,6.18262 -10.25,9.05 -2.42988,1.48945 -4.35,2.3 7.39434,-6.68828 10.1,-11.5 2.17285,-3.87539 2.8,-6.3 0.66602,-2.30918 0.55,-4.7 0.0109,-0.55195 -0.05,-1.15 -0.13145,-1.16445 -0.45,-2.35 -0.82324,-2.9168 -2.9,-4.55 -0.15039,-0.11797 -0.3,-0.25 -1.37871,-0.95293 -3.25,-1.45 -4.54824,-1.10508 -10.25,1.15 0.0402,-3.26152 -1.15,-6.7 z" />
      <path
         style="fill:#b48701;stroke:none"
         inkscape:connector-curvature="0"
         id="path63320"
         d="m 590.5,109.55 q -0.20801,0.0703 -0.45,0.15 -1.07715,3.36602 -2.9,5.95 -0.4293,0.65625 -0.55,1.45 2.0623,0.1373 4.1,0.25 0.73945,0.0545 1.35,-0.1 0.0826,0.55137 0.4,1.15 0.62754,1.2498 1.5,0.5 1.77812,-1.49941 3.85,-0.35 2.4791,1.41484 4.85,2.6 0.60723,-1.73516 3.95,-2.05 -0.29004,-0.30098 -1.65,-0.65 -1.36895,-0.34902 -1.5,-0.35 -0.0861,-9.8e-4 -0.95,0 -0.84629,0.0551 -1.8,0.45 -0.20781,0.0934 -0.45,0.05 -0.20723,-0.0529 -0.4,-0.25 -0.13594,-0.14434 -0.2,-0.4 -0.006,-0.19609 0.1,-0.4 0.51602,-1.14121 1.2,-2.05 -4.8377,-2.55703 -10.4,-0.8 -0.2418,0.0861 -0.5,-0.05 -0.25547,-0.0793 -0.4,-0.35 -0.0986,-0.22891 -0.05,-0.5 0.0963,-0.2707 0.3,-0.45 l 6.05,-4 q -2.50117,-0.6498 -5.45,0.2 m 12.75,21.25 q -0.59141,-0.55781 -2,-0.95 -0.59551,-2.59238 -0.75,-6.75 -2.07441,0.2209 -2.9,2.2 -4.1459,-2.53066 -7.2,-2.85 0.87813,0.9875 0.75,2.15 -1.01016,0.73906 0.35,1.35 0.84863,0.39844 1.55,0.9 0.99141,0.69629 1.95,1.25 3.98848,2.31719 8.25,2.7 m -41.5,-7.55 q -0.25449,0.1041 -0.5,0 -3.61582,-1.57461 -6.25,0.6 -0.55293,0.48477 -1.1,1.1 0.88906,-0.1373 1.65,-0.05 2.5332,0.22715 3.9,2.9 0.16816,0.25039 0.1,0.5 -0.0777,0.3125 -0.35,0.45 -1.14453,0.78359 -1.95,1.6 -1.69434,1.72461 -1.9,3.8 1.4541,-0.90254 3.1,-1.7 2.65898,-1.23398 5.85,-2.15 2.41074,-0.6416 4.45,-0.75 -0.51836,-1.92637 -3.65,-3.3 -0.19746,-0.0709 -0.35,-0.3 l 0,0 q -1.94375,1.05332 -4.05,1.7 0.91426,-3.10684 3.1,-5.35 0.64785,-0.61133 1.75,-0.4 0.70762,0.12031 1.45,0.45 0.0318,-0.91484 -0.1,-1.8 -0.1832,-1.6168 1.3,-1.7 2.20918,-0.10293 2.45,-2.15 2.36348,0.7916 4.6,1.75 0.75137,0.33223 1.6,0.45 -0.56875,-0.90879 -0.95,-2 0.01,-1.03457 -0.15,-1.55 1.82852,0.11387 4.15,0.8 -0.27578,-5.36563 3.75,-8 1.36895,-0.80137 2.15,-2.15 0.21348,-0.32461 0.4,-0.6 -1.1543,0.44434 -2.35,1.1 l -0.05,0.05 q -0.47656,0.24688 -0.95,0.55 l -0.05,0 q -1.8457,1.1625 -3.8,2.8 -0.15859,0.18359 -0.4,0.2 -0.25508,0.0135 -0.5,-0.15 -0.18535,-0.10117 -0.3,-0.35 -0.0529,-0.20957 0,-0.45 l 1.65,-5.85 q -3.61211,2.21641 -3.55,7.35 -2e-4,0.24805 -0.15,0.45 -0.14336,0.20117 -0.4,0.25 -0.2,0.10332 -0.45,0 -0.20996,-0.0633 -0.35,-0.3 -2.24687,-3.26172 -6.05,-2.35 l 5.6,4.85 q 0.21836,0.21484 0.25,0.5 0.0272,0.28887 -0.15,0.5 -0.16895,0.26367 -0.45,0.3 -0.29219,0.0787 -0.55,-0.1 -5.58945,-3.3459 -9.5,-0.6 l 3.05,5.25 q 0.17891,0.25898 0.1,0.55 -0.0369,0.28223 -0.3,0.45 -0.2127,0.16523 -0.5,0.1 -0.28633,-0.0197 -0.5,-0.25 -1.51719,-1.81016 -3.55,-2.5 -2.05703,-0.71152 -4.6,-0.35 l 4.65,4.65 q 0.22031,0.1748 0.25,0.4 0.0266,0.29648 -0.15,0.5 -0.13516,0.24941 -0.4,0.3 z" />
      <path
         style="fill:#543f01;stroke:none"
         inkscape:connector-curvature="0"
         id="path63322"
         d="m 594.75,39.05 q 0.43984,1.637891 0.85,3.25 8.26602,33.263086 2.1,66.1 0.10977,0.076 0.2,0.1 0.25508,0.13301 0.35,0.35 0.1457,0.28125 0.05,0.55 -0.0488,0.26836 -0.3,0.4 l -4.05,2.7 q 4.48047,-0.29609 8.5,2.15 19.66875,-41.164258 -4.5,-72.35 -1.10645,-1.435547 -2.3,-2.85 -0.45059,-0.189648 -0.9,-0.4 M 593.85,39 q -0.36641,0.03418 -0.75,0.05 -2.21777,1.601953 -4.3,3.25 -33.67754,26.428711 -26.25,70.85 3.06621,-2.4252 7,-1.55 l -3,-2.6 q -0.20234,-0.18242 -0.25,-0.45 -0.0508,-0.26387 0.05,-0.5 0.16719,-0.23008 0.4,-0.35 4.74199,-1.84961 7.75,1 0.67441,-5.51562 5.85,-7.5 0.2623,-0.0793 0.5,0 0.29395,0.13516 0.4,0.4 0.1541,0.24121 0.05,0.5 l -1.4,5.2 q 1.08203,-0.81953 2.15,-1.5 l -0.05,0.05 q 0.54785,-0.3416 1.1,-0.65 0.0252,0.0127 0.05,0 0.19766,-0.11445 0.4,-0.25 2.69063,-33.076172 9.9,-62.65 0.41875,-1.718164 0.85,-3.45 -0.0346,0.01445 -0.1,0 l 0,0 q -0.14414,0.123047 -0.35,0.15 m -13.35,3.3 q 0.0713,-0.05 0.15,-0.1 -0.125,0.05 -0.25,0.1 -13.9582,5.261523 -19.75,11.1 -6.45762,6.724609 -9.05,11.8 -2.60566,5.101953 -4.15,13.25 -1.46855,8.190039 0.6,17.8 1.79023,8.31426 6.75,17.35 -5.07754,-17.889063 1.25,-38.85 6.30273,-20.907812 24.45,-32.45 z" />
    </g>
    <g
       id="Layer0_1_MEMBER_0_FILL-6">
      <path
         style="fill:#000000;stroke:none"
         inkscape:connector-curvature="0"
         id="path63325"
         d="m 771.85,231.15 q 2.1,-2.1 2.1,-5.05 0,-2.95 -2.1,-5.05 -2.1,-2.1 -5.05,-2.1 -2.95,0 -5.05,2.1 -2.1,2.1 -2.1,5.05 0,2.95 2.1,5.05 2.1,2.1 5.05,2.1 2.95,0 5.05,-2.1 M 769.6,222 q 0.3,-0.15 0.6,-0.2 1.05,0.25 1.5,1.25 0.05,0.2 0.05,0.45 -0.2,0.45 -0.55,0.9 -0.15,0.2 -0.35,0.35 -0.35,0.05 -0.65,0.15 -1.25,-0.1 -1.55,-1.25 -0.25,-1.2 0.95,-1.65 z" />
      <path
         style="fill:#ffffff;stroke:none"
         inkscape:connector-curvature="0"
         id="path63327"
         d="m 770.2,221.8 q -0.3,0.05 -0.6,0.2 -1.2,0.45 -0.95,1.65 0.3,1.15 1.55,1.25 0.3,-0.1 0.65,-0.15 0.2,-0.15 0.35,-0.35 0.35,-0.45 0.55,-0.9 0,-0.25 -0.05,-0.45 -0.45,-1 -1.5,-1.25 z" />
    </g>
    <g
       id="Layer0_1_MEMBER_1_FILL-9">
      <path
         style="fill:#000000;stroke:none"
         inkscape:connector-curvature="0"
         id="path63330"
         d="m 771.85,231.15 q 2.1,-2.1 2.1,-5.05 0,-2.95 -2.1,-5.05 -2.1,-2.1 -5.05,-2.1 -2.95,0 -5.05,2.1 -2.1,2.1 -2.1,5.05 0,2.95 2.1,5.05 2.1,2.1 5.05,2.1 2.95,0 5.05,-2.1 M 769.6,222 q 0.3,-0.15 0.6,-0.2 1.05,0.25 1.5,1.25 0.05,0.2 0.05,0.45 -0.2,0.45 -0.55,0.9 -0.15,0.2 -0.35,0.35 -0.35,0.05 -0.65,0.15 -1.25,-0.1 -1.55,-1.25 -0.25,-1.2 0.95,-1.65 z" />
      <path
         style="fill:#ffffff;stroke:none"
         inkscape:connector-curvature="0"
         id="path63332"
         d="m 770.2,221.8 q -0.3,0.05 -0.6,0.2 -1.2,0.45 -0.95,1.65 0.3,1.15 1.55,1.25 0.3,-0.1 0.65,-0.15 0.2,-0.15 0.35,-0.35 0.35,-0.45 0.55,-0.9 0,-0.25 -0.05,-0.45 -0.45,-1 -1.5,-1.25 z" />
    </g>
    <g
       id="Layer0_1_MEMBER_2_FILL">
      <path
         style="fill:#000000;stroke:none"
         inkscape:connector-curvature="0"
         id="path63335"
         d="m 690.1,180.65 q -0.38691,1.41387 0.35,2.7 0.73008,1.29805 2.15,1.7 1.41387,0.39941 2.7,-0.35 1.28555,-0.70508 1.65,-2.15 0.42441,-1.40137 -0.3,-2.7 -0.73008,-1.28574 -2.15,-1.7 -1.41387,-0.37461 -2.7,0.35 -1.29824,0.73008 -1.7,2.15 m 6.2,0.15 q 0.003,0.10371 -0.05,0.2 -0.12637,0.20996 -0.35,0.35 -0.1041,0.10273 -0.25,0.15 -0.14629,-0.0279 -0.3,-0.05 -0.58652,-0.18594 -0.6,-0.8 0.0639,-0.59004 0.7,-0.65 0.15645,-0.024 0.3,0 0.46934,0.25957 0.55,0.8 z" />
      <path
         style="fill:#ffffff;stroke:none"
         inkscape:connector-curvature="0"
         id="path63337"
         d="m 696.25,181 q 0.0527,-0.0963 0.05,-0.2 -0.0807,-0.54043 -0.55,-0.8 -0.14355,-0.024 -0.3,0 -0.63613,0.06 -0.7,0.65 0.0135,0.61406 0.6,0.8 0.15371,0.0221 0.3,0.05 0.1459,-0.0473 0.25,-0.15 0.22363,-0.14004 0.35,-0.35 z" />
    </g>
    <g
       id="Layer0_1_MEMBER_3_FILL">
      <path
         style="fill:#000000;stroke:none"
         inkscape:connector-curvature="0"
         id="path63340"
         d="m 771.85,231.15 q 2.1,-2.1 2.1,-5.05 0,-2.95 -2.1,-5.05 -2.1,-2.1 -5.05,-2.1 -2.95,0 -5.05,2.1 -2.1,2.1 -2.1,5.05 0,2.95 2.1,5.05 2.1,2.1 5.05,2.1 2.95,0 5.05,-2.1 M 769.6,222 q 0.3,-0.15 0.6,-0.2 1.05,0.25 1.5,1.25 0.05,0.2 0.05,0.45 -0.2,0.45 -0.55,0.9 -0.15,0.2 -0.35,0.35 -0.35,0.05 -0.65,0.15 -1.25,-0.1 -1.55,-1.25 -0.25,-1.2 0.95,-1.65 z" />
      <path
         style="fill:#ffffff;stroke:none"
         inkscape:connector-curvature="0"
         id="path63342"
         d="m 770.2,221.8 q -0.3,0.05 -0.6,0.2 -1.2,0.45 -0.95,1.65 0.3,1.15 1.55,1.25 0.3,-0.1 0.65,-0.15 0.2,-0.15 0.35,-0.35 0.35,-0.45 0.55,-0.9 0,-0.25 -0.05,-0.45 -0.45,-1 -1.5,-1.25 z" />
    </g>
    <g
       id="Layer0_1_MEMBER_4_FILL">
      <path
         style="fill:#000000;stroke:none"
         inkscape:connector-curvature="0"
         id="path63345"
         d="m 771.85,231.15 q 2.1,-2.1 2.1,-5.05 0,-2.95 -2.1,-5.05 -2.1,-2.1 -5.05,-2.1 -2.95,0 -5.05,2.1 -2.1,2.1 -2.1,5.05 0,2.95 2.1,5.05 2.1,2.1 5.05,2.1 2.95,0 5.05,-2.1 M 769.6,222 q 0.3,-0.15 0.6,-0.2 1.05,0.25 1.5,1.25 0.05,0.2 0.05,0.45 -0.2,0.45 -0.55,0.9 -0.15,0.2 -0.35,0.35 -0.35,0.05 -0.65,0.15 -1.25,-0.1 -1.55,-1.25 -0.25,-1.2 0.95,-1.65 z" />
      <path
         style="fill:#ffffff;stroke:none"
         inkscape:connector-curvature="0"
         id="path63347"
         d="m 770.2,221.8 q -0.3,0.05 -0.6,0.2 -1.2,0.45 -0.95,1.65 0.3,1.15 1.55,1.25 0.3,-0.1 0.65,-0.15 0.2,-0.15 0.35,-0.35 0.35,-0.45 0.55,-0.9 0,-0.25 -0.05,-0.45 -0.45,-1 -1.5,-1.25 z" />
    </g>
    <g
       id="Layer0_1_MEMBER_5_FILL">
      <path
         style="fill:#000000;stroke:none"
         inkscape:connector-curvature="0"
         id="path63350"
         d="m 771.85,231.15 q 2.1,-2.1 2.1,-5.05 0,-2.95 -2.1,-5.05 -2.1,-2.1 -5.05,-2.1 -2.95,0 -5.05,2.1 -2.1,2.1 -2.1,5.05 0,2.95 2.1,5.05 2.1,2.1 5.05,2.1 2.95,0 5.05,-2.1 M 769.6,222 q 0.3,-0.15 0.6,-0.2 1.05,0.25 1.5,1.25 0.05,0.2 0.05,0.45 -0.2,0.45 -0.55,0.9 -0.15,0.2 -0.35,0.35 -0.35,0.05 -0.65,0.15 -1.25,-0.1 -1.55,-1.25 -0.25,-1.2 0.95,-1.65 z" />
      <path
         style="fill:#ffffff;stroke:none"
         inkscape:connector-curvature="0"
         id="path63352"
         d="m 770.2,221.8 q -0.3,0.05 -0.6,0.2 -1.2,0.45 -0.95,1.65 0.3,1.15 1.55,1.25 0.3,-0.1 0.65,-0.15 0.2,-0.15 0.35,-0.35 0.35,-0.45 0.55,-0.9 0,-0.25 -0.05,-0.45 -0.45,-1 -1.5,-1.25 z" />
    </g>
    <g
       id="Layer0_1_MEMBER_6_FILL">
      <path
         style="fill:#000000;stroke:none"
         inkscape:connector-curvature="0"
         id="path63355"
         d="m 771.85,231.15 q 2.1,-2.1 2.1,-5.05 0,-2.95 -2.1,-5.05 -2.1,-2.1 -5.05,-2.1 -2.95,0 -5.05,2.1 -2.1,2.1 -2.1,5.05 0,2.95 2.1,5.05 2.1,2.1 5.05,2.1 2.95,0 5.05,-2.1 M 769.6,222 q 0.3,-0.15 0.6,-0.2 1.05,0.25 1.5,1.25 0.05,0.2 0.05,0.45 -0.2,0.45 -0.55,0.9 -0.15,0.2 -0.35,0.35 -0.35,0.05 -0.65,0.15 -1.25,-0.1 -1.55,-1.25 -0.25,-1.2 0.95,-1.65 z" />
      <path
         style="fill:#ffffff;stroke:none"
         inkscape:connector-curvature="0"
         id="path63357"
         d="m 770.2,221.8 q -0.3,0.05 -0.6,0.2 -1.2,0.45 -0.95,1.65 0.3,1.15 1.55,1.25 0.3,-0.1 0.65,-0.15 0.2,-0.15 0.35,-0.35 0.35,-0.45 0.55,-0.9 0,-0.25 -0.05,-0.45 -0.45,-1 -1.5,-1.25 z" />
    </g>
    <g
       id="Layer0_1_MEMBER_7_FILL">
      <path
         style="fill:#000000;stroke:none"
         inkscape:connector-curvature="0"
         id="path63360"
         d="m 771.85,231.15 q 2.1,-2.1 2.1,-5.05 0,-2.95 -2.1,-5.05 -2.1,-2.1 -5.05,-2.1 -2.95,0 -5.05,2.1 -2.1,2.1 -2.1,5.05 0,2.95 2.1,5.05 2.1,2.1 5.05,2.1 2.95,0 5.05,-2.1 M 769.6,222 q 0.3,-0.15 0.6,-0.2 1.05,0.25 1.5,1.25 0.05,0.2 0.05,0.45 -0.2,0.45 -0.55,0.9 -0.15,0.2 -0.35,0.35 -0.35,0.05 -0.65,0.15 -1.25,-0.1 -1.55,-1.25 -0.25,-1.2 0.95,-1.65 z" />
      <path
         style="fill:#ffffff;stroke:none"
         inkscape:connector-curvature="0"
         id="path63362"
         d="m 770.2,221.8 q -0.3,0.05 -0.6,0.2 -1.2,0.45 -0.95,1.65 0.3,1.15 1.55,1.25 0.3,-0.1 0.65,-0.15 0.2,-0.15 0.35,-0.35 0.35,-0.45 0.55,-0.9 0,-0.25 -0.05,-0.45 -0.45,-1 -1.5,-1.25 z" />
    </g>
    <filter
       inkscape:collect="always"
       id="filter3921"
       color-interpolation-filters="sRGB">
      <feGaussianBlur
         inkscape:collect="always"
         stdDeviation="1.884783"
         id="feGaussianBlur3923" />
    </filter>
  </defs>
  <metadata
     id="metadata7">
    <rdf:RDF>
      <cc:Work
         rdf:about="">
        <dc:format>image/svg+xml</dc:format>
        <dc:type
           rdf:resource="http://purl.org/dc/dcmitype/StillImage" />
        <dc:title>Bingo das Letras</dc:title>
        <cc:license
           rdf:resource="" />
        <dc:rights>
          <cc:Agent>
            <dc:title>Copyright  2002-2016. Portal Clickideia  - Todos os Direitos Reservados</dc:title>
          </cc:Agent>
        </dc:rights>
        <dc:description>SVG game with snapSVG lib and other javascripts included</dc:description>
        <dc:language>pt_BR</dc:language>
        <dc:subject>
          <rdf:Bag>
            <rdf:li>Educativo</rdf:li>
            <rdf:li>ensino fundamental</rdf:li>
            <rdf:li>clickiia</rdf:li>
            <rdf:li>letras</rdf:li>
            <rdf:li>lingua portuguesa</rdf:li>
            <rdf:li>infantil</rdf:li>
            <rdf:li>educational game</rdf:li>
            <rdf:li>game design</rdf:li>
            <rdf:li>multimidia</rdf:li>
          </rdf:Bag>
        </dc:subject>
        <dc:creator>
          <cc:Agent>
            <dc:title>http://www.clickideia.com.br/</dc:title>
          </cc:Agent>
        </dc:creator>
        <dc:publisher>
          <cc:Agent>
            <dc:title>http://www.clickideia.com.br/</dc:title>
          </cc:Agent>
        </dc:publisher>
        <dc:date>18/01/2016</dc:date>
        <dc:contributor>
          <cc:Agent>
            <dc:title>michel morandi - michel.morandi@clickideia.com.br</dc:title>
          </cc:Agent>
        </dc:contributor>
      </cc:Work>
    </rdf:RDF>
  </metadata>
  <g
     id="g3929"
     transform="matrix(1.2226213,0,0,1.2226213,7.5417631,7.5768112)">
    <g
       transform="translate(144.69871,-0.9066157)"
       id="g3925">
      <path
         inkscape:connector-curvature="0"
         id="path3919"
         d="m -121.77636,76.442675 c -0.44751,-2.172463 -0.24345,-8.206544 0.34809,-10.293 0.71668,-2.52782 2.04028,-5.185157 3.49985,-7.026477 1.28557,-1.621801 1.35514,-1.881131 0.74027,-2.75948 -0.77138,-1.101922 -3.23749,-6.852022 -4.16098,-9.70192 -0.90164,-2.782507 -0.91817,-2.807102 -1.77155,-2.636331 -2.16415,0.433078 -6.03529,3.820413 -8.14798,7.129669 -1.43511,2.247922 -3.10829,5.636374 -4.27793,8.663487 -1.27507,3.299981 -1.80686,3.553784 -1.54399,0.736886 0.72307,-7.748565 3.70657,-14.972361 7.61958,-18.448913 1.33433,-1.185507 5.17027,-3.304747 5.98175,-3.304747 0.4703,0 0.71641,-0.711371 0.71641,-2.070819 0,-1.997059 0.38872,-2.22074 4.12708,-2.374856 3.82734,-0.157782 6.22235,0.193614 10.0384,1.472837 1.49265,0.500366 2.77962,0.844002 2.85995,0.763636 0.21273,-0.212854 -2.70087,-4.448596 -4.29661,-6.246339 -3.79608,-4.276626 -8.50167,-7.196471 -11.952,-7.416297 -3.50714,-0.223445 -6.68891,1.226677 -11.29059,5.145796 -2.31646,1.972867 -6.41566,6.502762 -9.3844,10.370412 -1.21432,1.581997 -2.02771,2.270275 -2.02771,1.715818 0,-0.38284 1.93356,-4.940866 2.9759,-7.015159 6.51176,-12.958631 14.53715,-17.87776 23.87003,-14.631033 2.55883,0.890165 4.6529,2.26291 7.38312,4.839933 2.28383,2.155675 2.2517,2.161729 2.55602,-0.481784 0.24564,-2.133775 0.9179,-4.829282 1.72388,-6.912088 1.63265,-4.219079 5.75334,-8.6983769 10.021836,-10.8939971 3.829979,-1.9700569 7.062616,-3.1637142 10.063337,-3.7159054 l 2.578015,-0.47440542 2.227657,1.12164132 c 6.175413,3.1093679 10.94045,7.773655 12.649097,12.3816546 0.353079,0.952201 0.731847,1.83707 0.84171,1.966376 0.109864,0.129305 1.186046,-0.884968 2.391513,-2.253942 2.823398,-3.206354 4.85999,-4.8888521 6.919614,-5.7165284 1.420355,-0.5707807 2.220409,-0.6636142 5.706734,-0.6621744 4.558285,0.00189 7.804059,0.6712274 13.805802,2.8470378 6.01865,2.18194 12.925745,5.2707 12.925745,5.780219 0,0.378668 -0.823419,0.22384 -5.815283,-1.093447 -6.082141,-1.604999 -11.84418,-2.60503 -16.110592,-2.796075 -6.399139,-0.286547 -9.031175,0.587608 -12.683422,4.212434 -2.215649,2.199014 -5.234226,6.328975 -6.624991,9.064193 -0.82862,1.629649 -1.31372,3.459924 -0.914291,3.449613 0.137025,-0.0035 1.191918,-0.617465 2.34421,-1.364285 5.211913,-3.377928 9.726024,-3.316873 15.696791,0.212306 2.146051,1.26848 5.917674,4.956816 7.484458,7.319184 2.697714,4.067559 5.754773,10.481824 5.168472,10.844384 -0.371716,0.229863 -0.336295,0.266467 -2.496519,-2.579931 -2.251857,-2.967137 -6.447081,-7.273743 -8.713896,-8.945236 -2.250934,-1.659788 -4.613339,-2.868601 -6.913961,-3.53779 -4.795868,-1.394992 -9.62846,1.03232 -13.859748,6.961467 -1.675843,2.348295 -1.71336,2.846313 -0.187713,2.491826 1.845441,-0.428799 6.129469,-0.318404 7.904879,0.203696 2.612084,0.768143 5.684067,2.538446 7.51416,4.330212 3.879756,3.798502 5.478441,10.113689 4.374086,17.278673 -1.177711,7.640889 -1.756212,8.104933 -2.030445,1.628719 -0.216324,-5.108583 -0.975683,-8.643623 -2.494837,-11.614213 -1.842692,-3.603239 -3.931889,-5.351792 -7.857693,-6.576491 -2.136295,-0.666443 -2.936178,-0.771299 -5.013534,-0.65722 -2.784812,0.152929 -4.270716,0.761592 -6.268996,2.567949 -1.065591,0.963245 -1.197315,1.222983 -1.057485,2.085155 0.195744,1.206908 -0.194359,1.501272 -1.154953,0.871509 -1.121574,-0.735305 -1.395215,-0.597577 -1.291998,0.650277 l 0.09322,1.126971 4.204962,0.161313 c 3.522791,0.135143 4.404482,0.266347 5.434818,0.808741 1.539286,0.81032 2.94138,2.386083 3.459227,3.88771 0.598189,1.734601 0.499673,5.9472 -0.183327,7.839216 -1.094492,3.031909 -4.560792,6.573999 -8.326709,8.508771 -1.594759,0.81932 -2.937022,1.137149 -2.937022,0.695446 0,-0.103089 1.182646,-1.425892 2.628102,-2.939564 1.522487,-1.594339 3.069106,-3.569943 3.676392,-4.696108 0.912582,-1.69232 1.048294,-2.21631 1.048343,-4.047656 8.1e-5,-3.267723 -1.292708,-4.562077 -4.455876,-4.461275 -1.94044,0.06184 -2.378846,0.515765 -1.342227,1.389745 1.189049,1.00249 1.574479,1.919456 0.953064,2.267417 -0.455058,0.254806 -0.43841,0.379068 0.186277,1.390408 0.930792,1.506911 0.486514,1.906976 -1.162615,1.046911 -1.517358,-0.791341 -1.811015,-0.616188 -0.963516,0.574695 0.663236,0.931963 0.850276,2.581232 0.329266,2.903417 -0.167312,0.103465 -0.870091,-0.296535 -1.561726,-0.888889 -1.323572,-1.13357 -1.948763,-1.232046 -1.798321,-0.283251 0.231222,1.458246 0.124247,3.134391 -0.227071,3.557949 -0.562991,0.678749 -0.815904,0.580685 -1.177251,-0.456471 -0.408942,-1.173757 -2.067857,-3.284086 -2.581598,-3.284086 -0.236403,0 -0.475819,0.564675 -0.605073,1.427096 -0.528489,3.526232 -2.116177,6.070394 -4.468845,7.16102 -1.995684,0.925143 -2.266601,0.621829 -1.41803,-1.587593 0.822043,-2.140349 1.151871,-5.416636 0.641383,-6.371037 -0.377939,-0.706589 -3.057272,-2.124063 -4.024603,-2.129178 -1.681646,-0.0089 -3.715838,2.010822 -4.353461,4.322465 -0.460134,1.668178 0.06643,3.798349 1.357155,5.49025 1.339172,1.755409 1.00762,2.202835 -0.980345,1.322962 -3.001307,-1.328377 -4.506892,-3.135488 -5.444942,-6.535379 -0.71941,-2.607504 -0.79148,-2.650134 -2.71646,-1.606922 -0.90962,0.492952 -1.77093,0.823882 -1.91402,0.735401 -0.14308,-0.08848 -0.26016,-0.558608 -0.26016,-1.04472 0,-0.930596 -0.25918,-1.105348 -0.81482,-0.549394 -0.93797,0.938508 -1.19677,-0.789342 -0.4951,-3.305556 0.19553,-0.701153 0.16879,-0.712486 -1.19734,-0.507506 -1.26387,0.189637 -1.39734,0.152697 -1.39734,-0.386744 0,-0.328023 0.3379,-0.998207 0.75088,-1.489293 1.08403,-1.289032 0.98417,-1.674658 -0.37544,-1.449802 -0.61948,0.102453 -1.5656,0.187766 -2.10248,0.189584 -1.18612,0.004 -1.25238,0.481962 -0.37544,2.708039 0.70065,1.778591 0.73576,2.10562 0.22526,2.098278 -0.20649,-0.003 -0.81575,-0.679151 -1.3539,-1.502627 -0.53815,-0.823477 -1.08607,-1.497228 -1.21759,-1.497228 -0.50149,0 -2.14818,2.032292 -3.16556,3.906832 -1.22988,2.266071 -2.43165,5.793355 -2.8909,8.485009 -0.48468,2.840745 -0.59454,3.235488 -0.90041,3.235488 -0.15457,0 -0.38549,-0.507137 -0.51318,-1.126971 z m 9.6661,-22.636844 c 1.7718,-1.312113 3.42072,-2.170296 5.18111,-2.69652 1.47629,-0.441297 1.57513,-0.844212 0.59917,-2.442437 -1.13403,-1.85708 -3.69633,-3.414556 -7.0465,-4.283165 -2.53753,-0.657914 -3.68963,-0.628237 -3.68963,0.09504 0,1.453582 1.82038,9.117026 2.45486,10.3345 0.31081,0.596393 0.3645,0.57477 2.50099,-1.007422 z"
         style="fill:#808080;stroke:#808080;stroke-width:3.27165866;stroke-linejoin:round;stroke-miterlimit:4;stroke-dasharray:none;filter:url(#filter3921)" />
      <path
         style="fill:#ffffff;stroke:#ffffff;stroke-width:3.27165866;stroke-linejoin:round;stroke-miterlimit:4;stroke-dasharray:none"
         d="m -121.77636,76.442675 c -0.44751,-2.172463 -0.24345,-8.206544 0.34809,-10.293 0.71668,-2.52782 2.04028,-5.185157 3.49985,-7.026477 1.28557,-1.621801 1.35514,-1.881131 0.74027,-2.75948 -0.77138,-1.101922 -3.23749,-6.852022 -4.16098,-9.70192 -0.90164,-2.782507 -0.91817,-2.807102 -1.77155,-2.636331 -2.16415,0.433078 -6.03529,3.820413 -8.14798,7.129669 -1.43511,2.247922 -3.10829,5.636374 -4.27793,8.663487 -1.27507,3.299981 -1.80686,3.553784 -1.54399,0.736886 0.72307,-7.748565 3.70657,-14.972361 7.61958,-18.448913 1.33433,-1.185507 5.17027,-3.304747 5.98175,-3.304747 0.4703,0 0.71641,-0.711371 0.71641,-2.070819 0,-1.997059 0.38872,-2.22074 4.12708,-2.374856 3.82734,-0.157782 6.22235,0.193614 10.0384,1.472837 1.49265,0.500366 2.77962,0.844002 2.85995,0.763636 0.21273,-0.212854 -2.70087,-4.448596 -4.29661,-6.246339 -3.79608,-4.276626 -8.50167,-7.196471 -11.952,-7.416297 -3.50714,-0.223445 -6.68891,1.226677 -11.29059,5.145796 -2.31646,1.972867 -6.41566,6.502762 -9.3844,10.370412 -1.21432,1.581997 -2.02771,2.270275 -2.02771,1.715818 0,-0.38284 1.93356,-4.940866 2.9759,-7.015159 6.51176,-12.958631 14.53715,-17.87776 23.87003,-14.631033 2.55883,0.890165 4.6529,2.26291 7.38312,4.839933 2.28383,2.155675 2.2517,2.161729 2.55602,-0.481784 0.24564,-2.133775 0.9179,-4.829282 1.72388,-6.912088 1.63265,-4.219079 5.75334,-8.6983769 10.021836,-10.8939971 3.829979,-1.9700569 7.062616,-3.1637142 10.063337,-3.7159054 l 2.578015,-0.47440542 2.227657,1.12164132 c 6.175413,3.1093679 10.94045,7.773655 12.649097,12.3816546 0.353079,0.952201 0.731847,1.83707 0.84171,1.966376 0.109864,0.129305 1.186046,-0.884968 2.391513,-2.253942 2.823398,-3.206354 4.85999,-4.8888521 6.919614,-5.7165284 1.420355,-0.5707807 2.220409,-0.6636142 5.706734,-0.6621744 4.558285,0.00189 7.804059,0.6712274 13.805802,2.8470378 6.01865,2.18194 12.925745,5.2707 12.925745,5.780219 0,0.378668 -0.823419,0.22384 -5.815283,-1.093447 -6.082141,-1.604999 -11.84418,-2.60503 -16.110592,-2.796075 -6.399139,-0.286547 -9.031175,0.587608 -12.683422,4.212434 -2.215649,2.199014 -5.234226,6.328975 -6.624991,9.064193 -0.82862,1.629649 -1.31372,3.459924 -0.914291,3.449613 0.137025,-0.0035 1.191918,-0.617465 2.34421,-1.364285 5.211913,-3.377928 9.726024,-3.316873 15.696791,0.212306 2.146051,1.26848 5.917674,4.956816 7.484458,7.319184 2.697714,4.067559 5.754773,10.481824 5.168472,10.844384 -0.371716,0.229863 -0.336295,0.266467 -2.496519,-2.579931 -2.251857,-2.967137 -6.447081,-7.273743 -8.713896,-8.945236 -2.250934,-1.659788 -4.613339,-2.868601 -6.913961,-3.53779 -4.795868,-1.394992 -9.62846,1.03232 -13.859748,6.961467 -1.675843,2.348295 -1.71336,2.846313 -0.187713,2.491826 1.845441,-0.428799 6.129469,-0.318404 7.904879,0.203696 2.612084,0.768143 5.684067,2.538446 7.51416,4.330212 3.879756,3.798502 5.478441,10.113689 4.374086,17.278673 -1.177711,7.640889 -1.756212,8.104933 -2.030445,1.628719 -0.216324,-5.108583 -0.975683,-8.643623 -2.494837,-11.614213 -1.842692,-3.603239 -3.931889,-5.351792 -7.857693,-6.576491 -2.136295,-0.666443 -2.936178,-0.771299 -5.013534,-0.65722 -2.784812,0.152929 -4.270716,0.761592 -6.268996,2.567949 -1.065591,0.963245 -1.197315,1.222983 -1.057485,2.085155 0.195744,1.206908 -0.194359,1.501272 -1.154953,0.871509 -1.121574,-0.735305 -1.395215,-0.597577 -1.291998,0.650277 l 0.09322,1.126971 4.204962,0.161313 c 3.522791,0.135143 4.404482,0.266347 5.434818,0.808741 1.539286,0.81032 2.94138,2.386083 3.459227,3.88771 0.598189,1.734601 0.499673,5.9472 -0.183327,7.839216 -1.094492,3.031909 -4.560792,6.573999 -8.326709,8.508771 -1.594759,0.81932 -2.937022,1.137149 -2.937022,0.695446 0,-0.103089 1.182646,-1.425892 2.628102,-2.939564 1.522487,-1.594339 3.069106,-3.569943 3.676392,-4.696108 0.912582,-1.69232 1.048294,-2.21631 1.048343,-4.047656 8.1e-5,-3.267723 -1.292708,-4.562077 -4.455876,-4.461275 -1.94044,0.06184 -2.378846,0.515765 -1.342227,1.389745 1.189049,1.00249 1.574479,1.919456 0.953064,2.267417 -0.455058,0.254806 -0.43841,0.379068 0.186277,1.390408 0.930792,1.506911 0.486514,1.906976 -1.162615,1.046911 -1.517358,-0.791341 -1.811015,-0.616188 -0.963516,0.574695 0.663236,0.931963 0.850276,2.581232 0.329266,2.903417 -0.167312,0.103465 -0.870091,-0.296535 -1.561726,-0.888889 -1.323572,-1.13357 -1.948763,-1.232046 -1.798321,-0.283251 0.231222,1.458246 0.124247,3.134391 -0.227071,3.557949 -0.562991,0.678749 -0.815904,0.580685 -1.177251,-0.456471 -0.408942,-1.173757 -2.067857,-3.284086 -2.581598,-3.284086 -0.236403,0 -0.475819,0.564675 -0.605073,1.427096 -0.528489,3.526232 -2.116177,6.070394 -4.468845,7.16102 -1.995684,0.925143 -2.266601,0.621829 -1.41803,-1.587593 0.822043,-2.140349 1.151871,-5.416636 0.641383,-6.371037 -0.377939,-0.706589 -3.057272,-2.124063 -4.024603,-2.129178 -1.681646,-0.0089 -3.715838,2.010822 -4.353461,4.322465 -0.460134,1.668178 0.06643,3.798349 1.357155,5.49025 1.339172,1.755409 1.00762,2.202835 -0.980345,1.322962 -3.001307,-1.328377 -4.506892,-3.135488 -5.444942,-6.535379 -0.71941,-2.607504 -0.79148,-2.650134 -2.71646,-1.606922 -0.90962,0.492952 -1.77093,0.823882 -1.91402,0.735401 -0.14308,-0.08848 -0.26016,-0.558608 -0.26016,-1.04472 0,-0.930596 -0.25918,-1.105348 -0.81482,-0.549394 -0.93797,0.938508 -1.19677,-0.789342 -0.4951,-3.305556 0.19553,-0.701153 0.16879,-0.712486 -1.19734,-0.507506 -1.26387,0.189637 -1.39734,0.152697 -1.39734,-0.386744 0,-0.328023 0.3379,-0.998207 0.75088,-1.489293 1.08403,-1.289032 0.98417,-1.674658 -0.37544,-1.449802 -0.61948,0.102453 -1.5656,0.187766 -2.10248,0.189584 -1.18612,0.004 -1.25238,0.481962 -0.37544,2.708039 0.70065,1.778591 0.73576,2.10562 0.22526,2.098278 -0.20649,-0.003 -0.81575,-0.679151 -1.3539,-1.502627 -0.53815,-0.823477 -1.08607,-1.497228 -1.21759,-1.497228 -0.50149,0 -2.14818,2.032292 -3.16556,3.906832 -1.22988,2.266071 -2.43165,5.793355 -2.8909,8.485009 -0.48468,2.840745 -0.59454,3.235488 -0.90041,3.235488 -0.15457,0 -0.38549,-0.507137 -0.51318,-1.126971 z m 9.6661,-22.636844 c 1.7718,-1.312113 3.42072,-2.170296 5.18111,-2.69652 1.47629,-0.441297 1.57513,-0.844212 0.59917,-2.442437 -1.13403,-1.85708 -3.69633,-3.414556 -7.0465,-4.283165 -2.53753,-0.657914 -3.68963,-0.628237 -3.68963,0.09504 0,1.453582 1.82038,9.117026 2.45486,10.3345 0.31081,0.596393 0.3645,0.57477 2.50099,-1.007422 z"
         id="path3149"
         inkscape:connector-curvature="0" />
    </g>
    <g
       id="g63458"
       transform="matrix(0.46924487,0,0,0.46924487,-69.70704,-55.76487)">
      <g
         id="g63364"
         transform="matrix(1.0597992,0,0,1.0597992,-351.25,79.2)">
        <use
           id="use63366"
           xlink:href="#Layer0_0_FILL-99"
           x="0"
           y="0"
           width="1280"
           height="800" />
      </g>
      <g
         id="g63368"
         transform="matrix(1.0597992,0,0,1.0597992,-351.25,79.2)">
        <use
           id="use63370"
           xlink:href="#Layer0_1_FILL-2"
           x="0"
           y="0"
           width="1280"
           height="800" />
      </g>
      <g
         id="g63372"
         transform="matrix(0.61097717,0.16996765,-0.16996765,0.61097717,-183.8,-37.5)">
        <use
           id="use63374"
           xlink:href="#Layer0_1_MEMBER_0_FILL-6"
           x="0"
           y="0"
           width="1280"
           height="800" />
      </g>
      <g
         id="g63376"
         transform="matrix(0.48876953,0.13598633,-0.13598633,0.48876953,-64.95,12.5)">
        <use
           id="use63378"
           xlink:href="#Layer0_1_MEMBER_1_FILL-9"
           x="0"
           y="0"
           width="1280"
           height="800" />
      </g>
      <g
         id="g63380"
         transform="matrix(0.63510132,0,0,0.63510132,-173.8,116.35)">
        <use
           id="use63382"
           xlink:href="#Layer0_1_MEMBER_2_FILL"
           x="0"
           y="0"
           width="1280"
           height="800" />
      </g>
      <g
         id="g63384"
         transform="matrix(0.30551147,0.08499146,-0.0849762,0.30551147,42.75,100.2)">
        <use
           id="use63386"
           xlink:href="#Layer0_1_MEMBER_3_FILL"
           x="0"
           y="0"
           width="1280"
           height="800" />
      </g>
      <g
         id="g63388"
         transform="matrix(0.30551147,0.08499146,-0.0849762,0.30551147,36.3,110.5)">
        <use
           id="use63390"
           xlink:href="#Layer0_1_MEMBER_4_FILL"
           x="0"
           y="0"
           width="1280"
           height="800" />
      </g>
      <g
         id="g63392"
         transform="matrix(0.18328857,0.05097961,-0.05097961,0.18328857,130.25,160.75)">
        <use
           id="use63394"
           xlink:href="#Layer0_1_MEMBER_5_FILL"
           x="0"
           y="0"
           width="1280"
           height="800" />
      </g>
      <g
         id="g63396"
         transform="matrix(0.24440002,0.06799316,-0.06799316,0.24440002,94.7,132.75)">
        <use
           id="use63398"
           xlink:href="#Layer0_1_MEMBER_6_FILL"
           x="0"
           y="0"
           width="1280"
           height="800" />
      </g>
      <g
         id="g63400"
         transform="matrix(0.36659241,0.10198975,-0.10198975,0.36659241,18.2,77.75)">
        <use
           id="use63402"
           xlink:href="#Layer0_1_MEMBER_7_FILL"
           x="0"
           y="0"
           width="1280"
           height="800" />
      </g>
    </g>
  </g>
</svg>
