<?xml version="1.0" encoding="UTF-8" standalone="no"?>
<svg
   xmlns:dc="http://purl.org/dc/elements/1.1/"
   xmlns:cc="http://creativecommons.org/ns#"
   xmlns:rdf="http://www.w3.org/1999/02/22-rdf-syntax-ns#"
   xmlns:svg="http://www.w3.org/2000/svg"
   xmlns="http://www.w3.org/2000/svg"
   xmlns:xlink="http://www.w3.org/1999/xlink"
   xmlns:sodipodi="http://sodipodi.sourceforge.net/DTD/sodipodi-0.dtd"
   xmlns:inkscape="http://www.inkscape.org/namespaces/inkscape"
   version="1.1"
   preserveAspectRatio="none"
   x="0px"
   y="0px"
   width="167.21773"
   height="184.78789"
   viewBox="0 0 167.21773 184.78789"
   id="svg2"
   inkscape:version="0.48.4 r9939"
   sodipodi:docname="avestruz.svg">
  <metadata
     id="metadata40">
    <rdf:RDF>
      <cc:Work
         rdf:about="">
        <dc:format>image/svg+xml</dc:format>
        <dc:type
           rdf:resource="http://purl.org/dc/dcmitype/StillImage" />
        <dc:title />
      </cc:Work>
    </rdf:RDF>
  </metadata>
  <sodipodi:namedview
     pagecolor="#ffffff"
     bordercolor="#666666"
     borderopacity="1"
     objecttolerance="10"
     gridtolerance="10"
     guidetolerance="10"
     inkscape:pageopacity="0"
     inkscape:pageshadow="2"
     inkscape:window-width="1600"
     inkscape:window-height="876"
     id="namedview38"
     showgrid="false"
     fit-margin-top="0"
     fit-margin-left="0"
     fit-margin-right="0"
     fit-margin-bottom="0"
     inkscape:zoom="2.0533775"
     inkscape:cx="-9.6283265"
     inkscape:cy="92.865556"
     inkscape:window-x="0"
     inkscape:window-y="1"
     inkscape:window-maximized="1"
     inkscape:current-layer="svg2" />
  <defs
     id="defs4">
    <g
       id="avestruz_0_Layer0_0_FILL">
      <path
         d="m 1094.35,230.05 q -0.2432,-0.16953 -0.55,-0.2 0.6451,-7.12305 -1.4,-13.95 -0.014,-0.15352 -0.1,-0.3 -22.1152,-51.34668 -53.1,-63.3 -31.0404,-12.14824 -70.9,15.25 -8.80293,6.08828 -18.1,14.1 -4.94707,4.34062 -10.05,9.2 -1.27148,-1.79238 -3.05,-4.35 -0.16309,-0.2416 -0.5,-0.35 -0.2875,-0.10176 -0.6,0 -2.57559,0.77754 -3.2,3.3 -2.19531,-1.23555 -4.05,-3.2 -11.99531,-12.73086 -11.7,-30.35 0.0978,-6.82324 1.55,-13.45 3.8793,-17.07383 -5.8,-30.1 3.18926,-0.30664 4.95,-3.6 0.225,-0.33516 0.1,-0.75 -0.0803,-0.35137 -0.45,-0.55 -1.54609,-0.97031 -3.4,-1.25 -2.40059,-0.30918 -5.3,0.55 0.0381,-0.0828 0.05,-0.2 0.34082,-1.76855 -1.2,-4 -0.16855,-0.29551 -0.5,-0.4 -0.34062,-0.10703 -0.7,0 -4.12148,1.72656 -5.65,4.75 -0.85449,-1.10234 -2,-1.55 -1.93105,-0.825 -4.55,0.45 -0.27773,0.14453 -0.45,0.4 -0.13066,0.29473 -0.1,0.6 0.0391,0.31172 0.25,0.55 1.82344,2.09707 2.75,4.35 -4.73906,1.56855 -5.65,6.95 -0.25234,9.8e-4 -0.5,0 -2.70859,-0.024 -4.65,2.35 l 0,0.05 q -1.75488,2.24688 -1.75,5.4 -0.003,0.55273 0.05,1.05 0.006,0.26973 0.05,0.5 0.35156,2.22305 1.65,3.85 1.25996,1.57207 2.8,2.1 -3.86699,11.12598 -9.5,12.9 -0.2793,0.0805 -0.5,0.3 -0.18066,0.27949 -0.2,0.6 -0.008,0.32559 0.15,0.6 0.20176,0.26484 0.5,0.35 15.85195,6.05957 26.05,-7.85 l 0,-0.05 q 0.32305,-0.39727 0.6,-0.85 2.63047,2.2332 3.45,6.1 1.33594,6.43945 0.5,13 -0.85215,6.7748 -1.1,13.55 -0.25645,7.00156 0.6,13.7 0.86777,6.96738 3.65,13.45 l 0,-0.05 q 2.70352,6.44355 8.85,10 0.825,0.49687 1.6,0.9 -0.0816,0.21445 -0.1,0.45 -0.36777,2.38496 5.1,3.1 0.4,0.1 0.85,0.25 1.5,0.45 2.5,1.7 1.01113,0.98555 2.45,2.65 -2.07383,9.51211 5.45,15.95 l 0,0 q 2.98848,2.53496 5.3,2.05 1.64805,-0.17344 2.9,-1.75 1.00098,2.22793 2.8,3.75 2.62188,2.23613 6.3,2.25 0.41074,-0.004 0.7,-0.3 0.034,-0.0332 0.05,-0.1 2.1916,3.23086 6,5.25 0.0512,0.0375 0.05,0.05 1.91914,0.89336 3.9,0.95 l 0.05,0 q 0.73887,0.001 1.4,-0.05 5.88418,-0.44473 8.5,-5.7 1.89004,5.71777 6.55,10.05 l 0,0.05 q 1.39766,0.76055 3.15,1 5.83457,0.50391 8.2,-4.25 1.73359,2.69668 4.95,3.05 0.2986,0.024 0.55,-0.1 0.2596,-0.10527 0.4,-0.35 l 2.4,-3.35 q 0.7066,1.22734 1.6,2.2 0.028,0.18457 0.1,0.4 0.1422,0.37891 0.3,0.75 -0.015,0.15723 0,0.3 2.4773,10.50527 8.65,17.2 0.5,0.6 1,1.2 0.5,0.55 1,1.2 -0.35,1 -0.65,2 -0.2,0.75 -0.2,1.55 -0.05,1.3 0.85,1.8 1.0357,0.5918 2.1,0.45 0.5,-0.1 0.95,-0.2 1.8,-0.5 3.25,-1.55 l 4.7,2.2 q 0.142,0.0502 0.25,0.1 0.2723,17.88418 -8.25,37 -11.5619,-2.53203 -18.95,-1.45 -3.17324,0.52227 -5.6,1.7 -0.0525,0.032 -0.15,0.05 -1.77109,1.3084 -0.85,2.45 0.32617,0.81836 2.35,1.3 1.30234,0.31074 3.55,0.5 -4.0748,1.18262 -6.4,2.45 -3.45137,1.88457 -2.95,3.95 0.0572,0.1418 0.1,0.25 1.07559,2.34961 7.5,1.25 -2.36973,1.84043 -1.7,3.35 l 0,0 q 0.57578,1.71641 2.95,1.9 0.8715,0.0731 2.05,-0.15 -0.125,0.3418 -0.15,0.6 -0.183,1.01211 0.55,1.55 0.442,0.45371 1.45,0.55 1.5021,0.16094 4.8,-0.6 -2.8395,2.4082 -4.6,5.45 -0.049,0.14336 -0.1,0.3 -0.2074,1.11172 0.35,1.7 0.465,0.61309 1.6,0.7 1.3607,0.11973 4.3,-0.9 2.9184,-0.98066 7.45,-3.1 -2.1955,1.88359 -3.25,3.15 -1.8256,2.22715 -0.95,3.3 0.4686,1.24297 3.3,1 0.1775,-0.0164 0.3,-0.1 9.9943,-3.95723 18.3,-15.15 l 0.05,-0.05 q 6.1107,0.79395 6.65,-3.65 l 0.05,0 q 0.4213,-2.8625 -1.4,-3.6 -1.0262,-0.59434 -3,-0.2 2.3287,-23.04863 12.05,-47.3 3.1133,-1.28203 4,-3.15 1.152,-2.06094 -0.45,-4.75 l 0,0 q -0.8664,-1.51875 -2,-2.85 0.1473,-0.0596 0.25,-0.2 2.5146,-3.34492 1.45,-4.7 -0.3982,-1.01387 -2.1,-1.1 1.4752,-2.36797 1.9,-5.2 l 0,-0.05 q 0.047,0.007 0.05,0 2.7416,2.04043 5.85,2.95 l 0,0 q 4.882,1.38203 10,0.6 l -0.1,0 q 5.3254,-0.44121 6.4,-4.3 0.2857,-1.03613 0.25,-2.4 4.1268,-0.56328 4.7,-5.1 3.4596,1.99336 7.05,0.65 l -0.05,0 q 1.7133,-0.56328 2.05,-2.45 l 0,-0.05 q 0.2596,-1.22852 0.1,-2.55 4.9949,1.3709 7.4,-3.05 l 0,0 q 0.7646,-1.22559 0.65,-2.85 l 0,-0.05 q -0.1252,-2.78066 -2,-4.35 m -55.85,-75.9 q 19.8684,7.77715 36.05,32.15 5.623,8.49805 10.8,18.95 2.5936,5.27383 5.05,11 2.1898,6.84102 1.9,10.7 -0.2367,3.86055 -0.05,4.1 l 0.05,0 q 0.5834,0.43457 0.75,0.55 1.2168,1.07344 1.3,2.95 l 0,0 q 0.079,0.98516 -0.35,1.7 l -0.05,0.05 q -2.0414,3.5457 -6.55,1.6 -0.2098,-0.0644 -0.45,-0.05 l -0.7,4.7 0,0 q -0.1238,0.71738 -0.75,0.95 l 0,0 q -2.8045,1.04473 -5.5,-0.6 -0.3584,-0.31211 -0.65,-0.65 -1.6172,-1.67715 -1.35,-3.4 -1.3566,2.12109 0,4.2 l 0,0.05 q -0.709,4.25254 -4.1,4.4 -1.6965,-4.84746 -5.8,-7.85 l -2.1,-1.35 0.7,0.55 q 0.2492,0.20117 0.5,0.4 2.9914,2.84687 5.15,9.85 l 0,0.05 q 0.068,0.24414 0.1,0.5 0.1055,2.94805 -2,4.1 -1.0812,0.65859 -2.8,0.8 -0.01,-0.001 -0.05,0 -4.682,0.71797 -9.15,-0.55 l 0,0.05 q -2.802,-0.84375 -4.55,-2.35 1.4252,-1.7125 0.95,-3.45 0.1277,-0.16406 0.15,-0.35 -0.1156,0.20488 -0.25,0.4 -1.5777,2.68066 -2.95,2.85 l -0.8,0.15 q -0.073,-0.0307 -0.15,-0.05 -0.2502,0 -0.45,0.1 -0.06,-7.8e-4 -0.15,0 -2.25,0.05 -4.1,-1.5 -0.5,-0.45 -0.95,-0.9 l -0.05,-1.35 q 0.016,-0.0158 0,-0.05 l 0,0.05 q 0.6826,-2.19316 0.65,-4.35 0.028,-1.1332 -0.2,-2.25 -0.012,-0.27695 -0.1,-0.55 0.028,-0.0105 0,-0.05 -0.3502,1.3916 -0.65,2.45 l 0,0.05 q -0.941,3.19453 -1.3,3.75 -0.4314,0.79531 -0.55,1.15 -0.2273,0.4043 -0.55,0.8 -1.3,1.05 -2.65,2.05 -0.55,0.4 -1.1,0.75 -2.0381,0.20469 -5.45,-2.25 l 0,-0.05 q -0.3109,-0.31348 -0.55,-0.65 l -1.65,-2.1 -1.65,-2.05 q -0.01,0.20078 0.05,0.4 l 1.3,4.25 q -0.1848,1.44961 -1,2 -0.9998,0.55098 -2.8,0.05 -2.8221,-0.67012 -5.2,-2.35 l 0,-0.05 q -1.4715,-0.99336 -2.35,-2.05 -0.053,0.64668 -0.5,1.6 -0.4049,0.91191 -0.8,1.45 -0.3408,0.50234 -0.7,0.7 -0.6711,0.39687 -0.85,0.4 -2.4947,0.5791 -4.6,0.15 -1.549,-0.29336 -2.85,-1 -1.151,-0.61387 -2.1,-1.55 l 0,0.05 -0.05,-0.05 q -1.3682,-1.39883 -2.25,-3.45 -0.057,-0.19375 -0.2,-0.35 l -4.5,4.4 q -3.24082,0.2668 -6.55,-6.9 l 0.75,3.3 q -2.1,7.95 -8.85,4.4 l 0,0 0,0 q -3.30742,-3.06758 -5.45,-6.95 -1.2209,-2.30684 -2.05,-4.9 -0.49277,0.80566 -2.85,3.3 -0.20332,0.24258 -0.4,0.45 -3.11328,3.06562 -7.05,3.25 l 0,0 q -1.55391,-0.048 -3.05,-0.75 3.9e-4,0.0119 -0.05,0 -6.25293,-3.3752 -7.5,-10.3 0.002,-0.11875 -0.05,-0.25 -0.0437,0.10918 -0.1,0.2 -0.69805,2.03906 -0.2,5.25 -2.79121,-0.0453 -4.8,-1.75 -2.06953,-1.77422 -2.8,-4.7 -0.78848,-3.7502 0,-7.35 -7.8e-4,-0.0816 -0.05,-0.15 -0.009,0.0633 -0.05,0.1 -1.8209,3.48867 -1.9,7.3 -1.06777,2.03711 -2.5,2.35 -1.5875,0.16602 -3.7,-1.65 l 0,0.05 -0.05,-0.05 q -6.77188,-5.81582 -4.6,-14.5 0.093,-0.27637 0,-0.55 -0.0846,-0.28223 -0.3,-0.5 l -2.35,-1.9 q -0.3,-0.4 -0.6,-0.85 -1.4,-1.7 -2.15,-3.7 -0.23223,-0.53105 -0.45,-1.1 2.80488,-0.12012 3.9,-1 0.56211,-0.42285 0.8,-0.7 0.3002,-0.2748 0.25,-0.4 -0.1,-0.16875 -0.35,-1.3 -0.24961,-1.12363 0.4,-2.1 0.69688,-0.69805 2.15,-0.55 1.85801,0.38184 2.45,-1.9 l 0,0 q 0.72305,-2.51289 -0.2,-4.6 2.82148,-2.04531 2.85,-4.5 0.0139,-0.99785 0,-1.55 0.96621,-0.8748 1.9,-1.75 12.99102,-12.2043 25,-20.5 38.8396,-26.70156 69.05,-15.05 m -30.65,97.3 q 0.1756,0.0951 0.3,0.15 1.549,0.84336 3.4,1.2 0.6104,0.14629 1.25,0.2 1.64,0.13594 3.45,-0.2 0.043,0.13711 0.1,0.25 4.7949,9.29297 12.8,14.9 0.2584,0.20039 0.5,0.35 l 1.65,1.25 -1.85,0 q 0.882,0.95977 0.6,1.55 -0.2906,0.5834 -0.8,1.15 -0.5041,0.56836 -2.35,0.15 -1.0732,-0.16504 -3.7,-1.05 0.2758,1.23711 -1.8,2.3 -1.2203,0.64395 -2.1,0.85 -1.4787,0.33594 -1.95,-0.55 -0.024,-1.12109 0.15,-1.65 0.1678,-0.53418 0.4,-1.25 0.2939,-0.65527 0.8,-1.6 l -2.35,-2.15 q -5.8986,-6.05645 -8.4,-15.6 -0.042,-0.12344 -0.1,-0.25 m 41.8,1.8 0,0.05 q -0.367,1.57031 -1.1,3 l -1.8,3.4 1.45,0.2 q 1.8586,0.14941 2.3,0.45 0.079,0.44707 -0.8,1.7 l -0.25,0.45 q -1.4943,1.10762 -3.5,0.25 -0.1354,-0.0441 -0.3,-0.15 l 0,0.05 q 0.1473,0.39414 0.1,0.65 -0.6135,4.11016 -1.8,4.9 -0.951,0.29375 -2.8,-2.05 -0.074,-0.10293 -0.2,-0.2 -0.01,0.0365 -0.05,0.05 -0.2896,1.04746 -2,3.9 -2.0037,3.48203 -3.15,2.4 -0.7801,-0.73145 -0.75,-2.9 0.01,-0.86289 0.15,-1.95 l -1.25,1.15 -0.75,-0.45 q -1.3605,-0.78809 -2.65,-1.7 -7.7283,-5.35195 -12.35,-14.3 0.1162,-0.0744 0.2,-0.2 0.9334,-0.74102 1.4,-2.4 0.3934,0.39121 0.85,0.7 l 0,0 0,0 q 2.6721,1.92012 5.85,2.7 2.801,0.74922 4.35,-0.3 0.9639,-0.51133 1.45,-1.65 2.7139,2.72539 6.4,2.9 1.6,0.15 2.95,-0.8 1.05,-0.65 2.05,-1.35 0.9613,0.48066 1.9,0.8 2.0373,0.70801 4,0.7 0.059,0.0281 0.1,0 m -16.75,18 0.8,0.05 q 0.05,0.35 0.15,0.7 0.55,2.1 2.8,2.45 -6.4189,20.43906 -11.3,41.15 -0.1857,0.76523 -0.4,1.5 -0.072,0.4791 -0.2,0.9 -0.05,0.31641 0.05,0.6 0.1176,0.27695 0.35,0.45 0.2611,0.1832 0.55,0.2 0.6664,0.10293 1.2,0.95 l 0,0 q 0.3951,0.69199 0.6,1.55 0.041,0.31758 0.05,0.6 -1.3725,0.0174 -2.75,0.1 -9.2496,0.48672 -17.9,4.45 -1.1021,0.53203 -2.2,1.1 -0.04,0.0217 -0.1,0.05 -0.5996,0.33828 -1.25,0.65 -0.079,0.0846 -0.2,0.15 -2.4162,0.74473 -3.85,0.65 -0.93008,-0.067 -1.25,-0.6 l 0,-0.05 q -0.38945,-1.38828 4.5,-3.95 0.8691,-0.42402 1.6,-0.9 1.7004,-1.01836 2.75,-2.1 -0.2262,-0.0246 -0.45,0.05 -1.4471,0.46582 -2.75,0.85 -9.99961,2.98828 -11.45,1.4 0.0535,-1.16934 3.25,-2.5 3.6418,-1.43828 11.4,-3.1 0.2717,-0.0283 0.45,-0.2 -0.8766,-0.11094 -2.25,-0.35 -0.2674,-0.0516 -0.55,-0.1 -4.4764,-0.81016 -6.4,-1.45 -2.00684,-0.69258 -2.3,-0.8 2.06816,-0.88457 4.7,-1.3 7.301,-1.14941 19.1,1.5 0.3758,0.10684 0.7,-0.05 0.3113,-0.16836 0.45,-0.5 9.2074,-20.31914 8.75,-39.3 l 0,-0.05 -0.4,-0.7 -3.5,-1.65 q 2.8732,0.82324 4.35,0.25 1.3221,-0.51328 2.1,-2.55 l 0.8,-0.1 m 7.05,0.05 q 0.7154,-1.29258 1.05,-2.35 2.2307,2.1 3.9,1 1.842,-0.78008 2.7,-5.45 0.165,-0.003 0.35,-0.05 0.01,0.031 0,0 1.6381,1.62246 2.8,3.65 l 0.05,0 q 0.1775,0.30156 0.3,0.6 0.5412,1.24355 0.05,2.25 -0.7576,1.36738 -3.35,2.35 -0.1602,0.10312 -0.3,0.25 -0.1469,0.14043 -0.25,0.3 -5.0717,12.62402 -8.2,24.9 -1.0152,4.03906 -1.85,8 -0.01,0.18555 -0.05,0.35 -1.5771,7.93594 -2.35,15.75 -0.016,0.37617 -0.05,0.75 -0.034,0.35137 0.15,0.65 0.1934,0.28809 0.5,0.4 0.3514,0.11211 0.65,0 2.0787,-0.70352 2.95,-0.4 0.4805,0.39961 0.3,1.55 l 0,0 q -0.5729,2.64121 -5,1.9 -0.2709,-0.0269 -0.55,0.05 -0.235,0.12793 -0.4,0.35 -1.35,1.84609 -2.75,3.5 -0.2988,0.35527 -0.6,0.7 -0.1641,0.1877 -0.35,0.35 -6.4979,7.34375 -14,10.4 -1.3275,0.4793 -1.3,0 0.1119,-0.19219 2.3,-3 1.0566,-1.31035 2.15,-2.55 1.2389,-1.2584 2.5,-2.4 2.4486,-2.15449 2.55,-2.7 l 0,-0.05 q -0.065,0.056 -0.15,0.1 -1.383,0.66406 -3.85,1.8 -5.7336,2.76582 -11.05,4.55 -2.4393,0.85215 -3.55,0.8 l -0.05,0 q 0.01,-0.0147 0,-0.05 1.1967,-1.90859 2.85,-3.55 2.5926,-2.53008 6.35,-4.4 0.026,0.0141 0.05,0 5.1246,-3.0918 7.5,-4.5 0.3668,-0.2166 0.65,-0.4 -0.207,-0.0315 -0.45,0 -3.6039,0.79414 -7.9,2.8 -0.3062,0.12832 -0.65,0.25 l 0,0 q -7.9002,2.50898 -10.35,2.3 -0.067,0.0178 -0.15,0 0.033,-0.0148 0.05,-0.05 0.2957,-0.53027 1.2,-1.45 0.5779,-0.35 1.2,-0.75 l 0.05,0 q 1.9699,-1.01992 3.95,-1.85 0.1604,-0.0674 0.3,-0.15 6.9988,-2.80703 14.4,-3.35 2.3686,-0.12559 4.75,-0.05 0.3701,0.0115 0.65,-0.2 0.2844,-0.21152 0.35,-0.55 l 13.1,-50.3 q 0.125,-0.39336 -0.1,-0.75 -0.1699,-0.34297 -0.55,-0.45 -1.2605,-0.3793 -2.5,-0.85 m -0.85,1.85 q 0.9127,0.33105 1.8,0.6 l -12,46.05 q -0.1178,-0.29668 -0.3,-0.6 l 0,-0.05 q -0.7342,-1.18828 -1.65,-1.65 5.207,-22.33047 12.15,-44.35 M 887.4,122.25 q 1.18164,-1.46172 2.8,-1.6 0.12109,0.002 0.25,0 0.48691,-0.003 0.95,0.1 0.0328,0.0365 0.05,0.05 l 0.05,0 0.05,0 q 1.0627,0.42617 1.9,1.45 0.53359,0.67715 0.85,1.45 0.0148,0.0492 0,0.05 -0.0488,0.0272 -0.15,0.05 l -4.55,1.25 -0.05,0.05 -0.05,0 -1.7,0.5 -1.75,0.5 q 0.10352,-2.2123 1.35,-3.85 l -0.05,0 0.05,0 m 1.6,5.05 q 0.23945,0.84395 0.9,1.5 1.04082,1.04785 2.5,1.05 1.03242,-0.002 1.85,-0.55 -0.30449,0.72266 -0.8,1.3 -1.24746,1.61055 -3,1.7 l -0.05,0 q -1.74883,-0.085 -3.05,-1.7 -0.83008,-1.06777 -1.15,-2.5 l 2.8,-0.8 m -6.85,20.35 q -0.0135,0.003 -0.05,0 5.01074,-3.12539 8.55,-13.35 1.42949,-0.0623 2.65,-0.85 0.92246,-0.56973 1.7,-1.6 1.78965,-2.16563 1.85,-5.4 l 0,-0.05 q -0.048,-0.87598 -0.15,-1.65 l 0,-0.05 q -0.01,-0.0373 -0.05,-0.1 -0.025,-0.2 -0.1,-0.4 -5.9e-4,-0.10039 -0.05,-0.2 -0.0549,-0.26797 -0.15,-0.55 -0.46035,-1.34512 -1.35,-2.45 -0.95742,-1.18789 -2.15,-1.8 0.79492,-4.88984 5.9,-5.9 0.20859,-0.0176 0.35,-0.15 0.008,-0.0209 0,-0.05 -0.1541,-0.1834 -0.35,-0.5 -0.0607,-0.0978 -0.15,-0.25 -0.2043,-0.36074 -0.5,-1 -0.0533,-0.0861 -0.1,-0.2 -0.69609,-1.4666 -1.75,-4 0.95801,-0.20273 1.7,0.05 0.1416,0.0775 0.25,0.15 1.10566,0.61758 1.85,2.35 0.0654,0.09 0.1,0.15 0.24551,-0.34551 0.55,-0.8 1.58848,-2.37539 4.4,-4.05 0.60117,-0.31172 1.25,-0.65 0.52559,1.06016 0.4,1.9 -0.16621,0.91094 -1.1,1.6 -0.18711,0.16621 -0.4,0.3 -0.18262,0.11836 -0.3,0.3 0.0617,0.0393 0.1,0.05 l 0.05,0.05 q 1.47344,0.79687 3.8,-0.15 2.11309,-0.86367 4.65,-0.3 0.93984,0.21875 1.9,0.6 -2.03574,2.37969 -4.7,2.75 -0.48945,0.073 -0.9,0.1 -0.052,0.0187 -0.15,0 0.0875,0.22559 0.2,0.4 1.47285,1.74629 2.65,3.55 0.55762,0.88945 1.05,1.75 0.49902,0.8873 0.9,1.75 0.0426,0.035 0.05,0.05 4.98145,10.29512 2.1,22.95 -1.49785,6.82305 -1.6,13.85 -0.30469,18.43086 12.25,31.75 0.69941,0.74141 1.4,1.35 0.83066,0.73945 1.7,1.35 -1.52969,0.58555 -2.35,3.3 -0.77227,2.77187 -0.55,5.6 -1.73125,-1.90938 -4.35,-2.55 -0.23965,-0.0398 -0.5,0.05 -0.26738,0.0863 -0.45,0.3 -0.19492,0.21758 -0.25,0.5 -1.03008,6.56367 3.25,10.5 -0.41152,0.35703 -0.75,0.7 -0.0981,0.0957 -0.2,0.2 -0.76992,-0.43613 -1.6,-0.95 -5.55371,-3.19375 -8,-9 l 0,0 q -1.81445,-4.24727 -2.8,-8.7 -0.0184,-0.0998 -0.05,-0.2 0.003,-0.0584 0,-0.15 -0.40645,-1.87695 -0.65,-3.85 -0.23828,-1.83301 -0.4,-3.75 l 0,0 q 0,-0.0463 0,-0.1 -0.17969,-2.26602 -0.25,-4.55 -0.0391,-2.47617 0.05,-5 0.10527,-2.77617 0.3,-5.6 l 0.05,-0.8 q 0.10703,-0.95879 0.2,-1.95 0.2332,-2.49102 0.55,-5 0.86406,-6.88945 -0.55,-13.65 -0.99785,-4.75918 -4.3,-7.4 0.64375,-1.74902 -0.3,-3.3 -0.0344,-0.0387 -0.1,-0.1 -0.0141,-0.0602 -0.05,-0.15 l -0.05,-0.05 q -0.17363,0.20762 -0.25,0.45 -0.0795,0.28418 -0.25,0.6 -0.33711,0.89355 -1.15,2.25 -9.8e-4,0.0617 -0.05,0.1 -0.54062,0.79766 -1.1,1.6 l -0.05,0 q -8.48418,11.61641 -21.3,8 m 46.9,47.75 q 0.0182,-0.0945 0.05,-0.2 0.3293,-1.86738 1.45,-2.85 1.1877,-1.04238 1.7,-0.8 0.40254,1.85156 1.85,3.35 0.13164,0.1541 0.25,0.25 0.26191,0.25508 0.5,0.45 0.31406,0.26035 0.55,0.45 0.004,-0.0664 -0.1,-0.45 -0.18496,-0.5709 -0.65,-1.85 -0.20508,-0.66426 -0.3,-1.3 -0.14922,-1.29336 0.4,-2.35 0.85391,-1.48926 1.3,-1.55 1.87617,2.65918 3.1,4.4 l 0.05,0.05 q 0.16445,0.2209 0.4,0.3 0.30625,0.13359 0.6,0.05 0.28594,-0.026 0.5,-0.25 0.056,-0.0289 0.1,-0.1 -0.016,0.0863 -0.05,0.15 -0.18379,0.68496 -0.6,1.3 -0.78965,1.15469 -2.35,2.05 0.10176,0.12734 0.75,1.6 0.37461,0.88086 0.25,2.25 l 0,0.05 q -0.0967,0.99141 -0.45,2.25 -3.41035,-0.94023 -4.6,0.65 -0.40176,0.49141 -0.5,1.15 -0.15645,1.13828 0.6,2.85 -2.35352,0.90098 -4.75,0.75 -0.6418,2.1 0,4.2 l -0.8,-0.1 q -2.80957,-0.36914 -3.15,-0.9 -0.19844,-0.4998 0.4,-1.2 0.65469,-0.69629 1.25,-1 0.63262,-0.26484 0.65,-0.3 -0.45684,-0.4916 -1.1,-1.2 -2.23477,-2.59375 -2.55,-6.25 -0.0853,-1.0998 0,-2.3 3.59961,1.29277 4.9,2.8 0.14922,0.16113 0.25,0.3 0.24629,0.34141 0.4,0.6 0.035,-0.0855 -0.05,-0.65 -0.0158,-0.42813 -0.15,-1.2 -0.40312,-3.39824 -0.1,-5.45 m -17.2,-5.15 q -0.0104,-0.1582 -0.05,-0.35 0.003,0.0916 0,0.15 0.0316,0.1002 0.05,0.2 m 1.6,-72.9 q -0.48965,-0.87734 -1.15,-1.7 -2.64238,-3.27031 -6.4,-3.25 -3.80977,-0.0176 -6.5,3.25 -2.54902,3.18164 -2.55,7.65 0,0.0883 0,0.15 0,0.0627 0,0.1 -0.0254,0.16367 0,0.3 0.006,0.17637 0,0.3 0.0381,0.28984 0.05,0.55 l 0,0 q 0.0947,0.90586 0.3,1.7 l 0,0.05 q 0.59277,2.48477 2.2,4.4 l 0,0.05 0,-0.05 q 0.54922,0.67363 1.2,1.2 1.7248,1.36191 4.35,1.85 0.55469,0.10703 1.15,0.15 0.13652,0.0373 0.25,0.05 0.0908,0.007 0.15,0 0.22578,0.0363 0.45,0.05 l -0.35,-0.2 q 0.19551,0.10449 0.3,0.15 3.12891,-0.3832 5.4,-3.25 2.60176,-3.07813 2.6,-7.55 -7.8e-4,-2.2252 -0.65,-4.15 -0.32891,-0.92637 -0.8,-1.8 m -2.15,0.35 0.8,1.15 -4.6,1.2 q 0.004,0.0412 -0.05,0.05 l 0,-0.05 -6.65,1.8 -1.95,0.5 q 0.26758,-3.11523 2.1,-5.45 1.6791,-2.01348 3.9,-2.4 0.50937,-0.0967 1.05,-0.1 2.84238,0.0201 4.85,2.5 0.32109,0.4 0.55,0.8 m -3.75,6.9 q 1.04082,1.04785 2.5,1.05 1.45918,-0.002 2.5,-1.05 0.1709,-0.16973 0.3,-0.35 0.009,0.20273 -0.05,0.4 -0.29766,2.8623 -2.05,4.95 -1.60176,2.0248 -3.75,2.45 -0.26699,0.0916 -0.55,0.1 -0.25977,0.042 -0.55,0.05 l -0.05,0 q -2.84668,-0.0818 -4.9,-2.6 l 0,0 q -1.7707,-2.16016 -2.05,-5.15 l 7.6,-2.05 q 0.12305,1.2791 1.05,2.2 z"
         id="path7"
         inkscape:connector-curvature="0"
         style="fill:#000000;stroke:none" />
      <path
         d="m 923.8,199 q -0.0853,1.2002 0,2.3 2.45,-0.05 4.9,0.5 -1.30039,-1.50723 -4.9,-2.8 m 15,1.35 q 0.12461,-1.36914 -0.25,-2.25 -0.64824,-1.47266 -0.75,-1.6 -0.44316,2.16641 1,3.85 m -0.45,2.3 q 0.35332,-1.25859 0.45,-2.25 -4.61504,-0.15098 -5.4,2.8 -0.14199,0.56934 -0.15,1.25 0.0982,-0.65859 0.5,-1.15 1.18965,-1.59023 4.6,-0.65 m 2.4,-9.5 -0.05,-0.05 q -0.21406,0.22402 -0.5,0.25 -0.29375,0.0836 -0.6,-0.05 -0.23555,-0.0791 -0.4,-0.3 0.05,1.65 0.95,1.45 0.41621,-0.61504 0.6,-1.3 m -4.7,-4.6 q -0.44609,0.0607 -1.3,1.55 -0.54922,1.05664 -0.4,2.35 1.95449,-1.82988 4.8,0.5 -1.22383,-1.74082 -3.1,-4.4 m -5.5,3.8 q -1.1207,0.98262 -1.45,2.85 1.77305,-2.82383 5,-0.3 -1.44746,-1.49844 -1.85,-3.35 -0.5123,-0.24238 -1.7,0.8 m 119.1,60.95 -0.1,-0.05 q -1.9627,0.008 -4,-0.7 0.7465,2.92969 0.4,5.85 -0.3,2.85 -3.1,2.7 0.25,0.35 0.45,1.2 0.45,2.05 -1.65,2.05 -1.9,-0.05 -2.35,1.75 -0.8,3.15 -4.3,3.3 -0.03,2.16855 0.75,2.9 1.1463,1.08203 3.15,-2.4 1.7104,-2.85254 2,-3.9 0.04,-0.0135 0.05,-0.05 0.126,0.0971 0.2,0.2 1.849,2.34375 2.8,2.05 1.1865,-0.78984 1.8,-4.9 0.047,-0.25586 -0.1,-0.65 l 0,-0.05 q 0.1646,0.10586 0.3,0.15 2.0057,0.85762 3.5,-0.25 l 0.25,-0.45 q 0.8793,-1.25293 0.8,-1.7 -0.4414,-0.30059 -2.3,-0.45 l -1.45,-0.2 1.8,-3.4 q 0.733,-1.42969 1.1,-3 m -33.3,-0.25 q -0.057,-0.11289 -0.1,-0.25 -1.81,0.33594 -3.45,0.2 0.45,2.9 1.95,5.25 1.6,2.55 3.35,4.9 1.9,2.5 4.05,3.75 -0.55,1.05 -1.4,2.65 -0.9,1.6 -1.4,3.45 -0.35,1.25 -0.05,1.5 0.8797,-0.20605 2.1,-0.85 2.0758,-1.06289 1.8,-2.3 2.6268,0.88496 3.7,1.05 1.8459,0.41836 2.35,-0.15 0.5094,-0.5666 0.8,-1.15 0.282,-0.59023 -0.6,-1.55 l 1.85,0 -1.65,-1.25 q -0.2416,-0.14961 -0.5,-0.35 -8.0051,-5.60703 -12.8,-14.9 z"
         id="path9"
         inkscape:connector-curvature="0"
         style="fill:#cccccc;stroke:none" />
      <path
         d="m 940.8,193 q -0.0439,0.0711 -0.1,0.1 l 0.05,0.05 q 0.034,-0.0637 0.05,-0.15 m -11.7,2.2 q -0.0318,0.10547 -0.05,0.2 -0.30312,2.05176 0.1,5.45 0.13418,0.77187 0.15,1.2 0.085,0.56445 0.05,0.65 -0.15371,-0.25859 -0.4,-0.6 -0.10078,-0.13887 -0.25,-0.3 -2.45,-0.55 -4.9,-0.5 0.31523,3.65625 2.55,6.25 0.64316,0.7084 1.1,1.2 -0.0174,0.0352 -0.65,0.3 -0.59531,0.30371 -1.25,1 -0.59844,0.7002 -0.4,1.2 0.34043,0.53086 3.15,0.9 l 0.8,0.1 q -0.6418,-2.1 0,-4.2 2.39648,0.15098 4.75,-0.75 -0.75645,-1.71172 -0.6,-2.85 0.008,-0.68066 0.15,-1.25 0.78496,-2.95098 5.4,-2.8 l 0,-0.05 q -1.44316,-1.68359 -1,-3.85 1.56035,-0.89531 2.35,-2.05 -0.9,0.2 -0.95,-1.45 l -0.05,-0.05 q -2.84551,-2.32988 -4.8,-0.5 0.0949,0.63574 0.3,1.3 0.46504,1.2791 0.65,1.85 0.10371,0.38359 0.1,0.45 -0.23594,-0.18965 -0.55,-0.45 -0.23809,-0.19492 -0.5,-0.45 -0.11836,-0.0959 -0.25,-0.25 -3.22695,-2.52383 -5,0.3 m -19.05,-69.55 q -1.45918,-0.002 -2.5,-1.05 -0.92695,-0.9209 -1.05,-2.2 l -7.6,2.05 q 0.2793,2.98984 2.05,5.15 l 0,0 q 2.05332,2.51816 4.9,2.6 l 0.05,0 q 0.29023,-0.008 0.55,-0.05 0.28301,-0.008 0.55,-0.1 2.14824,-0.4252 3.75,-2.45 1.75234,-2.0877 2.05,-4.95 l -0.25,-0.05 q -1.04082,1.04785 -2.5,1.05 m -20.15,3.15 q -0.66055,-0.65605 -0.9,-1.5 l -2.8,0.8 q 0.31992,1.43223 1.15,2.5 1.30117,1.61504 3.05,1.7 l 0.05,0 q 1.75254,-0.0894 3,-1.7 0.49551,-0.57734 0.8,-1.3 -0.81758,0.54844 -1.85,0.55 -1.45918,-0.002 -2.5,-1.05 m 155.65,123.75 q -0.9387,-0.31934 -1.9,-0.8 -1,0.7 -2.05,1.35 -1.35,0.95 -2.95,0.8 -3.6861,-0.17461 -6.4,-2.9 -0.4861,1.13867 -1.45,1.65 -1.549,1.04922 -4.35,0.3 -3.1779,-0.77988 -5.85,-2.7 l 0,0 0,0 q -0.4566,-0.30879 -0.85,-0.7 -0.4666,1.65898 -1.4,2.4 -0.084,0.12559 -0.2,0.2 4.6217,8.94805 12.35,14.3 1.2895,0.91191 2.65,1.7 l 0.75,0.45 1.25,-1.15 q -0.1426,1.08711 -0.15,1.95 3.5,-0.15 4.3,-3.3 0.45,-1.8 2.35,-1.75 2.1,0 1.65,-2.05 -0.2,-0.85 -0.45,-1.2 2.8,0.15 3.1,-2.7 0.3465,-2.92031 -0.4,-5.85 m 4,0.7 0.1,0.05 0,-0.05 q -0.041,0.0281 -0.1,0 m -41.4,-1.65 -0.2,0.1 q 2.5014,9.54355 8.4,15.6 l 2.35,2.15 q -0.5061,0.94473 -0.8,1.6 -0.2322,0.71582 -0.4,1.25 -0.1736,0.52891 -0.15,1.65 0.4713,0.88594 1.95,0.55 -0.3,-0.25 0.05,-1.5 0.5,-1.85 1.4,-3.45 0.85,-1.6 1.4,-2.65 -2.15,-1.25 -4.05,-3.75 -1.75,-2.35 -3.35,-4.9 -1.5,-2.35 -1.95,-5.25 -0.6396,-0.0537 -1.25,-0.2 -1.851,-0.35664 -3.4,-1.2 z"
         id="path11"
         inkscape:connector-curvature="0"
         style="fill:#ffffff;stroke:none" />
      <path
         d="m 910.85,172.65 -0.3,0 q -0.0891,2.52383 -0.05,5 0.0703,2.28398 0.25,4.55 0,0.0537 0,0.1 l 0,0 q 0.16172,1.91699 0.4,3.75 0.24355,1.97305 0.65,3.85 0.0397,0.1918 0.05,0.35 0.98555,4.45273 2.8,8.7 l 0,0 q 2.44629,5.80625 8,9 0.83008,0.51387 1.6,0.95 0.10195,-0.1043 0.2,-0.2 0.33848,-0.34297 0.75,-0.7 -4.28008,-3.93633 -3.25,-10.5 0.0551,-0.28242 0.25,-0.5 0.18262,-0.21367 0.45,-0.3 0.26035,-0.0898 0.5,-0.05 2.61875,0.64062 4.35,2.55 -0.22227,-2.82813 0.55,-5.6 0.82031,-2.71445 2.35,-3.3 -0.86934,-0.61055 -1.7,-1.35 -0.35,0.6 -0.7,1.4 -0.4,1.1 -1.4,1.65 -1.55,0.95 -2.2,2.5 -0.8,2 -2.55,0.65 -0.8,-0.65 -1.85,-0.7 -0.6,0 -1.2,0.75 -0.6,1.55 -0.4,3.2 -6.81152,-13.06367 -7.55,-25.75 m -13.65,-46.2 -0.35,0 q -0.0603,3.23437 -1.85,5.4 -0.77754,1.03027 -1.7,1.6 -0.63633,4.81895 -3.9,9.05 9.08047,-2.85195 11.2,-10.45 -0.65078,-0.52637 -1.2,-1.2 l 0,0.05 0,-0.05 q -1.60723,-1.91523 -2.2,-4.4 m 8.6,9.25 q 0.17051,-0.31582 0.25,-0.6 0.0764,-0.24238 0.25,-0.45 l 0.05,0.05 0.15,-0.6 q -0.0592,0.007 -0.15,0 -0.11348,-0.0127 -0.25,-0.05 -0.59531,-0.043 -1.15,-0.15 -7.12441,15.64902 -22.8,13.75 12.81582,3.61641 21.3,-8 l 0.05,0 q 0.55938,-0.80234 1.1,-1.6 0.049,-0.0383 0.05,-0.1 0.81289,-1.35645 1.15,-2.25 M 898,111.15 q -0.46758,-2.32539 0.2,-3.8 -0.1084,-0.0725 -0.25,-0.15 -0.74199,-0.25273 -1.7,-0.05 1.05391,2.5334 1.75,4 m 7.1,-6.15 q 1.1459,0.34121 0.55,2.85 0.93379,-0.68906 1.1,-1.6 0.12559,-0.83984 -0.4,-1.9 -0.64883,0.33828 -1.25,0.65 m 10.35,3.7 q -0.96016,-0.38125 -1.9,-0.6 -0.26934,0.74258 -0.8,1.45 -1.11035,1.44824 -2.9,2 0.41055,-0.0269 0.9,-0.1 2.66426,-0.37031 4.7,-2.75 z"
         id="path13"
         inkscape:connector-curvature="0"
         style="fill:#fda2a2;stroke:none" />
      <path
         d="m 898.85,122.35 1.95,-0.5 q -0.78867,-4.07695 4.05,-7.35 -2.2209,0.38652 -3.9,2.4 -1.83242,2.33477 -2.1,5.45 m -11.45,-0.1 0,0 q -1.24648,1.6377 -1.35,3.85 l 1.75,-0.5 q -0.76094,-2.63184 2.4,-4.95 -1.61836,0.13828 -2.8,1.6 z"
         id="path15"
         inkscape:connector-curvature="0"
         style="fill:#fe7676;stroke:none" />
      <path
         d="m 912.1,118.85 -0.8,-1.15 q -0.22891,-0.4 -0.55,-0.8 -2.00762,-2.47988 -4.85,-2.5 -0.54063,0.003 -1.05,0.1 -4.83867,3.27305 -4.05,7.35 l 6.65,-1.8 0.05,0 4.6,-1.2 m -21.65,1.8 q -0.12891,0.002 -0.25,0 -3.16094,2.31816 -2.4,4.95 l 1.7,-0.5 0.1,-0.05 4.55,-1.25 0.15,-0.1 q -0.31641,-0.77285 -0.85,-1.45 -0.8373,-1.02383 -1.9,-1.45 l -0.05,0 -0.05,0 q -0.0172,-0.0135 -0.05,-0.05 -0.46309,-0.10313 -0.95,-0.1 z"
         id="path17"
         inkscape:connector-curvature="0"
         style="fill:#fe8b8b;stroke:none" />
      <path
         d="m 912.75,109.55 q 0.53066,-0.70742 0.8,-1.45 -2.53691,-0.56367 -4.65,0.3 -2.32656,0.94687 -3.8,0.15 l -0.05,-0.05 q -0.0383,-0.0107 -0.1,-0.05 0.11738,-0.18164 0.3,-0.3 0.21289,-0.13379 0.4,-0.3 0.5959,-2.50879 -0.55,-2.85 -2.81152,1.67461 -4.4,4.05 -0.30449,0.45449 -0.55,0.8 -0.0346,-0.06 -0.1,-0.15 -0.74434,-1.73242 -1.85,-2.35 -0.66758,1.47461 -0.2,3.8 0.0467,0.11387 0.1,0.2 0.2957,0.63926 0.5,1 0.0893,0.15215 0.15,0.25 0.1959,0.3166 0.35,0.5 0.008,0.0291 0,0.05 -0.14141,0.13242 -0.35,0.15 -5.10508,1.01016 -5.9,5.9 1.19258,0.61211 2.15,1.8 0.88965,1.10488 1.35,2.45 0.0951,0.28203 0.15,0.55 0.0494,0.0996 0.05,0.2 0.075,0.2 0.1,0.4 0.0404,0.0627 0.05,0.1 l 0,0.05 q 0.10195,0.77402 0.15,1.65 l 0,0.05 0.35,0 0,-0.05 q -0.20527,-0.79414 -0.3,-1.7 l 0,0 q -0.0119,-0.26016 -0.05,-0.55 0.006,-0.12363 0,-0.3 -0.0254,-0.13633 0,-0.3 0,-0.0373 0,-0.1 0,-0.0617 0,-0.15 9.8e-4,-4.46836 2.55,-7.65 2.69023,-3.26758 6.5,-3.25 3.75762,-0.0203 6.4,3.25 0.66035,0.82266 1.15,1.7 0.47109,0.87363 0.8,1.8 0.64922,1.9248 0.65,4.15 0.002,4.47187 -2.6,7.55 -2.27109,2.8668 -5.4,3.25 -0.10449,-0.0455 -0.3,-0.15 l 0.35,0.2 q -0.22422,-0.0137 -0.45,-0.05 l -0.15,0.6 q 0.0359,0.0898 0.05,0.15 0.0656,0.0613 0.1,0.1 0.94375,1.55098 0.3,3.3 3.30215,2.64082 4.3,7.4 1.41406,6.76055 0.55,13.65 -0.3168,2.50898 -0.55,5 -0.093,0.99121 -0.2,1.95 l -0.05,0.8 q -0.19473,2.82383 -0.3,5.6 l 0.3,0 q 0.73848,12.68633 7.55,25.75 -0.2,-1.65 0.4,-3.2 0.6,-0.75 1.2,-0.75 1.05,0.05 1.85,0.7 1.75,1.35 2.55,-0.65 0.65,-1.55 2.2,-2.5 1,-0.55 1.4,-1.65 0.35,-0.8 0.7,-1.4 -0.70059,-0.60859 -1.4,-1.35 -12.55469,-13.31914 -12.25,-31.75 0.10215,-7.02695 1.6,-13.85 2.88145,-12.65488 -2.1,-22.95 -0.007,-0.015 -0.05,-0.05 -0.40098,-0.8627 -0.9,-1.75 -0.49238,-0.86055 -1.05,-1.75 -1.17715,-1.80371 -2.65,-3.55 -0.1125,-0.17441 -0.2,-0.4 0.098,0.0187 0.15,0 1.78965,-0.55176 2.9,-2 m -30.65,38.1 q 0.0365,0.003 0.05,0 15.67559,1.89902 22.8,-13.75 -2.6252,-0.48809 -4.35,-1.85 -2.11953,7.59805 -11.2,10.45 3.26367,-4.23105 3.9,-9.05 -1.22051,0.7877 -2.65,0.85 -3.53926,10.22461 -8.55,13.35 z"
         id="path19"
         inkscape:connector-curvature="0"
         style="fill:#febaba;stroke:none" />
      <path
         d="m 1019.85,334.25 q 2.467,-1.13594 3.85,-1.8 -7.8055,2.25781 -15.65,3.55 -1.6533,1.64141 -2.85,3.55 l 0.05,0.05 q 1.1107,0.0521 3.55,-0.8 5.3164,-1.78418 11.05,-4.55 m -1.05,3.25 q -1.0934,1.23965 -2.15,2.55 -2.1881,2.80781 -2.3,3 -0.028,0.4793 1.3,0 7.5021,-3.05625 14,-10.4 -5.773,4.35527 -10.85,4.85 m -5.2,-7.75 0,0 q 0.3438,-0.12168 0.65,-0.25 -1.9041,-0.55781 -4.7,-1.55 -1.9801,0.83008 -3.95,1.85 l -0.05,0 q -0.6221,0.4 -1.2,0.75 -0.9043,0.91973 -1.2,1.45 l 0.1,0.05 q 2.4498,0.20898 10.35,-2.3 m 37.55,-58.8 q 0.4912,-1.00645 -0.05,-2.25 -1.7,3 -5.5,3.75 -6.1279,20.84453 -7.25,24.85 -6.3059,22.70547 -3.55,25.55 0.7729,-7.81406 2.35,-15.75 0.043,-0.16445 0.05,-0.35 0.8348,-3.96094 1.85,-8 3.1283,-12.27598 8.2,-24.9 0.1031,-0.15957 0.25,-0.3 0.1398,-0.14688 0.3,-0.25 2.5924,-0.98262 3.35,-2.35 m -58.9,53.25 q 1.45039,1.58828 11.45,-1.4 -4.47559,0.17734 -8.2,-1.1 -3.19648,1.33066 -3.25,2.5 m 11.9,-0.2 q -0.7309,0.47598 -1.6,0.9 -4.88945,2.56172 -4.5,3.95 l 0,0.05 q 0.31992,0.53301 1.25,0.6 1.4338,0.0947 3.85,-0.65 0.1211,-0.0654 0.2,-0.15 0.6504,-0.31172 1.25,-0.65 0.06,-0.0283 0.1,-0.05 1.0979,-0.56797 2.2,-1.1 -1.815,-0.96211 -2.75,-2.9 m -3.6,-9.6 q -2.63184,0.41543 -4.7,1.3 0.29316,0.10742 2.3,0.8 1.9236,0.63984 6.4,1.45 -3.2857,-1.15664 -4,-3.55 m 33.3,-42.4 q -0.1,-0.35 -0.15,-0.7 l -8.35,44.3 q 4.8811,-20.71094 11.3,-41.15 -2.25,-0.35 -2.8,-2.45 z"
         id="path21"
         inkscape:connector-curvature="0"
         style="fill:#fd9191;stroke:none" />
      <path
         d="m 1041,268.95 q -0.3346,1.05742 -1.05,2.35 1.2395,0.4707 2.5,0.85 0.3801,0.10703 0.55,0.45 0.225,0.35664 0.1,0.75 l -13.1,50.3 q -0.066,0.33848 -0.35,0.55 -0.2799,0.21152 -0.65,0.2 -2.3814,-0.0756 -4.75,0.05 -7.4012,0.54297 -14.4,3.35 -0.1396,0.0826 -0.3,0.15 2.7959,0.99219 4.7,1.55 4.2961,-2.00586 7.9,-2.8 0.243,-0.0315 0.45,0 -0.2832,0.1834 -0.65,0.4 -2.3754,1.4082 -7.5,4.5 -0.024,0.0141 -0.05,0 -3.7574,1.86992 -6.35,4.4 7.8445,-1.29219 15.65,-3.55 0.085,-0.0439 0.15,-0.1 l 0,0.05 q -0.1014,0.54551 -2.55,2.7 -1.2611,1.1416 -2.5,2.4 5.077,-0.49473 10.85,-4.85 0.1859,-0.1623 0.35,-0.35 0.3012,-0.34473 0.6,-0.7 1.4,-1.65391 2.75,-3.5 0.165,-0.22207 0.4,-0.35 0.2791,-0.077 0.55,-0.05 4.4271,0.74121 5,-1.9 l 0,0 q 0.1805,-1.15039 -0.3,-1.55 -0.8713,-0.30352 -2.95,0.4 -0.2986,0.11211 -0.65,0 -0.3066,-0.11191 -0.5,-0.4 -0.1838,-0.29863 -0.15,-0.65 0.034,-0.37383 0.05,-0.75 -2.7559,-2.84453 3.55,-25.55 1.1221,-4.00547 7.25,-24.85 3.8,-0.75 5.5,-3.75 -0.1225,-0.29844 -0.3,-0.6 l -0.05,0 q -1.1619,-2.02754 -2.8,-3.65 0.01,0.031 0,0 -0.185,0.0467 -0.35,0.05 -0.858,4.66992 -2.7,5.45 -1.6693,1.1 -3.9,-1 m -7.3,2.35 -0.8,-0.05 -0.8,0.1 q -0.7779,2.03672 -2.1,2.55 -1.4768,0.57324 -4.35,-0.25 l 3.5,1.65 0.4,0.7 0,0.05 q 0.4574,18.98086 -8.75,39.3 -0.1387,0.33164 -0.45,0.5 -0.3242,0.15684 -0.7,0.05 -11.799,-2.64941 -19.1,-1.5 0.7143,2.39336 4,3.55 0.2826,0.0484 0.55,0.1 1.3734,0.23906 2.25,0.35 -0.1783,0.17168 -0.45,0.2 -7.7582,1.66172 -11.4,3.1 3.72441,1.27734 8.2,1.1 1.3029,-0.38418 2.75,-0.85 0.2238,-0.0746 0.45,-0.05 -1.0496,1.08164 -2.75,2.1 0.935,1.93789 2.75,2.9 8.6504,-3.96328 17.9,-4.45 1.3775,-0.0826 2.75,-0.1 -0.01,-0.28242 -0.05,-0.6 -0.2049,-0.85801 -0.6,-1.55 l 0,0 q -0.5336,-0.84707 -1.2,-0.95 -0.2889,-0.0168 -0.55,-0.2 -0.2324,-0.17305 -0.35,-0.45 -0.1,-0.28359 -0.05,-0.6 0.1283,-0.4209 0.2,-0.9 0.2143,-0.73477 0.4,-1.5 l 8.35,-44.3 z"
         id="path23"
         inkscape:connector-curvature="0"
         style="fill:#fea5a5;stroke:none" />
      <path
         d="m 942.55,191.45 q 0.0139,0.55215 0,1.55 -0.0285,2.45469 -2.85,4.5 0.92305,2.08711 0.2,4.6 l 0,0 q -0.59199,2.28184 -2.45,1.9 -1.45312,-0.14805 -2.15,0.55 -0.64961,0.97637 -0.4,2.1 0.25,1.13125 0.35,1.3 0.0502,0.1252 -0.25,0.4 -0.23789,0.27715 -0.8,0.7 -1.09512,0.87988 -3.9,1 0.21777,0.56895 0.45,1.1 0.75,2 2.15,3.7 0.3,0.45 0.6,0.85 l 2.35,1.9 q 0.21543,0.21777 0.3,0.5 0.093,0.27363 0,0.55 -2.17188,8.68418 4.6,14.5 l 0.05,0 q 2.1125,1.81602 3.7,1.65 1.43223,-0.31289 2.5,-2.35 0.0791,-3.81133 1.9,-7.3 0.0408,-0.0367 0.05,-0.1 0.0492,0.0684 0.05,0.15 -0.78848,3.5998 0,7.35 0.73047,2.92578 2.8,4.7 2.00879,1.70469 4.8,1.75 -0.49805,-3.21094 0.2,-5.25 0.0563,-0.0908 0.1,-0.2 0.0518,0.13125 0.05,0.25 1.24707,6.9248 7.5,10.3 0.0504,0.0119 0.05,0 1.49609,0.70195 3.05,0.75 l 0,0 q 3.93672,-0.18438 7.05,-3.25 -8.75,-2.45 -13.35,-10.5 -1.35,-2.3 -3.3,-1.6 -1.6,0.55 -3.1,-0.1 -4.55,-2.05 -7.25,-7.8 -0.95,1.35 -3.35,4.1 -5.75,-0.95 -2.3,-9.9 -1.26992,-1.68594 -3,-3.55 2.2,-4.8 4,-9.45 0.75,-2 0.5,-4.4 -0.47012,-4.67324 1,-8.7 -0.93379,0.8752 -1.9,1.75 m 51.65,53.85 -0.75,-3.3 q -8,8.35 -13.55,0.75 2.14258,3.88242 5.45,6.95 l 0,0 q 6.75,3.55 8.85,-4.4 m 15.9,0.65 q -3.45,-3.75 -7.4,-3 -4.45,-1.3 -9.9,-4.95 0.5,2.45 0.65,4 3.30918,7.1668 6.55,6.9 l 4.5,-4.4 q 0.1428,0.15625 0.2,0.35 0.8818,2.05117 2.25,3.45 l 0.05,0 q 0.949,0.93613 2.1,1.55 1.301,0.70664 2.85,1 2.1053,0.4291 4.6,-0.15 0.1789,-0.003 0.85,-0.4 0.3592,-0.19766 0.7,-0.7 -4.8225,-0.12891 -8,-3.65 m 33.45,0.7 q 0.359,-0.55547 1.3,-3.75 -5.8,5.6 -13.8,3.45 l 1.65,2.1 q 0.2391,0.33652 0.55,0.65 l 0,0.05 q 3.4119,2.45469 5.45,2.25 0.55,-0.35 1.1,-0.75 1.35,-1 2.65,-2.05 0.3227,-0.3957 0.55,-0.8 0.1186,-0.35469 0.55,-1.15 m 11.2,1.65 q 0.1344,-0.19512 0.25,-0.4 -3.7086,-2.47246 -9.2,-4.65 0.033,2.15684 -0.65,4.35 l 0,-0.05 q 0.016,0.0342 0,0.05 l 0.05,1.35 q 0.45,0.45 0.95,0.9 1.85,1.55 4.1,1.5 0.09,-7.8e-4 0.15,0 0.1998,-0.1 0.45,-0.1 0.077,0.0193 0.15,0.05 l 0.8,-0.15 q 1.3723,-0.16934 2.95,-2.85 m 15.7,5.45 q -3.3771,0.31035 -7.25,-0.85 -3.8262,-1.16191 -8.2,-5 -0.022,0.18594 -0.15,0.35 0.4752,1.7375 -0.95,3.45 1.748,1.50625 4.55,2.35 l 0,-0.05 q 4.468,1.26797 9.15,0.55 0.04,-0.001 0.05,0 1.7188,-0.14141 2.8,-0.8 M 1060.2,232.6 q -2.15,1.05 -4.45,1.95 -3.1,1.2 -5.95,-0.25 -3.35,-1.7 -5.4,-5.1 -1.45,1.5 -3.15,2.5 -2.4,1.55 -5.1,2.25 -3.9,1.2 -8.05,0.6 -6.15,-0.6 -10.5,-4.95 0.3,0.75 0.65,1.5 2.55,5.3 8.35,6.5 3.7,0.95 7.35,0.65 4.05,-0.55 6.85,-3.45 2.9443,0.40293 6.9,2.05 3.9664,1.69082 8.4,0.2 3.65,-0.1 6.95,1 2.2,0.8 3.65,0.8 l -0.7,-0.55 2.1,1.35 q -1.55,-1.4 -2.45,-3.1 -0.65,-1.15 -1.35,-2.25 -0.5,-0.75 -1.2,-1.35 -1.4,-1.1 -2.9,-0.35 m -35,-3.35 -0.65,-0.5 q -16.7,-8.85 -27.2,-23.95 l -0.95,-0.4 q -0.4,6.2 3.3,11.3 9.15,12.55 25.5,13.55 m 49.35,-42.95 q 0.7469,5.26289 -0.5,10.5 7.55,1.15 11.3,8.5 2.15,7.35 1.75,15.5 -0.3,5.9 1.95,10.85 0.8,1.75 -1.15,3.8 -2.8,2.9 -5.65,4.95 -1.508,1.00527 -2.9,1.85 0.2916,0.33789 0.65,0.65 2.6955,1.64473 5.5,0.6 l 0,0 q 0.6262,-0.23262 0.75,-0.95 l 0,0 0.7,-4.7 q 0.2402,-0.0144 0.45,0.05 4.5086,1.9457 6.55,-1.6 l 0.05,-0.05 q 0.4293,-0.71484 0.35,-1.7 l 0,0 q -0.083,-1.87656 -1.3,-2.95 -0.1666,-0.11543 -0.75,-0.55 l -0.05,0 q -0.1867,-0.23945 0.05,-4.1 0.2898,-3.85898 -1.9,-10.7 -2.4564,-5.72617 -5.05,-11 -5.177,-10.45195 -10.8,-18.95 z"
         id="path25"
         inkscape:connector-curvature="0"
         style="fill:#4d4d4d;stroke:none" />
      <path
         d="m 1074.05,196.8 q 1.2469,-5.23711 0.5,-10.5 -16.1816,-24.37285 -36.05,-32.15 -30.2104,-11.65156 -69.05,15.05 -12.00898,8.2957 -25,20.5 -1.47012,4.02676 -1,8.7 0.25,2.4 -0.5,4.4 -1.8,4.65 -4,9.45 1.73008,1.86406 3,3.55 -3.45,8.95 2.3,9.9 2.4,-2.75 3.35,-4.1 2.7,5.75 7.25,7.8 1.5,0.65 3.1,0.1 1.95,-0.7 3.3,1.6 4.6,8.05 13.35,10.5 0.19668,-0.20742 0.4,-0.45 2.35723,-2.49434 2.85,-3.3 0.8291,2.59316 2.05,4.9 5.55,7.6 13.55,-0.75 -0.15,-1.55 -0.65,-4 5.45,3.65 9.9,4.95 3.95,-0.75 7.4,3 3.1775,3.52109 8,3.65 0.3951,-0.53809 0.8,-1.45 0.4469,-0.95332 0.5,-1.6 0.8785,1.05664 2.35,2.05 l 0,0.05 q 2.3779,1.67988 5.2,2.35 1.8002,0.50098 2.8,-0.05 0.8152,-0.55039 1,-2 l -1.3,-4.25 q -0.06,-0.19922 -0.05,-0.4 l 1.65,2.05 q 8,2.15 13.8,-3.45 l 0,-0.05 q 0.2998,-1.0584 0.65,-2.45 0.028,0.0394 0,0.05 0.088,0.27305 0.1,0.55 0.2275,1.1168 0.2,2.25 5.4914,2.17754 9.2,4.65 4.3738,3.83809 8.2,5 3.8729,1.16035 7.25,0.85 2.1055,-1.15195 2,-4.1 -0.032,-0.25586 -0.1,-0.5 l 0,-0.05 q -2.1586,-7.00313 -5.15,-9.85 -0.2508,-0.19883 -0.5,-0.4 -1.45,0 -3.65,-0.8 -3.3,-1.1 -6.95,-1 -4.4336,1.49082 -8.4,-0.2 -3.9557,-1.64707 -6.9,-2.05 -2.8,2.9 -6.85,3.45 -3.65,0.3 -7.35,-0.65 -5.8,-1.2 -8.35,-6.5 -0.35,-0.75 -0.65,-1.5 4.35,4.35 10.5,4.95 4.15,0.6 8.05,-0.6 2.7,-0.7 5.1,-2.25 1.7,-1 3.15,-2.5 2.05,3.4 5.4,5.1 2.85,1.45 5.95,0.25 2.3,-0.9 4.45,-1.95 1.5,-0.75 2.9,0.35 0.7,0.6 1.2,1.35 0.7,1.1 1.35,2.25 0.9,1.7 2.45,3.1 4.1035,3.00254 5.8,7.85 3.391,-0.14746 4.1,-4.4 l 0,-0.05 q -1.3566,-2.07891 0,-4.2 -0.2672,1.72285 1.35,3.4 1.392,-0.84473 2.9,-1.85 2.85,-2.05 5.65,-4.95 1.95,-2.05 1.15,-3.8 -2.25,-4.95 -1.95,-10.85 0.4,-8.15 -1.75,-15.5 -3.75,-7.35 -11.3,-8.5 m -49.5,31.95 0.65,0.5 q -16.35,-1 -25.5,-13.55 -3.7,-5.1 -3.3,-11.3 l 0.95,0.4 q 10.5,15.1 27.2,23.95 z"
         id="path27"
         inkscape:connector-curvature="0"
         style="fill:#333333;stroke:none" />
    </g>
    <path
       id="avestruz_0_Layer0_0_1_STROKES"
       d="m 911.875,190.25 q -0.0434,-0.0998 -0.075,-0.2 0.003,-0.0584 0,-0.125"
       inkscape:connector-curvature="0"
       style="fill:none;stroke:#000000;stroke-width:1;stroke-linecap:round;stroke-linejoin:round" />
    <filter
       inkscape:collect="always"
       id="filter3812"
       color-interpolation-filters="sRGB">
      <feGaussianBlur
         inkscape:collect="always"
         stdDeviation="2.261976"
         id="feGaussianBlur3814" />
    </filter>
  </defs>
  <g
     id="g3821"
     transform="translate(7.3177024,7.3702471)">
    <g
       transform="translate(273.64229,-0.03513703)"
       id="g3816">
      <path
         inkscape:connector-curvature="0"
         id="path3810"
         d="m -253.9375,0.09375 c -0.68781,0.01984255 -1.98539,0.76008328 -3.21875,1.875 -1.03031,0.9313698 -1.16829,0.9869271 -1.6875,0.59375 -0.6708,-0.507967 -2.63563,-0.6023813 -3.46875,-0.15625 -0.78065,0.4180371 -0.71379,1.1416112 0.1875,2.46875 0.41297,0.6081012 0.72475,1.2846233 0.71875,1.5 -0.006,0.2153769 -0.51501,0.7439716 -1.15625,1.1875 -0.7393,0.5113508 -1.4097,1.3658119 -1.84375,2.3125 -0.56505,1.232428 -0.89792,1.538324 -1.8125,1.8125 -3.95332,1.185136 -4.85962,7.375942 -1.46875,10.03125 l 1,0.75 -0.8125,1.90625 c -1.22166,2.861432 -2.84346,5.090135 -4.53125,6.21875 -0.82595,0.552303 -1.5,1.241645 -1.5,1.5 0,0.663498 2.78579,1.534818 5.53125,1.75 4.7204,0.369974 8.86242,-1.56718 12.4375,-5.875 1.00514,-1.211141 1.46946,-1.06974 2.5,0.75 1.37702,2.431559 1.60429,6.522591 0.8125,14.75 -0.56811,5.903278 -0.4121,13.556697 0.34375,17.46875 1.35351,7.005371 3.78655,11.302879 8.03125,14.15625 0.78465,0.527459 1.40625,1.147007 1.40625,1.375 0,0.629794 1.42662,1.621205 2.65625,1.84375 1.54932,0.280394 2.54308,0.844975 3.75,2.125 1.03518,1.097548 1.05125,1.136881 1.03125,3.6875 -0.0276,3.517747 0.89113,5.624598 3.5625,8.125 2.2309,2.088114 3.45743,2.498084 5.15625,1.6875 l 1.09375,-0.53125 1.03125,1.25 c 1.18532,1.427799 2.73618,2.302068 4.59375,2.59375 0.93832,0.147339 1.71926,0.577661 2.75,1.5 1.99131,1.7819 3.64507,2.53325 5.625,2.53125 2.44902,-0.003 3.81999,-0.51537 5.40625,-2 l 1.4375,-1.34375 1.125,2 c 1.6166,2.89243 3.55378,4.83055 5.15625,5.09375 2.08257,0.34207 3.63847,-0.0904 5.03125,-1.375 l 1.21875,-1.125 1.3125,0.875 c 0.72085,0.48442 1.56948,0.875 1.875,0.875 0.58322,0 1.4623,-0.74148 2,-1.6875 0.61509,-1.08217 1.37047,-0.0643 2.625,3.65625 1.40658,4.17153 2.55364,6.35957 5,9.4375 0.97576,1.22769 1.7043,2.38691 1.625,2.59375 -0.54453,1.41972 -0.51142,2.48823 0.0937,3.09375 0.78105,0.7815 1.62099,0.79917 3.3125,0.0312 l 1.3125,-0.59375 1.59375,0.71875 1.625,0.75 0,2.5 c -0.0131,5.93235 -1.67538,13.36045 -4.59375,20.75 L -175,147.9375 -176.5,147.75 c -0.83604,-0.0977 -2.42627,-0.30199 -3.5,-0.46875 -3.23008,-0.50167 -7.71371,-0.39301 -10.03125,0.25 -3.87583,1.07536 -4.12536,2.62898 -0.625,3.8125 0.49328,0.16678 0.32527,0.33008 -1.03125,0.9375 -2.50882,1.12339 -3.625,2.06437 -3.625,3.09375 0,1.20913 0.98123,1.8125 2.9375,1.8125 1.70314,0 1.73085,0.007 1.25,0.90625 -0.17433,0.32595 -0.23267,0.87934 -0.125,1.21875 0.2023,0.63776 2.06425,1.60129 2.53125,1.3125 0.14528,-0.0898 0.55775,0.26028 0.90625,0.75 0.55362,0.77793 0.85134,0.89025 2.3125,0.96875 l 1.65625,0.0937 -1.21875,1.53125 c -1.76034,2.2087 -1.59395,3.73175 0.40625,3.71875 0.50383,-0.003 2.04132,-0.41366 3.4375,-0.90625 3.04409,-1.07402 3.32999,-1.09622 2.53125,-0.21875 -0.6825,0.74975 -1.3125,1.82179 -1.3125,2.28125 0,0.16434 0.20916,0.52152 0.46875,0.78125 l 0.0312,0 c 1.6768,1.67779 7.3256,-1.52646 12.40625,-7 2.58429,-2.78415 2.89597,-2.98287 4.15625,-3.125 1.75596,-0.19804 2.86112,-1.05585 3.21875,-2.46875 0.39451,-1.5586 -0.22814,-2.62069 -1.75,-3 l -1.15625,-0.28125 0.1875,-1.65625 c 0.91166,-7.8071 3.70979,-19.0206 6.84375,-27.375 1.14248,-3.04558 1.44718,-3.52457 2.46875,-4.21875 2.18315,-1.48352 2.4908,-3.30769 0.9375,-5.65625 l -0.8125,-1.1875 0.625,-1.21875 c 0.79695,-1.56313 0.78049,-2.02067 -0.0937,-2.78125 -0.70544,-0.61373 -0.71259,-0.63576 -0.21875,-1.9375 0.27475,-0.72422 0.5944,-1.37565 0.6875,-1.46875 0.0931,-0.0931 1.0054,0.22705 2.0625,0.71875 4.76162,2.21482 11.2415,1.74334 12.875,-0.9375 0.33417,-0.54843 0.6244,-1.28831 0.625,-1.65625 7.9e-4,-0.46636 0.32791,-0.85687 1.09375,-1.25 0.61684,-0.31664 1.40528,-1.06114 1.78125,-1.71875 0.37963,-0.664 0.83047,-1.1287 1.0625,-1.0625 1.41143,0.40258 3.53921,0.35487 4.40625,-0.0937 0.87574,-0.453129 1.10216,-0.837607 1.34375,-2.4375 0.0703,-0.465373 0.40876,-0.620592 1.53125,-0.78125 1.72713,-0.247199 2.71974,-0.863952 3.53125,-2.15625 0.78605,-1.251761 0.647,-3.482695 -0.3125,-4.78125 -0.56925,-0.77039 -0.7203,-1.376812 -0.8125,-3.8125 -0.16786,-4.43221 -0.91619,-6.793878 -4.4375,-13.9375 -3.83829,-7.786651 -7.19492,-13.425246 -10.96875,-18.46875 -3.15811,-4.220631 -9.22666,-10.534688 -12.4375,-12.90625 -14.32912,-10.583651 -30.09469,-11.231461 -48.5625,-2 -9.13558,4.566581 -18.13324,11.037759 -28.28125,20.3125 -1.40158,1.280968 -2.69771,2.3125 -2.875,2.3125 -0.17728,0 -0.77866,-0.599962 -1.3125,-1.34375 -1.17893,-1.642596 -2.02563,-1.74895 -3.25,-0.4375 -0.46293,0.495859 -1.00492,0.90625 -1.1875,0.90625 -0.60998,0 -3.90534,-3.632992 -5.5625,-6.125 -4.70675,-7.077961 -5.84213,-15.008665 -3.78125,-26.1875 0.81222,-4.40575 0.82309,-9.464602 0.0312,-12.5625 -0.55913,-2.18745 -2.05948,-5.704067 -3.21875,-7.53125 -0.53139,-0.8375184 -0.5469,-0.8852211 0.0312,-1.21875 1.17165,-0.6759133 2.60126,-2.286412 2.5,-2.8125 -0.16763,-0.8709624 -1.71713,-1.4375 -3.9375,-1.4375 l -2.03125,0 -0.59375,-1.28125 c -0.3155,-0.70498561 -0.76018,-1.345417 -1,-1.4375 -0.0719,-0.02760166 -0.15174,-0.03408465 -0.25,-0.03125 z"
         style="fill:#808080;stroke:#808080;stroke-width:4;stroke-linejoin:round;stroke-miterlimit:4;stroke-dasharray:none;filter:url(#filter3812)" />
      <use
         height="400"
         width="550"
         y="0"
         x="0"
         id="use3004"
         xlink:href="#avestruz_0_Layer0_0_1_STROKES"
         transform="matrix(0.69999695,0,0,0.69999695,-846.69023,-71.467228)"
         style="fill:#ffffff" />
      <path
         inkscape:connector-curvature="0"
         style="fill:#ffffff;stroke:#ffffff;stroke-width:4;stroke-linejoin:round;stroke-miterlimit:4;stroke-dasharray:none"
         d="m -253.9375,0.09375 c -0.68781,0.01984255 -1.98539,0.76008328 -3.21875,1.875 -1.03031,0.9313698 -1.16829,0.9869271 -1.6875,0.59375 -0.6708,-0.507967 -2.63563,-0.6023813 -3.46875,-0.15625 -0.78065,0.4180371 -0.71379,1.1416112 0.1875,2.46875 0.41297,0.6081012 0.72475,1.2846233 0.71875,1.5 -0.006,0.2153769 -0.51501,0.7439716 -1.15625,1.1875 -0.7393,0.5113508 -1.4097,1.3658119 -1.84375,2.3125 -0.56505,1.232428 -0.89792,1.538324 -1.8125,1.8125 -3.95332,1.185136 -4.85962,7.375942 -1.46875,10.03125 l 1,0.75 -0.8125,1.90625 c -1.22166,2.861432 -2.84346,5.090135 -4.53125,6.21875 -0.82595,0.552303 -1.5,1.241645 -1.5,1.5 0,0.663498 2.78579,1.534818 5.53125,1.75 4.7204,0.369974 8.86242,-1.56718 12.4375,-5.875 1.00514,-1.211141 1.46946,-1.06974 2.5,0.75 1.37702,2.431559 1.60429,6.522591 0.8125,14.75 -0.56811,5.903278 -0.4121,13.556697 0.34375,17.46875 1.35351,7.005371 3.78655,11.302879 8.03125,14.15625 0.78465,0.527459 1.40625,1.147007 1.40625,1.375 0,0.629794 1.42662,1.621205 2.65625,1.84375 1.54932,0.280394 2.54308,0.844975 3.75,2.125 1.03518,1.097548 1.05125,1.136881 1.03125,3.6875 -0.0276,3.517747 0.89113,5.624598 3.5625,8.125 2.2309,2.088114 3.45743,2.498084 5.15625,1.6875 l 1.09375,-0.53125 1.03125,1.25 c 1.18532,1.427799 2.73618,2.302068 4.59375,2.59375 0.93832,0.147339 1.71926,0.577661 2.75,1.5 1.99131,1.7819 3.64507,2.53325 5.625,2.53125 2.44902,-0.003 3.81999,-0.51537 5.40625,-2 l 1.4375,-1.34375 1.125,2 c 1.6166,2.89243 3.55378,4.83055 5.15625,5.09375 2.08257,0.34207 3.63847,-0.0904 5.03125,-1.375 l 1.21875,-1.125 1.3125,0.875 c 0.72085,0.48442 1.56948,0.875 1.875,0.875 0.58322,0 1.4623,-0.74148 2,-1.6875 0.61509,-1.08217 1.37047,-0.0643 2.625,3.65625 1.40658,4.17153 2.55364,6.35957 5,9.4375 0.97576,1.22769 1.7043,2.38691 1.625,2.59375 -0.54453,1.41972 -0.51142,2.48823 0.0937,3.09375 0.78105,0.7815 1.62099,0.79917 3.3125,0.0312 l 1.3125,-0.59375 1.59375,0.71875 1.625,0.75 0,2.5 c -0.0131,5.93235 -1.67538,13.36045 -4.59375,20.75 L -175,147.9375 -176.5,147.75 c -0.83604,-0.0977 -2.42627,-0.30199 -3.5,-0.46875 -3.23008,-0.50167 -7.71371,-0.39301 -10.03125,0.25 -3.87583,1.07536 -4.12536,2.62898 -0.625,3.8125 0.49328,0.16678 0.32527,0.33008 -1.03125,0.9375 -2.50882,1.12339 -3.625,2.06437 -3.625,3.09375 0,1.20913 0.98123,1.8125 2.9375,1.8125 1.70314,0 1.73085,0.007 1.25,0.90625 -0.17433,0.32595 -0.23267,0.87934 -0.125,1.21875 0.2023,0.63776 2.06425,1.60129 2.53125,1.3125 0.14528,-0.0898 0.55775,0.26028 0.90625,0.75 0.55362,0.77793 0.85134,0.89025 2.3125,0.96875 l 1.65625,0.0937 -1.21875,1.53125 c -1.76034,2.2087 -1.59395,3.73175 0.40625,3.71875 0.50383,-0.003 2.04132,-0.41366 3.4375,-0.90625 3.04409,-1.07402 3.32999,-1.09622 2.53125,-0.21875 -0.6825,0.74975 -1.3125,1.82179 -1.3125,2.28125 0,0.16434 0.20916,0.52152 0.46875,0.78125 l 0.0312,0 c 1.6768,1.67779 7.3256,-1.52646 12.40625,-7 2.58429,-2.78415 2.89597,-2.98287 4.15625,-3.125 1.75596,-0.19804 2.86112,-1.05585 3.21875,-2.46875 0.39451,-1.5586 -0.22814,-2.62069 -1.75,-3 l -1.15625,-0.28125 0.1875,-1.65625 c 0.91166,-7.8071 3.70979,-19.0206 6.84375,-27.375 1.14248,-3.04558 1.44718,-3.52457 2.46875,-4.21875 2.18315,-1.48352 2.4908,-3.30769 0.9375,-5.65625 l -0.8125,-1.1875 0.625,-1.21875 c 0.79695,-1.56313 0.78049,-2.02067 -0.0937,-2.78125 -0.70544,-0.61373 -0.71259,-0.63576 -0.21875,-1.9375 0.27475,-0.72422 0.5944,-1.37565 0.6875,-1.46875 0.0931,-0.0931 1.0054,0.22705 2.0625,0.71875 4.76162,2.21482 11.2415,1.74334 12.875,-0.9375 0.33417,-0.54843 0.6244,-1.28831 0.625,-1.65625 7.9e-4,-0.46636 0.32791,-0.85687 1.09375,-1.25 0.61684,-0.31664 1.40528,-1.06114 1.78125,-1.71875 0.37963,-0.664 0.83047,-1.1287 1.0625,-1.0625 1.41143,0.40258 3.53921,0.35487 4.40625,-0.0937 0.87574,-0.453129 1.10216,-0.837607 1.34375,-2.4375 0.0703,-0.465373 0.40876,-0.620592 1.53125,-0.78125 1.72713,-0.247199 2.71974,-0.863952 3.53125,-2.15625 0.78605,-1.251761 0.647,-3.482695 -0.3125,-4.78125 -0.56925,-0.77039 -0.7203,-1.376812 -0.8125,-3.8125 -0.16786,-4.43221 -0.91619,-6.793878 -4.4375,-13.9375 -3.83829,-7.786651 -7.19492,-13.425246 -10.96875,-18.46875 -3.15811,-4.220631 -9.22666,-10.534688 -12.4375,-12.90625 -14.32912,-10.583651 -30.09469,-11.231461 -48.5625,-2 -9.13558,4.566581 -18.13324,11.037759 -28.28125,20.3125 -1.40158,1.280968 -2.69771,2.3125 -2.875,2.3125 -0.17728,0 -0.77866,-0.599962 -1.3125,-1.34375 -1.17893,-1.642596 -2.02563,-1.74895 -3.25,-0.4375 -0.46293,0.495859 -1.00492,0.90625 -1.1875,0.90625 -0.60998,0 -3.90534,-3.632992 -5.5625,-6.125 -4.70675,-7.077961 -5.84213,-15.008665 -3.78125,-26.1875 0.81222,-4.40575 0.82309,-9.464602 0.0312,-12.5625 -0.55913,-2.18745 -2.05948,-5.704067 -3.21875,-7.53125 -0.53139,-0.8375184 -0.5469,-0.8852211 0.0312,-1.21875 1.17165,-0.6759133 2.60126,-2.286412 2.5,-2.8125 -0.16763,-0.8709624 -1.71713,-1.4375 -3.9375,-1.4375 l -2.03125,0 -0.59375,-1.28125 c -0.3155,-0.70498561 -0.76018,-1.345417 -1,-1.4375 -0.0719,-0.02760166 -0.15174,-0.03408465 -0.25,-0.03125 z"
         id="path3039" />
    </g>
    <g
       id="g30"
       transform="matrix(0.69999695,0,0,0.69999695,76.264951,85.05209)">
      <g
         id="g32"
         transform="translate(-987.35,-223.6)">
        <use
           height="400"
           width="550"
           y="0"
           x="0"
           id="use34"
           xlink:href="#avestruz_0_Layer0_0_FILL" />
        <use
           height="400"
           width="550"
           y="0"
           x="0"
           id="use36"
           xlink:href="#avestruz_0_Layer0_0_1_STROKES" />
      </g>
    </g>
  </g>
</svg>
