<?xml version="1.0" encoding="UTF-8" standalone="no"?>
<svg
   xmlns:osb="http://www.openswatchbook.org/uri/2009/osb"
   xmlns:dc="http://purl.org/dc/elements/1.1/"
   xmlns:cc="http://creativecommons.org/ns#"
   xmlns:rdf="http://www.w3.org/1999/02/22-rdf-syntax-ns#"
   xmlns:svg="http://www.w3.org/2000/svg"
   xmlns="http://www.w3.org/2000/svg"
   xmlns:xlink="http://www.w3.org/1999/xlink"
   xmlns:sodipodi="http://sodipodi.sourceforge.net/DTD/sodipodi-0.dtd"
   xmlns:inkscape="http://www.inkscape.org/namespaces/inkscape"
   version="1.1"
   id="svg2"
   viewBox="0 0 150.53634 121.17212"
   height="121.17211"
   width="150.53632"
   inkscape:version="0.48.4 r9939"
   sodipodi:docname="besouro.svg">
  <sodipodi:namedview
     pagecolor="#ffffff"
     bordercolor="#666666"
     borderopacity="1"
     objecttolerance="10"
     gridtolerance="10"
     guidetolerance="10"
     inkscape:pageopacity="0"
     inkscape:pageshadow="2"
     inkscape:window-width="1600"
     inkscape:window-height="876"
     id="namedview1313"
     showgrid="false"
     fit-margin-top="0"
     fit-margin-left="0"
     fit-margin-right="0"
     fit-margin-bottom="0"
     inkscape:zoom="4.363776"
     inkscape:cx="27.743016"
     inkscape:cy="67.028342"
     inkscape:window-x="0"
     inkscape:window-y="1"
     inkscape:window-maximized="1"
     inkscape:current-layer="svg2" />
  <script
     xlink:href="C:\wamp\www\bingo\js/snap.svg-min.js"
     id="script4164" />
  <title
     id="title4162">Bingo das Letras</title>
  <defs
     id="defs4">
    <linearGradient
       osb:paint="solid"
       id="linearGradient12614">
      <stop
         id="stop12616"
         offset="0"
         style="stop-color:#000000;stop-opacity:1;" />
    </linearGradient>
    <linearGradient
       gradientTransform="matrix(-0.19399818,0,0,-0.19399818,259.22818,12173.784)"
       osb:paint="solid"
       id="linearGradient59274">
      <stop
         id="stop59276"
         offset="0"
         style="stop-color:#930033;stop-opacity:1;" />
    </linearGradient>
    <linearGradient
       id="linearGradient4269"
       osb:paint="solid"
       gradientTransform="matrix(110.20782,22.122239,-29.697412,82.096171,6265160,4269852.3)">
      <stop
         style="stop-color:#ffffff;stop-opacity:1;"
         offset="0"
         id="stop4271" />
    </linearGradient>
    <linearGradient
       id="linearGradient4251"
       osb:paint="solid"
       gradientTransform="translate(106155.96,125143.42)">
      <stop
         style="stop-color:#555555;stop-opacity:1;"
         offset="0"
         id="stop4253" />
    </linearGradient>
    <linearGradient
       id="linearGradient4241"
       osb:paint="solid"
       gradientTransform="matrix(0.19125385,0,0,0.19125385,-3164.1395,-44984.972)">
      <stop
         style="stop-color:#3fb5ae;stop-opacity:1;"
         offset="0"
         id="stop4243" />
    </linearGradient>
    <linearGradient
       id="linearGradient4231"
       osb:paint="solid"
       gradientTransform="translate(2399.1562,2075.6965)">
      <stop
         style="stop-color:#d1f2a5;stop-opacity:1;"
         offset="0"
         id="stop4233" />
    </linearGradient>
    <linearGradient
       id="linearGradient4221"
       osb:paint="solid"
       gradientTransform="matrix(0.66768435,0,0,0.66768435,-186.89148,394.64653)">
      <stop
         style="stop-color:#effab4;stop-opacity:1;"
         offset="0"
         id="stop4223" />
    </linearGradient>
    <linearGradient
       id="linearGradient4211"
       osb:paint="solid"
       gradientTransform="translate(-699.20463,883.12976)">
      <stop
         style="stop-color:#ffc48c;stop-opacity:1;"
         offset="0"
         id="stop4213" />
    </linearGradient>
    <linearGradient
       id="linearGradient4201"
       osb:paint="solid"
       gradientTransform="matrix(0.35946858,0,0,0.22423084,-331.07911,5516.4706)">
      <stop
         style="stop-color:#ff9f80;stop-opacity:1;"
         offset="0"
         id="stop4203" />
    </linearGradient>
    <linearGradient
       id="linearGradient4191"
       osb:paint="solid"
       gradientTransform="matrix(0.52321996,0,0,0.52321996,2015.4535,3072.5352)">
      <stop
         style="stop-color:#f56991;stop-opacity:1;"
         offset="0"
         id="stop4193" />
    </linearGradient>
    <style
       id="style6"
       type="text/css">
    .str0 {stroke:#006633;stroke-width:282.22}
    .str1 {stroke:#AB754F;stroke-width:282.22}
    .fil2 {fill:none}
    .fil3 {fill:#606062}
    .fil5 {fill:#CE8F64}
    .fil4 {fill:#006633}
    .fil8 {fill:#009933}
    .fil9 {fill:#00B33C}
    .fil10 {fill:#00C943}
    .fil0 {fill:#00D447}
    .fil1 {fill:#00DB49}
    .fil6 {fill:#B88059}
    .fil11 {fill:#BA8058}
    .fil12 {fill:#D49264}
    .fil7 {fill:#E49C6D}
  </style>
    <style
       id="style13042"
       type="text/css">
   
    .fil4 {fill:url(#id0)}
    .fil9 {fill:url(#id1)}
    .fil6 {fill:url(#id2)}
    .fil1 {fill:url(#id3)}
    .fil5 {fill:url(#id4)}
    .fil0 {fill:url(#id5)}
    .fil8 {fill:url(#id6)}
    .fil3 {fill:url(#id7)}
    .fil7 {fill:url(#id8)}
    .fil2 {fill:url(#id9)}
   
  </style>
    <filter
       inkscape:collect="always"
       id="filter4280"
       color-interpolation-filters="sRGB">
      <feGaussianBlur
         inkscape:collect="always"
         stdDeviation="0.87956595"
         id="feGaussianBlur4282" />
    </filter>
  </defs>
  <metadata
     id="metadata7">
    <rdf:RDF>
      <cc:Work
         rdf:about="">
        <dc:format>image/svg+xml</dc:format>
        <dc:type
           rdf:resource="http://purl.org/dc/dcmitype/StillImage" />
        <dc:title>Bingo das Letras</dc:title>
        <cc:license
           rdf:resource="" />
        <dc:rights>
          <cc:Agent>
            <dc:title>Copyright © 2002-2016. Portal Clickideia ® - Todos os Direitos Reservados</dc:title>
          </cc:Agent>
        </dc:rights>
        <dc:description>SVG game with snapSVG lib and other javascripts included</dc:description>
        <dc:language>pt_BR</dc:language>
        <dc:subject>
          <rdf:Bag>
            <rdf:li>Educativo</rdf:li>
            <rdf:li>ensino fundamental</rdf:li>
            <rdf:li>clickiéia</rdf:li>
            <rdf:li>letras</rdf:li>
            <rdf:li>lingua portuguesa</rdf:li>
            <rdf:li>infantil</rdf:li>
            <rdf:li>educational game</rdf:li>
            <rdf:li>game design</rdf:li>
            <rdf:li>multimidia</rdf:li>
          </rdf:Bag>
        </dc:subject>
        <dc:creator>
          <cc:Agent>
            <dc:title>http://www.clickideia.com.br/</dc:title>
          </cc:Agent>
        </dc:creator>
        <dc:publisher>
          <cc:Agent>
            <dc:title>http://www.clickideia.com.br/</dc:title>
          </cc:Agent>
        </dc:publisher>
        <dc:date>18/01/2016</dc:date>
        <dc:contributor>
          <cc:Agent>
            <dc:title>michel morandi - michel.morandi@clickideia.com.br</dc:title>
          </cc:Agent>
        </dc:contributor>
      </cc:Work>
    </rdf:RDF>
  </metadata>
  <g
     id="g4366"
     transform="matrix(1.5003701,0,0,1.5003701,5.1632309,5.1755019)">
    <g
       transform="translate(120.76699,-3.3857674e-8)"
       id="g4284">
      <g
         style="fill:#999999;stroke:#999999;stroke-width:2.66600966;stroke-linejoin:round;stroke-miterlimit:4;stroke-dasharray:none;filter:url(#filter4280)"
         transform="translate(-120.76699,0)"
         id="g4199">
        <g
           style="fill:#999999;stroke:#999999;stroke-width:2.66600966;stroke-linejoin:round;stroke-miterlimit:4;stroke-dasharray:none"
           id="g4201">
          <g
             style="fill:#999999;stroke:#999999;stroke-width:2.66600966;stroke-linejoin:round;stroke-miterlimit:4;stroke-dasharray:none"
             id="g4203">
            <g
               style="fill:#999999;stroke:#999999;stroke-width:2.66600966;stroke-linejoin:round;stroke-miterlimit:4;stroke-dasharray:none"
               id="g4205">
              <g
                 style="fill:#999999;stroke:#999999;stroke-width:2.66600966;stroke-linejoin:round;stroke-miterlimit:4;stroke-dasharray:none"
                 id="g4207">
                <g
                   style="fill:#999999;stroke:#999999;stroke-width:2.66600966;stroke-linejoin:round;stroke-miterlimit:4;stroke-dasharray:none"
                   id="g4209">
                  <g
                     style="fill:#999999;stroke:#999999;stroke-width:2.66600966;stroke-linejoin:round;stroke-miterlimit:4;stroke-dasharray:none"
                     id="g4211">
                    <g
                       style="fill:#999999;stroke:#999999;stroke-width:2.66600966;stroke-linejoin:round;stroke-miterlimit:4;stroke-dasharray:none"
                       id="g4213">
                      <g
                         style="fill:#999999;stroke:#999999;stroke-width:2.66600966;stroke-linejoin:round;stroke-miterlimit:4;stroke-dasharray:none"
                         id="g4215">
                        <g
                           style="fill:#999999;stroke:#999999;stroke-width:18.72049141;stroke-linejoin:round;stroke-miterlimit:4;stroke-dasharray:none"
                           id="g4217"
                           transform="matrix(0.14241129,0,0,0.14241129,-6.0255502,-45.157304)">
                          <g
                             style="fill:#999999;stroke:#999999;stroke-width:18.72049141;stroke-linejoin:round;stroke-miterlimit:4;stroke-dasharray:none"
                             id="g4219">
                            <g
                               style="fill:#999999;stroke:#999999;stroke-width:28.9921093;stroke-linejoin:round;stroke-miterlimit:4;stroke-dasharray:none"
                               id="g4221"
                               transform="matrix(0.55948,0,0,0.74523,130.61,-2.1688)">
                              <path
                                 style="fill:#999999;stroke:#999999;stroke-width:28.9921093;stroke-linejoin:round;stroke-miterlimit:4;stroke-dasharray:none"
                                 inkscape:connector-curvature="0"
                                 id="path4223"
                                 d="m 174.06,763.72 c -16.494,-0.13368 -32.053,21.626 -31.476,24.352 -56.824,50.012 -106.63,116.78 -99.111,202.53 0.43335,4.9431 0.94391,9.3932 1.5,13.437 -2.0142,0.1259 -4.0325,0.7352 -5.875,1.875 0,0 -31.499,22.017 -88.906,44.188 -26.523,10.243 -33.838,30.305 -33.625,40.562 l -15.969,-16.406 c -10.005,11.274 -9.739,28.531 0.9375,39.5 10.6765,10.969 27.922,11.69 39.469,2 l -14.156,-14.562 c 31.381,6.4329 98.769,-64.663 123.62,-73.219 10.878,27.449 27.875,-6.7812 27.875,-6.7812 10e-6,0 -21.374,-151.2 81.906,-199.66 64.55,-30.287 41.296,-57.598 13.806,-57.821 z" />
                              <path
                                 style="fill:#999999;stroke:#999999;stroke-width:28.9921093;stroke-linejoin:round;stroke-miterlimit:4;stroke-dasharray:none"
                                 inkscape:connector-curvature="0"
                                 id="path4226"
                                 d="m 671,769.14 c 16.494,-0.13368 37.47,16.204 36.892,18.93 58.63,48.657 90.379,116.78 82.861,202.53 -0.43335,4.9431 -0.94391,9.3932 -1.5,13.437 2.0142,0.1259 4.0325,0.7352 5.875,1.875 0,0 31.499,22.017 88.906,44.188 26.523,10.243 33.838,30.305 33.625,40.562 l 15.969,-16.406 c 10.005,11.274 9.739,28.531 -0.9375,39.5 -10.6765,10.969 -27.922,11.69 -39.469,2 l 14.156,-14.562 c -31.381,6.4329 -98.769,-64.663 -123.62,-73.219 -10.878,27.449 -27.875,-6.7812 -27.875,-6.7812 -1e-5,0 24.985,-153.91 -78.295,-202.37 -64.55,-30.287 -34.074,-49.465 -6.5835,-49.688 z" />
                            </g>
                            <g
                               style="fill:#999999;stroke:#999999;stroke-width:37.59096909;stroke-linejoin:round;stroke-miterlimit:4;stroke-dasharray:none"
                               id="g4228"
                               transform="matrix(0.49802,0,0,0.49799,161.32,311.8)">
                              <path
                                 style="fill:#999999;stroke:#999999;stroke-width:37.59096909;stroke-linejoin:round;stroke-miterlimit:4;stroke-dasharray:none"
                                 inkscape:connector-curvature="0"
                                 id="path4230"
                                 d="m 227.33,379.13 c -5.4534,-2.4579 -19.475,3.3917 -27.729,2.924 0,0 -58.056,-0.0309 -148.32,-22.308 -51.062,-12.602 -79.298,17.935 -79.898,28.495 0.07451,0.72487 0.18135,1.4383 0.31018,2.1327 -4.2832,-0.7577 -8.8342,0.69997 -11.857,4.2722 0,0 -23.144,30.651 -70.872,69.498 -16.756,13.637 -21.22,29.257 -20.915,40.215 -2.6714,1.3174 -23.382,11.214 -58.315,19.39 -16.052,3.7569 -22.626,14.163 -24.098,20.735 l -8.8072,-20.797 c -13.413,6.8777 -19.463,23.074 -13.492,37.169 5.9714,14.094 21.811,21.032 36.086,16.189 l -10.356,-24.485 c 17.568,10.125 68.677,-31.133 84.984,-33.894 33.213,15.041 82.905,-94.539 105.1,-107.72 1.1457,-1.5663 1.9416,-3.2731 2.3959,-5.0365 39.93,31 183.82,1.1167 215.9,14.269 10.577,-0.14854 31.559,-26.15 32.159,-36.711 0.13128,-2.3102 -0.74218,-3.6488 -2.2692,-4.3369 z" />
                              <path
                                 style="fill:#999999;stroke:#999999;stroke-width:37.59096909;stroke-linejoin:round;stroke-miterlimit:4;stroke-dasharray:none"
                                 inkscape:connector-curvature="0"
                                 id="path4232"
                                 d="m 612.35,379.13 c 5.4534,-2.4579 19.475,3.3917 27.73,2.924 0,0 58.056,-0.0309 148.32,-22.308 51.062,-12.602 79.298,17.935 79.898,28.495 -0.0745,0.72487 -0.1814,1.4383 -0.3102,2.1327 4.2831,-0.7577 8.8341,0.69997 11.856,4.2722 0,0 23.144,30.651 70.872,69.498 16.756,13.637 21.22,29.257 20.914,40.215 2.6714,1.3174 23.382,11.214 58.315,19.39 16.052,3.7569 22.626,14.163 24.098,20.735 l 8.8072,-20.797 c 13.413,6.8777 19.463,23.074 13.492,37.169 -5.9714,14.094 -21.811,21.032 -36.086,16.189 l 10.356,-24.485 c -17.568,10.125 -68.677,-31.133 -84.984,-33.894 -33.213,15.041 -82.905,-94.539 -105.1,-107.72 -1.1457,-1.5663 -1.9416,-3.2731 -2.3959,-5.0365 -39.93,31 -183.82,1.1167 -215.9,14.269 -10.577,-0.14854 -31.559,-26.15 -32.159,-36.711 -0.1313,-2.3102 0.7422,-3.6488 2.2691,-4.3369 z" />
                            </g>
                            <path
                               style="fill:#999999;stroke:#999999;stroke-width:18.72049141;stroke-linejoin:round;stroke-miterlimit:4;stroke-dasharray:none"
                               inkscape:connector-curvature="0"
                               id="path4234"
                               d="m 426.37,466.6 c 75.426,-4.0948 89.967,30.632 86.563,172.2 -2.928,121.77 -72.974,190.49 -137.3,190.49 -7.1362,-25.946 -4.3502,-73.396 -4.4002,-201.56 -0.0524,-132.43 -1.6001,-108.59 55.138,-161.13 z" />
                            <path
                               style="fill:#999999;stroke:#999999;stroke-width:18.72049141;stroke-linejoin:round;stroke-miterlimit:4;stroke-dasharray:none"
                               inkscape:connector-curvature="0"
                               id="path4236"
                               d="m 320.4,473.38 c -78.917,-4.0948 -100.47,24.571 -96.911,166.14 3.0634,121.77 77.408,190.49 144.71,190.49 7.4665,-25.946 3.4947,-73.396 3.547,-201.56 0.0548,-132.43 8.0156,-102.53 -51.349,-155.07 z" />
                            <path
                               style="fill:#999999;stroke:#999999;stroke-width:18.72049141;stroke-linejoin:round;stroke-miterlimit:4;stroke-dasharray:none"
                               inkscape:connector-curvature="0"
                               id="path4238"
                               d="m 319.71,539.34 c -26.703,0 -68.923,-28.186 -59.3,-52.436 14.247,-35.901 118.6,-10e-6 118.6,-10e-6 0,0 -32.597,52.436 -59.3,52.436 z m 110.49,0 c -26.703,0 -68.923,-28.186 -59.3,-52.436 14.247,-35.901 118.6,-10e-6 118.6,-10e-6 0,0 -32.597,52.436 -59.3,52.436 z" />
                            <path
                               style="fill:#999999;stroke:#999999;stroke-width:55.97000122;stroke-linejoin:round;stroke-miterlimit:4;stroke-dasharray:none"
                               inkscape:connector-curvature="0"
                               id="path4240"
                               d="m -282.86,669.51 a 82.857,82.857 0 1 1 -165.71,0 82.857,82.857 0 1 1 165.71,0 z"
                               transform="matrix(0.40678,0,0,0.27502,517.15,337.1)" />
                            <g
                               style="fill:#999999;stroke:#999999;stroke-width:25.1696167;stroke-linejoin:round;stroke-miterlimit:4;stroke-dasharray:none"
                               id="g4242"
                               transform="matrix(0.64309,0,0,0.86022,100.47,-81.981)">
                              <path
                                 style="fill:#999999;stroke:#999999;stroke-width:46.4437561;stroke-linejoin:round;stroke-miterlimit:4;stroke-dasharray:none"
                                 inkscape:connector-curvature="0"
                                 id="path4244"
                                 d="m -282.86,669.51 c 0,45.761 -37.096,82.857 -82.857,82.857 -45.761,0 -82.857,-37.096 -82.857,-82.857 0,-45.761 37.096,-82.857 82.857,-82.857 45.761,0 82.857,37.096 82.857,82.857 z"
                                 transform="matrix(0.60154,0.25961,-0.17763,0.41158,680.34,611.75)" />
                              <path
                                 style="fill:#999999;stroke:#999999;stroke-width:46.4437561;stroke-linejoin:round;stroke-miterlimit:4;stroke-dasharray:none"
                                 inkscape:connector-curvature="0"
                                 id="path4246"
                                 d="m -282.86,669.51 c 0,45.761 -37.096,82.857 -82.857,82.857 -45.761,0 -82.857,-37.096 -82.857,-82.857 0,-45.761 37.096,-82.857 82.857,-82.857 45.761,0 82.857,37.096 82.857,82.857 z"
                                 transform="matrix(-0.60154,0.25961,0.17763,0.41158,163.62,611.75)" />
                            </g>
                            <g
                               style="fill:#999999;stroke:#999999;stroke-width:37.59096909;stroke-linejoin:round;stroke-miterlimit:4;stroke-dasharray:none"
                               id="g4248"
                               transform="matrix(0.49802,0,0,0.49799,161.78,333.33)">
                              <path
                                 style="fill:#999999;stroke:#999999;stroke-width:37.59096909;stroke-linejoin:round;stroke-miterlimit:4;stroke-dasharray:none"
                                 inkscape:connector-curvature="0"
                                 id="path4250"
                                 d="m 71.893,28.825 c -1.5533,0.13772 -3.1329,0.49107 -4.6564,1.0938 -8.1249,3.2148 -12.288,12.149 -9.7197,20.361 l 14.113,-5.59 c -6.0692,9.8566 16.801,39.592 18.175,48.959 -9.108,18.746 52.795,48.62 60.017,61.47 0.88297,0.67896 1.8677,1.167 2.8736,1.4497 -18.244,22.354 -3.1551,104.89 -11.1,123.01 -0.0547,5.4997 11.998,16.193 18.698,18.428 -1.3581,4.1469 -2.3613,8.8522 -3.2498,14.91 5.1194,10.965 18.099,26.476 28.378,25.446 13.082,-11.858 26.402,-41.976 25.356,-58.911 -6.3181,-8.1782 -27.137,-5.4924 -37.99,-3.1294 -3.6459,4.8473 -6.4187,8.7736 -8.5844,12.691 -0.51584,-2.7348 -1.0786,-5.5539 -0.90672,-7.6822 0,0 0.83816,-33.148 14.787,-84.354 7.8907,-28.967 -9.1574,-45.476 -15.176,-45.963 -0.40938,0.0322 -0.81933,0.087 -1.2124,0.14982 0.49523,-2.4367 -0.29152,-5.0534 -2.2915,-6.8295 0,0 -17.169,-13.625 -38.684,-41.394 -7.56,-9.758 -16.41,-12.529 -22.664,-12.51 -0.691,-1.488 -6.087,-13.452 -10.286,-33.553 -1.928,-9.23 -7.797,-13.092 -11.526,-14.012 l 12.012,-4.755 c -3.04,-6.296 -9.642,-9.902 -16.373,-9.305 z" />
                              <path
                                 style="fill:#999999;stroke:#999999;stroke-width:37.59096909;stroke-linejoin:round;stroke-miterlimit:4;stroke-dasharray:none"
                                 inkscape:connector-curvature="0"
                                 id="path4252"
                                 d="m 768.57,30.259 c 1.5533,0.13772 3.133,0.49107 4.6564,1.0938 8.1249,3.2148 12.288,12.149 9.7197,20.361 l -14.113,-5.5895 c 6.0692,9.8566 -16.801,39.592 -18.175,48.959 9.108,18.746 -52.795,48.62 -60.017,61.47 -0.88297,0.67896 -1.8677,1.167 -2.8736,1.4497 18.244,22.354 3.1551,104.89 11.1,123.01 0.0547,5.4997 -11.998,16.193 -18.698,18.428 1.3581,4.1469 2.3613,8.8522 3.2498,14.91 -5.1194,10.965 -18.099,26.476 -28.378,25.446 -13.082,-11.858 -26.402,-41.976 -25.356,-58.911 6.3181,-8.1782 27.137,-5.4924 37.99,-3.1294 3.6459,4.8473 6.4187,8.7736 8.5844,12.691 0.51584,-2.7348 1.0786,-5.5539 0.90672,-7.6822 0,0 -0.83816,-33.148 -14.787,-84.354 -7.8907,-28.967 9.1574,-45.476 15.176,-45.963 0.40938,0.0322 0.81933,0.087 1.2124,0.14982 -0.49523,-2.4367 0.29152,-5.0534 2.2915,-6.8295 0,0 17.169,-13.625 38.684,-41.394 7.5472,-9.741 16.397,-12.512 22.654,-12.492 0.69109,-1.4884 6.0874,-13.452 10.286,-33.554 1.928,-9.2298 7.7967,-13.092 11.526,-14.012 l -12.012,-4.7549 c 3.0398,-6.2956 9.6415,-9.9017 16.373,-9.3049 z" />
                            </g>
                            <g
                               style="fill:#999999;stroke:#999999;stroke-width:18.72049141;stroke-linejoin:round;stroke-miterlimit:4;stroke-dasharray:none"
                               id="g4254"
                               transform="translate(-485.88,-111.12)">
                              <path
                                 style="fill:#999999;stroke:#999999;stroke-width:18.72049141;stroke-linejoin:round;stroke-miterlimit:4;stroke-dasharray:none"
                                 inkscape:connector-curvature="0"
                                 id="path4256"
                                 d="m 715.27,430.2 c -4.6578,-0.38167 -6.9191,8.6673 0.38285,15.725 5.559,5.3734 -0.52164,1.1363 9.8072,10.103 10.987,9.5384 6.1505,25.07 11.477,26.789 7.3148,2.3599 43.675,-3.7696 52.359,-2.3639 15.742,2.5482 10.653,18.656 23.752,17.474 6.5498,-0.59105 81.565,0.84892 91.295,-0.70537 9.7306,-1.5543 4.4632,-15.22 10.85,-15.549 8.7825,-0.45255 52.678,5.7473 59.41,-1.8964 6.5127,-7.3951 12.524,-21.987 18.314,-28.978 4.6654,-5.6342 9.97555,-10.987 7.78685,-17.174 -2.18865,-6.1868 -6.07555,-7.9107 -13.61395,-0.69278 -7.5386,7.2179 -6.8902,32.357 -17.789,40.491 -16.587,12.38 -55.026,-7.5507 -62.493,3.319 -5.6105,8.1681 -1.4757,5.9749 -8.9983,11.657 -4.917,3.7142 -75.458,10.879 -83.554,-0.96063 -6.534,-9.5562 -11.684,-8.8678 -20.611,-13.77 -9.8234,-5.3944 -38.4,6.5709 -47.478,0.29535 -11.186,-7.7334 -7.8665,-28.031 -15.177,-35.48 -8.614,-8.7781 -9.9763,-7.8121 -15.722,-8.2829 z" />
                              <path
                                 style="fill:#999999;fill-rule:evenodd;stroke:#999999;stroke-width:18.72049141;stroke-linejoin:round;stroke-miterlimit:4;stroke-dasharray:none"
                                 inkscape:connector-curvature="0"
                                 id="path4258"
                                 d="m 767.43,509.25 c -28.02,23.465 -42.041,71.906 -24.585,95.37 55.949,19.038 170.61,19.873 223.33,0 17.455,-23.465 1.9634,-73.926 -20.545,-97.391 -45.339,-7.3939 -125.75,-7.5574 -178.2,2.0203 z" />
                              <path
                                 style="fill:#999999;stroke:#999999;stroke-width:18.72049141;stroke-linejoin:round;stroke-miterlimit:4;stroke-dasharray:none"
                                 inkscape:connector-curvature="0"
                                 id="path4260"
                                 d="m 789.58,485.71 65.911,-2.5254 66.921,2.5254 c 12.136,0.45799 19.447,6.6646 19.447,14.943 -4.3937,42.39 -167.9,42.476 -171.73,0 0,-8.2784 10.189,-14.943 19.447,-14.943 z" />
                              <path
                                 style="fill:#999999;fill-rule:evenodd;stroke:#999999;stroke-width:18.72049141;stroke-linejoin:round;stroke-miterlimit:4;stroke-dasharray:none"
                                 inkscape:connector-curvature="0"
                                 id="path4262"
                                 d="m 767.37,511.1 c -11.265,3.4405 -23.134,26.952 -28.921,47.355 -5.7016,20.101 3.0333,53.597 3.4796,40.198 1.7175,-51.565 19.113,-73.038 35.433,-85.024 15.425,-11.328 -5.3513,-3.9461 -9.9912,-2.529 z" />
                              <path
                                 style="fill:#999999;fill-rule:evenodd;stroke:#999999;stroke-width:18.72049141;stroke-linejoin:round;stroke-miterlimit:4;stroke-dasharray:none"
                                 inkscape:connector-curvature="0"
                                 id="path4264"
                                 d="m 943.33,507.89 c 11.265,3.4405 22.629,29.478 28.416,49.88 5.7016,20.101 -6.3928,56.562 -4.9948,43.228 5.3535,-51.06 -14.567,-76.069 -30.887,-88.054 -15.425,-11.328 2.826,-6.4715 7.4658,-5.0544 z" />
                              <path
                                 style="fill:#999999;stroke:#999999;stroke-width:18.72049141;stroke-linejoin:round;stroke-miterlimit:4;stroke-dasharray:none"
                                 inkscape:connector-curvature="0"
                                 id="path4266"
                                 d="m 845.71,458.87 c 0,7.8898 -10.873,14.286 -24.286,14.286 -13.413,0 -24.286,-6.3959 -24.286,-14.286 0,-7.8898 10.873,-14.286 24.286,-14.286 13.413,0 24.286,6.3959 24.286,14.286 z"
                                 transform="translate(31.801,141.92)" />
                            </g>
                            <path
                               style="fill:#999999;stroke:#999999;stroke-width:46.36863708;stroke-linejoin:round;stroke-miterlimit:4;stroke-dasharray:none"
                               inkscape:connector-curvature="0"
                               id="path4268"
                               d="m -282.86,669.51 a 82.857,82.857 0 1 1 -165.71,0 82.857,82.857 0 1 1 165.71,0 z"
                               transform="matrix(0.4608,-0.18809,-0.13607,-0.29819,568.36,862.2)" />
                            <path
                               style="fill:#999999;stroke:#999999;stroke-width:46.36863708;stroke-linejoin:round;stroke-miterlimit:4;stroke-dasharray:none"
                               inkscape:connector-curvature="0"
                               id="path4270"
                               d="m -282.86,669.51 a 82.857,82.857 0 1 1 -165.71,0 82.857,82.857 0 1 1 165.71,0 z"
                               transform="matrix(-0.4608,-0.18809,0.13607,-0.29819,172.53,863.62)" />
                            <path
                               style="fill:#999999;stroke:#999999;stroke-width:18.72049141;stroke-linejoin:round;stroke-miterlimit:4;stroke-dasharray:none"
                               inkscape:connector-curvature="0"
                               id="path4272"
                               d="m 441.08,806.47 c -8.2928,-13.892 -34.747,-22.24 -49.118,-13.661 -13.6,8.1184 -18.862,24.991 -12.077,38.719 0,0 22.818,-3.6803 33.153,-8.5151 8.5518,-4.0007 28.041,-16.543 28.041,-16.543 z" />
                            <path
                               style="fill:#999999;stroke:#999999;stroke-width:18.72049141;stroke-linejoin:round;stroke-miterlimit:4;stroke-dasharray:none"
                               inkscape:connector-curvature="0"
                               id="path4274"
                               d="m 515.08,638.41 c -17.988,-0.16889 -31.096,8.6762 -33.79,25.195 -2.5491,15.632 18.713,58.362 22.346,43.268 0,0 7.6334,-26.453 8.5873,-38.553 0.87154,-11.056 2.857,-29.91 2.857,-29.91 z" />
                            <path
                               style="fill:#999999;stroke:#999999;stroke-width:18.72049141;stroke-linejoin:round;stroke-miterlimit:4;stroke-dasharray:none"
                               inkscape:connector-curvature="0"
                               id="path4276"
                               d="m 302.18,806.83 c 8.2928,-14.557 34.747,-23.305 49.118,-14.315 13.6,8.5071 18.862,26.188 12.077,40.573 0,0 -22.818,-3.8566 -33.153,-8.9228 -8.5518,-4.1922 -28.041,-17.335 -28.041,-17.335 z" />
                            <path
                               style="fill:#999999;stroke:#999999;stroke-width:18.72049141;stroke-linejoin:round;stroke-miterlimit:4;stroke-dasharray:none"
                               inkscape:connector-curvature="0"
                               id="path4278"
                               d="m 223.04,642.28 c 15.968,-2.6038 29.581,8.6762 32.275,25.195 2.5491,15.632 -8.9886,33.556 -23.861,37.207 l -7.072,-32.492 z" />
                          </g>
                        </g>
                      </g>
                    </g>
                  </g>
                </g>
              </g>
            </g>
          </g>
        </g>
      </g>
      <g
         id="g3390"
         transform="translate(-120.76699,0)"
         style="fill:#ffffff;stroke:#ffffff;stroke-width:2.66600966;stroke-linejoin:round;stroke-miterlimit:4;stroke-dasharray:none">
        <g
           id="g3350"
           style="fill:#ffffff;stroke:#ffffff;stroke-width:2.66600966;stroke-linejoin:round;stroke-miterlimit:4;stroke-dasharray:none">
          <g
             id="g3311"
             style="fill:#ffffff;stroke:#ffffff;stroke-width:2.66600966;stroke-linejoin:round;stroke-miterlimit:4;stroke-dasharray:none">
            <g
               id="g3273"
               style="fill:#ffffff;stroke:#ffffff;stroke-width:2.66600966;stroke-linejoin:round;stroke-miterlimit:4;stroke-dasharray:none">
              <g
                 id="g3236"
                 style="fill:#ffffff;stroke:#ffffff;stroke-width:2.66600966;stroke-linejoin:round;stroke-miterlimit:4;stroke-dasharray:none">
                <g
                   id="g3200"
                   style="fill:#ffffff;stroke:#ffffff;stroke-width:2.66600966;stroke-linejoin:round;stroke-miterlimit:4;stroke-dasharray:none">
                  <g
                     id="g3165"
                     style="fill:#ffffff;stroke:#ffffff;stroke-width:2.66600966;stroke-linejoin:round;stroke-miterlimit:4;stroke-dasharray:none">
                    <g
                       id="g3131"
                       style="fill:#ffffff;stroke:#ffffff;stroke-width:2.66600966;stroke-linejoin:round;stroke-miterlimit:4;stroke-dasharray:none">
                      <g
                         id="g3098"
                         style="fill:#ffffff;stroke:#ffffff;stroke-width:2.66600966;stroke-linejoin:round;stroke-miterlimit:4;stroke-dasharray:none">
                        <g
                           transform="matrix(0.14241129,0,0,0.14241129,-6.0255502,-45.157304)"
                           id="g3036"
                           style="fill:#ffffff;stroke:#ffffff;stroke-width:18.72049141;stroke-linejoin:round;stroke-miterlimit:4;stroke-dasharray:none">
                          <g
                             id="g3038"
                             style="fill:#ffffff;stroke:#ffffff;stroke-width:18.72049141;stroke-linejoin:round;stroke-miterlimit:4;stroke-dasharray:none">
                            <g
                               transform="matrix(0.55948,0,0,0.74523,130.61,-2.1688)"
                               id="g3040"
                               style="fill:#ffffff;stroke:#ffffff;stroke-width:28.9921093;stroke-linejoin:round;stroke-miterlimit:4;stroke-dasharray:none">
                              <path
                                 d="m 174.06,763.72 c -16.494,-0.13368 -32.053,21.626 -31.476,24.352 -56.824,50.012 -106.63,116.78 -99.111,202.53 0.43335,4.9431 0.94391,9.3932 1.5,13.437 -2.0142,0.1259 -4.0325,0.7352 -5.875,1.875 0,0 -31.499,22.017 -88.906,44.188 -26.523,10.243 -33.838,30.305 -33.625,40.562 l -15.969,-16.406 c -10.005,11.274 -9.739,28.531 0.9375,39.5 10.6765,10.969 27.922,11.69 39.469,2 l -14.156,-14.562 c 31.381,6.4329 98.769,-64.663 123.62,-73.219 10.878,27.449 27.875,-6.7812 27.875,-6.7812 10e-6,0 -21.374,-151.2 81.906,-199.66 64.55,-30.287 41.296,-57.598 13.806,-57.821 z"
                                 id="path3042"
                                 inkscape:connector-curvature="0"
                                 style="fill:#ffffff;stroke:#ffffff;stroke-width:28.9921093;stroke-linejoin:round;stroke-miterlimit:4;stroke-dasharray:none" />
                              <path
                                 d="m 671,769.14 c 16.494,-0.13368 37.47,16.204 36.892,18.93 58.63,48.657 90.379,116.78 82.861,202.53 -0.43335,4.9431 -0.94391,9.3932 -1.5,13.437 2.0142,0.1259 4.0325,0.7352 5.875,1.875 0,0 31.499,22.017 88.906,44.188 26.523,10.243 33.838,30.305 33.625,40.562 l 15.969,-16.406 c 10.005,11.274 9.739,28.531 -0.9375,39.5 -10.6765,10.969 -27.922,11.69 -39.469,2 l 14.156,-14.562 c -31.381,6.4329 -98.769,-64.663 -123.62,-73.219 -10.878,27.449 -27.875,-6.7812 -27.875,-6.7812 -1e-5,0 24.985,-153.91 -78.295,-202.37 -64.55,-30.287 -34.074,-49.465 -6.5835,-49.688 z"
                                 id="path3044"
                                 inkscape:connector-curvature="0"
                                 style="fill:#ffffff;stroke:#ffffff;stroke-width:28.9921093;stroke-linejoin:round;stroke-miterlimit:4;stroke-dasharray:none" />
                            </g>
                            <g
                               transform="matrix(0.49802,0,0,0.49799,161.32,311.8)"
                               id="g3046"
                               style="fill:#ffffff;stroke:#ffffff;stroke-width:37.59096909;stroke-linejoin:round;stroke-miterlimit:4;stroke-dasharray:none">
                              <path
                                 d="m 227.33,379.13 c -5.4534,-2.4579 -19.475,3.3917 -27.729,2.924 0,0 -58.056,-0.0309 -148.32,-22.308 -51.062,-12.602 -79.298,17.935 -79.898,28.495 0.07451,0.72487 0.18135,1.4383 0.31018,2.1327 -4.2832,-0.7577 -8.8342,0.69997 -11.857,4.2722 0,0 -23.144,30.651 -70.872,69.498 -16.756,13.637 -21.22,29.257 -20.915,40.215 -2.6714,1.3174 -23.382,11.214 -58.315,19.39 -16.052,3.7569 -22.626,14.163 -24.098,20.735 l -8.8072,-20.797 c -13.413,6.8777 -19.463,23.074 -13.492,37.169 5.9714,14.094 21.811,21.032 36.086,16.189 l -10.356,-24.485 c 17.568,10.125 68.677,-31.133 84.984,-33.894 33.213,15.041 82.905,-94.539 105.1,-107.72 1.1457,-1.5663 1.9416,-3.2731 2.3959,-5.0365 39.93,31 183.82,1.1167 215.9,14.269 10.577,-0.14854 31.559,-26.15 32.159,-36.711 0.13128,-2.3102 -0.74218,-3.6488 -2.2692,-4.3369 z"
                                 id="path3048"
                                 inkscape:connector-curvature="0"
                                 style="fill:#ffffff;stroke:#ffffff;stroke-width:37.59096909;stroke-linejoin:round;stroke-miterlimit:4;stroke-dasharray:none" />
                              <path
                                 d="m 612.35,379.13 c 5.4534,-2.4579 19.475,3.3917 27.73,2.924 0,0 58.056,-0.0309 148.32,-22.308 51.062,-12.602 79.298,17.935 79.898,28.495 -0.0745,0.72487 -0.1814,1.4383 -0.3102,2.1327 4.2831,-0.7577 8.8341,0.69997 11.856,4.2722 0,0 23.144,30.651 70.872,69.498 16.756,13.637 21.22,29.257 20.914,40.215 2.6714,1.3174 23.382,11.214 58.315,19.39 16.052,3.7569 22.626,14.163 24.098,20.735 l 8.8072,-20.797 c 13.413,6.8777 19.463,23.074 13.492,37.169 -5.9714,14.094 -21.811,21.032 -36.086,16.189 l 10.356,-24.485 c -17.568,10.125 -68.677,-31.133 -84.984,-33.894 -33.213,15.041 -82.905,-94.539 -105.1,-107.72 -1.1457,-1.5663 -1.9416,-3.2731 -2.3959,-5.0365 -39.93,31 -183.82,1.1167 -215.9,14.269 -10.577,-0.14854 -31.559,-26.15 -32.159,-36.711 -0.1313,-2.3102 0.7422,-3.6488 2.2691,-4.3369 z"
                                 id="path3050"
                                 inkscape:connector-curvature="0"
                                 style="fill:#ffffff;stroke:#ffffff;stroke-width:37.59096909;stroke-linejoin:round;stroke-miterlimit:4;stroke-dasharray:none" />
                            </g>
                            <path
                               d="m 426.37,466.6 c 75.426,-4.0948 89.967,30.632 86.563,172.2 -2.928,121.77 -72.974,190.49 -137.3,190.49 -7.1362,-25.946 -4.3502,-73.396 -4.4002,-201.56 -0.0524,-132.43 -1.6001,-108.59 55.138,-161.13 z"
                               id="path3052"
                               inkscape:connector-curvature="0"
                               style="fill:#ffffff;stroke:#ffffff;stroke-width:18.72049141;stroke-linejoin:round;stroke-miterlimit:4;stroke-dasharray:none" />
                            <path
                               d="m 320.4,473.38 c -78.917,-4.0948 -100.47,24.571 -96.911,166.14 3.0634,121.77 77.408,190.49 144.71,190.49 7.4665,-25.946 3.4947,-73.396 3.547,-201.56 0.0548,-132.43 8.0156,-102.53 -51.349,-155.07 z"
                               id="path3054"
                               inkscape:connector-curvature="0"
                               style="fill:#ffffff;stroke:#ffffff;stroke-width:18.72049141;stroke-linejoin:round;stroke-miterlimit:4;stroke-dasharray:none" />
                            <path
                               d="m 319.71,539.34 c -26.703,0 -68.923,-28.186 -59.3,-52.436 14.247,-35.901 118.6,-10e-6 118.6,-10e-6 0,0 -32.597,52.436 -59.3,52.436 z m 110.49,0 c -26.703,0 -68.923,-28.186 -59.3,-52.436 14.247,-35.901 118.6,-10e-6 118.6,-10e-6 0,0 -32.597,52.436 -59.3,52.436 z"
                               id="path3056"
                               inkscape:connector-curvature="0"
                               style="fill:#ffffff;stroke:#ffffff;stroke-width:18.72049141;stroke-linejoin:round;stroke-miterlimit:4;stroke-dasharray:none" />
                            <path
                               transform="matrix(0.40678,0,0,0.27502,517.15,337.1)"
                               d="m -282.86,669.51 a 82.857,82.857 0 1 1 -165.71,0 82.857,82.857 0 1 1 165.71,0 z"
                               id="path3058"
                               inkscape:connector-curvature="0"
                               style="fill:#ffffff;stroke:#ffffff;stroke-width:55.97000122;stroke-linejoin:round;stroke-miterlimit:4;stroke-dasharray:none" />
                            <g
                               transform="matrix(0.64309,0,0,0.86022,100.47,-81.981)"
                               id="g3060"
                               style="fill:#ffffff;stroke:#ffffff;stroke-width:25.1696167;stroke-linejoin:round;stroke-miterlimit:4;stroke-dasharray:none">
                              <path
                                 transform="matrix(0.60154,0.25961,-0.17763,0.41158,680.34,611.75)"
                                 d="m -282.86,669.51 c 0,45.761 -37.096,82.857 -82.857,82.857 -45.761,0 -82.857,-37.096 -82.857,-82.857 0,-45.761 37.096,-82.857 82.857,-82.857 45.761,0 82.857,37.096 82.857,82.857 z"
                                 id="path3062"
                                 inkscape:connector-curvature="0"
                                 style="fill:#ffffff;stroke:#ffffff;stroke-width:46.4437561;stroke-linejoin:round;stroke-miterlimit:4;stroke-dasharray:none" />
                              <path
                                 transform="matrix(-0.60154,0.25961,0.17763,0.41158,163.62,611.75)"
                                 d="m -282.86,669.51 c 0,45.761 -37.096,82.857 -82.857,82.857 -45.761,0 -82.857,-37.096 -82.857,-82.857 0,-45.761 37.096,-82.857 82.857,-82.857 45.761,0 82.857,37.096 82.857,82.857 z"
                                 id="path3064"
                                 inkscape:connector-curvature="0"
                                 style="fill:#ffffff;stroke:#ffffff;stroke-width:46.4437561;stroke-linejoin:round;stroke-miterlimit:4;stroke-dasharray:none" />
                            </g>
                            <g
                               transform="matrix(0.49802,0,0,0.49799,161.78,333.33)"
                               id="g3066"
                               style="fill:#ffffff;stroke:#ffffff;stroke-width:37.59096909;stroke-linejoin:round;stroke-miterlimit:4;stroke-dasharray:none">
                              <path
                                 d="m 71.893,28.825 c -1.5533,0.13772 -3.1329,0.49107 -4.6564,1.0938 -8.1249,3.2148 -12.288,12.149 -9.7197,20.361 l 14.113,-5.59 c -6.0692,9.8566 16.801,39.592 18.175,48.959 -9.108,18.746 52.795,48.62 60.017,61.47 0.88297,0.67896 1.8677,1.167 2.8736,1.4497 -18.244,22.354 -3.1551,104.89 -11.1,123.01 -0.0547,5.4997 11.998,16.193 18.698,18.428 -1.3581,4.1469 -2.3613,8.8522 -3.2498,14.91 5.1194,10.965 18.099,26.476 28.378,25.446 13.082,-11.858 26.402,-41.976 25.356,-58.911 -6.3181,-8.1782 -27.137,-5.4924 -37.99,-3.1294 -3.6459,4.8473 -6.4187,8.7736 -8.5844,12.691 -0.51584,-2.7348 -1.0786,-5.5539 -0.90672,-7.6822 0,0 0.83816,-33.148 14.787,-84.354 7.8907,-28.967 -9.1574,-45.476 -15.176,-45.963 -0.40938,0.0322 -0.81933,0.087 -1.2124,0.14982 0.49523,-2.4367 -0.29152,-5.0534 -2.2915,-6.8295 0,0 -17.169,-13.625 -38.684,-41.394 -7.56,-9.758 -16.41,-12.529 -22.664,-12.51 -0.691,-1.488 -6.087,-13.452 -10.286,-33.553 -1.928,-9.23 -7.797,-13.092 -11.526,-14.012 l 12.012,-4.755 c -3.04,-6.296 -9.642,-9.902 -16.373,-9.305 z"
                                 id="path3068"
                                 inkscape:connector-curvature="0"
                                 style="fill:#ffffff;stroke:#ffffff;stroke-width:37.59096909;stroke-linejoin:round;stroke-miterlimit:4;stroke-dasharray:none" />
                              <path
                                 d="m 768.57,30.259 c 1.5533,0.13772 3.133,0.49107 4.6564,1.0938 8.1249,3.2148 12.288,12.149 9.7197,20.361 l -14.113,-5.5895 c 6.0692,9.8566 -16.801,39.592 -18.175,48.959 9.108,18.746 -52.795,48.62 -60.017,61.47 -0.88297,0.67896 -1.8677,1.167 -2.8736,1.4497 18.244,22.354 3.1551,104.89 11.1,123.01 0.0547,5.4997 -11.998,16.193 -18.698,18.428 1.3581,4.1469 2.3613,8.8522 3.2498,14.91 -5.1194,10.965 -18.099,26.476 -28.378,25.446 -13.082,-11.858 -26.402,-41.976 -25.356,-58.911 6.3181,-8.1782 27.137,-5.4924 37.99,-3.1294 3.6459,4.8473 6.4187,8.7736 8.5844,12.691 0.51584,-2.7348 1.0786,-5.5539 0.90672,-7.6822 0,0 -0.83816,-33.148 -14.787,-84.354 -7.8907,-28.967 9.1574,-45.476 15.176,-45.963 0.40938,0.0322 0.81933,0.087 1.2124,0.14982 -0.49523,-2.4367 0.29152,-5.0534 2.2915,-6.8295 0,0 17.169,-13.625 38.684,-41.394 7.5472,-9.741 16.397,-12.512 22.654,-12.492 0.69109,-1.4884 6.0874,-13.452 10.286,-33.554 1.928,-9.2298 7.7967,-13.092 11.526,-14.012 l -12.012,-4.7549 c 3.0398,-6.2956 9.6415,-9.9017 16.373,-9.3049 z"
                                 id="path3070"
                                 inkscape:connector-curvature="0"
                                 style="fill:#ffffff;stroke:#ffffff;stroke-width:37.59096909;stroke-linejoin:round;stroke-miterlimit:4;stroke-dasharray:none" />
                            </g>
                            <g
                               transform="translate(-485.88,-111.12)"
                               id="g3072"
                               style="fill:#ffffff;stroke:#ffffff;stroke-width:18.72049141;stroke-linejoin:round;stroke-miterlimit:4;stroke-dasharray:none">
                              <path
                                 d="m 715.27,430.2 c -4.6578,-0.38167 -6.9191,8.6673 0.38285,15.725 5.559,5.3734 -0.52164,1.1363 9.8072,10.103 10.987,9.5384 6.1505,25.07 11.477,26.789 7.3148,2.3599 43.675,-3.7696 52.359,-2.3639 15.742,2.5482 10.653,18.656 23.752,17.474 6.5498,-0.59105 81.565,0.84892 91.295,-0.70537 9.7306,-1.5543 4.4632,-15.22 10.85,-15.549 8.7825,-0.45255 52.678,5.7473 59.41,-1.8964 6.5127,-7.3951 12.524,-21.987 18.314,-28.978 4.6654,-5.6342 9.97555,-10.987 7.78685,-17.174 -2.18865,-6.1868 -6.07555,-7.9107 -13.61395,-0.69278 -7.5386,7.2179 -6.8902,32.357 -17.789,40.491 -16.587,12.38 -55.026,-7.5507 -62.493,3.319 -5.6105,8.1681 -1.4757,5.9749 -8.9983,11.657 -4.917,3.7142 -75.458,10.879 -83.554,-0.96063 -6.534,-9.5562 -11.684,-8.8678 -20.611,-13.77 -9.8234,-5.3944 -38.4,6.5709 -47.478,0.29535 -11.186,-7.7334 -7.8665,-28.031 -15.177,-35.48 -8.614,-8.7781 -9.9763,-7.8121 -15.722,-8.2829 z"
                                 id="path3074"
                                 inkscape:connector-curvature="0"
                                 style="fill:#ffffff;stroke:#ffffff;stroke-width:18.72049141;stroke-linejoin:round;stroke-miterlimit:4;stroke-dasharray:none" />
                              <path
                                 d="m 767.43,509.25 c -28.02,23.465 -42.041,71.906 -24.585,95.37 55.949,19.038 170.61,19.873 223.33,0 17.455,-23.465 1.9634,-73.926 -20.545,-97.391 -45.339,-7.3939 -125.75,-7.5574 -178.2,2.0203 z"
                                 id="path3076"
                                 inkscape:connector-curvature="0"
                                 style="fill:#ffffff;fill-rule:evenodd;stroke:#ffffff;stroke-width:18.72049141;stroke-linejoin:round;stroke-miterlimit:4;stroke-dasharray:none" />
                              <path
                                 d="m 789.58,485.71 65.911,-2.5254 66.921,2.5254 c 12.136,0.45799 19.447,6.6646 19.447,14.943 -4.3937,42.39 -167.9,42.476 -171.73,0 0,-8.2784 10.189,-14.943 19.447,-14.943 z"
                                 id="path3078"
                                 inkscape:connector-curvature="0"
                                 style="fill:#ffffff;stroke:#ffffff;stroke-width:18.72049141;stroke-linejoin:round;stroke-miterlimit:4;stroke-dasharray:none" />
                              <path
                                 d="m 767.37,511.1 c -11.265,3.4405 -23.134,26.952 -28.921,47.355 -5.7016,20.101 3.0333,53.597 3.4796,40.198 1.7175,-51.565 19.113,-73.038 35.433,-85.024 15.425,-11.328 -5.3513,-3.9461 -9.9912,-2.529 z"
                                 id="path3080"
                                 inkscape:connector-curvature="0"
                                 style="fill:#ffffff;fill-rule:evenodd;stroke:#ffffff;stroke-width:18.72049141;stroke-linejoin:round;stroke-miterlimit:4;stroke-dasharray:none" />
                              <path
                                 d="m 943.33,507.89 c 11.265,3.4405 22.629,29.478 28.416,49.88 5.7016,20.101 -6.3928,56.562 -4.9948,43.228 5.3535,-51.06 -14.567,-76.069 -30.887,-88.054 -15.425,-11.328 2.826,-6.4715 7.4658,-5.0544 z"
                                 id="path3082"
                                 inkscape:connector-curvature="0"
                                 style="fill:#ffffff;fill-rule:evenodd;stroke:#ffffff;stroke-width:18.72049141;stroke-linejoin:round;stroke-miterlimit:4;stroke-dasharray:none" />
                              <path
                                 transform="translate(31.801,141.92)"
                                 d="m 845.71,458.87 c 0,7.8898 -10.873,14.286 -24.286,14.286 -13.413,0 -24.286,-6.3959 -24.286,-14.286 0,-7.8898 10.873,-14.286 24.286,-14.286 13.413,0 24.286,6.3959 24.286,14.286 z"
                                 id="path3084"
                                 inkscape:connector-curvature="0"
                                 style="fill:#ffffff;stroke:#ffffff;stroke-width:18.72049141;stroke-linejoin:round;stroke-miterlimit:4;stroke-dasharray:none" />
                            </g>
                            <path
                               transform="matrix(0.4608,-0.18809,-0.13607,-0.29819,568.36,862.2)"
                               d="m -282.86,669.51 a 82.857,82.857 0 1 1 -165.71,0 82.857,82.857 0 1 1 165.71,0 z"
                               id="path3086"
                               inkscape:connector-curvature="0"
                               style="fill:#ffffff;stroke:#ffffff;stroke-width:46.36863708;stroke-linejoin:round;stroke-miterlimit:4;stroke-dasharray:none" />
                            <path
                               transform="matrix(-0.4608,-0.18809,0.13607,-0.29819,172.53,863.62)"
                               d="m -282.86,669.51 a 82.857,82.857 0 1 1 -165.71,0 82.857,82.857 0 1 1 165.71,0 z"
                               id="path3088"
                               inkscape:connector-curvature="0"
                               style="fill:#ffffff;stroke:#ffffff;stroke-width:46.36863708;stroke-linejoin:round;stroke-miterlimit:4;stroke-dasharray:none" />
                            <path
                               d="m 441.08,806.47 c -8.2928,-13.892 -34.747,-22.24 -49.118,-13.661 -13.6,8.1184 -18.862,24.991 -12.077,38.719 0,0 22.818,-3.6803 33.153,-8.5151 8.5518,-4.0007 28.041,-16.543 28.041,-16.543 z"
                               id="path3090"
                               inkscape:connector-curvature="0"
                               style="fill:#ffffff;stroke:#ffffff;stroke-width:18.72049141;stroke-linejoin:round;stroke-miterlimit:4;stroke-dasharray:none" />
                            <path
                               d="m 515.08,638.41 c -17.988,-0.16889 -31.096,8.6762 -33.79,25.195 -2.5491,15.632 18.713,58.362 22.346,43.268 0,0 7.6334,-26.453 8.5873,-38.553 0.87154,-11.056 2.857,-29.91 2.857,-29.91 z"
                               id="path3092"
                               inkscape:connector-curvature="0"
                               style="fill:#ffffff;stroke:#ffffff;stroke-width:18.72049141;stroke-linejoin:round;stroke-miterlimit:4;stroke-dasharray:none" />
                            <path
                               d="m 302.18,806.83 c 8.2928,-14.557 34.747,-23.305 49.118,-14.315 13.6,8.5071 18.862,26.188 12.077,40.573 0,0 -22.818,-3.8566 -33.153,-8.9228 -8.5518,-4.1922 -28.041,-17.335 -28.041,-17.335 z"
                               id="path3094"
                               inkscape:connector-curvature="0"
                               style="fill:#ffffff;stroke:#ffffff;stroke-width:18.72049141;stroke-linejoin:round;stroke-miterlimit:4;stroke-dasharray:none" />
                            <path
                               d="m 223.04,642.28 c 15.968,-2.6038 29.581,8.6762 32.275,25.195 2.5491,15.632 -8.9886,33.556 -23.861,37.207 l -7.072,-32.492 z"
                               id="path3096"
                               inkscape:connector-curvature="0"
                               style="fill:#ffffff;stroke:#ffffff;stroke-width:18.72049141;stroke-linejoin:round;stroke-miterlimit:4;stroke-dasharray:none" />
                          </g>
                        </g>
                      </g>
                    </g>
                  </g>
                </g>
              </g>
            </g>
          </g>
        </g>
      </g>
    </g>
    <g
       id="layer1"
       transform="matrix(0.14241129,0,0,0.14241129,-6.0255502,-45.157304)">
      <g
         id="g4452">
        <g
           id="g4638"
           transform="matrix(0.55948,0,0,0.74523,130.61,-2.1688)">
          <path
             inkscape:connector-curvature="0"
             id="path4640"
             d="m 174.06,763.72 c -16.494,-0.13368 -32.053,21.626 -31.476,24.352 -56.824,50.012 -106.63,116.78 -99.111,202.53 0.43335,4.9431 0.94391,9.3932 1.5,13.437 -2.0142,0.1259 -4.0325,0.7352 -5.875,1.875 0,0 -31.499,22.017 -88.906,44.188 -26.523,10.243 -33.838,30.305 -33.625,40.562 l -15.969,-16.406 c -10.005,11.274 -9.739,28.531 0.9375,39.5 10.6765,10.969 27.922,11.69 39.469,2 l -14.156,-14.562 c 31.381,6.4329 98.769,-64.663 123.62,-73.219 10.878,27.449 27.875,-6.7812 27.875,-6.7812 10e-6,0 -21.374,-151.2 81.906,-199.66 64.55,-30.287 41.296,-57.598 13.806,-57.821 z" />
          <path
             inkscape:connector-curvature="0"
             id="path4642"
             d="m 671,769.14 c 16.494,-0.13368 37.47,16.204 36.892,18.93 58.63,48.657 90.379,116.78 82.861,202.53 -0.43335,4.9431 -0.94391,9.3932 -1.5,13.437 2.0142,0.1259 4.0325,0.7352 5.875,1.875 0,0 31.499,22.017 88.906,44.188 26.523,10.243 33.838,30.305 33.625,40.562 l 15.969,-16.406 c 10.005,11.274 9.739,28.531 -0.9375,39.5 -10.6765,10.969 -27.922,11.69 -39.469,2 l 14.156,-14.562 c -31.381,6.4329 -98.769,-64.663 -123.62,-73.219 -10.878,27.449 -27.875,-6.7812 -27.875,-6.7812 -1e-5,0 24.985,-153.91 -78.295,-202.37 -64.55,-30.287 -34.074,-49.465 -6.5835,-49.688 z" />
        </g>
        <g
           id="g4656"
           transform="matrix(0.49802,0,0,0.49799,161.32,311.8)">
          <path
             inkscape:connector-curvature="0"
             id="path4658"
             d="m 227.33,379.13 c -5.4534,-2.4579 -19.475,3.3917 -27.729,2.924 0,0 -58.056,-0.0309 -148.32,-22.308 -51.062,-12.602 -79.298,17.935 -79.898,28.495 0.07451,0.72487 0.18135,1.4383 0.31018,2.1327 -4.2832,-0.7577 -8.8342,0.69997 -11.857,4.2722 0,0 -23.144,30.651 -70.872,69.498 -16.756,13.637 -21.22,29.257 -20.915,40.215 -2.6714,1.3174 -23.382,11.214 -58.315,19.39 -16.052,3.7569 -22.626,14.163 -24.098,20.735 l -8.8072,-20.797 c -13.413,6.8777 -19.463,23.074 -13.492,37.169 5.9714,14.094 21.811,21.032 36.086,16.189 l -10.356,-24.485 c 17.568,10.125 68.677,-31.133 84.984,-33.894 33.213,15.041 82.905,-94.539 105.1,-107.72 1.1457,-1.5663 1.9416,-3.2731 2.3959,-5.0365 39.93,31 183.82,1.1167 215.9,14.269 10.577,-0.14854 31.559,-26.15 32.159,-36.711 0.13128,-2.3102 -0.74218,-3.6488 -2.2692,-4.3369 z" />
          <path
             inkscape:connector-curvature="0"
             id="path4660"
             d="m 612.35,379.13 c 5.4534,-2.4579 19.475,3.3917 27.73,2.924 0,0 58.056,-0.0309 148.32,-22.308 51.062,-12.602 79.298,17.935 79.898,28.495 -0.0745,0.72487 -0.1814,1.4383 -0.3102,2.1327 4.2831,-0.7577 8.8341,0.69997 11.856,4.2722 0,0 23.144,30.651 70.872,69.498 16.756,13.637 21.22,29.257 20.914,40.215 2.6714,1.3174 23.382,11.214 58.315,19.39 16.052,3.7569 22.626,14.163 24.098,20.735 l 8.8072,-20.797 c 13.413,6.8777 19.463,23.074 13.492,37.169 -5.9714,14.094 -21.811,21.032 -36.086,16.189 l 10.356,-24.485 c -17.568,10.125 -68.677,-31.133 -84.984,-33.894 -33.213,15.041 -82.905,-94.539 -105.1,-107.72 -1.1457,-1.5663 -1.9416,-3.2731 -2.3959,-5.0365 -39.93,31 -183.82,1.1167 -215.9,14.269 -10.577,-0.14854 -31.559,-26.15 -32.159,-36.711 -0.1313,-2.3102 0.7422,-3.6488 2.2691,-4.3369 z" />
        </g>
        <path
           style="stroke:#000000;stroke-width:4.80414581"
           inkscape:connector-curvature="0"
           id="path43713-8"
           d="m 426.37,466.6 c 75.426,-4.0948 89.967,30.632 86.563,172.2 -2.928,121.77 -72.974,190.49 -137.3,190.49 -7.1362,-25.946 -4.3502,-73.396 -4.4002,-201.56 -0.0524,-132.43 -1.6001,-108.59 55.138,-161.13 z" />
        <path
           style="stroke:#000000;stroke-width:4.9141283"
           inkscape:connector-curvature="0"
           id="path43713-8-4"
           d="m 320.4,473.38 c -78.917,-4.0948 -100.47,24.571 -96.911,166.14 3.0634,121.77 77.408,190.49 144.71,190.49 7.4665,-25.946 3.4947,-73.396 3.547,-201.56 0.0548,-132.43 8.0156,-102.53 -51.349,-155.07 z" />
        <path
           style="fill:#ffdd55"
           inkscape:connector-curvature="0"
           id="path2226"
           d="m 319.71,539.34 c -26.703,0 -68.923,-28.186 -59.3,-52.436 14.247,-35.901 118.6,-10e-6 118.6,-10e-6 0,0 -32.597,52.436 -59.3,52.436 z m 110.49,0 c -26.703,0 -68.923,-28.186 -59.3,-52.436 14.247,-35.901 118.6,-10e-6 118.6,-10e-6 0,0 -32.597,52.436 -59.3,52.436 z" />
        <path
           inkscape:connector-curvature="0"
           id="path2230"
           d="m -282.86,669.51 a 82.857,82.857 0 1 1 -165.71,0 82.857,82.857 0 1 1 165.71,0 z"
           transform="matrix(0.40678,0,0,0.27502,517.15,337.1)" />
        <g
           style="fill:#ffdd55"
           id="g2267"
           transform="matrix(0.64309,0,0,0.86022,100.47,-81.981)">
          <path
             inkscape:connector-curvature="0"
             id="path2259"
             d="m -282.86,669.51 c 0,45.761 -37.096,82.857 -82.857,82.857 -45.761,0 -82.857,-37.096 -82.857,-82.857 0,-45.761 37.096,-82.857 82.857,-82.857 45.761,0 82.857,37.096 82.857,82.857 z"
             transform="matrix(0.60154,0.25961,-0.17763,0.41158,680.34,611.75)" />
          <path
             inkscape:connector-curvature="0"
             id="path2265"
             d="m -282.86,669.51 c 0,45.761 -37.096,82.857 -82.857,82.857 -45.761,0 -82.857,-37.096 -82.857,-82.857 0,-45.761 37.096,-82.857 82.857,-82.857 45.761,0 82.857,37.096 82.857,82.857 z"
             transform="matrix(-0.60154,0.25961,0.17763,0.41158,163.62,611.75)" />
        </g>
        <g
           id="g2490"
           transform="matrix(0.49802,0,0,0.49799,161.78,333.33)">
          <path
             inkscape:connector-curvature="0"
             id="path2461"
             d="m 71.893,28.825 c -1.5533,0.13772 -3.1329,0.49107 -4.6564,1.0938 -8.1249,3.2148 -12.288,12.149 -9.7197,20.361 l 14.113,-5.59 c -6.0692,9.8566 16.801,39.592 18.175,48.959 -9.108,18.746 52.795,48.62 60.017,61.47 0.88297,0.67896 1.8677,1.167 2.8736,1.4497 -18.244,22.354 -3.1551,104.89 -11.1,123.01 -0.0547,5.4997 11.998,16.193 18.698,18.428 -1.3581,4.1469 -2.3613,8.8522 -3.2498,14.91 5.1194,10.965 18.099,26.476 28.378,25.446 13.082,-11.858 26.402,-41.976 25.356,-58.911 -6.3181,-8.1782 -27.137,-5.4924 -37.99,-3.1294 -3.6459,4.8473 -6.4187,8.7736 -8.5844,12.691 -0.51584,-2.7348 -1.0786,-5.5539 -0.90672,-7.6822 0,0 0.83816,-33.148 14.787,-84.354 7.8907,-28.967 -9.1574,-45.476 -15.176,-45.963 -0.40938,0.0322 -0.81933,0.087 -1.2124,0.14982 0.49523,-2.4367 -0.29152,-5.0534 -2.2915,-6.8295 0,0 -17.169,-13.625 -38.684,-41.394 -7.56,-9.758 -16.41,-12.529 -22.664,-12.51 -0.691,-1.488 -6.087,-13.452 -10.286,-33.553 -1.928,-9.23 -7.797,-13.092 -11.526,-14.012 l 12.012,-4.755 c -3.04,-6.296 -9.642,-9.902 -16.373,-9.305 z" />
          <path
             inkscape:connector-curvature="0"
             id="path2488"
             d="m 768.57,30.259 c 1.5533,0.13772 3.133,0.49107 4.6564,1.0938 8.1249,3.2148 12.288,12.149 9.7197,20.361 l -14.113,-5.5895 c 6.0692,9.8566 -16.801,39.592 -18.175,48.959 9.108,18.746 -52.795,48.62 -60.017,61.47 -0.88297,0.67896 -1.8677,1.167 -2.8736,1.4497 18.244,22.354 3.1551,104.89 11.1,123.01 0.0547,5.4997 -11.998,16.193 -18.698,18.428 1.3581,4.1469 2.3613,8.8522 3.2498,14.91 -5.1194,10.965 -18.099,26.476 -28.378,25.446 -13.082,-11.858 -26.402,-41.976 -25.356,-58.911 6.3181,-8.1782 27.137,-5.4924 37.99,-3.1294 3.6459,4.8473 6.4187,8.7736 8.5844,12.691 0.51584,-2.7348 1.0786,-5.5539 0.90672,-7.6822 0,0 -0.83816,-33.148 -14.787,-84.354 -7.8907,-28.967 9.1574,-45.476 15.176,-45.963 0.40938,0.0322 0.81933,0.087 1.2124,0.14982 -0.49523,-2.4367 0.29152,-5.0534 2.2915,-6.8295 0,0 17.169,-13.625 38.684,-41.394 7.5472,-9.741 16.397,-12.512 22.654,-12.492 0.69109,-1.4884 6.0874,-13.452 10.286,-33.554 1.928,-9.2298 7.7967,-13.092 11.526,-14.012 l -12.012,-4.7549 c 3.0398,-6.2956 9.6415,-9.9017 16.373,-9.3049 z" />
        </g>
        <g
           id="g4232"
           transform="translate(-485.88,-111.12)">
          <path
             inkscape:connector-curvature="0"
             id="path2349"
             d="m 715.27,430.2 c -4.6578,-0.38167 -6.9191,8.6673 0.38285,15.725 5.559,5.3734 -0.52164,1.1363 9.8072,10.103 10.987,9.5384 6.1505,25.07 11.477,26.789 7.3148,2.3599 43.675,-3.7696 52.359,-2.3639 15.742,2.5482 10.653,18.656 23.752,17.474 6.5498,-0.59105 81.565,0.84892 91.295,-0.70537 9.7306,-1.5543 4.4632,-15.22 10.85,-15.549 8.7825,-0.45255 52.678,5.7473 59.41,-1.8964 6.5127,-7.3951 12.524,-21.987 18.314,-28.978 4.6654,-5.6342 9.97555,-10.987 7.78685,-17.174 -2.18865,-6.1868 -6.07555,-7.9107 -13.61395,-0.69278 -7.5386,7.2179 -6.8902,32.357 -17.789,40.491 -16.587,12.38 -55.026,-7.5507 -62.493,3.319 -5.6105,8.1681 -1.4757,5.9749 -8.9983,11.657 -4.917,3.7142 -75.458,10.879 -83.554,-0.96063 -6.534,-9.5562 -11.684,-8.8678 -20.611,-13.77 -9.8234,-5.3944 -38.4,6.5709 -47.478,0.29535 -11.186,-7.7334 -7.8665,-28.031 -15.177,-35.48 -8.614,-8.7781 -9.9763,-7.8121 -15.722,-8.2829 z" />
          <path
             style="fill-rule:evenodd;stroke:#000000;stroke-width:4.87902737px"
             inkscape:connector-curvature="0"
             id="path46641"
             d="m 767.43,509.25 c -28.02,23.465 -42.041,71.906 -24.585,95.37 55.949,19.038 170.61,19.873 223.33,0 17.455,-23.465 1.9634,-73.926 -20.545,-97.391 -45.339,-7.3939 -125.75,-7.5574 -178.2,2.0203 z" />
          <path
             inkscape:connector-curvature="0"
             id="rect4229"
             d="m 789.58,485.71 65.911,-2.5254 66.921,2.5254 c 12.136,0.45799 19.447,6.6646 19.447,14.943 -4.3937,42.39 -167.9,42.476 -171.73,0 0,-8.2784 10.189,-14.943 19.447,-14.943 z" />
          <path
             style="fill:#ffdd55;fill-rule:evenodd;stroke:#000000;stroke-width:3.76567316px"
             inkscape:connector-curvature="0"
             id="path2301-4"
             d="m 767.37,511.1 c -11.265,3.4405 -23.134,26.952 -28.921,47.355 -5.7016,20.101 3.0333,53.597 3.4796,40.198 1.7175,-51.565 19.113,-73.038 35.433,-85.024 15.425,-11.328 -5.3513,-3.9461 -9.9912,-2.529 z" />
          <path
             style="fill:#ffdd55;fill-rule:evenodd;stroke:#000000;stroke-width:3.76567316px"
             inkscape:connector-curvature="0"
             id="path2301-1"
             d="m 943.33,507.89 c 11.265,3.4405 22.629,29.478 28.416,49.88 5.7016,20.101 -6.3928,56.562 -4.9948,43.228 5.3535,-51.06 -14.567,-76.069 -30.887,-88.054 -15.425,-11.328 2.826,-6.4715 7.4658,-5.0544 z" />
          <path
             style="fill:#ffdd55"
             inkscape:connector-curvature="0"
             id="path4225"
             d="m 845.71,458.87 c 0,7.8898 -10.873,14.286 -24.286,14.286 -13.413,0 -24.286,-6.3959 -24.286,-14.286 0,-7.8898 10.873,-14.286 24.286,-14.286 13.413,0 24.286,6.3959 24.286,14.286 z"
             transform="translate(31.801,141.92)" />
        </g>
        <path
           style="fill:#ffdd55"
           inkscape:connector-curvature="0"
           id="path2259-4"
           d="m -282.86,669.51 a 82.857,82.857 0 1 1 -165.71,0 82.857,82.857 0 1 1 165.71,0 z"
           transform="matrix(0.4608,-0.18809,-0.13607,-0.29819,568.36,862.2)" />
        <path
           style="fill:#ffdd55"
           inkscape:connector-curvature="0"
           id="path2265-0"
           d="m -282.86,669.51 a 82.857,82.857 0 1 1 -165.71,0 82.857,82.857 0 1 1 165.71,0 z"
           transform="matrix(-0.4608,-0.18809,0.13607,-0.29819,172.53,863.62)" />
        <path
           style="fill:#ffdd55"
           inkscape:connector-curvature="0"
           id="path4264-9"
           d="m 441.08,806.47 c -8.2928,-13.892 -34.747,-22.24 -49.118,-13.661 -13.6,8.1184 -18.862,24.991 -12.077,38.719 0,0 22.818,-3.6803 33.153,-8.5151 8.5518,-4.0007 28.041,-16.543 28.041,-16.543 z" />
        <path
           style="fill:#ffdd55"
           inkscape:connector-curvature="0"
           id="path4264-9-4"
           d="m 515.08,638.41 c -17.988,-0.16889 -31.096,8.6762 -33.79,25.195 -2.5491,15.632 18.713,58.362 22.346,43.268 0,0 7.6334,-26.453 8.5873,-38.553 0.87154,-11.056 2.857,-29.91 2.857,-29.91 z" />
        <path
           style="fill:#ffdd55"
           inkscape:connector-curvature="0"
           id="path4264-9-8"
           d="m 302.18,806.83 c 8.2928,-14.557 34.747,-23.305 49.118,-14.315 13.6,8.5071 18.862,26.188 12.077,40.573 0,0 -22.818,-3.8566 -33.153,-8.9228 -8.5518,-4.1922 -28.041,-17.335 -28.041,-17.335 z" />
        <path
           style="fill:#ffdd55"
           inkscape:connector-curvature="0"
           id="path4264-9-4-2"
           d="m 223.04,642.28 c 15.968,-2.6038 29.581,8.6762 32.275,25.195 2.5491,15.632 -8.9886,33.556 -23.861,37.207 l -7.072,-32.492 z" />
      </g>
    </g>
  </g>
</svg>
