<?xml version="1.0" encoding="UTF-8" standalone="no"?>
<!-- Created with Inkscape (http://www.inkscape.org/) -->

<svg
   xmlns:dc="http://purl.org/dc/elements/1.1/"
   xmlns:cc="http://creativecommons.org/ns#"
   xmlns:rdf="http://www.w3.org/1999/02/22-rdf-syntax-ns#"
   xmlns:svg="http://www.w3.org/2000/svg"
   xmlns="http://www.w3.org/2000/svg"
   xmlns:sodipodi="http://sodipodi.sourceforge.net/DTD/sodipodi-0.dtd"
   xmlns:inkscape="http://www.inkscape.org/namespaces/inkscape"
   id="svg2"
   version="1.1"
   inkscape:version="0.48.4 r9939"
   width="162.65663"
   height="120.4482"
   xml:space="preserve"
   sodipodi:docname="porco.svg"><metadata
     id="metadata8"><rdf:RDF><cc:Work
         rdf:about=""><dc:format>image/svg+xml</dc:format><dc:type
           rdf:resource="http://purl.org/dc/dcmitype/StillImage" /><dc:title /></cc:Work></rdf:RDF></metadata><defs
     id="defs6"><filter
       inkscape:collect="always"
       id="filter4701"
       color-interpolation-filters="sRGB"><feGaussianBlur
         inkscape:collect="always"
         stdDeviation="3.1548064"
         id="feGaussianBlur4703" /></filter></defs><sodipodi:namedview
     pagecolor="#ffffff"
     bordercolor="#666666"
     borderopacity="1"
     objecttolerance="10"
     gridtolerance="10"
     guidetolerance="10"
     inkscape:pageopacity="0"
     inkscape:pageshadow="2"
     inkscape:window-width="1600"
     inkscape:window-height="874"
     id="namedview4"
     showgrid="false"
     inkscape:zoom="2.1703571"
     inkscape:cx="72.579608"
     inkscape:cy="38.007252"
     inkscape:window-x="0"
     inkscape:window-y="1"
     inkscape:window-maximized="1"
     inkscape:current-layer="g10" /><g
     id="g10"
     inkscape:groupmode="layer"
     inkscape:label="cute animal farms"
     transform="matrix(1.25,0,0,-1.25,719.43976,539.93733)"><g
       id="g4709"
       transform="matrix(0.33285424,0,0,0.33285424,-383.27162,224.59953)"><g
         transform="translate(312.2469,201.77944)"
         id="g4705"><path
           inkscape:connector-curvature="0"
           id="path4699"
           d="m -685.81976,408.79941 c -43.84944,-0.14098 -87.012,-9.16032 -107.8,-21.425 -15.25392,-9.00022 -26.61112,-25.0014 -32.82496,-44.65 -13.09528,2.44342 -23.60528,0.5929 -30.17504,-5.2 -3.98304,0.23964 -8.15264,-0.57443 -11.74992,-2.875 -4.05816,-2.59266 -10.62488,-9.26488 -8.92504,-24.725 0.21208,-1.9289 1.62168,-3.325 3.22504,-3.325 0.13856,0 0.28408,0.004 0.42496,0.025 1.77568,0.2713 3.03048,2.18062 2.8,4.275 -0.91568,8.33234 0.93832,14.05194 5.55,17 0.9212,0.5878 1.93064,1.05397 2.97496,1.375 -0.0889,-0.22969 -0.16696,-0.46488 -0.24992,-0.7 -1.75112,-4.9285 -1.40536,-9.78133 0.94992,-13.3 2.35848,-3.5214 6.35696,-5.21717 10.42504,-4.425 4.5184,0.88261 8.21192,4.7129 9.87496,10.25 1.21664,4.05041 0.12384,8.16656 -2.97496,11.3 -0.80472,0.81207 -1.748,1.5516 -2.8,2.2 5.2632,1.83606 11.92456,1.85211 18.6,0.75 -6.4112,-26.64502 -3.8628,-58.79057 10.45,-89.075 18.09128,-38.27755 21.83424,-69.41216 22.37504,-85.52496 -0.3504,-0.0907 -0.70792,-0.17584 -1.05008,-0.27504 0.26872,-7.4904 -0.24992,-11.67504 -0.24992,-11.67504 l 1.12496,0.4 c -0.006,-0.0577 -0.025,-0.4 -0.025,-0.4 l 8.57496,3.35008 2.47496,0.84992 7.27504,-4.2 0.1,0.57504 1.12496,-0.57504 2.22504,11.75008 c -0.46208,0.12928 -0.92352,0.26096 -1.4,0.37496 l 7.9,46.875 c 0,0 0.78496,-0.16747 2.27496,-0.45 l 28.82504,-58.975 8.32504,5.55 10.47496,-5.55 0.025,0 -0.75008,12.55 c -0.008,0.002 -0.0172,-0.002 -0.025,0 l -2.42496,41.525 c 19.4424,-1.00277 44.05056,-0.9791 72.17496,1.925 l 5.7,-49.82496 c -0.36112,-0.1192 -0.72488,-0.22136 -1.07496,-0.35008 l 1.32496,-10.14992 13.02496,3.42496 10.85008,-3.42496 0.32496,10.8 c -0.61776,0.1852 -1.2548,0.34328 -1.9,0.5 l 0.5,18.72496 5.02496,-28.7 11.95008,5.57504 10.12496,-5.57504 0,11.3 0,51.8 c 18.23712,2.73242 42.158,8.60405 58.9,21.25 12.94384,4.1451 22.23352,14.9213 22.57504,31.525 0.30872,15.00658 -6.96056,14.93842 -14.85008,13.45 -8.17912,6.65109 -18.22856,14.40098 -20.6,29.725 -2.25664,14.58131 0.4776,28.52549 -3.34992,42.625 14.03144,13.03268 22.84408,34.43772 25.4,52.3 -10.92664,3.17754 -41.50088,-0.7417 -67.77504,-8.925 -24.73776,13.24212 -59.2148,18.4845 -93.27504,18.375 z m -168.64992,-79.25 c 2.43488,-0.51455 4.59824,-1.55917 5.97496,-2.95 1.49312,-1.51111 1.17712,-2.50088 1.05,-2.925 -1.20072,-3.99344 -3.53712,-5.0227 -4.82496,-5.275 -1.71904,-0.33188 -3.39448,0.30742 -4.27504,1.625 -1.1036,1.64947 -0.63192,3.93548 -0.05,5.575 0.52912,1.4894 1.2452,2.81147 2.12504,3.95 z"
           style="fill:#4d4d4d;fill-opacity:1;fill-rule:nonzero;stroke:#4d4d4d;stroke-width:9.61381817;stroke-linejoin:round;stroke-miterlimit:4;stroke-dasharray:none;filter:url(#filter4701)" /><path
           style="fill:#ffffff;fill-opacity:1;fill-rule:nonzero;stroke:#ffffff;stroke-width:9.61381817;stroke-linejoin:round;stroke-miterlimit:4;stroke-dasharray:none"
           d="m -685.81976,408.79941 c -43.84944,-0.14098 -87.012,-9.16032 -107.8,-21.425 -15.25392,-9.00022 -26.61112,-25.0014 -32.82496,-44.65 -13.09528,2.44342 -23.60528,0.5929 -30.17504,-5.2 -3.98304,0.23964 -8.15264,-0.57443 -11.74992,-2.875 -4.05816,-2.59266 -10.62488,-9.26488 -8.92504,-24.725 0.21208,-1.9289 1.62168,-3.325 3.22504,-3.325 0.13856,0 0.28408,0.004 0.42496,0.025 1.77568,0.2713 3.03048,2.18062 2.8,4.275 -0.91568,8.33234 0.93832,14.05194 5.55,17 0.9212,0.5878 1.93064,1.05397 2.97496,1.375 -0.0889,-0.22969 -0.16696,-0.46488 -0.24992,-0.7 -1.75112,-4.9285 -1.40536,-9.78133 0.94992,-13.3 2.35848,-3.5214 6.35696,-5.21717 10.42504,-4.425 4.5184,0.88261 8.21192,4.7129 9.87496,10.25 1.21664,4.05041 0.12384,8.16656 -2.97496,11.3 -0.80472,0.81207 -1.748,1.5516 -2.8,2.2 5.2632,1.83606 11.92456,1.85211 18.6,0.75 -6.4112,-26.64502 -3.8628,-58.79057 10.45,-89.075 18.09128,-38.27755 21.83424,-69.41216 22.37504,-85.52496 -0.3504,-0.0907 -0.70792,-0.17584 -1.05008,-0.27504 0.26872,-7.4904 -0.24992,-11.67504 -0.24992,-11.67504 l 1.12496,0.4 c -0.006,-0.0577 -0.025,-0.4 -0.025,-0.4 l 8.57496,3.35008 2.47496,0.84992 7.27504,-4.2 0.1,0.57504 1.12496,-0.57504 2.22504,11.75008 c -0.46208,0.12928 -0.92352,0.26096 -1.4,0.37496 l 7.9,46.875 c 0,0 0.78496,-0.16747 2.27496,-0.45 l 28.82504,-58.975 8.32504,5.55 10.47496,-5.55 0.025,0 -0.75008,12.55 c -0.008,0.002 -0.0172,-0.002 -0.025,0 l -2.42496,41.525 c 19.4424,-1.00277 44.05056,-0.9791 72.17496,1.925 l 5.7,-49.82496 c -0.36112,-0.1192 -0.72488,-0.22136 -1.07496,-0.35008 l 1.32496,-10.14992 13.02496,3.42496 10.85008,-3.42496 0.32496,10.8 c -0.61776,0.1852 -1.2548,0.34328 -1.9,0.5 l 0.5,18.72496 5.02496,-28.7 11.95008,5.57504 10.12496,-5.57504 0,11.3 0,51.8 c 18.23712,2.73242 42.158,8.60405 58.9,21.25 12.94384,4.1451 22.23352,14.9213 22.57504,31.525 0.30872,15.00658 -6.96056,14.93842 -14.85008,13.45 -8.17912,6.65109 -18.22856,14.40098 -20.6,29.725 -2.25664,14.58131 0.4776,28.52549 -3.34992,42.625 14.03144,13.03268 22.84408,34.43772 25.4,52.3 -10.92664,3.17754 -41.50088,-0.7417 -67.77504,-8.925 -24.73776,13.24212 -59.2148,18.4845 -93.27504,18.375 z m -168.64992,-79.25 c 2.43488,-0.51455 4.59824,-1.55917 5.97496,-2.95 1.49312,-1.51111 1.17712,-2.50088 1.05,-2.925 -1.20072,-3.99344 -3.53712,-5.0227 -4.82496,-5.275 -1.71904,-0.33188 -3.39448,0.30742 -4.27504,1.625 -1.1036,1.64947 -0.63192,3.93548 -0.05,5.575 0.52912,1.4894 1.2452,2.81147 2.12504,3.95 z"
           id="path3883"
           inkscape:connector-curvature="0" /></g><g
         transform="translate(-32.7659,192.93233)"
         id="g4682"><path
           d="m -511.58926,334.45698 c -0.58193,-1.63952 -1.04364,-3.93918 0.0605,-5.58865 0.88055,-1.31758 2.55971,-1.94879 4.27869,-1.61691 1.2879,0.2523 3.62403,1.26966 4.82464,5.2631 0.1271,0.42412 0.42572,1.41796 -1.06738,2.92907 -1.37672,1.39083 -3.53214,2.4335 -5.96705,2.94805 -0.87978,-1.13853 -1.6003,-2.44526 -2.12939,-3.93466 m -20.68061,-15.6862 c -1.69984,15.46012 4.85373,22.12129 8.91191,24.71395 3.59722,2.30057 7.77484,3.12801 11.75798,2.88837 7.71436,6.80224 20.846,8.19307 37.23796,3.54581 1.74042,-0.49375 2.81163,-2.5592 2.39432,-4.6138 -0.41807,-2.05369 -2.16308,-3.32063 -3.9058,-2.82778 -8.97545,2.54383 -18.92487,3.51958 -26.20662,0.97937 1.05207,-0.6484 1.9954,-1.38632 2.80015,-2.19839 3.09876,-3.13344 4.17762,-7.25349 2.96093,-11.3039 -1.66308,-5.5371 -5.35526,-9.36958 -9.87361,-10.25219 -4.06813,-0.79217 -8.06199,0.89979 -10.42032,4.42119 -2.35528,3.51867 -2.70213,8.36398 -0.95099,13.29248 0.0835,0.23512 0.16921,0.46663 0.25803,0.69632 -1.0444,-0.32103 -2.04669,-0.76957 -2.96782,-1.35737 -4.61177,-2.94806 -6.48619,-8.66783 -5.57042,-17.00017 0.23047,-2.09438 -1.02067,-4.01514 -2.79631,-4.28644 -0.14089,-0.0208 -0.28101,-0.0317 -0.4196,-0.0317 -1.60336,0 -2.99769,1.4053 -3.20979,3.3342"
           style="fill:#feddc5;fill-opacity:1;fill-rule:nonzero;stroke:none"
           id="path3853"
           inkscape:connector-curvature="0" /><path
           d="m -247.82054,227.34102 0,-73.11002 -10.13472,5.5579 -11.94711,-5.5579 -12.30775,70.11675 34.38958,2.99327 z"
           style="fill:#feddc5;fill-opacity:1;fill-rule:nonzero;stroke:none"
           id="path3855"
           inkscape:connector-curvature="0" /><path
           d="m -257.81414,166.68636 c 3.54439,0 6.92187,-0.41598 9.99383,-1.16747 l 0,-11.28762 -10.13548,5.5579 -11.94635,-5.5579 -1.77258,10.09212 c 4.00304,1.48941 8.75034,2.36297 13.86058,2.36297"
           style="fill:#373535;fill-opacity:1;fill-rule:nonzero;stroke:none"
           id="path3857"
           inkscape:connector-curvature="0" /><path
           d="m -376.65229,224.77513 3.98237,-67.55212 -10.49842,5.5579 -8.32615,-5.5579 -31.13232,63.70517 45.97452,3.84695 z"
           style="fill:#feddc5;fill-opacity:1;fill-rule:nonzero;stroke:none"
           id="path3859"
           inkscape:connector-curvature="0" /><path
           d="m -397.02463,168.54047 c 3.99692,1.48398 8.73656,2.35393 13.83684,2.35393 3.46476,0 6.76261,-0.40152 9.77867,-1.12135 l 0.73966,-12.55004 -10.49842,5.5579 -8.32615,-5.5579 -5.5306,11.31746 z"
           style="fill:#373535;fill-opacity:1;fill-rule:nonzero;stroke:none"
           id="path3861"
           inkscape:connector-curvature="0" /><path
           d="m -272.24667,389.37939 c 27.50872,14.53681 77.7812,23.08799 92.48355,18.8124 -3.79296,-26.5081 -21.34128,-60.85478 -49.3245,-63.99003 -27.9812,-3.13435 -43.15905,45.17763 -43.15905,45.17763"
           style="fill:#ffb380;fill-opacity:1;fill-rule:nonzero;stroke:none"
           id="path3863"
           inkscape:connector-curvature="0" /><path
           d="m -170.63298,263.68225 c 5.50495,18.64059 -26.67102,20.52156 -31.17,49.59429 -4.49965,29.07364 10.92561,55.58084 -45.63279,85.93679 -56.55909,30.35595 -164.21175,18.8115 -201.16808,-2.99237 -36.95567,-21.80478 -51.09493,-84.65447 -24.42323,-141.08898 26.67374,-56.43631 22.1734,-97.48033 22.1734,-97.48033 l 10.92696,4.27559 7.39113,-4.27559 9.96178,59.00094 c 0,0 48.52428,-10.68806 118.90113,-3.42101 l 6.74813,-59.00094 11.56861,3.42101 9.64096,-3.42101 1.60683,60.7119 c 0,0 89.33591,0.85367 103.47517,48.73971"
           style="fill:#fee7d6;fill-opacity:1;fill-rule:nonzero;stroke:none"
           id="path3865"
           inkscape:connector-curvature="0" /><path
           d="m -189.17472,282.06565 c -21.97846,-2.53478 -30.77168,-14.53501 -30.77168,-23.94166 0,-9.40575 10.32997,-24.03481 26.99375,-20.61108 14.99916,3.08189 26.20815,14.30712 26.5841,32.58236 0.41348,20.09472 -12.72505,13.13423 -22.80617,11.97038"
           style="fill:#ff9955;fill-opacity:1;fill-rule:nonzero;stroke:none"
           id="path3867"
           inkscape:connector-curvature="0" /><path
           d="m -183.38263,260.58824 c 0,-3.71944 2.55282,-6.73532 5.70135,-6.73532 3.1493,0 5.70212,3.01588 5.70212,6.73532 0,3.71853 -2.55282,6.7326 -5.70212,6.7326 -3.14853,0 -5.70135,-3.01407 -5.70135,-6.7326"
           style="fill:#fcc9a6;fill-opacity:1;fill-rule:nonzero;stroke:none"
           id="path3869"
           inkscape:connector-curvature="0" /><path
           d="m -205.10244,256.4133 c 0,-5.19618 3.56736,-9.40756 7.96627,-9.40756 4.39814,0 7.96627,4.21138 7.96627,9.40756 0,5.19708 -3.56813,9.40847 -7.96627,9.40847 -4.39891,0 -7.96627,-4.21139 -7.96627,-9.40847"
           style="fill:#fcc9a6;fill-opacity:1;fill-rule:nonzero;stroke:none"
           id="path3871"
           inkscape:connector-curvature="0" /><path
           d="m -299.35578,373.49464 c -23.60209,23.00839 -89.06432,6.96446 -89.06432,6.96446 0,0 4.57788,-61.99937 38.59241,-79.57755 34.01356,-17.57842 8.57415,18.93346 22.6068,40.97834 14.03264,22.04489 36.96152,22.76709 27.86511,31.63475"
           style="fill:#ffb380;fill-opacity:1;fill-rule:nonzero;stroke:none"
           id="path3873"
           inkscape:connector-curvature="0" /><path
           d="m -267.08724,306.9371 c 0,-5.86225 4.53731,-10.61233 10.13797,-10.61233 5.59965,0 10.13795,4.75008 10.13795,10.61233 0,5.86226 -4.5383,10.61445 -10.13795,10.61445 -5.60066,0 -10.13797,-4.75219 -10.13797,-10.61445"
           style="fill:#373535;fill-opacity:1;fill-rule:nonzero;stroke:none"
           id="path3875"
           inkscape:connector-curvature="0" /><path
           d="m -267.08724,312.80356 c 0,-2.62237 2.02941,-4.74799 4.5353,-4.74799 2.5049,0 4.5353,2.12562 4.5353,4.74799 0,2.62237 -2.0304,4.74799 -4.5353,4.74799 -2.50589,0 -4.5353,-2.12562 -4.5353,-4.74799"
           style="fill:#ffffff;fill-opacity:1;fill-rule:nonzero;stroke:none"
           id="path3877"
           inkscape:connector-curvature="0" /><path
           d="m -440.23844,170.8944 c 4.00457,0 7.77944,-0.5453 11.15921,-1.49121 l -2.23582,-11.75244 -8.32615,4.27558 -12.30852,-4.27558 c 0,0 0.50995,4.1743 0.24119,11.66472 3.45558,1.00198 7.343,1.57893 11.47009,1.57893"
           style="fill:#373535;fill-opacity:1;fill-rule:nonzero;stroke:none"
           id="path3879"
           inkscape:connector-curvature="0" /><path
           d="m -299.04629,163.03438 c 3.97624,1.46137 8.67913,2.31865 13.73577,2.31865 4.25266,0 8.25264,-0.60679 11.78478,-1.66574 l -0.32159,-10.78935 -10.86059,3.42011 -13.0321,-3.42011 -1.30627,10.13644 z"
           style="fill:#373535;fill-opacity:1;fill-rule:nonzero;stroke:none"
           id="path3881"
           inkscape:connector-curvature="0" /></g></g></g></svg>