<?xml version="1.0" encoding="UTF-8" standalone="no"?>
<svg
   xmlns:osb="http://www.openswatchbook.org/uri/2009/osb"
   xmlns:dc="http://purl.org/dc/elements/1.1/"
   xmlns:cc="http://creativecommons.org/ns#"
   xmlns:rdf="http://www.w3.org/1999/02/22-rdf-syntax-ns#"
   xmlns:svg="http://www.w3.org/2000/svg"
   xmlns="http://www.w3.org/2000/svg"
   xmlns:xlink="http://www.w3.org/1999/xlink"
   xmlns:sodipodi="http://sodipodi.sourceforge.net/DTD/sodipodi-0.dtd"
   xmlns:inkscape="http://www.inkscape.org/namespaces/inkscape"
   version="1.1"
   id="svg2"
   viewBox="0 0 83.39953 151.72768"
   height="151.72768"
   width="83.399521"
   inkscape:version="0.48.4 r9939"
   sodipodi:docname="coelho.svg">
  <sodipodi:namedview
     pagecolor="#ffffff"
     bordercolor="#666666"
     borderopacity="1"
     objecttolerance="10"
     gridtolerance="10"
     guidetolerance="10"
     inkscape:pageopacity="0"
     inkscape:pageshadow="2"
     inkscape:window-width="1600"
     inkscape:window-height="876"
     id="namedview1313"
     showgrid="false"
     fit-margin-top="0"
     fit-margin-left="0"
     fit-margin-right="0"
     fit-margin-bottom="0"
     inkscape:zoom="4.8063764"
     inkscape:cx="-2.6401295"
     inkscape:cy="78.931653"
     inkscape:window-x="0"
     inkscape:window-y="1"
     inkscape:window-maximized="1"
     inkscape:current-layer="svg2" />
  <script
     xlink:href="C:\wamp\www\bingo\js/snap.svg-min.js"
     id="script4164" />
  <title
     id="title4162">Bingo das Letras</title>
  <defs
     id="defs4">
    <linearGradient
       osb:paint="solid"
       id="linearGradient12614">
      <stop
         id="stop12616"
         offset="0"
         style="stop-color:#000000;stop-opacity:1;" />
    </linearGradient>
    <linearGradient
       gradientTransform="matrix(-0.19399818,0,0,-0.19399818,259.22818,12173.784)"
       osb:paint="solid"
       id="linearGradient59274">
      <stop
         id="stop59276"
         offset="0"
         style="stop-color:#930033;stop-opacity:1;" />
    </linearGradient>
    <linearGradient
       id="linearGradient4269"
       osb:paint="solid"
       gradientTransform="matrix(110.20782,22.122239,-29.697412,82.096171,6264728.9,4283424.3)">
      <stop
         style="stop-color:#ffffff;stop-opacity:1;"
         offset="0"
         id="stop4271" />
    </linearGradient>
    <linearGradient
       id="linearGradient4251"
       osb:paint="solid"
       gradientTransform="translate(106155.96,125143.42)">
      <stop
         style="stop-color:#555555;stop-opacity:1;"
         offset="0"
         id="stop4253" />
    </linearGradient>
    <linearGradient
       id="linearGradient4241"
       osb:paint="solid"
       gradientTransform="matrix(0.19125385,0,0,0.19125385,-3597.1892,-31414.43)">
      <stop
         style="stop-color:#3fb5ae;stop-opacity:1;"
         offset="0"
         id="stop4243" />
    </linearGradient>
    <linearGradient
       id="linearGradient4231"
       osb:paint="solid"
       gradientTransform="translate(2399.1562,2075.6965)">
      <stop
         style="stop-color:#d1f2a5;stop-opacity:1;"
         offset="0"
         id="stop4233" />
    </linearGradient>
    <linearGradient
       id="linearGradient4221"
       osb:paint="solid"
       gradientTransform="matrix(0.66768435,0,0,0.66768435,-186.89148,394.64653)">
      <stop
         style="stop-color:#effab4;stop-opacity:1;"
         offset="0"
         id="stop4223" />
    </linearGradient>
    <linearGradient
       id="linearGradient4211"
       osb:paint="solid"
       gradientTransform="translate(-699.20463,883.12976)">
      <stop
         style="stop-color:#ffc48c;stop-opacity:1;"
         offset="0"
         id="stop4213" />
    </linearGradient>
    <linearGradient
       id="linearGradient4201"
       osb:paint="solid"
       gradientTransform="matrix(0.35946858,0,0,0.22423084,-331.07911,5516.4706)">
      <stop
         style="stop-color:#ff9f80;stop-opacity:1;"
         offset="0"
         id="stop4203" />
    </linearGradient>
    <linearGradient
       id="linearGradient4191"
       osb:paint="solid"
       gradientTransform="matrix(0.52321996,0,0,0.52321996,2015.4535,3072.5352)">
      <stop
         style="stop-color:#f56991;stop-opacity:1;"
         offset="0"
         id="stop4193" />
    </linearGradient>
    <g
       id="Layer0_4_FILL-4">
      <path
         d="m 100.45,225.85 q -0.17012,-1.1832 -0.35,-2.1 -0.101953,-0.71758 -0.2,-1.25 -2.15,1.85 -4.35,5.3 -2.35,4 -3.65,5.9 -12.95,19.15 -17.25,41.45 -4.761914,-1.02715 -6.9,-1 -2.088086,0.0272 -5.2,0.6 -5.05,-14.5 -12.25,-25.05 -3.8,-5.55 -9,-10.7 -5.1,-5.1 -10.2,-8.5 -1.76543,-1.03457 -2.95,-1.8 -1.18457,-0.76543 -1.85,-0.9 -0.01777,0.38711 -0.05,0.75 -0.134766,6.27578 1.7,13.85 1.05,4.3 4.2,13.7 2.85,8.45 7.6,15.5 4.55,6.8 10.55,11.7 -2.6,3.25 -3.75,9.3 -0.7,4.05 -1.05,12 0.05,0.45 -2.5,1.3 -2.6,0.85 -3.9,1.4 2.05,-0.7 4.2,-1.25 2.1,-0.55 2.4,-0.15 0.3,0.35 -6.05,2.85 -4,1.55 -4.8,2.8 1.55,-1.2 6.7,-3.1 6.7,-2.35 6.1,-0.65 -1.1,0.9 -4.1,2.35 -1.75,0.85 -2.8,1.6 0.9,-0.5 2.25,-0.85 2.25,-0.7 4.95,-1.7 1.85,-0.6 2.9,1.3 -6.9,5.8 -9.75,15.85 -3.1,11.1 1.75,19.35 -0.25,4.05 3,8.05 3.65,4.6 3.9,5.8 -4.15,-1.05 -6.95,1.45 -2.55,2.3 -3.15,6.55 -0.2,0.85 1.05,2.15 4.6,1.25 8.75,1.55 5.8,0.5 8.85,-1.05 2.5,2.4 7.95,1.55 4.95,-0.85 7.5,-3.15 1.6,4.55 8.15,4.6 6.45,0.05 8.4,-4.05 3,0.8 6.8,0.25 4,-0.6 4.75,-2.2 -0.15,-2.4 -0.35,-3.6 -0.25,-1.25 -0.8,-1.85 -0.55,-0.65 -2.95,-0.8 -2.4,-0.15 -3.5,-0.4 -0.4,-4.15 1.7,-9.8 2.65,-7.05 2.9,-9.35 0.35,-3.25 0.15,-8.8 -0.2,-5.2 -0.7,-8.8 -0.8,-5.25 -4.4,-10.25 -1.2,-1.65 -7.8,-6.6 1.1,-2 3.2,-1 1.95,0.95 4.35,1.75 -1.35,-0.5 -2.55,-1.45 -0.95,-0.7 -2.95,-1.75 0.85,-0.6 2.35,-0.4 1.45,0.15 3,0.5 -1.9,-0.55 -2.85,-0.85 -1.7,-0.55 -1.85,-1.2 -0.15,-0.65 2.6,-0.8 2.7,-0.15 3.15,-0.35 -3.6,0 -5.55,-0.2 1.05,-5.25 -0.95,-10.75 -2.6,-5.95 -3.6,-8.75 3.15,-4.5 10.65,-15.25 6.05,-10.1 6.4,-19.45 0.15,-2.9 -0.1,-7.45 -0.3,-5.3 -0.45,-8 -0.11289,-3.50527 -0.5,-5.7 m -1.6,0 q 0.243164,-0.33848 0.5,-0.7 0.1,3.85 0.7,12.1 0.4,7.5 -0.15,12.45 -0.6,5.55 -3.95,11.7 -3.9,6.2 -5.55,8.95 3.5,-6.3 5.25,-18.25 1.55,-14.15 2.65,-21.1 -2.15,1.5 -3.8,4.9 -1.65,4 -2.6,5.8 -2.9,5.6 -5.35,11.2 -4.7,11.1 -5.05,12.05 -2.5,7.35 -1.85,13.55 1.1,-0.15 1.9,-1 0.30625,-0.30625 0.7,-0.9 0.201758,-0.21211 0.4,-0.5 0.09863,-0.14785 0.2,-0.3 -0.45,-0.2 -1.3,0.4 -0.387305,0.26816 -0.65,0.05 -0.119141,-0.10645 -0.2,-0.45 1.05,-9.3 5.6,-19.2 5.65,-10.85 8.25,-16.5 0.75,9.25 -1.5,18.35 -0.214453,0.85293 -0.45,1.65 -2.169141,7.67988 -6.05,13.05 0.01406,0.0264 0,0.05 0.39043,0.55762 1.35,-0.45 0.3,-0.35 1.35,-1.75 0.115625,1.91035 -2.7,5.5 -2.765625,3.63965 -4.25,5.2 l 0,0 0.9,0.6 -0.9,-0.6 q 1.214258,2.82949 3.8,8.2 1.95,5.05 1.8,11.2 0.05,2.45 -0.2,2.95 0.05,0.5 -1.75,2.1 -2.75,2.3 -6.4,4.5 -2.996289,1.74102 -5.45,2.95 -0.557813,0.29316 -1.1,0.55 -2.85,1.3 -6.9,0.85 -1.976953,-0.21973 -3.35,-0.5 -1.383398,-0.26738 -2.1,-0.6 -1.4,-0.7 -2.35,-1.05 -1,-0.4 -2.95,-1.2 -1.95,-0.85 -2.4,-1.15 0.3,0.15 -0.85,-0.6 -1.2,-0.75 -1.25,-0.8 -0.05,-0.05 -0.6,-0.45 -0.55,-0.45 -0.75,-0.7 -0.2,-0.3 -0.7,-0.75 -0.5,-0.5 -1.05,-1.05 -0.1,0.05 -0.6,-0.7 -0.5,-0.75 -0.6,-1.35 0.818359,-6.32637 1.3,-9.55 0.283203,-1.85332 0.45,-2.65 1.35,-6.45 4.15,-9.7 -0.192773,0.0785 -0.4,0.1 -0.180078,0.0816 -0.4,0.1 -0.415625,0.0436 -0.8,-0.15 -0.619922,-0.27559 -1.25,-0.7 -0.635352,-0.38203 -1.5,-1.15 -0.817773,-0.76641 -5.4,-5.75 -4.585352,-4.98789 -8.55,-16.5 -3.869727,-11.35176 -6.75,-28.45 -0.02422,-0.14609 -0.05,-0.3 22.3,14.7 33.1,43.75 0.256055,0.99141 0.2,2.3 0.01582,0.41836 -0.05,0.7 -0.07266,0.2791 -0.2,0.45 -0.191602,0.26211 -0.5,0.3 0.15957,0.16445 0.95,-0.25 0.303906,-0.15137 0.65,-0.4 1.437305,-0.81758 6.6,-0.85 4.798633,0.007 8.3,2.7 0.295117,0.18672 0.55,0.4 -9.77e-4,-0.10664 0,-0.25 -0.09863,-15.20176 7.25,-29.75 3.422852,-6.79668 14.65,-22.65 m -34.7,89.75 q -0.05,0.95 -1.1,4.45 -0.601563,2.08203 -0.55,4 l 0.05,0.25 0,0.05 q 0.7,-1 1.35,-3.7 0.36582,-1.43691 0.75,-2.6 0.420312,-1.06445 0.85,-1.9 3.9,0.4 7,-0.55 3.1,-0.95 3.4,-0.85 0.75,0.95 2.45,2.65 1.20625,1.42949 1.7,2.85 0.05215,0.17949 0.1,0.35 0.399805,-0.98125 -0.3,-2.35 -0.240234,-0.49004 -0.65,-1.05 -0.8,-1.1 -2.75,-3 0.65,-0.65 2.25,-1.55 1.6,-0.9 2.7,-1.65 1.45,0.75 3.4,2.9 1.354687,1.49492 2.65,4.2 0.108008,0.20293 0.2,0.4 0.04043,-0.12402 0.05,-0.25 0.366992,-1.38164 -0.45,-2.85 -0.482422,-0.7998 -1.35,-1.65 -3.25,-3.2 -3.85,-3.1 1.9,-1.35 2.4,-2.3 5.55,2.9 9.1,8.25 0.24082,0.3584 0.45,0.7 0.175391,0.26602 0.3,0.5 1.752344,2.92695 2.45,6 0.623828,2.62324 0.5,5.35 -0.25,5.8 -3.7,11.6 -2.7,4.6 -7,8.65 -0.25,-0.55 1.25,-2.35 1.65,-1.9 1.45,-3.5 -1.45,0.8 -2.45,2.7 -1.45,2.65 -1.85,3.15 -1.15,1.4 -6.2,5.7 -0.925586,0.78672 -1.75,1.55 -1.145703,1.16855 -2.05,2.3 -1.064844,1.39492 -1.7,2.75 -1.659961,-1.50625 -4.2,-3.15 -1.573828,-0.99063 -3.5,-2.05 -8.25,-4.6 -8.35,-4.65 -9.6,-5.95 -11.15,-14.7 -0.95,1.4 -0.5,4.1 0.1,0.7 1,3.9 -3.7,-2.9 -4.75,-8.2 -0.674609,-3.44434 -0.15,-7.25 l 0.05,-0.25 q 0.0459,-0.26953 0.1,-0.6 0.195312,-1.09453 0.5,-2.25 0.722656,-2.86387 1.95,-5.35 1.059375,-2.11445 2.5,-3.95 3.3,-4.2 7.3,-5.2 0.1,0.65 -0.7,0.9 -0.9,0.25 -0.9,0.7 1.45,-1.3 5.25,0.2 6.2,2.4 6.45,1.7 m -1.65,49.75 q -0.803906,0.81367 -1.15,2.05 -0.4,1.25 -0.4,2.8 -0.236523,0.10762 -0.45,0.15 -0.779102,0.2209 -1.25,-0.25 -0.6,-0.6 -0.4,-1.5 0.859961,-2.21914 0.85,-4.5 0.03262,-1.00645 -0.15,-2.05 -0.10957,-0.8084 -0.35,-1.65 -0.03731,-0.13262 -0.1,-0.3 -0.82793,-2.75488 -3.45,-6.95 3.45,0.6 8.6,4.05 8.25,5.45 8.45,5.55 -0.75,4.5 -0.6,5.8 0.15,1.25 -6,1.9 -0.03769,-0.11602 -0.1,-0.25 -0.490625,-1.6502 -0.35,-2.4 0.08887,-0.71016 0.5,-1.65 0.08828,-0.0822 0.15,-0.2 -0.141211,0.0353 -0.3,0.05 -0.714062,0.34121 -0.8,1.2 -0.1,1 0.05,3 -0.497461,0.62734 -1.1,0.7 -0.720508,0.12266 -1.6,-0.7 -0.9,-1.25 -0.75,-2.75 0.04961,-0.29805 0.65,-1.75 l 0.1,-0.35 -0.05,0 m 18.35,1.85 q -0.05606,-0.10605 -0.15,-0.2 -0.4,0.4 -0.2,3 0.105859,1.83359 -1,2.05 -0.471875,0.0916 -1.15,-0.1 -2.7,-0.9 -3.6,-3.75 -0.65,-2.05 -0.45,-6.5 2.7,-3.45 7.65,-7.55 2.75,-2.3 8.35,-6.85 1.35,3.35 -1.4,7.5 -2.700195,3.94941 -3.25,5.65 -0.140234,0.41875 -0.15,0.7 l 0,0.05 q -0.02578,1.68242 1.6,3.85 1.65,2.25 1.6,4.65 -1.3,2.65 -1.85,0.25 -0.6,-2.45 -1.35,-2.95 -0.25,0.45 0.45,2 0.7,1.55 0.05,2.35 -0.473047,0.5459 -1.3,0.85 -0.259766,0.11836 -0.6,0.2 -1.3,0.3 -2.85,-0.6 0.05,-1.8 0.05,-2.7 -0.01875,-0.58555 -0.1,-1.05 -0.06621,-0.2543 -0.15,-0.5 -0.07402,-0.16992 -0.2,-0.35 M 45.5,347.3 q 1,0.4 3.95,1.95 2.35,1.25 4.05,1.75 0.7,3.15 3.7,8.7 1.204883,2.91426 1.05,5.7 -0.07695,2.19004 -1,4.3 -0.9,0.9 -4.35,1.05 -3.5,0.15 -4.4,-0.8 -0.9,-1 -0.85,-2.7 0.0291,-0.47969 0,-0.85 -0.01445,-0.11875 -0.05,-0.25 -0.04746,-0.26309 -0.15,-0.45 -0.125,-0.23066 -0.35,-0.3 -0.158594,0.034 -0.3,0.1 -0.377344,0.36719 -0.3,1.45 0.15,1.9 0.05,2.2 -1.35,0.75 -3,0.55 -0.07187,-0.0105 -0.15,-0.05 -1.60293,-0.25078 -2.8,-1.4 0.3,-6.95 5.1,-8 4.497656,-1.03066 7.9,2.55 0.226367,0.23867 0.45,0.5 -0.03613,-0.17793 -0.1,-0.35 -0.654492,-2.51387 -3.75,-6.1 -0.407813,-0.51055 -0.9,-1.05 -3.75,-4.1 -3.8,-8.5 m 47.75,-2.1 q 1.25,-5 2.9,-7.5 1.4,4.9 -1.1,11.25 -0.711914,1.79844 -1.25,3.4 -1.5375,4.78672 -1.35,7.75 0.165625,0.88281 1.15,1.3 0.860547,0.32754 2.25,0.35 3.9,0 4.6,0.45 0.6,2.25 0.6,3.3 0.05,2.05 -1.45,2.05 1.35,-0.05 -0.25,-2.35 -1.75,-2.5 -2.3,-2.5 -0.55,-0.05 0.85,2.4 0.896875,1.56953 0.9,2.4 -0.0125,0.46641 -0.3,0.7 -0.8,0.65 -4.7,0.7 l -1.9,-0.3 q -3.265039,-2.03594 -3.85,-4.75 -0.131055,-0.78086 -0.05,-1.65 0.1,-1.25 2.85,-8.5 0.7,-1.9 2.4,-8.5 m -27.9,-37.35 q 0.15,0.25 0.3,0.45 0.6,0.95 1.3,1.3 0.85,0.45 0,1.45 -0.3,0.3 -0.65,0.5 0.2,0 -0.4,0.25 -0.6,0.2 -1.05,0.25 -0.65,0.05 -1.35,-0.2 -0.45,-0.15 -0.75,-0.4 -0.65,-0.55 -0.65,-1.6 0,-0.2 0.05,-0.35 0,-0.35 0.1,-0.75 -0.8,1.35 -0.7,2.1 0,0.1 0.05,0.2 0.25,0.75 1.45,1.35 1.05,0.55 2,0.45 0.1,-0.05 0.2,-0.05 1.05,-0.25 1.45,-0.45 l 0.4,-0.25 q -0.1,-0.05 0.15,-0.15 0.2,-0.15 0.55,-0.45 0.05,-0.05 0.1,-0.05 0.05,-0.05 0.25,0.15 0.1,0.1 0.35,0.3 0.55,0.45 1.8,0.7 0.65,0.1 1.35,0.05 0.55,-0.05 1.2,-0.2 0.2,-0.2 0.4,-0.4 1.15,-1.25 0.75,-2.75 -0.45,-1.75 -0.4,0.35 0,0.9 -0.35,1.45 -0.5,0.75 -1.7,0.9 -0.35,0.05 -0.6,0 -1.35,-0.1 -2.3,-1.3 -0.35,-0.4 -0.65,-0.9 1.1,-0.65 1.3,-1.35 0,-0.05 0.05,-0.05 0.08477,-0.42402 0.1,-0.8 -0.0064,-0.28926 -0.05,-0.55 -0.55,-0.45 -1.55,-0.45 -0.45,0 -0.95,0.05 -1.8,0.2 -1.55,1.2 m 0.85,-0.05 q -0.15,-0.25 -0.25,-0.5 1.3,-0.35 2,-0.3 0.5,0.05 0.75,0.3 0.118555,0.11855 0.15,0.3 0.04766,0.35469 -0.25,0.95 -0.35,0.7 -0.75,0.85 -0.194141,0.0647 -0.4,0 -0.582813,-0.22871 -1.25,-1.6 m 16.9,-10.9 -0.05,0 q -1.4,-0.95 -3.25,-0.7 -0.3,0.05 -0.6,0.1 -0.45,0.1 -0.85,0.3 -0.1,0.05 -0.2,0.1 -0.8,0.35 -1.35,1.05 l -0.05,0.05 q -1.1,1.45 -0.3,3.75 0.1,0.1 0.2,0.2 0.15,0.1 0.4,0.25 0.95,0.5 2.4,0.6 1.95,0.15 3.4,-0.5 0.15,-0.15 0.3,-0.45 0.05,-0.15 0.1,-0.3 0.15,-0.45 0.25,-1.05 0.2,-1.1 -0.7,-2.3 -0.2,-0.25 -0.45,-0.5 l -0.05,-0.05 q 0.05,0 0.1,0.05 0.15,0 0.35,0.15 0.2,0.1 0.45,0.35 0.1,0.05 0.15,0.1 0.1,0.05 0.2,0.15 0.65,0.65 0.85,1.55 l 0.05,0.05 0,-0.05 q 0,-0.10313 0,-0.15 0,-0.05 0.05,-0.05 0,-0.25 0,-0.5 -0.05,-0.2 -0.1,-0.35 -0.15,-0.55 -0.45,-1 -0.35,-0.5 -0.85,-0.85 m -2.4,0.95 q 0,0.2 0,0.4 -0.05,0.85 -0.4,1.25 -0.1,0.1 -0.25,0.15 -0.7,0.3 -1.5,-0.2 0,-0.05 -0.05,-0.05 -0.45,-0.65 -0.1,-1.3 0.05,-0.15 0.15,-0.25 0.35,-0.3 0.7,-0.4 0.2,-0.1 0.4,-0.1 0.55,0 1.05,0.5 m -24.65,-1.2 q -0.7,-0.4 -1.65,-0.5 -1.85,-0.25 -3.25,0.7 l -0.05,0 q -0.5,0.35 -0.85,0.85 -0.3,0.45 -0.45,1 -0.15,0.5 -0.05,0.9 0,0.14395 0,0.3 0.0031,-0.10313 0.05,-0.15 0.2,-0.9 0.85,-1.55 0.1,-0.1 0.2,-0.15 0.05,-0.05 0.15,-0.1 0.5,-0.45 0.9,-0.55 -1.45,1.5 -1.2,2.85 0.15,0.85 0.35,1.35 0.15,0.3 0.3,0.45 1.45,0.65 3.4,0.5 1.45,-0.1 2.4,-0.6 0.35,-0.2 0.6,-0.45 0.8,-2.3 -0.3,-3.75 L 57.4,297.7 q -0.55,-0.7 -1.35,-1.05 m -2.55,1.15 q 0.5,-0.5 1.05,-0.5 0.55,0 1.1,0.5 0.6,0.75 0.05,1.55 -0.05,0 -0.05,0.05 -0.8,0.5 -1.5,0.2 -0.15,-0.05 -0.25,-0.15 -0.35,-0.4 -0.4,-1.25 0,-0.2 0,-0.4 M 30.1,236.85 q 0.05,0.5 0.45,0.55 5.25,25.05 13.35,35.2 2.8,3.55 5.65,5.4 4.45,2.9 7.15,-0.05 -0.255664,0.13164 -0.5,0.25 -2.631641,1.15156 -4.3,-0.25 -7.12793,-5.37031 -12,-15.35 -0.08457,-0.20723 -0.2,-0.45 -3.7,-7.8 -7,-21 7.35,5.8 13.6,14.25 5.85,8 9.85,17.2 0.4,0.85 1.15,3 0.07461,0.23867 0.15,0.45 0.04727,0.12969 0.1,0.25 0.04727,0.13066 0.1,0.25 l 0,0 q 0.37168,0.81445 0.8,1.15 0.188672,0.1791 0.4,0.25 -0.05664,-0.2127 -0.15,-0.45 -3.295703,-12.14297 -11.65,-23.2 -4.9,-6.45 -17,-18.5 0.05,0.35 0.05,1.05 z"
         id="path14813"
         inkscape:connector-curvature="0"
         style="fill:#000000;stroke:none" />
      <path
         d="m 89.95,363.75 0,0.05 q 0.502148,2.55937 3.65,3.8 3.226172,1.1127 5.2,-0.1 -0.0031,-0.83047 -0.9,-2.4 -1.4,-2.45 -0.85,-2.4 0.55,0 2.3,2.5 1.6,2.3 0.25,2.35 1.5,0 1.45,-2.05 0,-1.05 -0.6,-3.3 -0.7,-0.45 -4.6,-0.45 -1.389453,-0.0225 -2.25,-0.35 l -3.65,2.35 m -49.35,4.5 q 1.19707,1.14922 2.8,1.4 -1.360547,-3.43828 2.3,-4.75 1.933398,-0.0791 1.1,0.6 0.141406,-0.066 0.3,-0.1 0.225,0.0693 0.35,0.3 0.102539,0.18691 0.15,0.45 0.03555,0.13125 0.05,0.25 l 2.85,2.5 q 3.119922,1.4 5.5,-0.9 0.703125,-0.91191 0.8,-2.6 l -2.85,-2.45 q 0.06387,0.17207 0.1,0.35 -0.223633,-0.26133 -0.45,-0.5 -3.402344,-3.58066 -7.9,-2.55 -4.8,1.05 -5.1,8 M 80.7,367 q 0.09394,0.094 0.15,0.2 0.125977,0.18008 0.2,0.35 0.08379,0.2457 0.15,0.5 1.105664,3.88887 1,3.15 0.64668,1.11582 2.5,1 0.826953,-0.3041 1.3,-0.85 0.65,-0.8 -0.05,-2.35 -0.7,-1.55 -0.45,-2 0.75,0.5 1.35,2.95 0.55,2.4 1.85,-0.25 0.05,-2.4 -1.6,-4.65 -1.625781,-2.16758 -1.6,-3.85 l 0,-0.05 q 0.0098,-0.28125 0.15,-0.7 0.998437,-5.9457 0.35,-6.05 -2.828125,-1.26699 -5.3,3.7 l -4.7,7.7 q -1.173828,3.22246 3.5,6.25 1.105859,-0.21641 1,-2.05 -0.2,-2.6 0.2,-3 m -16.85,0.35 q 0.482813,-2.18887 1.75,-1.75 0.697852,0.30957 0.4,0.4 0.158789,-0.0147 0.3,-0.05 -0.06172,0.11777 -0.15,0.2 -0.411133,0.93984 -0.5,1.65 -0.140625,0.7498 0.35,2.4 2.57168,-0.10098 4.6,-2.3 1.631445,-2.54531 0.1,-4.3 -5.984961,-0.0705 -11.2,-6.3 -0.850977,0.25762 -0.4,2.8 0.06269,0.16738 0.1,0.3 0.24043,0.8416 0.35,1.65 0.182617,1.04355 0.15,2.05 0.01,2.28086 -0.85,4.5 -0.2,0.9 0.4,1.5 0.470898,0.4709 1.25,0.25 l 0,-2.35 q 0.503906,-3.2457 2,-2.65 l 0.05,0 -0.1,0.35 q -0.600391,1.45195 -0.65,1.75 -0.15,1.5 0.75,2.75 0.879492,0.82266 1.6,0.7 -0.653906,-1.75 -0.3,-3.55 M 30.55,237.4 q -0.4,-0.05 -0.45,-0.55 0,-0.7 -0.05,-1.05 12.1,12.05 17,18.5 8.354297,11.05703 11.65,23.2 l 1.7,-0.9 q 0.127344,-0.1709 0.2,-0.45 -5.305078,-15.25078 -14.9,-28.05 -8.314648,-11.14941 -18.3,-18.4 2.880273,17.09824 6.75,28.45 3.964648,11.51211 8.55,16.5 4.582227,4.98359 5.4,5.75 0.864648,0.76797 1.5,1.15 0.630078,0.42441 1.25,0.7 0.384375,0.19355 0.8,0.15 0.219922,-0.0184 0.4,-0.1 l 6.4,-4.6 q -0.42832,-0.33555 -0.8,-1.15 l 0,0 -1.45,1.65 q 0.244336,-0.11836 0.5,-0.25 Q 54,280.9 49.55,278 46.7,276.15 43.9,272.6 35.8,262.45 30.55,237.4 m 68.3,-11.55 -11.65,19 q -5.913477,10.46895 -7.7,20.25 -1.689453,6.9875 -1.3,13.95 l 4.1,2.65 q 1.484375,-1.56035 4.25,-5.2 2.815625,-3.58965 2.7,-5.5 -1.05,1.4 -1.35,1.75 -0.95957,1.00762 -1.35,0.45 l -3.9,2.9 q -0.198242,0.28789 -0.4,0.5 -0.39375,0.59375 -0.7,0.9 -0.8,0.85 -1.9,1 -0.65,-6.2 1.85,-13.55 0.35,-0.95 5.05,-12.05 2.45,-5.6 5.35,-11.2 0.95,-1.8 2.6,-5.8 1.65,-3.4 3.8,-4.9 -1.1,6.95 -2.65,21.1 -1.75,11.95 -5.25,18.25 1.65,-2.75 5.55,-8.95 3.35,-6.15 3.95,-11.7 0.55,-4.95 0.15,-12.45 -0.6,-8.25 -0.7,-12.1 -0.256836,0.36152 -0.5,0.7 z"
         id="path14815"
         inkscape:connector-curvature="0"
         style="fill:#999999;stroke:none" />
      <path
         d="m 89.95,363.8 -0.05,0 q -1.334375,0.6957 -1.85,0.05 0.584961,2.71406 3.85,4.75 l 1.9,0.3 q 3.9,-0.05 4.7,-0.7 0.2875,-0.23359 0.3,-0.7 -1.973828,1.2127 -5.2,0.1 -3.147852,-1.24063 -3.65,-3.8 m -42.3,2.6 q 0.0291,0.37031 0,0.85 -0.05,1.7 0.85,2.7 0.9,0.95 4.4,0.8 3.45,-0.15 4.35,-1.05 0.923047,-2.10996 1,-4.3 -0.520703,0.89648 -1.45,0 -0.09687,1.68809 -0.8,2.6 -2.380078,2.3 -5.5,0.9 l -2.85,-2.5 m -4.25,3.25 q 0.07813,0.0395 0.15,0.05 1.65,0.2 3,-0.55 0.1,-0.3 -0.05,-2.2 -0.07734,-1.08281 0.3,-1.45 0.833398,-0.6791 -1.1,-0.6 -3.660547,1.31172 -2.3,4.75 m 37.8,-1.6 q 0.08125,0.46445 0.1,1.05 0,0.9 -0.05,2.7 1.55,0.9 2.85,0.6 0.340234,-0.0816 0.6,-0.2 -1.85332,0.11582 -2.5,-1 0.105664,0.73887 -1,-3.15 m -6.9,-6.35 q -0.2,4.45 0.45,6.5 0.9,2.85 3.6,3.75 0.678125,0.1916 1.15,0.1 -4.673828,-3.02754 -3.5,-6.25 l 4.7,-7.7 q 2.471875,-4.96699 5.3,-3.7 0.648437,0.1043 -0.35,6.05 0.549805,-1.70059 3.25,-5.65 2.75,-4.15 1.4,-7.5 -5.6,4.55 -8.35,6.85 -4.95,4.1 -7.65,7.55 m -3.7,6.2 q -2.02832,2.19902 -4.6,2.3 0.0623,0.13398 0.1,0.25 6.15,-0.65 6,-1.9 -0.15,-1.3 0.6,-5.8 -0.2,-0.1 -8.45,-5.55 -5.15,-3.45 -8.6,-4.05 2.62207,4.19512 3.45,6.95 -0.450977,-2.54238 0.4,-2.8 5.215039,6.22949 11.2,6.3 1.531445,1.75469 -0.1,4.3 m -9.25,-0.5 q 0.346094,-1.23633 1.15,-2.05 -1.496094,-0.5957 -2,2.65 l 0,2.35 q 0.213477,-0.0424 0.45,-0.15 0,-1.55 0.4,-2.8 m 4.25,-1.8 q -1.267187,-0.43887 -1.75,1.75 -0.353906,1.8 0.3,3.55 0.602539,-0.0727 1.1,-0.7 -0.15,-2 -0.05,-3 0.08594,-0.85879 0.8,-1.2 0.297852,-0.0904 -0.4,-0.4 z"
         id="path14817"
         inkscape:connector-curvature="0"
         style="fill:#757575;stroke:none" />
      <path
         d="m 89.9,363.8 0.05,0 0,-0.05 -0.05,0.05 m 3.9,-11.45 q -1.587109,-0.19824 -2.5,2.75 -1.798828,4.1 -1.4,8.2 0.02012,0.22832 0.05,0.45 l 3.65,-2.35 q -0.984375,-0.41719 -1.15,-1.3 -0.1875,-2.96328 1.35,-7.75 m -39.85,10.6 2.85,2.45 q 0.163867,-1.69766 -0.3,-4.2 -1.957227,-6.6709 -4.5,-6.9 -2.611328,-0.98145 -1.8,2.55 3.095508,3.58613 3.75,6.1 m 10.7,-44.9 q -0.38418,1.16309 -0.75,2.6 -0.65,2.7 -1.35,3.7 l 0,-0.05 -0.05,-0.25 q -2.049023,-3.41621 -0.5,-7.35 -2.981836,-1.9125 -10.5,4.6 0.686328,-4.01055 4.2,-5.9 -4.257812,-1.83047 -11.45,5.85 -1.227344,2.48613 -1.95,5.35 -0.304688,1.15547 -0.5,2.25 -0.0541,0.33047 -0.1,0.6 l -0.05,0.25 q -0.496094,4.31621 2.25,7.3 1.460937,-4.76523 3.3,-6.7 0.147852,9.96816 5.6,15.2 7.269336,6.78828 16.25,13.05 2.540039,1.64375 4.2,3.15 0.635156,-1.35508 1.7,-2.75 0.904297,-1.13145 2.05,-2.3 7.017969,-8.06191 12.8,-18.35 0.737695,-0.95898 1.1,4.1 6.686328,-12.02656 5.85,-18.6 -0.697656,-3.07305 -2.45,-6 -0.124609,-0.23398 -0.3,-0.5 -4.069141,-4.96113 -8.9,-7 l 2.15,5.1 q 0.816992,1.46836 0.45,2.85 -0.0096,0.12598 -0.05,0.25 -0.09199,-0.19707 -0.2,-0.4 -3.424414,-4.47813 -7.65,-4.3 l 0.05,4.45 q 0.699805,1.36875 0.3,2.35 -0.04785,-0.17051 -0.1,-0.35 -2.992383,-5.17813 -5.05,-3.55 -9.043555,2.93848 -10.35,1.35 m -4.25,-41.45 -1.7,0.9 q 0.09336,0.2373 0.15,0.45 -0.211328,-0.0709 -0.4,-0.25 l -6.4,4.6 q 0.207227,-0.0215 0.4,-0.1 -2.8,3.25 -4.15,9.7 -0.166797,0.79668 -0.45,2.65 L 47.9,303 q 0.387695,2.49824 4,5.4 4.05293,3.1625 10.85,6.1 1.373047,0.28027 3.35,0.5 4.05,0.45 6.9,-0.85 0.542187,-0.25684 1.1,-0.55 11.36875,-6.66465 12.7,-10.2 0.804492,-7.48965 -4.5,-21.7 l -4.1,-2.65 -1.25,-0.8 q -9.77e-4,0.14336 0,0.25 -0.254883,-0.21328 -0.55,-0.4 -3.501367,-2.69297 -8.3,-2.7 -5.162695,0.0324 -6.6,0.85 -0.346094,0.24863 -0.65,0.4 -0.79043,0.41445 -0.95,0.25 0.308398,-0.0379 0.5,-0.3 m -9.3,20.25 0.05,0 q 0.05,-1.05 -0.85,-1.3 1.5,-1.35 3.25,-0.85 1.4,0.45 2.5,1.95 0.8,0.35 1.35,1.05 l 0.05,0.05 q 1.1,1.45 0.3,3.75 -0.25,0.25 -0.6,0.45 -0.5,0.9 -1.5,1.6 -3.55,0.3 -5.75,-1.9 -2.3,-2.3 -0.15,-5.05 1.05,-0.1 0.5,1.1 0.35,-0.5 0.85,-0.85 m 25.2,-0.55 q 1.25,-1.65 3.35,-1.9 2.05,-0.2 3.45,1.1 1.35,1.3 1.4,3.6 0,0.25 0,0.5 -0.04687,0.0939 -0.05,0.2 l 0,0.05 q -0.4,0.9 -1.2,1.5 -0.05,0.15 -0.1,0.3 -0.15,0.3 -0.3,0.45 -1.45,0.65 -3.4,0.5 -1.45,-0.1 -2.4,-0.6 -0.25,-0.15 -0.4,-0.25 -0.7,-0.35 -1.3,-0.85 -0.45,-2.75 0.95,-4.6 m -11.05,12.6 q 0.15,-0.35 0.4,-0.6 -0.15,-0.2 -0.3,-0.45 -0.25,-1 1.55,-1.2 0.5,-0.05 0.95,-0.05 1,0 1.55,0.45 0.04355,0.26074 0.05,0.55 -0.01523,0.37598 -0.1,0.8 0.05,0.45 -0.05,0.9 -0.15,0.4 -0.65,1.4 0.95,1.2 2.3,1.3 0.05,0 0.1,-0.05 2,-0.85 1.1,-3.05 0.9,0.05 1.1,1.1 0,0.1 0,1.1 0.35,-0.55 0.35,-1.45 -0.05,-2.1 0.4,-0.35 0.4,1.5 -0.75,2.75 l 0,0.05 q -0.2,0.2 -0.4,0.35 -1.2,0.95 -2.65,1.05 -1.9,0.1 -2.85,-1.4 -0.6,1.45 -2.7,1.55 -2,0.1 -3.15,-1.05 -0.05,-1.05 0.05,-1.75 -0.1,-0.75 0.7,-2.1 -0.1,0.4 -0.1,0.75 0.25,0.35 0.6,1.9 l 0,0.05 q 0.3,0.25 0.75,0.4 0.7,0.25 1.35,0.2 0.45,-0.05 1.05,-0.25 0.6,-0.25 0.4,-0.25 0.15,-1.95 -1.05,-2.65 m 17.15,-11.4 -0.05,0 q 0.25,0.25 0.45,0.5 -0.05,-0.1 -0.05,-0.2 0,-0.1 0,-0.15 -0.2,-0.15 -0.35,-0.15 m -3.2,-1.2 q -0.25,-0.15 -0.65,-0.2 0,0.25 -0.2,0.5 0.4,-0.2 0.85,-0.3 m 0.05,1.15 q -0.35,0.1 -0.7,0.4 -0.1,0.1 -0.15,0.25 0.5,-0.2 0.85,-0.65 m -28.4,0.6 q -0.1,0.05 -0.2,0.15 -0.65,0.65 -0.85,1.55 0.1,0.35 0.5,0.6 -0.15,-0.25 0.55,-2.3 m 2.65,0.15 q 0.85,-0.15 1.05,-0.9 -0.55,0 -1.05,0.5 0,0.2 0,0.4 z"
         id="path14819"
         inkscape:connector-curvature="0"
         style="fill:#ffffff;stroke:none" />
      <path
         d="m 96.15,337.7 q -1.65,2.5 -2.9,7.5 -1.7,6.6 -2.4,8.5 -2.75,7.25 -2.85,8.5 -0.08106,0.86914 0.05,1.65 0.515625,0.6457 1.85,-0.05 l 0.05,-0.05 q -0.02988,-0.22168 -0.05,-0.45 -0.398828,-4.1 1.4,-8.2 0.912891,-2.94824 2.5,-2.75 0.538086,-1.60156 1.25,-3.4 2.5,-6.35 1.1,-11.25 m -46.7,11.55 q -2.95,-1.55 -3.95,-1.95 0.05,4.4 3.8,8.5 0.492187,0.53945 0.9,1.05 -0.811328,-3.53145 1.8,-2.55 2.542773,0.2291 4.5,6.9 0.463867,2.50234 0.3,4.2 0.929297,0.89648 1.45,0 0.154883,-2.78574 -1.05,-5.7 -3,-5.55 -3.7,-8.7 -1.7,-0.5 -4.05,-1.75 m 37.8,-33.85 -2.15,-5.1 q 4.830859,2.03887 8.9,7 -0.20918,-0.3416 -0.45,-0.7 -3.55,-5.35 -9.1,-8.25 -0.5,0.95 -2.4,2.3 0.6,-0.1 3.85,3.1 0.867578,0.8502 1.35,1.65 M 77,356.65 q 0.824414,-0.76328 1.75,-1.55 5.05,-4.3 6.2,-5.7 0.4,-0.5 1.85,-3.15 1,-1.9 2.45,-2.7 0.2,1.6 -1.45,3.5 -1.5,1.8 -1.25,2.35 4.3,-4.05 7,-8.65 3.45,-5.8 3.7,-11.6 0.123828,-2.72676 -0.5,-5.35 0.836328,6.57344 -5.85,18.6 -0.362305,-5.05898 -1.1,-4.1 -5.782031,10.28809 -12.8,18.35 m -31.45,-15.4 q -0.45,-2.7 0.5,-4.1 1.55,8.75 11.15,14.7 0.1,0.05 8.35,4.65 1.926172,1.05937 3.5,2.05 -8.980664,-6.26172 -16.25,-13.05 -5.452148,-5.23184 -5.6,-15.2 -1.839063,1.93477 -3.3,6.7 -2.746094,-2.98379 -2.25,-7.3 -0.524609,3.80566 0.15,7.25 1.05,5.3 4.75,8.2 -0.9,-3.2 -1,-3.9 m 33.15,-28.6 q -1.6,0.9 -2.25,1.55 1.95,1.9 2.75,3 0.409766,0.55996 0.65,1.05 L 79.8,313.8 q 4.225586,-0.17813 7.65,4.3 -1.295313,-2.70508 -2.65,-4.2 -1.95,-2.15 -3.4,-2.9 -1.1,0.75 -2.7,1.65 m -13.2,3.5 q -0.429688,0.83555 -0.85,1.9 1.306445,1.58848 10.35,-1.35 2.057617,-1.62813 5.05,3.55 -0.49375,-1.42051 -1.7,-2.85 -1.7,-1.7 -2.45,-2.65 -0.3,-0.1 -3.4,0.85 -3.1,0.95 -7,0.55 m -2.45,3.9 q 1.05,-3.5 1.1,-4.45 -0.25,0.7 -6.45,-1.7 -3.8,-1.5 -5.25,-0.2 0,-0.45 0.9,-0.7 0.8,-0.25 0.7,-0.9 -4,1 -7.3,5.2 -1.440625,1.83555 -2.5,3.95 7.192188,-7.68047 11.45,-5.85 -3.513672,1.88945 -4.2,5.9 7.518164,-6.5125 10.5,-4.6 -1.549023,3.93379 0.5,7.35 -0.05156,-1.91797 0.55,-4 M 46.55,304.1 q 0.1,0.6 0.6,1.35 0.5,0.75 0.6,0.7 0.55,0.55 1.05,1.05 0.5,0.45 0.7,0.75 0.2,0.25 0.75,0.7 0.55,0.4 0.6,0.45 0.05,0.05 1.25,0.8 1.15,0.75 0.85,0.6 0.45,0.3 2.4,1.15 1.95,0.8 2.95,1.2 0.95,0.35 2.35,1.05 0.716602,0.33262 2.1,0.6 -6.79707,-2.9375 -10.85,-6.1 -3.612305,-2.90176 -4,-5.4 l -0.05,-8.45 q -0.481641,3.22363 -1.3,9.55 m 35.75,-22.4 0,0 q 5.304492,14.21035 4.5,21.7 -1.33125,3.53535 -12.7,10.2 2.453711,-1.20898 5.45,-2.95 3.65,-2.2 6.4,-4.5 1.8,-1.6 1.75,-2.1 0.25,-0.5 0.2,-2.95 0.15,-6.15 -1.8,-11.2 -2.585742,-5.37051 -3.8,-8.2 z"
         id="path14821"
         inkscape:connector-curvature="0"
         style="fill:#cdcdcd;stroke:none" />
      <path
         d="m 68.6,308.55 q 0.297656,-0.59531 0.25,-0.95 -0.651563,-0.63105 -2.25,0 l 0.85,1.8 q 0.205859,0.0647 0.4,0 0.4,-0.15 0.75,-0.85 z"
         id="path14823"
         inkscape:connector-curvature="0"
         style="fill:#fdd9d0;stroke:none" />
      <path
         d="m 65.95,307.3 q 0.1,0.25 0.25,0.5 0.667187,1.37129 1.25,1.6 l -0.85,-1.8 q 1.598437,-0.63105 2.25,0 -0.03144,-0.18145 -0.15,-0.3 -0.25,-0.25 -0.75,-0.3 -0.7,-0.05 -2,0.3 z"
         id="path14825"
         inkscape:connector-curvature="0"
         style="fill:#fbac99;stroke:none" />
      <path
         d="m 57.65,276.55 q -0.05273,-0.11934 -0.1,-0.25 -0.05273,-0.12031 -0.1,-0.25 -21.229688,-32.98184 -21.95,-28.95 1.710742,8.88379 4.4,15.5 4.87207,9.97969 12,15.35 1.668359,1.40156 4.3,0.25 l 1.45,-1.65 m 28.9,-3.35 q 0.01406,-0.0236 0,-0.05 3.880859,-5.37012 6.05,-13.05 1.938086,-10.48398 0.6,-13.7 -9.817773,14.56953 -12.3,29.85 0.262695,0.21816 0.65,-0.05 0.85,-0.6 1.3,-0.4 -0.101367,0.15215 -0.2,0.3 l 3.9,-2.9 z"
         id="path14827"
         inkscape:connector-curvature="0"
         style="fill:#fdcfc4;stroke:none" />
      <path
         d="m 39.7,262.15 q 0.11543,0.24277 0.2,0.45 -2.689258,-6.61621 -4.4,-15.5 0.720312,-4.03184 21.95,28.95 -0.07539,-0.21133 -0.15,-0.45 -0.75,-2.15 -1.15,-3 -4,-9.2 -9.85,-17.2 -6.25,-8.45 -13.6,-14.25 3.3,13.2 7,21 m 52.9,-2.05 q 0.235547,-0.79707 0.45,-1.65 2.25,-9.1 1.5,-18.35 -2.6,5.65 -8.25,16.5 -4.55,9.9 -5.6,19.2 0.08086,0.34355 0.2,0.45 2.482227,-15.28047 12.3,-29.85 1.338086,3.21602 -0.6,13.7 z"
         id="path14829"
         inkscape:connector-curvature="0"
         style="fill:#fcac98;stroke:none" />
      <path
         d="m 27.35,229.4 q 0.02578,0.15391 0.05,0.3 9.985352,7.25059 18.3,18.4 9.594922,12.79922 14.9,28.05 0.06582,-0.28164 0.05,-0.7 0.05606,-1.30859 -0.2,-2.3 -10.8,-29.05 -33.1,-43.75 m 59.85,15.45 11.65,-19 q -11.227148,15.85332 -14.65,22.65 -7.348633,14.54824 -7.25,29.75 l 1.25,0.8 q -0.389453,-6.9625 1.3,-13.95 1.786523,-9.78105 7.7,-20.25 z"
         id="path14831"
         inkscape:connector-curvature="0"
         style="fill:#666666;stroke:none" />
    </g>
    <path
       id="Layer0_4_1_STROKES"
       d="M 82.325,281.725 83.2,282.3"
       inkscape:connector-curvature="0"
       style="fill:none;stroke:#66cc00;stroke-width:1;stroke-linecap:round;stroke-linejoin:round" />
    <style
       id="style6"
       type="text/css">
    .str0 {stroke:#006633;stroke-width:282.22}
    .str1 {stroke:#AB754F;stroke-width:282.22}
    .fil2 {fill:none}
    .fil3 {fill:#606062}
    .fil5 {fill:#CE8F64}
    .fil4 {fill:#006633}
    .fil8 {fill:#009933}
    .fil9 {fill:#00B33C}
    .fil10 {fill:#00C943}
    .fil0 {fill:#00D447}
    .fil1 {fill:#00DB49}
    .fil6 {fill:#B88059}
    .fil11 {fill:#BA8058}
    .fil12 {fill:#D49264}
    .fil7 {fill:#E49C6D}
  </style>
    <filter
       inkscape:collect="always"
       id="filter3827"
       color-interpolation-filters="sRGB">
      <feGaussianBlur
         inkscape:collect="always"
         stdDeviation="1.5333039"
         id="feGaussianBlur3829" />
    </filter>
  </defs>
  <metadata
     id="metadata7">
    <rdf:RDF>
      <cc:Work
         rdf:about="">
        <dc:format>image/svg+xml</dc:format>
        <dc:type
           rdf:resource="http://purl.org/dc/dcmitype/StillImage" />
        <dc:title>Bingo das Letras</dc:title>
        <cc:license
           rdf:resource="" />
        <dc:rights>
          <cc:Agent>
            <dc:title>Copyright © 2002-2016. Portal Clickideia ® - Todos os Direitos Reservados</dc:title>
          </cc:Agent>
        </dc:rights>
        <dc:description>SVG game with snapSVG lib and other javascripts included</dc:description>
        <dc:language>pt_BR</dc:language>
        <dc:subject>
          <rdf:Bag>
            <rdf:li>Educativo</rdf:li>
            <rdf:li>ensino fundamental</rdf:li>
            <rdf:li>clickiéia</rdf:li>
            <rdf:li>letras</rdf:li>
            <rdf:li>lingua portuguesa</rdf:li>
            <rdf:li>infantil</rdf:li>
            <rdf:li>educational game</rdf:li>
            <rdf:li>game design</rdf:li>
            <rdf:li>multimidia</rdf:li>
          </rdf:Bag>
        </dc:subject>
        <dc:creator>
          <cc:Agent>
            <dc:title>http://www.clickideia.com.br/</dc:title>
          </cc:Agent>
        </dc:creator>
        <dc:publisher>
          <cc:Agent>
            <dc:title>http://www.clickideia.com.br/</dc:title>
          </cc:Agent>
        </dc:publisher>
        <dc:date>18/01/2016</dc:date>
        <dc:contributor>
          <cc:Agent>
            <dc:title>michel morandi - michel.morandi@clickideia.com.br</dc:title>
          </cc:Agent>
        </dc:contributor>
      </cc:Work>
    </rdf:RDF>
  </metadata>
  <g
     id="g3835"
     transform="matrix(1.4156062,0,0,1.4156062,7.1962455,7.0691361)">
    <g
       transform="translate(93.421409,-0.06579106)"
       id="g3831">
      <path
         inkscape:connector-curvature="0"
         id="path3821"
         transform="translate(0,-4.6790698e-6)"
         d="m -46.09375,0.15625 c -0.169536,-0.050364 -0.451369,0.28202334 -1.15625,1.125 -1.84783,2.2098425 -6.97161,10.590278 -8.875,14.5 -2.31324,4.751584 -4.02447,9.336685 -5.21875,13.96875 l -0.96875,3.78125 -1.03125,-0.0625 c -0.56957,-0.03159 -2.32352,-0.10515 -3.875,-0.15625 l -2.8125,-0.09375 -1.40625,-3.4375 C -76.029749,18.54504 -82.105521,10.640942 -90.375,5.09375 -93.48491,3.0076155 -93.55371,3.0415444 -93.34375,6.25 c 0.35945,5.49277 3.06702,15.112194 5.75,20.4375 1.65383,3.282602 5.31723,8.433921 7.53125,10.59375 0.9266,0.903925 1.6875,1.751181 1.6875,1.90625 0,0.15507 -0.32016,0.969656 -0.71875,1.8125 -0.88926,1.880417 -1.56178,5.139745 -1.84375,8.90625 -0.20439,2.730222 -0.43616,3.464227 -1.3125,4.5625 -0.36286,0.454754 -0.2703,0.493124 0.84375,0.34375 1.43717,-0.192701 1.54592,0.08729 0.40625,1.0625 l -0.84375,0.6875 0.875,-0.1875 c 2.47282,-0.530105 2.59585,-0.514242 2.78125,-0.03125 0.12025,0.313236 -0.30697,1.029157 -1.21875,2.0625 -1.63557,1.853623 -3.84636,6.151068 -4.59375,8.9375 -0.34503,1.286337 -0.53625,3.047071 -0.53125,5.125 0.0071,2.694356 0.10981,3.425815 0.78125,5.09375 0.43273,1.074951 0.9565,2.687947 1.15625,3.5625 0.24791,1.085395 0.92799,2.357263 2.125,4.03125 0.96448,1.348811 1.67615,2.554242 1.59375,2.6875 -0.08239,0.133261 -0.4507,0.25 -0.84375,0.25 -1.01004,0 -2.28745,0.54502 -3.125,1.3125 -1.47226,1.34906 -2.36352,4.530573 -1.46875,5.25 1.22648,0.986021 8.12394,1.623084 10.40625,0.96875 0.78308,-0.22451 1.23945,-0.164895 1.96875,0.21875 0.6113,0.321571 1.60602,0.48198 2.875,0.46875 1.80188,-0.01879 2.64955,-0.245294 5.34375,-1.34375 0.90993,-0.370986 1.01245,-0.33874 1.46875,0.3125 0.26977,0.385022 1.03758,0.940775 1.71875,1.25 1.41074,0.640425 4.10576,0.767125 5.65625,0.25 0.56234,-0.187556 1.40995,-0.730346 1.90625,-1.1875 0.82953,-0.764103 1.15667,-0.829298 3.8125,-0.9375 2.13499,-0.08698 3.10261,-0.252673 3.71875,-0.65625 0.77968,-0.510688 0.8256,-0.66434 0.65625,-2.09375 -0.22927,-1.935154 -0.70447,-2.39096 -2.84375,-2.78125 l -1.71875,-0.3125 0.03125,-1.625 c 0.02094,-1.076621 0.52767,-3.137585 1.46875,-6 l 1.4375,-4.375 -0.1875,-5.6875 c -0.13082,-4.639588 -0.27424,-6.100273 -0.78125,-7.6875 -1.01009,-3.162148 -2.1944,-4.902634 -4.84375,-7.09375 -1.32268,-1.093907 -2.31165,-2.099786 -2.21875,-2.25 0.09287,-0.150216 0.55826,-0.28125 1.0625,-0.28125 0.68245,0 0.87613,-0.108923 0.75,-0.4375 -0.09319,-0.242771 -0.03382,-0.52688 0.125,-0.625 0.15885,-0.09812 0.19501,-0.50294 0.09375,-0.90625 -0.11723,-0.466908 -0.03846,-0.71875 0.1875,-0.71875 0.21483,0 0.14562,-0.198235 -0.15625,-0.5 -0.30826,-0.308182 -0.43375,-0.810523 -0.34375,-1.28125 0.2731,-1.428155 -0.39343,-4.617595 -1.59375,-7.59375 -0.65918,-1.634411 -1.21875,-3.201531 -1.21875,-3.46875 0,-0.26722 1.46226,-2.574116 3.25,-5.15625 4.821719,-6.964274 5.95901,-9.186921 6.84375,-13.46875 0.70663,-3.419895 0.44399,-16.8180474 -0.375,-19.03125 -0.09779,-0.26425068 -0.179528,-0.43853163 -0.28125,-0.46875 z"
         style="fill:#808080;stroke:#808080;stroke-width:2.82564473;stroke-linejoin:round;stroke-miterlimit:4;stroke-dasharray:none;filter:url(#filter3827)" />
      <path
         inkscape:connector-curvature="0"
         style="fill:#ffffff;stroke:#ffffff;stroke-width:2.82564473;stroke-linejoin:round;stroke-miterlimit:4;stroke-dasharray:none"
         d="m -46.09375,0.15625 c -0.169536,-0.050364 -0.451369,0.28202334 -1.15625,1.125 -1.84783,2.2098425 -6.97161,10.590278 -8.875,14.5 -2.31324,4.751584 -4.02447,9.336685 -5.21875,13.96875 l -0.96875,3.78125 -1.03125,-0.0625 c -0.56957,-0.03159 -2.32352,-0.10515 -3.875,-0.15625 l -2.8125,-0.09375 -1.40625,-3.4375 C -76.029749,18.54504 -82.105521,10.640942 -90.375,5.09375 -93.48491,3.0076155 -93.55371,3.0415444 -93.34375,6.25 c 0.35945,5.49277 3.06702,15.112194 5.75,20.4375 1.65383,3.282602 5.31723,8.433921 7.53125,10.59375 0.9266,0.903925 1.6875,1.751181 1.6875,1.90625 0,0.15507 -0.32016,0.969656 -0.71875,1.8125 -0.88926,1.880417 -1.56178,5.139745 -1.84375,8.90625 -0.20439,2.730222 -0.43616,3.464227 -1.3125,4.5625 -0.36286,0.454754 -0.2703,0.493124 0.84375,0.34375 1.43717,-0.192701 1.54592,0.08729 0.40625,1.0625 l -0.84375,0.6875 0.875,-0.1875 c 2.47282,-0.530105 2.59585,-0.514242 2.78125,-0.03125 0.12025,0.313236 -0.30697,1.029157 -1.21875,2.0625 -1.63557,1.853623 -3.84636,6.151068 -4.59375,8.9375 -0.34503,1.286337 -0.53625,3.047071 -0.53125,5.125 0.0071,2.694356 0.10981,3.425815 0.78125,5.09375 0.43273,1.074951 0.9565,2.687947 1.15625,3.5625 0.24791,1.085395 0.92799,2.357263 2.125,4.03125 0.96448,1.348811 1.67615,2.554242 1.59375,2.6875 -0.08239,0.133261 -0.4507,0.25 -0.84375,0.25 -1.01004,0 -2.28745,0.54502 -3.125,1.3125 -1.47226,1.34906 -2.36352,4.530573 -1.46875,5.25 1.22648,0.986021 8.12394,1.623084 10.40625,0.96875 0.78308,-0.22451 1.23945,-0.164895 1.96875,0.21875 0.6113,0.321571 1.60602,0.48198 2.875,0.46875 1.80188,-0.01879 2.64955,-0.245294 5.34375,-1.34375 0.90993,-0.370986 1.01245,-0.33874 1.46875,0.3125 0.26977,0.385022 1.03758,0.940775 1.71875,1.25 1.41074,0.640425 4.10576,0.767125 5.65625,0.25 0.56234,-0.187556 1.40995,-0.730346 1.90625,-1.1875 0.82953,-0.764103 1.15667,-0.829298 3.8125,-0.9375 2.13499,-0.08698 3.10261,-0.252673 3.71875,-0.65625 0.77968,-0.510688 0.8256,-0.66434 0.65625,-2.09375 -0.22927,-1.935154 -0.70447,-2.39096 -2.84375,-2.78125 l -1.71875,-0.3125 0.03125,-1.625 c 0.02094,-1.076621 0.52767,-3.137585 1.46875,-6 l 1.4375,-4.375 -0.1875,-5.6875 c -0.13082,-4.639588 -0.27424,-6.100273 -0.78125,-7.6875 -1.01009,-3.162148 -2.1944,-4.902634 -4.84375,-7.09375 -1.32268,-1.093907 -2.31165,-2.099786 -2.21875,-2.25 0.09287,-0.150216 0.55826,-0.28125 1.0625,-0.28125 0.68245,0 0.87613,-0.108923 0.75,-0.4375 -0.09319,-0.242771 -0.03382,-0.52688 0.125,-0.625 0.15885,-0.09812 0.19501,-0.50294 0.09375,-0.90625 -0.11723,-0.466908 -0.03846,-0.71875 0.1875,-0.71875 0.21483,0 0.14562,-0.198235 -0.15625,-0.5 -0.30826,-0.308182 -0.43375,-0.810523 -0.34375,-1.28125 0.2731,-1.428155 -0.39343,-4.617595 -1.59375,-7.59375 -0.65918,-1.634411 -1.21875,-3.201531 -1.21875,-3.46875 0,-0.26722 1.46226,-2.574116 3.25,-5.15625 4.821719,-6.964274 5.95901,-9.186921 6.84375,-13.46875 0.70663,-3.419895 0.44399,-16.8180474 -0.375,-19.03125 -0.09779,-0.26425068 -0.179528,-0.43853163 -0.28125,-0.46875 z"
         transform="translate(0,-4.6790698e-6)"
         id="path3050" />
    </g>
    <g
       transform="matrix(0.64446683,0,0,0.64446683,-16.91131,-143.3939)"
       id="g17621">
      <use
         id="use17623"
         xlink:href="#Layer0_4_FILL-4"
         x="0"
         y="0"
         width="1280"
         height="800" />
      <use
         id="use17625"
         xlink:href="#Layer0_4_1_STROKES"
         x="0"
         y="0"
         width="1280"
         height="800" />
    </g>
  </g>
</svg>
