<?xml version="1.0" encoding="UTF-8" standalone="no"?>
<!-- Created with Inkscape (http://www.inkscape.org/) -->

<svg
   xmlns:dc="http://purl.org/dc/elements/1.1/"
   xmlns:cc="http://creativecommons.org/ns#"
   xmlns:rdf="http://www.w3.org/1999/02/22-rdf-syntax-ns#"
   xmlns:svg="http://www.w3.org/2000/svg"
   xmlns="http://www.w3.org/2000/svg"
   xmlns:sodipodi="http://sodipodi.sourceforge.net/DTD/sodipodi-0.dtd"
   xmlns:inkscape="http://www.inkscape.org/namespaces/inkscape"
   width="164.1134"
   height="175.59476"
   id="svg2"
   version="1.1"
   inkscape:version="0.48.4 r9939"
   sodipodi:docname="dinossauro.svg">
  <defs
     id="defs4">
    <filter
       inkscape:collect="always"
       id="filter3854"
       color-interpolation-filters="sRGB">
      <feGaussianBlur
         inkscape:collect="always"
         stdDeviation="4.7195074"
         id="feGaussianBlur3856" />
    </filter>
  </defs>
  <sodipodi:namedview
     id="base"
     pagecolor="#ffffff"
     bordercolor="#666666"
     borderopacity="1.0"
     inkscape:pageopacity="0.0"
     inkscape:pageshadow="2"
     inkscape:zoom="1.258129"
     inkscape:cx="-97.669307"
     inkscape:cy="83.151492"
     inkscape:document-units="px"
     inkscape:current-layer="layer1"
     showgrid="false"
     inkscape:window-width="1600"
     inkscape:window-height="876"
     inkscape:window-x="0"
     inkscape:window-y="1"
     inkscape:window-maximized="1" />
  <metadata
     id="metadata7">
    <rdf:RDF>
      <cc:Work
         rdf:about="">
        <dc:format>image/svg+xml</dc:format>
        <dc:type
           rdf:resource="http://purl.org/dc/dcmitype/StillImage" />
        <dc:title />
      </cc:Work>
    </rdf:RDF>
  </metadata>
  <g
     inkscape:label="Camada 1"
     inkscape:groupmode="layer"
     id="layer1"
     transform="translate(798.45856,-430.01683)">
    <g
       id="g3866"
       transform="matrix(0.67202441,0,0,0.67202441,-218.92972,131.90637)">
      <g
         id="g3862">
        <path
           id="path3852"
           d="m -786.58405,457.92418 c -1.33373,0.0681 -2.57003,0.58283 -4.78123,1.5625 -3.3708,1.49337 -6.3866,4.15635 -10.875,9.625 -6.6153,8.06 -7.1713,8.35637 -21.9063,12.625 -8.2731,2.39668 -12.3756,5.81575 -13.4375,11.125 -0.3503,1.75174 0.072,7.25946 0.9375,12.25 1.9422,11.19379 1.4701,13.81481 -3.75,21.25 -10.4112,14.82901 -10.2948,19.49334 0.7813,31.75 4.3026,4.76126 6.2009,7.99551 6.25,12.90625 -0.012,0.3259 -0.011,0.62354 -0.031,0.96875 -0.025,0.70209 -0.066,1.4388 -0.1563,2.21875 -10e-4,0.0107 0.001,0.0205 0,0.0312 -0.2656,2.27461 -0.8207,4.91861 -1.5937,8.125 -3.1526,13.07726 -3.5955,22.11428 -1.6563,33.25 1.9457,11.17313 6.0273,21.43977 12.1875,30.625 4.475,6.67239 4.5178,6.76474 3.4688,11.65625 -0.5824,2.71572 -1.0625,8.18724 -1.0625,12.15625 0,11.70715 3.9571,16.9152 14.7187,19.34375 1.3515,0.30499 3.1651,0.5445 5.3125,0.71875 0.1607,0.0122 0.3021,0.0201 0.4688,0.0312 3.5034,0.26303 7.8286,0.36721 12.5,0.25 13.73546,-0.34464 19.27407,-1.99493 23.90623,-7.03125 0.12366,-0.13445 0.24972,-0.25079 0.375,-0.375 3.07644,-2.28224 5.49982,-2.73749 8.34375,-1.3125 0.54196,0.28337 1.10088,0.61877 1.65625,1.03125 0.007,0.005 0.0238,-0.005 0.0312,0 0.54032,0.40262 1.07308,0.88155 1.625,1.40625 4.66926,4.43899 8.54733,5.62449 20.5625,6.3125 6.97201,0.39923 13.87191,0.0114 19.34375,-0.96875 1.18159,-0.16014 2.16933,-0.34842 2.90625,-0.5625 0.4102,-0.11916 0.81795,-0.22813 1.21875,-0.375 1.94317,-0.54785 3.5697,-1.17679 4.75,-1.90625 2.85566,-1.7649 4.8714,-4.58445 6.0625,-8.28125 0.0501,-0.13808 0.11151,-0.2674 0.15625,-0.40625 0.0239,-0.0798 0.0394,-0.16942 0.0625,-0.25 0.0283,-0.0949 0.068,-0.18601 0.0937,-0.28125 0.0724,-0.26774 0.12832,-0.55448 0.1875,-0.875 1.1236,-4.83437 1.00713,-10.96291 -0.4375,-18.15625 -1.1222,-5.58785 -1.08792,-5.76019 1.8125,-9.34375 2.61729,-3.23375 3.77475,-3.79909 9.90625,-4.84375 13.98136,-2.38207 26.2697,-9.26785 38.96875,-21.84375 3.93543,-3.89726 8.36538,-9.20769 9.875,-11.8125 9.21702,-15.90369 6.60214,-33.54451 -7.15625,-47.96875 -6.52663,-6.84249 -12.86376,-10.26215 -17.1875,-9.3125 -4.26952,0.93774 -4.73058,3.68613 -1.5,9.28125 11.27893,19.53431 12.57345,23.75891 9.96875,32.71875 -2.29658,7.89995 -11.03001,17.09036 -20.90625,22.03125 -3.36992,1.6859 -6.33119,2.77354 -7.4375,2.75 -0.22935,-0.85451 -0.4117,-2.53527 -0.53125,-5.09375 0.0916,-0.8729 0.21711,-1.80838 0.375,-2.78125 1.14873,-7.07774 0.71478,-15.35752 -1.21875,-24.875 -0.24945,-1.76913 -0.61163,-3.28336 -1.09375,-4.875 -0.12414,-0.50351 -0.21168,-0.99002 -0.34375,-1.5 -3.1939,-12.33267 -2.74171,-14.43997 5.25,-23.84375 3.50715,-4.12683 6.66039,-8.61563 7,-9.96875 1.25038,-4.98193 -0.43036,-10.38375 -5.65625,-18.34375 -6.41283,-9.76794 -7.01649,-12.37595 -5.25,-22.5 2.77061,-15.87884 0.24799,-21.00122 -12.1875,-24.59375 -14.1029,-4.07424 -14.88173,-4.52243 -22.96875,-13.40625 -2.18477,-2.40004 -4.04625,-4.34788 -5.78125,-5.875 -1.00785,-0.9878 -1.92342,-1.79893 -2.46875,-2.15625 -0.90909,-0.59566 -1.86988,-1.02845 -2.90625,-1.34375 -4.95704,-1.9449 -10.3341,-0.29087 -20.90625,4.25 -7.55572,3.24524 -11.46006,3.25693 -19,0 -2.59496,-1.12091 -6.3246,-2.51252 -9.28125,-3.46875 -1.81807,-0.6819 -3.42248,-1.13975 -4.875,-1.375 -1.08407,-0.24879 -1.92876,-0.38406 -2.71875,-0.34375 z m 60.4375,30.15625 c 0.51246,-0.0226 0.89497,0.39411 1.4375,1.09375 1.08783,1.40285 1.504,4.45318 1.5,11 -0.006,10.10523 -1.14714,15.51977 -3.75,17.78125 -2.6601,2.31121 -6.42586,2.81318 -9.9375,1.3125 -8.55607,-3.6564 -6.40139,-13.84458 5.625,-26.65625 3.03152,-3.22947 4.2709,-4.4935 5.125,-4.53125 z m -67.78123,0.0937 c 0.7657,-0.0711 1.9672,1.26894 5.1875,4.8125 5.33188,5.86711 9.78783,13.20636 10.90623,17.96875 0.49917,2.12557 0.0324,3.36545 -2.125,5.65625 -4.71674,5.00841 -10.45843,4.80972 -13.93753,-0.5 -2.3138,-3.53141 -3.249,-22.79199 -1.2812,-26.46875 0.4708,-0.87967 0.7906,-1.42609 1.25,-1.46875 z m 1.7187,46.5625 c 5.49868,0 10.62461,3.47258 12.84378,8.0625 0.0392,0.0947 0.0881,0.18564 0.125,0.28125 0.0236,0.0521 0.0397,0.10388 0.0625,0.15625 0.67647,1.82366 0.95192,3.79329 0.84375,5.75 -0.51761,3.18265 -2.7024,7.33625 -5.21875,9.65625 -1.80081,1.66029 -4.05766,2.47785 -7.37498,2.71875 -5.8164,0.4224 -8.1682,-0.49139 -11.5938,-4.5625 -7.5944,-9.02548 -1.4916,-22.0625 10.3125,-22.0625 z m 65.31253,0 c 3.71264,0 5.2803,0.59608 8.125,3.09375 6.67372,5.85961 6.90208,14.3013 0.5625,20.375 -2.20753,2.11495 -4.10493,2.90579 -7.71875,3.15625 -5.4766,0.37958 -6.85178,-0.0371 -10.125,-3 -3.95261,-3.57792 -5.43541,-8.07978 -4.90625,-12.1875 0.008,-0.0527 0.0232,-0.10363 0.0312,-0.15625 0.004,-0.0307 -0.005,-0.0631 0,-0.0937 0.0473,-0.29585 0.12299,-0.58222 0.1875,-0.875 1.25877,-5.656 6.33352,-10.3125 13.84375,-10.3125 z m -61.3125,11 c -1.43003,0 -3.15253,0.5275 -3.81253,1.1875 -1.989,1.98904 -1.4172,6.535 1.0313,8.25 1.2224,0.85618 2.476,1.5625 2.78123,1.5625 2.02825,0 5,-3.46799 5,-5.84375 0,-3.44143 -1.65445,-5.15625 -5,-5.15625 z m 57.5,0.0937 c -1.42101,-0.0126 -2.82453,0.61064 -3.96875,1.875 -2.2705,2.50887 -1.32113,6.79399 1.75,7.9375 5.23692,1.94993 9.86581,-3.87957 6.25,-7.875 -1.16266,-1.28474 -2.61024,-1.92495 -4.03125,-1.9375 z m -29.125,22.25 c 0.33061,0.006 0.67026,0.37134 1.15625,1.03125 2.34995,3.19091 3.90392,11.96229 2.5625,14.46875 -1.26976,2.37258 -4.9806,2.8944 -6.90625,0.96875 -1.81592,-1.81592 -1.38772,-7.77397 0.90625,-12.8125 1.19599,-2.62689 1.73023,-3.66589 2.28125,-3.65625 z m 18.03125,108.6563 c 0.78907,0 1.47011,0.0733 2.0625,0.1875 1.57183,0.67821 2.58234,2.40747 2.34375,4.90625 -0.26725,2.79894 -0.75151,3.45294 -2.8125,3.625 -6.08153,0.5077 -9.06719,-3.55143 -5.1875,-7.0625 0.95207,-0.86161 1.95613,-1.38484 2.90625,-1.625 0.22062,-0.0131 0.44594,-0.0312 0.6875,-0.0312 z m 29.34375,0.0625 c 1.61231,-0.0728 3.18174,0.27549 4.03125,1.125 2.30989,2.30989 1.29889,4.5737 -2.8125,6.21875 -5.09042,2.03678 -4.84751,2.06253 -6,-0.96875 -0.5232,-1.37613 -0.807,-2.10691 -0.84375,-2.65625 0.086,-0.39567 0.20443,-0.77538 0.375,-1.125 0.23914,-0.28987 0.5984,-0.62965 1.0625,-1.09375 0.92983,-0.92983 2.57519,-1.42722 4.1875,-1.5 z m -94.43753,0.0312 c 0.9867,-0.0437 2.0406,0.1271 3.0938,0.53125 1.6052,0.61599 2.0737,3.90173 0.9687,6.78125 -1.1738,3.05903 -9.375,1.03578 -9.375,-2.3125 0,-2.90015 2.3525,-4.86894 5.3125,-5 z m 27.78128,0.25 c 0.91716,-0.0471 2.0111,0.12272 3.25,0.59375 3.48488,1.32494 3.54952,4.77987 0.0937,6.09375 -3.61534,1.37455 -5.14395,1.19865 -5.84375,-0.625 -1.38982,-3.62183 -0.25147,-5.92128 2.5,-6.0625 z m -13.87498,1.03125 c 1.0856,-0.0263 2.1894,0.32662 3.3125,1.0625 3.19173,2.09132 3.32565,6.10488 0.2187,6.9375 -1.2335,0.33056 -2.4002,0.51742 -3.4375,0.59375 -0.4178,0.0217 -0.8087,0.0324 -1.2187,0.0312 -3.9941,-0.0875 -5.8399,-2.21672 -3.75,-5.40625 1.3562,-2.06981 3.0657,-3.17492 4.875,-3.21875 z m 65.03123,0.0937 c 3.11035,-0.31978 7.19296,3.56968 6.3125,6.34375 -0.58761,1.85138 -1.44231,2.1875 -5.46875,2.1875 -5.38008,0 -6.09375,-0.40495 -6.09375,-3.53125 0,-2.43171 1.37331,-3.87017 4.65625,-4.875 0.19706,-0.0603 0.38639,-0.10368 0.59375,-0.125 z"
           style="fill:#999999;stroke:#999999;stroke-width:5.95216465;stroke-linejoin:round;stroke-miterlimit:4;stroke-dasharray:none;filter:url(#filter3854)"
           inkscape:connector-curvature="0" />
        <path
           inkscape:connector-curvature="0"
           style="fill:#ffffff;stroke:#ffffff;stroke-width:5.95216465;stroke-linejoin:round;stroke-miterlimit:4;stroke-dasharray:none"
           d="m -786.58405,457.92418 c -1.33373,0.0681 -2.57003,0.58283 -4.78123,1.5625 -3.3708,1.49337 -6.3866,4.15635 -10.875,9.625 -6.6153,8.06 -7.1713,8.35637 -21.9063,12.625 -8.2731,2.39668 -12.3756,5.81575 -13.4375,11.125 -0.3503,1.75174 0.072,7.25946 0.9375,12.25 1.9422,11.19379 1.4701,13.81481 -3.75,21.25 -10.4112,14.82901 -10.2948,19.49334 0.7813,31.75 4.3026,4.76126 6.2009,7.99551 6.25,12.90625 -0.012,0.3259 -0.011,0.62354 -0.031,0.96875 -0.025,0.70209 -0.066,1.4388 -0.1563,2.21875 -10e-4,0.0107 0.001,0.0205 0,0.0312 -0.2656,2.27461 -0.8207,4.91861 -1.5937,8.125 -3.1526,13.07726 -3.5955,22.11428 -1.6563,33.25 1.9457,11.17313 6.0273,21.43977 12.1875,30.625 4.475,6.67239 4.5178,6.76474 3.4688,11.65625 -0.5824,2.71572 -1.0625,8.18724 -1.0625,12.15625 0,11.70715 3.9571,16.9152 14.7187,19.34375 1.3515,0.30499 3.1651,0.5445 5.3125,0.71875 0.1607,0.0122 0.3021,0.0201 0.4688,0.0312 3.5034,0.26303 7.8286,0.36721 12.5,0.25 13.73546,-0.34464 19.27407,-1.99493 23.90623,-7.03125 0.12366,-0.13445 0.24972,-0.25079 0.375,-0.375 3.07644,-2.28224 5.49982,-2.73749 8.34375,-1.3125 0.54196,0.28337 1.10088,0.61877 1.65625,1.03125 0.007,0.005 0.0238,-0.005 0.0312,0 0.54032,0.40262 1.07308,0.88155 1.625,1.40625 4.66926,4.43899 8.54733,5.62449 20.5625,6.3125 6.97201,0.39923 13.87191,0.0114 19.34375,-0.96875 1.18159,-0.16014 2.16933,-0.34842 2.90625,-0.5625 0.4102,-0.11916 0.81795,-0.22813 1.21875,-0.375 1.94317,-0.54785 3.5697,-1.17679 4.75,-1.90625 2.85566,-1.7649 4.8714,-4.58445 6.0625,-8.28125 0.0501,-0.13808 0.11151,-0.2674 0.15625,-0.40625 0.0239,-0.0798 0.0394,-0.16942 0.0625,-0.25 0.0283,-0.0949 0.068,-0.18601 0.0937,-0.28125 0.0724,-0.26774 0.12832,-0.55448 0.1875,-0.875 1.1236,-4.83437 1.00713,-10.96291 -0.4375,-18.15625 -1.1222,-5.58785 -1.08792,-5.76019 1.8125,-9.34375 2.61729,-3.23375 3.77475,-3.79909 9.90625,-4.84375 13.98136,-2.38207 26.2697,-9.26785 38.96875,-21.84375 3.93543,-3.89726 8.36538,-9.20769 9.875,-11.8125 9.21702,-15.90369 6.60214,-33.54451 -7.15625,-47.96875 -6.52663,-6.84249 -12.86376,-10.26215 -17.1875,-9.3125 -4.26952,0.93774 -4.73058,3.68613 -1.5,9.28125 11.27893,19.53431 12.57345,23.75891 9.96875,32.71875 -2.29658,7.89995 -11.03001,17.09036 -20.90625,22.03125 -3.36992,1.6859 -6.33119,2.77354 -7.4375,2.75 -0.22935,-0.85451 -0.4117,-2.53527 -0.53125,-5.09375 0.0916,-0.8729 0.21711,-1.80838 0.375,-2.78125 1.14873,-7.07774 0.71478,-15.35752 -1.21875,-24.875 -0.24945,-1.76913 -0.61163,-3.28336 -1.09375,-4.875 -0.12414,-0.50351 -0.21168,-0.99002 -0.34375,-1.5 -3.1939,-12.33267 -2.74171,-14.43997 5.25,-23.84375 3.50715,-4.12683 6.66039,-8.61563 7,-9.96875 1.25038,-4.98193 -0.43036,-10.38375 -5.65625,-18.34375 -6.41283,-9.76794 -7.01649,-12.37595 -5.25,-22.5 2.77061,-15.87884 0.24799,-21.00122 -12.1875,-24.59375 -14.1029,-4.07424 -14.88173,-4.52243 -22.96875,-13.40625 -2.18477,-2.40004 -4.04625,-4.34788 -5.78125,-5.875 -1.00785,-0.9878 -1.92342,-1.79893 -2.46875,-2.15625 -0.90909,-0.59566 -1.86988,-1.02845 -2.90625,-1.34375 -4.95704,-1.9449 -10.3341,-0.29087 -20.90625,4.25 -7.55572,3.24524 -11.46006,3.25693 -19,0 -2.59496,-1.12091 -6.3246,-2.51252 -9.28125,-3.46875 -1.81807,-0.6819 -3.42248,-1.13975 -4.875,-1.375 -1.08407,-0.24879 -1.92876,-0.38406 -2.71875,-0.34375 z m 44.78125,218.81245 c 0.78907,0 1.47011,0.0733 2.0625,0.1875 1.57183,0.67821 2.58234,2.40747 2.34375,4.90625 -0.26725,2.79894 -0.75151,3.45294 -2.8125,3.625 -6.08153,0.5077 -9.06719,-3.55143 -5.1875,-7.0625 0.95207,-0.86161 1.95613,-1.38484 2.90625,-1.625 0.22062,-0.0131 0.44594,-0.0312 0.6875,-0.0312 z m 29.34375,0.0625 c 1.61231,-0.0728 3.18174,0.27549 4.03125,1.125 2.30989,2.30989 1.29889,4.5737 -2.8125,6.21875 -5.09042,2.03678 -4.84751,2.06253 -6,-0.96875 -0.5232,-1.37613 -0.807,-2.10691 -0.84375,-2.65625 0.086,-0.39567 0.20443,-0.77538 0.375,-1.125 0.23914,-0.28987 0.5984,-0.62965 1.0625,-1.09375 0.92983,-0.92983 2.57519,-1.42722 4.1875,-1.5 z m -94.43753,0.0312 c 0.9867,-0.0437 2.0406,0.1271 3.0938,0.53125 1.6052,0.61599 2.0737,3.90173 0.9687,6.78125 -1.1738,3.05903 -9.375,1.03578 -9.375,-2.3125 0,-2.90015 2.3525,-4.86894 5.3125,-5 z m 27.78128,0.25 c 0.91716,-0.0471 2.0111,0.12272 3.25,0.59375 3.48488,1.32494 3.54952,4.77987 0.0937,6.09375 -3.61534,1.37455 -5.14395,1.19865 -5.84375,-0.625 -1.38982,-3.62183 -0.25147,-5.92128 2.5,-6.0625 z m -13.87498,1.03125 c 1.0856,-0.0263 2.1894,0.32662 3.3125,1.0625 3.19173,2.09132 3.32565,6.10488 0.2187,6.9375 -1.2335,0.33056 -2.4002,0.51742 -3.4375,0.59375 -0.4178,0.0217 -0.8087,0.0324 -1.2187,0.0312 -3.9941,-0.0875 -5.8399,-2.21672 -3.75,-5.40625 1.3562,-2.06981 3.0657,-3.17492 4.875,-3.21875 z m 65.03123,0.0937 c 3.11035,-0.31978 7.19296,3.56968 6.3125,6.34375 -0.58761,1.85138 -1.44231,2.1875 -5.46875,2.1875 -5.38008,0 -6.09375,-0.40495 -6.09375,-3.53125 0,-2.43171 1.37331,-3.87017 4.65625,-4.875 0.19706,-0.0603 0.38639,-0.10368 0.59375,-0.125 z"
           id="path3828-1"
           sodipodi:nodetypes="ccssccssccccssssssccssccccsscccscccccssssssssssccsccssssssscscssccccccsssccccsssccsccscsccssscccssccsccsssscs" />
      </g>
      <path
         style="fill:#698002"
         d="m -807.49447,689.39384 c -10.76166,-2.42855 -14.72374,-7.63283 -14.72374,-19.33998 0,-3.96901 0.47653,-9.43834 1.05894,-12.15406 1.04905,-4.89151 1.01671,-5.00067 -3.45823,-11.67306 -6.16021,-9.18523 -10.24572,-19.44615 -12.19142,-30.61928 -1.93919,-11.13572 -1.4861,-20.17663 1.66652,-33.25389 3.10531,-12.88098 2.4154,-16.62342 -4.46885,-24.24143 -11.07611,-12.25666 -11.19089,-16.93216 -0.7797,-31.76117 5.22012,-7.43519 5.67949,-10.04584 3.73734,-21.23963 -0.86588,-4.99054 -1.28767,-10.50696 -0.93732,-12.2587 1.06185,-5.30925 5.17412,-8.70388 13.44726,-11.10056 14.73495,-4.26863 15.29358,-4.59121 21.90881,-12.65121 4.48839,-5.46865 7.48839,-8.12619 10.85917,-9.61956 4.42253,-1.95933 4.93493,-1.98547 10.15748,-0.51832 3.025,0.84981 8.2,2.71138 11.5,4.13684 7.53994,3.25693 11.44428,3.25994 19,0.0147 17.83798,-7.66163 20.89071,-7.17471 32.07984,5.11686 8.08702,8.88382 8.84227,9.32485 22.94517,13.39909 12.43549,3.59253 14.98542,8.72975 12.21481,24.60859 -1.76649,10.12405 -1.15988,12.72105 5.25295,22.48899 5.22589,7.96 6.88727,13.3685 5.63689,18.35043 -0.33961,1.35312 -3.48696,5.83672 -6.99411,9.96355 -7.99171,9.40378 -8.45569,11.50583 -5.26179,23.8385 3.17472,12.25861 4.05796,22.64417 2.65888,31.26443 -0.63158,3.89146 -0.74283,7.28391 -0.25485,7.77189 0.48798,0.48798 3.9219,-0.66282 7.86688,-2.63641 9.87624,-4.94089 18.60338,-14.14695 20.89996,-22.0469 2.6047,-8.95984 1.31709,-13.18951 -9.96184,-32.72382 -3.23058,-5.59512 -2.79312,-8.34592 1.4764,-9.28366 4.32374,-0.94965 10.66434,2.49393 17.19097,9.33642 13.75839,14.42424 16.39574,32.03688 7.17872,47.94057 -1.50962,2.60481 -5.96467,7.92468 -9.9001,11.82194 -12.69905,12.5759 -24.98249,19.46243 -38.96385,21.8445 -6.1315,1.04466 -7.27808,1.60537 -9.89537,4.83912 -2.90042,3.58356 -2.93713,3.77293 -1.81493,9.36078 2.81965,14.04011 0.64868,24.04138 -6.12775,28.22945 -4.72118,2.91785 -16.39449,4.49768 -28.22688,3.82014 -12.01517,-0.68801 -15.8729,-1.87346 -20.54216,-6.31245 -4.46688,-4.24658 -8.57114,-4.49612 -12.03353,-0.73163 -4.63216,5.03632 -10.18883,6.66419 -23.92431,7.00883 -7.79915,0.19569 -14.67227,-0.17657 -18.27626,-0.98987 z m 18.02626,-3.28509 c 3.10692,-0.83262 2.99071,-4.83827 -0.20104,-6.92959 -2.99491,-1.96234 -6.02398,-1.17097 -8.19389,2.14073 -2.78648,4.25271 1.4269,6.65622 8.39493,4.78886 z m 67.81075,-1.56112 c 0.93916,-2.95901 -3.7557,-7.18755 -6.90871,-6.2225 -3.28294,1.00483 -4.65204,2.43798 -4.65204,4.86969 0,3.1263 0.7192,3.54422 6.09928,3.54422 4.02644,0 4.87386,-0.34003 5.46147,-2.19141 z m -81.16774,-0.39038 c 1.10498,-2.87952 0.63044,-6.19523 -0.9748,-6.81122 -4.21276,-1.61659 -8.41821,0.62979 -8.41821,4.49666 0,3.34828 8.21915,5.37359 9.39301,2.31456 z m 65.43117,-2.31335 c 0.47719,-4.99755 -4.10201,-6.97338 -7.99544,-3.44987 -3.87969,3.51107 -0.91027,7.56142 5.17126,7.05372 2.06099,-0.17206 2.55693,-0.80491 2.82418,-3.60385 z m 26.15558,2.28656 c 4.11139,-1.64505 5.13013,-3.88153 2.82024,-6.19142 -1.69902,-1.69902 -6.36891,-1.48823 -8.22857,0.37143 -1.8564,1.8564 -1.82789,1.62382 -0.59618,4.86347 1.15249,3.03128 0.91409,2.9933 6.00451,0.95652 z m -64.54486,-0.36667 c 3.45577,-1.31388 3.41788,-4.75003 -0.067,-6.07497 -4.95562,-1.88412 -7.61403,0.63932 -5.76093,5.46843 0.6998,1.82365 2.21257,1.98109 5.82791,0.60654 z m 19.6525,-100.18806 c 1.34142,-2.50646 -0.20841,-11.26169 -2.55836,-14.4526 -1.29597,-1.75975 -1.52275,-1.58711 -3.43633,2.61591 -2.29397,5.03853 -2.70863,10.98408 -0.89271,12.8 1.92565,1.92565 5.61764,1.40927 6.8874,-0.96331 z M -783.5567,558.6327 c 2.88438,-2.65931 5.33849,-7.69783 5.33849,-10.96041 0,-6.7729 -6.66846,-12.93325 -14,-12.93325 -11.80417,0 -17.88621,13.03962 -10.29177,22.0651 3.42562,4.07111 5.75799,4.99193 11.5744,4.56953 3.31734,-0.2409 5.57807,-1.08068 7.37888,-2.74097 z m -7.439,-3.45036 c -2.4485,-1.715 -3.01155,-6.25426 -1.02251,-8.2433 0.66,-0.66 2.37,-1.2 3.8,-1.2 3.34555,0 5,1.70187 5,5.1433 0,2.37576 -2.97175,5.8567 -5,5.8567 -0.30524,0 -1.55511,-0.70052 -2.77749,-1.5567 z m 72.80113,3.03405 c 6.33958,-6.0737 6.10293,-14.525 -0.57079,-20.38461 -2.8447,-2.49767 -4.40697,-3.09274 -8.11961,-3.09274 -13.35152,0 -19.0558,14.68151 -9.17825,23.62272 3.27322,2.96294 4.66516,3.37391 10.14176,2.99433 3.61382,-0.25046 5.51936,-1.02475 7.72689,-3.1397 z m -14.74372,-2.56414 c -3.07113,-1.14351 -4.01395,-5.44463 -1.74345,-7.9535 2.28844,-2.52871 5.66561,-2.49888 7.99093,0.0706 3.61581,3.99543 -1.01056,9.83287 -6.24748,7.88294 z m -47.01814,-39.03858 c 2.1574,-2.2908 2.62195,-3.52802 2.12278,-5.65359 -1.1184,-4.76239 -5.57565,-12.10753 -10.90755,-17.97464 -5.15249,-5.66969 -5.17411,-5.6809 -6.42953,-3.33512 -1.96774,3.67676 -1.04374,22.9193 1.27013,26.45071 3.47907,5.30972 9.22743,5.52105 13.94417,0.51264 z m 52.98261,1.34115 c 2.60286,-2.26148 3.74381,-7.66942 3.75003,-17.77465 0.004,-6.54682 -0.41183,-9.59715 -1.49966,-11 -1.44675,-1.86571 -1.70132,-1.73224 -6.55175,3.43491 -12.02639,12.81167 -14.17034,22.98555 -5.61427,26.64195 3.51164,1.50068 7.25555,1.009 9.91565,-1.30221 z"
         id="path3828"
         inkscape:connector-curvature="0" />
      <path
         style="fill:#627603"
         d="m -804.75687,689.81766 c -9.92036,-1.59219 -15.83682,-6.73119 -17.04797,-14.80777 -0.39487,-2.63314 -0.15383,-8.75416 0.54521,-13.8457 l 1.25297,-9.12606 -3.58122,-4.98479 c -11.71668,-16.30877 -16.62774,-40.86296 -12.0634,-60.3143 1.9491,-8.30623 2.84284,-17.23121 2.04418,-20.41332 -0.3432,-1.36742 -3.32251,-5.54632 -6.6207,-9.28645 -10.05058,-11.39732 -10.08892,-14.90221 -0.32294,-29.51899 l 5.53299,-8.28124 -0.64896,-7.5 c -1.92243,-22.2174 -1.99232,-20.32267 0.87526,-23.73058 2.69848,-3.20697 5.82104,-4.61328 18.16562,-8.18129 6.79681,-1.96452 7.4332,-2.42285 15.27092,-10.99839 11.60489,-12.69734 14.04445,-13.23642 28.88025,-6.38186 10.25139,4.73643 14.46354,4.68318 25.37504,-0.3208 9.51804,-4.36495 15.58321,-4.93903 20.20269,-1.91223 1.54371,1.01149 5.48153,5.11244 8.7507,9.11323 6.30517,7.71626 9.42096,9.4952 21.67821,12.37708 7.23444,1.70094 11.47917,4.7868 13.02152,9.46645 1.06111,3.21953 1.00471,5.42589 -0.34063,13.3236 -0.88678,5.20581 -1.32581,10.99239 -0.97562,12.85905 0.35019,1.86667 2.70458,6.41438 5.23198,10.10603 9.8106,14.32986 9.69945,18.70359 -0.75628,29.75898 -7.61344,8.05009 -8.47804,12.37027 -4.7072,23.52073 1.90944,5.64627 2.20327,8.70001 2.2371,23.25007 0.0265,11.40091 0.38712,16.75005 1.12922,16.75 0.59965,-4e-5 3.97465,-1.43352 7.5,-3.18552 8.61105,-4.27945 18.01414,-13.68456 20.23833,-20.24269 3.2055,-9.45152 1.95389,-15.25526 -6.43116,-29.82135 -6.00648,-10.43417 -6.14589,-13.10514 -0.70759,-13.55729 2.09734,-0.17438 5.11849,0.43103 7,1.40273 5.10733,2.63766 14.00867,12.35315 17.0549,18.61479 7.94042,16.32185 5.28945,30.6547 -8.37388,45.27451 -12.80139,13.69753 -25.72857,21.46958 -40.56837,24.39042 -7.84741,1.54456 -8.6878,1.95034 -11.30282,5.45752 -2.39021,3.20567 -2.689,4.26333 -1.9411,6.87111 1.64301,5.72883 2.19668,17.17058 1.03818,21.45435 -1.37361,5.0792 -6.4122,9.77544 -12.33364,11.49565 -5.89535,1.71262 -28.05112,1.69792 -33.97127,-0.0225 -2.58948,-0.75253 -6.48601,-2.89003 -8.65896,-4.75 -5.05532,-4.32717 -8.19458,-4.34077 -13.19897,-0.0572 -2.13619,1.8285 -5.58273,3.87207 -7.65896,4.54127 -4.7351,1.52618 -24.10977,2.28874 -30.81363,1.21279 z m 81.9425,-3.38465 c 4.51737,-3.30318 -1.41046,-10.13277 -7.06795,-8.14314 -3.85967,1.35738 -5.54861,6.08924 -2.872,8.04642 2.41072,1.76277 7.59254,1.81319 9.93995,0.0967 z m -79.27072,-3.69047 c 0.89477,-4.37494 -0.38901,-6.0035 -4.73251,-6.0035 -2.48373,0 -3.78408,0.65561 -5.00936,2.52562 -1.54605,2.35958 -1.5407,2.65176 0.0814,4.44414 1.70391,1.88279 4.59485,2.90517 7.48761,2.64799 0.81925,-0.0728 1.77307,-1.65937 2.17288,-3.61425 z m 14.89146,2.46689 c 3.20462,-3.86133 -3.41288,-8.98139 -8.57073,-6.63131 -2.44829,1.11551 -4.16638,5.19901 -2.98898,7.10408 1.03299,1.6714 10.08754,1.30108 11.55971,-0.47277 z m 50.10854,-2.46689 c 0.89477,-4.37494 -0.38901,-6.0035 -4.73251,-6.0035 -2.45864,0 -3.78428,0.65592 -4.96375,2.45602 -1.91478,2.92232 -1.26799,4.27098 2.93319,6.1162 4.46509,1.96113 5.95213,1.39633 6.76307,-2.56872 z m -38.601,1.54753 c 5.94659,-2.48465 3.45448,-8.1641 -3.23071,-7.36268 -3.48971,0.41835 -4.72372,2.61576 -3.40406,6.06165 1.20943,3.15809 1.87693,3.28898 6.63477,1.30103 z m 65.23848,0.37909 c 3.55739,-1.24011 4.29052,-2.55878 3.14129,-5.6502 -1.94393,-5.22918 -10.91189,-3.1117 -10.91189,2.57647 0,4.42773 1.82064,5.1479 7.7706,3.07373 z m -33.03164,-13.62193 c 2.57145,-0.34491 5.0123,0.0289 7.04209,1.07859 2.36794,1.22451 3.7403,1.3655 5.77208,0.59302 1.71825,-0.65328 3.87233,-0.68022 6.06131,-0.0758 2.52709,0.69776 4.15636,0.5582 6.3689,-0.54556 1.63521,-0.81576 4.84312,-1.509 7.12868,-1.54054 l 4.15556,-0.0574 -0.6503,-7.79766 c -0.7327,-8.78576 -2.68723,-14.39476 -5.54989,-15.92681 -6.96407,-3.72706 -28.13362,3.51624 -34.56739,11.82745 -2.70613,3.49582 -4.46675,8.81926 -4.48494,13.56079 l -0.0151,3.92436 2.40171,-2.25629 c 1.32094,-1.24096 4.1727,-2.49383 6.33725,-2.78415 z m -63.58459,-0.30203 c 1.8401,0.003 4.58691,0.65366 6.10403,1.44505 2.10403,1.09755 3.46808,1.1915 5.75,0.39602 2.04157,-0.7117 3.91665,-0.72041 5.90452,-0.0274 2.34522,0.81755 3.73155,0.61042 7.11338,-1.06278 l 4.20047,-2.07822 -0.68473,-6.94893 c -1.08054,-10.96583 -1.73808,-11.77612 -12.53446,-15.44652 -14.11729,-4.79939 -23.19562,1.91396 -25.35816,18.75218 -0.24974,1.94455 -0.22169,4.75114 0.0623,6.23687 l 0.51639,2.70134 2.79031,-1.98687 c 1.53466,-1.09278 4.29583,-1.9841 6.13593,-1.98071 z m 54.40854,-19.11951 c 6.32524,-6.70484 18.99791,-12.43473 29.93709,-13.53592 4.83797,-0.48702 6.6219,-1.19117 9.21109,-3.63581 1.7661,-1.6675 2.95832,-3.44081 2.64938,-3.94068 -0.30893,-0.49987 0.34162,-1.14508 1.44569,-1.4338 2.29003,-0.59886 7.58259,-6.81817 9.37501,-11.01663 0.66305,-1.5531 1.7493,-3.49881 2.41387,-4.32381 1.11813,-1.38804 6.64216,-18.12682 6.13215,-18.5815 -0.12496,-0.11139 -2.47719,0.17205 -5.22719,0.62987 -2.75,0.45783 -7.84655,0.85923 -11.32567,0.89202 -5.55205,0.0523 -6.59158,0.37787 -8.5,2.66193 -5.20273,6.22683 -15.2126,15.08414 -19.50962,17.26325 -2.56559,1.30106 -5.33971,2.9264 -6.16471,3.61185 -2.79274,2.32037 -11.326,4.5227 -17.42814,4.49799 -10.02028,-0.0406 -21.26376,-4.72485 -30.5443,-12.72541 -2.07348,-1.7875 -4.0669,-3.25 -4.42984,-3.25 -0.69492,0 -6.60264,-6.2199 -8.85322,-9.32106 -1.05031,-1.44725 -3.5331,-2.01308 -12.0954,-2.75656 -5.9256,-0.51453 -12.09575,-1.61911 -13.71146,-2.45463 l -2.93764,-1.51911 -0.12905,3.77568 c -0.32758,9.58457 0.3248,14.06251 2.84464,19.52568 1.45868,3.1625 3.01941,5.75 3.46828,5.75 0.44887,0 0.81613,0.53962 0.81613,1.19916 0,0.65953 1.31254,2.57203 2.91675,4.25 1.60421,1.67796 4.4547,4.80727 6.33443,6.95402 l 3.41768,3.90318 10.91557,0.1809 c 8.99387,0.14905 11.97188,0.61083 16.91557,2.62298 9.41164,3.83069 13.99303,6.52455 17.6004,10.34904 2.76702,2.93358 4.04152,3.54072 7.43255,3.54072 3.28516,0 4.67249,-0.61441 7.02996,-3.11335 z m -10.56291,0.11335 c 0,-0.55 0.45,-1 1,-1 0.55,0 1,0.45 1,1 0,0.55 -0.45,1 -1,1 -0.55,0 -1,-0.45 -1,-1 z m -53,-53 c 0,-0.55 0.42344,-1 0.94098,-1 0.51754,0 1.2191,0.45 1.55902,1 0.33992,0.55 -0.0835,1 -0.94098,1 -0.85746,0 -1.55902,-0.45 -1.55902,-1 z m 138.57186,32.36709 c 2.71048,-0.89811 5.35564,-2.02311 5.87814,-2.5 0.5225,-0.4769 1.72734,-0.86709 2.67742,-0.86709 0.95008,0 2.54758,-1.0125 3.55,-2.25 1.00242,-1.2375 3.39758,-2.97795 5.32258,-3.86766 6.02426,-2.78435 15.62416,-11.66524 18.0571,-16.70465 1.24207,-2.57273 2.71337,-5.57769 3.26957,-6.67769 1.46147,-2.89036 0.96037,-12.8769 -0.86553,-17.24943 -2.15246,-5.15452 -6.5347,-12.51034 -7.11021,-11.93484 -0.26001,0.26001 0.48543,3.62731 1.65652,7.48289 1.83182,6.03086 1.98314,7.80061 1.08323,12.66867 -0.57532,3.11219 -2.29358,7.89196 -3.81836,10.6217 -2.22644,3.9859 -2.50517,5.13032 -1.41556,5.81209 1.00609,0.6295 1.05351,1.03634 0.18347,1.57406 -0.64531,0.39882 -1.43376,0.46466 -1.75211,0.14631 -0.31836,-0.31835 -3.53358,2.18521 -7.14495,5.56347 -4.65141,4.35116 -9.27427,7.42515 -15.85313,10.54158 -7.98568,3.78286 -11.29004,6.33143 -11.29004,8.70776 0,0.97292 2.46213,0.62591 7.57186,-1.06717 z m -79.29057,-27.98171 c 0.33804,-0.33804 -0.0837,-1.68034 -0.93713,-2.98288 -1.22016,-1.8622 -1.327,-3.01297 -0.49997,-5.38538 0.93462,-2.68106 0.8356,-3.01712 -0.88901,-3.01712 -1.63461,0 -1.91519,0.65305 -1.77858,4.13955 0.11802,3.01193 -0.34461,4.51013 -1.69833,5.5 -4.62011,3.3783 -11.47827,-0.37266 -11.47827,-6.27787 0,-4.076 1.51232,-7.36168 3.38839,-7.36168 0.96921,0 1.19829,-1.25707 0.86559,-4.75 -0.30563,-3.20867 0.22874,-6.76783 1.64679,-10.96845 1.15458,-3.42015 2.09923,-6.85306 2.09923,-7.62868 0,-1.77101 5.04204,-3.9256 8.15506,-3.48486 2.8446,0.40273 6.03552,6.3822 8.42599,15.78947 1.28926,5.07368 1.38798,6.86247 0.46064,8.34738 -1.32509,2.12179 -1.39642,1.97889 1.8261,3.65791 2.09926,1.09376 2.3163,1.76954 1.91378,5.95864 l -0.45401,4.72496 8.58622,-4.91713 c 4.72242,-2.70441 9.57133,-5.82756 10.77535,-6.94031 2.72744,-2.52069 11.93588,-4.75271 19.69284,-4.77331 4.19274,-0.0111 6.84922,-0.61342 9.25,-2.09718 3.55987,-2.20012 3.54595,-2.15149 3.8418,-13.41844 0.30198,-11.50055 1.62249,-15.43817 6.24335,-18.61701 2.26129,-1.55562 8.28288,-8.65943 8.28288,-9.77152 0,-0.33743 -2.51866,-4.43805 -5.59701,-9.11249 l -5.59701,-8.49898 0.62011,-9 c 0.34106,-4.95 0.8824,-10.91688 1.20297,-13.25974 1.18595,-8.66724 1.20805,-8.64712 -14.62906,-13.32368 -8.42892,-2.48899 -12.59363,-4.82743 -15.87937,-8.91609 -2.37123,-2.95069 -3.79129,-3.92241 -5.11717,-3.50159 -1.00933,0.32035 -2.12457,0.11415 -2.47832,-0.45822 -0.35375,-0.57238 0.0584,-1.04068 0.91584,-1.04068 0.85746,0 1.55902,-0.3085 1.55902,-0.68555 0,-1.25862 -4.33046,-5.31445 -5.67431,-5.31445 -0.72913,0 -1.32569,-0.45 -1.32569,-1 0,-1.56059 -6.17215,-1.16257 -9.5,0.61263 -5.81041,3.09948 -15.5844,6.38737 -18.98788,6.38737 -3.93963,0 -10.65036,-2.04219 -18.28945,-5.56578 -9.20212,-4.24456 -11.54049,-3.32498 -21.1385,8.31278 -5.60591,6.79727 -9.62417,9.29752 -18.08417,11.25235 -13.78693,3.18572 -16.05095,5.86386 -14.06033,16.63212 2.47128,13.36835 1.24121,20.43261 -4.93967,28.36853 -8.2095,10.54056 -7.93571,13.73422 2.10849,24.59526 5.39691,5.83582 6.87798,10.05058 6.88593,19.59572 0.003,4.18784 0.46286,6.9736 1.22791,7.44643 0.67228,0.41549 4.60978,0.86114 8.75,0.99033 9.02295,0.28155 16.99584,2.87491 25.78983,8.38872 3.49434,2.19095 6.85443,3.98354 7.46685,3.98354 0.61243,0 1.92465,0.73407 2.91604,1.63126 3.92989,3.55651 11.28686,6.21011 17.43828,6.28987 3.34584,0.0434 6.35992,-0.19771 6.69796,-0.53575 z m -42.78129,-36.5871 c -6.72884,-2.34123 -12.5,-11.17543 -12.5,-19.13438 0,-1.6389 1.22611,-5.51668 2.72469,-8.61728 2.37602,-4.91606 3.36776,-5.91314 7.75,-7.79164 6.10896,-2.61868 7.75348,-2.84132 13.52531,-1.83112 6.85212,1.19928 10.68868,4.04191 13.51313,10.0123 4.01923,8.49596 2.91022,15.59526 -3.59326,23.00232 -4.51765,5.14532 -13.75723,7.02594 -21.41987,4.3598 z m 15.29774,-6.42659 c 6.1384,-3.95477 8.03272,-13.33589 3.93233,-19.47381 -5.99908,-8.98007 -18.1777,-8.77186 -23.77407,0.40645 -4.71061,7.72562 -0.26234,18.65526 8.544,20.99309 2.89378,0.76821 8.63537,-0.21045 11.29774,-1.92573 z m -7.7313,-6.24755 c -1.5277,-2.85453 -1.32428,-4.58082 0.7623,-6.46915 2.43254,-2.20142 4.47008,-2.08726 6.69867,0.37529 1.45302,1.60557 1.63855,2.59922 0.88693,4.75 -1.24227,3.55478 -6.69488,4.43255 -8.3479,1.34386 z m 57.16422,12.62356 c -6.53772,-2.09592 -12.24761,-11.10201 -12.20312,-19.2477 0.0231,-4.2228 3.13503,-10.43975 7.10035,-14.18477 2.7911,-2.63604 4.57821,-3.3471 10.37211,-4.12686 6.46147,-0.86961 7.31012,-0.76179 11.03097,1.40143 6.56912,3.81915 9.18951,7.26842 10.34611,13.6188 2.95843,16.24344 -10.57554,27.69127 -26.64642,22.5391 z m 13.49868,-5.71152 c 15.79667,-7.17085 6.46293,-31.54513 -9.99922,-26.11213 -12.79586,4.22302 -12.85737,23.22098 -0.0876,27.04774 4.26107,1.27693 5.45718,1.16599 10.08679,-0.93561 z m -13.27736,-7.46912 c -1.21583,-1.85559 -1.3402,-2.9074 -0.52411,-4.43228 2.43456,-4.54901 9.07213,-3.30492 9.07213,1.7004 0,5.37429 -5.63636,7.17563 -8.54802,2.73188 z m -58.69805,-28.42821 c -4.49572,-1.5524 -4.83353,-1.92896 -6.40433,-7.13885 -3.51182,-11.64776 -2.69222,-31.62971 1.44684,-35.274 4.16926,-3.67088 12.61099,1.6552 20.24649,12.774 5.69231,8.28912 7.8962,13.83602 7.02757,17.68743 -1.63078,7.23063 -5.31553,11.34688 -11.0705,12.36688 -1.925,0.34118 -4.175,0.75602 -5,0.92186 -0.825,0.16584 -3.63573,-0.43595 -6.24607,-1.33732 z m 13.99451,-7.63278 c 1.23836,-1.43968 2.25156,-3.76701 2.25156,-5.17186 0,-6.20054 -13.74347,-25.4141 -17.2235,-24.07869 -1.13288,0.43473 -1.80944,2.53854 -2.30526,7.16841 -1.14621,10.70321 0.99577,21.35256 4.85529,24.1391 3.19236,2.30485 9.57984,1.24715 12.42191,-2.05696 z m 39.75156,7.38959 c -1.1,-0.63746 -3.4625,-2.53804 -5.25,-4.22351 -6.24281,-5.88646 -4.01243,-15.36893 6.95538,-29.57091 5.60647,-7.2597 8.33164,-9.10124 13.4683,-9.10124 5.45595,0 6.8387,3.88227 6.76722,19 -0.0665,14.05703 -1.35655,19.13328 -5.67746,22.33971 -3.22353,2.39209 -13.17731,3.34439 -16.26344,1.55595 z m 10.98327,-4.8893 c 4.22733,-1.60723 5.85581,-6.90796 5.90977,-19.23636 0.0541,-12.35381 -0.75957,-14.19529 -5.17839,-11.72009 -3.52371,1.9738 -12.85139,15.00558 -14.37113,20.07804 -1.04603,3.49132 -0.95054,4.2535 0.83401,6.65738 3.51136,4.72998 7.77268,6.1346 12.80574,4.22103 z m -27.46853,64.47588 c 2.36206,-2.84611 -0.58873,-16.48224 -3.56667,-16.48224 -2.61766,0 -6.1959,12.73415 -4.47946,15.94135 1.32169,2.46959 6.1747,2.79583 8.04613,0.54089 z"
         id="path3826"
         inkscape:connector-curvature="0" />
      <path
         style="fill:#222811"
         d="m -803.21821,689.89511 c -5.99617,-0.94865 -13.03715,-4.54893 -15.4901,-7.9206 -2.48992,-3.4225 -3.25241,-14.78397 -1.56708,-23.35035 l 1.16992,-5.94657 -4.43208,-6.71928 c -6.08687,-9.22804 -7.24545,-11.70499 -10.23219,-21.87557 -3.62188,-12.33341 -3.81348,-26.88303 -0.53958,-40.97516 3.38656,-14.57709 2.81493,-17.16974 -5.94963,-26.98483 -7.21156,-8.07594 -8.87127,-11.8937 -7.12706,-16.39412 0.53068,-1.36927 3.47269,-6.24232 6.5378,-10.82898 3.0651,-4.58667 5.84201,-9.77381 6.17091,-11.527 0.3289,-1.75318 -0.12935,-7.37977 -1.01834,-12.50353 -2.6066,-15.02339 0.0245,-19.17429 14.64872,-23.1099 11.23606,-3.02381 12.95057,-4.04561 18.93074,-11.28217 10.84987,-13.12934 15.09131,-14.57397 26.39797,-8.99115 13.18758,6.51156 17.68077,6.61426 29.65848,0.67791 12.65331,-6.27117 17.04515,-5.1449 27.01773,6.92865 6.37588,7.7191 9.73895,9.7929 20.48474,12.63163 5.76394,1.52268 9.62118,3.18836 11.71602,5.05937 2.9006,2.59066 3.1166,3.2404 3.03273,9.12245 -0.0497,3.48322 -0.4453,9.95557 -0.87918,14.38299 -0.88313,9.01173 -0.54417,10.05776 6.69648,20.66532 4.01946,5.8885 5.5586,11.5186 4.40522,16.11404 -0.33821,1.34751 -3.29757,5.41022 -6.57637,9.02824 -8.2858,9.14306 -8.92435,11.95261 -5.68485,25.01256 3.38737,13.6561 3.99273,20.66987 2.63799,30.5643 -0.75608,5.52214 -0.80569,8.66898 -0.14705,9.32762 1.19761,1.19761 12.31545,-3.7705 17.80601,-7.95678 5.73665,-4.37393 11.1717,-11.94577 12.93945,-18.02662 1.4747,-5.07277 1.47797,-6.09715 0.0381,-11.93183 -0.95431,-3.86712 -3.80128,-10.11318 -7.22363,-15.84814 -3.15654,-5.28951 -5.39686,-10.12141 -5.07805,-10.95223 0.31379,-0.81771 1.70303,-1.77099 3.08722,-2.11839 6.67953,-1.67646 19.31555,9.54081 25.42696,22.57205 2.96138,6.31449 3.52054,8.60648 3.53746,14.5 0.0173,6.03067 -0.48476,8.04454 -3.62577,14.54313 -2.94407,6.09115 -5.44036,9.27914 -12.9683,16.56174 -12.82883,12.41072 -24.96153,19.19708 -37.34071,20.88632 -7.54427,1.02948 -8.02552,1.27334 -11.00904,5.57856 -2.64484,3.81652 -2.72184,4.24788 -1.61448,9.04523 1.60303,6.94469 1.47528,18.3838 -0.24217,21.68468 -1.93291,3.715 -5.35554,6.68492 -10.09501,8.75974 -3.14341,1.37611 -6.89098,1.75922 -17.5,1.789 -11.90087,0.0334 -14.10796,-0.23048 -18.63243,-2.22781 -2.82284,-1.24615 -6.39453,-3.58307 -7.93709,-5.19316 -3.66249,-3.82281 -8.13162,-3.94827 -11.50617,-0.32299 -4.75812,5.11165 -11.26359,7.33904 -22.84632,7.82226 -5.81788,0.24273 -12.60297,0.12094 -15.07797,-0.27063 z m 16.29482,-4.25129 c 1.50895,-2.40786 0.07,-6.41752 -2.76688,-7.7101 -3.10855,-1.41635 -6.69197,-0.22628 -8.92703,2.96471 -1.99319,2.84567 -1.99142,3.30724 0.0203,5.31902 2.11322,2.11321 10.24004,1.71386 11.67356,-0.57363 z m 65.50518,0.89522 c 1.71839,-1.71839 1.48244,-4.22964 -0.64417,-6.85588 -2.27608,-2.81084 -7.29159,-3.03622 -10.14292,-0.4558 -2.22842,2.01669 -2.71862,7.06025 -0.76291,7.8494 2.48399,1.00231 10.37745,0.63483 11.55,-0.53772 z m -80.23543,-3.29247 c 0.86301,-4.60028 0.0984,-6.30304 -3.20246,-7.13149 -4.05571,-1.01792 -7.86211,1.46708 -7.86211,5.13277 0,3.286 3.04597,5.45106 7.70469,5.47645 2.30237,0.0125 2.80214,-0.50475 3.35988,-3.47773 z m 28.18543,0.85045 c 4.47013,-2.78953 1.19501,-8.35798 -4.9158,-8.35798 -4.72369,0 -6.79012,5.62958 -3.57534,9.74033 1.10352,1.41109 5.04231,0.76985 8.49114,-1.38235 z m 36.81383,0.24373 c 1.07904,-4.29925 0.11205,-6.99986 -2.8819,-8.04857 -6.54281,-2.29179 -11.74365,6.08586 -5.68193,9.15259 4.19941,2.12455 7.87235,1.65105 8.56383,-1.10402 z m 26.41593,0.78971 c 3.07617,-1.23084 4.02024,-2.15338 4.02024,-3.92857 0,-3.30078 -2.59169,-5.46285 -6.54838,-5.46285 -3.75137,0 -6.92416,3.37714 -5.97431,6.3591 0.28748,0.90249 0.73357,2.3159 0.99131,3.1409 0.60051,1.9222 2.50451,1.89468 7.51114,-0.10858 z m -38.13361,-9.39142 c 3.4057,-3.40569 7.49092,-3.91129 12.14731,-1.50338 2.19028,1.13264 3.55084,1.24694 5.59438,0.46998 1.87506,-0.71289 3.7071,-0.69434 5.99497,0.0607 2.66076,0.87813 3.91565,0.76626 6.52167,-0.58136 3.18071,-1.64481 7.99304,-1.59366 13.79762,0.14665 l 2.40211,0.7202 -0.70224,-7.90641 c -0.96445,-10.85868 -2.41532,-15.12598 -6.65978,-19.58784 -3.34583,-3.51717 -4.06449,-3.81854 -9.10585,-3.81854 -13.80885,0 -29.41611,8.49952 -33.97068,18.5 -1.83147,4.02138 -2.35578,10.06923 -1.23537,14.25 0.79359,2.96128 1.62399,2.84187 5.21586,-0.75 z m -64.66378,-0.5 c 3.39427,-2.85609 7.54626,-3.20881 11.81109,-1.00338 2.16815,1.12119 3.5593,1.24372 5.5458,0.48846 1.84489,-0.70143 3.82996,-0.65514 6.52447,0.15216 2.89196,0.86645 4.21929,0.87277 5.24087,0.0249 0.75244,-0.62447 3.1923,-1.77902 5.42191,-2.56568 3.83682,-1.35371 4.24135,-1.30285 7.55662,0.94994 l 3.50279,2.3802 0.55906,-2.13783 c 0.30748,-1.17581 0.0783,-4.4218 -0.50922,-7.21332 -0.9037,-4.29357 -2.09024,-6.09945 -7.70202,-11.72217 -5.7338,-5.745 -7.56374,-6.93203 -13.48907,-8.75 -14.01276,-4.2993 -21.90059,-2.12771 -26.58288,7.31851 -3.29816,6.65386 -4.38298,24.57821 -1.48753,24.57821 0.35037,0 1.97402,-1.125 3.60811,-2.5 z m 53.50074,-1.6875 c -0.31922,-0.79773 -0.55618,-0.56078 -0.60416,0.60417 -0.0434,1.05416 0.19293,1.64479 0.52522,1.3125 0.33229,-0.3323 0.36782,-1.1948 0.0789,-1.91667 z m 7.0654,-19.08384 c 8.55394,-8.71879 18.56822,-13.31464 32.13492,-14.74765 7.42528,-0.78431 8.82153,-0.66201 12.21657,1.07 2.10822,1.07554 4.31401,2.85405 4.90175,3.95226 1.56238,2.91933 2.37666,2.5207 5.62418,-2.75327 7.95107,-12.91252 11.80261,-27.39765 11.22218,-42.20512 -0.19146,-4.88438 -0.65024,-9.18226 -1.0195,-9.55084 -0.36926,-0.36859 -2.02656,0.33177 -3.68288,1.55634 -2.44219,1.80559 -4.96188,2.36402 -13.32861,2.95399 -11.43756,0.8065 -15.32779,2.14223 -22.87446,7.8541 -13.71075,10.37727 -29.62284,15.67024 -40.34675,13.42088 -7.33978,-1.53954 -19.30981,-7.61986 -26.57735,-13.50031 -7.41135,-5.9968 -12.26304,-7.77904 -21.1764,-7.77904 -7.23483,0 -13.44687,-1.87758 -15.58183,-4.70959 -2.20137,-2.9201 -2.76059,-0.36637 -2.74705,12.54474 0.0127,12.08601 0.17356,13.07619 3.52031,21.66485 1.92887,4.95 5.22177,12.06316 7.31756,15.80703 l 3.81052,6.80704 3.16917,-2.39081 c 9.21786,-6.95391 23.63701,-6.27669 38.2095,1.79457 8.05192,4.45971 15.90442,12.80133 16.95464,18.01071 l 0.80065,3.97146 1.3507,-4.46414 c 0.85507,-2.82605 3.09423,-6.24128 6.10218,-9.3072 z m 71.79493,-17.09553 c 14.71117,-3.91776 36.32875,-21.55941 42.23992,-34.4711 2.12161,-4.63421 2.39853,-6.43064 2.00687,-13.01903 -0.58404,-9.82475 -4.2251,-17.53115 -11.94151,-25.27453 -8.70966,-8.7401 -13.42784,-9.32588 -8.51982,-1.05778 6.92337,11.66319 9.08286,17.41371 9.08286,24.18683 0,8.6382 -2.86218,14.44964 -11.34389,23.0329 -6.11928,6.19254 -11.11544,9.28364 -22.36723,13.83848 -4.33188,1.75358 -9.11901,14.15406 -5.45064,14.11923 0.6875,-0.007 3.51955,-0.61628 6.29344,-1.355 z m -66.18428,-30.9839 c 3.22254,-1.44965 9.44297,-5.14697 13.82319,-8.21626 8.93847,-6.26336 13.95859,-7.90021 26.81765,-8.74414 4.675,-0.30681 9.3,-0.86526 10.27778,-1.24099 2.8525,-1.09612 3.89924,-4.16459 4.375,-12.82508 0.74233,-13.51323 0.96985,-14.16648 7.4083,-21.27106 3.27592,-3.61485 6.23224,-7.67222 6.5696,-9.01637 1.09955,-4.38095 -0.40169,-9.08929 -5.07367,-15.91254 -2.52395,-3.68612 -4.86467,-7.80042 -5.20161,-9.1429 -0.59748,-2.38056 -0.0742,-11.02486 1.23911,-20.47038 1.3111,-9.42943 -1.34918,-12.34904 -13.99096,-15.35484 -9.67524,-2.30046 -14.31383,-5.1886 -20.0407,-12.47799 -5.45097,-6.93821 -9.68422,-9.96741 -13.93699,-9.97294 -1.58078,-0.002 -6.53078,1.68376 -11,3.74626 -11.16013,5.15028 -17.72289,5.13361 -29.28786,-0.0744 -12.50067,-5.6294 -13.15848,-5.46705 -23.92109,5.904 l -9.08309,9.59658 -9.91691,2.92982 c -16.04971,4.74167 -17.37824,6.65563 -14.83141,21.36702 1.93913,11.20105 1.37442,14.38136 -4.00395,22.54938 -10.16282,15.43405 -10.12929,17.21694 0.53546,28.47762 5.3262,5.62381 6.88299,10.002 6.88299,19.3571 0,6.16195 0.40309,8.41912 1.81483,10.16255 1.95186,2.41045 7.88097,3.80754 16.68517,3.93156 7.18369,0.1012 14.06442,2.48073 19.90926,6.88513 7.23495,5.45191 12.90359,8.90826 18.35819,11.19359 6.68839,2.80224 17.60201,2.21344 25.59171,-1.3807 z m -23.35916,-7.64923 c -2.3776,-2.3776 -2.60478,-6.25319 -0.47039,-8.02458 3.60711,-2.99363 9.77534,3.71773 7.43535,8.09005 -1.3372,2.49858 -4.42998,2.46951 -6.96496,-0.0655 z m 13.98978,-0.0191 c -1.25827,-2.35108 0.39563,-6.60401 3.26022,-8.38353 4.35255,-2.70387 7.64617,4.50647 3.81058,8.34206 -2.61981,2.61981 -5.68131,2.63777 -7.0708,0.0415 z m -9.41376,-11.31397 c -3.24282,-3.24282 -3.40333,-8.38071 -0.50392,-16.13009 2.35822,-6.3029 4.2043,-8.53684 7.05465,-8.53684 2.61598,0 7.09597,9.64965 7.66539,16.51079 0.53727,6.47383 -1.6027,9.38586 -7.47634,10.17368 -3.55335,0.4766 -4.54141,0.18083 -6.73978,-2.01754 z m 9.90088,-2.64141 c 2.0333,-2.24676 1.64725,-7.17553 -1.09977,-14.04101 -1.99181,-4.97801 -3.64595,-5.0434 -5.93162,-0.23451 -2.60615,5.48314 -3.07829,12.47436 -0.9839,14.56876 2.25492,2.25491 5.82753,2.12421 8.01529,-0.29324 z m -44.25425,-20.63022 c -9.60161,-4.89725 -12.84605,-16.77695 -6.9483,-25.4416 4.42301,-6.49804 10.95508,-9.07125 19.13287,-7.53708 6.83046,1.2814 13.54886,9.75245 13.54886,17.08338 0,4.61718 -3.34337,10.93088 -7.445,14.05935 -4.67346,3.56462 -13.21751,4.42234 -18.28843,1.83595 z m 14.16081,-2.78216 c 7.04526,-2.9437 10.50333,-12.8807 6.82538,-19.61314 -5.85999,-10.72662 -20.66073,-10.73538 -26.35723,-0.0156 -2.43039,4.57355 -2.33605,7.64707 0.39839,12.97972 3.68018,7.177 11.42688,9.86903 19.13346,6.64902 z m -4.63346,-6.69324 c -1.03684,-0.6039 -1.75,-2.21383 -1.75,-3.95054 0,-2.29672 0.54399,-3.06779 2.51299,-3.56197 1.44131,-0.36175 3.14713,-0.10443 4,0.60339 2.10286,1.74522 1.84682,5.72629 -0.44725,6.95404 -2.30203,1.23201 -2.12014,1.2339 -4.31574,-0.0449 z m 55.70042,9.72846 c -1.67726,-0.7608 -4.25278,-2.81319 -5.72336,-4.56088 -9.94649,-11.82074 -2.06749,-29.08748 13.27294,-29.08748 17.04263,0 24.02892,21.24879 10.40328,31.64157 -4.2933,3.27466 -13.00968,4.24899 -17.95286,2.00679 z m 14.26651,-3.31832 c 3.87855,-1.84049 6.95635,-6.13242 7.87224,-10.97766 0.84852,-4.48881 -2.59732,-11.77727 -6.77114,-14.32197 -12.55174,-7.65254 -27.78952,6.14534 -20.96642,18.98519 3.88715,7.31491 12.19321,9.95509 19.86532,6.31444 z m -13.1455,-6.90147 c -3.10073,-3.10073 -1.26555,-7.42857 3.15001,-7.42857 1.53356,0 2.72619,0.88835 3.51404,2.61747 1.05257,2.31016 0.91964,2.8385 -1.13222,4.5 -2.82663,2.28886 -3.51534,2.32759 -5.53183,0.3111 z m -56.31527,-30.4142 c -7.4139,-1.73529 -9.49234,-6.08144 -10.05331,-21.02217 -0.53625,-14.28211 0.88356,-18.9922 5.72501,-18.9922 6.33186,0 19.93901,17.55913 20.83526,26.88652 0.41134,4.28091 0.12324,5.17332 -2.71304,8.40366 -4.04456,4.60649 -8.20664,6.03194 -13.79392,4.72419 z m 9.34043,-4.55587 c 1.15313,-0.71697 2.67363,-2.69665 3.37889,-4.3993 1.69707,-4.09709 -0.23491,-9.17841 -6.94204,-18.25832 -5.75188,-7.78671 -9.50267,-10.73165 -11.33479,-8.89953 -1.77792,1.77792 -1.60405,23.63722 0.22247,27.96887 2.34961,5.57218 8.90624,7.17533 14.67547,3.58828 z m 38.15937,0.53276 c -3.80863,-3.80863 -3.98503,-4.25548 -3.5338,-8.95151 0.59038,-6.14425 5.29206,-14.24284 12.6056,-21.71301 4.54161,-4.63888 5.79584,-5.39648 8.5,-5.1343 4.19978,0.40718 5.54075,4.31752 5.6158,16.37606 0.10666,17.1369 -3.57263,23.4315 -13.69607,23.4315 -5.06524,0 -5.78807,-0.30529 -9.49153,-4.00874 z m 17.00331,-1.69142 c 2.20052,-2.98371 3.22941,-8.54445 3.23515,-17.48474 0.006,-9.17669 -1.08773,-13.8151 -3.25726,-13.8151 -2.07664,0 -10.27708,8.93139 -14.17746,15.44117 -4.33449,7.2343 -4.71186,12.1278 -1.1904,15.43605 4.49623,4.22398 12.42582,4.44174 15.38997,0.42262 z"
         id="path3824"
         inkscape:connector-curvature="0" />
    </g>
  </g>
</svg>
