<?xml version="1.0" encoding="UTF-8" standalone="no"?>
<!-- Created with Inkscape (http://www.inkscape.org/) -->

<svg
   xmlns:dc="http://purl.org/dc/elements/1.1/"
   xmlns:cc="http://creativecommons.org/ns#"
   xmlns:rdf="http://www.w3.org/1999/02/22-rdf-syntax-ns#"
   xmlns:svg="http://www.w3.org/2000/svg"
   xmlns="http://www.w3.org/2000/svg"
   xmlns:sodipodi="http://sodipodi.sourceforge.net/DTD/sodipodi-0.dtd"
   xmlns:inkscape="http://www.inkscape.org/namespaces/inkscape"
   version="1.1"
   width="145.66757"
   height="105.03049"
   id="svg5169"
   inkscape:version="0.48.4 r9939"
   sodipodi:docname="elefante.svg">
  <sodipodi:namedview
     pagecolor="#ffffff"
     bordercolor="#666666"
     borderopacity="1"
     objecttolerance="10"
     gridtolerance="10"
     guidetolerance="10"
     inkscape:pageopacity="0"
     inkscape:pageshadow="2"
     inkscape:window-width="640"
     inkscape:window-height="480"
     id="namedview6370" />
  <defs
     id="defs5171">
    <filter
       color-interpolation-filters="sRGB"
       id="filter6025">
      <feGaussianBlur
         id="feGaussianBlur6027"
         stdDeviation="2.5771642" />
    </filter>
  </defs>
  <metadata
     id="metadata5174">
    <rdf:RDF>
      <cc:Work
         rdf:about="">
        <dc:format>image/svg+xml</dc:format>
        <dc:type
           rdf:resource="http://purl.org/dc/dcmitype/StillImage" />
        <dc:title />
      </cc:Work>
    </rdf:RDF>
  </metadata>
  <g
     transform="translate(-283.81059,-484.64593)"
     id="layer1">
    <g
       transform="matrix(1.1001818,0,0,1.1001818,-28.414284,-48.531837)"
       id="g6033">
      <g
         id="g6029">
        <path
           d="m 361.75,492.625 c -9.12705,0.11856 -15.53906,7.53906 -17.53125,10.1875 -3.185,-2.635 -7.105,-4.1875 -11.375,-4.1875 -3.6525,0 -7.0625,1.14375 -9.96875,3.125 -3.13875,-3.52875 -9.47125,-9.05125 -17.84375,-8.25 -14.8338,1.42 -14.84625,10.54875 -11.21875,24.90625 0,0 1.58375,3.3275 -0.46875,8.21875 -1.92875,4.60125 -2.75125,11.42125 8.3125,12.875 0.2125,5.17875 0.7425,15.68875 13.96875,16.9375 8.23125,0.7775 13.3725,-2.54 16.5625,-7.125 -0.625,5.925 -0.71375,12.9525 0.9375,19.15625 0,0 3.73,4.48 13.6875,0 l -2.75,-22.40625 c 1.32375,1.335 2.8225,2.575 4.5,3.6875 -0.03,6.25 0.28375,14.7575 1.78125,20.96875 0,0 6.65875,3.23625 14.28125,-0.15625 0,0 -0.0575,-7.11125 -1.625,-15.1875 2.67375,0.49 5.485,0.75 8.375,0.75 1.82375,0 3.5325,-0.1125 5.1875,-0.3125 0.0762,3.425 0.45,6.91 1.25,10.15625 0,0 3.4625,4.47875 12.6875,0 l -1.625,-14.15625 c 0.65875,-0.4 1.305,-0.83375 1.90625,-1.28125 0.1625,6.045 0.61,12.54625 1.65625,17.46875 0,0 6.585,3.6325 14.09375,-0.15625 0,0 -0.60267,-6.21207 -1.78125,-14.28125 l 0.21875,-0.0312 -0.0312,-1.3125 0.96875,1.5625 0.5,-0.125 0.5937,-0.4063 -0.875,-1.53125 1.125,1.5 0,0.0312 0.0312,0 0.90625,-1.25 -1.75,-1.0625 0.90625,0.3125 0.28125,-0.5625 -0.0312,0 -2.25,-1.21875 c -0.0162,-0.04 -0.0475,-0.0738 -0.0625,-0.125 -0.10399,-0.34325 -0.2101,-0.89994 -0.34375,-1.59375 -0.002,-0.008 0.002,-0.0229 0,-0.0312 -0.41033,-2.13842 -0.99281,-5.70754 -1.78125,-9.71875 -0.39422,-2.00549 -0.82658,-4.13746 -1.34375,-6.21875 -0.34222,-1.37768 -0.72211,-2.74686 -1.125,-4.0625 -0.20319,-0.66217 -0.43662,-1.33692 -0.65625,-1.96875 -0.21508,-0.61894 -0.42474,-1.23187 -0.65625,-1.8125 -0.005,-0.013 -0.026,-0.0183 -0.0312,-0.0312 -0.2367,-0.59183 -0.46422,-1.14539 -0.71875,-1.6875 -1.04198,-2.21838 -2.074,-2.97197 -2.8125,-3.1875 -0.0109,-0.003 -0.0205,0.003 -0.0312,0 -0.11253,-0.0313 -0.21447,-0.0528 -0.3125,-0.0625 -0.0106,-8.7e-4 -0.0209,6.6e-4 -0.0312,0 -0.10585,-0.009 -0.19547,-0.008 -0.28125,0 -3.82875,-5.04 -10.10875,-8.63875 -18.65625,-9.65625 1.28,-9.54375 -1.17375,-15.5025 -12.90625,-16.625 -0.63227,-0.0606 -1.23528,-0.0704 -1.84375,-0.0625 z m -45.8125,42.5 c 1.11375,1.85875 2.765,3.38125 5.25,4.46875 -0.25375,2.09375 -1.2775,4.77125 -4.65625,6.5 0,0 -2.7567,0.65585 -1.5,1.5625 0.007,0.005 0.0244,-0.005 0.0312,0 0.0801,0.0562 0.16892,0.12945 0.28125,0.1875 0.0941,0.0485 0.19474,0.0878 0.3125,0.125 0.009,0.003 0.0218,-0.003 0.0312,0 1.78216,0.54267 6.05079,-0.21493 8.6875,-3.1875 -1.17375,3.225 -3.43625,5.515 -7.625,5.03125 -8.51,-0.98125 -9.22,-6.83 -8.84375,-10.34375 3.435,-0.64125 6.0675,-2.33625 8.03125,-4.34375 z"
           id="path6023"
           style="fill:#999999;fill-opacity:1;fill-rule:nonzero;stroke:#999999;stroke-width:3.63576269;stroke-linejoin:round;stroke-miterlimit:4;stroke-dasharray:none;filter:url(#filter6025)" />
        <path
           d="m 361.75,492.625 c -9.12705,0.11856 -15.53906,7.53906 -17.53125,10.1875 -3.185,-2.635 -7.105,-4.1875 -11.375,-4.1875 -3.6525,0 -7.0625,1.14375 -9.96875,3.125 -3.13875,-3.52875 -9.47125,-9.05125 -17.84375,-8.25 -14.8338,1.42 -14.84625,10.54875 -11.21875,24.90625 0,0 1.58375,3.3275 -0.46875,8.21875 -1.92875,4.60125 -2.75125,11.42125 8.3125,12.875 0.2125,5.17875 0.7425,15.68875 13.96875,16.9375 8.23125,0.7775 13.3725,-2.54 16.5625,-7.125 -0.625,5.925 -0.71375,12.9525 0.9375,19.15625 0,0 3.73,4.48 13.6875,0 l -2.75,-22.40625 c 1.32375,1.335 2.8225,2.575 4.5,3.6875 -0.03,6.25 0.28375,14.7575 1.78125,20.96875 0,0 6.65875,3.23625 14.28125,-0.15625 0,0 -0.0575,-7.11125 -1.625,-15.1875 2.67375,0.49 5.485,0.75 8.375,0.75 1.82375,0 3.5325,-0.1125 5.1875,-0.3125 0.0762,3.425 0.45,6.91 1.25,10.15625 0,0 3.4625,4.47875 12.6875,0 l -1.625,-14.15625 c 0.65875,-0.4 1.305,-0.83375 1.90625,-1.28125 0.1625,6.045 0.61,12.54625 1.65625,17.46875 0,0 6.585,3.6325 14.09375,-0.15625 0,0 -0.60267,-6.21207 -1.78125,-14.28125 l 0.21875,-0.0312 -0.0312,-1.3125 0.96875,1.5625 0.5,-0.125 0.5937,-0.4063 -0.875,-1.53125 1.125,1.5 0,0.0312 0.0312,0 0.90625,-1.25 -1.75,-1.0625 0.90625,0.3125 0.28125,-0.5625 -0.0312,0 -2.25,-1.21875 c -0.0162,-0.04 -0.0475,-0.0738 -0.0625,-0.125 -0.10399,-0.34325 -0.2101,-0.89994 -0.34375,-1.59375 -0.002,-0.008 0.002,-0.0229 0,-0.0312 -0.41033,-2.13842 -0.99281,-5.70754 -1.78125,-9.71875 -0.39422,-2.00549 -0.82658,-4.13746 -1.34375,-6.21875 -0.34222,-1.37768 -0.72211,-2.74686 -1.125,-4.0625 -0.20319,-0.66217 -0.43662,-1.33692 -0.65625,-1.96875 -0.21508,-0.61894 -0.42474,-1.23187 -0.65625,-1.8125 -0.005,-0.013 -0.026,-0.0183 -0.0312,-0.0312 -0.2367,-0.59183 -0.46422,-1.14539 -0.71875,-1.6875 -1.04198,-2.21838 -2.074,-2.97197 -2.8125,-3.1875 -0.0109,-0.003 -0.0205,0.003 -0.0312,0 -0.11253,-0.0313 -0.21447,-0.0528 -0.3125,-0.0625 -0.0106,-8.7e-4 -0.0209,6.6e-4 -0.0312,0 -0.10585,-0.009 -0.19547,-0.008 -0.28125,0 -3.82875,-5.04 -10.10875,-8.63875 -18.65625,-9.65625 1.28,-9.54375 -1.17375,-15.5025 -12.90625,-16.625 -0.63227,-0.0606 -1.23528,-0.0704 -1.84375,-0.0625 z m -45.8125,42.5 c 1.11375,1.85875 2.765,3.38125 5.25,4.46875 -0.25375,2.09375 -1.2775,4.77125 -4.65625,6.5 0,0 -2.7567,0.65585 -1.5,1.5625 0.007,0.005 0.0244,-0.005 0.0312,0 0.0801,0.0562 0.16892,0.12945 0.28125,0.1875 0.0941,0.0485 0.19474,0.0878 0.3125,0.125 0.009,0.003 0.0218,-0.003 0.0312,0 1.78216,0.54267 6.05079,-0.21493 8.6875,-3.1875 -1.17375,3.225 -3.43625,5.515 -7.625,5.03125 -8.51,-0.98125 -9.22,-6.83 -8.84375,-10.34375 3.435,-0.64125 6.0675,-2.33625 8.03125,-4.34375 z"
           id="path5218"
           style="fill:#ffffff;fill-opacity:1;fill-rule:nonzero;stroke:#ffffff;stroke-width:3.63576269;stroke-linejoin:round;stroke-miterlimit:4;stroke-dasharray:none" />
      </g>
      <path
         d="m 316.7419,549.8201 c -8.51,-0.98125 -9.21,-6.82875 -8.83375,-10.3425 3.435,-0.64125 6.06,-2.36 8.02375,-4.3675 1.11375,1.85875 2.77875,3.38125 5.26375,4.46875 -0.25375,2.09375 -1.29375,4.79625 -4.6725,6.525 0,0 -3.11125,0.73375 -1.17125,1.73625 1.50625,0.77625 6.19375,0.14 9.02,-3.04625 -1.17375,3.225 -3.44125,5.51 -7.63,5.02625 m 91.44125,2.1675 -1.79625,-1.0825 0.96875,0.33875 0.25125,-0.57125 -2.27125,-1.19125 c -0.0162,-0.04 -0.035,-0.0838 -0.05,-0.135 -0.8475,-2.7975 -2.5925,-18.455 -6.665,-27.12875 -1.405,-2.99125 -2.77375,-3.32 -3.46,-3.25625 0.003,10e-4 -0.007,10e-4 -0.0137,0 -3.82875,-5.04 -10.09125,-8.61625 -18.63875,-9.63375 1.28,-9.54375 -1.16875,-15.50875 -12.90125,-16.63125 -10.11625,-0.97 -17.25,7.29 -19.375,10.115 -3.185,-2.635 -7.125,-4.1975 -11.395,-4.1975 -3.6525,0 -7.065,1.1425 -9.97125,3.12375 -3.13875,-3.52875 -9.47375,-9.05375 -17.84625,-8.2525 -14.8338,1.42 -14.8313,10.57375 -11.2038,24.93125 0,0 1.57875,3.31375 -0.47375,8.205 -1.92875,4.60125 -2.73875,11.4325 8.325,12.88625 0.2125,5.17875 0.745,15.69125 13.97125,16.94 8.23125,0.7775 13.35625,-2.555 16.54625,-7.14 -0.625,5.925 -0.72625,12.96375 0.925,19.1675 0,0 3.73375,4.48 13.69125,0 l -2.74125,-22.4025 c 1.32375,1.335 2.8375,2.56875 4.515,3.68125 -0.03,6.25 0.2675,14.74125 1.765,20.9525 0,0 6.67,3.24625 14.2925,-0.14625 0,0 -0.0737,-7.1025 -1.64125,-15.17875 2.67375,0.49 5.47875,0.75 8.36875,0.75 1.82375,0 3.5625,-0.1075 5.2175,-0.3075 0.0762,3.425 0.42875,6.89875 1.22875,10.145 0,0 3.4575,4.47875 12.6825,0 L 388.8844,551.8001 c 0.65875,-0.4 1.28875,-0.8225 1.89,-1.27 0.1625,6.045 0.615,12.55125 1.66125,17.47375 0,0 6.5725,3.625 14.08125,-0.16375 0,0 -0.59125,-6.2375 -1.77625,-14.33875 0.005,0.02 0.007,0.04 0.01,0.0588 l 0.21,-0.0163 -0.0263,-1.33125 0.98375,1.57875 0.485,-0.15 0.6025,-0.38125 -0.87,-1.545 1.1275,1.5475 0.92,-1.275 z"
         id="path102"
         style="fill:#b099c9;fill-opacity:1;fill-rule:nonzero;stroke:none" />
      <path
         d="m 408.1884,551.99047 -1.79625,-1.08375 0.965,0.33625 0.2525,-0.57 -2.27,-1.19 c -0.015,-0.0388 -0.0375,-0.0825 -0.0525,-0.135 -0.84375,-2.7975 -2.59,-18.45375 -6.66375,-27.1275 -1.40375,-2.99125 -2.77125,-3.3225 -3.4575,-3.2575 0.66875,0.8825 1.265,1.80875 1.785,2.77625 l 0.006,-0.01 c 0.05,0.1 0.1025,0.2075 0.155,0.31125 0.43125,0.83875 0.81125,1.705 1.1325,2.5975 2.97125,7.60375 5.13875,19.5275 6.51,28.925 l 0.21,-0.0175 -0.0262,-1.33 0.9825,1.57625 0.4875,-0.14875 0.60125,-0.38 -0.8725,-1.54875 1.12875,1.55 0.9225,-1.27375 z"
         id="path106"
         style="fill:#662f8f;fill-opacity:1;fill-rule:nonzero;stroke:none" />
      <path
         d="m 397.78802,568.57622 c 0,0 -0.42125,-3.1775 1.225,-3.21875 1.64875,-0.0438 1.60625,3.16875 1.60625,3.16875 0,0 -1.35625,0.72 -2.83125,0.05"
         id="path110"
         style="fill:#662f8f;fill-opacity:1;fill-rule:nonzero;stroke:none" />
      <path
         d="m 402.13377,567.91085 c 0,0 -0.62,-2.61 0.6,-2.84375 0,0 1.64875,-0.15375 1.63125,2.505 0,0 -0.66875,0.85125 -2.23125,0.33875"
         id="path114"
         style="fill:#662f8f;fill-opacity:1;fill-rule:nonzero;stroke:none" />
      <path
         d="m 396.43427,568.12572 c 0,0 0.2675,-2.91 -0.9725,-2.96875 0,0 -1.6025,0.01 -1.30125,2.51625 0,0 0.6,0.7525 2.27375,0.4525"
         id="path118"
         style="fill:#662f8f;fill-opacity:1;fill-rule:nonzero;stroke:none" />
      <path
         d="m 372.1704,517.70822 c 2.99125,-12.34125 2.99125,-20.2075 -9.23625,-21.42875 -8.7325,-0.87125 -14.7725,6.95625 -16.19625,9.00625 3.2675,3.84375 5.27625,9.03375 5.27625,14.75125 0,3.31625 0.11875,6.455 -0.16625,9.25875 2.0525,3.34875 5.765,7.10375 11.9975,6.72125 11.0575,-0.6775 10.40625,-7.05125 8.71375,-11.255 -1.69,-4.205 -0.38875,-7.05375 -0.38875,-7.05375"
         id="path122"
         style="fill:#662f8f;fill-opacity:1;fill-rule:nonzero;stroke:none" />
      <path
         d="m 315.3564,547.8401 c 1.50375,0.7775 6.19375,0.14125 9.01875,-3.045 0.44375,-1.2225 0.7325,-2.5825 0.905,-3.97625 -1.565,-0.31 -2.9125,-0.7275 -4.08125,-1.24 -0.24875,2.09375 -1.29125,4.7975 -4.67125,6.52625 0,0 -3.11,0.73375 -1.17125,1.735"
         id="path126"
         style="fill:#662f8f;fill-opacity:1;fill-rule:nonzero;stroke:none" />
      <path
         d="m 342.4414,548.95335 c -3.105,-2.66625 -3.30375,-5.79625 -2.94375,-7.9175 -1.12625,0.16375 -2.35375,0.28125 -3.6925,0.34875 -0.32125,1.1225 -0.7075,2.25625 -1.17125,3.3725 1.655,4.5125 6.745,6.5975 8.54,6.15625 2.11875,-0.5175 -0.7325,-1.96 -0.7325,-1.96"
         id="path130"
         style="fill:#662f8f;fill-opacity:1;fill-rule:nonzero;stroke:none" />
      <path
         d="m 328.38615,513.73122 c -1.00375,-0.155 -2,0.91625 -2.23375,2.3925 -0.2275,1.48 0.395,2.8025 1.39625,2.96125 1,0.15625 2,-0.9175 2.23,-2.39375 0.23125,-1.47625 -0.39125,-2.80375 -1.3925,-2.96"
         id="path134"
         style="fill:#662f8f;fill-opacity:1;fill-rule:nonzero;stroke:none" />
      <path
         d="m 337.10453,514.4246 c -1.00125,-0.35125 -2.22625,0.535 -2.735,1.98375 -0.51,1.44375 -0.10625,2.9025 0.89375,3.255 1.00375,0.3525 2.23125,-0.53375 2.73875,-1.98125 0.5075,-1.4475 0.10625,-2.90375 -0.8975,-3.2575"
         id="path138"
         style="fill:#662f8f;fill-opacity:1;fill-rule:nonzero;stroke:none" />
      <path
         d="m 356.1304,571.41797 c 0,0 -0.4225,-3.18 1.225,-3.22125 1.64875,-0.0425 1.60375,3.17125 1.60375,3.17125 0,0 -1.35375,0.71875 -2.82875,0.05"
         id="path142"
         style="fill:#662f8f;fill-opacity:1;fill-rule:nonzero;stroke:none" />
      <path
         d="m 360.47603,570.75272 c 0,0 -0.62,-2.61125 0.6,-2.845 0,0 1.64875,-0.155 1.63125,2.50625 0,0 -0.66875,0.85125 -2.23125,0.33875"
         id="path146"
         style="fill:#662f8f;fill-opacity:1;fill-rule:nonzero;stroke:none" />
      <path
         d="m 354.7754,570.9676 c 0,0 0.26875,-2.9125 -0.9725,-2.97125 0,0 -1.6025,0.01 -1.3025,2.5175 0,0 0.6,0.7525 2.275,0.45375"
         id="path150"
         style="fill:#662f8f;fill-opacity:1;fill-rule:nonzero;stroke:none" />
      <path
         d="m 326.53565,530.79172 c 0,0 3.97,-2.95 9.5575,-0.3875 0,0 -4.995,-4.33625 -9.5575,0.3875"
         id="path154"
         style="fill:#662f8f;fill-opacity:1;fill-rule:nonzero;stroke:none" />
      <path
         d="m 335.9314,534.66622 c 0,0 -4.765,-4.0675 -9.115,0.35625 0,0 3.78625,-2.76125 9.115,-0.35625"
         id="path158"
         style="fill:#662f8f;fill-opacity:1;fill-rule:nonzero;stroke:none" />
      <path
         d="m 335.49803,539.4941 c 0,0 -4.6925,-4.06375 -8.98,0.36125 0,0 3.73125,-2.76375 8.98,-0.36125"
         id="path162"
         style="fill:#662f8f;fill-opacity:1;fill-rule:nonzero;stroke:none" />
      <path
         d="m 332.91015,543.83497 c 0,0 -3.6425,-2.66 -6.945,0.2025 0,0 2.87625,-1.78375 6.945,-0.2025"
         id="path166"
         style="fill:#662f8f;fill-opacity:1;fill-rule:nonzero;stroke:none" />
      <path
         d="m 300.69703,532.43972 c 2.06,-1.22375 3.56125,0.4025 3.56125,0.4025 6.115,-1.0325 5.0025,1.885 4.255,3.17125 2.52625,-0.55125 4.51375,-1.80625 6.0525,-3.28625 -0.02,-0.0562 -0.0375,-0.11625 -0.0563,-0.1725 -0.0362,-0.1025 -0.0687,-0.205 -0.1025,-0.31 -0.0387,-0.1275 -0.0813,-0.25625 -0.1175,-0.38625 -0.0312,-0.10875 -0.0613,-0.2175 -0.09,-0.32875 -0.0362,-0.1275 -0.0687,-0.2575 -0.1,-0.38625 -0.03,-0.11625 -0.0563,-0.23125 -0.0813,-0.34625 -0.0288,-0.13 -0.0562,-0.25875 -0.0825,-0.38875 -0.025,-0.1225 -0.0488,-0.24125 -0.0713,-0.36375 -0.0238,-0.13 -0.0462,-0.25875 -0.0688,-0.3925 -0.0212,-0.125 -0.0412,-0.25 -0.0575,-0.37625 -0.0225,-0.13125 -0.04,-0.2625 -0.0562,-0.39625 -0.0175,-0.12875 -0.0362,-0.25875 -0.0512,-0.39 -0.0175,-0.1325 -0.0325,-0.26625 -0.0437,-0.39875 -0.015,-0.13375 -0.03,-0.2675 -0.0425,-0.40375 -0.0113,-0.13375 -0.0238,-0.27 -0.0337,-0.40625 -0.0125,-0.13625 -0.0225,-0.2725 -0.0312,-0.41 -0.0125,-0.13625 -0.02,-0.27375 -0.0288,-0.4125 -0.01,-0.13875 -0.0188,-0.28 -0.025,-0.42 -0.007,-0.1375 -0.0137,-0.27625 -0.0187,-0.415 -0.006,-0.14375 -0.0138,-0.28875 -0.02,-0.435 -0.005,-0.1375 -0.007,-0.2775 -0.0125,-0.4175 -0.005,-0.14625 -0.01,-0.2925 -0.0125,-0.44125 -0.005,-0.145 -0.007,-0.29125 -0.01,-0.4375 -0.002,-0.14375 -0.005,-0.2875 -0.009,-0.435 -10e-4,-0.14875 -0.004,-0.3 -0.004,-0.44875 -0.002,-0.14625 -0.005,-0.29 -0.006,-0.4375 -10e-4,-0.16 -10e-4,-0.32125 -10e-4,-0.4825 l 0,-0.4075 c -0.002,-0.2075 -0.002,-0.4175 -0.002,-0.625 l 0,-0.285 0,-0.90625 c 0,-0.38875 0.01,-0.775 0.03,-1.16 0.005,-0.1225 0.0175,-0.245 0.0225,-0.3675 0.0188,-0.26 0.0362,-0.52125 0.06,-0.7775 0.015,-0.145 0.0325,-0.28375 0.0475,-0.425 0.03,-0.2375 0.055,-0.47375 0.09,-0.70875 0.0188,-0.14375 0.0463,-0.28625 0.0675,-0.4275 0.0388,-0.2325 0.0788,-0.4625 0.1225,-0.6925 0.0275,-0.1375 0.0563,-0.27625 0.0863,-0.4125 0.05,-0.23375 0.10125,-0.46375 0.1575,-0.69625 0.0337,-0.12625 0.0637,-0.25375 0.1,-0.38 0.0613,-0.2425 0.13,-0.48 0.20125,-0.71875 0.0337,-0.11 0.065,-0.22125 0.1025,-0.33375 0.08,-0.25875 0.16625,-0.51375 0.25875,-0.76875 0.0288,-0.085 0.0563,-0.17125 0.0875,-0.255 0.1125,-0.3 0.23,-0.59625 0.35125,-0.88875 0.015,-0.0362 0.03,-0.0725 0.045,-0.11 0.72375,-1.71375 1.65,-3.3 2.73625,-4.72625 0.01,-0.0112 0.0175,-0.0213 0.0263,-0.0337 0.21,-0.27375 0.425,-0.54 0.64625,-0.80125 0.0112,-0.0125 0.0225,-0.0263 0.035,-0.0412 0.2225,-0.26125 0.45,-0.515 0.68375,-0.76125 0.007,-0.01 0.0175,-0.02 0.025,-0.0275 0.24125,-0.25625 0.4875,-0.505 0.74,-0.745 -2.81625,-2.94125 -7.8475,-6.84 -14.34375,-6.2175 -12.4775,1.195 -12.4775,8.89375 -9.42375,20.97375 0,0 1.3275,2.78875 -0.3975,6.90625 -1.44125,3.43625 -2.1375,8.3525 4.24375,10.2675 -0.76125,-1.12625 -0.8,-2.28625 0.56625,-3.09625"
         id="path170"
         style="fill:#662f8f;fill-opacity:1;fill-rule:nonzero;stroke:none" />
    </g>
  </g>
</svg>
