<?xml version="1.0" encoding="UTF-8" standalone="no"?>
<!-- Created with Inkscape (http://www.inkscape.org/) -->

<svg
   xmlns:dc="http://purl.org/dc/elements/1.1/"
   xmlns:cc="http://creativecommons.org/ns#"
   xmlns:rdf="http://www.w3.org/1999/02/22-rdf-syntax-ns#"
   xmlns:svg="http://www.w3.org/2000/svg"
   xmlns="http://www.w3.org/2000/svg"
   xmlns:sodipodi="http://sodipodi.sourceforge.net/DTD/sodipodi-0.dtd"
   xmlns:inkscape="http://www.inkscape.org/namespaces/inkscape"
   id="svg2"
   version="1.1"
   inkscape:version="0.48.4 r9939"
   width="177.73425"
   height="157.21834"
   xml:space="preserve"
   sodipodi:docname="foca.svg"><metadata
     id="metadata8"><rdf:RDF><cc:Work
         rdf:about=""><dc:format>image/svg+xml</dc:format><dc:type
           rdf:resource="http://purl.org/dc/dcmitype/StillImage" /><dc:title /></cc:Work></rdf:RDF></metadata><defs
     id="defs6"><filter
       inkscape:collect="always"
       id="filter4073"
       color-interpolation-filters="sRGB"><feGaussianBlur
         inkscape:collect="always"
         stdDeviation="3.6387307"
         id="feGaussianBlur4075" /></filter></defs><sodipodi:namedview
     pagecolor="#ffffff"
     bordercolor="#666666"
     borderopacity="1"
     objecttolerance="10"
     gridtolerance="10"
     guidetolerance="10"
     inkscape:pageopacity="0"
     inkscape:pageshadow="2"
     inkscape:window-width="1600"
     inkscape:window-height="876"
     id="namedview4"
     showgrid="false"
     inkscape:zoom="0.67604167"
     inkscape:cx="106.58291"
     inkscape:cy="208.1749"
     inkscape:window-x="0"
     inkscape:window-y="1"
     inkscape:window-maximized="1"
     inkscape:current-layer="g10" /><g
     id="g10"
     inkscape:groupmode="layer"
     inkscape:label="ink_ext_XXXXXX"
     transform="matrix(1.25,0,0,-1.25,-296.62973,436.54344)"><g
       id="g4081"
       transform="matrix(0.37819251,0,0,0.37819251,205.19022,131.05936)"><g
         id="g4077"><path
           id="path4071"
           transform="matrix(0.8,0,0,-0.8,238.86756,349.27814)"
           d="m 9.46875,-270.5 c -4.2392943,-0.0107 -8.61633597,0.23608 -13.09375,0.71875 -5.4464381,0.27339 -9.289562,0.81281 -14.03125,1.84375 -16.335175,3.5516 -29.6658,8.33181 -45.84375,16.46875 -38.91819,19.57446 -68.43372,49.23764 -87.90625,88.34375 -11.19169,22.47596 -17.49515,45.23652 -19.34375,70.125 -0.83788,9.815478 -0.888,19.70408 -0.1875,29.59375 0.0195,0.333626 0.0416,0.667467 0.0625,1 0.006,0.08324 0.0248,0.166766 0.0312,0.25 2.2808,35.718015 12.56866,65.115283 29.5,83.875 l 1,1.09375 4.9375,5.46875 -1.96875,3.78125 c -4.48328,8.716988 -7.67566,11.841437 -16.9375,16.625 -4.96096,2.562238 -11.24141,6.437925 -13.96875,8.59375 -12.52145,9.89765 -13.64965,27.10175 -2.28125,34.625 1.38665,0.91764 2.77348,1.701139 4.3125,2.375 0.11761,0.0515 0.22448,0.106002 0.34375,0.15625 0.40579,0.175454 0.8117,0.340988 1.25,0.5 0.46406,0.170879 0.94238,0.312972 1.4375,0.46875 0.11624,0.03488 0.22517,0.05976 0.34375,0.09375 4.68029,1.420662 10.85346,2.240111 20.78125,2.9375 30.53131,2.14469 59.218662,-3.036088 83.90625,-15.15625 l 9.84375,-4.8125 10.875,2.84375 c 5.990238,1.571613 16.407463,3.638563 23.125,4.59375 11.922775,1.69535 12.3920875,1.876325 19.78125,6.90625 14.787812,10.06631 38.592638,20.2092 54,23 21.800787,3.94886 38.990125,-0.50524 51.65625,-13.375 3.01599,-3.064475 6.65047,-7.926425 8.0625,-10.8125 1.78063,-3.639466 2.31861,-5.495606 2.25,-9.125 0.26319,-2.54118 0.0712,-4.998562 -0.5625,-7.34375 -0.23558,-1.868089 -0.52755,-3.400334 -0.75,-3.90625 -0.53491,-1.21655 1.3985,-2.89205 8.125,-7.15625 33.9218,-21.50435 57.3643,-56.602975 68.6563,-102.8125 4.96386,-20.313301 6.62051,-33.482324 6.96875,-58.625 0.004,-0.185718 -0.004,-0.376271 0,-0.5625 0.15313,-7.61882 0.16718,-15.62729 0,-23.3125 -0.002,-0.0839 0.002,-0.16617 0,-0.25 -0.16313,-12.42751 -0.57939,-21.97745 -1.1875,-26.6875 -0.71011,-5.5 -1.54037,-12.26705 -1.84375,-15.03125 l -0.5,-4.78125 c 0.17699,-0.13299 0.39785,-0.25436 0.6875,-0.375 l 5.3125,-1.09375 c 19.53793,-4.0355 38.12912,-20.64778 48.6875,-43.5 3.4675,-7.50496 8.5,-23.3844 8.5,-26.8125 0,-2.43154 -7.13435,-6.05652 -18.6875,-9.5 -11.62474,-3.46481 -26.52474,-3.6768 -36.3125,-0.53125 -11.95845,3.84316 -24.51148,13.17722 -32.40625,24.125 -0.7344,1.0184 -1.31111,1.57805 -1.71875,1.65625 -0.21018,-0.15465 -0.503,-0.55491 -0.875,-1.03125 -0.66349,-1.22549 -2.33519,-3.88238 -4.1875,-6.65625 -9.61705,-14.40164 -28.23355,-24.0721 -49.625,-25.78125 -11.73692,-0.93776 -29.090788,0.27829 -31,2.1875 -0.78025,0.78025 -1.624388,3.46805 -1.90625,5.96875 l -0.53125,4.5625 -5.0625,1.09375 c -4.9807,1.06818 -5.1341,1.02828 -7.40625,-1.875 -6.272763,-8.0151 -21.638213,-16.86106 -37.78125,-21.75 -6.087737,-1.84368 -8.854262,-2.45958 -16.21875,-2.65625 -1.425374,-0.15485 -2.855358,-0.28516 -4.28125,-0.375 -1.976653,-0.12454 -3.985518,-0.18233 -6.03125,-0.1875 z M 84,-236.65625 c 2.737625,0 3.0211,0.33161 3.96875,4.75 0.644738,3.00611 0.508237,3.25 -1.875,3.25 -1.9606,0 -2.900113,-0.77699 -3.9375,-3.25 -1.631163,-3.88849 -1.308075,-4.75 1.84375,-4.75 z m 3.15625,16.03125 c 0.07656,-0.0145 0.166012,-7e-4 0.25,0 3.765963,0.032 5.78355,1.38704 8.9375,6 2.406515,3.51978 5.93264,7.39841 10.15625,11.375 0.68055,0.64075 1.37755,1.29398 2.09375,1.9375 0.27689,0.25287 0.56209,0.49803 0.84375,0.75 0.35995,0.31781 0.726,0.65096 1.09375,0.96875 0.47658,0.41546 0.94809,0.83722 1.4375,1.25 0.22688,0.19084 0.45809,0.3719 0.6875,0.5625 0.81336,0.67587 1.62154,1.36323 2.46875,2.03125 0.18815,0.14977 0.37299,0.28807 0.5625,0.4375 0.75287,0.58694 1.50274,1.1384 2.28125,1.71875 7.77412,5.91176 16.46507,11.46075 24.78125,15.5625 3.72969,1.83958 6.86794,3.86099 7.59375,4.84375 0.012,0.0324 0.0523,0.0614 0.0625,0.0937 0.0465,0.14756 0.0525,0.28979 0.0625,0.4375 -0.29741,3.71179 -12.14019,37.38663 -15.5625,44.1875 -7.87328,15.64594 -16.3824,25.21289 -27.125,30.46875 -4.60731,2.25415 -7.14201,2.788813 -14.1875,2.96875 -2.358366,0.06023 -4.265743,0.08591 -5.875,0.0625 -0.759333,-0.01104 -1.43354,-0.02441 -2.09375,-0.0625 -0.04311,-0.0026 -0.08203,0.0027 -0.125,0 -0.596919,-0.0363 -1.167495,-0.093 -1.71875,-0.15625 -0.09359,-0.0087 -0.188254,-0.0221 -0.28125,-0.03125 -2.546203,-0.316864 -4.820706,-0.959687 -8.5,-2.125 -12.90926,-4.08864 -20.409249,-10.47697 -22.71875,-19.59375 -0.02618,-0.10333 -0.03765,-0.20847 -0.0625,-0.3125 -0.02957,-0.14651 -0.06647,-0.28934 -0.09375,-0.4375 -0.484697,-2.63271 -0.594077,-5.52814 -0.375,-8.71875 0.07613,-1.10871 0.177556,-2.17175 0.3125,-3.21875 0.234881,-1.39986 0.55018,-2.82548 0.9375,-4.3125 1.963613,-7.53879 5.9126,-15.21697 15.59375,-30.28125 12.004166,-18.67896 15.514857,-28.04604 16.53125,-44.4375 0.03087,-0.42626 0.07282,-0.83533 0.09375,-1.25 0.01298,-0.24363 0.01843,-0.36063 0.03125,-0.59375 0.430366,-7.82388 0.791052,-9.91366 1.90625,-10.125 z"
           style="fill:#999999;stroke:#999999;stroke-width:10.57662392;stroke-linejoin:round;stroke-miterlimit:4;stroke-dasharray:none;filter:url(#filter4073)"
           inkscape:connector-curvature="0" /><path
           style="fill:#ffffff;stroke:#ffffff;stroke-width:10.57662392;stroke-linejoin:round;stroke-miterlimit:4;stroke-dasharray:none"
           d="m 9.46875,-270.5 c -4.2392943,-0.0107 -8.61633597,0.23608 -13.09375,0.71875 -5.4464381,0.27339 -9.289562,0.81281 -14.03125,1.84375 -16.335175,3.5516 -29.6658,8.33181 -45.84375,16.46875 -38.91819,19.57446 -68.43372,49.23764 -87.90625,88.34375 -11.19169,22.47596 -17.49515,45.23652 -19.34375,70.125 -0.83788,9.815478 -0.888,19.70408 -0.1875,29.59375 0.0195,0.333626 0.0416,0.667467 0.0625,1 0.006,0.08324 0.0248,0.166766 0.0312,0.25 2.2808,35.718015 12.56866,65.115283 29.5,83.875 l 1,1.09375 4.9375,5.46875 -1.96875,3.78125 c -4.48328,8.716988 -7.67566,11.841437 -16.9375,16.625 -4.96096,2.562238 -11.24141,6.437925 -13.96875,8.59375 -12.52145,9.89765 -13.64965,27.10175 -2.28125,34.625 1.38665,0.91764 2.77348,1.701139 4.3125,2.375 0.11761,0.0515 0.22448,0.106002 0.34375,0.15625 0.40579,0.175454 0.8117,0.340988 1.25,0.5 0.46406,0.170879 0.94238,0.312972 1.4375,0.46875 0.11624,0.03488 0.22517,0.05976 0.34375,0.09375 4.68029,1.420662 10.85346,2.240111 20.78125,2.9375 30.53131,2.14469 59.218662,-3.036088 83.90625,-15.15625 l 9.84375,-4.8125 10.875,2.84375 c 5.990238,1.571613 16.407463,3.638563 23.125,4.59375 11.922775,1.69535 12.3920875,1.876325 19.78125,6.90625 14.787812,10.06631 38.592638,20.2092 54,23 21.800787,3.94886 38.990125,-0.50524 51.65625,-13.375 3.01599,-3.064475 6.65047,-7.926425 8.0625,-10.8125 1.78063,-3.639466 2.31861,-5.495606 2.25,-9.125 0.26319,-2.54118 0.0712,-4.998562 -0.5625,-7.34375 -0.23558,-1.868089 -0.52755,-3.400334 -0.75,-3.90625 -0.53491,-1.21655 1.3985,-2.89205 8.125,-7.15625 33.9218,-21.50435 57.3643,-56.602975 68.6563,-102.8125 4.96386,-20.313301 6.62051,-33.482324 6.96875,-58.625 0.004,-0.185718 -0.004,-0.376271 0,-0.5625 0.15313,-7.61882 0.16718,-15.62729 0,-23.3125 -0.002,-0.0839 0.002,-0.16617 0,-0.25 -0.16313,-12.42751 -0.57939,-21.97745 -1.1875,-26.6875 -0.71011,-5.5 -1.54037,-12.26705 -1.84375,-15.03125 l -0.5,-4.78125 c 0.17699,-0.13299 0.39785,-0.25436 0.6875,-0.375 l 5.3125,-1.09375 c 19.53793,-4.0355 38.12912,-20.64778 48.6875,-43.5 3.4675,-7.50496 8.5,-23.3844 8.5,-26.8125 0,-2.43154 -7.13435,-6.05652 -18.6875,-9.5 -11.62474,-3.46481 -26.52474,-3.6768 -36.3125,-0.53125 -11.95845,3.84316 -24.51148,13.17722 -32.40625,24.125 -0.7344,1.0184 -1.31111,1.57805 -1.71875,1.65625 -0.21018,-0.15465 -0.503,-0.55491 -0.875,-1.03125 -0.66349,-1.22549 -2.33519,-3.88238 -4.1875,-6.65625 -9.61705,-14.40164 -28.23355,-24.0721 -49.625,-25.78125 -11.73692,-0.93776 -29.090788,0.27829 -31,2.1875 -0.78025,0.78025 -1.624388,3.46805 -1.90625,5.96875 l -0.53125,4.5625 -5.0625,1.09375 c -4.9807,1.06818 -5.1341,1.02828 -7.40625,-1.875 -6.272763,-8.0151 -21.638213,-16.86106 -37.78125,-21.75 -6.087737,-1.84368 -8.854262,-2.45958 -16.21875,-2.65625 -1.425374,-0.15485 -2.855358,-0.28516 -4.28125,-0.375 -1.976653,-0.12454 -3.985518,-0.18233 -6.03125,-0.1875 z M 84,-236.65625 c 2.737625,0 3.0211,0.33161 3.96875,4.75 0.644738,3.00611 0.508237,3.25 -1.875,3.25 -1.9606,0 -2.900113,-0.77699 -3.9375,-3.25 -1.631163,-3.88849 -1.308075,-4.75 1.84375,-4.75 z m 3.15625,16.03125 c 0.07656,-0.0145 0.166012,-7e-4 0.25,0 3.765963,0.032 5.78355,1.38704 8.9375,6 2.406515,3.51978 5.93264,7.39841 10.15625,11.375 0.68055,0.64075 1.37755,1.29398 2.09375,1.9375 0.27689,0.25287 0.56209,0.49803 0.84375,0.75 0.35995,0.31781 0.726,0.65096 1.09375,0.96875 0.47658,0.41546 0.94809,0.83722 1.4375,1.25 0.22688,0.19084 0.45809,0.3719 0.6875,0.5625 0.81336,0.67587 1.62154,1.36323 2.46875,2.03125 0.18815,0.14977 0.37299,0.28807 0.5625,0.4375 0.75287,0.58694 1.50274,1.1384 2.28125,1.71875 7.77412,5.91176 16.46507,11.46075 24.78125,15.5625 3.72969,1.83958 6.86794,3.86099 7.59375,4.84375 0.012,0.0324 0.0523,0.0614 0.0625,0.0937 0.0465,0.14756 0.0525,0.28979 0.0625,0.4375 -0.29741,3.71179 -12.14019,37.38663 -15.5625,44.1875 -7.87328,15.64594 -16.3824,25.21289 -27.125,30.46875 -4.60731,2.25415 -7.14201,2.788813 -14.1875,2.96875 -2.358366,0.06023 -4.265743,0.08591 -5.875,0.0625 -0.759333,-0.01104 -1.43354,-0.02441 -2.09375,-0.0625 -0.04311,-0.0026 -0.08203,0.0027 -0.125,0 -0.596919,-0.0363 -1.167495,-0.093 -1.71875,-0.15625 -0.09359,-0.0087 -0.188254,-0.0221 -0.28125,-0.03125 -2.546203,-0.316864 -4.820706,-0.959687 -8.5,-2.125 -12.90926,-4.08864 -20.409249,-10.47697 -22.71875,-19.59375 -0.02618,-0.10333 -0.03765,-0.20847 -0.0625,-0.3125 -0.02957,-0.14651 -0.06647,-0.28934 -0.09375,-0.4375 -0.484697,-2.63271 -0.594077,-5.52814 -0.375,-8.71875 0.07613,-1.10871 0.177556,-2.17175 0.3125,-3.21875 0.234881,-1.39986 0.55018,-2.82548 0.9375,-4.3125 1.963613,-7.53879 5.9126,-15.21697 15.59375,-30.28125 12.004166,-18.67896 15.514857,-28.04604 16.53125,-44.4375 0.03087,-0.42626 0.07282,-0.83533 0.09375,-1.25 0.01298,-0.24363 0.01843,-0.36063 0.03125,-0.59375 0.430366,-7.82388 0.791052,-9.91366 1.90625,-10.125 z"
           transform="matrix(0.8,0,0,-0.8,238.86756,349.27814)"
           id="path4066"
           inkscape:connector-curvature="0" /></g><path
         style="fill:#865a03"
         d="m 286.42926,256.63367 c -12.32589,2.23264 -31.38641,10.34862 -43.21666,18.40167 -5.91133,4.02394 -6.28834,4.15523 -15.82656,5.51151 -5.37403,0.76415 -13.69185,2.41805 -18.48404,3.67534 l -8.71308,2.28598 -7.86037,-3.85899 c -19.75007,-9.69613 -42.70808,-13.84357 -67.13313,-12.12782 -13.00996,0.9139 -18.01272,2.06 -22.78908,5.22085 -9.09472,6.0186 -8.18276,19.79693 1.8344,27.71505 2.18187,1.72466 7.21419,4.81284 11.18296,6.86263 7.40947,3.82685 9.96441,6.33632 13.55103,13.30991 l 1.56021,3.03357 -4.73887,5.25062 c -14.48208,16.04597 -22.90328,41.79771 -23.89898,73.08225 -0.87537,27.50347 4.17748,51.33763 15.85559,74.79046 15.57802,31.28489 39.18095,55.00499 70.3155,70.66456 12.94236,6.50955 23.59602,10.33955 36.66416,13.18083 6.22671,1.35381 10.467,1.67994 21.73584,1.67177 12.93183,-0.009 14.54934,-0.17651 21.2,-2.19067 12.91443,-3.91115 25.21033,-10.98948 30.22854,-17.40156 1.81772,-2.32262 1.9284,-2.35063 5.91296,-1.49609 l 4.06057,0.87084 0.40999,3.63738 c 0.22549,2.00056 0.92069,4.14809 1.54489,4.77229 1.52737,1.52737 15.40225,2.5151 24.79179,1.76489 17.11316,-1.36732 32.0044,-9.10422 39.69804,-20.62553 1.76459,-2.6425 3.3836,-5.26233 3.59781,-5.82185 0.25903,-0.6766 0.87252,-0.34747 1.83173,0.98268 6.31582,8.75822 16.35692,16.23899 25.92368,19.31352 7.83021,2.51644 19.74619,2.33878 29.04598,-0.43307 9.24252,-2.75478 14.95402,-5.6592 14.95402,-7.60443 0,-2.74248 -4.02668,-15.43863 -6.80068,-21.4426 -8.4467,-18.28178 -23.31343,-31.56356 -38.94377,-34.79196 l -4.84237,-1.00017 0.44125,-4.02064 c 0.2427,-2.21136 0.90606,-7.62065 1.47415,-12.02065 0.64865,-5.02405 1.02486,-16.92786 1.01132,-32 -0.0234,-26.06459 -1.14643,-37.10064 -5.65132,-55.53572 -9.0336,-36.96762 -27.7875,-65.05418 -54.9249,-82.25766 -5.3812,-3.41136 -6.9055,-4.76065 -6.47757,-5.73389 0.30779,-0.7 0.72512,-3.7057 0.92741,-6.67933 0.31528,-4.63481 0.0746,-6.00586 -1.68607,-9.60452 -1.12962,-2.30886 -4.02795,-6.20376 -6.44074,-8.65534 -10.1329,-10.29581 -23.885,-13.8552 -41.32563,-10.69611 z m 38.65735,171.0387 c 8.59408,4.20469 15.40961,11.85713 21.70823,24.37388 2.77266,5.50987 12.47334,33.11844 12.47334,35.49965 0,0.60472 -2.79,2.47558 -6.2,4.15748 -14.60538,7.20374 -30.72423,19.91424 -37.1233,29.27355 -2.52316,3.69037 -4.15064,4.78281 -7.16341,4.80839 -1.07504,0.009 -1.36207,-1.40381 -1.7448,-8.58908 -0.73234,-13.74866 -3.44885,-21.21333 -13.29602,-36.53592 -7.74492,-12.05142 -10.91031,-18.1956 -12.4812,-24.22663 -3.87679,-14.88401 1.76412,-24.26476 17.60873,-29.28309 5.88687,-1.8645 7.3179,-2.04258 14.86467,-1.84985 5.63639,0.14395 7.66791,0.5683 11.35376,2.37162 z m -15.84894,107.12387 c -0.75812,3.53471 -0.97939,3.8 -3.16949,3.8 -2.52146,0 -2.791,-0.68921 -1.48607,-3.8 0.82991,-1.97841 1.58345,-2.6 3.15193,-2.6 1.90659,0 2.01942,0.19511 1.50363,2.6 z"
         id="path4062"
         inkscape:connector-curvature="0" /><path
         style="fill:#120d04"
         d="m 287.92246,256.59449 c -3.38015,0.56881 -9.14015,2.01134 -12.8,3.20562 -8.8891,2.9007 -27.99273,12.31791 -33.411,16.47011 -3.94146,3.02046 -4.97088,3.40541 -10.8,4.03868 -8.11966,0.8821 -13.20597,1.86764 -23.11054,4.47797 l -7.86728,2.0734 -5.33272,-2.87216 c -10.52044,-5.66621 -21.77225,-9.27408 -37.11345,-11.90034 -8.57343,-1.46769 -11.95084,-1.62831 -26.61929,-1.26591 -19.97047,0.4934 -25.28371,1.6844 -30.10645,6.7486 -5.0169,5.26809 -5.90566,10.78928 -2.80768,17.442 2.47667,5.31852 8.27684,10.379 16.79335,14.6517 7.41912,3.72215 10.87776,7.01013 14.04507,13.35204 l 1.85985,3.724 -2.79618,2.92802 c -13.63654,14.27948 -22.40928,36.99505 -25.33963,65.61278 -4.07381,39.78476 7.74604,79.91174 33.14264,112.51524 6.73882,8.65114 22.42882,23.60631 31.65748,30.17485 25.82131,18.37844 58.65039,29.15676 83.95155,27.56267 16.502,-1.0397 33.20128,-7.61628 43.13567,-16.98788 l 5.53543,-5.22185 3.97346,0.5271 3.97346,0.5271 0.51401,3.87489 c 0.28271,2.13119 1.03815,4.39901 1.67874,5.0396 2.64476,2.64476 25.37788,2.6939 35.58923,0.0769 12.28427,-3.14822 24.46508,-11.7056 30,-21.07588 1.32,-2.23469 2.63078,-3.98082 2.91286,-3.8803 0.28206,0.10052 1.99674,2.06809 3.81038,4.37238 6.06729,7.70865 15.90567,14.13592 25.43931,16.61911 5.83229,1.51912 16.78833,1.50927 23.2789,-0.0209 7.54567,-1.77895 17.65104,-5.98877 18.15011,-7.5612 0.71053,-2.23868 -3.35956,-15.06339 -7.4982,-23.62659 -4.6255,-9.57054 -11.21126,-18.21214 -17.66279,-23.17648 -5.9106,-4.5481 -14.99684,-8.94728 -21.07164,-10.20201 -4.06835,-0.8403 -4.59755,-1.16313 -4.247,-2.59071 0.22025,-0.89694 1.03485,-6.8508 1.81021,-13.2308 1.95192,-16.06093 1.93282,-49.8201 -0.0364,-64.4 -7.03274,-52.06906 -28.26704,-88.70009 -63.0274,-108.72786 l -3.74169,-2.15584 1.14169,-2.73245 c 3.10092,-7.42154 -0.18224,-16.99328 -8.4563,-24.6536 -5.63783,-5.21963 -11.2435,-8.11519 -18.81596,-9.71922 -6.63732,-1.40593 -11.43461,-1.40904 -19.73177,-0.0128 z m 16.94572,5.22699 c 10.00434,1.56442 19.66616,8.27974 23.92577,16.62926 3.90012,7.64486 1.60756,12.99289 -11.07546,25.83662 -5.08767,5.15214 -10.42451,11.31375 -11.85964,13.69247 -5.88123,9.74811 -8.16868,21.16986 -6.67516,33.33051 1,8.14226 2.04432,10.18733 4.76172,9.32487 1.60415,-0.50915 1.64107,-0.89116 1.1869,-12.28223 -0.44953,-11.27466 -0.38088,-12.01663 1.67425,-18.0948 2.82016,-8.3408 5.53093,-12.2149 15.9298,-22.76608 l 8.6682,-8.79514 5.31678,3.25423 c 7.73206,4.73255 11.72765,7.90421 19.24473,15.27633 10.71997,10.51324 16.9745,19.4574 24.17345,34.56872 15.33294,32.18541 20.41865,79.23324 13.56903,125.52698 -1.06363,7.18865 -1.20004,9.92372 -0.53113,10.64911 0.49505,0.53685 3.60077,1.49281 6.9016,2.12437 19.84515,3.797 34.81104,19.52608 41.95251,44.09187 0.73224,2.51881 1.21266,4.69833 1.0676,4.84339 -0.14505,0.14505 -2.05323,1.0308 -4.2404,1.96833 -10.30124,4.41563 -23.47278,5.27829 -32.39055,2.1214 -2.86,-1.01244 -6.82,-2.86307 -8.8,-4.11252 -5.04705,-3.18485 -12.10382,-10.60138 -15.14542,-15.91753 -1.98041,-3.46141 -3.00568,-4.4954 -4.45748,-4.4954 -1.5622,0 -2.39615,1.06298 -4.8641,6.2 -5.46614,11.37769 -15.45831,19.36569 -28.733,22.96993 -5.7021,1.54819 -22.66888,2.46175 -27.19577,1.46434 -1.86268,-0.41041 -3.2964,-1.22663 -3.437,-1.9567 -0.1932,-1.00321 0.82143,-1.33787 5.09663,-1.68105 6.37261,-0.51153 8.23126,-2.18712 5.479,-4.93938 -0.84104,-0.84103 -2.72771,-1.25714 -5.7,-1.25714 l -4.44286,0 0.49694,-2.48469 c 1.10221,-5.51107 2.07692,-6.40053 9.27321,-8.46223 7.49588,-2.14752 8.82985,-2.9295 8.82985,-5.17614 0,-2.1649 -2.08126,-2.69404 -6.23098,-1.58416 -1.97135,0.52726 -3.79076,0.75214 -4.04316,0.49975 -0.85026,-0.85026 11.58745,-12.10019 18.35927,-16.60597 3.69317,-2.45734 10.41225,-6.33206 14.93126,-8.61046 4.51903,-2.2784 8.57834,-4.81884 9.02071,-5.64541 1.06738,-1.99443 -0.43893,-8.2916 -5.57733,-23.31613 -4.89462,-14.31169 -7.5914,-20.3737 -12.30529,-27.66062 -5.27738,-8.158 -11.38718,-13.88963 -18.61272,-17.46068 -5.6153,-2.77524 -6.85826,-3.07352 -14.0035,-3.36051 -17.849,-0.71691 -32.59524,6.20735 -38.051,17.86725 -1.47373,3.14963 -1.87329,5.37224 -1.87944,10.4548 -0.0128,10.56065 3.43241,19.31006 13.97622,35.4939 6.41201,9.84188 9.46665,16.12696 11.30049,23.2513 1.39938,5.43651 1.98207,18.59866 0.87253,19.70909 -0.35362,0.35391 -3.11022,0.78287 -6.12579,0.95327 -4.91293,0.2776 -5.57578,0.13614 -6.37703,-1.36101 -0.49181,-0.91895 -2.22878,-2.57769 -3.85993,-3.68608 -3.56663,-2.42359 -10.04997,-2.75155 -14.00127,-0.70825 -2.80127,1.4486 -11.3061,1.19872 -20.01338,-0.58799 -4.26028,-0.8742 -4.52524,-1.05317 -3.4,-2.29655 1.54655,-1.70892 1.53319,-2.69696 -0.0786,-5.81386 l -1.29897,-2.51192 3.21916,-3.0028 c 7.79361,-7.2698 21.16512,-6.90068 29.96673,0.82724 3.25616,2.85895 5.78479,3.17201 7.01743,0.8688 0.73417,-1.37182 0.41279,-2.02653 -2.17185,-4.42448 -1.66845,-1.54792 -5.36597,-3.97339 -8.21671,-5.38993 -4.74586,-2.35822 -5.82585,-2.57535 -12.8,-2.57332 -8.23284,0.002 -11.32842,1.06626 -17.70917,6.08621 l -2.89234,2.27549 -1.50576,-1.66386 c -3.52226,-3.89204 -8.639,-5.04295 -9.55728,-2.14971 -0.41584,1.3102 -0.0774,2.10624 1.3461,3.16566 1.0459,0.77843 2.82796,2.12543 3.96014,2.99334 1.13219,0.86791 3.24316,3.80062 4.69105,6.51715 2.5953,4.86926 2.60579,4.93112 0.74148,4.37325 -1.04007,-0.31124 -3.39515,-1.4285 -5.2335,-2.48281 -4.09466,-2.34832 -5.53963,-2.40577 -6.68491,-0.26579 -0.66312,1.23904 -0.63277,1.95345 0.1216,2.8624 1.15868,1.39612 7.49755,4.72218 12.24876,6.42703 4.07159,1.46097 15.06995,3.45688 19.057,3.45834 3.4978,10e-4 3.98948,1.31537 0.8,2.13811 -4.25883,1.0986 -21.18936,0.58675 -26.90309,-0.81334 -5.92659,-1.45225 -7.69689,-0.98878 -7.69689,2.0151 0,3.46743 13.42886,5.98899 27.5883,5.18029 l 8.89428,-0.50799 1.02641,2.83848 c 0.60744,1.67985 2.35399,3.80018 4.27875,5.19447 5.62161,4.07228 14.75304,2.82302 18.50344,-2.53144 0.93571,-1.3359 1.4169,-1.43007 3.39941,-0.66528 l 2.30941,0.8909 -3.88622,3.53888 c -4.79968,4.3707 -16.39434,10.16904 -24.91378,12.45906 -9.08666,2.44249 -25.33823,2.43803 -37.78221,-0.0104 -38.95725,-7.66499 -75.33257,-33.45558 -97.24313,-68.94668 -15.05546,-24.3871 -23.41577,-56.99807 -21.83695,-85.17909 1.66318,-29.68663 8.85143,-51.64896 22.12503,-67.59881 7.58756,-9.11739 26.2116,-22.68081 43.46892,-31.65735 18.06084,-9.39448 34.03224,-14.77756 54.29738,-18.30064 l 3.02905,-0.5266 -3.74663,5.0417 c -8.86643,11.93124 -14.84951,29.79909 -16.2238,48.45072 -0.89748,12.18037 -0.34064,18.04781 1.75077,18.44792 3.04099,0.58176 3.51539,-1.03538 4.00718,-13.65964 0.26133,-6.70852 1.03196,-14.7173 1.71249,-17.7973 4.23494,-19.1667 12.06334,-33.17354 24.08072,-43.08603 9.20596,-7.59351 29.84269,-17.24088 42.78284,-20.00035 10.33579,-2.2041 13.01679,-2.377 19.97834,-1.28838 z m -87.40002,262.43885 c -5.48131,3.19257 -4.82226,17.87436 0.90003,20.04997 4.59421,1.74672 8.09999,-2.80997 8.09999,-10.52809 0,-7.60575 -4.36358,-12.22235 -9.00002,-9.52188 z M 156.98868,277.75614 c 4.99372,0.85793 12.28364,2.49204 16.19981,3.63136 6.89254,2.0052 19.47101,7.30681 18.80649,7.92661 -0.17974,0.16765 -3.5668,1.63298 -7.5268,3.25629 -14.06993,5.76763 -34.66546,18.00582 -45.33462,26.93856 -2.16119,1.80944 -4.03095,3.1543 -4.15504,2.98858 -0.12408,-0.16571 -1.23112,-2.05616 -2.46011,-4.20099 -3.70414,-6.46449 -7.31283,-9.79397 -14.48353,-13.36297 -7.9467,-3.95522 -12.6319,-7.75278 -14.79429,-11.99143 -4.20639,-8.24519 1.03938,-14.46532 13.41401,-15.90556 11.02108,-1.28271 30.72587,-0.93118 40.33408,0.71955 z m 168.8491,149.95896 c 8.31794,4.2085 16.42788,13.78195 21.98418,25.95145 3.23048,7.07546 11.44622,31.21651 11.44622,33.6335 0,1.22451 -1.44588,2.35501 -5.8,4.53492 -17.23043,8.62647 -30.57169,19.19439 -38.07647,30.16127 -1.87028,2.73307 -3.13278,3.8 -4.49653,3.8 -1.04288,0 -2.45526,0.21456 -3.13864,0.47679 -1.07139,0.41113 -1.17797,-0.22235 -0.77391,-4.6 0.58961,-6.38789 -1.32451,-16.96989 -4.46585,-24.68907 -1.27234,-3.12652 -5.76488,-11.18341 -9.9834,-17.90418 -9.35368,-14.90191 -11.69805,-20.38116 -12.26726,-28.67104 -0.71468,-10.40849 3.11532,-16.87597 12.60206,-21.28024 6.84363,-3.1772 11.67538,-4.09843 20.42,-3.8933 7.02566,0.16481 8.58158,0.47227 12.5496,2.4799 z m -16.52167,107.48114 c -0.91871,3.53958 -1.14563,3.78213 -3.31115,3.5393 -3.04424,-0.34136 -3.05146,-0.35547 -1.86264,-3.64311 0.9376,-2.59287 1.79172,-3.17726 5.24297,-3.58724 0.67827,-0.0806 0.66026,0.88066 -0.0692,3.69105 z"
         id="path4060"
         inkscape:connector-curvature="0" /></g></g></svg>