<?xml version="1.0" encoding="UTF-8" standalone="no"?>
<svg
   xmlns:osb="http://www.openswatchbook.org/uri/2009/osb"
   xmlns:dc="http://purl.org/dc/elements/1.1/"
   xmlns:cc="http://creativecommons.org/ns#"
   xmlns:rdf="http://www.w3.org/1999/02/22-rdf-syntax-ns#"
   xmlns:svg="http://www.w3.org/2000/svg"
   xmlns="http://www.w3.org/2000/svg"
   xmlns:xlink="http://www.w3.org/1999/xlink"
   xmlns:sodipodi="http://sodipodi.sourceforge.net/DTD/sodipodi-0.dtd"
   xmlns:inkscape="http://www.inkscape.org/namespaces/inkscape"
   version="1.1"
   id="svg2"
   viewBox="0 0 164.94415 167.3383"
   height="167.3383"
   width="164.94415"
   inkscape:version="0.48.4 r9939"
   sodipodi:docname="gato.svg">
  <sodipodi:namedview
     pagecolor="#ffffff"
     bordercolor="#666666"
     borderopacity="1"
     objecttolerance="10"
     gridtolerance="10"
     guidetolerance="10"
     inkscape:pageopacity="0"
     inkscape:pageshadow="2"
     inkscape:window-width="1600"
     inkscape:window-height="876"
     id="namedview1313"
     showgrid="false"
     fit-margin-top="0"
     fit-margin-left="0"
     fit-margin-right="0"
     fit-margin-bottom="0"
     inkscape:zoom="3.4808021"
     inkscape:cx="27.463318"
     inkscape:cy="83.668492"
     inkscape:window-x="0"
     inkscape:window-y="1"
     inkscape:window-maximized="1"
     inkscape:current-layer="svg2" />
  <script
     xlink:href="C:\wamp\www\bingo\js/snap.svg-min.js"
     id="script4164" />
  <title
     id="title4162">Bingo das Letras</title>
  <defs
     id="defs4">
    <linearGradient
       osb:paint="solid"
       id="linearGradient12614">
      <stop
         id="stop12616"
         offset="0"
         style="stop-color:#000000;stop-opacity:1;" />
    </linearGradient>
    <linearGradient
       gradientTransform="matrix(-0.19399818,0,0,-0.19399818,259.22818,12173.784)"
       osb:paint="solid"
       id="linearGradient59274">
      <stop
         id="stop59276"
         offset="0"
         style="stop-color:#930033;stop-opacity:1;" />
    </linearGradient>
    <linearGradient
       id="linearGradient4269"
       osb:paint="solid"
       gradientTransform="matrix(110.20782,22.122239,-29.697412,82.096171,6268010.9,4301812.1)">
      <stop
         style="stop-color:#ffffff;stop-opacity:1;"
         offset="0"
         id="stop4271" />
    </linearGradient>
    <linearGradient
       id="linearGradient4251"
       osb:paint="solid"
       gradientTransform="translate(106155.96,125143.42)">
      <stop
         style="stop-color:#555555;stop-opacity:1;"
         offset="0"
         id="stop4253" />
    </linearGradient>
    <linearGradient
       id="linearGradient4241"
       osb:paint="solid"
       gradientTransform="matrix(0.19125385,0,0,0.19125385,-316.00938,-13026.989)">
      <stop
         style="stop-color:#3fb5ae;stop-opacity:1;"
         offset="0"
         id="stop4243" />
    </linearGradient>
    <linearGradient
       id="linearGradient4231"
       osb:paint="solid"
       gradientTransform="translate(2399.1562,2075.6965)">
      <stop
         style="stop-color:#d1f2a5;stop-opacity:1;"
         offset="0"
         id="stop4233" />
    </linearGradient>
    <linearGradient
       id="linearGradient4221"
       osb:paint="solid"
       gradientTransform="matrix(0.66768435,0,0,0.66768435,-186.89148,394.64653)">
      <stop
         style="stop-color:#effab4;stop-opacity:1;"
         offset="0"
         id="stop4223" />
    </linearGradient>
    <linearGradient
       id="linearGradient4211"
       osb:paint="solid"
       gradientTransform="translate(-699.20463,883.12976)">
      <stop
         style="stop-color:#ffc48c;stop-opacity:1;"
         offset="0"
         id="stop4213" />
    </linearGradient>
    <linearGradient
       id="linearGradient4201"
       osb:paint="solid"
       gradientTransform="matrix(0.35946858,0,0,0.22423084,-331.07911,5516.4706)">
      <stop
         style="stop-color:#ff9f80;stop-opacity:1;"
         offset="0"
         id="stop4203" />
    </linearGradient>
    <linearGradient
       id="linearGradient4191"
       osb:paint="solid"
       gradientTransform="matrix(0.52321996,0,0,0.52321996,2015.4535,3072.5352)">
      <stop
         style="stop-color:#f56991;stop-opacity:1;"
         offset="0"
         id="stop4193" />
    </linearGradient>
    <g
       id="Layer0_6_FILL">
      <path
         d="m 123.15,294.05 q -12.05,-11.2 -30.6,-9.05 -6.4,0.75 -12.5,4.05 -7.05,3.7 -9.05,8.8 -3,8.05 -0.15,14.75 2.7,6 8.85,7.7 6.05,1.55 12,0.2 5.95,-1.45 6.7,-5.05 -0.15,-0.45 -0.2,-0.85 -2.15,-8.6 -2.75,-10.9 -0.75,-2.55 2.55,-4.75 10.25,2.05 14.95,7.65 5.6,6.4 4.5,18.25 -9.5,13.15 -30.85,24.45 -5.05,2.85 -36,16.5 0.9,-14.4 -3.95,-33.15 -6.35,-20.7 -9.05,-31.4 8.05,-2.55 12.5,-5.4 1.95,-1.4 3.7,-2.95 3.35,-3.15 5.35,-6.8 -7.15,-2.2 -8.05,-8.05 -0.75,-4.25 2.6,-15.6 3.4,-11.45 4.45,-16.55 0.75,-3.75 -0.2,-5.95 -0.2,-0.4 -0.45,-0.8 -0.25,-0.3 -0.5,-0.6 -11.2,-0.1 -17.05,4.05 -6,4.15 -12.05,11.15 -3.7,-2.15 -10.4,-3.05 -8.1,-0.9 -14.35,1 -2.75,-4.7 -9.85,-12.35 -6.75,-7.3 -13.1,-9.15 -0.35,-0.1 -0.75,-0.15 -3.8,7.95 -4.6,18.45 -0.9,10.4 1.9,18.9 -2.6,5.95 -4.35,9 -1.7,2.95 -4.75,7.65 -0.05,-0.1 -1.1,0.5 -2,0.8 -4.45,0.45 1.3,5.8 10.8,9.25 9.45,3.25 12.55,6.55 -10.45,25.9 -13.1,45.1 -4.05,28.8 8.15,42.55 -8.95,0.9 -9.45,8.85 1.35,1.65 3.15,2.95 3.05,2.2 7.55,3.15 3.15,0.65 7.1,0.7 0.9,0 1.9,-0.05 4.4,-0.2 8.15,-0.95 3,-0.6 5.5,-1.5 3.55,-1.3 6.2,-3.35 1.25,0.4 6.15,2.95 0.35,0.2 0.7,0.4 3.05,1.55 4.35,1 0.6,-0.1 1.3,-0.15 5.35,-0.7 16.75,0.3 1,0.05 1.9,0.1 8.4,0.15 11,-5.75 0,-0.75 -0.1,-1.35 -0.35,-2.95 -2.5,-5.15 -3.5,-2.7 -7.1,-4.95 9.95,-5.35 22.75,-11.8 4.2,-2.25 23.65,-11.25 39.95,-18.85 43.05,-37.75 3.3,-19.1 -9.35,-30.8 m -41.3,-2.55 q 2.15,1.6 3.6,3.5 2.5,3.2 2.9,7.2 -2.2,-0.2 -6.15,-2.55 -0.9,-0.55 -2,-0.95 -2.9,-0.95 -6.8,-0.55 1.95,-2.75 5.05,-5.05 3.1,-2.4 3.4,-1.6 m 5.15,2.35 q -1.45,-1.8 -3.4,-3.55 4.8,-4.15 9.2,-2.1 1.55,0.65 3,1.75 0.05,0.15 0.2,0.2 2.7,2.05 5.2,5.6 3.25,-1.65 4.55,-5.55 0.45,-1.45 0.65,-3.25 4.25,0.3 11.3,5.1 -0.4,1.6 -0.9,2.85 -0.05,0.15 -0.05,0.25 -0.65,1.65 -1.5,2.85 -1.35,2.1 -1.05,4.2 1.05,2.5 5.8,2.15 3.15,-0.2 4.9,-1.85 0.05,-0.05 0.15,-0.1 0.8,-0.8 1.35,-1.9 3.05,4.3 3.95,11.45 -0.1,0.05 -3.2,1 -0.6,0.15 -1.3,0.35 -2.8,0.9 -3.1,3 -0.65,4.1 2.1,6.55 1.65,1.4 2.7,2.35 1.5,1.35 1.7,1.75 -0.25,2.05 -1.35,4.1 -1.6,2.75 -1.95,3.5 -1.4,0.45 -2.8,0 -0.25996,-0.0324 -0.5,-0.1 l -0.05,-0.05 q -2.80645,-1.03926 -4.2,-0.9 -3.4,0.7 -2.75,5.1 0.25,1.75 0.3,3.2 0.05,2.7 -0.7,3.6 -2.45,1.55 -5.15,0.25 l -0.1,0 q -3.55,-1.6 -5.55,-1.35 -2.05,0.85 -2.65,4.85 0,0.1 0,0.25 -0.4,1.95 -0.6,4.6 -2.6,2.5 -4.95,1.1 -1.2,-0.95 -2.15,-1.6 -1.55,-1.1 -2.65,-1.75 -2.4,0.95 -3.35,4.9 -0.15,0.4 -0.2,0.8 -1,4.65 -1.75,5.15 -4.05,1.1 -5.95,-1.45 -0.1,-0.05 -0.15,-0.15 -2.5,-3.1 -3.95,-2.75 -3.9,2.4 -5.05,7.55 -0.1,0.55 -0.25,1.15 -0.3,2.05 -1.5,3.1 l 0.05,0 q -0.15,0.05 -0.25,0.15 -0.35,0.2 -0.7,0.4 -0.45,0.2 -0.9,0.65 -2.9,1.9 -5,2.7 -2.15,0.85 -4.9,2.8 -0.6,-1.7 -0.95,-4.1 -0.1,-0.35 -0.1,-0.65 -0.15,-0.7 -0.25,-1.35 l -0.3,-4.4 q 2.55,-2.25 4.05,-2.55 4.55,-3.15 10.2,-4.8 5.6,-1.7 13.85,-5.35 8.25,-3.7 16.55,-9.3 12.25,-8.15 18.85,-18.35 1.2,-13.5 -4.95,-20.7 -5.7,-6.6 -17.7,-8.4 -4.05,2.2 -2.75,8 1.7,8.2 1.75,10.1 -0.05,0.15 -0.05,0.3 -8.5,6 -17.05,1.75 -9,-4.5 -5.6,-16.95 3.25,-1.35 6.65,-0.3 0.75,0.2 1.55,0.55 4.2,1.9 8.1,4.1 1.5,-2.55 -0.4,-7 -0.8,-1.8 -2.05,-3.5 m 9.95,-4 q -1.55,-1.1 -3.8,-2.6 2.3,-2 12.15,-0.6 -0.25,1.85 -0.65,3.3 -1.05,3.35 -3,4.5 0.15,-0.8 -1.55,-2.25 -0.95,-0.8 -2.75,-2.05 -0.2,-0.2 -0.4,-0.3 m 20.9,5.75 q 0.5,-1.15 0.7,-2.7 3.55,2.5 4.45,3.9 1.35,1.4 2.9,3.1 -0.7,1.2 -1.3,1.75 -2.2,1.7 -4.9,1.65 -4.25,-0.05 -4.45,-1.1 0.15,-1.85 1.25,-4 0.7,-1.1 1.35,-2.6 m -63.9,-54.7 q -0.04766,-0.14297 -0.05,-0.25 0,0.10703 0,0.25 -8.1,1.15 -12.45,5.55 -4.65,4.6 -6.5,10.1 l -0.05,0 q 0.35,0.55 0.75,0.65 0.1,0.1 0.25,0.3 0.4,0.4 0.85,0.9 6.1,6.85 10.05,15.85 4.3,9.95 8.15,11 3.65,0.95 0.55,3.65 -2.9,2.4 -6.45,2.6 -0.35,0 -0.65,0 5.05,0.55 4.1,1.15 -0.15,0.05 -0.25,0.2 -1.3,0.55 -4.7,0.8 -2.85,3.85 -7.95,5.5 -7.1,1.75 -11.7,3.05 -3.95,1.8 -6.9,3.2 -2.1,0.9 -3.7,1.65 -3.85,1.75 -7.75,1.1 -1.9,-0.3 -3.45,-0.75 -0.35,-0.05 -0.6,-0.15 -1.55,-0.5 -2.75,-1.1 -1.35,-0.7 -3.15,-1.45 -2,-0.8 -4.6,-1.7 -5,-1.75 -9.35,-3.8 -4.35,-2 -8.15,-5.35 -2.65,0.5 -9.5,-2.5 4,-0.1 -1.3,-2.45 l -0.35,-0.15 q -0.35,-0.15 -0.75,-0.35 -0.25,-0.1 -0.4,-0.15 2.55,0.5 4.1,-0.5 0.75,-0.45 -3.45,-1.15 -0.371094,-0.13906 -0.8,-0.2 4.139062,0.46484 9.1,-10.35 5.05,-11.3 12,-15.4 2.25,-1.25 4.7,-2.35 1.1,-0.55 2.2,-1.05 0.4,-0.2 0.8,-0.4 3.3,-1.45 5.7,-2.55 0.05,0 0.15,-0.05 0.2,-0.15 0.45,-0.2 0.15,-0.1 0.35,-0.2 0,-0.05 -0.1,-0.05 -4.85,-8.55 -7.95,-12 -4.15,-4.6 -9.8,-6.35 -3.6,3.75 -3.55,17.05 0,8.45 0.95,11.15 -0.55,1.1 -0.95,1.8 -3.4,4.6 -3.3,-16.65 1.15,-12.05 4.35,-17.9 l 0,-0.05 q 9.65,4.35 16.4,14 2.25,3.3 5.4,8.3 0,0.05 0.05,0.1 0.05,-0.1 0.2,-0.1 0.2,0.3 0.35,0.6 1.5,2.85 3.25,5.75 3.75,1.8 3.8,-3.05 0,-1.95 0.6,-2.95 0.75,-1.3 2.55,-0.9 0.15,0.45 0.4,1.1 0.4,1.5 0.55,3.95 0.2,3.4 1.8,4.05 1.6,0.7 3.3,-3.05 1.05,-2.45 2.1,-3.7 0.75,-0.95 1.65,-1.2 0.15,0.85 0.25,1.7 0.05,1.4 -0.2,2.95 -0.45,2.5 0.8,4.1 1.75,0.75 4.75,-3.6 0.45,-0.6 1,-1.15 1.45,-1.5 3.8,-1.85 0.25,-0.05 0.55,-0.05 -0.6,-0.5 -1.4,-0.95 -1.2,-0.6 -2.6,-1.1 13.6,-15.25 25.7,-14.15 0.4,0 0.8,0.05 1,1 1.25,2.75 0.15,1.05 -0.05,2.45 -0.6,3.65 -6.55,24.45 -1.2,6.65 -2.5,3.8 -1.3,-2.8 -1.55,-2.85 l 0.2,-0.25 1.3,-1.8 q 1.15,-3.25 2.35,-8.6 0.3,-1.7 0.7,-3.6 4.15,-14.5 3.2,-15.15 0.2,-0.1 0.45,-0.15 -0.45,0.05 -0.85,0.15 m -9.05,4.25 q 2.25,-1.75 8.9,-4.05 -1.3,7.55 -3.6,15.5 -1.75,6.25 -4.1,12.85 -0.8,-1.8 -5.2,-7.55 -0.05,-0.15 -0.1,-0.2 -2.95,-4.05 -4.25,-4.65 -0.5,-2.15 2.7,-6 3.2,-3.9 5.65,-5.9 M 23.7,258.1 q 0.4,-1.25 0.5,-2.2 0.05,-1.5 -0.65,-2.4 4.6,1 5.5,2.9 -0.25,0.45 -0.6,1.1 -0.75,1.1 -2,2.45 -1.85,1.8 -2.8,1.5 -1,-0.4 0.05,-3.35 m -9.3,-4.3 q -0.1,-0.95 -0.15,-1.35 2.7,-0.9 6.3,0.8 -0.35,0.75 -0.7,1.45 -0.85,1.8 -1.85,3.65 -1.45,2.55 -1.45,2.15 -2.1,-0.55 -2.1,-3.9 -0.05,-1.75 -0.05,-2.8 M 3.95,253.6 Q 3.55,253.15 3,252.75 6.6,251.4 10.15,252.25 9.5,252.7 9.05,253.5 8,255.15 8.4,258.35 6.1,260.2 5.4,256.95 4.95,254.8 3.95,253.6 M 45,336.15 q 0.15,0.25 0.2,0.5 2.45,5.85 3.1,9.9 0.65,4.2 -0.7,3.95 -1.1,0.35 -1.95,0.6 -0.15,0 -0.2,0 -4.4,0.9 -2.75,-2.45 1.9,-4.1 2.3,-12.5 m -1.8,3.1 q -0.25,3.55 -0.7,5.6 -1.45,-0.7 -2.45,-1.3 -4.3,-2.85 -0.2,-5.7 0.8,-0.6 2,-1.15 1.5,0.1 1.35,2.55 m 0,-11.3 q 0.6,3.1 -0.2,4.65 -2.05,-0.05 -3.15,0 -0.1,0 -0.15,0 -0.15,0 -0.25,0 -1,-0.25 -1.85,-1.3 -0.45,-0.85 1.05,-2.75 0.2,-0.2 0.3,-0.45 0.05,-0.1 0.2,-0.2 0.05,-0.15 0.15,-0.25 1.1,-1.8 2.4,-4.55 0.8,1.6 1.5,4.85 M 33,302.8 q 1.55,-0.4 2.85,-0.6 1.25,4.25 -0.15,9.2 -0.1,0.35 -0.25,0.75 -1.75,5.6 -1.5,6.65 0.15,1 3.15,0.7 0.25,-0.1 0.5,-0.1 0.05,0 0.2,0 2.25,-0.15 3,1.2 -0.05,2.8 -2.05,5.85 -0.15,0.25 -0.35,0.5 -2.35,3.25 -2,4.6 0.3,1.35 1.8,1.85 0.55,0.1 1.35,0.15 0.05,0 0.25,0 0.85,0 2.05,-0.05 0,2.05 -2.05,3.4 l -0.05,0 q -0.15,0.05 -0.25,0.1 -2.55,1.7 -2.95,3 -0.1,2.35 3.3,4.25 0.1,0 0.15,0.05 0.05,0 0.1,0.05 2.75,1.8 1.75,5.3 -0.65,0.65 -1.75,0.9 -0.6,0.1 -1.4,0.1 -2.15,0 -4.35,0.25 -1.2,1.3 1,5.4 2.05,4.25 1.2,5.25 -1.7,0.4 -3.9,-0.1 -2.2,-0.5 -2.6,0.1 -0.05,2.65 1.9,5.45 1.45,2.3 0.3,5.35 -1.25,0.8 -4,0.05 -2.65,-0.65 -2.55,-0.05 -1.25,-0.4 3.35,7.5 -2.9,7.45 -2.15,20.55 -1.55,0.3 -1.2,-2.15 0.45,-2.55 -1,-2.2 -1.35,0.7 -0.6,3.5 0.4,1.6 -1.15,1.9 -0.6,0.15 -1.5,0 0.1,-3.05 0,-4.35 -0.15,-2.3 -1.1,-3.2 -1.3,-0.4 -1.3,2.7 0,1.9 0,3.5 -0.95,-0.2 -1.75,-0.75 -3.05,-1.8 -4.8,-7.55 -2.3,-7.45 0.25,-20.55 1.9,-2.45 6.65,-4.7 0.8,-0.4 1.5,-0.7 4.55,-2.15 6,-3.25 -0.2,0.05 -0.35,0.15 -7.65,3 -14.8,4.75 -7.1,1.8 -11.6,-4.5 -0.15,-0.2 -0.3,-0.4 0.55,1.25 1.2,2.3 1.2,2 2.55,2.85 1.95,1.25 3.3,2.5 1.25,4.9 1.55,17.6 0.15,9.85 -3.8,12 Q 3.5,400.4 2,400.4 1.15,400.05 1.9,398.5 2.5,397 2,396.05 q -0.05,0.1 -0.05,0.15 -0.8,0.9 -1.55,1.95 -0.8,1.15 0.3,2.8 -1,0 -1.8,-0.05 -2.45,-0.35 -2.35,-1.7 0.15,-1.85 1.15,-3.15 -2,1 -2.45,4 -1.4,-9.4 -2,-13.2 -1.3,-6.65 1.15,-10.25 0.2,-1.2 -2.15,-1.8 -2.3,-0.65 -3.55,-0.4 -0.4,-0.7 0.75,-4.15 1.75,-5 1.75,-5.5 -0.65,-1.65 -3.15,-0.75 -2.3,1.05 -3.05,0.1 -0.2,-0.2 -0.25,-0.4 0,-0.55 0.05,-1.1 0.2,-1.75 1.35,-3.55 1.6,-2.55 2,-3.85 0.85,-1.3 -0.9,-2 -1.25,-0.5 -3.2,-0.5 -1.1,0 -2.45,0.15 -1.1,-0.45 -1.85,-3.9 -0.8,-3.35 -0.65,-4.95 0.1,-1.65 2.95,-3.7 1.8,-1.25 2.45,-2.85 0.3,-0.85 0.25,-1.8 0,-0.05 -0.1,-0.05 -0.8,-1.1 -3.05,-2.2 -2.5,-1.3 -3.3,-2.1 -1.35,-1.05 -0.1,-4.55 1.1,-3.4 1.25,-5.2 0.7,-0.95 4.25,-0.95 2.95,-0.1 3.95,-0.75 0.2,-0.1 0.35,-0.3 0.1,-0.75 0.15,-1.4 0.15,-2.15 -0.7,-4 -1.5,-3.2 -2.6,-6.1 1.3,-3.5 2,-5.85 1.75,0.3 6.45,2.05 2.4,0.85 5.65,2.1 9.35,3.75 14,3.2 4.6,-0.65 11.5,-3.65 4.9,-2.1 8.55,-3.1 m 3.3,12.4 q 0.15,-0.25 0.25,-0.55 0,-0.2 0.05,-0.35 0.5,-2.05 1.05,-6.5 1.95,4.35 1.95,8.15 0,2.35 -2,2.65 -0.1,0 -0.2,0.1 -0.95,0.05 -2.35,-0.3 0.55,-1.6 1.25,-3.2 m -0.6,39.35 q -0.55,-1.35 -0.25,-2.8 l 5.35,0 q -0.2,0.15 -0.75,2.25 -0.2,0.6 -0.45,1.45 -0.65,2.2 -1.75,4.15 -1.55,-3.8 -2.15,-5.05 m 3.25,6.65 q 0.5,-0.85 0.85,-1.65 0.75,-1.85 1,-3.45 0.55,0.4 3.4,2.65 l 0.1,0 q 0.1,0.15 0.25,0.25 2.25,1.65 3.85,2.55 -0.3,2.3 -0.75,6.45 -0.85,-0.65 -4.9,-1.1 -1.45,-0.25 -2.9,0.2 -0.35,0.05 -0.65,0.15 -1.7,0.7 -3.3,2.3 -0.2,0.05 -0.3,0.3 -0.206445,0.20645 -0.45,0.45 0.166602,-0.14004 0.35,-0.25 -0.05,0.05 -0.05,0.15 0.25,1.4 1.3,2.75 0.65,0.9 1.7,1.75 0.45,0.35 1,0.8 3.5,2.6 4.4,1.95 1,-0.7 -0.05,2.2 -1,2.8 -1.85,4.65 -3.25,-0.2 -6.5,-1.2 -2.15,-0.75 -3.75,-0.6 -0.1,0 -0.2,0 0.1,0.15 0.2,0.25 3.65,3 5,3.65 1.4,0.65 4.95,0.45 3.45,-0.05 6.75,3.35 3.15,3.1 2.6,6.4 0,0.2 -0.05,0.4 -0.8,3.4 -5.8,3.4 0.35,-2.5 -0.45,-4.35 -1.1,-1.8 -1.6,-2.95 -0.05,-0.15 -0.1,-0.3 -1.15,0.4 -0.25,3.95 0.85,3.65 -0.9,4.7 -1,-0.05 -2.1,-0.2 -4.25,-0.55 -10.7,-1.95 -1.9,-8.65 1.45,-19.8 l -0.05,0.55 q 1.65,-5.85 3.05,-7.75 3.5,-7.6 5.45,-11.1 m -7.65,0.9 q 1.7,0.5 2.55,0.65 0.95,0.15 2.6,0.35 l -2.65,5.45 q -3.25,-4.05 -2.5,-6.45 m 7.85,6.15 q 0.05,-0.05 0.1,-0.05 3.4,-0.7 8.05,0.9 -0.15,1.55 -1.05,3.75 -1,2.25 -1.1,3.75 -3.15,0.3 -6,-2.4 -0.3,-0.25 -0.55,-0.55 -0.75,-0.7 -1.25,-1.35 -0.1,-0.05 -0.2,-0.2 -1,-1.4 -1,-2.55 1.35,-0.95 3,-1.3 M 27.8,375.7 q -0.9,-0.75 -1.4,-3.05 0.75,0.2 4.35,1 0.25,0.4 -0.7,4.05 -1.35,-1.1 -2.25,-2 m 4.6,7.55 q 0.85,0.3 3.25,0.85 3.55,0.95 6.05,1.2 -2.5,1.65 -4.75,0.35 -2.15,-1.15 -4.55,-2.4 M 73.15,368 q -1.2,-0.85 -0.45,-3.05 0.15,-0.5 0.4,-1.05 1.85,-3.35 3.55,-4.85 0.8,0.4 2.1,2.3 0.15,0.1 0.2,0.2 1.25,1.6 3.15,2.45 -2.1,1.55 -4.65,2.55 -2.65,0.95 -4.3,1.45 M 44.3,352.15 q 0.55,-0.2 1,-0.3 1.85,-0.45 3.1,-0.1 l 0,7.6 q -2.3,-0.8 -3.85,-2 -2.1,-1.65 -3.05,-4.05 0.25,-0.45 2.8,-1.15 m 7.4,15.3 q 2.85,-1.05 3.35,1.35 0.2,1.15 0.45,3.75 0.25,1.3 0.5,4.05 0.7,0.85 -0.75,1.35 -1.45,0.45 -4.8,2.25 -1.15,-2.8 -1.4,-7.3 -0.05,-1.05 0.05,-1.9 0.35,-2.75 2.6,-3.55 m -6.8,13.35 q 0.85,-1.9 3,-8.65 1.4,5.55 1.55,8.8 -1,0.8 -2.35,1.65 -1.35,0.9 -3.05,0.5 0,-0.4 0.85,-2.3 m 78.9,-64.5 q -0.5,-0.85 0.75,-1.25 0.9,-0.3 2.95,-0.7 0.3,-0.15 0.65,-0.2 2.65,-0.25 2.35,3.55 -0.3,5.5 -0.15,6 -0.8,-0.25 -1.45,-0.55 l -0.15,0 Q 124,321.1 123.8,316.3 m -1.65,19.35 q 0.45,0.35 2.95,0 -2.45,5.1 -7.95,8.6 l 0.1,-3.45 0.2,-5.15 q 0.95,-0.95 2.5,-0.35 0.35,0.1 2.2,0.35 m -17.2,9.3 q 1.1,0.5 3,1.1 1.75,0.55 4.35,1.3 -4.3,3.85 -9.9,5.9 0.25,-2.9 0.4,-4.4 0.05,-0.55 0.05,-0.95 0,-1.5 2.1,-2.95 m -11.4,9.9 q 1.25,1.25 2.75,1.95 -3.25,3.05 -8.75,5.4 0.85,-2.95 2.2,-6.4 0.35,-0.9 0.7,-1.8 1.25,-0.35 2.25,0.2 0.4,0.2 0.85,0.65 M -8.55,242.8 q 0.9,1.15 2.25,3 0.1,0.1 0.2,0.25 2.1,2.9 5.3,7.5 -3.8,1.85 -9.5,4.35 -3.75,1.6 -6.2,3.45 -1.35,0.9 -2.25,1.95 -1.25,-2 -1.4,-9.9 0.2,-11.65 3.3,-16.25 5.85,2.45 8.3,5.65 m -7.75,68.05 q 0.15,-0.35 0.15,-0.6 0.55,1.65 1.6,3.4 2.05,2.95 1.4,4.75 -0.45,0.9 -2.55,1.2 -2.15,0.3 -3.8,-0.05 0.85,-2.7 3.2,-8.7 m -5.5,27.6 q 0.3,-4.5 0.1,-4.95 0.45,-0.35 1.7,0.25 1.25,0.55 3.65,1.9 -0.45,1.55 -2,3.5 -1.8,2.1 -2.7,2.8 -1,-0.3 -0.75,-3.5 m -2.9,2.95 q 0.35,-0.15 0.65,-0.25 1.55,-0.2 1.3,3.45 -0.4,4.45 1.25,5.8 -1.35,0.35 -2.3,0 -0.15,-0.05 -0.25,-0.1 -1.55,-0.75 -2.05,-3.35 -0.95,-4.35 1.4,-5.55 m 7.45,16.2 q -0.2,-1.1 -1.2,-3.6 l 2.45,0 2.85,0 q 0.15,1.5 -0.7,2.85 -0.95,1.35 -1.65,3.2 -0.1,0.25 -0.15,0.4 -0.1,0.4 -0.25,0.7 -0.95,-1.85 -1.35,-3.55 m 4.6,13.45 -2.15,-5.25 q 5.35,-2.65 4.85,0.75 -0.5,3.3 -2.7,4.5 m -7.45,-4.75 q 1.6,-2.35 0.6,-5.5 -0.65,-0.15 -2.95,-0.25 l -0.05,0 q -0.05,0 -0.1,0 -4.05,-0.5 -4.5,-2.3 -0.3,-1.5 -0.4,-3.55 -0.1,-2 0.9,-5.65 0.1,0.95 1.9,2.05 0.5,0.3 1.05,0.5 1.4,0.4 3.1,0.15 2.85,10.45 8.55,24.85 -0.25,0.15 -5,0.35 l 0.5,0 q -0.225,0.006 -0.4,0.05 -3.75,0.3 -6.1,1.75 -0.6,-0.8 -1.6,-3.6 -0.9,-3.3 -1.4,-4.95 2.45,-0.4 5.1,-2.95 0.05,-0.05 0.1,-0.1 0.25,-0.25 0.5,-0.5 0.05,-0.2 0.2,-0.35 m -0.45,-4.75 q 0.25,1.7 -0.3,2.9 -0.6,1.6 -0.95,1.25 -3.05,2.1 -4.55,2.1 -1.15,-0.9 -0.75,-7.4 0.85,0.95 2.75,1.15 0.8,0.1 1.95,-0.05 1.05,0.05 1.85,0.05 m 0,33.4 q -0.25,-0.05 -0.4,0 -0.2,-0.05 -0.3,0 -1.55,0.05 -2,2.15 -0.65,2.4 -2.25,2.25 -0.25,0 -0.5,-0.05 -4.7,-4.45 1.95,-8.1 6.65,-3.65 10.9,1.6 0,-1.95 -1.45,-3.35 -1.85,-1.35 -2.75,-2.1 1,-0.7 3,-4.05 0.35,-0.6 0.75,-1.1 1.25,-1.8 2.6,-2.35 0.7,3.45 2.45,10.05 1.35,6.1 0.9,11.55 -2,0.9 -3.45,1.25 -1.8,0.35 -2.8,0 -2.05,-0.8 -1.35,-5.6 -0.1,0 -0.1,0.05 -0.25,0.1 -0.35,0.2 -0.5,0.45 -0.6,1.45 -0.05,0.8 -0.05,2.65 -0.95,0.5 -1.8,0.6 -1.7,0.2 -3.35,-0.9 -1.5,-0.65 -1.3,-2.8 0.1,-2.3 2.25,-3.4 M -20.7,384.1 q -1.8,-1.4 -1.6,-2.9 0.1,-1.55 2.95,-2.3 2.25,-0.6 4.25,-0.3 0.5,0 0.95,0.15 0.05,0.75 -0.2,1.55 -0.3,0.8 -0.9,1.65 -1.2,1.7 -3.1,4.45 -0.6,-0.85 -2.35,-2.3 m 14.25,-7.9 q -0.65,4.1 -3.1,1.2 -2.65,-3 3.1,-1.2 M 2,288.25 q 1.3,-5.45 -2,-9.4 -2.95,-3.3 -7.35,-4.1 -4.45,-0.85 -8.3,1.3 -3.3,1.75 -3.8,5.35 0,0.15 0,0.35 -0.05,0.5 -0.05,1.1 0.05,-0.2 0.15,-0.3 2.05,-5.2 5.2,-5.7 -2.95,2 -2.7,6.2 0.15,3.95 1.7,5.15 -2.95,-1.3 -3.6,-3.2 -0.3,-0.75 -0.45,-0.8 -0.15,-0.2 0,1.2 0.05,0.15 0.15,0.35 2.15,4 9.35,5.3 7.6,1.3 11.7,-2.8 m -9.35,-11.7 q 1.4,0.55 0.7,3.05 -4.7,0.5 -4.35,-3.3 2.8,-0.25 3.65,0.25 M 6.8,296.4 q 0,0.15 0.1,0.4 l 0.05,0.1 q 0.1,0.05 0.2,0.15 0.1974609,0.2207 0.4,0.45 0.7289063,0.73242 1.65,1.5 l 1,0.95 -0.9,1.95 q -1.25,1.85 -3.8,1.6 -1.95,-0.25 -2.9,-2.65 -0.35,-0.95 -0.55,-2.2 0,1 0.1,1.85 0.35,3.85 2.85,4.3 3.05,0.55 4.35,-1.3 1.3,-1.85 1.5,-2.2 0.05,-0.3 0.2,0.35 0.1,0.7 0.65,1.6 0.55,0.75 1.15,1.3 0.45,0.55 3.75,0.3 3.3,-0.3 2.7,-5.7 -0.15,1.4 -0.5,2.45 -1,2.4 -3.5,2.2 -3.55,-0.25 -3.6,-3.8 0.4,-0.1 1.5,-1.85 0.75,-1.15 1.3,-1.85 0.2,-0.3 0.45,-0.55 -0.15,-0.05 -0.2,-0.05 -0.3,-0.15 -0.6,-0.3 -1.9,-0.8 -2.75,-0.95 -1.25,-0.2 -3.1,0.6 -1.5,0.55 -1.5,1.35 m 1.25,0.35 -0.15,-0.2 q 0.55,-2.2 5.85,-0.8 l -2.85,3.65 -2.85,-2.65 z"
         id="path17559"
         inkscape:connector-curvature="0"
         style="fill:#000000;stroke:none" />
      <path
         d="m -9.55,377.4 q 2.45,2.9 3.1,-1.2 -5.75,-1.8 -3.1,1.2 m -3.6,-23.4 -2.85,0 0.35,6.45 q 0.05,-0.15 0.15,-0.4 0.7,-1.85 1.65,-3.2 0.85,-1.35 0.7,-2.85 m -11.25,-7.7 0.35,-5.15 q -0.3,0.1 -0.65,0.25 -2.35,1.2 -1.4,5.55 0.5,2.6 2.05,3.35 -0.3,-0.65 -0.35,-4 M 90.45,354 q -0.35,0.9 -0.7,1.8 l 2.95,-1.6 q -1,-0.55 -2.25,-0.2 m 17.5,-7.95 q -1.9,-0.6 -3,-1.1 -2.1,1.45 -2.1,2.95 0,0.4 -0.05,0.95 l 5.15,-2.8 m 9.5,-10.4 -0.2,5.15 q 3.55,-2.4 4.9,-5.15 -1.85,-0.25 -2.2,-0.35 -1.55,-0.6 -2.5,0.35 m 7.1,-20.6 q -1.25,0.4 -0.75,1.25 0.2,4.8 4.95,6.85 0.3,-3.55 -1.25,-8.8 -2.05,0.4 -2.95,0.7 m -79.25,36.8 q 0.25,2.5 -0.75,5.5 1.55,1.2 3.85,2 l 0,-7.6 q -1.25,-0.35 -3.1,0.1 m 27.4,13.1 6.25,-3.4 q -0.05,-0.1 -0.2,-0.2 -1.3,-1.9 -2.1,-2.3 -1.7,1.5 -3.55,4.85 -0.25,0.55 -0.4,1.05 M 39.45,332.6 q 0.1,0 0.25,0 l -0.55,-4.7 q -0.15,0.1 -0.2,0.2 -0.1,0.25 -0.3,0.45 -1.5,1.9 -1.05,2.75 0.85,1.05 1.85,1.3 m 0.6,10.95 -0.2,-5.7 q -4.1,2.85 0.2,5.7 M 5.4,256.95 q 0.7,3.25 3,1.4 -0.4,-3.2 0.65,-4.85 -2.5,-0.05 -5.1,0.1 1,1.2 1.45,3.35 m 18.8,-1.05 q -0.1,0.95 -0.5,2.2 -1.05,2.95 -0.05,3.35 0.95,0.3 2.8,-1.5 1.25,-1.35 2,-2.45 -2.1,-0.95 -4.25,-1.6 m 92.3,42.3 q -1.1,2.15 -1.25,4 0.2,1.05 4.45,1.1 2.7,0.05 4.9,-1.65 -1.95,-3.55 -6.75,-6.05 -0.65,1.5 -1.35,2.6 m -19.15,-8.05 q 1.8,1.25 2.75,2.05 1.7,1.45 1.55,2.25 1.95,-1.15 3,-4.5 -4.55,-0.8 -7.7,-0.1 0.2,0.1 0.4,0.3 m -15.15,9.5 q 3.95,2.35 6.15,2.55 -0.4,-4 -2.9,-7.2 -2.65,0.9 -5.25,3.7 1.1,0.4 2,0.95 z"
         id="path17561"
         inkscape:connector-curvature="0"
         style="fill:#c47235;stroke:none" />
      <path
         d="m -22.3,381.2 q -0.2,1.5 1.6,2.9 1.75,1.45 2.35,2.3 1.9,-2.75 3.1,-4.45 0.6,-0.85 0.9,-1.65 0.25,-0.8 0.2,-1.55 -0.45,-0.15 -0.95,-0.15 -2,-0.3 -4.25,0.3 -2.85,0.75 -2.95,2.3 m 7.5,-15.4 2.15,5.25 q 2.2,-1.2 2.7,-4.5 0.5,-3.4 -4.85,-0.75 m 50.45,18.3 q -2.4,-0.55 -3.25,-0.85 2.4,1.25 4.55,2.4 2.25,1.3 4.75,-0.35 -2.5,-0.25 -6.05,-1.2 z"
         id="path17563"
         inkscape:connector-curvature="0"
         style="fill:#63391b;stroke:none" />
      <path
         d="m -17.9,398.7 q -1.1,2.9 -0.25,3.35 0.85,-0.1 1.8,-0.6 0,-1.85 0.05,-2.65 0.1,-1 0.6,-1.45 -1.1,-1 -2.2,1.35 m 6.9,-18.85 q -1.35,0.55 -2.6,2.35 l 2.95,7.25 q 1.7,8.5 -0.45,13.25 1.45,-0.35 3.45,-1.25 Q -7.2,396 -8.55,389.9 -10.3,383.3 -11,379.85 m -10.25,15.1 q -0.4,-1.45 -2.55,-0.35 -2.55,2.65 -1.7,4.75 1.6,0.15 2.25,-2.25 0.45,-2.1 2,-2.15 m 1.75,-34.15 q 1,3.15 -0.6,5.5 -0.15,0.15 -0.2,0.35 -0.25,0.25 -0.5,0.5 -0.65,1.9 3.8,9.8 4.75,-0.2 5,-0.35 -5.7,-14.4 -8.55,-24.85 -1.7,0.25 -3.1,-0.15 0.1,8.45 1.05,8.95 0.05,0 0.1,0 l 0.05,0 q 2.3,0.1 2.95,0.25 m 67.4,11.35 q -2.15,6.75 -3,8.65 -0.85,1.9 -0.85,2.3 1.7,0.4 3.05,-0.5 1.35,-0.85 2.35,-1.65 -0.15,-3.25 -1.55,-8.8 m -2.35,22.1 q -1.95,-1.5 -2.45,-1.15 0.5,1.15 1.6,2.95 0.8,1.85 0.45,4.35 5,0 5.8,-3.4 0.05,-0.2 0.05,-0.4 -1.15,2.6 -3.95,2.15 0.35,-2.25 -1.5,-4.5 m -5.75,-34.7 q -0.35,0.8 -0.85,1.65 -1.95,3.5 -5.45,11.1 -1.4,1.9 -3.05,7.75 l 0.05,-0.55 q -3.35,11.15 -1.45,19.8 6.45,1.4 10.7,1.95 -7.9,-2.85 -7.8,-6.15 L 31.7,382.75 q -0.1,-0.1 -0.2,-0.25 0.1,0 0.2,0 3.95,-5.5 5.05,-9.55 -1.05,-1.35 -1.3,-2.75 0,-0.1 0.05,-0.15 -0.183398,0.10996 -0.35,0.25 0.243555,-0.24355 0.45,-0.45 0.1,-0.25 0.3,-0.3 1.6,-1.6 3.3,-2.3 0.3,-0.1 0.65,-0.15 2,-1.6 4.45,-8.35 l -0.1,0 q -2.85,-2.25 -3.4,-2.65 -0.25,1.6 -1,3.45 m -9.6,22.05 q 0,0.15 0,0.2 -0.03672,0.0367 -0.05,0.05 l 0.15,-1.05 q 0,-0.05 0.15,-0.1 -0.2,0.5 -0.25,0.9 m -45.7,-44.15 q -0.65,1.6 -2.45,2.85 -2.85,2.05 -2.95,3.7 -0.15,1.6 0.65,4.95 0.75,3.45 1.85,3.9 1.35,-0.15 2.45,-0.15 -0.3,-7.8 0.45,-15.25 m 3.15,-17.6 q -1,0.65 -3.95,0.75 -3.55,0 -4.25,0.95 -0.15,1.8 -1.25,5.2 -1.25,3.5 0.1,4.55 0.8,0.8 3.3,2.1 2.25,1.1 3.05,2.2 0.95,-8.1 3,-15.75 m 12.75,78.3 q 0.75,-1.05 1.55,-1.95 -2.25,-0.8 -3.05,1.85 l 0,2.85 q 0.8,0.05 1.8,0.05 -1.1,-1.65 -0.3,-2.8 m 39.7,-47.6 q 1.1,-0.25 1.75,-0.9 1,-3.5 -1.75,-5.3 0.1,3.05 0,6.2 m -17.95,44.3 q -1.35,-1.65 -1.8,-0.95 0.95,0.9 1.1,3.2 0.1,1.3 0,4.35 0.9,0.15 1.5,0 l -0.8,-6.6 m -9.4,-23.6 q -2.55,13.1 -0.25,20.55 1.75,5.75 4.8,7.55 -3.85,-9.95 -1.25,-19.95 l 4.85,-13.55 q -0.7,0.3 -1.5,0.7 -4.75,2.25 -6.65,4.7 M 3.6,367.75 Q 2.25,366.9 1.05,364.9 l 5.2,22.85 q 1.5,8.8 -1.6,12.1 3.95,-2.15 3.8,-12 Q 8.15,375.15 6.9,370.25 5.55,369 3.6,367.75 M 0.15,363 q 4.5,6.3 11.6,4.5 7.15,-1.75 14.8,-4.75 -12.8,3.4 -18.85,2.95 Q 2.6,365.15 0.15,363 M 39.8,333.55 q -0.2,0 -0.25,0 0.15,1.6 0.25,3.35 2.05,-1.35 2.05,-3.4 -1.2,0.05 -2.05,0.05 m -2,-14.15 q -0.15,0 -0.2,0 0,0.25 0.05,0.5 0.65,3.2 1.1,6.55 2,-3.05 2.05,-5.85 -0.75,-1.35 -3,-1.2 m -1.95,-17.2 q -1.3,0.2 -2.85,0.6 -3.65,1 -8.55,3.1 -6.9,3 -11.5,3.65 -4.65,0.55 -14,-3.2 -3.25,-1.25 -5.65,-2.1 -4.7,-1.75 -6.45,-2.05 -0.7,2.35 -2,5.85 1.1,2.9 2.6,6.1 0.85,1.85 0.7,4 1.75,-6 4.2,-11.7 14.7,8.5 20,7.75 5.6,-0.3 21.8,-7.95 0.8,2.5 1.55,5.15 1.4,-4.95 0.15,-9.2 m 9.35,34.45 q -0.05,-0.25 -0.2,-0.5 -0.4,8.4 -2.3,12.5 -1.65,3.35 2.75,2.45 0.05,0 0.2,0 0.4,-0.55 0.55,-5.15 l -1,-9.3 m -74.05,-45.15 0.9,-1.25 q -1.15,0.4 -5.35,-1.35 5.3,2.35 1.3,2.45 6.85,3 9.5,2.5 3.8,3.35 8.15,5.35 4.35,2.05 9.35,3.8 2.6,0.9 4.6,1.7 -3,-1.5 -7.1,-4.1 -10.7,-3.9 -13.85,-8.2 l -0.3,0 q -4.2,1.3 -7.2,-0.9 m 10.9,-24.4 q 3.35,-5.95 8.8,-8.8 -2.45,1.1 -4.7,2.35 -6.95,4.1 -12,15.4 -4.960938,10.81484 -9.1,10.35 0.428906,0.0609 0.8,0.2 3.85,-0.3 4.75,-1.9 l 11.45,-17.6 m 65.5,26.55 q 3.4,-0.25 4.7,-0.8 -3.35,0.95 -6.2,-0.3 -1.45,3.05 -5.2,5.05 -4.3,1.9 -12.4,3.2 L 21,305.4 q 2.95,-1.4 6.9,-3.2 4.6,-1.3 11.7,-3.05 5.1,-1.65 7.95,-5.5 m 7.95,-4.75 q 3.1,-2.7 -0.55,-3.65 -3.85,-1.05 -8.15,-11 -3.95,-9 -10.05,-15.85 7,8.15 12.85,24.7 0.85,2.7 5.65,3.6 1.05,1.85 -6.2,4.8 3.55,-0.2 6.45,-2.6 M 13.15,253.7 q -0.25,-0.65 -0.4,-1.1 -1.8,-0.4 -2.55,0.9 1.5,0.05 2.95,0.2 m 7.75,1.25 q 0.9,0.25 1.9,0.5 -0.1,-0.85 -0.25,-1.7 -0.9,0.25 -1.65,1.2 M 9.2,299 q -0.9210937,-0.76758 -1.65,-1.5 1.9080078,2.09336 1.5,3 0.05,0.85 -1.3,1.85 -1.25,1.1 -3.15,0.35 l -2,-1.85 q 0.95,2.4 2.9,2.65 2.55,0.25 3.8,-1.6 l 0.9,-1.95 -1,-0.95 m 4,-0.85 q -1.1,1.75 -1.5,1.85 0.05,3.55 3.6,3.8 2.5,0.2 3.5,-2.2 -0.7,1.35 -2.45,1.65 -1.35,0.1 -2.45,-0.6 -1.7,-1.05 -1.3,-2.35 l 1.9,-4 q -0.55,0.7 -1.3,1.85 m 80.9,55.35 q 0.95,0.65 2.15,1.6 2.35,1.4 4.95,-1.1 0.2,-2.65 0.6,-4.6 l -7.7,4.1 m 15.9,-7.85 0.1,0 q 2.7,1.3 5.15,-0.25 0.75,-0.9 0.7,-3.6 -3.3,3.05 -5.95,3.85 m 19.25,-18.7 q -0.2,-0.4 -1.7,-1.75 -1.55,6.15 -4.4,9.35 1.4,0.45 2.8,0 0.35,-0.75 1.95,-3.5 1.1,-2.05 1.35,-4.1 M 126.4,300.5 q -0.55,1.1 -1.35,1.9 -0.1,0.05 -0.15,0.1 2.05,5.2 2.25,10.45 3.1,-0.95 3.2,-1 -0.9,-7.15 -3.95,-11.45 M 80.05,361 q 0.05,0.1 0.15,0.15 1.9,2.55 5.95,1.45 0.75,-0.5 1.75,-5.15 0.05,-0.4 0.2,-0.8 L 80.05,361 m -10.75,9.05 q 1.2,-1.05 1.5,-3.1 0.15,-0.6 0.25,-1.15 -10.4,7 -11.95,6.9 -1.95,0.35 -2.45,-0.05 0.35,2.4 0.95,4.1 2.75,-1.95 4.9,-2.8 2.1,-0.8 5,-2.7 0.45,-0.45 0.9,-0.65 0.35,-0.2 0.7,-0.4 0.1,-0.1 0.25,-0.15 l -0.05,0 M 79.8,299.7 q -3.4,-1.05 -6.65,0.3 -3.4,12.45 5.6,16.95 8.55,4.25 17.05,-1.75 0,-0.15 0.05,-0.3 -6.3,2.95 -10.5,0.8 -4.3,-2.2 -5.6,-5.95 -1.3,-4.25 0.05,-10.05 m 26.6,-12.75 q -0.2,1.8 -0.65,3.25 0.35,-0.55 9.05,3.2 2,0.9 2,1.5 0.5,-1.25 0.9,-2.85 -7.05,-4.8 -11.3,-5.1 m -22.8,3.35 q 1.95,1.75 3.4,3.55 -0.1,-0.55 4.6,-3.15 3.2,-1.3 4.2,-0.75 -1.45,-1.1 -3,-1.75 -4.4,-2.05 -9.2,2.1 z"
         id="path17565"
         inkscape:connector-curvature="0"
         style="fill:#ce8046;stroke:none" />
      <path
         d="m -20.95,394.95 q 0.15,-0.05 0.4,0 -2.15,1.1 -2.25,3.4 -0.2,2.15 1.3,2.8 1.65,1.1 3.35,0.9 -0.85,-0.45 0.25,-3.35 1.1,-2.35 2.2,-1.35 0.1,-0.1 0.35,-0.2 0,-0.05 0.1,-0.05 -0.7,4.8 1.35,5.6 1,0.35 2.8,0 2.15,-4.75 0.45,-13.25 l -2.95,-7.25 q -0.4,0.5 -0.75,1.1 -2,3.35 -3,4.05 0.9,0.75 2.75,2.1 1.45,1.4 1.45,3.35 -4.25,-5.25 -10.9,-1.6 -6.65,3.65 -1.95,8.1 0.25,0.05 0.5,0.05 -0.85,-2.1 1.7,-4.75 2.15,-1.1 2.55,0.35 0.1,-0.05 0.3,0 m 0.15,-27.8 q -0.05,0.05 -0.1,0.1 -2.65,2.55 -5.1,2.95 0.5,1.65 1.4,4.95 1,2.8 1.6,3.6 2.35,-1.45 6.1,-1.75 0.175,-0.0437 0.4,-0.05 l -0.5,0 q -4.45,-7.9 -3.8,-9.8 m -2.85,-15.55 q -0.55,-0.2 -1.05,-0.5 -1.8,-1.1 -1.9,-2.05 -1,3.65 -0.9,5.65 0.1,2.05 0.4,3.55 0.45,1.8 4.5,2.3 -0.95,-0.5 -1.05,-8.95 m 72.05,9.95 q -1.6,-0.9 -3.85,-2.55 -0.15,-0.1 -0.25,-0.25 -2.45,6.75 -4.45,8.35 1.45,-0.45 2.9,-0.2 4.05,0.45 4.9,1.1 0.45,-4.15 0.75,-6.45 M 36.7,386.4 q -1.35,-0.65 -5,-3.65 l 0.25,12.35 q -0.1,3.3 7.8,6.15 1.1,0.15 2.1,0.2 1.75,-1.05 0.9,-4.7 -0.9,-3.55 0.25,-3.95 0.05,0.15 0.1,0.3 0.5,-0.35 2.45,1.15 1.85,2.25 1.5,4.5 2.8,0.45 3.95,-2.15 0.55,-3.3 -2.6,-6.4 -3.3,-3.4 -6.75,-3.35 -3.55,0.2 -4.95,-0.45 m 2.75,-10.9 q -0.55,-0.45 -1,-0.8 -1.05,-0.85 -1.7,-1.75 -1.1,4.05 -5.05,9.55 1.6,-0.15 3.75,0.6 3.25,1 6.5,1.2 0.85,-1.85 1.85,-4.65 1.05,-2.9 0.05,-2.2 -0.9,0.65 -4.4,-1.95 m -4,-63.35 q 0.15,-0.4 0.25,-0.75 -0.75,-2.65 -1.55,-5.15 -16.2,7.65 -21.8,7.95 -5.3,0.75 -20,-7.75 -2.45,5.7 -4.2,11.7 -0.05,0.65 -0.15,1.4 -0.15,0.2 -0.35,0.3 -2.05,7.65 -3,15.75 0.1,0 0.1,0.05 0.05,0.95 -0.25,1.8 -0.75,7.45 -0.45,15.25 1.95,0 3.2,0.5 1.75,0.7 0.9,2 -0.4,1.3 -2,3.85 -1.15,1.8 -1.35,3.55 -0.05,0.55 -0.05,1.1 0.05,0.2 0.25,0.4 0.75,0.95 3.05,-0.1 2.5,-0.9 3.15,0.75 0,0.5 -1.75,5.5 -1.15,3.45 -0.75,4.15 1.25,-0.25 3.55,0.4 2.35,0.6 2.15,1.8 -2.45,3.6 -1.15,10.25 0.6,3.8 2,13.2 0.45,-3 2.45,-4 -1,1.3 -1.15,3.15 -0.1,1.35 2.35,1.7 l 0,-2.85 q 0.8,-2.65 3.05,-1.85 0,-0.05 0.05,-0.15 0.5,0.95 -0.1,2.45 -0.75,1.55 0.1,1.9 1.5,0 2.65,-0.55 3.1,-3.3 1.6,-12.1 L 1.05,364.9 q -0.65,-1.05 -1.2,-2.3 0.15,0.2 0.3,0.4 2.45,2.15 7.55,2.7 6.05,0.45 18.85,-2.95 0.15,-0.1 0.35,-0.15 -1.45,1.1 -6,3.25 l -4.85,13.55 q -2.6,10 1.25,19.95 0.8,0.55 1.75,0.75 0,-1.6 0,-3.5 0,-3.1 1.3,-2.7 0.45,-0.7 1.8,0.95 l 0.8,6.6 q 1.55,-0.3 1.15,-1.9 -0.75,-2.8 0.6,-3.5 1.45,-0.35 1,2.2 -0.35,2.45 1.2,2.15 -0.75,-13.1 2.15,-20.55 -4.6,-7.9 -3.35,-7.5 -0.1,-0.6 2.55,0.05 2.75,0.75 4,-0.05 1.15,-3.05 -0.3,-5.35 -1.95,-2.8 -1.9,-5.45 0.4,-0.6 2.6,-0.1 2.2,0.5 3.9,0.1 0.85,-1 -1.2,-5.25 -2.2,-4.1 -1,-5.4 2.2,-0.25 4.35,-0.25 0.8,0 1.4,-0.1 0.1,-3.15 0,-6.2 -0.05,-0.05 -0.1,-0.05 -0.05,-0.05 -0.15,-0.05 -3.4,-1.9 -3.3,-4.25 0.4,-1.3 2.95,-3 0.1,-0.05 0.25,-0.1 l 0.05,0 q -0.1,-1.75 -0.25,-3.35 -0.8,-0.05 -1.35,-0.15 -1.5,-0.5 -1.8,-1.85 -0.35,-1.35 2,-4.6 0.2,-0.25 0.35,-0.5 -0.45,-3.35 -1.1,-6.55 -0.05,-0.25 -0.05,-0.5 -0.25,0 -0.5,0.1 -3,0.3 -3.15,-0.7 -0.25,-1.05 1.5,-6.65 m 9.75,24.5 1,9.3 q -0.15,4.6 -0.55,5.15 0.85,-0.25 1.95,-0.6 1.35,0.25 0.7,-3.95 -0.65,-4.05 -3.1,-9.9 M 36.75,258.4 q -0.45,-0.5 -0.85,-0.9 -0.15,-0.2 -0.25,-0.3 -0.4,-0.1 -0.75,-0.65 l 0.05,0 -2,-0.65 q -2.35,0.35 -3.8,1.85 -0.55,0.55 -1,1.15 -3,4.35 -4.75,3.6 -1.25,-1.6 -0.8,-4.1 0.25,-1.55 0.2,-2.95 -1,-0.25 -1.9,-0.5 -1.05,1.25 -2.1,3.7 -1.7,3.75 -3.3,3.05 -1.6,-0.65 -1.8,-4.05 -0.15,-2.45 -0.55,-3.95 -1.45,-0.15 -2.95,-0.2 -0.6,1 -0.6,2.95 -0.05,4.85 -3.8,3.05 -1.75,-2.9 -3.25,-5.75 -0.15,-0.3 -0.35,-0.6 -0.15,0 -0.2,0.1 -0.05,-0.05 -0.05,-0.1 L 0.4,253.8 q 0.1,0 0.1,0.05 -0.2,0.1 -0.35,0.2 -0.25,0.05 -0.45,0.2 -0.1,0.05 -0.15,0.05 -2.4,1.1 -5.7,2.55 -0.4,0.2 -0.8,0.4 -1.1,0.5 -2.2,1.05 -5.45,2.85 -8.8,8.8 l -11.45,17.6 q -0.9,1.6 -4.75,1.9 4.2,0.7 3.45,1.15 -1.55,1 -4.1,0.5 0.15,0.05 0.4,0.15 0.4,0.2 0.75,0.35 l 0.35,0.15 q 4.2,1.75 5.35,1.35 l -0.9,1.25 q 3,2.2 7.2,0.9 l 0.3,0 q 3.15,4.3 13.85,8.2 4.1,2.6 7.1,4.1 1.8,0.75 3.15,1.45 1.2,0.6 2.75,1.1 0.25,0.1 0.6,0.15 1.55,0.45 3.45,0.75 3.9,0.65 7.75,-1.1 1.6,-0.75 3.7,-1.65 l 7.45,-4.6 q 8.1,-1.3 12.4,-3.2 3.75,-2 5.2,-5.05 2.85,1.25 6.2,0.3 0.1,-0.15 0.25,-0.2 0.95,-0.6 -4.1,-1.15 0.3,0 0.65,0 7.25,-2.95 6.2,-4.8 -4.8,-0.9 -5.65,-3.6 -5.85,-16.55 -12.85,-24.7 M 24.45,272 q 0,-0.3 1.95,-0.65 1.9,-0.4 5.8,0.4 3.95,0.75 6.95,1.5 2.95,0.7 4.35,2.6 2.9,4 3.9,8.45 0.7,3.2 -2.5,4.35 -2.75,1 -4.8,3.1 -1.15,1.2 -2.75,1.45 -4.4,0.65 -9,0.75 -3.6,0.05 -6.3,-2.2 -0.6,-0.55 -1.55,-0.9 -3,-0.95 -2.85,-4.4 0.15,-4.15 1.1,-7.85 0.7,-2.8 2.55,-4.9 0.3,-0.35 0.3,-1 0.05,0 0.15,-0.1 0.35,-0.3 1.5,-0.3 1.1,-0.05 1.2,-0.3 M 6.9,296.8 q -0.1,-0.25 -0.1,-0.4 0,-0.8 1.5,-1.35 1.85,-0.8 3.1,-0.6 0.85,0.15 2.75,0.95 0.3,0.15 0.6,0.3 0.05,0 0.2,0.05 -0.25,0.25 -0.45,0.55 l -1.9,4 q -0.4,1.3 1.3,2.35 1.1,0.7 2.45,0.6 1.75,-0.3 2.45,-1.65 0.35,-1.05 0.5,-2.45 0.6,5.4 -2.7,5.7 -3.3,0.25 -3.75,-0.3 -0.6,-0.55 -1.15,-1.3 -0.55,-0.9 -0.65,-1.6 -0.15,-0.65 -0.2,-0.35 -0.2,0.35 -1.5,2.2 -1.3,1.85 -4.35,1.3 -2.5,-0.45 -2.85,-4.3 -0.1,-0.85 -0.1,-1.85 0.2,1.25 0.55,2.2 l 2,1.85 q 1.9,0.75 3.15,-0.35 1.35,-1 1.3,-1.85 0.4080078,-0.90664 -1.5,-3 -0.2025391,-0.2293 -0.4,-0.45 -0.1,-0.1 -0.2,-0.15 L 6.9,296.8 M 0,278.85 q 3.3,3.95 2,9.4 -4.1,4.1 -11.7,2.8 -7.2,-1.3 -9.35,-5.3 -0.1,-0.2 -0.15,-0.35 -0.15,-1.4 0,-1.2 l -0.15,-1.65 q -0.1,0.1 -0.15,0.3 0,-0.6 0.05,-1.1 0,-0.2 0,-0.35 0.5,-3.6 3.8,-5.35 3.85,-2.15 8.3,-1.3 4.4,0.8 7.35,4.1 m 95.8,11.1 q -1,-0.55 -4.2,0.75 -4.7,2.6 -4.6,3.15 1.25,1.7 2.05,3.5 1.9,4.45 0.4,7 -3.9,-2.2 -8.1,-4.1 -0.8,-0.35 -1.55,-0.55 -1.35,5.8 -0.05,10.05 1.3,3.75 5.6,5.95 4.2,2.15 10.5,-0.8 -0.05,-1.9 -1.75,-10.1 -1.3,-5.8 2.75,-8 12,1.8 17.7,8.4 6.15,7.2 4.95,20.7 -6.6,10.2 -18.85,18.35 -8.3,5.6 -16.55,9.3 -8.25,3.65 -13.85,5.35 -5.65,1.65 -10.2,4.8 -1.5,0.3 -4.05,2.55 l 0.3,4.4 q 0.1,0.65 0.25,1.35 0,0.3 0.1,0.65 0.5,0.4 2.45,0.05 1.55,0.1 11.95,-6.9 1.15,-5.15 5.05,-7.55 1.45,-0.35 3.95,2.75 l 8.05,-4.35 q 0.95,-3.95 3.35,-4.9 1.1,0.65 2.65,1.75 l 7.7,-4.1 q 0,-0.15 0,-0.25 0.6,-4 2.65,-4.85 2,-0.25 5.55,1.35 2.65,-0.8 5.95,-3.85 -0.05,-1.45 -0.3,-3.2 -0.65,-4.4 2.75,-5.1 1.39355,-0.13926 4.2,0.9 l 0.05,0.05 q 0.24004,0.0676 0.5,0.1 2.85,-3.2 4.4,-9.35 -1.05,-0.95 -2.7,-2.35 -2.75,-2.45 -2.1,-6.55 0.3,-2.1 3.1,-3 0.7,-0.2 1.3,-0.35 -0.2,-5.25 -2.25,-10.45 -1.75,1.65 -4.9,1.85 -4.75,0.35 -5.8,-2.15 -0.3,-2.1 1.05,-4.2 0.85,-1.2 1.5,-2.85 0,-0.1 0.05,-0.25 0,-0.6 -2,-1.5 -8.7,-3.75 -9.05,-3.2 -1.3,3.9 -4.55,5.55 -2.5,-3.55 -5.2,-5.6 -0.15,-0.05 -0.2,-0.2 z"
         id="path17567"
         inkscape:connector-curvature="0"
         style="fill:#efad6b;stroke:none" />
      <path
         d="m -22.4,361.5 q -1.15,0.15 -1.95,0.05 -1.9,-0.2 -2.75,-1.15 -0.4,6.5 0.75,7.4 1.5,0 4.55,-2.1 -0.45,-0.5 -0.6,-4.2 m 61,12.15 q 0.25,0.3 0.55,0.55 2.85,2.7 6,2.4 0.1,-1.5 1.1,-3.75 0.9,-2.2 1.05,-3.75 -4.65,-1.6 -8.05,-0.9 -1.45,4.3 -1.9,4.1 0.5,0.65 1.25,1.35 m -3.15,-21.9 q -0.3,1.45 0.25,2.8 0.6,1.25 2.15,5.05 1.1,-1.95 1.75,-4.15 0.25,-0.85 0.45,-1.45 0.55,-2.1 0.75,-2.25 l -5.35,0 m 1.1,-37.1 q -0.1,0.3 -0.25,0.55 -0.7,1.6 -1.25,3.2 1.4,0.35 2.35,0.3 0.1,-0.1 0.2,-0.1 l -1,-4.3 q -0.05,0.15 -0.05,0.35 M 19.85,254.7 q -2.7,-0.6 -5.45,-0.9 0,1.05 0.05,2.8 0,3.35 2.1,3.9 0,0.4 1.45,-2.15 1,-1.85 1.85,-3.65 z"
         id="path17569"
         inkscape:connector-curvature="0"
         style="fill:#e98d32;stroke:none" />
      <path
         d="m -20.85,364.45 q 0.55,-1.2 0.3,-2.9 -0.8,0 -1.85,-0.05 0.15,3.7 0.6,4.2 0.35,0.35 0.95,-1.25 M -21.7,333.5 q 0.2,0.45 -0.1,4.95 -0.25,3.2 0.75,3.5 0.9,-0.7 2.7,-2.8 1.55,-1.95 2,-3.5 -2.4,-1.35 -3.65,-1.9 -1.25,-0.6 -1.7,-0.25 m 60.95,34.7 q -0.05,0 -0.1,0.05 -1.65,0.35 -3,1.3 0,1.15 1,2.55 0.1,0.15 0.2,0.2 0.45,0.2 1.9,-4.1 M 37.6,318.6 q 2,-0.3 2,-2.65 0,-3.8 -1.95,-8.15 -0.55,4.45 -1.05,6.5 l 1,4.3 M 14.4,253.8 q 2.75,0.3 5.45,0.9 0.35,-0.7 0.7,-1.45 -3.6,-1.7 -6.3,-0.8 0.05,0.4 0.15,1.35 z"
         id="path17571"
         inkscape:connector-curvature="0"
         style="fill:#c86f15;stroke:none" />
      <path
         d="m -18.45,354 q 1,2.5 1.2,3.6 0.4,1.7 1.35,3.55 0.15,-0.3 0.25,-0.7 L -16,354 l -2.45,0 m -5.6,-12.85 -0.35,5.15 q 0.05,3.35 0.35,4 0.1,0.05 0.25,0.1 0.95,0.35 2.3,0 -1.65,-1.35 -1.25,-5.8 0.25,-3.65 -1.3,-3.45 M 96.3,356.8 q -1.5,-0.7 -2.75,-1.95 -0.45,-0.45 -0.85,-0.65 l -2.95,1.6 q -1.35,3.45 -2.2,6.4 5.5,-2.35 8.75,-5.4 m 6.5,-7.95 q -0.15,1.5 -0.4,4.4 5.6,-2.05 9.9,-5.9 -2.6,-0.75 -4.35,-1.3 l -5.15,2.8 m 22.3,-13.2 q -2.5,0.35 -2.95,0 -1.35,2.75 -4.9,5.15 l -0.1,3.45 q 5.5,-3.5 7.95,-8.6 m 3.05,-21.5 q -0.35,0.05 -0.65,0.2 1.55,5.25 1.25,8.8 l 0.15,0 q 0.65,0.3 1.45,0.55 -0.15,-0.5 0.15,-6 0.3,-3.8 -2.35,-3.55 m -82.85,37.7 q -0.45,0.1 -1,0.3 -2.55,0.7 -2.8,1.15 0.95,2.4 3.05,4.05 1,-3 0.75,-5.5 m 27.4,13.1 q -0.75,2.2 0.45,3.05 1.65,-0.5 4.3,-1.45 2.55,-1 4.65,-2.55 -1.9,-0.85 -3.15,-2.45 l -6.25,3.4 M 43,332.6 q 0.8,-1.55 0.2,-4.65 -0.7,-3.25 -1.5,-4.85 -1.3,2.75 -2.4,4.55 -0.1,0.1 -0.15,0.25 l 0.55,4.7 q 0.05,0 0.15,0 1.1,-0.05 3.15,0 m -0.5,12.25 q 0.45,-2.05 0.7,-5.6 0.15,-2.45 -1.35,-2.55 -1.2,0.55 -2,1.15 l 0.2,5.7 q 1,0.6 2.45,1.3 M 3,252.75 q 0.55,0.4 0.95,0.85 2.6,-0.15 5.1,-0.1 0.45,-0.8 1.1,-1.25 Q 6.6,251.4 3,252.75 m 25.45,4.75 q 0.35,-0.65 0.6,-1.1 -0.9,-1.9 -5.5,-2.9 0.7,0.9 0.65,2.4 2.15,0.65 4.25,1.6 m 90.1,35.4 q -0.2,1.55 -0.7,2.7 4.8,2.5 6.75,6.05 0.6,-0.55 1.3,-1.75 -1.55,-1.7 -2.9,-3.1 -0.9,-1.4 -4.45,-3.9 m -25.4,-5.65 q 2.25,1.5 3.8,2.6 3.15,-0.7 7.7,0.1 0.4,-1.45 0.65,-3.3 -9.85,-1.4 -12.15,0.6 m -7.7,7.75 q -1.45,-1.9 -3.6,-3.5 -0.3,-0.8 -3.4,1.6 -3.1,2.3 -5.05,5.05 3.9,-0.4 6.8,0.55 2.6,-2.8 5.25,-3.7 z"
         id="path17573"
         inkscape:connector-curvature="0"
         style="fill:#a35f2c;stroke:none" />
      <path
         d="m -16.15,310.25 q 0,0.25 -0.15,0.6 -2.35,6 -3.2,8.7 1.65,0.35 3.8,0.05 2.1,-0.3 2.55,-1.2 0.65,-1.8 -1.4,-4.75 -1.05,-1.75 -1.6,-3.4 m 71.4,67.7 q 1.45,-0.5 0.75,-1.35 -0.25,-2.75 -0.5,-4.05 -2.4,0.85 -6.4,-1.55 -0.1,0.85 -0.05,1.9 0.25,4.5 1.4,7.3 3.35,-1.8 4.8,-2.25 z"
         id="path17575"
         inkscape:connector-curvature="0"
         style="fill:#201209;stroke:none" />
      <path
         d="m -6.3,245.8 q -2.8,-3.65 -9.15,-5.95 -2.6,-0.25 -1.05,21.5 2.45,-1.85 6.2,-3.45 5.7,-2.5 9.5,-4.35 -3.2,-4.6 -5.3,-7.5 -0.1,-0.15 -0.2,-0.25 m 47.2,16.1 q 4.4,5.75 5.2,7.55 2.35,-6.6 4.1,-12.85 2.1,-14.05 -0.6,-11.75 -10.4,7 -8.7,17.05 z"
         id="path17577"
         inkscape:connector-curvature="0"
         style="fill:#fdc1b0;stroke:none" />
      <path
         d="m -6.3,245.8 q -1.35,-1.85 -2.25,-3 -2.45,-3.2 -8.3,-5.65 -3.1,4.6 -3.3,16.25 0.15,7.9 1.4,9.9 0.9,-1.05 2.25,-1.95 -1.55,-21.75 1.05,-21.5 6.35,2.3 9.15,5.95 m 60.1,-4.7 q -6.65,2.3 -8.9,4.05 -2.45,2 -5.65,5.9 -3.2,3.85 -2.7,6 1.3,0.6 4.25,4.65 0.05,0.05 0.1,0.2 -1.7,-10.05 8.7,-17.05 2.7,-2.3 0.6,11.75 2.3,-7.95 3.6,-15.5 z"
         id="path17579"
         inkscape:connector-curvature="0"
         style="fill:#fb9375;stroke:none" />
      <path
         d="m 55.05,368.8 q -0.5,-2.4 -3.35,-1.35 -2.25,0.8 -2.6,3.55 4,2.4 6.4,1.55 -0.25,-2.6 -0.45,-3.75 m -28.65,3.85 q 0.5,2.3 1.4,3.05 0.9,0.9 2.25,2 0.95,-3.65 0.7,-4.05 -3.6,-0.8 -4.35,-1 m 7.45,-9.9 Q 33,362.6 31.3,362.1 q -0.75,2.4 2.5,6.45 l 2.65,-5.45 q -1.65,-0.2 -2.6,-0.35 z"
         id="path17581"
         inkscape:connector-curvature="0"
         style="fill:#321d0e;stroke:none" />
      <path
         d="m 30.2,381.8 q 0,-0.05 0,-0.2 0.05,-0.4 0.25,-0.9 -0.15,0.05 -0.15,0.1 l -0.15,1.05 q 0.01328,-0.0133 0.05,-0.05 z"
         id="path17583"
         inkscape:connector-curvature="0"
         style="fill:#373535;stroke:none" />
      <path
         d="m -24.2,248.8 q -0.1,21.25 3.3,16.65 -2.1,-7.35 -1.95,-14.7 0.3,-10.3 3,-19.85 -3.2,5.85 -4.35,17.9 m 81.4,-3.9 q 0.2,-1.4 0.05,-2.45 -3.9,16.55 -8.15,28.8 -1.15,1.35 -2.3,-1.2 l -0.2,0.25 q 0.25,0.05 1.55,2.85 1.3,2.85 2.5,-3.8 5.95,-20.8 6.55,-24.45 m -16.35,0.45 q 1.65,-1.85 6.25,-4.1 4.65,-1.65 8.1,-1.6 -12.1,-1.1 -25.7,14.15 1.4,0.5 2.6,1.1 l 8.75,-9.55 z"
         id="path17585"
         inkscape:connector-curvature="0"
         style="fill:#e7831f;stroke:none" />
      <path
         d="m 0.4,253.8 1.55,-0.65 q -3.15,-5 -5.4,-8.3 -6.75,-9.65 -16.4,-14 l 0,0.05 q -2.7,9.55 -3,19.85 -0.15,7.35 1.95,14.7 0.4,-0.7 0.95,-1.8 -0.95,-2.7 -0.95,-11.15 -0.05,-13.3 3.55,-17.05 5.65,1.75 9.8,6.35 3.1,3.45 7.95,12 m 46.7,-12.55 q -4.6,2.25 -6.25,4.1 l -8.75,9.55 q 0.8,0.45 1.4,0.95 -0.3,0 -0.55,0.05 l 2,0.65 q 1.85,-5.5 6.5,-10.1 4.35,-4.4 12.45,-5.55 0,-0.14297 0,-0.25 0.0023,0.10703 0.05,0.25 0.4,-0.1 0.85,-0.15 -0.25,0.05 -0.45,0.15 0.95,0.65 -3.2,15.15 -0.4,1.9 -0.7,3.6 -1.2,5.35 -2.35,8.6 l -1.3,1.8 q 1.15,2.55 2.3,1.2 Q 53.35,259 57.25,242.45 57,240.7 56,239.7 q -0.4,-0.05 -0.8,-0.05 -3.45,-0.05 -8.1,1.6 z"
         id="path17587"
         inkscape:connector-curvature="0"
         style="fill:#eb9947;stroke:none" />
      <path
         d="m -19.35,282.55 0.15,1.65 q 0.15,0.05 0.45,0.8 0.65,1.9 3.6,3.2 -1.55,-1.2 -1.7,-5.15 -0.25,-4.2 2.7,-6.2 -3.15,0.5 -5.2,5.7 m 12.7,-2.95 q 0.7,-2.5 -0.7,-3.05 -0.85,-0.5 -3.65,-0.25 -0.35,3.8 4.35,3.3 z"
         id="path17589"
         inkscape:connector-curvature="0"
         style="fill:#ffffff;stroke:none" />
      <path
         d="m 12.2,296.15 q -3.15,-0.8 -4.15,0.6 l 2.85,2.65 q 2.05,-3 1.3,-3.25 z"
         id="path17591"
         inkscape:connector-curvature="0"
         style="fill:#fdcfc1;stroke:none" />
      <path
         d="m 7.9,296.55 0.15,0.2 q 1,-1.4 4.15,-0.6 0.75,0.25 -1.3,3.25 l 2.85,-3.65 q -5.3,-1.4 -5.85,0.8 z"
         id="path17593"
         inkscape:connector-curvature="0"
         style="fill:#fcab94;stroke:none" />
      <path
         d="m 26.4,271.35 q -1.95,0.35 -1.95,0.65 -0.1,0.25 -1.2,0.3 -1.15,0 -1.5,0.3 -0.1,0.1 -0.15,0.1 0,0.65 -0.3,1 -1.85,2.1 -2.55,4.9 -0.95,3.7 -1.1,7.85 -0.15,3.45 2.85,4.4 0.95,0.35 1.55,0.9 2.7,2.25 6.3,2.2 4.6,-0.1 9,-0.75 1.6,-0.25 2.75,-1.45 2.05,-2.1 4.8,-3.1 3.2,-1.15 2.5,-4.35 -1,-4.45 -3.9,-8.45 -1.4,-1.9 -4.35,-2.6 -3,-0.75 -6.95,-1.5 -3.9,-0.8 -5.8,-0.4 z"
         id="path17595"
         inkscape:connector-curvature="0"
         style="fill:#e78a45;stroke:none" />
    </g>
    <g
       id="Layer0_6_MEMBER_0_FILL-1">
      <path
         d="m 37.4,276.55 q 2.9,2 2.65,6.1 -0.1,4.05 -1.65,5.2 1.3,-0.6 2.15,-1.2 1.1,-0.9 1.45,-1.95 0.25,-0.55 0.4,-0.75 l 0.05,-0.05 0.1,-1.85 -0.05,-0.1 q -0.05,-0.15 -0.05,-0.2 -2.05,-4.8 -5.05,-5.2 M 34.15,276 q -1.75,-0.2 -2.65,0 l -0.2,0.05 q -0.2,0 -0.3,0 -0.25,0.1 -0.45,0.2 -1.05,0.4 -0.85,2.05 0,0.45 0.1,1 2.7,0.25 3.8,-0.8 0.75,-0.9 0.55,-2.5 z"
         id="path17598"
         inkscape:connector-curvature="0"
         style="fill:#ffffff;stroke:none" />
      <path
         d="m 38.9,275.75 q -3.85,-2.15 -8.35,-1.3 -4.35,0.8 -7.35,4.1 -3.3,3.85 -2,9.4 4.15,4.1 11.7,2.8 5.45,-1 8,-3.5 0.8,-0.8 1.35,-1.75 0.05,-0.15 0.15,-0.25 0.05,-0.05 0.05,-0.15 0.2,-1.25 0,-1.2 l -0.05,0.05 q -0.15,0.2 -0.4,0.75 -0.35,1.05 -1.45,1.95 -0.85,0.6 -2.15,1.2 1.55,-1.15 1.65,-5.2 0.25,-4.1 -2.65,-6.1 3,0.4 5.05,5.2 0,0.05 0.05,0.2 l 0.05,0.1 q 0.1,0.25 0.2,0.5 0,-0.85 -0.1,-1.65 -0.2,-1.15 -0.65,-2.1 -1.05,-1.95 -3.1,-3.05 M 31.5,276 q 0.9,-0.2 2.65,0 0.2,1.6 -0.55,2.5 -1.1,1.05 -3.8,0.8 -0.1,-0.55 -0.1,-1 -0.2,-1.65 0.85,-2.05 0.2,-0.1 0.45,-0.2 0.1,0 0.3,0 L 31.5,276 z"
         id="path17600"
         inkscape:connector-curvature="0"
         style="fill:#000000;stroke:none" />
    </g>
    <style
       id="style6"
       type="text/css">
    .str0 {stroke:#006633;stroke-width:282.22}
    .str1 {stroke:#AB754F;stroke-width:282.22}
    .fil2 {fill:none}
    .fil3 {fill:#606062}
    .fil5 {fill:#CE8F64}
    .fil4 {fill:#006633}
    .fil8 {fill:#009933}
    .fil9 {fill:#00B33C}
    .fil10 {fill:#00C943}
    .fil0 {fill:#00D447}
    .fil1 {fill:#00DB49}
    .fil6 {fill:#B88059}
    .fil11 {fill:#BA8058}
    .fil12 {fill:#D49264}
    .fil7 {fill:#E49C6D}
  </style>
    <filter
       inkscape:collect="always"
       id="filter5044"
       color-interpolation-filters="sRGB">
      <feGaussianBlur
         inkscape:collect="always"
         stdDeviation="1.3887758"
         id="feGaussianBlur5046" />
    </filter>
  </defs>
  <metadata
     id="metadata7">
    <rdf:RDF>
      <cc:Work
         rdf:about="">
        <dc:format>image/svg+xml</dc:format>
        <dc:type
           rdf:resource="http://purl.org/dc/dcmitype/StillImage" />
        <dc:title>Bingo das Letras</dc:title>
        <cc:license
           rdf:resource="" />
        <dc:rights>
          <cc:Agent>
            <dc:title>Copyright © 2002-2016. Portal Clickideia ® - Todos os Direitos Reservados</dc:title>
          </cc:Agent>
        </dc:rights>
        <dc:description>SVG game with snapSVG lib and other javascripts included</dc:description>
        <dc:language>pt_BR</dc:language>
        <dc:subject>
          <rdf:Bag>
            <rdf:li>Educativo</rdf:li>
            <rdf:li>ensino fundamental</rdf:li>
            <rdf:li>clickiéia</rdf:li>
            <rdf:li>letras</rdf:li>
            <rdf:li>lingua portuguesa</rdf:li>
            <rdf:li>infantil</rdf:li>
            <rdf:li>educational game</rdf:li>
            <rdf:li>game design</rdf:li>
            <rdf:li>multimidia</rdf:li>
          </rdf:Bag>
        </dc:subject>
        <dc:creator>
          <cc:Agent>
            <dc:title>http://www.clickideia.com.br/</dc:title>
          </cc:Agent>
        </dc:creator>
        <dc:publisher>
          <cc:Agent>
            <dc:title>http://www.clickideia.com.br/</dc:title>
          </cc:Agent>
        </dc:publisher>
        <dc:date>18/01/2016</dc:date>
        <dc:contributor>
          <cc:Agent>
            <dc:title>michel morandi - michel.morandi@clickideia.com.br</dc:title>
          </cc:Agent>
        </dc:contributor>
      </cc:Work>
    </rdf:RDF>
  </metadata>
  <g
     id="g5052"
     transform="matrix(1.534987,0,0,1.534987,7.1641382,7.0483211)">
    <g
       transform="translate(101.97836,0.61628298)"
       id="g5048">
      <path
         inkscape:connector-curvature="0"
         id="path5042"
         transform="translate(-1.6959658e-6,0)"
         d="m -91.8125,-0.5625 c -0.4174,0 -1.29356,2.2172846 -2.09375,5.28125 -0.60854,2.3301934 -0.6996,3.3627699 -0.6875,7.9375 0.01068,4.020701 0.12796,5.596797 0.5,6.71875 l 0.46875,1.46875 -1.46875,2.96875 c -1.57821,3.151323 -3.49389,6.29887 -4.03125,6.65625 -0.17926,0.119213 -0.89228,0.299954 -1.59375,0.40625 -0.70148,0.106298 -1.28187,0.269739 -1.28125,0.375 6.2e-4,0.105261 0.29613,0.647025 0.625,1.1875 0.87575,1.439268 2.905,2.741469 6.71875,4.3125 3.33521,1.373902 5.875,2.810125 5.875,3.3125 0,0.141854 -0.56762,1.720537 -1.25,3.5 -7.68336,20.036281 -8.73756,35.984275 -2.9375,44.6875 0.6499,0.9752 1.1697,1.78324 1.125,1.8125 -0.04475,0.02928 -0.72369,0.305589 -1.5,0.59375 -2.71292,1.007011 -4.33584,3.979351 -2.96875,5.4375 0.89386,0.953391 3.20963,2.171495 5.15625,2.71875 1.20043,0.33745 2.63884,0.40631 5.53125,0.3125 4.42472,-0.143513 7.22644,-0.764365 9.90625,-2.21875 l 1.6875,-0.9375 2.34375,1.1875 2.34375,1.1875 7.03125,0.125 c 8.37047,0.147161 9.53333,-0.03118 11.15625,-1.65625 1.07339,-1.074813 1.13631,-1.25693 1,-2.46875 -0.19124,-1.700041 -0.85679,-2.57822 -3.15625,-4.15625 -1.03158,-0.707933 -1.875,-1.37735 -1.875,-1.46875 0,-0.289926 12.75197,-6.759002 21.78125,-11.0625 C -16.07277,69.394845 -9.13,64.418546 -5.65625,57.75 -3.76547,54.120298 -3.30307,49.163305 -4.4375,44.71875 -5.28977,41.37969 -6.35113,39.622149 -9.25,36.6875 c -2.09564,-2.121509 -3.03571,-2.810024 -5.125,-3.8125 -6.02772,-2.892269 -13.15547,-2.919735 -19.15625,-0.03125 -4.85112,2.335089 -6.78725,5.186932 -6.78125,10.03125 0.0053,3.983314 1.56946,6.538906 4.9375,8.09375 1.11213,0.513411 1.934,0.625601 4.5,0.625 2.75879,-5.44e-4 3.35619,-0.09474 4.65625,-0.75 0.81668,-0.411632 1.70644,-1.086534 2,-1.5 0.51771,-0.729153 0.5163,-0.864642 -0.34375,-4.21875 -1.08109,-4.216141 -1.08314,-4.533721 -0.15625,-5.40625 0.68903,-0.648621 0.80908,-0.651218 2.15625,-0.3125 2.55137,0.641486 5.00841,2.007841 6.59375,3.6875 1.95639,2.072774 2.82353,4.300601 3.03125,7.90625 l 0.15625,2.6875 -1.96875,2.28125 c -3.46269,4.023754 -9.52216,8.438488 -16.5625,12.0625 C -34.84154,69.84782 -50.49053,77 -50.9375,77 c -0.10176,0 -0.19995,-1.514402 -0.21875,-3.375 -0.06373,-6.317627 -1.01555,-11.012091 -5.03125,-24.84375 -1.26806,-4.367683 -2.2571,-8.099523 -2.1875,-8.28125 0.0696,-0.181724 0.86295,-0.59278 1.75,-0.90625 4.14214,-1.463785 7.47119,-3.753118 9.25,-6.34375 0.49309,-0.718136 0.90625,-1.417393 0.90625,-1.5625 0,-0.145104 -0.53465,-0.49263 -1.1875,-0.78125 -1.46162,-0.646165 -2.58787,-1.943865 -3.0625,-3.53125 -0.50402,-1.685669 -0.02762,-4.358054 2.03125,-11.625 1.75259,-6.1859422 2.28743,-9.693233 1.65625,-10.875 -0.40216,-0.7529482 -1.64845,-0.8430251 -4.84375,-0.34375 -3.22318,0.5036311 -5.92338,2.0534195 -9.40625,5.375 l -3.03125,2.90625 -2.125,-0.71875 c -1.8193,-0.641325 -2.6476,-0.76629 -6.15625,-0.78125 -2.22821,-0.0095 -4.43722,0.08952 -4.9375,0.21875 -0.85777,0.221569 -0.99386,0.139413 -2.15625,-1.5 -2.0687,-2.9176577 -5.45291,-6.6171526 -7.40625,-8.09375 -1.69278,-1.27964002 -4.00993,-2.5 -4.71875,-2.5 z"
         style="fill:#808080;stroke:#808080;stroke-width:2.60588527;stroke-linejoin:round;stroke-miterlimit:4;stroke-dasharray:none;filter:url(#filter5044)" />
      <path
         inkscape:connector-curvature="0"
         style="fill:#ffffff;stroke:#ffffff;stroke-width:2.60588527;stroke-linejoin:round;stroke-miterlimit:4;stroke-dasharray:none"
         d="m -91.8125,-0.5625 c -0.4174,0 -1.29356,2.2172846 -2.09375,5.28125 -0.60854,2.3301934 -0.6996,3.3627699 -0.6875,7.9375 0.01068,4.020701 0.12796,5.596797 0.5,6.71875 l 0.46875,1.46875 -1.46875,2.96875 c -1.57821,3.151323 -3.49389,6.29887 -4.03125,6.65625 -0.17926,0.119213 -0.89228,0.299954 -1.59375,0.40625 -0.70148,0.106298 -1.28187,0.269739 -1.28125,0.375 6.2e-4,0.105261 0.29613,0.647025 0.625,1.1875 0.87575,1.439268 2.905,2.741469 6.71875,4.3125 3.33521,1.373902 5.875,2.810125 5.875,3.3125 0,0.141854 -0.56762,1.720537 -1.25,3.5 -7.68336,20.036281 -8.73756,35.984275 -2.9375,44.6875 0.6499,0.9752 1.1697,1.78324 1.125,1.8125 -0.04475,0.02928 -0.72369,0.305589 -1.5,0.59375 -2.71292,1.007011 -4.33584,3.979351 -2.96875,5.4375 0.89386,0.953391 3.20963,2.171495 5.15625,2.71875 1.20043,0.33745 2.63884,0.40631 5.53125,0.3125 4.42472,-0.143513 7.22644,-0.764365 9.90625,-2.21875 l 1.6875,-0.9375 2.34375,1.1875 2.34375,1.1875 7.03125,0.125 c 8.37047,0.147161 9.53333,-0.03118 11.15625,-1.65625 1.07339,-1.074813 1.13631,-1.25693 1,-2.46875 -0.19124,-1.700041 -0.85679,-2.57822 -3.15625,-4.15625 -1.03158,-0.707933 -1.875,-1.37735 -1.875,-1.46875 0,-0.289926 12.75197,-6.759002 21.78125,-11.0625 C -16.07277,69.394845 -9.13,64.418546 -5.65625,57.75 -3.76547,54.120298 -3.30307,49.163305 -4.4375,44.71875 -5.28977,41.37969 -6.35113,39.622149 -9.25,36.6875 c -2.09564,-2.121509 -3.03571,-2.810024 -5.125,-3.8125 -6.02772,-2.892269 -13.15547,-2.919735 -19.15625,-0.03125 -4.85112,2.335089 -6.78725,5.186932 -6.78125,10.03125 0.0053,3.983314 1.56946,6.538906 4.9375,8.09375 1.11213,0.513411 1.934,0.625601 4.5,0.625 2.75879,-5.44e-4 3.35619,-0.09474 4.65625,-0.75 0.81668,-0.411632 1.70644,-1.086534 2,-1.5 0.51771,-0.729153 0.5163,-0.864642 -0.34375,-4.21875 -1.08109,-4.216141 -1.08314,-4.533721 -0.15625,-5.40625 0.68903,-0.648621 0.80908,-0.651218 2.15625,-0.3125 2.55137,0.641486 5.00841,2.007841 6.59375,3.6875 1.95639,2.072774 2.82353,4.300601 3.03125,7.90625 l 0.15625,2.6875 -1.96875,2.28125 c -3.46269,4.023754 -9.52216,8.438488 -16.5625,12.0625 C -34.84154,69.84782 -50.49053,77 -50.9375,77 c -0.10176,0 -0.19995,-1.514402 -0.21875,-3.375 -0.06373,-6.317627 -1.01555,-11.012091 -5.03125,-24.84375 -1.26806,-4.367683 -2.2571,-8.099523 -2.1875,-8.28125 0.0696,-0.181724 0.86295,-0.59278 1.75,-0.90625 4.14214,-1.463785 7.47119,-3.753118 9.25,-6.34375 0.49309,-0.718136 0.90625,-1.417393 0.90625,-1.5625 0,-0.145104 -0.53465,-0.49263 -1.1875,-0.78125 -1.46162,-0.646165 -2.58787,-1.943865 -3.0625,-3.53125 -0.50402,-1.685669 -0.02762,-4.358054 2.03125,-11.625 1.75259,-6.1859422 2.28743,-9.693233 1.65625,-10.875 -0.40216,-0.7529482 -1.64845,-0.8430251 -4.84375,-0.34375 -3.22318,0.5036311 -5.92338,2.0534195 -9.40625,5.375 l -3.03125,2.90625 -2.125,-0.71875 c -1.8193,-0.641325 -2.6476,-0.76629 -6.15625,-0.78125 -2.22821,-0.0095 -4.43722,0.08952 -4.9375,0.21875 -0.85777,0.221569 -0.99386,0.139413 -2.15625,-1.5 -2.0687,-2.9176577 -5.45291,-6.6171526 -7.40625,-8.09375 -1.69278,-1.27964002 -4.00993,-2.5 -4.71875,-2.5 z"
         transform="translate(-1.6959658e-6,0)"
         id="path4271" />
    </g>
    <g
       transform="translate(1706.5625,1038.5425)"
       id="g5709">
      <use
         transform="matrix(0.57358985,0,0,0.57358985,-1684.8234,-1170.4968)"
         height="800"
         width="1280"
         y="0"
         x="0"
         xlink:href="#Layer0_6_FILL"
         id="use17515" />
      <g
         transform="matrix(0.57358985,0,0,0.57358985,-1684.8234,-1170.2534)"
         id="g17517">
        <use
           id="use17519"
           xlink:href="#Layer0_6_MEMBER_0_FILL-1"
           x="0"
           y="0"
           width="1280"
           height="800" />
      </g>
    </g>
  </g>
</svg>
