<?xml version="1.0" encoding="UTF-8" standalone="no"?>
<svg
   xmlns:osb="http://www.openswatchbook.org/uri/2009/osb"
   xmlns:dc="http://purl.org/dc/elements/1.1/"
   xmlns:cc="http://creativecommons.org/ns#"
   xmlns:rdf="http://www.w3.org/1999/02/22-rdf-syntax-ns#"
   xmlns:svg="http://www.w3.org/2000/svg"
   xmlns="http://www.w3.org/2000/svg"
   xmlns:xlink="http://www.w3.org/1999/xlink"
   xmlns:sodipodi="http://sodipodi.sourceforge.net/DTD/sodipodi-0.dtd"
   xmlns:inkscape="http://www.inkscape.org/namespaces/inkscape"
   version="1.1"
   id="svg2"
   viewBox="0 0 103.58368 103.5581"
   height="103.5581"
   width="103.58369"
   inkscape:version="0.48.4 r9939"
   sodipodi:docname="girafa.svg">
  <sodipodi:namedview
     pagecolor="#ffffff"
     bordercolor="#666666"
     borderopacity="1"
     objecttolerance="10"
     gridtolerance="10"
     guidetolerance="10"
     inkscape:pageopacity="0"
     inkscape:pageshadow="2"
     inkscape:window-width="1600"
     inkscape:window-height="876"
     id="namedview1313"
     showgrid="false"
     fit-margin-top="0"
     fit-margin-left="0"
     fit-margin-right="0"
     fit-margin-bottom="0"
     inkscape:zoom="1.7208844"
     inkscape:cx="93.704797"
     inkscape:cy="35.598405"
     inkscape:window-x="0"
     inkscape:window-y="1"
     inkscape:window-maximized="1"
     inkscape:current-layer="svg2" />
  <script
     xlink:href="C:\wamp\www\bingo\js/snap.svg-min.js"
     id="script4164" />
  <title
     id="title4162">Bingo das Letras</title>
  <defs
     id="defs4">
    <linearGradient
       osb:paint="solid"
       id="linearGradient12614">
      <stop
         id="stop12616"
         offset="0"
         style="stop-color:#000000;stop-opacity:1;" />
    </linearGradient>
    <linearGradient
       gradientTransform="matrix(-0.19399818,0,0,-0.19399818,259.22818,12173.784)"
       osb:paint="solid"
       id="linearGradient59274">
      <stop
         id="stop59276"
         offset="0"
         style="stop-color:#930033;stop-opacity:1;" />
    </linearGradient>
    <linearGradient
       id="linearGradient4269"
       osb:paint="solid"
       gradientTransform="matrix(110.20782,22.122239,-29.697412,82.096171,6265099.9,4291212.1)">
      <stop
         style="stop-color:#ffffff;stop-opacity:1;"
         offset="0"
         id="stop4271" />
    </linearGradient>
    <linearGradient
       id="linearGradient4251"
       osb:paint="solid"
       gradientTransform="translate(106155.96,125143.42)">
      <stop
         style="stop-color:#555555;stop-opacity:1;"
         offset="0"
         id="stop4253" />
    </linearGradient>
    <linearGradient
       id="linearGradient4241"
       osb:paint="solid"
       gradientTransform="matrix(0.19125385,0,0,0.19125385,-3226.5915,-23626.881)">
      <stop
         style="stop-color:#3fb5ae;stop-opacity:1;"
         offset="0"
         id="stop4243" />
    </linearGradient>
    <linearGradient
       id="linearGradient4231"
       osb:paint="solid"
       gradientTransform="translate(2399.1562,2075.6965)">
      <stop
         style="stop-color:#d1f2a5;stop-opacity:1;"
         offset="0"
         id="stop4233" />
    </linearGradient>
    <linearGradient
       id="linearGradient4221"
       osb:paint="solid"
       gradientTransform="matrix(0.66768435,0,0,0.66768435,-186.89148,394.64653)">
      <stop
         style="stop-color:#effab4;stop-opacity:1;"
         offset="0"
         id="stop4223" />
    </linearGradient>
    <linearGradient
       id="linearGradient4211"
       osb:paint="solid"
       gradientTransform="translate(-699.20463,883.12976)">
      <stop
         style="stop-color:#ffc48c;stop-opacity:1;"
         offset="0"
         id="stop4213" />
    </linearGradient>
    <linearGradient
       id="linearGradient4201"
       osb:paint="solid"
       gradientTransform="matrix(0.35946858,0,0,0.22423084,-331.07911,5516.4706)">
      <stop
         style="stop-color:#ff9f80;stop-opacity:1;"
         offset="0"
         id="stop4203" />
    </linearGradient>
    <linearGradient
       id="linearGradient4191"
       osb:paint="solid"
       gradientTransform="matrix(0.52321996,0,0,0.52321996,2015.4535,3072.5352)">
      <stop
         style="stop-color:#f56991;stop-opacity:1;"
         offset="0"
         id="stop4193" />
    </linearGradient>
    <g
       id="Layer0_0_FILL-09">
      <path
         d="m 98.5,538.45 q 0.05,1.05 0.1,2.15 0.35,4.9 0.5,10.15 0.1,5.1 -1.55,10.1 -0.5,1.5 -1.45,2.75 -2.95,3.95 -1.6,8.4 l -0.4,0.65 q 2.575781,-2.55742 3.45,-6.65 0.88125,-4.03574 2,-8.25 1.1125,-4.16328 0.4,-8.8 -0.654883,-4.5957 -1.45,-10.5 M 62.65,438.25 q -0.583984,-0.85723 -0.8,-1.65 l -0.4,0 q 0.722461,7.54453 2.75,14.45 0.0168,0.0828 0,0.15 2.634961,8.91406 7.35,16.9 -0.07949,-1.79863 0.15,-3.75 l 0,-0.05 q 0.307031,-2.92207 0.5,-5.95 l -4.05,-5.7 -2.65,-13.05 q -1.610742,0.47227 -2.85,-1.35 m 1.15,-5.85 q 0.075,-0.008 0.15,-0.05 l -2.8,-8.85 -0.05,0 q -0.06348,2.55254 -0.05,4.95 0.0127,3.57402 0.3,7 l 0.35,0 q 0.120312,-1.69238 2.1,-3.05 m 49.8,52.55 q 2.78652,2.8252 5.75,4.75 l -7.3,-24.65 q 1.37266,5.30469 1.7,11.05 0.20313,4.0127 -0.05,7.95 -0.0381,0.48086 -0.1,0.9 m -28.8,6.5 0.05,0 q 4.491211,4.98008 6.65,12.6 1.656836,5.82812 0.2,11.4 l 0.1,0.05 q 0.7,-1.9 0.9,-3.85 3.1,-28.1 -18.85,-48.8 -0.06289,0.84941 -0.15,1.7 l 0,0 q -0.563477,4.83164 1.1,8.65 l 4.3,10 0,-0.05 q 2.182422,4.53926 5.7,8.3 m 114.2,66.1 -0.05,0 q -3.37031,8.25449 -7.9,13.9 l -1.8,2.15 0.35,1.75 3.75,1.45 q 2.3,-9.55 5.65,-19.25 M 203.75,530 q 0.4,0 0.85,0 0.35,-0.1 0.75,-0.2 0.35,-0.15 0.75,-0.3 0.35,-0.25 0.65,-0.55 0.35,-0.3 0.6,-0.65 0.35,-0.4 0.65,-0.8 0.25,-0.45 0.5,-0.85 -3.16621,-0.5918 -13.05,-4.4 -9.83379,-3.8082 -20.7,-15.9 0.54883,0.94863 1.05,1.9 2.21113,3.98379 6.45,7.85 4.34355,3.82813 9.3,6.6 l -0.05,0 q 4.78223,2.67598 10.2,4.25 0.30566,0.0799 0.5,0.3 0.2002,0.21621 0.25,0.5 0.0322,0.28496 -0.1,0.55 -0.29219,0.65332 -0.55,1.25 1,0.25 1.95,0.45 m -41,-37.1 q -0.0615,-0.17852 -0.15,-0.35 l 0,0 q -4.19043,-9.16914 -3.75,-14.85 l -0.35,-0.15 q -4.35,8.15 1.35,15.2 0.3,0.4 0.65,0.75 1.48965,-0.057 2.25,-0.6 m 11.45,-51.7 q 0.9,-0.1 1.8,-0.3 l 0,-0.1 q 0.026,0.0104 0.05,0 5.08242,2.06387 3.2,4.9 l 6,0.6 q -1.34141,-2.04629 -0.65,-5 0.12734,-0.56074 0.3,-1.1 -4.26895,-1.10195 -8.7,-1.25 l 0,0 q -7.6252,-0.2959 -15.25,0.4 l -0.05,0 q -7.8002,0.65059 -15.55,0.9 -8.55469,0.0943 -13.25,-6.3 0,4.6 4.4,7.8 4.45,3.25 10.7,3.25 l 2.05,0.3 1.9,0.25 q 1.19863,-0.30801 2.45,-0.55 7.18809,-0.92754 10.2,2.25 l 8.6,-1.35 q -1.11953,-2.69805 1.8,-4.7 M 82.5,360.15 q -0.50625,-0.61426 -0.9,-1.25 l 1.05,9.2 q 7.675781,3.45996 3.9,12.45 -1.201953,2.86133 -2.7,4.45 l 5.85,12.2 1.9,2.55 q 3.2,6.05 9.7,8.2 0.75,0.2 1.55,0.35 -2.30488,-1.21465 -4.6,-2.6 -0.318555,-0.21504 -0.45,-0.6 -0.197266,-0.0846 -0.4,-0.3 -0.650977,-0.69902 -1.3,-1.5 -0.171875,-0.21309 -0.2,-0.5 -0.236719,-0.10059 -0.4,-0.35 -4.546484,-6.23184 -6.15,-16.5 -0.60293,-3.84629 -0.8,-8.25 -0.151953,-3.28262 0,-7.5 0.09414,-3.55273 0.4,-7.8 -3.647852,1.15254 -6.45,-2.25 M 69.7,252.35 q -0.10957,0.37656 -0.45,0.55 -0.343359,0.2209 -0.75,0.1 -0.358203,-0.069 -0.6,-0.4 -2.239648,-3.4207 -6.1,-3 -1.33457,0.13477 -2.85,0.7 2.723242,0.70488 5.2,2.4 0.29668,0.21289 0.4,0.5 0.106055,0.35 0,0.65 -0.102734,0.3377 -0.4,0.5 -0.25957,0.21445 -0.6,0.2 -2.43418,-0.0969 -4.6,0.05 -0.230469,0.0156 -1,0.05 -8.367187,0.72832 -12.95,5 4.213086,-1.10703 6.75,0.95 0.116992,0.0877 0.2,0.2 3.55,-2.7 8.45,-1.8 2.6,0.45 3.9,-0.45 0.9,-0.7 1.55,-1.8 0.65,-1.2 2.85,-1 2.15,0.25 3.75,1.85 -0.9,-2.15 -2.75,-5.25 m -36.65,41.9 q 1.649023,0.40391 3.1,0.5 0.292188,0.0217 0.5,0.15 6.4,-4.8 7.7,-13.45 0.15,-1 0.3,-2 L 44.6,279.4 q -4.704102,8.04531 -11.55,14.85 m 50.55,-5.8 -0.1,-0.05 q -2.85,12.95 -17.2,14.95 -3.75,0.25 -7.4,1.3 l 0.05,0.25 q 3.431836,0.49492 7.6,0.5 0.250391,0.002 0.45,0.1 0.221289,-0.13711 0.5,-0.15 l 7.2,-0.3 q 3.200391,-0.22813 5.8,-1.75 2.974023,-1.75586 3.4,-7.45 0.464453,-5.69902 -0.3,-7.4 m 6.7,-12.65 q -0.741797,-1.19805 -0.95,-1.8 l 1.05,22 q 0.02617,0.0104 0.05,0 4.48418,1.82324 3.55,4.25 0.917187,1.63203 1,3.65 0.07188,2.07969 -0.7,4.55 -2.036328,6.38672 -6.25,2.35 l -2.8,5.95 q 0.250586,1.40996 0.2,3 0.0025,1.20352 -0.2,2.5 l -2.3,26.2 q 0.648438,-0.93379 0.9,-2.15 1.3,-6.1 7.35,-6.9 l 0.25,0 q 0.515039,-4.0041 0.95,-7.7 l 0,-0.05 q 0.814453,-6.56113 1.4,-11.9 1.100781,-10.09941 1.35,-15.85 0.07754,-1.05234 0.1,-2 0.345508,-17.20449 -4.8,-25.8 -0.06562,-0.0844 -0.1,-0.2 -0.02617,-0.0357 -0.05,-0.1 M 87,326.85 q 0.5,-0.05 1,-0.15 l 0,-0.1 0.05,0 q 2.267773,0.33809 2.8,2.35 1.243945,1.35645 0.85,2.85 -0.368359,1.50527 -2.4,3.15 -0.7,0.55 -1.8,0.15 -0.8,-0.3 -1.5,-0.9 -0.267383,-1.22578 -0.2,-2.4 0.01191,-0.1377 0,-0.3 -0.281641,-0.21094 -0.6,-0.5 -0.25,-0.75 -0.15,-1.5 0.1,-0.7 0.55,-1.4 0.4,-0.6 1,-1.1 0.2,-0.1 0.4,-0.15 M 81.45,260.7 q 1.2,0.15 2.1,0.25 -1.346484,-6.55996 -7.95,-6.4 -0.255078,0.0107 -0.5,-0.15 -0.241211,-0.12305 -0.4,-0.4 l -0.05,0.05 q 1.132813,6.02559 6.8,6.65 z"
         id="path15853"
         inkscape:connector-curvature="0"
         style="fill:#d8a201;stroke:none" />
      <path
         d="m 96.5,538.6 q -0.397852,-2.5498 -4,-6.05 0.101367,7.81074 -0.55,14.45 -0.754492,7.80117 -4.6,14.25 -1.552539,2.72852 1.15,5 -2.535547,1.87266 -4.35,4.8 -1.040625,1.72676 -3.1,5.45 1.724609,0.64844 3.85,0.5 0.636523,-0.58379 1.3,-1.1 0.203125,-0.0949 0.4,-0.15 0.07871,-0.21758 0.25,-0.4 2.764844,-2.48066 5.3,-3.95 l 0,0 q -1.107617,-2.66191 0.95,-5.75 3.553711,-5.24922 3.75,-10.95 0.197266,-8.05 -0.35,-16.1 m -13.15,-45.8 0,0 q -3.156641,-3.37402 -5.3,-7.35 -0.27207,6.6123 3.5,12.35 4.15625,6.36641 6.5,13.3 0.949609,2.67773 1.2,5.6 2.088477,-5.9082 0.35,-12.1 -2.041211,-7.13008 -6.25,-11.8 m 86.2,9 q -0.0477,0.0816 -0.15,0.1 l -1.1,0.6 q -0.20059,0.14746 -0.45,0.15 -0.13047,0.23906 -0.4,0.35 -0.2707,0.16621 -0.55,0.3 -0.0201,3.68418 2.25,6.95 2.94023,4.06309 5.85,7.25 2.9873,3.4291 6.85,6.4 4.01133,3.11738 8.5,4.3 4.17207,1.16191 3.4,3.65 -1.53574,5.17715 3,8.55 0.82402,4.83145 -1.6,9 l -4.95,8.25 q -2.50625,4.08008 -4.1,8.7 -0.84453,2.45371 0.3,3.9 -0.85488,0.4125 -1.65,0.8 l -3.85,2.4 q -1.46738,1.1293 -2.7,2.35 -1.73691,1.74746 -2.4,3.8 1.10156,1.43789 2.7,2 0.12656,-0.13203 0.2,-0.3 l 0,0.05 q 1.05156,-1.56719 2.35,-2.7 l 0,-0.05 q 1.69629,-1.40898 3.65,-2.25 l 2.8,-0.75 q -0.05,-1 0,-2 0.1,-1.45 1.05,-2.3 6.89473,-8.02578 11.2,-22 1.27832,-4.11172 2.3,-8.75 -0.69238,-0.50684 -1.15,-1.15 -3.25645,-4.5043 -0.8,-10.85 0.0225,-0.0184 0,-0.05 -5.04805,-1.53516 -9.55,-4.05 l 0,0 q -5.14336,-2.87793 -9.65,-6.85 -4.51152,-4.13398 -6.85,-8.4 -2.09063,-3.88125 -4.5,-7.4 z"
         id="path15855"
         inkscape:connector-curvature="0"
         style="fill:#7e5f01;stroke:none" />
      <path
         d="m 61.45,436.6 0.4,0 q -0.168359,-0.59277 -0.15,-1.15 l -0.35,0 q 0.04492,0.60195 0.1,1.15 m 89.35,9.1 q 0.1916,-0.0598 0.35,-0.15 l -1.9,-0.25 q 0.83555,0.17031 1.55,0.4 m -59.35,-106.3 -0.25,0 q 0.110156,0.0348 0.2,0.05 l 0.05,0 0,-0.05 m -59.2,-22.45 q -0.177539,0.34551 -0.5,0.6 l 0.05,-0.05 q -0.03848,0.0619 -0.1,0.1 0.791797,0.0744 1.55,0.05 -0.442188,-0.25312 -1,-0.7 m 47.8,14.85 q -1.307422,0.61484 -2.8,0.3 -0.04727,0.1668 -0.15,0.25 0.138867,0.2832 0.1,0.55 -0.4,2.98691 -0.9,6.25 l -0.05,0 q -1.023828,5.98301 -3.1,15.45 l 0,0 q -1.625,7.57422 -3.9,17.25 -1.125195,4.8252 -2.4,10.15 -0.424805,2.0125 -0.85,4 -1.764258,8.8293 -2.9,16.7 -1.648047,11.25957 -2,20.55 0.02129,0.1377 0,0.25 l 0.05,0 2.8,8.85 q 0.825,-0.0666 1.65,-0.25 l 0,-0.1 q 6.9,2.75 1.15,6.95 -0.650586,0.48789 -1.25,0.65 l 2.65,13.05 4.05,5.7 q 0.02539,-0.42187 0.05,-0.85 l 0,0.9 q 0.04258,-1.63164 0.05,-1.9 l 0,-0.05 q 0.275977,-5.18496 0.3,-7.35 0.824805,2.83535 1.2,4.95 0.492383,2.82734 0.4,4.3 -0.134961,2.26738 -0.35,4.5 21.95,20.7 18.85,48.8 -0.2,1.95 -0.9,3.85 l -0.1,-0.05 q -0.05098,0.32402 -0.15,0.6 -0.432227,1.59453 -1.15,3.15 l 0,0 q -0.02891,0.1084 -0.1,0.15 -7.81e-4,0.0908 -0.05,0.15 -0.357422,0.89414 -0.6,1.75 -1.308984,4.95703 2.65,8.45 0.246875,0.20957 0.3,0.5 0.330664,0.0342 0.55,0.25 4.983984,4.53164 5.35,7.9 l 0,0.1 q 0.795117,5.9043 1.45,10.5 0.7125,4.63672 -0.4,8.8 -1.11875,4.21426 -2,8.25 -0.874219,4.09258 -3.45,6.65 -0.09375,0.0592 -0.2,0.1 -0.164062,0.0576 -0.35,0.05 l -0.05,0 q -0.100391,0.23418 -0.35,0.35 -2.365234,1.38066 -4.95,3.7 -0.194141,0.19316 -0.5,0.25 -0.06055,0.28281 -0.35,0.45 -1.601172,1.1873 -2.95,3 -1.162305,1.51016 -1.45,2.55 1.213672,0.32422 2.55,0.55 0.583594,-3.51484 3.6,-5 -0.739844,1.92109 -1.6,5.25 7.557422,0.83672 15.2,-1.8 -0.89902,-3.80195 -0.95,-5.25 l 0,-0.05 q -0.26836,-3.33086 1.3,-5.65 0.19355,-0.21953 0.45,-0.35 3.22363,-1.22871 3.95,-2.7 l 0,0.05 q 2.55547,-6.55996 -3.5,-10.05 -0.0975,-0.52207 -0.55,-1.05 -0.35,-1.3 -0.2,-2.65 0.12344,-0.83379 -0.25,-1.35 -0.0109,-2.81191 0.4,-5.7 1.13027,-7.61387 0.1,-15.4 -0.0219,-0.18926 0.05,-0.4 0.0602,-0.21035 0.2,-0.4 0.71563,-0.77461 1.3,-2 l -0.05,0.05 q 3.29355,-7.64336 -3.85,-11.05 -0.22422,-0.11758 -0.4,-0.35 -0.13555,-0.24121 -0.15,-0.55 -0.21797,-6.96172 4.3,-13 l 0,-0.05 q 2.03945,-2.58164 3.45,-5.6 0.10781,-0.21602 0.3,-0.4 -0.0527,-0.29609 0.1,-0.6 0.13828,-0.18926 0.3,-0.3 -0.0283,-0.25391 0.05,-0.5 1.09297,-2.77715 1.65,-5.7 0.70957,-3.5877 1,-7.2 0.24414,-3.81406 0.1,-12.45 -0.10293,-6.67012 -0.9,-10.35 0.61563,1.78301 1.05,3.6 l 0.1,0.35 7.3,24.65 q 9.66387,6.25039 21.75,3.65 7.7,-1.7 15.3,-0.2 2.48301,0.47187 4.1,0.35 -0.35,-0.35 -0.65,-0.75 -5.7,-7.05 -1.35,-15.2 l 0.35,0.15 q 0.0418,-0.5373 0.1,-1.05 l 0,0 q 0.42949,-4.65996 1.25,-4.9 0.0389,0.21016 -0.25,4.2 -0.29727,4.04355 4.4,15.65 l 0.05,0.05 q 2.27715,4.40176 6.2,8.15 0.068,0.0945 0.1,0.15 2.14746,3.05781 4.05,6.4 10.86621,12.0918 20.7,15.9 9.88379,3.8082 13.05,4.4 -0.25,0.4 -0.5,0.85 -0.3,0.4 -0.65,0.8 -0.25,0.35 -0.6,0.65 -0.3,0.3 -0.65,0.55 -0.4,0.15 -0.75,0.3 -0.4,0.1 -0.75,0.2 -0.45,0 -0.85,0 -0.95,-0.2 -1.95,-0.45 -1.75918,5.07969 0.75,8.7 0.41562,0.5541 1.15,0.95 0.2873,0.19453 0.4,0.5 0.15176,0.30371 0.05,0.6 -2.00957,9.2418 -4.9,16.5 -0.14961,0.37754 -0.3,0.75 l 0.05,0 q -3.35,9.7 -5.65,19.25 -2,0.35 -4,0.75 -1.35,0.15 -2.7,0.3 -2.36328,0.67988 -4.3,2.3 l 0,0 q -1.10156,0.9668 -2,2.3 l 0,0 q -1.38223,2.0877 -1.7,4.7 0.95996,0.0568 1.85,0.35 1.37402,-3.49023 4.35,-5.25 -1.05566,1.72187 -2.3,5.5 l 4.7,-0.2 q 0.28203,-0.017 0.5,0.1 0.22832,-0.1373 0.5,-0.15 4.80605,-0.19355 9.15,-1.65 0.0633,-0.0131 0.1,-0.05 0.43086,-0.0871 0.6,-0.3 l 0,0.05 q 1.54746,-3.48027 -0.2,-7.05 -0.12324,-0.25527 -0.1,-0.55 -0.11113,-0.0424 -0.2,-0.15 l -0.05,-0.05 q -0.23984,-0.29492 -0.2,-0.7 0.0971,-1.29492 1.5,-2.35 3.7248,-3.15371 7.8,-5.25 2.3207,-1.22578 1.4,-3.95 -1.41563,-3.97988 -2.5,-9.05 -1.08691,-5.19063 0.7,-9.85 l 0,-0.05 q 1.90801,-4.74922 5.5,-8 2.45293,-2.18477 3.6,-5.3 1.63145,-4.25117 -1.3,-8 -9.68223,-6.63359 -11.1,-14.25 -1.2168,-5.63418 2.2,-14 0.0381,2e-4 0.05,-0.05 4.20801,-8.92773 5.55,-13.5 l 0,0 q 1.45859,-4.82422 0.85,-9 -1.04707,1.95723 -4.45,2.3 -2.05,0.2 -3.4,-1.55 -0.45,-0.6 -0.95,-1.2 -0.3,-0.85 -0.25,-1.8 0.05,-0.9 0.05,-1.8 -0.1,-0.3 -0.3,-0.55 -0.5,-0.65 -1.1,-1.25 -0.1,-0.6 -0.15,-1.2 -0.05,-0.6 -0.05,-1.2 0,-0.3 0,-0.6 0.4,-1.2 1.65,-1.7 0.65,-0.3 1.35,-0.5 3.23711,1.35605 5.75,3.8 l 1.4,1.35 2.65,-0.2 q 5.64219,0.18887 7.6,5.05 2.31953,5.35859 -0.3,16.85 -3.30527,14.90762 -0.25,24.6 1.75508,5.59316 5.6,6.3 4.04609,0.59297 10.25,-3.65 l 0.05,0 1.25,-2.5 q 0.8502,-0.91211 1.45,-1.9 -1.5,0.25 -2.2,-0.65 -1.2,-1.55 -1.3,-3.5 -0.88789,2.70586 -1.55,5.45 l -0.95,1.85 -0.2,0.5 q -0.0533,-0.0146 -0.1,-0.05 -0.0451,0.0699 -0.1,0.1 -0.15977,0.13848 -0.4,0.2 -4.4209,1.27773 -6.85,-0.35 -2.56094,-1.52422 -3,-5.95 -0.53926,-4.79141 3.05,-19.4 3.48906,-13.7957 0.25,-19.25 -3.28887,-5.35742 -4.9,-6.55 l 0,0 q -1.57891,-1.15254 -3.25,-1.75 l 0,0 -6.7,-2.35 -0.05,0 q -0.20547,-0.0771 -0.4,-0.25 -0.13711,-0.18535 -0.2,-0.45 -0.19004,-0.60566 -0.45,-1.25 l -2.35,-4.55 q -4.68926,5.01152 -10.8,0 -4.5,-3.6 -9.45,-6.5 -1.50469,-0.8916 -2.3,-2.1 l -6,-0.6 q -0.63496,0.97988 -2.1,2.05 -2.4,1.8 -4.1,-0.7 -0.38965,-0.57207 -0.65,-1.15 l -8.6,1.35 q 2.22891,2.29453 2.25,6.75 0,3.95 -4,4.75 -4.2,0.9 -8.3,1.75 -1.75,0.4 -3.15,1.7 -7.2,6.8 -12,-1.95 -1,-1.75 -0.1,-3.6 0.9791,-2.08848 2.25,-3.85 -0.0297,-1.6459 0.65,-3.8 0.65,-2.05 2.7,-3.05 1.65,-0.8 3.1,-0.95 -6.25,0 -10.7,-3.25 -4.4,-3.2 -4.4,-7.8 l 0,-0.05 q -4.51289,-6.22539 -8.5,-11.95 -4.35254,-6.37715 -11.35,-9.2 -4.74785,-1.9041 -9.4,-4.45 -0.8,-0.15 -1.55,-0.35 -6.5,-2.15 -9.7,-8.2 0.398047,0.82773 0.65,1.8 1.2,4.6 -3.45,5.75 -5.4,1.3 -9.45,-1.6 -2.5,-1.8 -2.15,-4.95 0.1,-1.45 0.65,-2.95 0.55,-1.45 1.95,-2.2 0.3,-0.1 0.6,-0.15 0.6,-0.05 1.2,-0.15 l 0,-0.1 q 5.331445,-0.36152 8.1,2 L 83.85,385 q -0.40293,0.45762 -0.85,0.8 -3.208594,2.63945 -7.7,0 -1.083203,-0.64297 -2.25,-1.6 -1.9,-1.55 -1.7,-4.2 0.75,-9.95 9.45,-12.6 1.004883,0.31816 1.85,0.7 l -1.05,-9.2 q -1.378906,-2.19785 -1.3,-4.5 0.161914,-2.73613 2.4,-5.6 0.137109,-0.16934 0.25,-0.35 l 2.3,-26.2 q -0.02891,0.4248 -0.1,0.85 -0.4,2.35 -1.4,4.45 -1.613672,3.26738 -3.7,4.25 m -1.7,24.5 q 0.05,0 0.05,-0.1 5.3,3.65 0.05,9.85 -2.85,3.4 -6.05,0.15 0.05,-6.9 5.95,-9.9 m 114.05,98.65 q 1.6,2.75 0.25,5.7 -0.6,1.3 -1.65,2.35 -3.65,10.05 -12.7,3.6 -2.3,-1.6 -2.1,-4.4 -4.95,-5.8 0.25,-11.2 1.9,-1.95 4.35,-2 8.1,-0.35 11.6,5.95 m -15.25,22 q -0.65,0.95 -2,1.1 -7.35,0.8 -6.15,-6.05 0.65,-1 1.7,-1.6 1.15,-0.7 2.1,-0.8 8.6,1.3 4.35,7.35 m 0.2,5.25 q 1.75,-1.1 3.45,-1.2 12.95,0.3 13.4,12 0,0.8 -0.45,1.65 -1.9,3.35 -5.7,3.8 -6.8,0.9 -13.05,-1.4 -4.7,-1.7 -3.7,-6.5 1.05,-5.25 6.05,-8.35 M 198,476.25 q 0.6,-0.15 1.2,-0.25 5.9,2.6 3.85,9.6 -0.55,1.75 -2,3 -4.4,3.75 -6.05,-1.8 -1.8,-6.15 2.4,-10.4 0.3,-0.1 0.6,-0.15 M 128.6,443.6 q 0.9,-0.1 1.8,-0.3 l 0,-0.1 q 2.20488,0.87871 3.1,1.9 5.88496,2.68008 0.45,6.65 -2.4,1.8 -4.1,-0.7 -0.0508,-0.0744 -0.1,-0.15 -1.27637,0.0555 -2.3,-1.45 -2.35,-3.45 1.15,-5.85 m -26.45,-26.2 q 0.05,0.3 0.05,0.6 -2,4.45 -5.8,1 -0.5,-1.5 0.4,-2.9 0.4,-0.6 1,-1.1 0.2,-0.1 0.4,-0.15 0.5,-0.05 1,-0.15 l 0,-0.1 q 2.55,0.35 2.95,2.8 m 4.65,2.05 q 0.6,-0.15 1.2,-0.25 3.15605,1.42246 3.75,3.35 2.24297,2.24687 -1.8,5.2 -0.17539,0.13145 -0.35,0.25 -0.0963,0.0945 -0.2,0.2 -5.8,5.9 -8.1,-1.15 -0.5,-1.65 0.75,-3 2.05,-2.25 4.15,-4.45 0.3,-0.1 0.6,-0.15 M 92,429 q 2.1,9.25 -7.6,9.3 -2.5,0 -4.55,-1.5 -5.6,-4.15 -4.25,-11 -5.05,-4.4 -2,-9.95 1.95,-3.5 5.6,-3.65 13.65,-0.6 14.15,12 0.1,2.6 -1.35,4.8 m 26.4,-7.9 0,-0.1 q 5.6,3.35 1.1,8.55 -0.4,0.45 -1.1,0.65 -1.75,-0.2 -2.8,-1.6 -0.35,-1.75 -0.25,-3.6 0.05,-0.9 0.05,-1.8 0.75,-2.05 3,-2.1 M 105,445.4 q -5.75,-4.4 -2.4,-10.45 1.9,-3.35 5.4,-3.55 11.6,-1.65 12.7,8.5 0.25,2.15 -0.45,4.3 -1.2,3.55 -3.85,5.95 -5.25,4.75 -10,-0.7 -1.55,-1.75 -1.4,-4.05 m -16.65,6.8 q 0,1.5 -1,2.8 -4.1,5.25 -7.65,-0.4 -0.65,-0.95 -0.5,-2.2 -3.85,-0.9 -3.65,-5 0.1,-1.95 1.85,-3 0.9,-0.1 1.8,-0.3 l 0,-0.1 q 9.15,-0.85 9.15,8.2 m 10.3,24.3 q -8.1,1.45 -9.3,-6.25 -1.7,-10.6 7.45,-13.25 8.35,2.6 8.35,12 0,6.35 -6.5,7.5 M 126.8,469 q 0.6,-0.1 1.2,-0.2 9.05,-1.9 12.95,4.6 0.75,1.2 -0.4,2.3 -3.65,3.4 -8.9,2.2 -2.95,-0.65 -5.95,-1 -5.7,-0.7 -2.8,-5.4 1.3,-2.05 3.9,-2.5 M 71.2,396.8 q 7.1,3.6 1.9,10.35 -4.75,6.1 -7.75,-0.4 -0.55,-1.25 -0.55,-2.75 0.1,-6.15 6.4,-7.2 M 89,270.3 88.85,269.85 q -0.01797,0.003 -0.05,-0.05 0.03203,0.0646 0.05,0.1 l 0.15,0.4 m -5.45,-9.35 q -0.9,-0.1 -2.1,-0.25 -5.667187,-0.62441 -6.8,-6.65 L 74.7,254 q -0.02227,-0.056 -0.05,-0.15 -0.05254,-0.13926 -0.05,-0.3 l 0.45,-11 q 0.0045,-0.25742 0.15,-0.5 0.151953,-0.23027 0.4,-0.35 0.249805,-0.12207 0.5,-0.1 l 4.25,0.35 q 0.692383,-3.33105 -0.6,-5.15 -1.368945,-1.76445 -4.85,-2 -0.0125,0.002 -0.05,0 -4.050391,0.12559 -5.7,1.9 -1.318555,1.66484 -0.85,4.65 l 3.35,-0.2 q 0.3625,-0.0279 0.65,0.15 0.282813,0.18398 0.4,0.5 0.10625,0.32305 0,0.65 l -3,9.9 q 1.85,3.1 2.75,5.25 -1.6,-1.6 -3.75,-1.85 -2.2,-0.2 -2.85,1 -0.65,1.1 -1.55,1.8 -1.3,0.9 -3.9,0.45 -4.9,-0.9 -8.45,1.8 0.0959,0.12246 0.15,0.25 0.10293,0.32305 0,0.6 -1.391602,5.14668 -3.45,9.9 l -3.75,7.4 q -0.138086,0.24414 -0.3,0.45 l 0.05,0.05 q -0.15,1 -0.3,2 -1.3,8.65 -7.7,13.45 -2.821094,1.39629 -4.2,1.1 -1.546875,-0.27246 -1.65,-0.3 -0.03848,-0.01 -0.1,-0.05 -0.03633,0.004 -0.1,-0.05 l -1.7,-0.65 q -0.08809,-0.0291 -0.2,-0.1 -3.29043,-1.39805 -6.65,-0.75 l 0,0 q -2.955469,0.73945 -2.8,4.1 l 0,0 q 0.215234,7.14668 -1.65,10.25 -0.144922,0.28594 -0.45,0.4 -0.289844,0.15078 -0.6,0.05 -0.785352,-0.0287 -1.15,1.15 -0.01133,0.0742 -0.05,0.1 -0.167773,0.51719 -0.05,0.9 0.831836,0.7666 0.95,0.8 3.136133,1.24199 6.75,0.25 3.458984,-0.90977 6.05,-3.25 l 0,0 q 3.245898,-2.99219 7.8,-2.45 l 0,0 q 0.87832,0.0916 1.6,0.05 0.888281,-0.0113 1.45,-0.5 0.06504,-0.0318 2.65,-2.35 -0.791602,2.49746 -1.3,3.3 -0.518555,0.80762 -0.75,0.95 -0.04824,1.48633 -0.65,2.05 -5.86e-4,0.05 -0.05,0.05 -0.616211,0.70937 -1.1,1.3 0.202344,1.88789 -0.85,2.6 -0.317383,0.37285 -0.85,0.5 0.01934,0.22832 0,0.45 -0.05879,1.02676 -0.3,1.7 1.036914,-0.72969 1.85,-2 l 0,0 q 2.064258,-3.32109 4.85,-6.1 l -0.05,0 q 3.018359,-3.04844 7.45,-3.55 l 0.05,0 q 3.625977,-0.45391 7.1,-0.1 0.517773,0.0813 1,0.15 l -0.05,-0.25 q 3.65,-1.05 7.4,-1.3 14.35,-2 17.2,-14.95 l 0.1,0.05 q -0.01543,-0.0934 -0.05,-0.2 -0.01426,-0.002 -0.05,-0.05 l 0.05,0.05 q 0.817578,0.74395 1.25,2.1 l -0.05,-0.1 q 0.04648,0.05 0.05,0.1 1.625977,3.80547 1.1,7.95 -0.571289,4.45781 -4.4,6.7 -2.511328,1.48828 -5.5,1.9 0.172461,0.19121 0.25,0.45 0.02109,0.0672 0.05,0.1 0.245898,-0.008 0.5,-0.05 7.289453,2.64102 8.45,9.35 l 2.8,-5.95 q -0.34668,-0.30937 -0.7,-0.7 -1.15,-1.25 -0.85,-3.1 0.1,-0.6 0.3,-1.2 -0.65,-2.05 -0.55,-4.2 0,-1.07363 0.25,-2.1 0.07617,-1.71211 2.1,-3.1 0.9,-0.1 1.8,-0.3 l 0,-0.1 -1.05,-22 q -0.05801,-0.17793 -0.1,-0.3 -1.572461,-2.16543 -1.95,-3.75 -0.331445,-1.5873 -0.2,-2.25 l 0,-0.05 q 0.516992,0.36621 0.65,0.55 0.149219,0.11523 0.3,0.2 2.136328,1.58496 12.1,3.2 l 0.05,0 q 7.0584,0.89121 10.8,2.4 -5.34629,-15.69316 -26.05,-11.2 -0.389063,0.11855 -0.75,-0.1 -0.210937,-0.1373 -0.35,-0.35 -0.225195,-1.00332 -0.3,-1.25 0.0096,-0.0799 0,-0.15 m -22,8.95 q 2.876758,-3.31914 7.3,-3.6 2.391016,-0.14688 4.45,0.6 1.743359,0.68906 3.25,2 3.255273,2.86953 3.55,7.25 l 0,0.05 q 0.01621,0.24648 0,0.5 l 4.35,0 q -1.256445,1.25723 -5.3,2.05 l -0.05,0 q -0.04297,0.002 -0.1,0 l -0.05,0 q -0.443555,2.46875 -2.2,4.45 -1.223242,1.42305 -2.75,2.2 -1.730273,0.93281 -3.85,1.05 -3.981836,0.28613 -6.95,-2.35 -2.001758,-1.73281 -2.8,-4.1 -3.910742,-0.0324 -6.25,0.3 1.054102,-1.03457 4.85,-2.25 -0.03398,-0.19746 -0.05,-0.45 l 0,0 q -0.270313,-4.40117 2.6,-7.7 M 34.1,301.55 q 0.45,0.2 0.9,0.5 0.1,0 0.15,0.15 -2,1.2 -4.55,1.3 -2.15,0.15 -4.3,1.25 -0.6,0.3 -1.15,0.6 l 0,-0.05 q 1.05,-1.8 2.95,-2.9 2.4,-1.4 4.9,-1 0.55,0.05 1.1,0.15 z"
         id="path15857"
         inkscape:connector-curvature="0"
         style="fill:#ffcc00;stroke:none" />
      <path
         d="m 65.6,432.1 q -0.825,0.1834 -1.65,0.25 l 1.55,7.25 q 0.599414,-0.16211 1.25,-0.65 5.75,-4.2 -1.15,-6.95 l 0,0.1 m 137.05,17.3 0.2,0.15 q -0.12207,-0.0781 -0.2,-0.15 -0.0303,-0.0271 -0.05,-0.05 l 0.05,0.05 m -36.6,4.6 q -0.0211,-4.45547 -2.25,-6.75 -3.01191,-3.17754 -10.2,-2.25 -1.25137,0.24199 -2.45,0.55 -0.1584,0.0902 -0.35,0.15 -0.71445,-0.22969 -1.55,-0.4 L 147.2,445 q -1.45,0.15 -3.1,0.95 -2.05,1 -2.7,3.05 -0.67969,2.1541 -0.65,3.8 -1.2709,1.76152 -2.25,3.85 -0.9,1.85 0.1,3.6 4.8,8.75 12,1.95 1.4,-1.3 3.15,-1.7 4.1,-0.85 8.3,-1.75 4,-0.8 4,-4.75 m 13.2,-8.3 -6.85,0.2 q 0.26035,0.57793 0.65,1.15 1.7,2.5 4.1,0.7 1.46504,-1.07012 2.1,-2.05 m 6,0.6 q 0.79531,1.2084 2.3,2.1 4.95,2.9 9.45,6.5 6.11074,5.01152 10.8,0 -0.19609,-0.26895 -0.8,-1.1 l -0.25,0.2 q -0.95,-0.75 -1.95,-1.5 -8.75,-6.35 -19.55,-6.2 M 201,465.6 q 0,0.3 0,0.6 0,0.6 0.05,1.2 0.05,0.6 0.15,1.2 0.6,0.6 1.1,1.25 0.2,0.25 0.3,0.55 0,0.9 -0.05,1.8 -0.05,0.95 0.25,1.8 0.5,0.6 0.95,1.2 1.35,1.75 3.4,1.55 3.40293,-0.34277 4.45,-2.3 -0.10293,-0.65742 -0.25,-1.3 -0.1,-0.35 -0.15,-0.65 -0.35,-1.6 -0.6,-3.25 l 0.55,-0.7 -1.4,-1.35 q -2.51289,-2.44395 -5.75,-3.8 -0.7,0.2 -1.35,0.5 -1.25,0.5 -1.65,1.7 m -25,-24.8 0,0.1 0.05,-0.1 q -0.024,0.0104 -0.05,0 M 82.95,348.45 q -0.112891,0.18066 -0.25,0.35 -2.238086,2.86387 -2.4,5.6 -0.07891,2.30215 1.3,4.5 l 1.35,-10.45 M 71.35,380 q -0.2,2.65 1.7,4.2 1.166797,0.95703 2.25,1.6 4.491406,2.63945 7.7,0 0.44707,-0.34238 0.85,-0.8 l -1.2,-16.9 q -0.845117,-0.38184 -1.85,-0.7 -8.7,2.65 -9.45,12.6 m 9.05,15.45 q -0.3,0.05 -0.6,0.15 -1.4,0.75 -1.95,2.2 -0.55,1.5 -0.65,2.95 -0.35,3.15 2.15,4.95 4.05,2.9 9.45,1.6 4.65,-1.15 3.45,-5.75 -0.251953,-0.97227 -0.65,-1.8 l -1.9,-2.55 q -2.768555,-2.36152 -8.1,-2 l 0,0.1 q -0.6,0.1 -1.2,0.15 m -7.3,11.7 q 5.2,-6.75 -1.9,-10.35 -6.3,1.05 -6.4,7.2 0,1.5 0.55,2.75 3,6.5 7.75,0.4 M 128,468.8 q -0.6,0.1 -1.2,0.2 -2.6,0.45 -3.9,2.5 -2.9,4.7 2.8,5.4 3,0.35 5.95,1 5.25,1.2 8.9,-2.2 1.15,-1.1 0.4,-2.3 -3.9,-6.5 -12.95,-4.6 m -38.65,1.45 q 1.2,7.7 9.3,6.25 6.5,-1.15 6.5,-7.5 0,-9.4 -8.35,-12 -9.15,2.65 -7.45,13.25 m -2,-15.25 q 1,-1.3 1,-2.8 0,-9.05 -9.15,-8.2 l 0,0.1 q -0.9,0.2 -1.8,0.3 -1.75,1.05 -1.85,3 -0.2,4.1 3.65,5 -0.15,1.25 0.5,2.2 3.55,5.65 7.65,0.4 m 15.25,-20.05 q -3.35,6.05 2.4,10.45 -0.15,2.3 1.4,4.05 4.75,5.45 10,0.7 2.65,-2.4 3.85,-5.95 0.7,-2.15 0.45,-4.3 -1.1,-10.15 -12.7,-8.5 -3.5,0.2 -5.4,3.55 m 15.8,-13.95 0,0.1 q -2.25,0.05 -3,2.1 0,0.9 -0.05,1.8 -0.1,1.85 0.25,3.6 1.05,1.4 2.8,1.6 0.7,-0.2 1.1,-0.65 4.5,-5.2 -1.1,-8.55 m -34,17.3 q 9.7,-0.05 7.6,-9.3 1.45,-2.2 1.35,-4.8 -0.5,-12.6 -14.15,-12 -3.65,0.15 -5.6,3.65 -3.05,5.55 2,9.95 -1.35,6.85 4.25,11 2.05,1.5 4.55,1.5 M 108,419.2 q -0.6,0.1 -1.2,0.25 -0.3,0.05 -0.6,0.15 -2.1,2.2 -4.15,4.45 -1.25,1.35 -0.75,3 2.3,7.05 8.1,1.15 0.10371,-0.10547 0.2,-0.2 0.17461,-0.11855 0.35,-0.25 4.04297,-2.95313 1.8,-5.2 -0.59395,-1.92754 -3.75,-3.35 m -5.8,-1.2 q 0,-0.3 -0.05,-0.6 -0.4,-2.45 -2.95,-2.8 l 0,0.1 q -0.5,0.1 -1,0.15 -0.2,0.05 -0.4,0.15 -0.6,0.5 -1,1.1 -0.9,1.4 -0.4,2.9 3.8,3.45 5.8,-1 m 28.2,25.3 q -0.9,0.2 -1.8,0.3 -3.5,2.4 -1.15,5.85 1.02363,1.50547 2.3,1.45 0.0492,0.0756 0.1,0.15 1.7,2.5 4.1,0.7 5.43496,-3.96992 -0.45,-6.65 -0.89512,-1.02129 -3.1,-1.9 l 0,0.1 m 68.8,32.7 q -0.6,0.1 -1.2,0.25 -0.3,0.05 -0.6,0.15 -4.2,4.25 -2.4,10.4 1.65,5.55 6.05,1.8 1.45,-1.25 2,-3 2.05,-7 -3.85,-9.6 m -18.4,5 q -1.7,0.1 -3.45,1.2 -5,3.1 -6.05,8.35 -1,4.8 3.7,6.5 6.25,2.3 13.05,1.4 3.8,-0.45 5.7,-3.8 0.45,-0.85 0.45,-1.65 -0.45,-11.7 -13.4,-12 m -5.65,-2.95 q 1.35,-0.15 2,-1.1 4.25,-6.05 -4.35,-7.35 -0.95,0.1 -2.1,0.8 -1.05,0.6 -1.7,1.6 -1.2,6.85 6.15,6.05 m 17.5,-17.4 q 1.35,-2.95 -0.25,-5.7 -3.5,-6.3 -11.6,-5.95 -2.45,0.05 -4.35,2 -5.2,5.4 -0.25,11.2 -0.2,2.8 2.1,4.4 9.05,6.45 12.7,-3.6 1.05,-1.05 1.65,-2.35 M 78.4,356.2 q 0,0.1 -0.05,0.1 -5.9,3 -5.95,9.9 3.2,3.25 6.05,-0.15 5.25,-6.2 -0.05,-9.85 m -1.6,-48.8 q -0.254102,0.0424 -0.5,0.05 1.585742,5.18359 1.7,12.3 0.09004,5.50234 -0.7,12.15 -0.01387,0.13672 -0.05,0.2 1.492578,0.31484 2.8,-0.3 2.086328,-0.98262 3.7,-4.25 1,-2.1 1.4,-4.45 0.07109,-0.4252 0.1,-0.85 0.202539,-1.29648 0.2,-2.5 0.05059,-1.59004 -0.2,-3 -1.160547,-6.70898 -8.45,-9.35 m 13.6,-11.3 q -0.9,0.2 -1.8,0.3 -2.023828,1.38789 -2.1,3.1 -0.25,1.02637 -0.25,2.1 -0.1,2.15 0.55,4.2 -0.2,0.6 -0.3,1.2 -0.3,1.85 0.85,3.1 0.35332,0.39063 0.7,0.7 l 2.35,-14.7 m 0.05,-0.1 q -0.02383,0.0104 -0.05,0 l 0,0.1 0.05,-0.1 m -2.45,30.7 0.05,-0.1 -0.05,0 0,0.1 m -29.1,-74.35 -0.1,0.25 q 0.373633,-0.0236 0.7,-0.05 -0.285547,-0.10898 -0.6,-0.2 m -2.4,-17.95 -0.05,0 q -3.29375,1.39023 -4.1,3.6 -0.614063,2.02187 0.75,4.75 l 3.1,-0.8 q 0.274805,-0.0434 0.55,0.05 0.283398,0.0834 0.45,0.3 0.211328,0.23184 0.25,0.5 l 0.75,5.65 q 1.166602,-0.44668 2.25,-0.7 L 58.8,241.8 q -0.03769,-0.26309 0.05,-0.55 0.07363,-0.23887 0.25,-0.45 0.229687,-0.16738 0.5,-0.25 l 3.35,-0.7 q 0.54707,-3.23828 -0.05,-5 -0.479687,-1.43223 -2.05,-1.5 l -0.05,0 q -0.532422,-0.0381 -1.2,0.05 l 0.05,-0.05 q -1.328516,0.27266 -3.15,1.05 z"
         id="path15859"
         inkscape:connector-curvature="0"
         style="fill:#946f01;stroke:none" />
      <path
         d="m 63.95,432.35 q -0.075,0.0416 -0.15,0.05 -1.979688,1.35762 -2.1,3.05 -0.01836,0.55723 0.15,1.15 0.216016,0.79277 0.8,1.65 1.239258,1.82227 2.85,1.35 l -1.55,-7.25 m 120.95,7.85 q -0.17266,0.53926 -0.3,1.1 -0.69141,2.95371 0.65,5 10.8,-0.15 19.55,6.2 1,0.75 1.95,1.5 l 0.25,-0.2 q -0.14102,-0.1918 -0.25,-0.35 -0.0801,-0.0426 -0.2,-0.15 -0.50059,-0.6375 -1.1,-1.3 -1.17871,-1.27246 -2.6,-2.45 l -0.2,-0.15 q -5.82422,-4.82695 -12.75,-7.55 -0.0518,-0.007 -0.15,-0.05 -0.0662,-0.0549 -0.2,-0.1 -0.0772,0.0115 -0.2,-0.05 -2.10098,-0.84453 -4.3,-1.4 l 0,0 q -0.077,0.004 -0.15,-0.05 m -8.9,0.7 q -0.9,0.2 -1.8,0.3 -2.91953,2.00195 -1.8,4.7 l 6.85,-0.2 q 1.88242,-2.83613 -3.2,-4.9 L 176,440.9 M 83.85,385 q 1.498047,-1.58867 2.7,-4.45 3.775781,-8.99004 -3.9,-12.45 l 1.2,16.9 m 7.25,-43.15 0,-0.05 q 0.06289,-0.49922 0.15,-1.1 0.06738,-0.23359 0.2,-0.45 -0.08535,-0.20684 -0.05,-0.5 0.01934,-0.12402 0.05,-0.3 l -0.05,0 q -0.08984,-0.0152 -0.2,-0.05 -6.05,0.8 -7.35,6.9 -0.251562,1.21621 -0.9,2.15 L 81.6,358.9 q 0.39375,0.63574 0.9,1.25 2.802148,3.40254 6.45,2.25 0.03184,-0.19355 0.05,-0.45 0.02187,-0.23984 0.15,-0.45 -0.118164,-0.23672 -0.1,-0.55 0.25,-3.13711 0.6,-6.65 0.598437,-5.75117 1.45,-12.45 M 90.45,296 l -0.05,0.1 -2.35,14.7 q 4.213672,4.03672 6.25,-2.35 0.771875,-2.47031 0.7,-4.55 -0.08281,-2.01797 -1,-3.65 0.93418,-2.42676 -3.55,-4.25 M 88,326.7 q -0.5,0.1 -1,0.15 -0.2,0.05 -0.4,0.15 -0.6,0.5 -1,1.1 -0.45,0.7 -0.55,1.4 -0.1,0.75 0.15,1.5 0.318359,0.28906 0.6,0.5 0.01191,0.1623 0,0.3 -0.06738,1.17422 0.2,2.4 0.7,0.6 1.5,0.9 1.1,0.4 1.8,-0.15 2.031641,-1.64473 2.4,-3.15 0.393945,-1.49355 -0.85,-2.85 -0.532227,-2.01191 -2.8,-2.35 L 88,326.7 z"
         id="path15861"
         inkscape:connector-curvature="0"
         style="fill:#634901;stroke:none" />
      <path
         d="m 119.35,489.7 q -2.96348,-1.9248 -5.75,-4.75 -0.29766,3.29336 -0.95,6.55 -0.59297,3.07715 -1.75,6 -0.006,0.084 -0.05,0.15 1.56016,0.89043 3.1,1.7 2.25,0 3.85,-2.8 1.6,-2.8 1.55,-6.85 m 48,11.05 0.85,-0.45 q -3.32129,-3.46133 -5.45,-7.4 -0.76035,0.54297 -2.25,0.6 l 6.15,7.7 q 0.18203,-0.0439 0.35,-0.05 0.12246,-0.23359 0.35,-0.4 z"
         id="path15863"
         inkscape:connector-curvature="0"
         style="fill:#fdd04d;stroke:none" />
      <path
         d="m 178.7,581.35 0,-0.05 q -0.0734,0.16797 -0.2,0.3 l 0.2,-0.25 M 77.2,332.9 q 0.03887,-0.2668 -0.1,-0.55 -0.03027,-0.0613 -0.1,-0.15 l 0.2,0.7 m 7.6,-42.55 0,0 q -0.0035,-0.05 -0.05,-0.1 l 0.05,0.1 z"
         id="path15865"
         inkscape:connector-curvature="0"
         style="fill:#ff0000;stroke:none" />
      <path
         d="m 166.55,501.25 q 0.0609,-0.008 0.1,-0.05 l -6.15,-7.7 q -1.61699,0.12187 -4.1,-0.35 -7.6,-1.5 -15.3,0.2 -12.08613,2.60039 -21.75,-3.65 0.05,4.05 -1.55,6.85 -1.6,2.8 -3.85,2.8 28.07246,14.61738 52.6,1.9 z"
         id="path15867"
         inkscape:connector-curvature="0"
         style="fill:#fede81;stroke:none" />
      <path
         d="m 250.2,494.8 q 0.54453,-1.61113 1.5,-3.15 0.0311,-0.0793 0.05,-0.15 -6.1625,0.33184 -12.35,9.65 l 0,-3.65 q -0.74551,0.70742 -1.45,1.35 -6.93535,6.79941 -8.45,10.15 -0.50938,1.19395 -0.65,2.3 -0.0371,0.63555 0.05,1.25 0.19434,1.57109 1.35,2.95 -0.3627,0.043 -0.7,0.05 0.99922,1.9752 3.5,1.25 0.0549,-0.0301 0.1,-0.1 0.0467,0.0353 0.1,0.05 l 0.2,-0.5 q -2.94844,-4.36445 0.55,-7.15 3.32207,-2.5498 4.55,-4.4 1.5502,1.26582 3.2,2.35 0.4,-3.5 2.9,-6 2.76191,-2.66328 5.35,-5.7 0.10898,-0.26641 0.2,-0.55 z"
         id="path15869"
         inkscape:connector-curvature="0"
         style="fill:#433201;stroke:none" />
      <path
         d="m 39.05,308.4 q -0.570703,0.0566 -0.65,0.05 -0.02617,0.1334 -0.1,0.2 -0.836328,0.9377 -1.45,1.75 -0.125781,0.16992 -0.2,0.35 -0.01797,0.22402 0,0.4 0.176758,0.85918 -0.05,1.2 -0.422266,0.22754 -1.4,0.05 -0.03438,-0.0113 -0.1,-0.05 -0.385742,-0.057 -0.75,0.15 -0.316406,0.20039 -0.45,0.55 -0.07012,0.41523 0.1,0.75 0.204687,0.37187 0.55,0.5 0.404297,0.13008 0.45,0.4 -0.06289,1.18301 -0.3,1.35 -0.738281,-0.0801 -2.35,-1.7 -0.217383,-0.22422 -0.55,-0.3 -0.288086,-0.0357 -0.6,0.1 -0.268555,0.14141 -0.45,0.4 -0.135156,0.30859 -0.1,0.6 0.07695,0.5875 -0.2,0.9 -0.02324,0.0119 -0.05,0 -0.552734,0.56758 -0.55,0.7 -0.301758,-0.45547 -0.3,-2.25 0.0051,-0.36758 -0.25,-0.65 -0.213867,-0.2707 -0.6,-0.35 -0.333398,-0.048 -0.65,0.1 -0.320508,0.20742 -0.45,0.55 -0.554687,1.56914 -1.5,2.2 l 0.05,-0.05 q -0.921484,0.48418 -2.2,-0.15 -0.366016,-0.38281 -1.1,-0.65 -0.394336,-0.13398 -0.8,0.05 -0.354492,0.16914 -0.5,0.55 -0.133984,0.39375 0.05,0.75 0.169727,0.4043 0.55,0.55 0.247852,0.0897 0.35,0.2 l 0.05,0 q 0.19668,0.30801 0.2,0.85 -0.0033,1.09648 -0.35,1.45 -0.49082,0.15293 -1.55,-0.35 l 0.05,0 q -1.919141,-0.95176 -2.9,-2 l 0,0 q -0.02715,-0.0246 -0.05,-0.05 -0.268945,-0.31035 -0.7,-0.35 -0.369922,-0.033 -0.7,0.2 -0.295703,0.27832 -0.35,0.65 -0.04687,0.42637 0.2,0.75 0.930273,1.26602 0.2,2.9 -0.03027,0.13965 -0.1,0.2 -2.444727,-1.56445 -1.9,-4.25 0.116406,-0.35703 -0.1,-0.7 -0.174609,-0.33633 -0.55,-0.45 -0.371875,-0.11777 -0.75,0.05 -0.329102,0.16602 -0.5,0.5 -0.148047,0.4498 -0.4,0.9 0.594336,-3.00762 2.75,-4.5 -0.770117,-0.64414 -1.2,-1.1 -0.178906,-0.11758 -0.3,-0.35 -2.717383,2.08828 -3.3,6.1 -0.4119141,3.00508 0.7,3.2 0.766992,0.5873 1.9,-0.6 0.662695,1.69434 2.6,2.95 l 0,0 q 1.047266,0.60801 1.85,0.15 0.709375,-0.21426 1.15,-1.3 0.4,-0.86816 0.5,-1.7 0.486719,0.31641 1.05,0.6 l 0,0 q 2.298828,1.10078 3.45,0.25 1.284766,-0.62793 1.3,-3.1 1.097852,-0.002 1.55,-0.4 0.386523,-0.33379 0.45,-0.25 -0.0041,-0.30859 0.6,-0.6 0.484375,-0.2377 1,-0.4 0.07187,0.26719 0.3,0.75 0.28125,0.50352 1.25,0.85 0.261914,-0.085 0.65,-0.25 0.441016,-0.10898 0.55,-0.4 0.166406,-0.24609 0.6,-0.2 0.06152,-0.0381 0.1,-0.1 l -0.05,0.05 q 0.322461,-0.25449 0.5,-0.6 0.557812,0.44688 1,0.7 0.125195,0.004 0.2,0 1.846094,-0.0687 3.25,-1.15 0.241211,-0.67324 0.3,-1.7 0.01934,-0.22168 0,-0.45 0.532617,-0.12715 0.85,-0.5 1.052344,-0.71211 0.85,-2.6 0.483789,-0.59063 1.1,-1.3 0.04941,0 0.05,-0.05 0.601758,-0.56367 0.65,-2.05 l -0.1,0 -0.35,0.25 q -0.363867,0.29648 -1,0.3 z"
         id="path15871"
         inkscape:connector-curvature="0"
         style="fill:#017801;stroke:none" />
      <path
         d="m 36.65,308.4 -0.05,0 q -3.604688,-0.4498 -6.2,1.9 l 0,0.05 q -2.95918,2.65996 -6.9,3.7 -4.286133,1.15781 -8,-0.35 -0.253711,-0.0832 -0.45,-0.3 -2.155664,1.49238 -2.75,4.5 0.251953,-0.4502 0.4,-0.9 0.170898,-0.33398 0.5,-0.5 0.378125,-0.16777 0.75,-0.05 0.375391,0.11367 0.55,0.45 0.216406,0.34297 0.1,0.7 -0.544727,2.68555 1.9,4.25 0.06973,-0.0604 0.1,-0.2 0.730273,-1.63398 -0.2,-2.9 -0.246875,-0.32363 -0.2,-0.75 0.0543,-0.37168 0.35,-0.65 0.330078,-0.23301 0.7,-0.2 0.431055,0.0396 0.7,0.35 0.02285,0.0254 0.05,0.05 l 0,0 q 0.980859,1.04824 2.9,2 l -0.05,0 q 1.05918,0.50293 1.55,0.35 0.34668,-0.35352 0.35,-1.45 -0.0033,-0.54199 -0.2,-0.85 l -0.05,0 q -0.102148,-0.11035 -0.35,-0.2 -0.380273,-0.1457 -0.55,-0.55 -0.183984,-0.35625 -0.05,-0.75 0.145508,-0.38086 0.5,-0.55 0.405664,-0.18398 0.8,-0.05 0.733984,0.26719 1.1,0.65 1.278516,0.63418 2.2,0.15 l -0.05,0.05 q 0.945313,-0.63086 1.5,-2.2 0.129492,-0.34258 0.45,-0.55 0.316602,-0.14805 0.65,-0.1 0.386133,0.0793 0.6,0.35 0.255078,0.28242 0.25,0.65 -0.0018,1.79453 0.3,2.25 -0.0027,-0.13242 0.55,-0.7 0.02676,0.0119 0.05,0 0.276953,-0.3125 0.2,-0.9 -0.03516,-0.29141 0.1,-0.6 0.181445,-0.25859 0.45,-0.4 0.311914,-0.13574 0.6,-0.1 0.332617,0.0758 0.55,0.3 1.611719,1.61992 2.35,1.7 0.237109,-0.16699 0.3,-1.35 -0.0457,-0.26992 -0.45,-0.4 -0.345313,-0.12813 -0.55,-0.5 -0.170117,-0.33477 -0.1,-0.75 0.133594,-0.34961 0.45,-0.55 0.364258,-0.20703 0.75,-0.15 0.06562,0.0387 0.1,0.05 0.977734,0.17754 1.4,-0.05 0.226758,-0.34082 0.05,-1.2 -0.01797,-0.17598 0,-0.4 0.07422,-0.18008 0.2,-0.35 0.613672,-0.8123 1.45,-1.75 0.07383,-0.0666 0.1,-0.2 -0.800977,0.0492 -1.75,-0.05 z"
         id="path15873"
         inkscape:connector-curvature="0"
         style="fill:#00cc00;stroke:none" />
      <path
         d="m 110.1,275.75 -0.05,0.05 0.05,0 0,-0.05 z"
         id="path15875"
         inkscape:connector-curvature="0"
         style="fill:#fe9c3a;stroke:none" />
      <path
         d="m 110.05,275.8 0.05,-0.05 0,0 -0.05,0.05 M 84.8,290.35 q -0.432422,-1.35605 -1.25,-2.1 L 83.5,288.2 q 0.03574,0.0484 0.05,0.05 0.03457,0.10664 0.05,0.2 0.764453,1.70098 0.3,7.4 -0.425977,5.69414 -3.4,7.45 -2.599609,1.52187 -5.8,1.75 l -7.2,0.3 q -0.278711,0.0129 -0.5,0.15 -0.199609,-0.0978 -0.45,-0.1 -4.168164,-0.005 -7.6,-0.5 -0.482227,-0.0687 -1,-0.15 -3.474023,-0.35391 -7.1,0.1 l -0.05,0 q -4.431641,0.50156 -7.45,3.55 l 0.05,0 q -2.785742,2.77891 -4.85,6.1 l 0,0 q -0.813086,1.27031 -1.85,2 -1.403906,1.08125 -3.25,1.15 -0.07481,0.004 -0.2,0 -0.758203,0.0244 -1.55,-0.05 -0.433594,-0.0461 -0.6,0.2 -0.108984,0.29102 -0.55,0.4 -0.388086,0.16504 -0.65,0.25 -0.96875,-0.34648 -1.25,-0.85 -0.228125,-0.48281 -0.3,-0.75 -0.515625,0.1623 -1,0.4 -0.604102,0.29141 -0.6,0.6 0.04277,0.0478 0.05,0.05 l 0,0.1 q 0.160742,-0.085 0.9,0.1 0.744531,0.1873 1.9,0.65 0.06894,0.043 0.1,0.05 0.03203,0.0641 0.05,0 0.02012,-0.007 0.7,0.25 0.198437,0.1041 0.4,0.2 1.123047,0.45332 2.65,0.4 4.19043,-0.0816 6.75,-4.05 l 0,-0.05 q 1.935742,-3.1291 4.55,-5.75 l 0,0 q 2.523633,-2.54336 6.25,-2.95 l 0,0 q 3.884961,-0.48184 7.6,0.05 3.568164,0.50508 7.9,0.5 0.305273,-0.003 0.55,-0.2 0.223047,0.15762 0.5,0.15 l 6.8,-0.3 0.1,0 q -0.04434,0.0662 -0.1,0.1 -0.170508,0.4 -0.05,0.8 1.526172,4.95195 1.65,11.8 0.08066,5.37793 -0.7,11.9 -0.02773,0.3125 0.1,0.55 -0.160156,0.21152 -0.2,0.45 -0.400195,2.96289 -0.9,6.2 l 0,-0.05 0,0.05 q -1.029102,5.92852 -3.1,15.3 l 0,0.05 q -1.628711,7.54102 -3.9,17.2 -1.125,4.8248 -2.4,10.15 -0.425195,2.0375 -0.85,4.05 -5.101953,25.26816 -5,42.85 0.06074,12.2957 3.6,23.3 3.530469,11.00781 6.95,16.15 1.741602,2.5584 2.45,3.65 l 0.2,0.4 q -0.172852,-0.28633 -0.35,-0.6 0.638281,1.67148 1.05,2.65 l 4.3,10 0.05,0 q 0.355273,0.75859 0.75,1.45 2.143359,3.97598 5.3,7.35 l 0,0 q 4.208789,4.66992 6.25,11.8 1.738477,6.1918 -0.35,12.1 -0.295898,0.85449 -0.7,1.7 0.0023,0.0531 -0.05,0.1 -0.02832,0.0941 -0.1,0.2 -3.162109,7.4918 2.6,12.5 0.235742,0.20664 0.5,0.25 0.09355,0.28457 0.3,0.5 0.374805,0.31914 0.7,0.6 3.602148,3.5002 4,6.05 0.547266,8.05 0.35,16.1 -0.196289,5.70078 -3.75,10.95 -2.057617,3.08809 -0.95,5.75 l 0,0 q -2.535156,1.46934 -5.3,3.95 -0.171289,0.18242 -0.25,0.4 -0.196875,0.0551 -0.4,0.15 -0.663477,0.51621 -1.3,1.1 -1.11875,1.0293 -2.1,2.35 -2.167188,2.8084 -1.9,4.6 0.03105,0.2957 0.2,0.5 0.226758,0.26074 0.5,0.35 2.074609,0.62832 4.65,1 l 0,0 q 8.961523,1.23828 18,-2.1 0.35098,-0.13535 0.5,-0.5 0.21074,-0.3209 0.1,-0.7 -1.03906,-4.28789 -1.1,-5.75 l 0,-0.05 q -0.20605,-2.42227 0.8,-4.15 3.95859,-1.60039 4.75,-3.65 l 0,-0.05 q 3.14512,-8.05371 -4.15,-12.35 -0.44707,-4.34102 0.2,-8.85 1.13828,-7.67402 0.15,-15.5 0.71016,-0.88926 1.3,-2.15 l 0,0 q 3.92461,-9.14707 -4.25,-13.4 0.0107,-5.93047 3.85,-11.15 l 0.05,0 0,0 q 2.13906,-2.74062 3.6,-5.9 30.41875,17.21582 56.85,3.75 0.2793,-0.13379 0.55,-0.3 0.26953,-0.11094 0.4,-0.35 0.24941,-0.003 0.45,-0.15 l 1.1,-0.6 q 0.10234,-0.0184 0.15,-0.1 2.40937,3.51875 4.5,7.4 2.33848,4.26602 6.85,8.4 4.50664,3.97207 9.65,6.85 l 0,0 q 4.50195,2.51484 9.55,4.05 0.0225,0.0316 0,0.05 -2.45645,6.3457 0.8,10.85 0.45762,0.64316 1.15,1.15 -1.02168,4.63828 -2.3,8.75 -4.30527,13.97422 -11.2,22 -0.95,0.85 -1.05,2.3 -0.05,1 0,2 l -2.8,0.75 q -1.95371,0.84102 -3.65,2.25 l 0,0.05 q -1.29844,1.13281 -2.35,2.7 l -0.2,0.25 q -1.79492,2.83906 -1.95,6.5 -0.0164,0.2918 0.1,0.55 0.16953,0.24609 0.4,0.35 0.28477,0.1666 0.55,0.15 1.64375,-0.12539 3.05,0.6 0.26152,0.13613 0.55,0.1 0.25625,-0.027 1,-0.05 l 5.15,-0.25 q 0.28535,-0.0137 0.5,-0.15 0.23125,0.10723 0.5,0.1 5.05254,-0.20469 9.65,-1.75 0.0375,0.0125 0.05,0 1.43301,-0.38926 1.85,-1.35 l 0,-0.05 q 1.95234,-4.31973 -0.2,-8.75 -0.12344,-0.24707 -0.35,-0.4 0.12441,-0.47129 0.7,-0.9 0.0244,-0.0254 0.05,-0.05 3.55449,-3.01172 7.45,-5 3.8793,-1.97422 2.4,-6.4 -1.38457,-3.87012 -2.45,-8.8 -0.96309,-4.60938 0.6,-8.75 l 0,0 q 1.7418,-4.30098 5,-7.25 2.79707,-2.51523 4.1,-6.1 2.08906,-5.3709 -1.7,-10.1 -0.06,-0.09 -0.2,-0.2 -8.9748,-6.10254 -10.4,-13.05 -1.02988,-5.14824 2.1,-12.8 0.0143,7.8e-4 0,-0.05 4.2957,-9.08516 5.65,-13.75 l 0,0.05 q 1.86504,-6.16934 0.6,-11.4 l -0.5,-2.25 1.9,0.05 q 3.52852,0.54023 4.9,3.75 2.03047,4.94141 -0.4,15.6 -3.44453,15.54219 -0.2,25.65 2.19512,6.95801 7.2,7.65 4.60937,0.85898 11.6,-3.9 0.11738,0.15723 0.25,0.25 4.22207,2.5293 8.85,2.1 3.33789,-0.24492 4.85,-4.15 1.50039,-3.85293 0.5,-7.8 -0.98809,-3.89375 0.45,-12.6 -1.29023,1.57266 -2.75,5.6 -0.86133,-3.7541 0.1,-7.25 -2.58809,3.03672 -5.35,5.7 -2.5,2.5 -2.9,6 -1.6498,-1.08418 -3.2,-2.35 -1.22793,1.8502 -4.55,4.4 -3.49844,2.78555 -0.55,7.15 l 0.95,-1.85 q 0.66211,-2.74414 1.55,-5.45 0.1,1.95 1.3,3.5 0.7,0.9 2.2,0.65 -0.5998,0.98789 -1.45,1.9 l -1.25,2.5 -0.05,0 q -6.20391,4.24297 -10.25,3.65 -3.84492,-0.70684 -5.6,-6.3 -3.05527,-9.69238 0.25,-24.6 2.61953,-11.49141 0.3,-16.85 -1.95781,-4.86113 -7.6,-5.05 l -2.65,0.2 -0.55,0.7 q 0.25,1.65 0.6,3.25 0.05,0.3 0.15,0.65 0.14707,0.64258 0.25,1.3 0.60859,4.17578 -0.85,9 l 0,0 q -1.34199,4.57227 -5.55,13.5 -0.0119,0.0502 -0.05,0.05 -3.4168,8.36582 -2.2,14 1.41777,7.61641 11.1,14.25 2.93145,3.74883 1.3,8 -1.14707,3.11523 -3.6,5.3 -3.59199,3.25078 -5.5,8 l 0,0.05 q -1.78691,4.65937 -0.7,9.85 1.08437,5.07012 2.5,9.05 0.9207,2.72422 -1.4,3.95 -4.0752,2.09629 -7.8,5.25 -1.40293,1.05508 -1.5,2.35 -0.0398,0.40508 0.2,0.7 l 0.05,0.05 q 0.0889,0.10762 0.2,0.15 -0.0232,0.29473 0.1,0.55 1.74746,3.56973 0.2,7.05 l 0,-0.05 q -0.16914,0.21289 -0.6,0.3 -0.0367,0.0369 -0.1,0.05 -4.34395,1.45645 -9.15,1.65 -0.27168,0.0127 -0.5,0.15 -0.21797,-0.11699 -0.5,-0.1 l -4.7,0.2 q 1.24434,-3.77813 2.3,-5.5 -2.97598,1.75977 -4.35,5.25 -0.89004,-0.29316 -1.85,-0.35 0.31777,-2.6123 1.7,-4.7 l 0,0 q 0.89844,-1.3332 2,-2.3 l 0,0 q 1.93672,-1.62012 4.3,-2.3 1.35,-0.15 2.7,-0.3 2,-0.4 4,-0.75 l -3.75,-1.45 -0.35,-1.75 1.8,-2.15 q 4.52969,-5.64551 7.9,-13.9 0.15039,-0.37246 0.3,-0.75 2.89043,-7.2582 4.9,-16.5 0.10176,-0.29629 -0.05,-0.6 -0.1127,-0.30547 -0.4,-0.5 -0.73438,-0.3959 -1.15,-0.95 -2.50918,-3.62031 -0.75,-8.7 0.25781,-0.59668 0.55,-1.25 0.13223,-0.26504 0.1,-0.55 -0.0498,-0.28379 -0.25,-0.5 -0.19434,-0.22012 -0.5,-0.3 -5.41777,-1.57402 -10.2,-4.25 l 0.05,0 q -4.95645,-2.77187 -9.3,-6.6 -4.23887,-3.86621 -6.45,-7.85 -0.50117,-0.95137 -1.05,-1.9 -1.90254,-3.34219 -4.05,-6.4 -0.032,-0.0555 -0.1,-0.15 -3.92285,-3.74824 -6.2,-8.15 l -0.05,-0.05 q -4.69727,-11.60645 -4.4,-15.65 0.28887,-3.98984 0.25,-4.2 -0.82051,0.24004 -1.25,4.9 l 0,0 q -0.0582,0.5127 -0.1,1.05 -0.44043,5.68086 3.75,14.85 l 0,0 q 0.0885,0.17148 0.15,0.35 2.12871,3.93867 5.45,7.4 l -0.85,0.45 q -0.22754,0.16641 -0.35,0.4 -0.16797,0.006 -0.35,0.05 -0.0391,0.0422 -0.1,0.05 -24.52754,12.71738 -52.6,-1.9 -1.53984,-0.80957 -3.1,-1.7 0.0436,-0.066 0.05,-0.15 1.15703,-2.92285 1.75,-6 0.65234,-3.25664 0.95,-6.55 0.0619,-0.41914 0.1,-0.9 0.25313,-3.9373 0.05,-7.95 -0.32734,-5.74531 -1.7,-11.05 l -0.1,-0.35 q -0.43437,-1.81699 -1.05,-3.6 0.79707,3.67988 0.9,10.35 0.14414,8.63594 -0.1,12.45 -0.29043,3.6123 -1,7.2 -0.55703,2.92285 -1.65,5.7 -0.0783,0.24609 -0.05,0.5 -0.16172,0.11074 -0.3,0.3 -0.15273,0.30391 -0.1,0.6 -0.19219,0.18398 -0.3,0.4 -1.41055,3.01836 -3.45,5.6 l 0,0.05 q -4.51797,6.03828 -4.3,13 0.0144,0.30879 0.15,0.55 0.17578,0.23242 0.4,0.35 7.14355,3.40664 3.85,11.05 l 0.05,-0.05 q -0.58437,1.22539 -1.3,2 -0.13984,0.18965 -0.2,0.4 -0.0719,0.21074 -0.05,0.4 1.03027,7.78613 -0.1,15.4 -0.41094,2.88809 -0.4,5.7 0.37344,0.51621 0.25,1.35 -0.15,1.35 0.2,2.65 0.45254,0.52793 0.55,1.05 6.05547,3.49004 3.5,10.05 l 0,-0.05 q -0.72637,1.47129 -3.95,2.7 -0.25645,0.13047 -0.45,0.35 -1.56836,2.31914 -1.3,5.65 l 0,0.05 q 0.051,1.44805 0.95,5.25 -7.642578,2.63672 -15.2,1.8 0.860156,-3.32891 1.6,-5.25 -3.016406,1.48516 -3.6,5 -1.336328,-0.22578 -2.55,-0.55 0.287695,-1.03984 1.45,-2.55 1.348828,-1.8127 2.95,-3 0.289453,-0.16719 0.35,-0.45 0.305859,-0.0568 0.5,-0.25 2.584766,-2.31934 4.95,-3.7 0.249609,-0.11582 0.35,-0.35 l 0.05,0 q 0.185938,0.008 0.35,-0.05 0.10625,-0.0408 0.2,-0.1 L 94.5,572 q -1.35,-4.45 1.6,-8.4 0.95,-1.25 1.45,-2.75 1.65,-5 1.55,-10.1 -0.15,-5.25 -0.5,-10.15 -0.05,-1.1 -0.1,-2.15 l 0,-0.1 q -0.366016,-3.36836 -5.35,-7.9 -0.219336,-0.21582 -0.55,-0.25 -0.05312,-0.29043 -0.3,-0.5 -3.958984,-3.49297 -2.65,-8.45 0.242578,-0.85586 0.6,-1.75 0.04922,-0.0592 0.05,-0.15 0.07109,-0.0416 0.1,-0.15 l 0,0 q 0.717773,-1.55547 1.15,-3.15 0.09902,-0.27598 0.15,-0.6 1.456836,-5.57188 -0.2,-11.4 -2.158789,-7.61992 -6.65,-12.6 l -0.05,0 q -3.517578,-3.76074 -5.7,-8.3 l 0,0.05 -4.3,-10 q -1.663477,-3.81836 -1.1,-8.65 l 0,0 q 0.08711,-0.85059 0.15,-1.7 0.215039,-2.23262 0.35,-4.5 0.09238,-1.47266 -0.4,-4.3 -0.375195,-2.11465 -1.2,-4.95 -0.02402,2.16504 -0.3,7.35 l 0,0.05 q -0.0074,0.26836 -0.05,1.9 l 0,-0.9 q -0.02461,0.42813 -0.05,0.85 -0.192969,3.02793 -0.5,5.95 l 0,0.05 q -0.229492,1.95137 -0.15,3.75 -4.715039,-7.98594 -7.35,-16.9 0.0168,-0.0672 0,-0.15 -2.027539,-6.90547 -2.75,-14.45 -0.05508,-0.54805 -0.1,-1.15 -0.287305,-3.42598 -0.3,-7 -0.01348,-2.39746 0.05,-4.95 0.02129,-0.1123 0,-0.25 0.351953,-9.29043 2,-20.55 1.135742,-7.8707 2.9,-16.7 0.425195,-1.9875 0.85,-4 1.274805,-5.3248 2.4,-10.15 2.275,-9.67578 3.9,-17.25 l 0,0 q 2.076172,-9.46699 3.1,-15.45 l 0.05,0 q 0.5,-3.26309 0.9,-6.25 L 77,332.2 q 0.06973,0.0887 0.1,0.15 0.102734,-0.0832 0.15,-0.25 0.03613,-0.0633 0.05,-0.2 0.790039,-6.64766 0.7,-12.15 -0.114258,-7.11641 -1.7,-12.3 -0.02891,-0.0328 -0.05,-0.1 -0.07754,-0.25879 -0.25,-0.45 2.988672,-0.41172 5.5,-1.9 3.828711,-2.24219 4.4,-6.7 0.525977,-4.14453 -1.1,-7.95 l 0,0 M 35,302.05 q -0.45,-0.3 -0.9,-0.5 -0.55,-0.1 -1.1,-0.15 -2.5,-0.4 -4.9,1 -1.9,1.1 -2.95,2.9 l 0,0.05 q 0.55,-0.3 1.15,-0.6 2.15,-1.1 4.3,-1.25 2.55,-0.1 4.55,-1.3 Q 35.1,302.05 35,302.05 M 68.85,266.3 q -4.423242,0.28086 -7.3,3.6 -2.870313,3.29883 -2.6,7.7 l 0,0 q 0.01602,0.25254 0.05,0.45 -3.795898,1.21543 -4.85,2.25 2.339258,-0.33242 6.25,-0.3 l 2.8,-0.2 6.2,-0.45 q 0.169922,1.4332 1.25,2.35 1.115234,1.00762 2.6,0.9 1.504492,-0.0965 2.5,-1.25 0.955664,-1.04492 0.9,-2.45 l 2.3,-0.15 0.05,0 q 0.05703,0.002 0.1,0 l 0.05,0 q 4.043555,-0.79277 5.3,-2.05 l -4.35,0 q 0.01621,-0.25352 0,-0.5 l 0,-0.05 q -0.294727,-4.38047 -3.55,-7.25 -1.506641,-1.31094 -3.25,-2 -2.058984,-0.74688 -4.45,-0.6 m -5.8,4.9 q 1.555078,-1.79473 3.65,-2.5 0.297656,-0.0795 0.55,-0.15 0.819727,-0.19609 1.7,-0.25 3.599023,-0.22969 6.3,2.1 2.635352,2.32246 2.85,5.9 l 0,0 q 0.01641,0.26699 0,0.5 l -15.2,1 -1.9,0.15 q -0.03516,-0.22715 -0.05,-0.45 l 0,-0.05 q -0.22168,-3.5584 2.1,-6.25 m 12.15,7.85 q 0.65,0.35 0.35,1.25 -0.2,0.7 -0.75,0.2 -0.25,-0.2 -0.2,-0.5 0.1,-0.4 0.25,-0.8 0.05,-0.05 0.15,-0.1 0,-0.05 0.05,-0.05 0.05,0 0.15,0 m 7.05,-36.45 q 1.01543,-4.58008 -0.9,-7 -1.76582,-2.5166 -6.4,-2.8 -0.04063,-0.002 -0.1,0 -5.16582,0.14102 -7.2,2.6 -2.204492,2.46367 -1.15,7.2 0.104102,0.38164 0.4,0.6 0.303516,0.22441 0.65,0.2 l 2.8,-0.2 -2,6.75 q -2.408398,-2.51602 -5.9,-2.4 -0.0084,-0.0805 -0.05,-0.15 l -1.35,-5.1 2.95,-0.65 q 0.290234,-0.0346 0.5,-0.25 0.215039,-0.2084 0.25,-0.5 0.898242,-4.42734 0.05,-6.7 -0.916211,-2.70645 -3.85,-2.85 l 0,0 q -0.731836,-0.06 -1.6,0.05 0.0023,0.0121 -0.05,0 -1.521484,0.27715 -3.6,1.15 l 0,0 q -4.306836,1.80996 -5.25,4.8 -1.0625,2.98457 1.25,7.1 0.191406,0.29316 0.5,0.4 0.316992,0.1582 0.65,0.05 l 2.75,-0.7 0.7,5.15 q -1.090039,0.49297 -1.35,0.7 -0.0959,0.11172 -1.2,1.15 1.834766,-0.27031 2.9,0.25 l 0.1,1.3 q -11.158398,1.30059 -15.8,8.7 -0.179492,0.30234 -0.15,0.6 0.02637,0.36582 0.25,0.6 0.235742,0.26875 0.55,0.3 0.351367,0.094 0.65,-0.05 4.932031,-2.44473 7.7,-1.05 -0.908984,3.2498 -2.15,6.35 -5.543359,14.34375 -16.95,25.35 l -0.45,-0.2 q -0.250391,-0.0877 -0.55,-0.05 -0.120117,-0.17344 -0.35,-0.3 -3.897852,-1.64707 -7.85,-0.85 l -0.05,0 q -4.582617,1.02109 -4.35,6.1 l 0,0.05 q 0.163867,5.73086 -1.1,8.55 -1.838672,-0.004 -2.65,2.6 0.01055,0.0369 0,0.05 -0.469141,1.27617 -0.05,2.3 0.05859,0.11133 0.1,0.15 0.121094,0.23242 0.3,0.35 0.429883,0.45586 1.2,1.1 0.196289,0.2168 0.45,0.3 3.713867,1.50781 8,0.35 3.94082,-1.04004 6.9,-3.7 l 0,-0.05 q 2.595312,-2.3498 6.2,-1.9 l 0.05,0 q 0.949023,0.0992 1.75,0.05 0.0793,0.007 0.65,-0.05 0.636133,-0.004 1,-0.3 l 0.35,-0.25 0.1,0 q 0.231445,-0.14238 0.75,-0.95 0.508398,-0.80254 1.3,-3.3 -2.584961,2.31816 -2.65,2.35 -0.561719,0.48867 -1.45,0.5 -0.72168,0.0416 -1.6,-0.05 l 0,0 q -4.554102,-0.54219 -7.8,2.45 l 0,0 q -2.591016,2.34023 -6.05,3.25 -3.613867,0.99199 -6.75,-0.25 -0.118164,-0.0334 -0.95,-0.8 -0.117773,-0.38281 0.05,-0.9 0.03867,-0.0258 0.05,-0.1 0.364648,-1.17871 1.15,-1.15 0.310156,0.10078 0.6,-0.05 0.305078,-0.11406 0.45,-0.4 1.865234,-3.10332 1.65,-10.25 l 0,0 q -0.155469,-3.36055 2.8,-4.1 l 0,0 q 3.35957,-0.64805 6.65,0.75 0.111914,0.0709 0.2,0.1 l 1.7,0.65 q 0.06367,0.0543 0.1,0.05 0.06152,0.0402 0.1,0.05 0.103125,0.0275 1.65,0.3 1.378906,0.29629 4.2,-1.1 -0.207812,-0.12832 -0.5,-0.15 -1.450977,-0.0961 -3.1,-0.5 6.845898,-6.80469 11.55,-14.85 0.161914,-0.20586 0.3,-0.45 l 3.75,-7.4 q 2.058398,-4.75332 3.45,-9.9 0.10293,-0.27695 0,-0.6 -0.0541,-0.12754 -0.15,-0.25 -0.08301,-0.1123 -0.2,-0.2 -2.536914,-2.05703 -6.75,-0.95 4.582813,-4.27168 12.95,-5 0.769531,-0.0344 1,-0.05 2.16582,-0.14688 4.6,-0.05 0.34043,0.0144 0.6,-0.2 0.297266,-0.1623 0.4,-0.5 0.106055,-0.3 0,-0.65 -0.10332,-0.28711 -0.4,-0.5 -2.476758,-1.69512 -5.2,-2.4 1.51543,-0.56523 2.85,-0.7 3.860352,-0.4207 6.1,3 0.241797,0.33105 0.6,0.4 0.406641,0.1209 0.75,-0.1 0.34043,-0.17344 0.45,-0.55 l 3,-9.9 q 0.10625,-0.32695 0,-0.65 -0.117187,-0.31602 -0.4,-0.5 -0.2875,-0.17793 -0.65,-0.15 l -3.35,0.2 q -0.468555,-2.98516 0.85,-4.65 1.649609,-1.77441 5.7,-1.9 0.0375,0.002 0.05,0 3.481055,0.23555 4.85,2 1.292383,1.81895 0.6,5.15 L 76.1,241.6 q -0.250195,-0.0221 -0.5,0.1 -0.248047,0.11973 -0.4,0.35 -0.145508,0.24258 -0.15,0.5 l -0.45,11 q -0.0025,0.16074 0.05,0.3 0.02773,0.094 0.05,0.15 0.158789,0.27695 0.4,0.4 0.244922,0.16074 0.5,0.15 6.603516,-0.15996 7.95,6.4 0.0096,0.0701 0,0.15 0.0748,0.24668 0.3,1.25 0.139063,0.2127 0.35,0.35 0.360937,0.21855 0.75,0.1 20.70371,-4.49316 26.05,11.2 l 0.4,1.2 -1.3,0.55 0,0.05 -0.05,0 q -5.19434,1.50293 -10.8,0.55 -5.568164,-0.9041 -8.55,-2 -0.966016,-0.35391 -1.4,-0.65 l -0.05,0 q 0.04199,0.12207 0.1,0.3 0.208203,0.60195 0.95,1.8 0.02383,0.0643 0.05,0.1 0.03438,0.11562 0.1,0.2 5.145508,8.59551 4.8,25.8 -0.02246,0.94766 -0.1,2 -0.249219,5.75059 -1.35,15.85 -0.585547,5.33887 -1.4,11.9 l 0,0.05 q -0.434961,3.6959 -0.95,7.7 l 0,0.05 q -0.03066,0.17598 -0.05,0.3 -0.03535,0.29316 0.05,0.5 -0.132617,0.21641 -0.2,0.45 -0.08711,0.60078 -0.15,1.1 l 0,0.05 q -0.851563,6.69883 -1.45,12.45 -0.35,3.51289 -0.6,6.65 -0.01816,0.31328 0.1,0.55 -0.128125,0.21016 -0.15,0.45 -0.01816,0.25645 -0.05,0.45 -0.305859,4.24727 -0.4,7.8 -0.151953,4.21738 0,7.5 0.19707,4.40371 0.8,8.25 1.603516,10.26816 6.15,16.5 0.163281,0.24941 0.4,0.35 0.02812,0.28691 0.2,0.5 0.649023,0.80098 1.3,1.5 0.202734,0.21543 0.4,0.3 0.131445,0.38496 0.45,0.6 2.29512,1.38535 4.6,2.6 4.65215,2.5459 9.4,4.45 6.99746,2.82285 11.35,9.2 3.98711,5.72461 8.5,11.95 l 0,0.05 q 4.69531,6.39434 13.25,6.3 7.7498,-0.24941 15.55,-0.9 l 0.05,0 q 7.6248,-0.6959 15.25,-0.4 l 0,0 q 4.43105,0.14805 8.7,1.25 0.073,0.0541 0.15,0.05 l 0,0 q 2.19902,0.55547 4.3,1.4 0.12285,0.0615 0.2,0.05 0.13379,0.0451 0.2,0.1 0.0982,0.0434 0.15,0.05 6.92578,2.72305 12.75,7.55 l -0.05,-0.05 q 0.0197,0.0229 0.05,0.05 0.0779,0.0719 0.2,0.15 1.42129,1.17754 2.6,2.45 0.59941,0.6625 1.1,1.3 0.11992,0.10742 0.2,0.15 0.10898,0.1582 0.25,0.35 0.60391,0.83105 0.8,1.1 l 2.35,4.55 q 0.25996,0.64434 0.45,1.25 0.0629,0.26465 0.2,0.45 0.19453,0.17285 0.4,0.25 l 0.05,0 6.7,2.35 0,0 q 1.67109,0.59746 3.25,1.75 l 0,0 q 1.61113,1.19258 4.9,6.55 3.23906,5.4543 -0.25,19.25 -3.58926,14.60859 -3.05,19.4 0.43906,4.42578 3,5.95 2.4291,1.62773 6.85,0.35 0.24023,-0.0615 0.4,-0.2 -2.50078,0.7252 -3.5,-1.25 -1.61289,0.0629 -2.7,-0.6 -1.73906,-1.175 -2.05,-4.45 -0.46094,-4.60879 3,-18.7 3.76074,-14.90449 0,-20.8 -3.61133,-5.89277 -5.45,-7.15 -1.78574,-1.30293 -3.7,-2 l -0.05,0 -6.25,-2.2 q -1.04531,-3.20859 -2.8,-5.75 -1.0877,-1.5791 -1.45,-1.9 -0.54941,-0.6625 -1.2,-1.35 -1.25918,-1.37773 -2.75,-2.65 -0.05,-10e-4 -0.1,-0.05 l -0.05,0 q -0.0248,-0.0381 -0.05,-0.1 -6.05117,-5.00254 -13.25,-7.8 L 190.65,440 q -0.25508,-0.12539 -0.6,-0.2 -2.21445,-0.9125 -4.5,-1.5 -4.54844,-1.19746 -9.25,-1.35 l -0.05,0 q -7.7252,-0.30273 -15.5,0.4 l 0,0 q -7.7498,0.64863 -15.4,0.9 l -0.05,0 q -7.48965,0.0963 -11.6,-5.5 l 0,0 q -4.4873,-6.2248 -8.45,-11.95 -4.69766,-6.87305 -12.25,-9.9 -6.94863,-2.79453 -13.7,-6.9 -0.07578,-0.0627 -0.2,-0.1 -0.04121,-0.23438 -0.25,-0.45 -0.599023,-0.65098 -1.2,-1.4 -0.141016,-0.18105 -0.4,-0.3 0.0049,-0.21523 -0.15,-0.45 -0.482617,-0.64922 -0.95,-1.4 -3.473437,-5.62246 -4.8,-14.25 -0.59707,-3.75371 -0.8,-8.05 -0.148047,-3.21758 0,-7.35 0.100781,-3.70234 0.45,-8.15 0.01816,-0.26426 -0.15,-0.5 0.17793,-0.20977 0.2,-0.5 0.25,-3.11309 0.6,-6.6 0.600195,-5.73848 1.45,-12.45 l 0,0 q 0.03965,-0.46445 0.1,-1 0.08203,-0.26563 -0.05,-0.55 0.206445,-0.18672 0.25,-0.5 0.548242,-4.21113 1,-8.05 l 0,-0.05 q 0.831445,-6.69961 1.4,-12.15 1.316211,-11.95176 1.45,-17.8 0.331836,-16.80117 -4.45,-25.7 3.029688,1.21523 5.9,1.8 0.476172,0.12305 0.95,0.2 5.15859,0.88789 9.9,-0.25 1.74063,-0.41152 3.4,-1.1 l 0.05,-0.05 q 0.33203,-0.1002 0.5,-0.4 0.0283,-0.009 0.05,-0.05 0.0397,-0.0799 0.05,-0.15 l 0,-0.6 q -0.24922,-1.08027 -0.6,-2.1 -5.55723,-17.2666 -27.5,-12.9 -1.490625,-7.7875 -8.85,-8.1 l 0.35,-8.85 4.05,0.35 q 0.416797,0.0273 0.7,-0.25 0.339648,-0.21719 0.4,-0.6 0.03203,-0.25586 0.1,-0.5 0.01484,-0.0375 0,-0.1 m -25.8,-8.2 0.05,0 q 1.821484,-0.77734 3.15,-1.05 l -0.05,0.05 q 0.667578,-0.0881 1.2,-0.05 l 0.05,0 q 1.570313,0.0678 2.05,1.5 0.59707,1.76172 0.05,5 l -3.35,0.7 q -0.270313,0.0826 -0.5,0.25 -0.176367,0.21113 -0.25,0.45 -0.0877,0.28691 -0.05,0.55 l 1.65,5.95 q -1.083398,0.25332 -2.25,0.7 l -0.75,-5.65 q -0.03867,-0.26816 -0.25,-0.5 -0.166602,-0.2166 -0.45,-0.3 -0.275195,-0.0934 -0.55,-0.05 l -3.1,0.8 q -1.364063,-2.72813 -0.75,-4.75 0.80625,-2.20977 4.1,-3.6 m 2.35,18.2 0.1,-0.25 q 0.314453,0.091 0.6,0.2 -0.326367,0.0264 -0.7,0.05 z"
         id="path15877"
         inkscape:connector-curvature="0"
         style="fill:#5f4601;stroke:none" />
      <path
         d="m 98.7,278.05 q -2.870312,-0.58477 -5.9,-1.8 4.781836,8.89883 4.45,25.7 -0.133789,5.84824 -1.45,17.8 -0.568555,5.45039 -1.4,12.15 l 0,0.05 q -0.451758,3.83887 -1,8.05 -0.04356,0.31328 -0.25,0.5 0.132031,0.28437 0.05,0.55 -0.06035,0.53555 -0.1,1 l 0,0 q -0.849805,6.71152 -1.45,12.45 -0.35,3.48691 -0.6,6.6 -0.02207,0.29023 -0.2,0.5 0.168164,0.23574 0.15,0.5 -0.349219,4.44766 -0.45,8.15 -0.148047,4.13242 0,7.35 0.20293,4.29629 0.8,8.05 1.326563,8.62754 4.8,14.25 l -1.85,-28.4 5.15,2.95 -4.65,-16.55 6.65,3.6 -4.6,-15.4 6.5,4.35 -4.95,-13.7 4.25,-0.3 -1.05,-16.05 4.5,-0.3 -4.6,-12 5.15,-0.35 -6.05,-19.8 5,-0.35 -5.95,-9.35 q -0.473828,-0.077 -0.95,-0.2 z"
         id="path15879"
         inkscape:connector-curvature="0"
         style="fill:#402000;stroke:none" />
      <path
         d="m 88.05,268.4 q -0.150781,-0.0848 -0.3,-0.2 0.371289,0.75273 1.05,1.6 0.03203,0.0525 0.05,0.05 3.799805,2.7252 11.05,3.75 l 0,0 q 6.62187,0.8293 10.15,2.2 l 0.05,-0.05 0,0 1.3,-0.55 -0.4,-1.2 q -3.7416,-1.50879 -10.8,-2.4 l -0.05,0 q -9.963672,-1.61504 -12.1,-3.2 z"
         id="path15881"
         inkscape:connector-curvature="0"
         style="fill:#f27a02;stroke:none" />
      <path
         d="m 87.1,267.65 0,0.05 q -0.131445,0.6627 0.2,2.25 0.377539,1.58457 1.95,3.75 l 0.05,0 q 0.433984,0.29609 1.4,0.65 2.981836,1.0959 8.55,2 5.60566,0.95293 10.8,-0.55 -3.52813,-1.3707 -10.15,-2.2 l 0,0 q -7.250195,-1.0248 -11.05,-3.75 l 0.15,0.45 -0.15,-0.4 q -0.01797,-0.0353 -0.05,-0.1 -0.678711,-0.84727 -1.05,-1.6 -0.133008,-0.18379 -0.65,-0.55 z"
         id="path15883"
         inkscape:connector-curvature="0"
         style="fill:#fda651;stroke:none" />
      <path
         d="m 74,285.4 q -9.02832,-0.0896 -10.8,-5.6 l -2.8,0.2 q 0.798242,2.36719 2.8,4.1 2.968164,2.63613 6.95,2.35 2.119727,-0.11719 3.85,-1.05 z"
         id="path15885"
         inkscape:connector-curvature="0"
         style="fill:#cccccc;stroke:none" />
      <path
         d="m 75.55,280.3 q 0.3,-0.9 -0.35,-1.25 -0.1,0 -0.15,0 -0.05,0 -0.05,0.05 -0.1,0.05 -0.15,0.1 -0.15,0.4 -0.25,0.8 -0.05,0.3 0.2,0.5 0.55,0.5 0.75,-0.2 z"
         id="path15887"
         inkscape:connector-curvature="0"
         style="fill:#ffffff;stroke:none" />
      <path
         d="m 67.25,268.55 q -0.252344,0.0705 -0.55,0.15 l 0.05,0.05 q -4.785547,4.14297 -3.85,9.05 l 15.2,-1 q 0.01641,-0.23301 0,-0.5 l 0,0 q -0.214648,-3.57754 -2.85,-5.9 -2.700977,-2.32969 -6.3,-2.1 -0.880273,0.0539 -1.7,0.25 z"
         id="path15889"
         inkscape:connector-curvature="0"
         style="fill:#d39e01;stroke:none" />
      <path
         d="m 66.7,268.7 q -2.094922,0.70527 -3.65,2.5 -2.32168,2.6916 -2.1,6.25 l 0,0.05 q 0.01484,0.22285 0.05,0.45 l 1.9,-0.15 q -0.935547,-4.90703 3.85,-9.05 L 66.7,268.7 z"
         id="path15891"
         inkscape:connector-curvature="0"
         style="fill:#fed250;stroke:none" />
    </g>
    <style
       id="style6"
       type="text/css">
    .str0 {stroke:#006633;stroke-width:282.22}
    .str1 {stroke:#AB754F;stroke-width:282.22}
    .fil2 {fill:none}
    .fil3 {fill:#606062}
    .fil5 {fill:#CE8F64}
    .fil4 {fill:#006633}
    .fil8 {fill:#009933}
    .fil9 {fill:#00B33C}
    .fil10 {fill:#00C943}
    .fil0 {fill:#00D447}
    .fil1 {fill:#00DB49}
    .fil6 {fill:#B88059}
    .fil11 {fill:#BA8058}
    .fil12 {fill:#D49264}
    .fil7 {fill:#E49C6D}
  </style>
    <clipPath
       clipPathUnits="userSpaceOnUse"
       id="clipPath6620">
      <path
         sodipodi:type="arc"
         style="color:#000000;fill:none;stroke:#008000;stroke-width:0.79917884;marker:none;visibility:visible;display:inline;overflow:visible;enable-background:accumulate"
         id="path6622"
         sodipodi:cx="197.86337"
         sodipodi:cy="54.53133"
         sodipodi:rx="62.46788"
         sodipodi:ry="62.46788"
         d="m 260.33125,54.53133 a 62.46788,62.46788 0 1 1 -124.93576,0 62.46788,62.46788 0 1 1 124.93576,0 z"
         transform="matrix(1.5591692,0,0,1.5591692,-235.53958,240.40465)" />
    </clipPath>
  </defs>
  <metadata
     id="metadata7">
    <rdf:RDF>
      <cc:Work
         rdf:about="">
        <dc:format>image/svg+xml</dc:format>
        <dc:type
           rdf:resource="http://purl.org/dc/dcmitype/StillImage" />
        <dc:title>Bingo das Letras</dc:title>
        <cc:license
           rdf:resource="" />
        <dc:rights>
          <cc:Agent>
            <dc:title>Copyright  2002-2016. Portal Clickideia  - Todos os Direitos Reservados</dc:title>
          </cc:Agent>
        </dc:rights>
        <dc:description>SVG game with snapSVG lib and other javascripts included</dc:description>
        <dc:language>pt_BR</dc:language>
        <dc:subject>
          <rdf:Bag>
            <rdf:li>Educativo</rdf:li>
            <rdf:li>ensino fundamental</rdf:li>
            <rdf:li>clickiia</rdf:li>
            <rdf:li>letras</rdf:li>
            <rdf:li>lingua portuguesa</rdf:li>
            <rdf:li>infantil</rdf:li>
            <rdf:li>educational game</rdf:li>
            <rdf:li>game design</rdf:li>
            <rdf:li>multimidia</rdf:li>
          </rdf:Bag>
        </dc:subject>
        <dc:creator>
          <cc:Agent>
            <dc:title>http://www.clickideia.com.br/</dc:title>
          </cc:Agent>
        </dc:creator>
        <dc:publisher>
          <cc:Agent>
            <dc:title>http://www.clickideia.com.br/</dc:title>
          </cc:Agent>
        </dc:publisher>
        <dc:date>18/01/2016</dc:date>
        <dc:contributor>
          <cc:Agent>
            <dc:title>michel morandi - michel.morandi@clickideia.com.br</dc:title>
          </cc:Agent>
        </dc:contributor>
      </cc:Work>
    </rdf:RDF>
  </metadata>
  <g
     id="g6630"
     transform="translate(-138.77699,8.1687821)">
    <path
       sodipodi:type="arc"
       style="color:#000000;fill:#ffffff;stroke:#008000;stroke-width:1.52134967;marker:none;visibility:visible;display:inline;overflow:visible;enable-background:accumulate"
       id="path6628"
       sodipodi:cx="197.86337"
       sodipodi:cy="54.53133"
       sodipodi:rx="62.46788"
       sodipodi:ry="62.46788"
       d="m 260.33125,54.53133 c 0,34.500058 -27.96782,62.46788 -62.46788,62.46788 -34.50005,0 -62.46788,-27.967822 -62.46788,-62.46788 0,-34.500058 27.96783,-62.4678801 62.46788,-62.4678801 34.50006,0 62.46788,27.9678221 62.46788,62.4678801 z"
       transform="matrix(0.81904575,0,0,0.81904575,28.512948,-1.0533221)" />
    <g
       id="g17631"
       transform="matrix(0.52530909,0,0,0.52530909,152.24403,-127.34007)"
       clip-path="url(#clipPath6620)">
      <use
         id="use17633"
         xlink:href="#Layer0_0_FILL-09"
         x="0"
         y="0"
         width="1280"
         height="800" />
    </g>
  </g>
</svg>
