<?xml version="1.0" encoding="UTF-8" standalone="no"?>
<svg
   xmlns:osb="http://www.openswatchbook.org/uri/2009/osb"
   xmlns:dc="http://purl.org/dc/elements/1.1/"
   xmlns:cc="http://creativecommons.org/ns#"
   xmlns:rdf="http://www.w3.org/1999/02/22-rdf-syntax-ns#"
   xmlns:svg="http://www.w3.org/2000/svg"
   xmlns="http://www.w3.org/2000/svg"
   xmlns:xlink="http://www.w3.org/1999/xlink"
   xmlns:sodipodi="http://sodipodi.sourceforge.net/DTD/sodipodi-0.dtd"
   xmlns:inkscape="http://www.inkscape.org/namespaces/inkscape"
   version="1.1"
   id="svg2"
   viewBox="0 0 96.591815 100.14741"
   height="100.14741"
   width="96.59182"
   inkscape:version="0.48.4 r9939"
   sodipodi:docname="leão.svg">
  <sodipodi:namedview
     pagecolor="#ffffff"
     bordercolor="#666666"
     borderopacity="1"
     objecttolerance="10"
     gridtolerance="10"
     guidetolerance="10"
     inkscape:pageopacity="0"
     inkscape:pageshadow="2"
     inkscape:window-width="1600"
     inkscape:window-height="876"
     id="namedview1313"
     showgrid="false"
     fit-margin-top="0"
     fit-margin-left="0"
     fit-margin-right="0"
     fit-margin-bottom="0"
     inkscape:zoom="1.7208844"
     inkscape:cx="102.31615"
     inkscape:cy="39.194307"
     inkscape:window-x="0"
     inkscape:window-y="1"
     inkscape:window-maximized="1"
     inkscape:current-layer="svg2" />
  <script
     xlink:href="C:\wamp\www\bingo\js/snap.svg-min.js"
     id="script4164" />
  <title
     id="title4162">Bingo das Letras</title>
  <defs
     id="defs4">
    <linearGradient
       osb:paint="solid"
       id="linearGradient12614">
      <stop
         id="stop12616"
         offset="0"
         style="stop-color:#000000;stop-opacity:1;" />
    </linearGradient>
    <linearGradient
       gradientTransform="matrix(-0.19399818,0,0,-0.19399818,259.22818,12173.784)"
       osb:paint="solid"
       id="linearGradient59274">
      <stop
         id="stop59276"
         offset="0"
         style="stop-color:#930033;stop-opacity:1;" />
    </linearGradient>
    <linearGradient
       id="linearGradient4269"
       osb:paint="solid"
       gradientTransform="matrix(110.20782,22.122239,-29.697412,82.096171,6266136.6,4291163.1)">
      <stop
         style="stop-color:#ffffff;stop-opacity:1;"
         offset="0"
         id="stop4271" />
    </linearGradient>
    <linearGradient
       id="linearGradient4251"
       osb:paint="solid"
       gradientTransform="translate(106155.96,125143.42)">
      <stop
         style="stop-color:#555555;stop-opacity:1;"
         offset="0"
         id="stop4253" />
    </linearGradient>
    <linearGradient
       id="linearGradient4241"
       osb:paint="solid"
       gradientTransform="matrix(0.19125385,0,0,0.19125385,-2190.07,-23675.93)">
      <stop
         style="stop-color:#3fb5ae;stop-opacity:1;"
         offset="0"
         id="stop4243" />
    </linearGradient>
    <linearGradient
       id="linearGradient4231"
       osb:paint="solid"
       gradientTransform="translate(2399.1562,2075.6965)">
      <stop
         style="stop-color:#d1f2a5;stop-opacity:1;"
         offset="0"
         id="stop4233" />
    </linearGradient>
    <linearGradient
       id="linearGradient4221"
       osb:paint="solid"
       gradientTransform="matrix(0.66768435,0,0,0.66768435,-186.89148,394.64653)">
      <stop
         style="stop-color:#effab4;stop-opacity:1;"
         offset="0"
         id="stop4223" />
    </linearGradient>
    <linearGradient
       id="linearGradient4211"
       osb:paint="solid"
       gradientTransform="translate(-699.20463,883.12976)">
      <stop
         style="stop-color:#ffc48c;stop-opacity:1;"
         offset="0"
         id="stop4213" />
    </linearGradient>
    <linearGradient
       id="linearGradient4201"
       osb:paint="solid"
       gradientTransform="matrix(0.35946858,0,0,0.22423084,-331.07911,5516.4706)">
      <stop
         style="stop-color:#ff9f80;stop-opacity:1;"
         offset="0"
         id="stop4203" />
    </linearGradient>
    <linearGradient
       id="linearGradient4191"
       osb:paint="solid"
       gradientTransform="matrix(0.52321996,0,0,0.52321996,2015.4535,3072.5352)">
      <stop
         style="stop-color:#f56991;stop-opacity:1;"
         offset="0"
         id="stop4193" />
    </linearGradient>
    <linearGradient
       id="Gradient_1"
       gradientUnits="userSpaceOnUse"
       x1="-31.200001"
       y1="54.512501"
       x2="-31.200001"
       y2="25.1875"
       spreadMethod="pad">
      <stop
         offset="28.235294117647058%"
         stop-color="#CC9966"
         id="stop15134" />
      <stop
         offset="100%"
         stop-color="#FFFFFF"
         id="stop15136" />
    </linearGradient>
    <g
       id="Symbol_2_0_Layer1_0_FILL">
      <path
         d="m 69.35,-37.5 q -0.469727,-0.113086 -0.95,-0.25 0.619336,0.235352 1.2,0.45 -0.107422,-0.09004 -0.25,-0.2 m -5,-1.25 q -1.559766,-0.382812 -3.1,-0.85 0.337891,0.310156 0.7,0.6 1.222852,0.08731 2.4,0.25 m -44.1,77.9 Q 17.157422,43.715039 18,49.4 q 0.634766,4.232422 -4.45,4.6 -4.5150391,0.389844 -8.95,1.65 -5.11992187,1.540039 -9.2,4.75 -2.5224609,2.029883 -4.75,4.45 -4.097461,4.622266 -1.1,7.7 0.5625,0.6 2.3,-0.4 -0.053711,-0.137891 -0.05,-0.35 -0.022852,-0.190039 0.1,-0.4 8.59980469,-12.849805 27,-16 l 0.05,0 q 2.197656,-0.642188 2.95,-1.95 l -0.05,0.05 q 0.696484,-1.383594 -0.2,-3.5 l 0,0 Q 21.61074,49.93262 21.6,49.8 21.53535,49.73457 21.5,49.6 l 0,0 Q 18.860937,43.736914 20.25,39.15 m 21.4,-13.9 q 2.0625,0.782422 1.1,3.1 -1.795117,4.477539 -6.15,7.45 -3.640039,2.505078 -7.6,4.2 -2.207617,0.989844 -3.4,3.05 -1.288477,2.304883 -1.7,3.25 3.18418,-2.540234 10.2,-5.7 Q 45.380078,35.636133 50.7,31.3 37.721094,21.207031 38.85,5.95 q -2.102734,5.202539 -2.55,10.5 -0.5125,6.744727 5.35,8.8 M -25.2,10.7 q 2.575781,0.62168 5.05,1.6 -4.013672,-4.9429687 -6.05,-11.9 l -1.4,-2.55 q -2.760937,6.9919922 2.4,12.85 z"
         id="path15139"
         inkscape:connector-curvature="0"
         style="fill:#8f6030;stroke:none" />
      <path
         d="m 11.15,-62.1 q 0.225977,0.02949 0.45,-0.15 0.245313,-0.145508 0.3,-0.4 0.04785,-0.06191 0.05,-0.15 0.0053,-0.204297 -0.05,-0.4 -0.07969,-0.217187 -0.35,-0.4 -1.95e-4,0.01172 -0.05,0 -3.6884766,-1.941406 -7.5,-3 -0.1412109,-0.0096 -0.3,-0.05 -16.301172,-4.239258 -34.5,8.25 -3.669141,-8.69043 -14.45,-9.25 l 0,0 q -0.286523,0.0012 -0.5,0.15 -0.263086,0.180469 -0.3,0.5 -0.05117,0.220313 0,0.4 0.03652,0.05 0.05,0.05 l 1.8,4.05 q -18.819141,-1.131836 -32.6,15.05 -2.562305,3.084375 -5,6.75 -0.118945,0.198242 -0.15,0.5 0.02598,0.386328 0.3,0.55 0.244336,0.204102 0.5,0.2 0.250781,0.01699 0.45,-0.15 l 0.05,0 q 4.842773,-3.480859 7.75,-1.9 -21.612109,11.564062 -20.9,40.65 l 0,0 q 0.01934,0.26933594 0.25,0.5 l 0,0 q 0.163086,0.178125 0.45,0.25 0.04922,0.01855469 0.1,0 0.175,0.01796875 0.35,-0.05 0.03848,-0.00918 0.05,-0.05 l 4.5,-2.6 q 0.16543,1.6541016 -0.1,3.5 -0.208594,1.4759766 -0.8,4.4 l 0,0.1 q -0.736914,5.80332 2.7,11.7 0.08047,0.283594 0.4,0.45 0.03594,0.0168 0.05,0 0.325391,0.113672 0.6,-0.05 0.0502,0.01348 0.05,0 0.20625,-0.131445 0.3,-0.35 0.05566,-0.01074 0.05,-0.05 1.578906,-4.480273 5,-6.5 -1.988867,7.103125 2.6,14.2 1.348438,2.009766 6.45,11.05 0.09219,0.299023 0.4,0.45 l 0.05,0 q 0.2625,0.107227 0.5,0 0.03809,0.02656 0.05,0 0.293164,-0.115039 0.4,-0.35 0.04336,-0.02207 0.05,-0.1 0.06797,-0.15 0.05,-0.35 0.02676,-0.01152 0,-0.05 -0.305469,-2.31582 0.45,-3.25 l 0,0 q 0.661133,-0.60918 2.1,-0.45 -0.566992,9.124414 4.4,14.3 1.347266,1.381445 4.15,3.75 l 0,0.05 q 2.039258,1.953711 2.7,4.15 0.0021,0.32832 0.35,0.5 0.171289,0.168555 0.45,0.15 0.251367,0.04336 0.45,-0.15 0.299414,-0.19082 0.3,-0.55 l 0,-0.05 q 0.432617,-4.082422 2.15,-5.75 0.538672,1.635352 1.35,3.15 -5.031836,8.340625 -6.15,22.95 -14.313672,7.21875 -14.1,13.95 0.0045,7.236328 10.1,7.45 1.810352,2.349805 5.1,2.35 3.007031,-0.0291 7.35,-2.2 0.151562,0.100195 0.3,0.2 0.726758,0.497461 2.3,1.25 3.136328,1.65957 6.9,-1.8 1.483789,2.592773 4.55,3.85 1.012891,0.472461 1.9,0.65 l -0.05,-0.05 q 0.135937,0.07734 0.25,0.05 0.126953,0.06738 0.25,0.05 1.204492,0.192969 2.15,-0.1 0.05156,0.01914 0.1,0 1.479102,-0.42168 2.25,-2 1.756055,1.302148 5.2,1.05 l 0.05,0 q 4.273633,-0.267188 5.15,-4.65 0.01113,-0.0623 0,-0.15 0.131055,0.108789 0.25,0.2 3.144727,2.349805 6.2,0.3 0.09688,0.01055 0.15,-0.05 2.8642578,-1.957227 3.8,-5.4 0.8148438,-3.262305 -0.35,-6.3 -0.020508,-0.05703 -0.05,-0.1 -0.4294922,-1.0375 -1,-1.9 3.4248047,-3.463086 1.35,-8.75 Q 1.3945312,60.515039 17.6,57.3 l 0,0.05 q -1.40918,3.36543 0,5.3 l -0.05,0 q 1.402539,2.278516 6.3,2.55 1.032812,2.266797 3.95,2.6 2.679883,0.319727 7.1,-1.2 0.753516,1.135938 2.35,1.8 l 0,0.05 q 2.094922,0.843945 4.25,0.35 l 0,0 q 5.096484,-1.100977 6,-8.85 1.022852,0.543555 1.95,0.4 l 0.05,0 q 1.497266,-0.162891 2.85,-1.95 1.054883,-1.457812 1.15,-2.75 l 3.7,-1.65 0.05,0 q 0.075,-0.03555 0.15,-0.1 0.115039,-0.0168 0.2,-0.1 1.780664,-0.787109 3.75,-1.4 0.07734,0.03828 0.15,0 2.050391,-0.766016 5.3,-1.4 3.163086,-0.568359 6.1,-1.5 3.06582,-0.975977 5.6,-3 2.710352,-2.101367 3.65,-5.5 0.854297,-3.050195 -0.1,-6.25 -1.212305,-3.554297 -4.35,-5.25 -0.07988,-0.01738 -0.2,-0.05 -0.06172,-0.01387 -0.15,-0.05 0.05,-0.03769 0.1,-0.1 0.0498,-3.91e-4 0.1,-0.05 8.050391,-4.895313 12.15,-12.2 4.767969,-8.4210937 4,-18.75 l 0,-0.1 q -0.840234,-9.978125 -6.55,-19.4 -6.849219,-11.091211 -11.7,-13.85 -2.519336,-1.444141 -3.7,-2.05 -0.0168,0.05449 -0.05,0.1 -1.172266,-0.242187 -2.35,-0.5 0.142578,0.109961 0.25,0.2 -0.580664,-0.214648 -1.2,-0.45 -1.963477,-0.634375 -4.05,-1 -1.177148,-0.162695 -2.4,-0.25 -0.362109,-0.289844 -0.7,-0.6 -0.730664,-0.184766 -1.45,-0.4 -0.650781,-0.200195 -1.3,-0.4 0.376953,0.345508 0.75,0.7 0.146289,0.115234 0.25,0.2 -0.212891,0.03477 -0.45,0.05 -4.547461,0.120117 -12.1,1.95 -9.270703,2.175391 -12.3,2.65 -7.009375,1.047852 -12.9,0.05 l 0,0 q -2.109961,-2.843164 -4.6,-5.35 l 7.05,-1.45 q 0.331836,-0.05449 0.5,-0.3 0.132422,-0.214648 0.1,-0.5 0.01855,-0.05078 0,-0.1 -0.05898,-0.270703 -0.25,-0.5 -0.02461,0.01211 -0.05,0 L 4.45,-59.05 q 1.5542969,-3.066602 6.7,-3.05 m -8.15,3.9 0,0.05 14.5,11.6 4.65,3.7 -6.8,1.35 -0.05,0 q -0.294531,0.104492 -0.45,0.35 -0.145117,0.214453 -0.15,0.5 9.77e-4,0.386133 0.3,0.55 2.577148,2.538477 4.75,5.35 0.140234,0.147852 0.25,0.3 0.238867,0.295117 0.45,0.6 0.03594,0.02559 0.05,0.05 0.06328,0.06484 0.15,0.1 0.0082,0.05117 0,0.05 0.03652,0.05019 0.05,0.05 0.07246,0.140234 0.15,0.2 0.05898,0.182422 0.15,0.3 1.733594,2.425977 3.1,5 4.269336,7.897461 5.7,17.6 -0.0041,0.06328 0,0.1 0.125977,0.7796875 0.2,1.55 0.09238,0.5478516 0.15,1.05 0.08809,0.8214844 0.15,1.6 l -3.35,-0.9 q -0.361523,-0.1822266 -0.65,0 -0.234375,0.1650391 -0.35,0.4 -0.186133,0.2683594 -0.05,0.6 0.03535,0.050781 0.05,0.05 1.702539,4.5335938 2.3,8.85 0.02168,0.2158203 0.05,0.4 0.645703,5.1730469 -0.3,10.1 -0.04258,0.347461 -0.1,0.65 -0.48457,2.301562 -1.3,4.5 -1.789258,4.930664 -5.2,9.6 l -1.95,-3.6 0,-0.05 q -0.143945,-0.185938 -0.35,-0.3 -0.35,-0.144336 -0.7,0 -0.208008,0.09648 -0.35,0.35 -0.184375,0.251172 -0.05,0.55 -0.0084,0.08848 0,0.15 1.266016,4.260937 0.9,7.65 -0.109766,1.381445 -0.5,2.6 -0.01152,0.02266 -0.05,0.05 -0.678125,2.126172 -2.15,3.85 -3.433789,3.8875 -12.1,6.7 -4.95761719,1.534961 -14.1,4.3 l 0,0 q -4.948633,1.988477 -6.55,4.9 0.0039,0.0541 -0.05,0.1 l -1.05,-3.4 q 0.01465,-0.01289 0,-0.05 -0.142578,-0.285352 -0.35,-0.4 -0.270703,-0.15957 -0.6,-0.1 -0.311523,0.08867 -0.5,0.35 0.01016,0.04863 0,0.05 -0.109961,0.219336 -0.1,0.45 -0.002,0.0623 0,0.1 0.05684,0.457031 0.05,0.9 0.139063,4.264648 -4.15,7.1 -1.482422,0.993555 -4.8,3 -0.377734,0.251758 -0.75,0.5 -0.604687,0.458789 -1.15,0.9 -0.06016,0.04434 -0.1,0.05 0.814844,-4.375195 -3.2,-7.3 l 0,0 q -0.236719,-0.142188 -0.5,-0.15 -0.221289,0.01875 -0.4,0.15 -0.212695,0.154297 -0.3,0.35 -0.101172,0.188086 0,0.5 0.785352,2.83418 0,4.3 l 0,-0.05 q -0.750586,1.127148 -2.6,1.35 -0.28457,-1.066016 -0.8,-2.05 -0.615234,-1.103906 -1.55,-2.05 -0.797461,-0.858789 -3.95,-3.2 -3.488281,-2.485352 -5.4,-5.75 -0.0031,-0.130273 -0.1,-0.25 -1.098828,-1.965039 -1.65,-4.15 l 0,-0.05 q -0.07598,-0.186523 -0.25,-0.35 -0.232812,-0.238086 -0.5,-0.25 -0.226367,0.03379 -0.4,0.1 -2.454883,1.225977 -3.4,5 -0.756445,-1.220313 -2,-2.4 l 0,0 q -2.643555,-2.25918 -4,-3.6 0.0084,-0.07832 -0.05,-0.15 -4.677734,-4.966602 -4,-13.8 l 0,-0.05 q 0.02344,-0.261328 -0.15,-0.5 -0.130664,-0.220508 -0.45,-0.3 l -0.05,-0.05 q -2.410742,-0.50957 -3.7,0.35 -0.26582,0.231641 -0.5,0.5 l -0.05,0 q -0.540234,0.593555 -0.8,1.5 -3.226562,-5.752734 -4.55,-7.95 -0.277148,-0.426563 -0.5,-0.75 -4.6875,-7.270313 -1.8,-14.55 l 0,-0.05 q 0.05918,-0.2384766 0,-0.5 -0.0082,-0.026367 -0.05,-0.1 -0.122266,-0.2585937 -0.4,-0.35 -0.342383,-0.1763672 -0.6,-0.05 l -0.05,0.05 q -9.77e-4,0.010156 -0.05,0 -4.575195,1.7505859 -6.85,6.55 l 0,0 q -2.27168,-4.690234 -1.7,-9.3 0.593945,-2.9435547 0.8,-4.5 0.373438,-2.7220703 -0.1,-5.1 0.01426,-0.025195 0,-0.05 -0.07598,-0.2115234 -0.25,-0.35 -0.232812,-0.2632812 -0.5,-0.25 -0.225977,-0.00488 -0.45,0.15 l 0,0 -4.3,2.45 q -0.223242,-27.663086 21.15,-38.4 0.08105,-0.02949 0.1,-0.1 0.1,-0.0502 0.15,-0.15 0.09375,-0.05215 0.1,-0.15 0.09316,-0.175195 0.1,-0.35 -0.0064,-0.05078 -0.05,-0.1 -0.04687,-0.286914 -0.2,-0.45 -2.859766,-2.998437 -7.55,-0.85 1.774805,-2.396289 3.6,-4.5 13.423633,-15.149023 31.8,-13.5 l 0,0 q 0.311523,-0.0016 0.5,-0.15 0.270117,-0.170508 0.35,-0.45 0.02285,-0.02461 0,-0.1 0.01777,-0.204492 -0.05,-0.4 l 0,-0.05 -1.8,-3.95 0,-0.05 0,0 q 9.116602,1.031641 12.05,9.05 0.01172,0.05039 0,0.05 0.09434,0.191797 0.3,0.35 0.204883,0.128125 0.45,0.1 0.225781,0.04199 0.45,-0.1 l 0,-0.05 q 7.608984,-5.322852 14.85,-7.7 5.356055,-1.717187 10.5,-1.85 6.9289062,-0.09746 13.5,2.7 -4.1511719,0.822461 -5.35,4.3 -0.099609,0.15 -0.05,0.4 -0.0043,0.329883 0.3,0.5 m 22.85,29.95 q -1.270313,-2.449219 -2.8,-4.75 5.462305,0.680469 11.85,-0.25 0.763281,-0.114063 1.9,-0.35 0.539648,-0.08594 1.1,-0.25 l 1.3,-0.25 q 1.942578,-0.396484 4.5,-1 l 1.5,-0.35 q 1.036328,-0.231055 2.15,-0.5 5.460742,-1.318359 9.3,-1.75 1.166602,-0.09551 2.15,-0.15 0.175977,0.0039 0.3,0 1.285547,-0.03418 2.6,0.05 l 0.1,0 q 5.010547,0.444531 7.7,1.65 1.266016,0.586914 1.7,0.75 0.04062,0.05039 0.05,0.05 0.04785,0.05332 0.05,0.05 0.06973,0.03887 0.1,0.05 0.12793,0.14375 0.3,0.25 2.356836,1.239258 4.6,3.1 0.08691,0.114453 0.15,0.2 4.888281,4.16875 9.35,11.4 0.04121,0.06348 0.1,0.1 5.375586,9.011719 6.2,18.6 0.759766,9.8263672 -3.8,17.85 -3.052344,5.49375 -8.55,9.55 -2.168359,1.628906 -4.75,3 l -0.05,0.05 q -0.08281,0.07246 -0.15,0.15 -0.116797,0.03906 -0.2,0.1 l -1.65,0.95 -0.05,0 q -0.167578,0.13418 -0.25,0.35 -0.02891,0.06445 -0.05,0.1 l 0,0 2.8,-0.05 q 0.06641,-0.01992 0.1,-0.05 0.07051,0.04004 0.15,0.05 0.03613,0.0416 0.05,0.05 0.630859,0.149414 1.25,0.45 2.079492,1.093945 3.1,3.15 0.280859,0.544336 0.45,1.1 0.873828,2.763477 0.15,5.4 l 0,0 q -0.841016,2.829883 -3.1,4.6 -2.347656,1.868555 -5.15,2.75 -2.87793,0.896289 -5.9,1.45 -1.413867,0.261328 -2.6,0.55 -1.716797,0.443359 -3,0.95 -0.03887,0.01602 -0.1,0 -2.059766,0.669727 -3.85,1.5 l -0.05,0 q -0.0375,0.03555 -0.1,0.1 -0.127734,0.0041 -0.25,0.05 l 0.05,0 -3.85,1.7 -0.05,0 q -0.03496,0.05644 -0.1,0.1 -0.348438,0.05508 -0.5,0.35 l -0.05,0 q -0.144141,0.233398 -0.15,0.5 l 0,0 q 0.03144,1.013477 -0.85,2.2 -0.848242,1.176758 -1.8,1.35 l 0,0 Q 48.346289,58.827148 47.4,58 L 47.35,57.95 Q 47.137305,57.750586 46.8,57.75 46.50918,57.75293 46.25,58 46.035352,58.224023 46,58.5 l 0,0.05 q -0.168945,2.950195 -0.95,4.9 Q 43.808594,66.574023 41.1,67.3 39.494531,67.666211 37.9,67 36.471875,66.388867 36,65.3 l 0,0 q -0.04219,-0.06562 -0.1,-0.15 l 0,0 q 0.01367,-0.06387 0,-0.15 -0.363477,-0.896875 -0.5,-2.25 -0.170117,-1.859766 0.1,-4.55 l 0,-0.05 q 0.01094,-0.286328 -0.15,-0.5 l 0,-0.05 q -0.253125,-0.302539 -0.6,-0.3 -0.275,0.0207 -0.5,0.2 -0.338281,0.175391 -0.35,0.5 l 0,0.05 q -0.281055,2.956836 -0.1,4.95 0.135742,1.239258 0.4,2.1 -3.874414,1.342188 -6.2,1.1 -2.182227,-0.243555 -2.8,-2 l 0,-0.05 -0.05,-0.05 0,-0.05 q -0.01113,-0.02363 -0.05,-0.1 l 0,0 q 0.0053,-0.04961 0,-0.1 -0.189844,-0.791406 -0.2,-1.8 0.07969,-2.291406 1.2,-5.7 l 0,-0.05 q 0.07871,-0.288672 -0.1,-0.55 0.01231,-3.91e-4 0,-0.05 -0.143945,-0.220117 -0.4,-0.3 -0.386523,-0.194727 -0.7,0 -0.252539,0.180664 -0.35,0.45 -0.944336,2.980078 -1.2,5.15 -0.117578,1.475977 0.05,2.6 -3.416797,-0.330664 -4.5,-1.85 -0.707031,-1.188867 -0.1,-3.15 0.283789,-0.778906 0.75,-1.7 2.854492,-0.873633 3.75,-2.7 1.003711,-1.898047 -0.2,-4.8 2.042578,-3.051758 11.65,-7.35 11.067969,-4.862109 16.55,-9.2 0.660937,3.892187 6.95,2.55 -0.121484,-0.0082 -0.25,0 l -0.05,0 q -4.266211,0.228125 -5,-2.7 4.006445,1.915039 6.6,0.5 0.746484,-0.415039 1.35,-0.85 -0.08672,-0.01836 -0.2,0 -3.916211,0.611719 -7.95,-1.6 -0.03672,-0.01543 -0.1,-0.05 -0.03086,0.01367 -0.1,0 -0.0088,-0.02578 -0.05,-0.05 l -0.05,-0.05 0,0 -0.05,0 Q 51.133789,29.637305 50,28.6 41.70332,21.266211 40.6,11.25 40.447266,9.5875 40.45,7.8 q 0.06035,-3.3427734 0.85,-7 0.03672,-0.0818359 1.4,-6.35 0.975781,-4.51582 1.85,-7.2 -5.036914,10.1630859 -5.7,18.7 -1.128906,15.257031 11.85,25.35 -5.319922,4.336133 -16.6,9.3 -7.01582,3.159766 -10.2,5.7 -0.8875,0.738281 -1.5,1.4 -1.843555,-4.902539 -0.85,-11.1 -0.180273,0.112305 -0.3,0.3 l 0,0 q -0.617383,1.096875 -1,2.25 -1.389063,4.586914 1.25,10.45 l 0,0 q 0.03535,0.13457 0.1,0.2 0.01074,0.132617 0.05,0.2 l 0,0 q 0.896484,2.116406 0.2,3.5 l 0.05,-0.05 q -0.752344,1.307812 -2.95,1.95 l -0.05,0 q -18.40019531,3.150195 -27,16 -0.1228516,0.209961 -0.1,0.4 -0.00371,0.212109 0.05,0.35 1.4400391,3.29082 0.35,5.7 -0.5099609,1.141211 -1.55,2.05 -0.2455078,0.192969 -0.35,0.5 0.00625,0.07422 0,0.1 0.00137,0.311523 0.15,0.5 l 0,0 q 0.7142578,0.995508 1.25,2.25 l 0,0 q 1.0322266,2.599805 0.35,5.35 -0.6730469,2.304687 -2.3,3.8 -0.06445,0.04883 -0.15,0.1 -0.316211,0.305859 -0.7,0.55 -1.503711,1.054883 -3.05,0.6 -0.734961,-0.193555 -1.5,-0.8 -0.74082,-0.532617 -1.15,-1.15 l -0.05,0 q 0.0086,-0.101758 -0.05,-0.2 -0.621289,-1.216406 -0.4,-2.9 l 0,0 q 0.355273,-2.925781 1.7,-5.5 0.176172,-0.299805 0.1,-0.6 -0.0082,-0.03887 -0.05,-0.1 -0.115039,-0.243164 -0.35,-0.4 l 0,0 q -0.35,-0.169336 -0.7,0 -0.265039,0.09063 -0.4,0.35 -1.523633,2.845117 -1.9,6.05 -0.247656,2.189453 0.55,3.8 0.0541,0.06562 0.1,0.1 -0.04082,0.803711 -0.2,1.45 -0.675391,3.113086 -3.65,3.4 l -0.1,0 q -3.487305,0.3 -4.65,-1.3 -0.02305,-0.02715 -0.05,-0.05 7.81e-4,-0.03457 0,-0.1 l 0,-0.05 q -0.777734,-2.052148 -1.2,-3.85 -1.163281,-5.495313 1.25,-8.45 0.05469,-0.01035 0.05,-0.05 0.150781,-0.249805 0.15,-0.5 -7.81e-4,-0.386328 -0.3,-0.6 -0.274609,-0.173633 -0.55,-0.2 -0.383789,0.01777 -0.6,0.35 -3.391992,3.909961 -1.1,11.65 0.349219,1.076367 0.75,2.2 0.03691,0.025 0.05,0.05 0.01094,0.03379 0,0.05 -0.424414,1.452734 -1.5,1.85 -0.104687,0.0049 -0.2,0.05 -0.626953,0.163477 -1.4,0 -0.03828,0.02207 -0.1,0 -0.04394,0.02481 -0.1,0 -0.07285,-0.0021 -0.15,-0.05 -0.02539,0.01113 -0.05,0 -0.717383,-0.154492 -1.55,-0.5 l 0,0 q -3.010742,-1.235547 -4.2,-4 -0.0035,-0.03887 -0.05,-0.1 -0.590234,-1.493945 -0.7,-3.7 l 0,0 q -0.04687,-6.015625 7.05,-10.3 l 0.05,0 q 0.232813,-0.145508 0.3,-0.4 0.06797,-0.175 0.05,-0.35 0.01738,-0.03711 0,-0.1 -1.266016,-5.594727 1.95,-12.8 0.78457,-0.644141 1.75,-1.25 0.06875,-0.03906 0.1,-0.1 3.217188,-1.95625 4.7,-2.85 l 0,0 q 3.495117,-2.320312 4.5,-5.45 l 0.7,2.1 q 0.02129,0.364844 0.35,0.55 l 0,0 q 0.273828,0.166406 0.6,0.05 0.175,-0.02168 0.35,-0.15 0.07363,-0.02617 0.1,-0.1 0.157422,-0.214648 0.15,-0.5 0.132031,-3.950781 6.25,-6.35 0.066602,-0.01016 0.1,-0.05 9.02265625,-2.796289 13.95,-4.3 9.162695,-3.020703 12.8,-7.2 3.60918,-4.112305 3.15,-10.3 0.0031,-0.03535 0,-0.1 l 0.05,0.05 q 0.159961,0.226562 0.4,0.3 0.170703,0.06777 0.4,0.05 0.05039,0.02285 0.1,0 0.240039,-0.07344 0.4,-0.3 l 0,-0.05 Q 34.439844,13.760352 27.95,-5.2 l 3,0.8 0.05,0.05 q 0.237305,0.082227 0.45,0 0.07793,-0.00645 0.1,-0.05 0.176562,-0.087305 0.25,-0.2 0.09375,-0.076953 0.1,-0.2 0.09316,-0.15 0.1,-0.35 l 0,0 q -0.888477,-13.010742 -6.15,-23.1 M -44.4,57.9 q 3.026953,2.196094 3.8,3 1.651172,1.689844 2,4 0.03477,0.025 0.05,0.05 0.05664,0.201758 0.25,0.4 0.03535,0.04004 0.05,0.05 0.239453,0.157422 0.5,0.15 l 0.05,0 q 3.408398,-0.126367 4.55,-2.15 0.715234,-1.133203 0.6,-2.95 0.942578,1.394922 0.9,3.05 -0.0125,1.921289 -1.3,4.2 -0.0332,0.08184 -0.05,0.15 -0.0793,0.20957 -0.05,0.4 -0.03535,0.311523 0.3,0.55 l 0.05,0.05 q 0.25625,0.170703 0.6,0.05 0.180859,-0.01328 0.3,-0.1 -0.03047,0.111523 -0.05,0.2 -1.626758,5.167383 -0.8,9.5 -3.507812,2.21875 -5.35,4.85 -1.120312,1.62168 -1.6,3.4 -0.423633,1.528125 -0.4,3.15 0.106055,2.214648 0.7,3.8 l -0.05,0.05 q -3.057422,2.960352 -5.5,1.85 -1.465625,-0.675 -2.1,-1.1 l -0.05,0 q -0.02324,-0.04043 -0.05,-0.1 -0.01953,-0.121875 -0.1,-0.25 -9.77e-4,-0.102734 -0.1,-0.2 -0.46543,-0.488672 -0.85,-1 -0.606836,-0.87832 -0.95,-1.85 -0.791406,-2.096484 -0.15,-4.6 0.21582,-0.873633 0.6,-1.85 l 0,0.05 q 0.198047,-0.327734 0.1,-0.6 -0.01094,-0.01328 -0.05,-0.05 -0.117578,-0.282422 -0.4,-0.45 -0.386523,-0.169727 -0.7,0.05 -0.218164,0.101953 -0.35,0.35 -1.95,4.410352 -0.5,7.95 0.511133,1.202148 1.4,2.3 -3.763867,1.854102 -6.4,1.95 l 0,0 q -2.611133,0.03437 -4,-1.95 0.0027,-0.02656 -0.05,-0.05 -0.03711,-0.06211 -0.1,-0.1 l 0,-0.05 q -0.980664,-1.202734 -1.35,-2.6 -0.824023,-3.072266 1.5,-6.9 l 0,-0.05 q 0.185742,-0.30293 0.05,-0.55 -0.05273,-0.307422 -0.35,-0.5 -0.352344,-0.204102 -0.65,-0.05 -0.270898,0.06367 -0.45,0.35 l 0,0 q -2.06582,3.444531 -1.95,6.4 0.05547,1.943555 1.05,3.65 -5.420508,-0.416406 -6.8,-3.6 -0.439844,-0.952344 -0.5,-2.2 0.07441,-4.570313 7.95,-9.6 2.453906,-1.52793 5.65,-3.15 0.163086,-0.04141 0.3,-0.2 0.06875,-0.03965 0.1,-0.15 0.05469,-0.152539 0.05,-0.3 l 0,0 q 0.303906,-4.181445 0.9,-7.85 0.120312,-0.553711 0.2,-1.1 1.485938,-7.696875 4.45,-13 1.928125,2.926953 5.1,5.25 M -59,-24.8 q 0.274805,-0.219922 0.3,-0.45 l 0,-0.05 q 0.113672,-0.275391 -0.05,-0.6 0.0025,-7.81e-4 -0.05,-0.05 -0.200781,-0.282031 -0.45,-0.3 -0.310156,-0.120117 -0.65,0.1 -1.293555,0.823828 -2.15,1.95 -2.393164,-5.309961 -6.05,-6.2 -4.316211,-1.183984 -8.2,1.1 -3.804297,2.203125 -5,6.5 -1.172656,4.253906 1.1,8.15 2.238281,3.895703 6.3,4.45 3.464844,0.5457031 7.3,-2 0.370703,0.94043 0.9,1.8 l -0.05,0 q 0.183008,0.341992 0.5,0.4 0.247266,0.1232422 0.55,-0.05 0.06309,-0.01 0.1,-0.05 0.274805,-0.194727 0.3,-0.45 l 0,0 q 0.113672,-0.300195 -0.05,-0.6 l 0,-0.05 q -0.67168,-1.105664 -1.05,-2.3 l 0,-0.05 q -0.0041,-0.06738 -0.05,-0.15 -0.0375,-0.0875 -0.1,-0.2 -0.526367,-2.135352 0.45,-3.9 1.044336,1.1125 2.5,1 l 0.05,0 q 0.122461,0.02969 0.3,-0.05 0.09785,-0.0064 0.15,-0.1 0.150977,-0.09863 0.2,-0.3 0.103516,-0.123828 0.1,-0.35 l 0,-0.05 q -0.262891,-2.316406 0.3,-4.05 0.152148,-0.110547 0.2,-0.3 0.02285,-0.02461 0,-0.1 0.025,-0.03769 0,-0.1 0.685937,-1.625977 2.25,-2.6 0.02519,0.01231 0.05,0 m -16.5,-3.15 q 3.282422,-1.919336 7,-0.95 2.836914,0.845898 4.8,4.95 -3.577148,-1.798438 -5.9,-1.55 -3.275195,0.260547 -4.25,4.1 -0.957422,3.69082 1.05,5.9 1.419727,1.689648 4.5,2.5 -2.808789,1.589844 -5.4,1.2 -3.305273,-0.433789 -5.15,-3.65 -1.892773,-3.290234 -0.9,-6.95 0.969531,-3.700586 4.25,-5.55 m 10.3,8.35 q -0.09687,0.03789 -0.2,0.1 -0.552539,0.721094 -0.95,1.45 -0.88125,1.9125 -0.45,4.15 -3.563672,-0.688477 -5.1,-2.4 -1.550977,-1.812109 -0.8,-4.8 0.551953,-2.186914 2.05,-2.9 0.516602,-0.233594 1.15,-0.3 2.541797,-0.23125 6.8,2.2 -0.561523,1.799219 -0.35,4.1 -1.025391,-0.154102 -1.7,-1.4 -0.04531,-0.106641 -0.2,-0.2 -0.09648,-0.01836 -0.25,0 M 0.3,-2.85 q -0.0986328,-0.021875 -0.25,0 -2.2271484,0.7148437 -3.35,-0.05 -0.9142578,-0.7302734 -1,-2.6 5.3337891,1.7763672 6.6,-1.55 3.4501953,-4.225977 -3,-10.05 -0.7560547,-0.657422 -1.55,-0.3 -0.6195313,0.279102 -1.25,1.4 -0.9953125,1.828906 -2,6 -2.6712891,-6.639258 0.45,-9.75 0.098242,-0.06934 0.1,-0.2 0.040234,-0.117773 -0.05,-0.25 -0.033789,-0.103516 -0.15,-0.2 -0.1185547,-0.02773 -0.25,0 -1.9214844,0.286523 -3.1,-0.9 -1.1605469,-1.220508 -1.55,-4 -0.01465,-0.06602 -0.05,-0.15 -0.432031,-0.79375 -1.2,-0.65 -0.583594,0.06543 -1.4,0.85 -1.258008,1.266406 -3.2,4.45 -0.390234,-1.779687 -0.8,-3.6 -0.03945,-0.133398 -0.2,-0.25 -0.100781,-0.05742 -0.25,-0.05 -6.337109,1.081836 -8.15,-4.95 -9.77e-4,-0.102148 -0.1,-0.2 -0.06172,-0.0375 -0.2,-0.05 -0.07578,-0.02871 -0.2,0 -5.005469,1.582617 -6.4,4.65 -1.382813,2.931836 0.6,7.2 -2.4875,1.060352 -4.75,-1.35 -2.599609,-2.741992 -4.95,-9.8 -0.01445,-0.07773 -0.1,-0.15 -0.0752,-0.0748 -0.2,-0.1 -5.570313,-1.131836 -7.8,0.15 -2.297266,1.231641 -1.3,4.75 -6.010352,2.617773 -4.9,11.85 l -5,-3.7 q -0.08633,-0.05625 -0.25,-0.05 -0.11582,0.007 -0.25,0.1 -2.698047,2.300195 -1.75,4.15 0.743359,1.701562 4.65,2.9 0.0959,4.9042969 -4.9,7.3 l 0,0 q -0.494141,0.1867188 -0.95,0.4 -0.136719,0.1107422 -0.2,0.25 -0.02578,0.1939453 0.05,0.35 0.07305,0.13691406 0.2,0.15 0.193555,0.0755859 0.35,0 0.373828,-0.2023437 0.75,-0.35 l 0.15,-0.05 q 5.217383,-2.0042969 9.3,2.7 -3.478125,0.5183594 -5.35,3.35 -0.775586,1.2388672 -1.3,2.85 -0.02285,0.1802734 0.05,0.3 0.08594,0.1708984 0.25,0.2 2.895703,1.0109375 3.8,2.55 0.849414,1.430859 -0.1,3.35 -0.498242,0.250391 -0.9,0.45 -3.446094,1.883008 -2.75,7.3 0.791602,6.174805 8.55,8.65 2.408398,0.778906 5.1,1.05 l 7,16.6 q 0.03516,0.09668 0.1,0.15 7.363086,6.862695 15.1,1.4 0.08437,-0.03203 0.1,-0.15 l 7.6,-16.8 q 11.3257813,0.75293 13.4,-6.1 1.3267578,-4.239258 -0.65,-7.05 -1.6990234,-2.491992 -6,-3.85 5.3751953,-2.5375 7.7,-9.3 0.040625,-0.1117188 0,-0.25 Q -1.792188,6.0269531 -1.9,5.95 -2,5.874414 -2.15,5.85 -2.249023,5.874023 -2.35,5.95 -3.7052734,6.8994141 -4.75,6.65 -5.6185547,6.3849609 -6.3,5.15 -0.10175781,2.1623047 0.6,-2.4 0.608398,-2.5201172 0.5,-2.65 0.4556641,-2.7726562 0.3,-2.85 m 1,-4.8 q -0.048438,0.054492 -0.1,0.1 -1.08945313,2.4189453 -5.65,0.75 -0.2960937,-0.1171875 -0.55,0 -0.2349609,0.058594 -0.4,0.3 -0.1423828,0.2240234 -0.15,0.45 0.016211,3.0511719 1.55,4.1 1.1240234,0.8734375 3.1,0.55 -1.2908203,3.3386719 -6.25,5.65 -0.2597656,0.15625 -0.35,0.4 -0.2142578,0.2910156 -0.05,0.65 1.0039063,2.140625 2.5,2.5 0.6947266,0.1955078 1.45,0 -2.3583984,5.238086 -7.1,7.15 -2.441992,-0.61543 -5.6,-0.85 Q -21.437695,9.278125 -24,1.9 l 0,0 0,0 q 5.916797,3.3476563 9.85,1.55 2.474609,-0.9839844 4.15,-3.9 0.6050781,-1.0814453 1.1,-2.45 0.6484375,-1.6554687 1.1,-3.75 1.2951172,-0.5732422 2.6,-1.2 0.086719,-0.038672 0.15,-0.1 l -0.15,0.05 0,-0.05 0.05,0 q 0.1867188,0.020898 0.3,-0.1 0.1126953,-0.098437 0.2,-0.25 0.083594,-0.1029297 0.05,-0.25 1.1347656,-4.857227 2.2,-6.85 0.35,-0.69043 0.65,-0.9 0.1193359,0.02676 0.2,0.1 0.081641,0.09102 0.15,0.1 5.4085937,4.929102 2.75,8.4 -0.025,0.0375 -0.05,0.05 m -50.1,-20.65 0,0.05 q 1.903906,-0.976172 6.55,-0.1 2.381836,7.027734 5,9.8 l 0.05,0 q 3.0875,3.258008 6.5,1.4 0.04961,0.01328 0.05,0 0.222461,-0.131836 0.35,-0.4 0.0168,-0.03613 0,-0.1 0.116406,-0.288672 -0.05,-0.55 0.0127,-1.95e-4 0,-0.05 -1.885937,-3.873828 -0.75,-6.55 l 0,0.05 q 1.152148,-2.383008 4.95,-3.75 2.136914,5.816016 8.45,5.1 0.460938,1.889453 0.9,3.75 -0.01719,0.238281 0.1,0.45 0.05996,0.05215 0.1,0.05 0.157813,0.223633 0.5,0.2 0.187305,0.03066 0.35,-0.05 0.05059,0.01387 0.05,0 0.191992,-0.06934 0.35,-0.3 l 0,-0.05 q 2.165234,-3.679102 3.5,-5.05 0.378906,-0.343359 0.65,-0.45 0.508789,3.026172 1.9,4.4 0.9474609,0.993555 2.3,1.25 -2.1957031,3.573242 0.6,10.15 -1.0970703,0.5414063 -2.2,1.05 -0.2291016,0.0125 -0.35,0.1 -9.096289,4.0150391 -18.25,4.1 -3.737891,-0.0082 -7.5,-0.65 -2.426758,-0.4285156 -4.8,-1.05 l 0.05,0 q -0.50957,-0.20625 -1.05,-0.3 -0.215234,-0.073633 -0.4,-0.05 -0.120703,-0.1285156 -0.3,-0.2 -0.583398,-0.1625 -1.05,-0.35 -0.06856,-0.03418 -0.15,-0.05 -4.340039,-1.4882812 -8.65,-3.9 -0.06113,-0.02148 -0.15,-0.05 -0.03574,-0.03477 -0.1,-0.1 -1.517383,-0.80625 -3,-1.8 -1.281836,-8.891406 4.4,-11.2 0.06406,-0.02129 0.1,-0.05 0.193555,-0.131445 0.3,-0.35 l 0.05,0 q 0.138672,-0.299609 0.05,-0.6 l 0,-0.05 q -0.91875,-2.744336 0.6,-3.75 m -13,15.6 0,0 q -0.338086,-0.99043 1.05,-2.3 l 5.15,3.8 q 0.05996,0.06562 0.1,0.1 1.592383,1.018945 3.2,1.9 -0.07598,6.6816406 3.7,9.4 2.508594,1.9105469 6.8,1.95 1.579688,0.049414 3.4,-0.2 -0.0125,0.07207 -0.05,0.1 -2.29082,5.3556641 -9.65,10.65 -0.882617,0.0096 -1.7,0 -2.781836,0.108203 -4.7,0.5 0.406445,-1.721094 -0.45,-3.15 -0.940039,-1.6193359 -3.75,-2.75 0.535156,-1.34375 1.3,-2.35 1.735547,-2.1169922 4.8,-2.35 l 0,0 q 0.279297,0.00312 0.5,-0.25 0.275586,-0.2578125 0.25,-0.55 0.01016,-0.2353516 -0.1,-0.45 L -52,1.3 l 0,0 q -3.329297,-4.2318359 -7.4,-4.35 2.604297,-2.6078125 2.4,-6.55 0.02656,-0.2597656 -0.1,-0.45 -0.192773,-0.263672 -0.5,-0.3 -3.431055,-1.01875 -4.2,-2.35 m 19.1,7.4 q 0.13457,0.051758 0.25,0.1 -0.165039,0.069531 -0.35,0.15 -0.77793,0.4763672 -1,1.3 -0.240234,0.8828125 0.2,1.65 0.451172,0.8029297 1.3,1 0.858203,0.25253906 1.65,-0.2 0.778125,-0.4515625 1,-1.3 0.227734,-0.8457031 -0.25,-1.65 -0.03594,-0.095898 -0.1,-0.2 0.09707,0.03457 0.2,0.05 2.2375,0.6640625 4.5,1.1 -0.01484,0.1136719 0.05,0.2 0.05508,0.1451172 0.15,0.2 0.05156,0.019922 0.1,0 0.15,0.083203 0.3,0.1 3.513867,0.5837891 7.05,0.6 l 0.05,0.05 1.4,2.55 q 2.036328,6.9570313 6.05,11.9 -2.474219,-0.97832 -5.05,-1.6 -8.722266,-1.9433594 -18.65,0.7 5.909375,-5.0513672 7.4,-10.2 0.04551,-0.0625 0.05,-0.15 0,-0.0501953 0,-0.15 0.0037,-0.0246094 0,-0.1 -0.08789,-0.36015625 -0.35,-0.5 -0.04082,-0.0337891 -0.1,-0.05 -0.08633,-0.0447266 -0.2,-0.05 -0.159961,0.0722656 -0.25,0.2 -0.05781,0.0949219 -0.1,0.15 -3.067578,0.5361328 -5.5,0.35 -3.060547,-0.25488281 -5,-1.7 -3.21543,-2.4042969 -3.2,-8.2 4.183789,2.2683594 8.4,3.7 m 17.55,5.1 -1.35,-2.4 0,-0.05 0,0 q 3.062891,-0.042383 6.1,-0.55 -0.460352,0.4148437 -0.65,1 -0.202539,0.8705078 0.25,1.65 0.451172,0.79042969 1.3,1 0.845508,0.25253906 1.6,-0.2 0.803125,-0.45136719 1,-1.3 0.252734,-0.8457031 -0.2,-1.65 -0.374023,-0.6458984 -1.05,-0.95 4.562891,-0.9474609 9.1,-2.9 -1.69707,7.22011719 -5.55,8.9 -0.576758,0.2595703 -1.2,0.35 -3.776953,0.7509766 -9.35,-2.9 m 14.25,16.7 q 0.08418,0.101367 0.2,0.1 4.5289063,1.196875 6.25,3.6 1.6402344,2.444922 0.55,6.05 -1.7273437,5.066992 -9.4,5.3 -1.419336,0.08535 -3.05,-0.05 l -0.15,0 q -1.082031,-0.06348 -2.25,-0.25 -0.121484,0.0035 -0.25,-0.05 -4.87168,-0.622656 -11.25,-2.5 l 0.5,-1.8 q 2.533984,-1.3 4.65,-2.75 5.886523,-3.839258 8.85,-8.45 3.00625,0.236133 5.35,0.8 m -28.5,-4.4 q 9.716797,-1.659961 18.15,1.5 1.749805,0.659766 3.45,1.5 -3.904297,5.833008 -12.6,10.35 l -0.05,0 q -9.279492,-3.674219 -16.05,-11.55 2.349805,-0.758594 4.6,-1.3 1.269531,-0.261523 2.5,-0.5 m 8,14.7 -0.45,1.8 q -7.710352,2.254492 -13.8,1.75 l -0.15,0 q -1.28457,-0.133984 -2.55,-0.4 -0.198633,-0.02637 -0.45,-0.1 -1.041016,-0.206055 -2.05,-0.55 -1.189844,-0.354297 -2.2,-0.85 -4.852734,-2.289258 -5.5,-6.8 -0.571875,-4.488477 2.15,-6.1 0.370508,-0.192969 0.9,-0.4 l 0.05,0 q 2.376758,-0.850195 7.25,-0.85 7.028906,8.564062 16.8,12.5 m -8.25,5.05 q 3.967188,-0.418555 8.45,-1.75 7.864844,2.342383 13.55,2.9 l -7.15,15.85 q -1.4,0.973437 -2.8,1.45 -0.025,0.02207 -0.05,0 -5.335937,1.877344 -10.45,-2.85 L -44.6,32 q 2.378906,0.125 4.95,-0.15 M 4.5,-28.45 q -0.032227,0.05 -0.05,0.05 -2.1134766,1.169727 -2.7,4 -0.87070313,-1.230664 -2,-2.35 -0.234375,-0.22207 -0.55,-0.25 -0.3283203,0.02793 -0.6,0.25 -0.2095703,0.25918 -0.2,0.55 -0.00957,0.35332 0.2,0.6 1.86113281,1.753906 3,3.9 0.041797,0.12207 0.15,0.25 0.068359,0.16582 0.15,0.35 0.030078,0.264063 0.25,0.4 2.0232422,1.72207 1.15,4.5 -0.073047,0.208398 -0.05,0.4 0.035352,0.306641 0.3,0.5 0.2046875,0.12832 0.45,0.1 0.1748047,0.03047 0.35,-0.05 0.039258,0.0033 0.05,-0.05 1.2615234,-0.680273 2.3,-2.15 0.2769531,3.040039 -1,5.35 l 0.05,-0.05 q -0.064258,0.09336 -0.1,0.15 -0.1324219,0.228125 -0.1,0.45 l 0,0.05 q 0.00371,0.117187 0.05,0.2 0.037305,0.075 0.05,0.15 1.0201172,1.8544922 0.6,2.75 -0.2019531,0.3613281 -0.05,0.7 0.1011719,0.1636719 0.25,0.3 0.068945,0.082617 0.1,0.1 0.3248047,0.1636719 0.6,0.05 l 0.05,0 Q 7.4175781,-7.287695 7.6,-7.6 l 0.05,0 Q 7.9925781,-8.1755859 8,-8.95 q 0.046289,0.036914 0.1,0.05 4.274414,1.1662109 8.15,-1.1 3.947852,-2.283398 4.65,-6.5 0.706055,-4.140625 -1.4,-8 -2.124609,-4.03125 -7.05,-4.85 -4.9275391,-0.795508 -7.95,0.9 M 5.3,-27 q 2.6597656,-1.415625 6.9,-0.75 4.078125,0.663281 5.85,4 1.833594,3.40918 1.25,7.05 -0.564844,3.452734 -3.85,5.35 -3.248242,1.8685547 -6.9,0.95 -0.2316406,-0.119336 -0.75,-0.7 4.991211,-1.24668 6.8,-3.4 1.007617,-1.125586 1.2,-2.5 0.232422,-1.778125 -1,-4 l 0,0 q -2.07168,-3.650781 -5.3,-3.8 -2.7431641,-0.246484 -6.3,2.15 0.1099609,-3.218359 2.1,-4.35 m 9.2,8.5 q 0.379492,1.833789 -0.8,3.2 -1.739844,2.003711 -6.6,3.1 1.4302734,-3.122852 0.5,-7.35 -0.036523,-0.09941 -0.1,-0.25 -0.00488,-0.09414 -0.1,-0.2 -0.084961,-0.05957 -0.2,-0.1 -0.1193359,0 -0.25,0.05 -0.089844,0.06113 -0.15,0.15 -0.9533203,1.939648 -2.1,2.95 0.4177734,-2.530078 -1.4,-4.35 3.49375,-2.481445 6.1,-2.35 2.646484,0.230273 4.35,3.25 0.563086,1.012305 0.75,1.9 z"
         id="path15141"
         inkscape:connector-curvature="0"
         style="fill:#302010;stroke:none" />
      <path
         d="m -32.1,68.9 0.25,0.1 q 0.01953,-0.08848 0.05,-0.2 -0.119141,0.08672 -0.3,0.1 m -8.5,-8 q -0.773047,-0.803906 -3.8,-3 -3.171875,-2.323047 -5.1,-5.25 -2.964062,5.303125 -4.45,13 -0.07969,0.546289 -0.2,1.1 -0.387109,3.355273 1.5,5.25 1.362305,1.317383 2.9,2.45 5.947266,4.504883 -0.85,4.2 -5.165039,-0.180078 -10.55,-0.25 -7.875586,5.029687 -7.95,9.6 0.06016,1.247656 0.5,2.2 2.399805,1.632227 5.75,-0.05 -0.11582,-2.955469 1.95,-6.4 l 0,0 q 0.179102,-0.286328 0.45,-0.35 0.297656,-0.154102 0.65,0.05 0.297266,0.192578 0.35,0.5 0.135742,0.24707 -0.05,0.55 l 0,0.05 q -2.324023,3.827734 -1.5,6.9 4.369531,2.737891 9.25,1.95 1.648828,-0.270508 1.25,-1.45 -1.45,-3.539648 0.5,-7.95 0.131836,-0.248047 0.35,-0.35 0.313477,-0.219727 0.7,-0.05 0.282422,0.167578 0.4,0.45 0.03906,0.03672 0.05,0.05 0.09805,0.272266 -0.1,0.6 l 0,-0.05 q -0.38418,0.976367 -0.6,1.85 -0.641406,2.503516 0.15,4.6 0.343164,0.97168 0.95,1.85 4.271094,1.446484 8.75,0.8 l 0.05,-0.05 q -0.593945,-1.585352 -0.7,-3.8 -0.02363,-1.621875 0.4,-3.15 0.479688,-1.77832 1.6,-3.4 l 0,-0.05 q 1.714844,-4.105078 2.35,-8.1 0.1625,-1.167578 0.1,-2.2 -0.373633,-5.622266 3.9,-9.5 0.04258,-1.655078 -0.9,-3.05 0.115234,1.816797 -0.6,2.95 -1.141602,2.023633 -4.55,2.15 l -0.05,0 q -0.260547,0.0074 -0.5,-0.15 -0.01465,-0.01 -0.05,-0.05 -0.193359,-0.198242 -0.25,-0.4 -0.01523,-0.025 -0.05,-0.05 -0.348828,-2.310156 -2,-4 m 13.7,34.9 q 0.02695,0.02285 0.05,0.05 L -26.9,95.7 q 7.81e-4,0.06543 0,0.1 M 25.15,64.05 25.1,63.85 q 0.0053,0.05039 0,0.1 l 0,0 q 0.03887,0.07637 0.05,0.1 M 52.65,30.7 52.5,30.65 q 0.04121,0.02422 0.05,0.05 0.06914,0.01367 0.1,0 M 36.8,-33.6 q -1.657617,2.045117 -3.45,3 -3.389844,1.822656 -7.5,2.35 5.261523,10.089258 6.15,23.1 l 0,0 q -0.0068,0.2 -0.1,0.35 -0.0062,0.1230469 -0.1,0.2 -0.07344,0.1126953 -0.25,0.2 -0.02207,0.043555 -0.1,0.05 -0.212695,0.082227 -0.45,0 l -0.05,-0.05 -3,-0.8 q 6.489844,18.960352 -6.05,35.15 l 0,0.05 q -0.159961,0.226562 -0.4,0.3 -0.04961,0.02285 -0.1,0 -0.229297,0.01777 -0.4,-0.05 -0.240039,-0.07344 -0.4,-0.3 L 20.55,29.9 q 0.0031,0.06465 0,0.1 0.45918,6.187695 -3.15,10.3 -3.637305,4.179297 -12.8,7.2 -4.92734375,1.503711 -13.95,4.3 -0.033398,0.03984 -0.1,0.05 -6.117969,2.399219 -6.25,6.35 0.0074,0.285352 -0.15,0.5 -0.02637,0.07383 -0.1,0.1 -0.175,0.12832 -0.35,0.15 -0.326172,0.116406 -0.6,-0.05 l 0,0 q -0.328711,-0.185156 -0.35,-0.55 l -0.7,-2.1 q -1.004883,3.129688 -4.5,5.45 l 0,0 q -1.482812,0.89375 -4.7,2.85 -0.03125,0.06094 -0.1,0.1 -0.96543,0.605859 -1.75,1.25 -3.216016,7.205273 -1.95,12.8 0.01738,0.06289 0,0.1 0.01797,0.175 -0.05,0.35 -0.06719,0.254492 -0.3,0.4 l -0.05,0 q -7.096875,4.284375 -7.05,10.3 l 0,0 q 2.944922,5.779883 9.2,4.15 -2.291992,-7.740039 1.1,-11.65 0.216211,-0.332227 0.6,-0.35 0.275391,0.02637 0.55,0.2 0.299219,0.213672 0.3,0.6 7.81e-4,0.250195 -0.15,0.5 0.0047,0.03965 -0.05,0.05 -2.413281,2.954687 -1.25,8.45 3.402734,3.749219 9.65,1.95 0.15918,-0.646289 0.2,-1.45 -0.0459,-0.03437 -0.1,-0.1 -0.797656,-1.610547 -0.55,-3.8 0.376367,-3.204883 1.9,-6.05 0.134961,-0.259375 0.4,-0.35 0.35,-0.169336 0.7,0 l 0,0 q 0.234961,0.156836 0.35,0.4 0.0418,0.06113 0.05,0.1 0.07617,0.300195 -0.1,0.6 -1.344727,2.574219 -1.7,5.5 l 0,0 q -0.221289,1.683594 0.4,2.9 0.05859,0.09824 0.05,0.2 l 0.05,0 q 0.40918,0.617383 1.15,1.15 0.765039,0.606445 1.5,0.8 1.546289,0.454883 3.05,-0.6 0.383789,-0.244141 0.7,-0.55 0.08555,-0.05117 0.15,-0.1 2.2308594,-5.374023 0.7,-11.4 l 0,0 Q -9.6986328,80.811523 -9.7,80.5 l -0.2,0.2 q -2.98125,-2.698242 2.1,-2.85 1.0900391,-2.40918 -0.35,-5.7 -1.7375,1 -2.3,0.4 -2.997461,-3.077734 1.1,-7.7 2.2275391,-2.420117 4.75,-4.45 4.08007813,-3.209961 9.2,-4.75 4.4349609,-1.260156 8.95,-1.65 5.084766,-0.367578 4.45,-4.6 -0.842578,-5.684961 2.25,-10.25 0.382617,-1.153125 1,-2.25 l 0,0 q 0.119727,-0.187695 0.3,-0.3 -0.993555,6.197461 0.85,11.1 0.6125,-0.661719 1.5,-1.4 0.411523,-0.945117 1.7,-3.25 1.192383,-2.060156 3.4,-3.05 3.959961,-1.694922 7.6,-4.2 4.354883,-2.972461 6.15,-7.45 0.9625,-2.317578 -1.1,-3.1 -5.8625,-2.055273 -5.35,-8.8 0.447266,-5.297461 2.55,-10.5 0.663086,-8.5369141 5.7,-18.7 -0.874219,2.68418 -1.85,7.2 -1.363281,6.26816406 -1.4,6.35 -0.789648,3.6572266 -0.85,7 -0.0027,1.7875 0.15,3.45 1.582422,2.307422 3.3,4.55 1.887305,2.392578 3.35,4.8 2.697461,4.584961 8.05,6.2 5.287305,1.667578 10.35,-0.45 1.459766,-0.600195 2.35,-1.4 0.702344,1.877344 -1.7,3.25 -1.536914,0.922461 -2.95,1.95 0.811719,-1.532031 -0.1,-0.1 -0.129688,0.206641 -0.3,0.4 -1.158789,0.900781 -2.25,1.9 0.113281,-0.01836 0.2,0 -0.603516,0.434961 -1.35,0.85 -2.593555,1.415039 -6.6,-0.5 0.733789,2.928125 5,2.7 l 0.05,0 q 0.128516,-0.0082 0.25,0 -6.289063,1.342187 -6.95,-2.55 -5.482031,4.337891 -16.55,9.2 -9.607422,4.298242 -11.65,7.35 1.203711,2.901953 0.2,4.8 -0.895508,1.826367 -3.75,2.7 -0.466211,0.921094 -0.75,1.7 2.552148,2.303516 4.55,2.4 0.255664,-2.169922 1.2,-5.15 0.09746,-0.269336 0.35,-0.45 0.313477,-0.194727 0.7,0 0.256055,0.07988 0.4,0.3 0.01231,0.04961 0,0.05 0.178711,0.261328 0.1,0.55 l 0,0.05 q -1.120313,3.408594 -1.2,5.7 4.847461,2.877734 8.9,0.95 -0.181055,-1.993164 0.1,-4.95 l 0,-0.05 q 0.01172,-0.324609 0.35,-0.5 0.225,-0.179297 0.5,-0.2 0.346875,-0.0025 0.6,0.3 l 0,0.05 q 0.160937,0.213672 0.15,0.5 l 0,0.05 q -0.270117,2.690234 -0.1,4.55 4.865039,4.122461 9.65,0.7 0.781055,-1.949805 0.95,-4.9 l 0,-0.05 q 0.03535,-0.275977 0.25,-0.5 0.25918,-0.24707 0.55,-0.25 0.337305,5.86e-4 0.55,0.2 L 47.4,58 q 4.152344,-2.125 4.6,-6.85 4.584375,0.469141 8.8,-0.25 0.06113,0.01602 0.1,0 1.283203,-0.506641 3,-0.95 3.582422,-1.365234 6.7,-3.7 4.3125,-3.1375 8.2,-6.9 1.789844,-1.72832 1.5,-4.05 l 0.2,-0.1 Q 80.330859,34.644336 80.05,34.1 79.029492,32.043945 76.95,30.95 76.330859,30.649414 75.7,30.5 75.68613,30.4916 75.65,30.45 75.57051,30.44 75.5,30.4 q -0.03359,0.03008 -0.1,0.05 l -2.8,0.05 0,0 q 0.02109,-0.03555 0.05,-0.1 0.08242,-0.21582 0.25,-0.35 l 0.05,0 1.65,-0.95 q 0.0832,-0.06094 0.2,-0.1 0.06719,-0.07754 0.15,-0.15 L 75,28.8 q 2.581641,-1.371094 4.75,-3 1.738086,-5.588477 4.45,-10.3 2.584961,-4.382422 4.2,-9.35 1.669922,-5.0775391 -0.15,-10.1 -1.740039,-4.9376953 -4.65,-9.7 -2.607422,-4.280078 -3.2,-9.4 -0.588086,-5.108398 -3.95,-8.65 -0.06309,-0.08555 -0.15,-0.2 -2.243164,-1.860742 -4.6,-3.1 -0.17207,-0.10625 -0.3,-0.25 -0.03027,-0.01113 -0.1,-0.05 -0.0021,0.0033 -0.05,-0.05 -0.0094,3.91e-4 -0.05,-0.05 -0.433984,-0.163086 -1.7,-0.75 -2.689453,-1.205469 -7.7,-1.65 l -0.1,0 q -1.314453,-0.08418 -2.6,-0.05 -0.124023,0.0039 -0.3,0 -0.983398,0.05449 -2.15,0.15 -3.839258,0.431641 -9.3,1.75 -1.113672,0.268945 -2.15,0.5 l -1.5,0.35 q -2.557422,0.603516 -4.5,1 l -1.3,0.25 q -0.560352,0.164062 -1.1,0.25 m 13.8,11.9 q -0.6875,0.534961 -2.8,0.5 1.717578,-4.765039 6.65,-5.7 5.377539,-1.017578 11.05,-0.5 -1.475,3.032422 -6.75,3 -4.442578,-0.0051 -8.15,2.7 m -119.1,-7.2 q -3.717578,-0.969336 -7,0.95 -3.280469,1.849414 -4.25,5.55 -0.992773,3.659766 0.9,6.95 1.844727,3.216211 5.15,3.65 2.591211,0.389844 5.4,-1.2 -3.080273,-0.810352 -4.5,-2.5 -2.007422,-2.20918 -1.05,-5.9 0.974805,-3.839453 4.25,-4.1 2.322852,-0.248438 5.9,1.55 -1.963086,-4.104102 -4.8,-4.95 m 30.05,30.95 q 0.0375,-0.02793 0.05,-0.1 -1.820312,0.2494141 -3.4,0.2 l 0,0.05 q -5.600586,1.9498047 -10.15,-0.85 0.110156,0.2146484 0.1,0.45 0.02559,0.2921875 -0.25,0.55 -0.220703,0.253125 -0.5,0.25 l 0,0 q -3.064453,0.2330078 -4.8,2.35 0.04961,0.039258 0.05,0.05 5.444531,2.8255859 7.55,7.7 0.817383,0.0096 1.7,0 7.35918,-5.2943359 9.65,-10.65 m -23.35,-14.75 0,0 q 0.768945,1.33125 4.2,2.35 0.307227,0.03633 0.5,0.3 0.126562,0.1902344 0.1,0.45 0.204297,3.9421875 -2.4,6.55 4.070703,0.1181641 7.4,4.35 -3.037305,-4.4494141 -0.3,-10.5 -1.607617,-0.881055 -3.2,-1.9 -0.04004,-0.03438 -0.1,-0.1 l -5.15,-3.8 q -1.388086,1.30957 -1.05,2.3 m 13,-15.55 0,-0.05 q -1.51875,1.005664 -0.6,3.75 l 0,0.05 q 0.08867,0.300391 -0.05,0.6 l -0.05,0 q -0.106445,0.218555 -0.3,0.35 -0.03594,0.02871 -0.1,0.05 -5.681836,2.308594 -4.4,11.2 1.482617,0.99375 3,1.8 0.06426,0.06523 0.1,0.1 0.08887,0.02852 0.15,0.05 4.309961,2.4117188 8.65,3.9 0.08144,0.01582 0.15,0.05 0.466602,0.1875 1.05,0.35 0.179297,0.071484 0.3,0.2 0.184766,-0.023633 0.4,0.05 0.54043,0.09375 1.05,0.3 l -0.05,0 q 2.373242,0.6214844 4.8,1.05 3.762109,0.6417969 7.5,0.65 9.153711,-0.084961 18.25,-4.1 0.1208984,-0.0875 0.35,-0.1 1.1029297,-0.5085937 2.2,-1.05 -2.7957031,-6.576758 -0.6,-10.15 -1.3525391,-0.256445 -2.3,-1.25 -1.391211,-1.373828 -1.9,-4.4 -0.271094,0.106641 -0.65,0.45 -1.334766,1.370898 -3.5,5.05 l 0,0.05 q -0.158008,0.230664 -0.35,0.3 5.86e-4,0.01387 -0.05,0 -0.162695,0.08066 -0.35,0.05 -0.342187,0.02363 -0.5,-0.2 -0.04004,0.0021 -0.1,-0.05 -0.117187,-0.211719 -0.1,-0.45 -0.439062,-1.860547 -0.9,-3.75 -6.313086,0.716016 -8.45,-5.1 -3.797852,1.366992 -4.95,3.75 l 0,-0.05 q -1.135937,2.676172 0.75,6.55 0.0127,0.0498 0,0.05 0.166406,0.261328 0.05,0.55 0.0168,0.06387 0,0.1 -0.127539,0.268164 -0.35,0.4 -3.91e-4,0.01328 -0.05,0 -3.4125,1.858008 -6.5,-1.4 l -0.05,0 q -2.618164,-2.772266 -5,-9.8 -4.646094,-0.876172 -6.55,0.1 M -24,1.9 l 0,0 0,0 0,0 M 1.2,-7.55 q 0.051562,-0.045508 0.1,-0.1 0.025,-0.0125 0.05,-0.05 2.6585937,-3.470898 -2.75,-8.4 -0.068359,-0.009 -0.15,-0.1 -0.080664,-0.07324 -0.2,-0.1 -0.3,0.20957 -0.65,0.9 -1.0652344,1.992773 -2.2,6.85 0.033594,0.1470703 -0.05,0.25 -0.087305,0.1515625 -0.2,0.25 -0.1132812,0.1208984 -0.3,0.1 l -0.05,0 0,0.05 0.15,-0.05 q -0.063281,0.061328 -0.15,0.1 -1.3048828,0.6267578 -2.6,1.2 -0.4515625,2.0945313 -1.1,3.75 -0.4949219,1.3685547 -1.1,2.45 0.2400391,7.1273438 -6,6.95 -5.392578,-0.1845703 -8,-4.6 2.562305,7.378125 7.7,12.2 3.158008,0.23457 5.6,0.85 4.7416016,-1.911914 7.1,-7.15 -0.7552734,0.1955078 -1.45,0 -1.4960937,-0.359375 -2.5,-2.5 -0.1642578,-0.3589844 0.05,-0.65 0.090234,-0.24375 0.35,-0.4 4.9591797,-2.3113281 6.25,-5.65 -1.9759766,0.3234375 -3.1,-0.55 -1.5337891,-1.0488281 -1.55,-4.1 0.00762,-0.2259766 0.15,-0.45 0.1650391,-0.2414062 0.4,-0.3 0.2539063,-0.1171875 0.55,0 4.56054687,1.6689453 5.65,-0.75 m 11,-20.2 q -4.2402344,-0.665625 -6.9,0.75 -1.9900391,1.131641 -2.1,4.35 3.5568359,-2.396484 6.3,-2.15 3.22832,0.149219 5.3,3.8 l 0,0 q 1.232422,2.221875 1,4 -0.192383,1.374414 -1.2,2.5 -1.808789,2.15332 -6.8,3.4 0.5183594,0.580664 0.75,0.7 3.651758,0.9185547 6.9,-0.95 3.285156,-1.897266 3.85,-5.35 0.583594,-3.64082 -1.25,-7.05 -1.771875,-3.336719 -5.85,-4 z"
         id="path15143"
         inkscape:connector-curvature="0"
         style="fill:#cc9966;stroke:none" />
      <path
         d="m -33,67.85 q 0.0168,-0.06816 0.05,-0.15 1.2875,-2.278711 1.3,-4.2 -4.273633,3.877734 -3.9,9.5 0.0625,1.032422 -0.1,2.2 -0.635156,3.994922 -2.35,8.1 l 0,0.05 q 1.842188,-2.63125 5.35,-4.85 -0.826758,-4.332617 0.8,-9.5 l -0.25,-0.1 q -0.34375,0.120703 -0.6,-0.05 l -0.05,-0.05 q -0.335352,-0.238477 -0.3,-0.55 -0.0293,-0.19043 0.05,-0.4 z"
         id="path15145"
         inkscape:connector-curvature="0"
         style="fill:#80552b;stroke:none" />
      <path
         d="m -47.25,93.95 q 0.09902,0.09727 0.1,0.2 0.08047,0.128125 0.1,0.25 0.02676,0.05957 0.05,0.1 l 0.05,0 q 0.634375,0.425 2.1,1.1 2.442578,1.110352 5.5,-1.85 -4.478906,0.646484 -8.75,-0.8 0.38457,0.511328 0.85,1 m -12.4,0.1 0,0.05 q 0.06289,0.03789 0.1,0.1 0.05273,0.02344 0.05,0.05 1.388867,1.984375 4,1.95 l 0,0 q 2.636133,-0.0959 6.4,-1.95 -0.888867,-1.097852 -1.4,-2.3 0.398828,1.179492 -1.25,1.45 -4.880469,0.787891 -9.25,-1.95 0.369336,1.397266 1.35,2.6 m -3.2,-3.9 q -3.350195,1.682227 -5.75,0.05 1.379492,3.183594 6.8,3.6 -0.994531,-1.706445 -1.05,-3.65 M -52.65,72 q -1.887109,-1.894727 -1.5,-5.25 -0.596094,3.668555 -0.9,7.85 l 0,0 q 0.0047,0.147461 -0.05,0.3 -0.03125,0.110352 -0.1,0.15 -0.136914,0.158594 -0.3,0.2 -3.196094,1.62207 -5.65,3.15 5.384961,0.06992 10.55,0.25 6.797266,0.304883 0.85,-4.2 -1.537695,-1.132617 -2.9,-2.45 M -8.3,83.25 Q -8.8357422,81.995508 -9.55,81 q 1.5308594,6.025977 -0.7,11.4 1.6269531,-1.495313 2.3,-3.8 0.6822266,-2.750195 -0.35,-5.35 l 0,0 M -9.35,79.9 q 1.0400391,-0.908789 1.55,-2.05 -5.08125,0.151758 -2.1,2.85 l 0.2,-0.2 q 0.00625,-0.02578 0,-0.1 0.1044922,-0.307031 0.35,-0.5 m -17.55,15.75 0,0.05 0.05,0.15 q 1.162695,1.6 4.65,1.3 l 0.1,0 q 2.974609,-0.286914 3.65,-3.4 -6.247266,1.799219 -9.65,-1.95 0.422266,1.797852 1.2,3.85 m -10.8,-2.1 q 0.04648,0.06113 0.05,0.1 1.189258,2.764453 4.2,4 l 0,0 q 0.832617,0.345508 1.55,0.5 0.02461,0.01113 0.05,0 0.07715,0.04785 0.15,0.05 0.05606,0.02481 0.1,0 0.06172,0.02207 0.1,0 0.773047,0.163477 1.4,0 0.09531,-0.04512 0.2,-0.05 1.075586,-0.397266 1.5,-1.85 0.01094,-0.01621 0,-0.05 -0.01309,-0.025 -0.05,-0.05 -0.400781,-1.123633 -0.75,-2.2 -6.255078,1.629883 -9.2,-4.15 0.109766,2.206055 0.7,3.7 m 94.6,-41.15 0.05,0 q 1.790234,-0.830273 3.85,-1.5 -4.215625,0.719141 -8.8,0.25 -0.447656,4.725 -4.6,6.85 0.946289,0.827148 1.85,0.75 l 0,0 q 0.951758,-0.173242 1.8,-1.35 0.881445,-1.186523 0.85,-2.2 l 0,0 q 0.0059,-0.266602 0.15,-0.5 l 0.05,0 q 0.151562,-0.294922 0.5,-0.35 0.06504,-0.04356 0.1,-0.1 l 0.05,0 3.85,-1.7 -0.05,0 q 0.122266,-0.0459 0.25,-0.05 0.0625,-0.06445 0.1,-0.1 M 23.4,63.6 Q 23.232422,62.475977 23.35,61 21.352148,60.90352 18.8,58.6 q -0.607031,1.961133 0.1,3.15 1.083203,1.519336 4.5,1.85 M 35.9,65 q 0.01367,0.08613 0,0.15 l 0,0 q 0.05781,0.08437 0.1,0.15 l 0,0 q 0.471875,1.088867 1.9,1.7 1.594531,0.666211 3.2,0.3 2.708594,-0.725977 3.95,-3.85 -4.784961,3.422461 -9.65,-0.7 0.136523,1.353125 0.5,2.25 m -10.8,-1.15 0.05,0.2 0,0.05 0.05,0.05 0,0.05 q 0.617773,1.756445 2.8,2 2.325586,0.242188 6.2,-1.1 -0.264258,-0.860742 -0.4,-2.1 -4.052539,1.927734 -8.9,-0.95 0.01016,1.008594 0.2,1.8 M 80.5,35.2 80.3,35.3 q 0.289844,2.32168 -1.5,4.05 -3.8875,3.7625 -8.2,6.9 -3.117578,2.334766 -6.7,3.7 1.186133,-0.288672 2.6,-0.55 3.02207,-0.553711 5.9,-1.45 2.802344,-0.881445 5.15,-2.75 2.258984,-1.770117 3.1,-4.6 l 0,0 Q 81.373828,37.963477 80.5,35.2 M 47.25,20.6 q -1.462695,-2.407422 -3.35,-4.8 -1.717578,-2.242578 -3.3,-4.55 1.10332,10.016211 9.4,17.35 1.133789,1.037305 2.4,2 l 0.05,0 0,0 0.05,0.05 0.15,0.05 q 0.06328,0.03457 0.1,0.05 4.033789,2.211719 7.95,1.6 1.091211,-0.999219 2.25,-1.9 0.170312,-0.193359 0.3,-0.4 0.911719,-1.432031 0.1,0.1 1.413086,-1.027539 2.95,-1.95 2.402344,-1.372656 1.7,-3.25 -0.890234,0.799805 -2.35,1.4 -5.062695,2.117578 -10.35,0.45 -5.352539,-1.615039 -8.05,-6.2 m 29.2,-52.3 q 3.361914,3.541602 3.95,8.65 0.592578,5.119922 3.2,9.4 2.909961,4.7623047 4.65,9.7 1.819922,5.0224609 0.15,10.1 -1.615039,4.967578 -4.2,9.35 -2.711914,4.711523 -4.45,10.3 5.497656,-4.05625 8.55,-9.55 4.559766,-8.0236328 3.8,-17.85 -0.824414,-9.588281 -6.2,-18.6 -0.05879,-0.03652 -0.1,-0.1 -4.461719,-7.23125 -9.35,-11.4 M 47.8,-21.2 q 2.1125,0.03496 2.8,-0.5 3.707422,-2.705078 8.15,-2.7 5.275,0.03242 6.75,-3 -5.672461,-0.517578 -11.05,0.5 -4.932422,0.934961 -6.65,5.7 M 23.05,-33 q 1.529687,2.300781 2.8,4.75 4.110156,-0.527344 7.5,-2.35 1.792383,-0.954883 3.45,-3 -1.136719,0.235937 -1.9,0.35 -6.387695,0.930469 -11.85,0.25 m -80.4,38 q -3.91e-4,-0.010742 -0.05,-0.05 -0.764844,1.00625 -1.3,2.35 2.809961,1.1306641 3.75,2.75 0.856445,1.428906 0.45,3.15 1.918164,-0.391797 4.7,-0.5 -2.105469,-4.8744141 -7.55,-7.7 m 15.55,-2.8 0,-0.05 q -4.291406,-0.039453 -6.8,-1.95 -3.775977,-2.7183594 -3.7,-9.4 -2.737305,6.0505859 0.3,10.5 l 0,0 0.05,0.05 q 4.549414,2.7998047 10.15,0.85 m 17.8,-0.3 0,0 q 2.607422,4.4154297 8,4.6 6.2400391,0.1773438 6,-6.95 -1.675391,2.9160156 -4.15,3.9 Q -18.083203,5.2476563 -24,1.9 z"
         id="path15147"
         inkscape:connector-curvature="0"
         style="fill:#bb7c3e;stroke:none" />
      <path
         d="m -21.4,55.6 q -0.809961,1.119922 -1.95,1.6 -4.659766,2.09668 -5.5,6.6 0.372266,-0.248242 0.75,-0.5 3.317578,-2.006445 4.8,-3 4.289063,-2.835352 4.15,-7.1 -1.249805,1.149023 -2.25,2.4 m -29.15,-9.2 0,0.05 q 0.551172,2.184961 1.65,4.15 0.09687,0.119727 0.1,0.25 1.911719,3.264648 5.4,5.75 3.152539,2.341211 3.95,3.2 0.934766,0.946094 1.55,2.05 -0.546289,-3.301563 -2.55,-5.85 -1.594922,-2.042578 -2.35,-4.35 -2.004883,-6.180078 -7.75,-5.25 M -32,-53 q 4.669922,-4.204883 9.5,-6.7 3.447461,-1.784961 6.55,-4.5 l 0.05,-0.05 q -7.241016,2.377148 -14.85,7.7 l 0,0.05 q -0.224219,0.141992 -0.45,0.1 -0.245117,0.02812 -0.45,-0.1 -0.205664,-0.158203 -0.3,-0.35 0.01172,3.91e-4 0,-0.05 -2.933398,-8.018359 -12.05,-9.05 l 0,0.05 q 4.354492,3.464453 7.2,7.75 2.240039,3.419922 4.8,5.15 m 50.35,88.45 q -4.809375,4.064844 -9.75,6.7 -4.7376953,2.567383 -10.1,3.15 -4.2351562,0.545117 -7.75,2.2 -4.984375,2.476367 -7.3,7.7 1.601367,-2.911523 6.55,-4.9 l 0,0 q 9.14238281,-2.765039 14.1,-4.3 8.666211,-2.8125 12.1,-6.7 1.471875,-1.723828 2.15,-3.85 M 30,-8.85 q -0.148047,-0.7875 -0.4,-1.6 -5.687891,-0.266211 -9.2,3.45 5.088281,4.6507812 7.85,9.8 -0.597461,-4.3164062 -2.3,-8.85 -0.01465,7.813e-4 -0.05,-0.05 -0.136133,-0.3316406 0.05,-0.6 0.115625,-0.2349609 0.35,-0.4 0.288477,-0.1822266 0.65,0 l 3.35,0.9 Q 30.238086,-6.9785156 30.15,-7.8 30.092383,-8.3021484 30,-8.85 m -14.7,-32.65 0.05,0 6.8,-1.35 -4.65,-3.7 q -4.141406,1.592773 -9.5,3.2 -1.1224609,0.389844 -2.15,1.05 0.7798828,1.582422 2.95,2.3 5.737891,1.778711 10.95,5.25 -2.172852,-2.811523 -4.75,-5.35 -0.299023,-0.163867 -0.3,-0.55 0.0049,-0.285547 0.15,-0.5 0.155469,-0.245508 0.45,-0.35 m 5.7,8.4 -0.2,0.1 q 2.252539,4.515039 2.8,10.05 0.432422,4.062305 3.2,7.5 1.889648,2.350391 2.8,5 l 0.2,-0.05 q -1.430664,-9.702539 -5.7,-17.6 -1.366406,-2.574023 -3.1,-5 M -65,5.35 q -0.970117,-0.080078 -1.95,0.2 -0.1,-3.3925781 -2.25,-5.65 0.352539,2.425 -0.8,4.2 -0.480078,-3.86503906 -4.8,-5.9 2.152539,4.5875 2.8,9.55 0.166602,0.959375 0.25,1.9 0.24668,2.19082 0.25,4.35 0.03926,1.969141 -0.1,3.9 -0.4,6.059961 1,6.15 1.239844,-5.132617 2.8,-9.25 2.040039,1.680078 2.4,4.2 1.240039,-4.640039 -1,-7.8 1.952344,-3.2849609 1.4,-5.85 m 40.5,-44.05 q 1.2,0.175 2,0.9 -3.270117,-4.854883 -8.9,-5 1.95,-1.364844 2.7,-3.9 -5.432617,0.705078 -8.45,3 0.025,-1.385156 -0.8,-2.5 -2.742578,2.35 -4.55,6.65 3.521094,-0.02012 7.05,-0.05 5.555078,0.03496 10.95,0.9 m -20.25,-0.8 q 1.133398,5.86e-4 2.25,-0.05 -0.676172,-2.804687 -0.5,-7.8 0.225,-4.612695 0.2,-9.25 -1.652539,7.277539 -2.65,13.05 -3.5625,-2.85 -7.15,-4.15 3.109961,2.057422 4.25,5.45 -3.659961,1.884961 -6.25,5.05 4.509961,-2.157617 9.85,-2.3 M 8.75,23 Q 8.7048828,21.712305 8.7,20.4 11.539844,16.634961 14.3,13.1 10.907617,16.075 7.85,17 5.7900391,12.392383 5.6,7.8 q 0.025,4.794922 0,9.55 0.025,2.4 0,4.8 Q 4.2275391,21.717383 3.95,21.5 3.0349609,20.954883 2,20.4 2.3974609,25.194922 2.25,29.7 3.8300781,28.115039 4.6,25.8 6.5875,27.149805 8.15,28.85 8.9099609,26.437305 8.75,23 z"
         id="path15149"
         inkscape:connector-curvature="0"
         style="fill:#733a02;stroke:none" />
      <path
         d="m -65.8,30.05 0.05,0.05 q 0.319336,0.07949 0.45,0.3 0.173437,0.238672 0.15,0.5 l 0,0.05 q -0.677734,8.833398 4,13.8 0.0584,0.07168 0.05,0.15 1.356445,1.34082 4,3.6 -3.106641,-3.478906 -4.45,-8.85 -1.130078,-4.897461 -2.35,-11.5 -3.311719,-0.396875 -5.6,2.25 1.289258,-0.85957 3.7,-0.35 M -77.7,8.6 l 0.4,0 q 0.04727,-2.3625 0.25,-4.8 -2.597656,0.7523438 -5.1,2.6 -4.669531,3.5470703 -3.55,8.3 2.274805,-4.7994141 6.85,-6.55 0.04902,0.010156 0.05,0 l 0.05,-0.05 q 0.257617,-0.1263672 0.6,0.05 0.277734,0.091406 0.4,0.35 0.0418,0.073633 0.05,0.1 m -10.8,-21.75 q 1.377344,-4.970117 4.65,-8.95 3.487305,-4.175 6.55,-8.6 3.104883,-4.377539 8,-6.5 5.424805,-2.360156 0,-7.2 -2.569727,-2.360937 -5.5,-2.9 -1.825195,2.103711 -3.6,4.5 4.690234,-2.148437 7.55,0.85 0.153125,0.163086 0.2,0.45 0.04356,0.04922 0.05,0.1 -0.0068,0.174805 -0.1,0.35 -0.0062,0.09785 -0.1,0.15 -0.05,0.0998 -0.15,0.15 -0.01895,0.07051 -0.1,0.1 -21.373242,10.736914 -21.15,38.4 2.275,-5.3976562 3.7,-10.9 z"
         id="path15151"
         inkscape:connector-curvature="0"
         style="fill:#c66504;stroke:none" />
      <path
         d="m -77.3,8.6 -0.4,0 q 0.05918,0.2615234 0,0.5 l 0.4,0 q 0.02559,-0.2373047 0,-0.5 z"
         id="path15153"
         inkscape:connector-curvature="0"
         style="fill:#b05904;stroke:none" />
      <path
         d="m -44,-65.9 0,-0.05 0,0 0,0.05 m 73.6,55.45 q 0.251953,0.8125 0.4,1.6 -0.07402,-0.7703125 -0.2,-1.55 -0.0041,-0.03672 0,-0.1 l -0.2,0.05 M 3,-58.15 3,-58.2 q -0.3042969,-0.170117 -0.3,-0.5 -0.049609,-0.25 0.05,-0.4 1.1988281,-3.477539 5.35,-4.3 -6.5710938,-2.797461 -13.5,-2.7 -5.143945,0.132813 -10.5,1.85 l -0.05,0.05 q -3.102539,2.715039 -6.55,4.5 -4.830078,2.495117 -9.5,6.7 -2.559961,-1.730078 -4.8,-5.15 -2.845508,-4.285547 -7.2,-7.75 l 1.8,3.95 0,0.05 q 0.06777,0.195508 0.05,0.4 0.02285,0.07539 0,0.1 -0.07988,0.279492 -0.35,0.45 -0.188477,0.148437 -0.5,0.15 l 0,0 q -18.376367,-1.649023 -31.8,13.5 2.930273,0.539063 5.5,2.9 5.424805,4.839844 0,7.2 -4.895117,2.122461 -8,6.5 -3.062695,4.425 -6.55,8.6 -3.272656,3.979883 -4.65,8.95 -1.425,5.5023438 -3.7,10.9 l 4.3,-2.45 0,0 q 0.224023,-0.1548828 0.45,-0.15 0.267188,-0.013281 0.5,0.25 0.174023,0.1384766 0.25,0.35 0.01426,0.024805 0,0.05 0.473438,2.3779297 0.1,5.1 -0.206055,1.5564453 -0.8,4.5 -0.57168,4.609766 1.7,9.3 l 0,0 q -1.119531,-4.7529297 3.55,-8.3 2.502344,-1.8476562 5.1,-2.6 -0.202734,2.4375 -0.25,4.8 0.02559,0.2626953 0,0.5 l -0.4,0 0,0.05 q -2.8875,7.279687 1.8,14.55 0.222852,0.323437 0.5,0.75 1.323438,2.197266 4.55,7.95 0.259766,-0.906445 0.8,-1.5 l 0.05,0 q 0.23418,-0.268359 0.5,-0.5 2.288281,-2.646875 5.6,-2.25 1.219922,6.602539 2.35,11.5 1.343359,5.371094 4.45,8.85 l 0,0 q 1.243555,1.179687 2,2.4 0.945117,-3.774023 3.4,-5 0.173633,-0.06621 0.4,-0.1 0.267188,0.01191 0.5,0.25 0.174023,0.163477 0.25,0.35 5.745117,-0.930078 7.75,5.25 0.755078,2.307422 2.35,4.35 2.003711,2.548437 2.55,5.85 0.51543,0.983984 0.8,2.05 1.849414,-0.222852 2.6,-1.35 l 0,0.05 q 0.785352,-1.46582 0,-4.3 -0.101172,-0.311914 0,-0.5 0.08731,-0.195703 0.3,-0.35 0.178711,-0.13125 0.4,-0.15 0.263281,0.0078 0.5,0.15 l 0,0 q 4.014844,2.924805 3.2,7.3 0.03984,-0.0057 0.1,-0.05 0.545313,-0.441211 1.15,-0.9 0.840234,-4.50332 5.5,-6.6 1.140039,-0.480078 1.95,-1.6 1.000195,-1.250977 2.25,-2.4 0.0068,-0.442969 -0.05,-0.9 -0.002,-0.03769 0,-0.1 -0.01,-0.230664 0.1,-0.45 0.01016,-0.0014 0,-0.05 0.188477,-0.261328 0.5,-0.35 0.329297,-0.05957 0.6,0.1 0.207422,0.114648 0.35,0.4 0.01465,0.03711 0,0.05 l 1.05,3.4 q 0.05391,-0.0459 0.05,-0.1 2.315625,-5.223633 7.3,-7.7 3.5148438,-1.654883 7.75,-2.2 5.3623047,-0.582617 10.1,-3.15 4.940625,-2.635156 9.75,-6.7 0.03848,-0.02734 0.05,-0.05 0.390234,-1.218555 0.5,-2.6 0.366016,-3.389063 -0.9,-7.65 -0.0084,-0.06152 0,-0.15 -0.134375,-0.298828 0.05,-0.55 0.141992,-0.253516 0.35,-0.35 0.35,-0.144336 0.7,0 0.206055,0.114062 0.35,0.3 l 0,0.05 1.95,3.6 q 3.410742,-4.669336 5.2,-9.6 0.81543,-2.198438 1.3,-4.5 Q 27.957422,13.647461 28,13.3 28.945703,8.3730469 28.3,3.2 28.27168,3.0158203 28.25,2.8 25.488281,-2.3492188 20.4,-7 q 3.512109,-3.716211 9.2,-3.45 -0.910352,-2.649609 -2.8,-5 -2.767578,-3.437695 -3.2,-7.5 -0.547461,-5.534961 -2.8,-10.05 l 0.2,-0.1 q -0.09102,-0.117578 -0.15,-0.3 -0.07754,-0.05977 -0.15,-0.2 -0.01348,1.95e-4 -0.05,-0.05 0.0082,0.0012 0,-0.05 -0.08672,-0.03516 -0.15,-0.1 -0.01406,-0.02441 -0.05,-0.05 -0.211133,-0.304883 -0.45,-0.6 -0.109766,-0.152148 -0.25,-0.3 Q 14.537891,-38.221289 8.8,-40 6.6298828,-40.717578 5.85,-42.3 6.8775391,-42.960156 8,-43.35 q 5.358594,-1.607227 9.5,-3.2 L 3,-58.15 m 1.45,29.75 q 0.017773,0 0.05,-0.05 3.0224609,-1.695508 7.95,-0.9 4.925391,0.81875 7.05,4.85 2.106055,3.859375 1.4,8 -0.702148,4.216602 -4.65,6.5 Q 12.374414,-7.7337891 8.1,-8.9 8.046289,-8.913086 8,-8.95 7.99258,-8.1755859 7.65,-7.6 l -0.05,0 q -0.1824219,0.3123047 -0.4,0.35 l -0.05,0 Q 6.8748047,-7.1363281 6.55,-7.3 6.5189453,-7.3173828 6.45,-7.4 6.3011719,-7.5363281 6.2,-7.7 6.0480469,-8.0386719 6.25,-8.4 6.6701172,-9.2955078 5.65,-11.15 5.637305,-11.225 5.6,-11.3 5.553711,-11.38281 5.55,-11.5 l 0,-0.05 q -0.032422,-0.221875 0.1,-0.45 0.035742,-0.05664 0.1,-0.15 L 5.7,-12.1 q 1.2769531,-2.309961 1,-5.35 -1.0384766,1.469727 -2.3,2.15 -0.010742,0.05332 -0.05,0.05 -0.1751953,0.08047 -0.35,0.05 -0.2453125,0.02832 -0.45,-0.1 -0.2646484,-0.193359 -0.3,-0.5 -0.023047,-0.191602 0.05,-0.4 0.8732422,-2.77793 -1.15,-4.5 -0.2199219,-0.135937 -0.25,-0.4 -0.081641,-0.18418 -0.15,-0.35 -0.1082031,-0.12793 -0.15,-0.25 -1.13886719,-2.146094 -3,-3.9 -0.2095703,-0.24668 -0.2,-0.6 -0.00957,-0.29082 0.2,-0.55 0.2716797,-0.22207 0.6,-0.25 0.315625,0.02793 0.55,0.25 1.12929687,1.119336 2,2.35 0.5865234,-2.830273 2.7,-4 m -4.4,25.55 q 0.15136719,-0.021875 0.25,0 0.15566406,0.077344 0.2,0.2 0.10839844,0.1298828 0.1,0.25 -0.70175781,4.5623047 -6.9,7.55 0.6814453,1.2349609 1.55,1.5 1.0447266,0.2494141 2.4,-0.7 0.1009766,-0.075977 0.2,-0.1 0.15,0.024414 0.25,0.1 0.1078125,0.076953 0.15,0.2 0.040625,0.1382812 0,0.25 -2.3248047,6.7625 -7.7,9.3 4.3009766,1.358008 6,3.85 1.9767578,2.810742 0.65,7.05 -2.0742187,6.85293 -13.4,6.1 l -7.6,16.8 q -0.01563,0.117969 -0.1,0.15 -7.736914,5.462695 -15.1,-1.4 -0.06484,-0.05332 -0.1,-0.15 l -7,-16.6 q -2.691602,-0.271094 -5.1,-1.05 -7.758398,-2.475195 -8.55,-8.65 -0.696094,-5.416992 2.75,-7.3 0.401758,-0.199609 0.9,-0.45 0.949414,-1.919141 0.1,-3.35 -0.904297,-1.5390625 -3.8,-2.55 -0.164062,-0.029102 -0.25,-0.2 -0.07285,-0.1197266 -0.05,-0.3 0.524414,-1.6111328 1.3,-2.85 1.871875,-2.8316406 5.35,-3.35 -4.082617,-4.7042969 -9.3,-2.7 l -0.05,0 q -0.02324,0.044727 -0.1,0.05 -0.376172,0.1476563 -0.75,0.35 -0.156445,0.0755859 -0.35,0 -0.126953,-0.0130859 -0.2,-0.15 -0.07578,-0.1560547 -0.05,-0.35 0.06328,-0.1392578 0.2,-0.25 0.455859,-0.2132812 0.95,-0.4 l 0,0 q 4.995898,-2.3957031 4.9,-7.3 -3.906641,-1.198438 -4.65,-2.9 -0.948047,-1.849805 1.75,-4.15 0.13418,-0.09297 0.25,-0.1 0.163672,-0.0063 0.25,0.05 l 5,3.7 q -1.110352,-9.232227 4.9,-11.85 -0.997266,-3.518359 1.3,-4.75 2.229687,-1.281836 7.8,-0.15 0.124805,0.0252 0.2,0.1 0.08555,0.07227 0.1,0.15 2.350391,7.058008 4.95,9.8 2.2625,2.410352 4.75,1.35 -1.982813,-4.268164 -0.6,-7.2 1.394531,-3.067383 6.4,-4.65 0.124219,-0.02871 0.2,0 0.138281,0.0125 0.2,0.05 0.09902,0.09785 0.1,0.2 1.812891,6.031836 8.15,4.95 0.149219,-0.0074 0.25,0.05 0.160547,0.116602 0.2,0.25 0.409766,1.820313 0.8,3.6 1.941992,-3.183594 3.2,-4.45 0.816406,-0.78457 1.4,-0.85 0.767969,-0.14375 1.2,0.65 0.03535,0.08398 0.05,0.15 0.3894531,2.779492 1.55,4 1.1785156,1.186523 3.1,0.9 0.1314453,-0.02773 0.25,0 0.1162109,0.09648 0.15,0.2 0.090234,0.132227 0.05,0.25 -0.00176,0.130664 -0.1,0.2 -3.1212891,3.110742 -0.45,9.75 1.0046875,-4.171094 2,-6 0.6304687,-1.120898 1.25,-1.4 0.7939453,-0.357422 1.55,0.3 6.4501953,5.824023 3,10.05 -1.2662109,3.3263672 -6.6,1.55 0.085742,1.8697266 1,2.6 1.1228516,0.7648437 3.35,0.05 M 8.7,20.4 Q 8.70488,21.712305 8.75,23 8.9099609,26.437305 8.15,28.85 6.5875,27.149805 4.6,25.8 3.8300781,28.115039 2.25,29.7 2.3974609,25.194922 2,20.4 q 1.0349609,0.554883 1.95,1.1 0.2775391,0.217383 1.65,0.65 0.025,-2.4 0,-4.8 0.025,-4.755078 0,-9.55 0.1900391,4.592383 2.25,9.2 3.057617,-0.925 6.45,-3.9 -2.760156,3.534961 -5.6,7.3 m -51.2,-59.95 q -1.116602,0.05059 -2.25,0.05 -5.340039,0.142383 -9.85,2.3 2.590039,-3.165039 6.25,-5.05 -1.140039,-3.392578 -4.25,-5.45 3.5875,1.3 7.15,4.15 0.997461,-5.772461 2.65,-13.05 0.025,4.637305 -0.2,9.25 -0.176172,4.995313 0.5,7.8 1.807422,-4.3 4.55,-6.65 0.825,1.114844 0.8,2.5 3.017383,-2.294922 8.45,-3 -0.75,2.535156 -2.7,3.9 5.629883,0.145117 8.9,5 -0.8,-0.725 -2,-0.9 -5.394922,-0.865039 -10.95,-0.9 -3.528906,0.02988 -7.05,0.05 m -16.2,14.3 q -0.02519,0.230078 -0.3,0.45 -0.02481,0.01231 -0.05,0 -1.564063,0.974023 -2.25,2.6 0.025,0.0623 0,0.1 0.02285,0.07539 0,0.1 -0.04785,0.189453 -0.2,0.3 -0.562891,1.733594 -0.3,4.05 l 0,0.05 q 0.0035,0.226172 -0.1,0.35 -0.04902,0.201367 -0.2,0.3 -0.05215,0.09355 -0.15,0.1 -0.177539,0.07969 -0.3,0.05 l -0.05,0 q -1.455664,0.1125 -2.5,-1 -0.976367,1.764648 -0.45,3.9 0.0625,0.1125 0.1,0.2 0.0459,0.08262 0.05,0.15 l 0,0.05 q 0.37832,1.194336 1.05,2.3 l 0,0.05 q 0.163672,0.299805 0.05,0.6 l 0,0 q -0.02519,0.255273 -0.3,0.45 -0.03691,0.04004 -0.1,0.05 -0.302734,0.1732422 -0.55,0.05 -0.316992,-0.05801 -0.5,-0.4 l 0.05,0 q -0.529297,-0.85957 -0.9,-1.8 -3.835156,2.5457031 -7.3,2 -4.061719,-0.554297 -6.3,-4.45 -2.272656,-3.896094 -1.1,-8.15 1.195703,-4.296875 5,-6.5 3.883789,-2.283984 8.2,-1.1 3.656836,0.890039 6.05,6.2 0.856445,-1.126172 2.15,-1.95 0.339844,-0.220117 0.65,-0.1 0.249219,0.01797 0.45,0.3 0.05254,0.04922 0.05,0.05 0.163672,0.324609 0.05,0.6 l 0,0.05 m -8.25,30.8 q 0.979883,-0.2800781 1.95,-0.2 0.552344,2.5650391 -1.4,5.85 2.240039,3.159961 1,7.8 -0.359961,-2.519922 -2.4,-4.2 -1.560156,4.117383 -2.8,9.25 -1.4,-0.09004 -1,-6.15 0.139258,-1.930859 0.1,-3.9 -0.0033,-2.15918 -0.25,-4.35 -0.0834,-0.940625 -0.25,-1.9 -0.647461,-4.9625 -2.8,-9.55 4.319922,2.03496094 4.8,5.9 1.152539,-1.775 0.8,-4.2 2.15,2.2574219 2.25,5.65 z"
         id="path15155"
         inkscape:connector-curvature="0"
         style="fill:#925103;stroke:none" />
      <path
         d="m -66.8,-13.9 q -0.43125,-2.2375 0.45,-4.15 -4.773047,-1.12793 -4.3,-5.95 -1.498047,0.713086 -2.05,2.9 -0.750977,2.987891 0.8,4.8 1.536328,1.711523 5.1,2.4 m 81.3,-4.6 q -0.186914,-0.887695 -0.75,-1.9 -1.703516,-3.019727 -4.35,-3.25 -2.60625,-0.131445 -6.1,2.35 1.8177734,1.819922 1.4,4.35 1.1466797,-1.010352 2.1,-2.95 0.060156,-0.08887 0.15,-0.15 0.1306641,-0.05 0.25,-0.05 0.1150391,0.04043 0.2,0.1 0.095117,0.105859 0.1,0.2 l 0.1,0.25 q 3.943164,-1.78125 6.9,1.05 z"
         id="path15157"
         inkscape:connector-curvature="0"
         style="fill:#fe9a9a;stroke:none" />
      <path
         d="m -65.4,-19.5 q 0.103125,-0.06211 0.2,-0.1 0.153516,-0.01836 0.25,0 0.154688,0.09336 0.2,0.2 0.674609,1.245898 1.7,1.4 -0.211523,-2.300781 0.35,-4.1 -4.258203,-2.43125 -6.8,-2.2 -0.633398,0.06641 -1.15,0.3 -0.473047,4.82207 4.3,5.95 0.397461,-0.728906 0.95,-1.45 m 79.1,4.2 q 1.179492,-1.366211 0.8,-3.2 -2.956836,-2.83125 -6.9,-1.05 L 7.5,-19.8 q 0.063477,0.150586 0.1,0.25 0.9302734,4.227148 -0.5,7.35 4.860156,-1.096289 6.6,-3.1 z"
         id="path15159"
         inkscape:connector-curvature="0"
         style="fill:#ffcccc;stroke:none" />
      <path
         d="m -62.8,-1.25 0.05,0 -0.15,0.05 q 0.07676,-0.00527 0.1,-0.05 z"
         id="path15161"
         inkscape:connector-curvature="0"
         style="fill:#000000;stroke:none" />
      <path
         d="m -39.65,31.85 q -0.709961,5.795117 1.65,10.55 1.480078,2.952539 3.8,5.2 2.515039,2.555078 6.55,2.7 0.025,0.02207 0.05,0 1.4,-0.476563 2.8,-1.45 L -17.65,33 q -5.685156,-0.557617 -13.55,-2.9 -4.482812,1.331445 -8.45,1.75 z"
         id="path15163"
         inkscape:connector-curvature="0"
         style="fill:url(#Gradient_1);stroke:none" />
      <path
         d="m -38,42.4 q -2.359961,-4.754883 -1.65,-10.55 -2.571094,0.275 -4.95,0.15 l 6.5,15.45 q 5.114063,4.727344 10.45,2.85 -4.034961,-0.144922 -6.55,-2.7 -2.319922,-2.247461 -3.8,-5.2 M -55.7,24 q -2.862695,-4.722656 0.25,-8.85 l -0.05,0 q -0.529492,0.207031 -0.9,0.4 -2.721875,1.611523 -2.15,6.1 0.647266,4.510742 5.5,6.8 -1.432422,-2.492578 -2.65,-4.45 m 25.95,2.9 -0.5,1.8 q 6.37832,1.877344 11.25,2.5 -6.678516,-1.174219 -6.1,-7.05 -2.116016,1.45 -4.65,2.75 m 9.35,-30.1 q -3.037109,0.5076172 -6.1,0.55 l 0,0.05 q 5.074023,3.9615234 10.7,5.3 0.623242,-0.09043 1.2,-0.35 3.85293,-1.67988281 5.55,-8.9 -4.537109,1.9525391 -9.1,2.9 0.675977,0.3041016 1.05,0.95 0.452734,0.8042969 0.2,1.65 -0.196875,0.84863281 -1,1.3 -0.754492,0.45253906 -1.6,0.2 -0.848828,-0.20957031 -1.3,-1 -0.452539,-0.7794922 -0.25,-1.65 0.189648,-0.5851563 0.65,-1 m -22.05,-2 q -0.11543,-0.048242 -0.25,-0.1 -4.216211,-1.4316406 -8.4,-3.7 0.710937,5.3892578 8.2,9.9 2.432422,0.1861328 5.5,-0.35 0.04219,-0.0550781 0.1,-0.15 0.09004,-0.12773437 0.25,-0.2 0.113672,0.005273 0.2,0.05 l 1.75,-3.15 q -0.09492,-0.054883 -0.15,-0.2 -0.06484,-0.086328 -0.05,-0.2 -2.2625,-0.4359375 -4.5,-1.1 -0.10293,-0.01543 -0.2,-0.05 0.06406,0.1041016 0.1,0.2 0.477734,0.8042969 0.25,1.65 -0.221875,0.8484375 -1,1.3 -0.791797,0.45253906 -1.65,0.2 -0.848828,-0.1970703 -1.3,-1 -0.440234,-0.7671875 -0.2,-1.65 0.22207,-0.8236328 1,-1.3 0.184961,-0.080469 0.35,-0.15 z"
         id="path15165"
         inkscape:connector-curvature="0"
         style="fill:#ffffff;stroke:none" />
      <path
         d="m -31.85,28.6 0.45,-1.8 q -9.771094,-3.935938 -16.8,-12.5 -4.873242,-1.95e-4 -7.25,0.85 -3.112695,4.127344 -0.25,8.85 1.217578,1.957422 2.65,4.45 1.010156,0.495703 2.2,0.85 1.008984,0.343945 2.05,0.55 0.251367,0.07363 0.45,0.1 1.26543,0.266016 2.55,0.4 l 0.15,0 q 6.089648,0.504492 13.8,-1.75 m 21.15,-12 q -0.11582,0.0014 -0.2,-0.1 -2.34375,-0.563867 -5.35,-0.8 -2.963477,4.610742 -8.85,8.45 -0.578516,5.875781 6.1,7.05 0.128516,0.05352 0.25,0.05 1.167969,0.186523 2.25,0.25 l 0.15,0 q 1.630664,0.135352 3.05,0.05 7.6726563,-0.233008 9.4,-5.3 1.0902344,-3.605078 -0.55,-6.05 -1.7210937,-2.403125 -6.25,-3.6 z"
         id="path15167"
         inkscape:connector-curvature="0"
         style="fill:#ead5bf;stroke:none" />
      <path
         d="m -30.45,25.45 0.05,0 q -9.897266,-6.165625 -9,-13.35 -1.230469,0.238477 -2.5,0.5 -2.250195,0.541406 -4.6,1.3 6.770508,7.875781 16.05,11.55 z"
         id="path15169"
         inkscape:connector-curvature="0"
         style="fill:#8b5b2e;stroke:none" />
      <path
         d="m -21.25,13.6 q -8.433203,-3.159961 -18.15,-1.5 -0.897266,7.184375 9,13.35 8.695703,-4.516992 12.6,-10.35 -1.700195,-0.840234 -3.45,-1.5 z"
         id="path15171"
         inkscape:connector-curvature="0"
         style="fill:#583a1d;stroke:none" />
      <path
         d="m -26.5,-2.6 1.35,2.4 q 5.573047,3.6509766 9.35,2.9 -5.625977,-1.3384766 -10.7,-5.3 M -51.1,-9 q -0.01543,5.7957031 3.2,8.2 1.939453,1.44511719 5,1.7 -7.489063,-4.5107422 -8.2,-9.9 z"
         id="path15173"
         inkscape:connector-curvature="0"
         style="fill:#cccccc;stroke:none" />
      <path
         d="m -34.7,-2.8 q -0.15,-0.016797 -0.3,-0.1 -0.04844,0.019922 -0.1,0 l -1.75,3.15 q 0.05918,0.0162109 0.1,0.05 0.262109,0.13984375 0.35,0.5 0.0037,0.0753906 0,0.1 0,0.0998047 0,0.15 -0.0045,0.0875 -0.05,0.15 -1.490625,5.1486328 -7.4,10.2 9.927734,-2.6433594 18.65,-0.7 -5.160937,-5.8580078 -2.4,-12.85 l -0.05,-0.05 q -3.536133,-0.016211 -7.05,-0.6 z"
         id="path15175"
         inkscape:connector-curvature="0"
         style="fill:#a86f37;stroke:none" />
    </g>
    <g
       id="Symbol_3_0_Layer0_0_FILL-6">
      <path
         d="m -2.25,2 q 0.00879,-0.026953 0,-0.05 0.8535156,-2.74335937 -1.55,-5.8 -0.1552734,2.7203125 -2.25,5.65 -0.022461,0.054102 -0.05,0.05 L -6.15,1.9 q -1.8320313,2.5861328 -6.3,7.55 L -12.5,9.5 q -3.387891,4.511328 -2.75,8.45 0.830664,5.056641 7.85,10.85 1.5402344,0.467187 3.1,0.85 2.0865234,0.365625 4.05,1 0.48027344,0.136914 0.95,0.25 -8.3392578,-7.319922 -10.1,-12.7 -1.546289,-4.705273 1.75,-9.1 0.011914,-9.766e-4 0,-0.05 3.9667969,-4.1130859 5.05,-6.3 l 0,0 Q -2.3583984,2.3566406 -2.25,2 z"
         id="path15178"
         inkscape:connector-curvature="0"
         style="fill:#8f6030;stroke:none" />
      <path
         d="m -1.5,-24.15 0,0 q -2.5728516,1.357031 -4.25,3.85 -0.5431641,-0.782617 -0.65,-2.55 l 0,-0.05 q 0.013867,-0.247266 -0.15,-0.4 -0.1804687,-0.314844 -0.5,-0.3 -0.2238281,-0.04023 -0.4,0 -0.2845703,0.110938 -0.4,0.35 l 0,0.05 -0.05,0 q -4.605859,7.973242 -4.65,15.25 -0.03848,7.1546875 4.9,9.85 -1.8408203,2.4693359 -5.6,6.7 l -0.05,0 q -0.06367,0.071484 -0.15,0.15 -3.771289,4.998242 -3,9.4 0.718555,4.624414 6.3,9.85 0.6492188,0.199805 1.3,0.4 0.7193359,0.215234 1.45,0.4 -7.019336,-5.793359 -7.85,-10.85 -0.637891,-3.938672 2.75,-8.45 l 0.05,-0.05 Q -7.9820313,4.4861328 -6.15,1.9 L -6.1,1.85 q 0.027539,0.0041 0.05,-0.05 2.0947266,-2.9296875 2.25,-5.65 2.4035156,3.05664063 1.55,5.8 0.00879,0.023047 0,0.05 -0.1083984,0.3566406 -0.35,0.75 l 0,0 q -1.0832031,2.1869141 -5.05,6.3 0.011914,0.049023 0,0.05 -3.296289,4.394727 -1.75,9.1 1.7607422,5.380078 10.1,12.7 1.1777344,0.257812 2.35,0.5 Q 3.083203,31.35449 3.1,31.3 2.9726563,31.235742 2.85,31.15 2.7777344,31.087109 2.65,31 -6.4177734,23.338672 -8.25,17.8 -9.6121094,13.691992 -6.7,9.8 -2.6314453,5.5521484 -1.5,3.3 L -1.55,3.35 Q -1.3613281,3.053125 -1.25,2.75 1.3277344,2.0851562 3.95,1.5 L 4,1.5 q 1.1611328,-0.2591797 2.05,-1.4 2.1263672,-2.8337891 5.05,-4.7 0.105859,-0.032422 0.15,-0.15 0.979883,-0.6582031 1.9,-1.4 4.726367,-3.4765625 3.1,-9.85 -0.07949,-0.307031 -0.35,-0.5 -0.238672,-0.174023 -0.6,-0.1 l 0.05,0 q -0.256641,0.03789 -0.5,0.1 0.485938,-1.836523 0.95,-3.65 0.414453,-1.774219 0.35,-3.45 -0.009,-0.758203 -0.15,-1.5 -0.432813,-3.186719 -2.15,-5.95 l 0,-0.05 q -0.09297,-0.11543 -0.25,-0.2 -0.09316,-0.07285 -0.25,-0.1 -0.30332,-0.132227 -0.55,0 -0.02578,0.03262 -0.05,0.05 l -0.05,0 q -0.171875,0.113086 -0.3,0.35 -0.03262,0.125586 -0.1,0.2 -0.394727,0.79707 -0.95,1.55 -0.04824,0.04668 -0.1,0.1 -1.113867,1.392188 -2.35,2.65 -0.041602,-0.07832 -0.1,-0.2 l -0.05,0 q -0.2279297,-0.314844 -0.6,-0.3 -0.2712891,-0.002 -0.5,0.2 -0.2748047,0.212305 -0.55,0.4 -0.065234,0.03945 -0.15,0.05 -1.3820312,1.029688 -3.2,1 -2.95800781,-0.02109 -5.25,1.2 m -3.95,5.45 q 0.1714844,-0.04551 0.25,-0.2 1.5861328,-2.755664 4.25,-4.15 2.0806641,-1.114844 4.7,-1.1 2.1488281,0.02285 3.85,-1.15 -0.00977,0.07559 -0.05,0.15 0.00977,0.130664 0.05,0.25 0.044336,0.04453 0.05,0.05 -0.089453,0.138867 -0.2,0.25 -0.048633,0.05527 -0.1,0.1 -0.5386719,1.276758 -1.9,2.1 -0.1142578,0.114258 -0.15,0.25 -0.037695,0.185742 0.05,0.3 0.1015625,0.164453 0.25,0.2 0.1855469,0.0373 0.3,-0.05 0.1261719,-0.07012 0.2,-0.15 0.3289062,-0.197266 0.6,-0.45 0.8970703,-0.755859 1.35,-1.8 0.4984375,-0.471484 1,-0.95 l 0.05,0 q 1.651172,-1.561523 3.1,-3.35 l 0.05,-0.05 q 0.491992,-0.651562 0.9,-1.4 1.290625,2.326758 1.65,4.9 0.138672,0.699805 0.15,1.4 0.075,1.498438 -0.3,3.05 -0.60293,2.494922 -1.35,4.9 l 0,0.05 q -0.01035,0.124805 -0.1,0.25 -0.317773,0.656641 -1.15,0.9 -0.152734,0.07656 -0.25,0.2 -0.05098,0.170117 0,0.3 0.05156,0.17793 0.2,0.25 0.144727,0.07598 0.3,0 1.180078,-0.351953 1.65,-1.3 0.01504,-0.04707 0,-0.1 0.05039,0.01621 0.05,0 0.178906,0.07578 0.3,0 0.431641,-0.208203 0.85,-0.3 1.233398,5.310937 -2.7,8.25 -0.980078,0.7822266 -2,1.5 l 0,-0.05 Q 7.3460937,-3.6640625 5.1,-0.6 4.5255859,0.15078125 3.75,0.3 1.1939453,0.89101562 -1.3,1.55 q 0.65898438,-3.1949219 -2.6,-6.75 -0.068555,-0.083789 -0.2,-0.15 -0.1285156,0.010937 -0.25,0.05 -0.1132812,0.070703 -0.2,0.15 -0.038477,0.1412109 -0.05,0.25 0.2402344,2.8654297 -1.95,6 -0.072461,-0.00332 -0.15,-0.05 -4.683594,-2.3892578 -4.65,-9 0.03945,-6.543359 3.9,-13.65 0.38125,2.335352 1.75,2.85 0.1361328,0.09219 0.25,0.05 m 3.4,20.45 q 0.049609,-0.01875 0.1,-0.05 -0.1121094,0.052148 -0.2,0.1 0.04043,-0.020312 0.1,-0.05 z"
         id="path15180"
         inkscape:connector-curvature="0"
         style="fill:#302010;stroke:none" />
      <path
         d="m -1.95,1.7 q -0.050391,0.03125 -0.1,0.05 -0.05957,0.029688 -0.1,0.05 0.087891,-0.047852 0.2,-0.1 z"
         id="path15182"
         inkscape:connector-curvature="0"
         style="fill:#cc9966;stroke:none" />
      <path
         d="m 9.1,-25.05 -0.05,0 q -0.5015625,0.478516 -1,0.95 -0.4529297,1.044141 -1.35,1.8 5.120703,1.043945 5.4,-3.35 0.08184,-1.39082 0.15,-2.75 l -0.05,0 q -1.448828,1.788477 -3.1,3.35 m -14.3,6.15 q -0.078516,0.154492 -0.25,0.2 -0.1138672,0.04219 -0.25,-0.05 -1.36875,-0.514648 -1.75,-2.85 -3.860547,7.106641 -3.9,13.65 -0.03359,6.6107422 4.65,9 -2.2623047,-3.7146484 -2.5,-8.7 -0.052539,-2.472461 0.15,-5.05 1.275,0.2625 2.55,0.5 3.4048828,0.674805 3.05,-5.05 -0.2451172,-3.519922 2.75,-1.2 3.1224609,2.447461 5.3,-1.45 0.5769531,-1.010156 1.35,-1.8 l -0.05,0 q -0.1144531,0.08731 -0.3,0.05 -0.1484375,-0.03555 -0.25,-0.2 -0.087695,-0.114258 -0.05,-0.3 0.035742,-0.135742 0.15,-0.25 1.3613281,-0.823242 1.9,-2.1 0.051367,-0.04473 0.1,-0.1 0.1105469,-0.111133 0.2,-0.25 -0.00566,-0.0055 -0.05,-0.05 -0.040234,-0.119336 -0.05,-0.25 0.040234,-0.07441 0.05,-0.15 -1.7011719,1.172852 -3.85,1.15 -2.6193359,-0.01484 -4.7,1.1 -2.6638672,1.394336 -4.25,4.15 z"
         id="path15184"
         inkscape:connector-curvature="0"
         style="fill:#733a02;stroke:none" />
      <path
         d="m -0.7,-18.45 q -2.9951172,-2.319922 -2.75,1.2 0.3548828,5.724805 -3.05,5.05 -1.275,-0.2375 -2.55,-0.5 -0.2025391,2.577539 -0.15,5.05 0.2376953,4.9853516 2.5,8.7 0.077539,0.04668 0.15,0.05 2.1902344,-3.1345703 1.95,-6 0.011523,-0.1087891 0.05,-0.25 0.086719,-0.079297 0.2,-0.15 0.1214844,-0.039063 0.25,-0.05 0.1314453,0.066211 0.2,0.15 3.25898438,3.5550781 2.6,6.75 Q 1.1939453,0.89101562 3.75,0.3 4.5255859,0.15078125 5.1,-0.6 7.3460937,-3.6640625 10.45,-5.65 l 0,0.05 q 1.019922,-0.7177734 2,-1.5 3.933398,-2.939063 2.7,-8.25 -0.418359,0.0918 -0.85,0.3 -0.121094,0.07578 -0.3,0 3.91e-4,0.01621 -0.05,0 0.01504,0.05293 0,0.1 -0.469922,0.948047 -1.65,1.3 -0.155273,0.07598 -0.3,0 -0.148437,-0.07207 -0.2,-0.25 -0.05098,-0.129883 0,-0.3 0.09727,-0.123438 0.25,-0.2 0.832227,-0.243359 1.15,-0.9 0.08965,-0.125195 0.1,-0.25 l 0,-0.05 q 0.74707,-2.405078 1.35,-4.9 0.375,-1.551562 0.3,-3.05 -0.01133,-0.700195 -0.15,-1.4 -0.359375,-2.573242 -1.65,-4.9 -0.408008,0.748438 -0.9,1.4 l -0.05,0.05 0.05,0 q -0.06816,1.35918 -0.15,2.75 -0.279297,4.393945 -5.4,3.35 -0.2710938,0.252734 -0.6,0.45 -0.073828,0.07988 -0.2,0.15 l 0.05,0 q -0.7730469,0.789844 -1.35,1.8 -2.1775391,3.897461 -5.3,1.45 z"
         id="path15186"
         inkscape:connector-curvature="0"
         style="fill:#925103;stroke:none" />
    </g>
    <style
       id="style6"
       type="text/css">
    .str0 {stroke:#006633;stroke-width:282.22}
    .str1 {stroke:#AB754F;stroke-width:282.22}
    .fil2 {fill:none}
    .fil3 {fill:#606062}
    .fil5 {fill:#CE8F64}
    .fil4 {fill:#006633}
    .fil8 {fill:#009933}
    .fil9 {fill:#00B33C}
    .fil10 {fill:#00C943}
    .fil0 {fill:#00D447}
    .fil1 {fill:#00DB49}
    .fil6 {fill:#B88059}
    .fil11 {fill:#BA8058}
    .fil12 {fill:#D49264}
    .fil7 {fill:#E49C6D}
  </style>
  </defs>
  <metadata
     id="metadata7">
    <rdf:RDF>
      <cc:Work
         rdf:about="">
        <dc:format>image/svg+xml</dc:format>
        <dc:type
           rdf:resource="http://purl.org/dc/dcmitype/StillImage" />
        <dc:title>Bingo das Letras</dc:title>
        <cc:license
           rdf:resource="" />
        <dc:rights>
          <cc:Agent>
            <dc:title>Copyright © 2002-2016. Portal Clickideia ® - Todos os Direitos Reservados</dc:title>
          </cc:Agent>
        </dc:rights>
        <dc:description>SVG game with snapSVG lib and other javascripts included</dc:description>
        <dc:language>pt_BR</dc:language>
        <dc:subject>
          <rdf:Bag>
            <rdf:li>Educativo</rdf:li>
            <rdf:li>ensino fundamental</rdf:li>
            <rdf:li>clickiéia</rdf:li>
            <rdf:li>letras</rdf:li>
            <rdf:li>lingua portuguesa</rdf:li>
            <rdf:li>infantil</rdf:li>
            <rdf:li>educational game</rdf:li>
            <rdf:li>game design</rdf:li>
            <rdf:li>multimidia</rdf:li>
          </rdf:Bag>
        </dc:subject>
        <dc:creator>
          <cc:Agent>
            <dc:title>http://www.clickideia.com.br/</dc:title>
          </cc:Agent>
        </dc:creator>
        <dc:publisher>
          <cc:Agent>
            <dc:title>http://www.clickideia.com.br/</dc:title>
          </cc:Agent>
        </dc:publisher>
        <dc:date>18/01/2016</dc:date>
        <dc:contributor>
          <cc:Agent>
            <dc:title>michel morandi - michel.morandi@clickideia.com.br</dc:title>
          </cc:Agent>
        </dc:contributor>
      </cc:Work>
    </rdf:RDF>
  </metadata>
  <g
     id="g17597"
     transform="matrix(0.25330184,0,0,0.25330184,67.517356,50.022342)">
    <g
       id="g17599"
       transform="matrix(2.0323639,0,0,1.9793091,-75.9,0.2)">
      <use
         id="use17601"
         xlink:href="#Symbol_2_0_Layer1_0_FILL"
         x="0"
         y="0"
         width="1280"
         height="800" />
    </g>
    <g
       id="g17603"
       transform="matrix(2.0323639,0,0,1.9793091,63.65,-135.2)">
      <g
         id="g17605">
        <use
           id="use17607"
           xlink:href="#Symbol_3_0_Layer0_0_FILL-6"
           x="0"
           y="0"
           width="1280"
           height="800" />
      </g>
    </g>
  </g>
</svg>
