<?xml version="1.0" encoding="UTF-8" standalone="no"?>
<!-- Created with Inkscape (http://www.inkscape.org/) -->

<svg
   xmlns:dc="http://purl.org/dc/elements/1.1/"
   xmlns:cc="http://creativecommons.org/ns#"
   xmlns:rdf="http://www.w3.org/1999/02/22-rdf-syntax-ns#"
   xmlns:svg="http://www.w3.org/2000/svg"
   xmlns="http://www.w3.org/2000/svg"
   xmlns:sodipodi="http://sodipodi.sourceforge.net/DTD/sodipodi-0.dtd"
   xmlns:inkscape="http://www.inkscape.org/namespaces/inkscape"
   id="svg2"
   version="1.1"
   inkscape:version="0.48.4 r9939"
   width="152.09071"
   height="141.82628"
   xml:space="preserve"
   sodipodi:docname="sapo.svg"><metadata
     id="metadata8"><rdf:RDF><cc:Work
         rdf:about=""><dc:format>image/svg+xml</dc:format><dc:type
           rdf:resource="http://purl.org/dc/dcmitype/StillImage" /><dc:title /></cc:Work></rdf:RDF></metadata><defs
     id="defs6"><filter
       inkscape:collect="always"
       id="filter4688"
       color-interpolation-filters="sRGB"><feGaussianBlur
         inkscape:collect="always"
         stdDeviation="3.3736665"
         id="feGaussianBlur4690" /></filter></defs><sodipodi:namedview
     pagecolor="#ffffff"
     bordercolor="#666666"
     borderopacity="1"
     objecttolerance="10"
     gridtolerance="10"
     guidetolerance="10"
     inkscape:pageopacity="0"
     inkscape:pageshadow="2"
     inkscape:window-width="1600"
     inkscape:window-height="876"
     id="namedview4"
     showgrid="false"
     inkscape:zoom="0.53807398"
     inkscape:cx="-219.0561"
     inkscape:cy="132.15721"
     inkscape:window-x="0"
     inkscape:window-y="1"
     inkscape:window-maximized="1"
     inkscape:current-layer="g10" /><g
     id="g10"
     inkscape:groupmode="layer"
     inkscape:label="green frog"
     transform="matrix(1.25,0,0,-1.25,-740.01556,622.16908)"><g
       id="g4698"
       transform="matrix(0.49740997,0,0,0.49740997,297.96068,193.53646)"><g
         id="g4694"><path
           style="fill:#999999;fill-opacity:1;fill-rule:nonzero;stroke:#999999;stroke-width:6.43332529;stroke-linejoin:round;stroke-miterlimit:4;stroke-dasharray:none;filter:url(#filter4688)"
           d="m 671.15,600.25 c -15.553,0 -28.175,-12.622 -28.175,-28.175 0,-9.07495 4.30963,-17.1249 10.975,-22.275 -0.2265,-0.41467 -0.45489,-0.83339 -0.675,-1.25 -7.28,-13.777 -11.124,-28.539 -13.225,-40.525 -2.896,-16.516 -2.517,-27.743 -3.45,-23.825 -0.282,1.186 -0.778,2.407 -1.425,3.675 -5.328,10.433 -21.375,22.775 -21.375,22.775 -6.037,1.595 -9.316,-0.469 -10.6,-4.95 -6.063,-21.155 32.1,-96.325 32.1,-96.325 -10.824,-0.942 -15.936,-6.223 -16.95,-14.6 l 59.625,0 35.5,0 35.5,0 59.625,0 c -1.014,8.377 -6.102,13.658 -16.925,14.6 0,0 38.13804,75.17 32.075,96.325 -1.284,4.481 -4.538,6.545 -10.57496,4.95 0,0 -16.04704,-12.342 -21.37504,-22.775 -0.647,-1.268 -1.168,-2.489 -1.45,-3.675 -0.933,-3.918 -0.554,7.309 -3.45,23.825 -0.0125,-0.95587 0.0357,-1.92186 0.1,-2.9 -0.0643,0.97814 -0.1125,1.94413 -0.1,2.9 -2.101,11.986 -5.945,26.748 -13.225,40.525 -0.22011,0.41661 -0.4485,0.83533 -0.675,1.25 6.66537,5.1501 10.975,13.20005 10.975,22.275 0,15.553 -12.622,28.175 -28.175,28.175 -10.23891,0 -19.19572,-5.47858 -24.125,-13.65 -5.51263,2.00412 -11.56112,3.48558 -18.2,4.325 -6.63888,-0.83942 -12.68737,-2.32088 -18.2,-4.325 -4.92928,8.17142 -13.88609,13.65 -24.125,13.65 z m -56.75,-95.4 c 0.32302,-0.3417 0.61479,-0.7191 0.875,-1.1 -0.26022,0.38087 -0.55198,0.75833 -0.875,1.1 z"
           id="path3871"
           inkscape:connector-curvature="0" /><path
           inkscape:connector-curvature="0"
           id="path4692"
           d="m 671.15,600.25 c -15.553,0 -28.175,-12.622 -28.175,-28.175 0,-9.07495 4.30963,-17.1249 10.975,-22.275 -0.2265,-0.41467 -0.45489,-0.83339 -0.675,-1.25 -7.28,-13.777 -11.124,-28.539 -13.225,-40.525 -2.896,-16.516 -2.517,-27.743 -3.45,-23.825 -0.282,1.186 -0.778,2.407 -1.425,3.675 -5.328,10.433 -21.375,22.775 -21.375,22.775 -6.037,1.595 -9.316,-0.469 -10.6,-4.95 -6.063,-21.155 32.1,-96.325 32.1,-96.325 -10.824,-0.942 -15.936,-6.223 -16.95,-14.6 l 59.625,0 35.5,0 35.5,0 59.625,0 c -1.014,8.377 -6.102,13.658 -16.925,14.6 0,0 38.13804,75.17 32.075,96.325 -1.284,4.481 -4.538,6.545 -10.57496,4.95 0,0 -16.04704,-12.342 -21.37504,-22.775 -0.647,-1.268 -1.168,-2.489 -1.45,-3.675 -0.933,-3.918 -0.554,7.309 -3.45,23.825 -0.0125,-0.95587 0.0357,-1.92186 0.1,-2.9 -0.0643,0.97814 -0.1125,1.94413 -0.1,2.9 -2.101,11.986 -5.945,26.748 -13.225,40.525 -0.22011,0.41661 -0.4485,0.83533 -0.675,1.25 6.66537,5.1501 10.975,13.20005 10.975,22.275 0,15.553 -12.622,28.175 -28.175,28.175 -10.23891,0 -19.19572,-5.47858 -24.125,-13.65 -5.51263,2.00412 -11.56112,3.48558 -18.2,4.325 -6.63888,-0.83942 -12.68737,-2.32088 -18.2,-4.325 -4.92928,8.17142 -13.88609,13.65 -24.125,13.65 z m -56.75,-95.4 c 0.32302,-0.3417 0.61479,-0.7191 0.875,-1.1 -0.26022,0.38087 -0.55198,0.75833 -0.875,1.1 z"
           style="fill:#ffffff;fill-opacity:1;fill-rule:nonzero;stroke:#ffffff;stroke-width:6.43332529;stroke-linejoin:round;stroke-miterlimit:4;stroke-dasharray:none" /></g><path
         d="m 772.77816,526.15644 c -0.912,-1.825 -6.386,-1.825 -8.211,0 -1.429,0.714 1.616,3.096 4.319,3.225 -4.241,1.101 -9.143,2.767 -10.705,0.424 -3.65,-8.211 5.474,-17.334 16.422,-20.071 7.298,-2.737 6.386,-12.773 6.386,-20.984 9.162,2.82 5.805,11.626 5.905,19.273 -2.101,11.986 -5.928,26.749 -13.208,40.526 2.853,-7.601 3.243,-15.751 -0.908,-22.393"
         style="fill:#7aa94b;fill-opacity:1;fill-rule:nonzero;stroke:none"
         id="path172"
         inkscape:connector-curvature="0" /><path
         d="m 768.88596,529.38104 c 0.714,-0.185 1.411,-0.356 2.068,-0.488 -0.594,0.396 -1.319,0.524 -2.068,0.488"
         style="fill:#abd152;fill-opacity:1;fill-rule:nonzero;stroke:none"
         id="path176"
         inkscape:connector-curvature="0" /><path
         d="m 749.78396,576.98424 c -9.558,6.985 -21.454,12.07 -36.307,13.948 l 0,-7.529 c 12.633,2.773 25.533,-0.054 36.307,-6.419"
         style="fill:#7aa94b;fill-opacity:1;fill-rule:nonzero;stroke:none"
         id="path180"
         inkscape:connector-curvature="0" /><path
         d="m 813.16316,510.64684 c 0,0 -16.047,-12.328 -21.375,-22.761 -2.407,-14.309 1.865,-28.618 -3.5,-42.927 10.948,10.948 4.561,28.282 10.035,41.967 0.913,1.825 4.562,2.737 4.562,1.825 1.825,-1.825 3.649,-4.562 0.912,-7.299 2.737,-0.912 4.562,1.825 4.562,2.737 1.825,9.124 -0.913,19.159 7.299,22.809 3.377,1.501 6.136,0.683 8.088,-1.304 -1.284,4.481 -4.546,6.548 -10.583,4.953"
         style="fill:#7aa94b;fill-opacity:1;fill-rule:nonzero;stroke:none"
         id="path184"
         inkscape:connector-curvature="0" /><path
         d="m 815.65766,506.99744 c -8.211,-3.649 -5.474,-13.685 -7.299,-22.808 0,-0.913 -1.824,-3.65 -4.561,-2.737 2.737,2.737 0.912,5.474 -0.913,7.298 0,0.913 -3.649,0 -4.561,-1.824 -5.474,-13.685 0.912,-31.019 -10.036,-41.967 5.366,14.308 1.094,28.617 3.5,42.926 -0.647,-1.268 -1.146,-2.51 -1.428,-3.696 -0.933,-3.918 -0.569,7.318 -3.465,23.834 -0.1,-7.647 3.257,-16.453 -5.906,-19.273 0,8.211 0.913,18.247 -6.386,20.984 -10.948,2.737 -20.071,11.86 -16.422,20.071 1.562,2.343 6.464,0.677 10.705,-0.424 0.749,0.035 1.474,-0.092 2.068,-0.488 -0.657,0.131 -1.354,0.302 -2.068,0.488 -2.703,-0.129 -5.747,-2.511 -4.318,-3.225 1.824,-1.825 7.298,-1.825 8.21,0 4.152,6.642 3.761,14.792 0.909,22.393 -5.629,10.654 -13.33,20.709 -23.903,28.435 -10.773,6.365 -23.673,9.192 -36.307,6.419 l 0,-112.482 c 26.752,-12.078 30.991,-46.256 35.494,-76.14 l 59.632,0 c -1.014,8.377 -6.117,13.655 -16.94,14.597 0,0 38.147,75.16 32.084,96.315 -1.953,1.988 -4.711,2.805 -8.089,1.304"
         style="fill:#a1c54f;fill-opacity:1;fill-rule:nonzero;stroke:none"
         id="path188"
         inkscape:connector-curvature="0" /><path
         d="m 713.47676,470.92134 0,-76.14 35.494,0 c -4.504,29.884 -8.742,64.063 -35.494,76.14"
         style="fill:#d8cc47;fill-opacity:1;fill-rule:nonzero;stroke:none"
         id="path192"
         inkscape:connector-curvature="0" /><path
         d="m 783.96736,572.08294 c 0,-15.553 -12.608,-28.161 -28.161,-28.161 -15.553,0 -28.161,12.608 -28.161,28.161 0,15.553 12.608,28.161 28.161,28.161 15.553,0 28.161,-12.608 28.161,-28.161"
         style="fill:#ffffff;fill-opacity:1;fill-rule:nonzero;stroke:none"
         id="path196"
         inkscape:connector-curvature="0" /><path
         d="m 770.35396,572.08294 c 0,-8.034 -6.513,-14.547 -14.547,-14.547 -8.035,0 -14.548,6.513 -14.548,14.547 0,8.034 6.513,14.547 14.548,14.547 8.034,0 14.547,-6.513 14.547,-14.547"
         style="fill:#f26660;fill-opacity:1;fill-rule:nonzero;stroke:none"
         id="path200"
         inkscape:connector-curvature="0" /><path
         d="m 762.68896,572.08294 c 0,-3.801 -3.081,-6.883 -6.883,-6.883 -3.801,0 -6.882,3.082 -6.882,6.883 0,3.801 3.081,6.883 6.882,6.883 3.802,0 6.883,-3.082 6.883,-6.883"
         style="fill:#7e4f3c;fill-opacity:1;fill-rule:nonzero;stroke:none"
         id="path204"
         inkscape:connector-curvature="0" /><path
         d="m 766.16396,562.49544 c -0.953,-1.224 -3.281,-1.006 -5.2,0.488 -1.92,1.494 -2.703,3.698 -1.75,4.922 0.953,1.224 3.281,1.006 5.2,-0.488 1.92,-1.494 2.703,-3.698 1.75,-4.922"
         style="fill:#ffffff;fill-opacity:1;fill-rule:nonzero;stroke:none"
         id="path208"
         inkscape:connector-curvature="0" /><path
         d="m 713.47676,503.96104 c 0,0 10.339,5.782 20.319,-2.429 9.98,-8.21 22.393,-0.346 19.424,6.592 -2.968,6.939 5.821,0 5.821,0 0,0 -2.367,3.238 -3.381,1.388 -1.014,-1.85 11.476,-16.422 -7.259,-16.653 -18.734,-0.231 -21.509,13.877 -34.924,8.673 l 0,2.429 z"
         style="fill:#8bac47;fill-opacity:1;fill-rule:nonzero;stroke:none"
         id="path212"
         inkscape:connector-curvature="0" /><path
         d="m 755.80646,394.78104 c 0,0 29.744,36.189 21.837,68.425 0,0 11.43,-12.165 -11.074,-68.425 l -10.763,0 z"
         style="fill:#7aa94b;fill-opacity:1;fill-rule:nonzero;stroke:none"
         id="path216"
         inkscape:connector-curvature="0" /><path
         d="m 654.17536,526.15644 c 0.912,-1.825 6.386,-1.825 8.211,0 1.429,0.714 -1.616,3.096 -4.319,3.225 4.241,1.101 9.143,2.767 10.705,0.424 3.65,-8.211 -5.474,-17.334 -16.422,-20.071 -7.298,-2.737 -6.386,-12.773 -6.386,-20.984 -9.162,2.82 -5.805,11.626 -5.905,19.273 2.101,11.986 5.928,26.749 13.208,40.526 -2.853,-7.601 -3.243,-15.751 0.908,-22.393"
         style="fill:#83b54f;fill-opacity:1;fill-rule:nonzero;stroke:none"
         id="path220"
         inkscape:connector-curvature="0" /><path
         d="m 658.06756,529.38104 c -0.714,-0.185 -1.411,-0.356 -2.068,-0.488 0.594,0.396 1.319,0.524 2.068,0.488"
         style="fill:#abd152;fill-opacity:1;fill-rule:nonzero;stroke:none"
         id="path224"
         inkscape:connector-curvature="0" /><path
         d="m 677.16956,576.98424 c 9.558,6.985 21.454,12.07 36.307,13.948 l 0,-7.529 c -12.633,2.773 -25.534,-0.054 -36.307,-6.419"
         style="fill:#83b54f;fill-opacity:1;fill-rule:nonzero;stroke:none"
         id="path228"
         inkscape:connector-curvature="0" /><path
         d="m 613.79036,510.64684 c 0,0 16.047,-12.328 21.375,-22.761 2.407,-14.309 -1.865,-28.618 3.5,-42.927 -10.948,10.948 -4.561,28.282 -10.035,41.967 -0.913,1.825 -4.562,2.737 -4.562,1.825 -1.824,-1.825 -3.649,-4.562 -0.912,-7.299 -2.737,-0.912 -4.562,1.825 -4.562,2.737 -1.824,9.124 0.913,19.159 -7.298,22.809 -3.378,1.501 -6.137,0.683 -8.089,-1.304 1.284,4.481 4.546,6.548 10.583,4.953"
         style="fill:#83b54f;fill-opacity:1;fill-rule:nonzero;stroke:none"
         id="path232"
         inkscape:connector-curvature="0" /><path
         d="m 611.29586,506.99744 c 8.211,-3.649 5.474,-13.685 7.299,-22.808 0,-0.913 1.824,-3.65 4.561,-2.737 -2.737,2.737 -0.912,5.474 0.913,7.298 0,0.913 3.649,0 4.561,-1.824 5.474,-13.685 -0.912,-31.019 10.036,-41.967 -5.366,14.308 -1.094,28.617 -3.5,42.926 0.647,-1.268 1.146,-2.51 1.428,-3.696 0.933,-3.918 0.569,7.318 3.465,23.834 0.1,-7.647 -3.257,-16.453 5.906,-19.273 0,8.211 -0.913,18.247 6.386,20.984 10.948,2.737 20.071,11.86 16.422,20.071 -1.562,2.343 -6.464,0.677 -10.705,-0.424 -0.749,0.035 -1.474,-0.092 -2.068,-0.488 0.657,0.131 1.354,0.302 2.068,0.488 2.703,-0.129 5.747,-2.511 4.318,-3.225 -1.824,-1.825 -7.298,-1.825 -8.211,0 -4.151,6.642 -3.76,14.792 -0.908,22.393 5.629,10.654 13.33,20.709 23.903,28.435 10.773,6.365 23.673,9.192 36.307,6.419 l 0,-112.482 c -26.752,-12.078 -30.991,-46.256 -35.494,-76.14 l -59.632,0 c 1.014,8.377 6.116,13.655 16.94,14.597 0,0 -38.147,75.16 -32.084,96.315 1.953,1.988 4.711,2.805 8.089,1.304"
         style="fill:#abd152;fill-opacity:1;fill-rule:nonzero;stroke:none"
         id="path236"
         inkscape:connector-curvature="0" /><path
         d="m 713.47676,470.92134 0,-76.14 -35.494,0 c 4.504,29.884 8.742,64.063 35.494,76.14"
         style="fill:#dae146;fill-opacity:1;fill-rule:nonzero;stroke:none"
         id="path240"
         inkscape:connector-curvature="0" /><path
         d="m 642.98616,572.08294 c 0,-15.553 12.608,-28.161 28.161,-28.161 15.553,0 28.161,12.608 28.161,28.161 0,15.553 -12.608,28.161 -28.161,28.161 -15.553,0 -28.161,-12.608 -28.161,-28.161"
         style="fill:#ffffff;fill-opacity:1;fill-rule:nonzero;stroke:none"
         id="path244"
         inkscape:connector-curvature="0" /><path
         d="m 656.59956,572.08294 c 0,-8.034 6.513,-14.547 14.547,-14.547 8.035,0 14.548,6.513 14.548,14.547 0,8.034 -6.513,14.547 -14.548,14.547 -8.034,0 -14.547,-6.513 -14.547,-14.547"
         style="fill:#f26660;fill-opacity:1;fill-rule:nonzero;stroke:none"
         id="path248"
         inkscape:connector-curvature="0" /><path
         d="m 664.26456,572.08294 c 0,-3.801 3.081,-6.883 6.883,-6.883 3.801,0 6.882,3.082 6.882,6.883 0,3.801 -3.081,6.883 -6.882,6.883 -3.802,0 -6.883,-3.082 -6.883,-6.883"
         style="fill:#7e4f3c;fill-opacity:1;fill-rule:nonzero;stroke:none"
         id="path252"
         inkscape:connector-curvature="0" /><path
         d="m 660.78946,562.49544 c 0.953,-1.224 3.281,-1.006 5.201,0.488 1.919,1.494 2.702,3.698 1.749,4.922 -0.953,1.224 -3.281,1.006 -5.2,-0.488 -1.92,-1.494 -2.703,-3.698 -1.75,-4.922"
         style="fill:#ffffff;fill-opacity:1;fill-rule:nonzero;stroke:none"
         id="path256"
         inkscape:connector-curvature="0" /><path
         d="m 713.47676,503.96104 c 0,0 -10.339,5.782 -20.319,-2.429 -9.98,-8.21 -22.393,-0.346 -19.424,6.592 2.968,6.939 -5.821,0 -5.821,0 0,0 2.367,3.238 3.381,1.388 1.014,-1.85 -11.476,-16.422 7.259,-16.653 18.734,-0.231 21.509,13.877 34.924,8.673 l 0,2.429 z"
         style="fill:#8bac47;fill-opacity:1;fill-rule:nonzero;stroke:none"
         id="path260"
         inkscape:connector-curvature="0" /><path
         d="m 671.14706,394.78104 c 0,0 -29.744,36.189 -21.837,68.425 0,0 -11.43,-12.165 11.074,-68.425 l 10.763,0 z"
         style="fill:#83b54f;fill-opacity:1;fill-rule:nonzero;stroke:none"
         id="path264"
         inkscape:connector-curvature="0" /></g></g></svg>