<?xml version="1.0" encoding="UTF-8" standalone="no"?>
<!-- Created with Inkscape (http://www.inkscape.org/) -->

<svg
   xmlns:dc="http://purl.org/dc/elements/1.1/"
   xmlns:cc="http://creativecommons.org/ns#"
   xmlns:rdf="http://www.w3.org/1999/02/22-rdf-syntax-ns#"
   xmlns:svg="http://www.w3.org/2000/svg"
   xmlns="http://www.w3.org/2000/svg"
   xmlns:sodipodi="http://sodipodi.sourceforge.net/DTD/sodipodi-0.dtd"
   xmlns:inkscape="http://www.inkscape.org/namespaces/inkscape"
   version="1.1"
   width="82.301819"
   height="118.21782"
   id="svg2"
   xml:space="preserve"
   inkscape:version="0.48.4 r9939"
   sodipodi:docname="urubu.svg"><sodipodi:namedview
     pagecolor="#ffffff"
     bordercolor="#666666"
     borderopacity="1"
     objecttolerance="10"
     gridtolerance="10"
     guidetolerance="10"
     inkscape:pageopacity="0"
     inkscape:pageshadow="2"
     inkscape:window-width="640"
     inkscape:window-height="480"
     id="namedview39262" /><metadata
     id="metadata8"><rdf:RDF><cc:Work
         rdf:about=""><dc:format>image/svg+xml</dc:format><dc:type
           rdf:resource="http://purl.org/dc/dcmitype/StillImage" /><dc:title /></cc:Work></rdf:RDF></metadata><defs
     id="defs6"><filter
       color-interpolation-filters="sRGB"
       id="filter6230"><feGaussianBlur
         id="feGaussianBlur6232"
         stdDeviation="3.4010837" /></filter></defs><g
     transform="matrix(1.25,0,0,-1.25,-207.86624,1037.9997)"
     id="g10"><g
       id="g6257"><g
         transform="matrix(0.28363583,0,0,0.28363583,142.72028,560.99385)"
         id="g6238"><g
           id="g6234"><path
             d="m 328.1875,52.9375 c -1.72729,-0.0069 -3.59109,0.07828 -5.625,0.25 -30.46523,2.572317 -41.12897,15.138007 -34.90625,24.1875 -20.70392,8.436188 -27.02814,26.91375 -28.53125,40.71875 -37.5888,-1.41644 -36.08184,23.05252 -31.65625,36.90625 -73.22511,31.76023 -115.48054,180.86432 -107.375,188.96875 1.93886,1.93969 9.11962,-2.16202 18.59375,-12.1875 -2.43084,12.17816 -3.43659,23.38196 -2.875,32.875 -10.52521,27.522 -19.58697,68.53125 -11.65625,68.53125 8.82125,0 13.6875,-27.375 13.6875,-27.375 0,0 -6.0725,33.46875 1.53125,33.46875 7.605,0 8.53125,-24.9375 8.53125,-24.9375 0,0 2.11375,24.94875 8.5,23.125 4.64563,-1.32797 3.98857,-21.67995 3.28125,-32.75 1.10853,11.80729 4.31917,34.09502 12.84375,32.75 10.74302,-1.69737 -7.66951,-49.90783 11.65625,-67.9375 9.86385,-2.42011 19.44803,-5.24015 28.71875,-8.40625 0.0707,9.81825 0.88081,24.485 4.90625,28.75 -4.55189,4.07294 -10.50956,9.92794 -8.90625,11.53125 2.52,2.52125 10.71875,-6.8125 10.71875,-6.8125 0,0 4.5375,14.875 7.4375,14.875 2.89875,0 -3.03125,-14.125 -3.03125,-14.125 0,0 18.22125,15.09125 21.5625,11.75 3.34,-3.34 -17.90625,-16 -17.90625,-16 0,0 23.71,11.94125 24.84375,7.90625 1.02325,-3.63258 -17.96535,-10.6964 -27.25,-12.71875 3.37769,-7.34994 5.17004,-21.59391 6.09375,-32.0625 5.55132,-2.27244 10.96341,-4.68927 16.21875,-7.1875 0.1184,9.62366 1.0645,21.0149 4.59375,24.96875 -4.4553,4.0358 -9.84638,9.49737 -8.3125,11.03125 2.52,2.52125 10.71875,-6.8125 10.71875,-6.8125 0,0 4.5375,14.875 7.4375,14.875 2.9,0 -3.03125,-14.125 -3.03125,-14.125 0,0 18.2225,15.06 21.5625,11.71875 3.34125,-3.33875 -17.90625,-16 -17.90625,-16 0,0 23.71,11.97125 24.84375,7.9375 1.0141,-3.60406 -17.6706,-10.63337 -27.03125,-12.71875 3.48003,-7.51417 5.79887,-21.1068 7.125,-31.28125 49.28724,-28.10171 80.71875,-65.18234 80.71875,-95.375 0,-4.16611 -0.28325,-8.1453 -0.84375,-11.96875 30.03048,-41.27451 22.17924,-67.48644 0.8125,-84.0625 0.0451,-1.98756 0.0234,-4.14713 -0.0625,-6.46875 3.43618,0.29988 5.75632,-2.15536 4.875,-7.53125 4.75875,4.50375 10.00875,-0.94 5.125,-5.5625 -3.06972,-2.90722 -9.90113,-3.88575 -12.0625,-7.65625 -1.75243,-17.09541 31.75,-10.9375 31.75,-10.9375 4.97,-18.05875 -7.58625,-28.84125 -36.46875,-32.65625 -0.42592,-0.05629 -0.87953,-0.102981 -1.3125,-0.15625 7.97627,-7.861617 9.70934,-21.225526 -11.9375,-21.3125 z m 12.65625,25.84375 c -0.0378,0.502877 -0.0734,1.018188 -0.0937,1.53125 0.0206,-0.516357 0.0555,-1.025231 0.0937,-1.53125 z m -0.0937,5.3125 c 0.0267,0.837847 0.0656,1.679124 0.125,2.53125 -0.0595,-0.854904 -0.0985,-1.690695 -0.125,-2.53125 z m 0.5,6.625 c 0.0992,0.838707 0.22444,1.659102 0.34375,2.5 -0.11776,-0.832133 -0.24575,-1.669964 -0.34375,-2.5 z m 0.84375,5.8125 c 0.11703,0.701796 0.25011,1.397049 0.375,2.09375 -0.12584,-0.701738 -0.25718,-1.386759 -0.375,-2.09375 z m 2.40625,12.5625 c 0.36541,1.79937 0.70778,3.51481 1,5.125 -0.29327,-1.61099 -0.63388,-3.32527 -1,-5.125 z"
             transform="matrix(0.8,0,0,-0.8,0,980)"
             id="path6228"
             style="fill:#666666;fill-opacity:1;fill-rule:nonzero;stroke:#666666;stroke-width:14.10259056;stroke-miterlimit:4;stroke-dasharray:none;filter:url(#filter6230)" /><path
             d="m 328.1875,52.9375 c -1.72729,-0.0069 -3.59109,0.07828 -5.625,0.25 -30.46523,2.572317 -41.12897,15.138007 -34.90625,24.1875 -20.70392,8.436188 -27.02814,26.91375 -28.53125,40.71875 -37.5888,-1.41644 -36.08184,23.05252 -31.65625,36.90625 -73.22511,31.76023 -115.48054,180.86432 -107.375,188.96875 1.93886,1.93969 9.11962,-2.16202 18.59375,-12.1875 -2.43084,12.17816 -3.43659,23.38196 -2.875,32.875 -10.52521,27.522 -19.58697,68.53125 -11.65625,68.53125 8.82125,0 13.6875,-27.375 13.6875,-27.375 0,0 -6.0725,33.46875 1.53125,33.46875 7.605,0 8.53125,-24.9375 8.53125,-24.9375 0,0 2.11375,24.94875 8.5,23.125 4.64563,-1.32797 3.98857,-21.67995 3.28125,-32.75 1.10853,11.80729 4.31917,34.09502 12.84375,32.75 10.74302,-1.69737 -7.66951,-49.90783 11.65625,-67.9375 9.86385,-2.42011 19.44803,-5.24015 28.71875,-8.40625 0.0707,9.81825 0.88081,24.485 4.90625,28.75 -4.55189,4.07294 -10.50956,9.92794 -8.90625,11.53125 2.52,2.52125 10.71875,-6.8125 10.71875,-6.8125 0,0 4.5375,14.875 7.4375,14.875 2.89875,0 -3.03125,-14.125 -3.03125,-14.125 0,0 18.22125,15.09125 21.5625,11.75 3.34,-3.34 -17.90625,-16 -17.90625,-16 0,0 23.71,11.94125 24.84375,7.90625 1.02325,-3.63258 -17.96535,-10.6964 -27.25,-12.71875 3.37769,-7.34994 5.17004,-21.59391 6.09375,-32.0625 5.55132,-2.27244 10.96341,-4.68927 16.21875,-7.1875 0.1184,9.62366 1.0645,21.0149 4.59375,24.96875 -4.4553,4.0358 -9.84638,9.49737 -8.3125,11.03125 2.52,2.52125 10.71875,-6.8125 10.71875,-6.8125 0,0 4.5375,14.875 7.4375,14.875 2.9,0 -3.03125,-14.125 -3.03125,-14.125 0,0 18.2225,15.06 21.5625,11.71875 3.34125,-3.33875 -17.90625,-16 -17.90625,-16 0,0 23.71,11.97125 24.84375,7.9375 1.0141,-3.60406 -17.6706,-10.63337 -27.03125,-12.71875 3.48003,-7.51417 5.79887,-21.1068 7.125,-31.28125 49.28724,-28.10171 80.71875,-65.18234 80.71875,-95.375 0,-4.16611 -0.28325,-8.1453 -0.84375,-11.96875 30.03048,-41.27451 22.17924,-67.48644 0.8125,-84.0625 0.0451,-1.98756 0.0234,-4.14713 -0.0625,-6.46875 3.43618,0.29988 5.75632,-2.15536 4.875,-7.53125 4.75875,4.50375 10.00875,-0.94 5.125,-5.5625 -3.06972,-2.90722 -9.90113,-3.88575 -12.0625,-7.65625 -1.75243,-17.09541 31.75,-10.9375 31.75,-10.9375 4.97,-18.05875 -7.58625,-28.84125 -36.46875,-32.65625 -0.42592,-0.05629 -0.87953,-0.102981 -1.3125,-0.15625 7.97627,-7.861617 9.70934,-21.225526 -11.9375,-21.3125 z m 12.65625,25.84375 c -0.0378,0.502877 -0.0734,1.018188 -0.0937,1.53125 0.0206,-0.516357 0.0555,-1.025231 0.0937,-1.53125 z m -0.0937,5.3125 c 0.0267,0.837847 0.0656,1.679124 0.125,2.53125 -0.0595,-0.854904 -0.0985,-1.690695 -0.125,-2.53125 z m 0.5,6.625 c 0.0992,0.838707 0.22444,1.659102 0.34375,2.5 -0.11776,-0.832133 -0.24575,-1.669964 -0.34375,-2.5 z m 0.84375,5.8125 c 0.11703,0.701796 0.25011,1.397049 0.375,2.09375 -0.12584,-0.701738 -0.25718,-1.386759 -0.375,-2.09375 z m 2.40625,12.5625 c 0.36541,1.79937 0.70778,3.51481 1,5.125 -0.29327,-1.61099 -0.63388,-3.32527 -1,-5.125 z"
             transform="matrix(0.8,0,0,-0.8,0,980)"
             id="path5691"
             style="fill:#ffffff;fill-opacity:1;fill-rule:nonzero;stroke:#ffffff;stroke-width:14.10259056;stroke-miterlimit:4;stroke-dasharray:none" /></g><path
           d="m 231.3315,916.6597 c -7.269,7.269 0.676,18.594 26.708,20.792 26.034,2.198 19.778,-14.876 9.805,-19.947 -9.973,-5.072 -36.513,-0.845 -36.513,-0.845"
           id="path24"
           style="fill:#f0628d;fill-opacity:1;fill-rule:nonzero;stroke:none" /><path
           d="m 206.9893,879.6392 c 0,0 69.307,-30.09 70.66,-24.681 1.352,5.41 1.521,15.722 -0.676,30.091 -1.058,8.727 -6.097,24.538 -3.832,35.421 -6.363,0.841 -13.71,1.26 -22.031,1.26 -38.543,0 -44.121,-28.061 -44.121,-42.091"
           id="path28"
           style="fill:#f38aa4;fill-opacity:1;fill-rule:nonzero;stroke:none" /><path
           d="m 273.1411,920.4697 c -1.239,-5.954 -0.289,-13.379 0.996,-20.318 11.199,1.483 24.025,0.512 28.193,-5.806 3.976,14.447 -6.083,23.072 -29.189,26.124"
           id="path32"
           style="fill:#f0d79a;fill-opacity:1;fill-rule:nonzero;stroke:none" /><path
           d="m 274.1372,900.1519 c 1.064,-5.742 2.357,-11.15 2.836,-15.103 -2.197,14.369 25.357,9.297 25.357,9.297 -4.168,6.318 -16.994,7.288 -28.193,5.806"
           id="path36"
           style="fill:#eccd7e;fill-opacity:1;fill-rule:nonzero;stroke:none" /><path
           d="m 247.3037,907.4077 c 0,-2.477 -2.008,-4.484 -4.485,-4.484 -2.476,0 -4.484,2.007 -4.484,4.484 0,2.477 2.008,4.485 4.484,4.485 2.477,0 4.485,-2.008 4.485,-4.485"
           id="path40"
           style="fill:#ffffff;fill-opacity:1;fill-rule:nonzero;stroke:none" /><path
           d="m 276.4448,886.9067 c 0.718,-4.144 7.349,-4.804 10.126,-7.434 3.907,-3.698 -0.296,-8.058 -4.103,-4.455 1.032,-6.295 -3.413,-7.589 -8.133,-4.283 -4.72,3.304 2.11,16.172 2.11,16.172"
           id="path44"
           style="fill:#f0628d;fill-opacity:1;fill-rule:nonzero;stroke:none" /><path
           d="m 182.5601,854.3081 c -4.137,11.284 -7.3,35.11 30.905,30.741 38.206,-4.37 114.588,-22.135 63.012,-90.515 -51.574,-68.38 -93.917,59.774 -93.917,59.774"
           id="path48"
           style="fill:#e7e8e9;fill-opacity:1;fill-rule:nonzero;stroke:none" /><path
           d="m 170.4355,698.4956 c 0,0 -1.492,-32.405 6.183,-31.339 7.675,1.066 9.167,39.653 9.167,39.653 l -15.35,-8.314 z"
           id="path52"
           style="fill:#373535;fill-opacity:1;fill-rule:nonzero;stroke:none" /><path
           d="m 198.3643,714.271 c 0,0 -2.311,-33.044 5.667,-33.044 7.976,0 11.174,39.866 11.174,39.866 l -16.841,-6.822 z"
           id="path56"
           style="fill:#373535;fill-opacity:1;fill-rule:nonzero;stroke:none" /><path
           d="m 111.5029,695.2495 c -9.49,-21.172 -19.224,-61.811 -12.167,-61.811 7.057,0 10.951,21.902 10.951,21.902 0,0 -4.867,-26.768 1.216,-26.768 6.084,0 6.814,19.954 6.814,19.954 0,0 1.704,-19.954 6.813,-18.495 5.111,1.461 2.191,31.88 2.191,31.88 0,0 1.46,-33.339 10.707,-31.88 9.247,1.461 -8.517,45.993 13.384,57.187 21.902,11.194 -39.909,8.031 -39.909,8.031"
           id="path60"
           style="fill:#373535;fill-opacity:1;fill-rule:nonzero;stroke:none" /><path
           d="m 217.8457,848.8003 c 23.848,0 60.803,-20.197 60.803,-61.81 0,-41.612 -74.618,-99.528 -168.362,-109.019 -12.654,43.316 44.288,170.829 107.559,170.829"
           id="path64"
           style="fill:#4d4c4e;fill-opacity:1;fill-rule:nonzero;stroke:none" /><path
           d="m 204.0308,860.7251 c 16.492,0 52.263,-14.357 27.199,-74.708 -25.065,-60.35 -73.338,-89.371 -84.441,-85.901 -3.893,1.216 3.163,23.605 3.163,23.605 -18.636,-28.801 -31.026,-34.677 -33.581,-32.122 -5.401,5.4 7.3,38.936 7.3,38.936 -13.363,-19.472 -25.246,-28.048 -27.588,-25.705 -7.26,7.259 35.972,155.895 107.948,155.895"
           id="path68"
           style="fill:#606163;fill-opacity:1;fill-rule:nonzero;stroke:none" /><path
           d="m 178.0518,671.3779 c 6.016,-0.706 24.875,-7.361 23.966,-10.588 -0.907,-3.228 -19.866,6.341 -19.866,6.341 0,0 16.992,-10.124 14.32,-12.796 -2.673,-2.673 -17.245,9.379 -17.245,9.379 0,0 4.74,-11.295 2.421,-11.295 -2.32,0 -5.951,11.899 -5.951,11.899 0,0 -6.556,-7.462 -8.572,-5.445 -2.017,2.017 10.927,12.505 10.927,12.505"
           id="path72"
           style="fill:#f89734;fill-opacity:1;fill-rule:nonzero;stroke:none" /><path
           d="m 206.0283,686.0903 c 6.015,-0.706 24.874,-7.362 23.966,-10.589 -0.907,-3.227 -19.867,6.341 -19.867,6.341 0,0 16.993,-10.124 14.32,-12.795 -2.672,-2.673 -17.245,9.378 -17.245,9.378 0,0 4.741,-11.294 2.421,-11.294 -2.32,0 -5.95,11.899 -5.95,11.899 0,0 -6.556,-7.462 -8.572,-5.445 -2.017,2.017 10.927,12.505 10.927,12.505"
           id="path76"
           style="fill:#f89734;fill-opacity:1;fill-rule:nonzero;stroke:none" /></g></g></g></svg>