<?xml version="1.0" encoding="UTF-8" standalone="no"?>
<svg
   xmlns:osb="http://www.openswatchbook.org/uri/2009/osb"
   xmlns:dc="http://purl.org/dc/elements/1.1/"
   xmlns:cc="http://creativecommons.org/ns#"
   xmlns:rdf="http://www.w3.org/1999/02/22-rdf-syntax-ns#"
   xmlns:svg="http://www.w3.org/2000/svg"
   xmlns="http://www.w3.org/2000/svg"
   xmlns:xlink="http://www.w3.org/1999/xlink"
   xmlns:sodipodi="http://sodipodi.sourceforge.net/DTD/sodipodi-0.dtd"
   xmlns:inkscape="http://www.inkscape.org/namespaces/inkscape"
   version="1.1"
   id="svg2"
   viewBox="0 0 145.7523 141.72661"
   height="141.72662"
   width="145.75232"
   inkscape:version="0.48.4 r9939"
   sodipodi:docname="águia.svg">
  <sodipodi:namedview
     pagecolor="#ffffff"
     bordercolor="#666666"
     borderopacity="1"
     objecttolerance="10"
     gridtolerance="10"
     guidetolerance="10"
     inkscape:pageopacity="0"
     inkscape:pageshadow="2"
     inkscape:window-width="1600"
     inkscape:window-height="876"
     id="namedview1313"
     showgrid="false"
     fit-margin-top="0"
     fit-margin-left="0"
     fit-margin-right="0"
     fit-margin-bottom="0"
     inkscape:zoom="3.8371729"
     inkscape:cx="37.722222"
     inkscape:cy="85.183847"
     inkscape:window-x="0"
     inkscape:window-y="1"
     inkscape:window-maximized="1"
     inkscape:current-layer="svg2" />
  <script
     xlink:href="C:\wamp\www\bingo\js/snap.svg-min.js"
     id="script4164" />
  <title
     id="title4162">Bingo das Letras</title>
  <defs
     id="defs4">
    <linearGradient
       osb:paint="solid"
       id="linearGradient12614">
      <stop
         id="stop12616"
         offset="0"
         style="stop-color:#000000;stop-opacity:1;" />
    </linearGradient>
    <linearGradient
       gradientTransform="matrix(-0.19399818,0,0,-0.19399818,259.22818,12173.784)"
       osb:paint="solid"
       id="linearGradient59274">
      <stop
         id="stop59276"
         offset="0"
         style="stop-color:#930033;stop-opacity:1;" />
    </linearGradient>
    <linearGradient
       id="linearGradient4269"
       osb:paint="solid"
       gradientTransform="matrix(110.20782,22.122239,-29.697412,82.096171,6264958.4,4301435.1)">
      <stop
         style="stop-color:#ffffff;stop-opacity:1;"
         offset="0"
         id="stop4271" />
    </linearGradient>
    <linearGradient
       id="linearGradient4251"
       osb:paint="solid"
       gradientTransform="translate(106155.96,125143.42)">
      <stop
         style="stop-color:#555555;stop-opacity:1;"
         offset="0"
         id="stop4253" />
    </linearGradient>
    <linearGradient
       id="linearGradient4241"
       osb:paint="solid"
       gradientTransform="matrix(0.19125385,0,0,0.19125385,-3368.2498,-13404.28)">
      <stop
         style="stop-color:#3fb5ae;stop-opacity:1;"
         offset="0"
         id="stop4243" />
    </linearGradient>
    <linearGradient
       id="linearGradient4231"
       osb:paint="solid"
       gradientTransform="translate(2399.1562,2075.6965)">
      <stop
         style="stop-color:#d1f2a5;stop-opacity:1;"
         offset="0"
         id="stop4233" />
    </linearGradient>
    <linearGradient
       id="linearGradient4221"
       osb:paint="solid"
       gradientTransform="matrix(0.66768435,0,0,0.66768435,-186.89148,394.64653)">
      <stop
         style="stop-color:#effab4;stop-opacity:1;"
         offset="0"
         id="stop4223" />
    </linearGradient>
    <linearGradient
       id="linearGradient4211"
       osb:paint="solid"
       gradientTransform="translate(-699.20463,883.12976)">
      <stop
         style="stop-color:#ffc48c;stop-opacity:1;"
         offset="0"
         id="stop4213" />
    </linearGradient>
    <linearGradient
       id="linearGradient4201"
       osb:paint="solid"
       gradientTransform="matrix(0.35946858,0,0,0.22423084,-331.07911,5516.4706)">
      <stop
         style="stop-color:#ff9f80;stop-opacity:1;"
         offset="0"
         id="stop4203" />
    </linearGradient>
    <linearGradient
       id="linearGradient4191"
       osb:paint="solid"
       gradientTransform="matrix(0.52321996,0,0,0.52321996,2015.4535,3072.5352)">
      <stop
         style="stop-color:#f56991;stop-opacity:1;"
         offset="0"
         id="stop4193" />
    </linearGradient>
    <style
       id="style6"
       type="text/css">
    .str0 {stroke:#006633;stroke-width:282.22}
    .str1 {stroke:#AB754F;stroke-width:282.22}
    .fil2 {fill:none}
    .fil3 {fill:#606062}
    .fil5 {fill:#CE8F64}
    .fil4 {fill:#006633}
    .fil8 {fill:#009933}
    .fil9 {fill:#00B33C}
    .fil10 {fill:#00C943}
    .fil0 {fill:#00D447}
    .fil1 {fill:#00DB49}
    .fil6 {fill:#B88059}
    .fil11 {fill:#BA8058}
    .fil12 {fill:#D49264}
    .fil7 {fill:#E49C6D}
  </style>
    <g
       id="Layer2_1_FILL-1">
      <path
         d="m 349.8,209.45 q -0.41895,-1.94727 -2.2,-1 l -0.9,-2 q -0.88184,-1.35078 -2.15,0 1.48555,3.98945 5.25,7.75 0.89531,-2.57402 0,-4.75 m 42.35,-103.8 q -1.65,-1.9 -5.9,-2.85 -4.6,-1 -10.25,-0.35 -14.5,1.7 -26.7,12.9 -15.1,13.9 -19.3,21 -5.35,9.15 -1.75,19.3 -4.65195,-6.40762 -5.15,-7.35 -0.50117,-0.95156 -0.2,-4.1 0.30469,-3.14395 2.85,-7.2 l -18.7,8.55 1.5,8.25 q -1.25,0.8 -2.6,1.3 -2.6,0.7 -5.35,0.75 -3.65,0.3 -7.25,-0.3 l -7.75,14.8 q -0.7,-0.15 -1.35,-0.25 -3.4,-0.7 -6.2,-2.85 -1.7,-1.3 -3.3,-2.7 -0.25,4.05 -1.45,8.15 -5.8,19.25 13.8,33.55 l -1.9,-8.55 q 1.2,1.2 2.45,2.4 3.23379,3.12656 6.9,5.15 6.67012,3.61777 14.8,3.65 l -7.75,1.45 12.05,14.65 q -1.55566,-1.35977 -3.8,-1.55 -0.4,-0.05 -0.8,-0.1 -0.75,-2.1 -2.85,-2.5 -0.14375,-0.0246 -0.3,-0.05 l 0.3,0.35 q -0.15117,-0.01 -0.3,-0.05 -0.20195,0.0152 -0.4,0 -1.5,-0.05 -3.05,-0.1 -0.65,0.1 -1.35,0.4 -0.35,0.2 -0.65,0.4 -1.65,0.95 -3.15,2.1 -1,0.85 -1.55,2 0,0.05 -0.05,0.05 -0.05,0.1 -0.1,0.15 -0.05,0.05 -0.05,0.1 -0.21113,0.59141 -0.45,1.2 -0.0535,0.13359 -0.1,0.25 -0.3,0.65 -0.35,1.4 -0.1,1.25 -0.2,2.55 -0.1,1.7 0.55,3.25 0.0748,0.18691 0.15,0.35 0.0621,0.0496 0.1,0.1 0.55,1 1.35,1.9 0,0.0344 0,0.05 0.4252,0.27637 0.85,0.5 1.17012,0.72109 2.35,1.4 0.15059,0.11113 0.3,0.2 0.0578,0.0336 0.1,0.05 0.05,-0.0586 0.05,-0.1 0.05,-2.1 0.85,-4 0.15,-0.3 0.4,-0.55 0.0572,-0.0603 0.1,-0.15 0.0727,-0.0482 0.1,-0.15 0.0422,0.15957 0.05,0.3 0.0941,1.59434 0.55,3.1 0.46719,1.5668 1.25,2.65 0.77695,1.07754 3.15,1.8 l -0.05,-1.45 q -0.0865,-1.75156 0.35,-3.9 0.44551,-2.09961 1.3,-3.3 1,-1.35 2.35,-2.55 -1.35,3.65 -1,7.4 0.2,2.2 1.4,4 0.45039,0.64609 1,1.15 0.86484,0.75098 1.95,1.15 0.0734,0.0469 0.1,0.1 0.05,0.05 0.15,0.1 0.11484,0 0.2,0 0.083,0 0.15,0 l 0,-0.1 0.6,-3.4 0,-0.05 2.7,-7.8 q 0.25117,-0.1043 0.5,-0.2 0.14297,-0.0477 0.25,-0.05 l 0.05,0 q 0.175,0 0.35,0 l 0.05,0 q 0.1,0.1 0.2,0.15 0.1,0.05 0.15,0.1 0,0.05 0.05,0.1 0.05,0.05 0.1,0.15 l 0.05,0.05 q 0.05,0.05 0.05,0.1 0,0.15 0.1,0.25 0.05,0 0.1,0.05 l 0,0 q 0.0328,0.0656 0.05,0.1 l 0,0 q 0.067,0.10234 0.1,0.15 0.0592,0.2623 0.2,0.45 0.0393,0.0934 0.05,0.2 0.25781,0.79648 0.4,1.65 0.0312,0.21113 0.05,0.4 0.0162,0.25117 0,0.45 -0.0131,0.0631 -0.05,0.1 l -0.05,0.05 q 0,0.1 0,0.15 -0.05,0.05 -0.05,0.1 -0.42148,0.88145 -1.15,1.5 l -2.55,3.9 q 4.96563,0.82402 9.15,-1.95 0.3,-0.25 0.55,-0.5 l -0.05,0.5 0.05,-0.05 q 0.05,-0.0547 0.1,-0.1 l 0,-0.05 q 1.16836,1.59629 2.65,2.6 0.9584,0.67344 2.05,1.1 3.06582,1.2 4.8,0.55 1.79453,-0.6002 3.15,-1.7 l -2.1,-1.1 q -0.17363,-0.20195 -0.4,-0.4 -0.1,-0.05 -0.25,-0.2 -0.23711,0 -0.5,-0.05 l -1.1,-0.55 q -0.0875,-0.1627 -0.15,-0.35 -0.15,-0.55 -0.25,-1.1 -0.2,-2.05 0.2,-4.05 0.05,-0.05 0.05,-0.1 0.1,-0.1 0.2,-0.25 0,-0.1 0,-0.2 0.15,-0.2 0.25,-0.35 0.2,-0.3 0.45,-0.45 0.11582,-0.0145 0.2,-0.05 l 6.45,10.4 q 1.18711,-0.54785 1.85,-1.55 0.43477,-0.59805 0.65,-1.4 0.8,-2.8 0.1,-5.45 -0.8,-3.1 -2.85,-5.65 2,1.15 3.35,2.95 1.00332,1.30059 1.5,2.85 l 0.05,0 1.75,5 q 0.0928,0 0.15,0 0.05,0 0.1,0 0.0836,-0.0836 0.1,-0.2 0.12344,-0.0156 0.25,-0.1 1.95,-1.45 2.65,-3.85 0.15,-0.5 0.25,-1.05 0.2,-1.2 0.25,-2.5 0.0281,-0.67402 0,-1.35 l 2.3,3.8 1.85,-2.15 q 0.20137,-0.27949 0.3,-0.6 0.25,-0.3 0.35,-0.6 0.4,-1 0.4,-2 0.0115,-0.29941 0,-0.6 l 0,-0.05 0.05,0.05 q 0.2248,-1.18086 -0.1,-2 -0.0521,-0.42559 -0.15,-0.85 -0.0434,-0.22324 -0.1,-0.45 -0.0229,-0.1457 -0.05,-0.3 -0.0365,-0.19785 -0.1,-0.4 l 0.05,0 q 1.58359,-0.88477 2.7,-1.4 5.45,-2.75 8.65,-8.1 2.4,-3.95 3.75,-8.3 -2.9752,-2.48555 -5.95,-0.55 l -6.1,6.05 -1.85,-5.8 q -2.89336,-2.06035 -5.45,1.1 l -1.05,2.25 -2.25,2.25 q 3.55117,4.27871 8.85,6.45 -5.18438,-0.19023 -8.4,-2.8 -12.65,-10.45 -11.95,-27.2 0.25,-0.4 0.35,-0.8 1.8,-7.05 -0.45,-13.95 l 0.55,-1.9 3.1,10.7 q 10.2,0.7 16.8,-7.05 3.05,-3.55 4.2,-8 -1.6,0.1 -3.15,0.1 -3.15,0.05 -6.1,-0.95 -1.55,-0.5 -3.05,-1.1 4.4,0.6 8.55,-0.9 23,-8.7 24.6,-35.5 -1.65,1.7 -3.45,3.3 -3.45,3.2 -7.8,4.7 -8.96387,3.07988 -10.1,3.25 -0.8,0.2 -4.05,0.7 6.55,-5.85 12.9,-8 7.05,-2.5 11.95,-8.2 4.85508,-8.58516 2.15,-12.85 l -10.3,2 q -0.55,0.6 -1.2,1.15 -1.15,1.15 -2.5,2.1 -1.85,1.35 -4.25,2.2 -1.55,0.6 -3.15,1.05 7.8,-11.15 21.5,-12.65 4.6,-0.4 6.75,-4.4 m -51.4,36.7 q 0,-0.85 0.1,-1.7 0,-0.25 0.1,-0.45 0.1,-0.25 0.15,-0.5 0.5,-4.5 2.5,-8.4 0.65,-1.3 1.4,-2.55 1.4,-2.65 3.15,-3.85 6.05,-4.05 12.4,-7.6 -11.00313,8.2334 -15.75,19.3 -4.75645,11.06992 -5.05,11.65 l -0.2,1.35 -0.75,0.4 -0.95,-0.3 -0.15,-3.35 3.05,-4 m 9,79.65 q 0.82422,0.27559 1.65,0.7 l 0,0 q 0.80254,0.45918 1.55,0.9 0.31855,0.29902 0.65,0.5 0.20781,0.0828 0.4,0.2 0.51777,0.31484 0.85,0.85 0.21016,0.30684 0.35,0.65 0.0398,0.093 0.05,0.15 0.15312,0.29297 0.3,0.55 0,0.05 0,0.1 0,0.05 0,0.1 0,0.05 0.05,0.1 0.05,0.05 0.05,0.1 0.0369,0.22168 0.05,0.45 0.0416,0.0654 0.05,0.1 0.12402,0.51797 0.2,1 l 0,2.65 0,-0.1 q 0.0963,-0.50781 -0.05,1 -0.10508,1.54453 -0.4,1.85 -0.24492,0.30977 -0.7,0.85 l -0.85,-2.4 q -0.3418,-0.89316 -1.15,-2.3 -0.15,-0.25 -0.3,-0.5 -0.51328,-0.66699 -1.1,-1.25 -1.05508,-1.4666 -2.45,-2.6 -0.7,-0.55 -1.45,-1.05 -1.47832,-1.07285 -3.15,-1.55 1.16641,-0.66191 2.45,-0.95 1.2666,-0.24824 2.65,-0.1 0.15352,0.0135 0.3,0 m -13.2,-8.8 0.05,0 q 2.1832,2.72773 3.2,9.7 -0.0811,0.0205 -0.15,0.05 -0.80586,0.38379 -1.6,0.8 l -1.5,-10.55 m 5.5,11.75 q 0.0246,-0.0164 0.05,-0.05 10.87715,3.69629 7.2,13.75 -1.85,-7 -8.05,-10.35 -0.9082,-0.50859 -1.95,-0.8 0.05,-0.0488 0.05,-0.1 0.05,-0.4 0.05,-0.8 l 0,-0.05 q 0.1,-0.2 0.2,-0.4 0.1,-0.25 0.35,-0.4 0.9,-0.8 2.1,-0.8 m -7.4,8.95 q -0.23027,0.18633 -0.45,0.45 -1.05,1.2 -1.2,2.8 -0.25,0.85 -0.1,1.75 0.15,1.1 0.2,2.25 0.05,0.1 0.15,0.15 0,0.05 0.05,0.1 0,0.05 0,0.1 0.05,0 0.05,0.05 0.05,0.1 0.1,0.15 0.0772,0.11582 0.05,0.25 0.16543,0.13437 0.25,0.3 0.0229,0.0428 0.05,0.05 0.57031,0.79043 1.4,1.05 0.48574,0.3418 1,0.55 0.05,-9.8e-4 0.1,0 l 0,0.05 q 0.24492,0.0816 0.45,0.1 -0.23809,0.0338 -0.5,0.05 -1.55508,0.16621 -3.05,-0.15 -0.30332,-0.0463 -0.6,-0.15 -1.0209,-0.0619 -1.45,-0.35 -0.42207,-0.22402 -0.85,-0.6 -0.42988,-0.33691 -1.85,-2.95 -1.30957,-2.40488 0.5,-6.7 0.0572,-0.007 0.1,-0.05 0.6,-0.95 1.25,-1.9 0.45,-0.7 1.25,-1.05 1,-0.4 2.1,-0.5 1.81758,-0.12617 3.55,0 l 0.05,0 q 1.45,0.45 2.45,1.45 5.2,4.15 3.25,10.3 -0.25,0.7 -0.55,1.4 -5.8875,-11.68047 -7.75,-8.95 m -8.25,-0.8 q -0.1,2.85 -1.05,5.45 -1.21563,3.35527 -5.6,3.2 0.51855,-0.048 1.2,-1.3 0.73594,-1.19922 0.9,-1.5 0.20508,-0.25273 0.2,-0.65 0,-3.05 -1.65,-5.6 -0.25,-0.35 -0.55,-0.65 -0.8,-0.75 -2,-0.5 -0.55,0.25 -1.05,0.65 -0.05,0.05 -0.1,0.05 0,0.05 0,0.1 l 0,0.05 q -1.64375,2.00684 -3.15,9.6 l 0,0.05 q -0.0312,-0.025 -0.05,-0.05 -0.7,-0.95 -1.2,-2 -0.1,-0.2 -0.25,-0.3 -0.5,-1.6 -0.55,-3.3 -0.05,-1.7 0.25,-3.35 0.3,-1.5 1.05,-2.75 0.79121,-1.25664 1.75,-2.3 1.20098,-0.86816 2.75,-1.15 5.07383,-1.06563 9.1,6.25 m 29.45,-9.25 0,-0.05 q 0.0633,0.0871 0.1,0.15 -0.0527,-0.0467 -0.1,-0.1 m -40.4,-48.65 q 0.85,0.15 1.7,0.3 0.85,0.25 1.7,0.55 l -1.8,-11 q 4.29629,4.65234 3.35,12.45 l -5.25,0.8 q 3.58496,11.45 -2.25,20.3 1.77676,-11.75488 1.5,-13.3 -0.3,-1.75 -0.8,-3.4 l -3.1,-5.15 q 2.45,-1.25 3.3,-1.45 0.8,-0.05 1.65,-0.1 m -18.55,54.95 q 0.9,-3.05 2.75,-4.65 3.4,-3.1 7.85,-1.85 -7.3,5.05 -8.3,13.9 -3.45,-3.45 -2.3,-7.4 m 16.2,-3.95 -0.65,0.7 q -1.6668,1.28516 -2.95,2.75 -1.83867,1.18555 -2.75,3.35 -0.4,0.45 -0.7,0.95 -0.6,1 -0.95,2.1 -0.05,0.85 -0.05,1.75 -0.0219,0.52461 -0.05,1.05 -0.54805,-0.73066 -1,-1.55 -0.6,-1.5 -0.65,-3.15 -0.1,-2.7 1.2,-5 0.2,-0.2 0.35,-0.5 0.45,-0.9 1.1,-1.65 1.12051,-0.77949 2.1,-1.7 2.6,-1.05 5,0.9 m 42.85,4.95 0,-0.05 -0.05,0 0,0.05 0.05,0 M 207.5,178.35 q 0.59629,2.75371 6.7,0 l 15.65,-4.8 -1,1.7 -10.7,5.55 q -1.27188,6.59199 9.65,8.75 9.45,2.3 18.5,-0.7 0.75,-0.2 1.45,-0.55 l 1.3,0.55 q -3.15,3.9 -8.55,4.5 -2.15,0.5 -4.4,0.4 -1.5,-0.05 -3,-0.1 -1.55,-0.25 -3.1,-0.45 9.86895,10.99785 23,13.5 4.89824,0.94453 10.25,0.7 7.9,-0.4 13.05,-5.9 -12.35,-12.7 -7.55,-28.4 1.65,-5.3 2.95,-10.8 -9.75215,-2.92813 -18.7,-3.35 -26.19473,-1.13516 -45.5,19.4 m 45.5,-6.7 q 0.66582,0.33887 1.25,0.7 6.45,4.09727 8.05,4.95 -4.80098,-1.3627 -9.3,-2.65 -9.61445,-2.63711 -17.85,-4.8 11.4959,-1.40059 17.85,1.8 z"
         id="path63796"
         inkscape:connector-curvature="0"
         style="fill:#000000;stroke:none" />
      <path
         d="m 312.45,226.9 0.65,-0.7 q -2.4,-1.95 -5,-0.9 -0.97949,0.92051 -2.1,1.7 -0.65,0.75 -1.1,1.65 -0.15,0.3 -0.35,0.5 -1.3,2.3 -1.2,5 0.05,1.65 0.65,3.15 0.45195,0.81934 1,1.55 0.0281,-0.52539 0.05,-1.05 0,-0.9 0.05,-1.75 0.35,-1.1 0.95,-2.1 0.3,-0.5 0.7,-0.95 0.91133,-2.16445 2.75,-3.35 1.2832,-1.46484 2.95,-2.75 m -12.8,-1.4 q -1.85,1.6 -2.75,4.65 -1.15,3.95 2.3,7.4 1,-8.85 8.3,-13.9 -4.45,-1.25 -7.85,1.85 m 25.7,13.05 q 0.95,-2.6 1.05,-5.45 -4.02617,-7.31563 -9.1,-6.25 -1.54902,0.28184 -2.75,1.15 -0.95879,1.04336 -1.75,2.3 -0.75,1.25 -1.05,2.75 -0.3,1.65 -0.25,3.35 0.05,1.7 0.55,3.3 0.15,0.1 0.25,0.3 0.5,1.05 1.2,2 l 0.05,0 q 1.50625,-7.59316 3.15,-9.6 l 0,-0.05 q 0,-0.05 0,-0.1 0.05,0 0.1,-0.05 0.5,-0.4 1.05,-0.65 1.2,-0.25 2,0.5 0.3,0.3 0.55,0.65 1.65,2.55 1.65,5.6 0.005,0.39727 -0.2,0.65 -0.16406,0.30078 -0.9,1.5 -0.68145,1.25195 -1.2,1.3 4.38437,0.15527 5.6,-3.2 m 8.85,-4.2 q 0.21973,-0.26367 0.45,-0.45 1.8625,-2.73047 7.75,8.95 0.3,-0.7 0.55,-1.4 1.95,-6.15 -3.25,-10.3 -1,-1 -2.45,-1.45 l -0.05,0 q -1.73242,-0.12617 -3.55,0 -1.1,0.1 -2.1,0.5 -0.8,0.35 -1.25,1.05 -0.65,0.95 -1.25,1.9 -0.0428,0.0428 -0.1,0.05 -1.80957,4.29512 -0.5,6.7 1.42012,2.61309 1.85,2.95 0.42793,0.37598 0.85,0.6 0.4291,0.28809 1.45,0.35 0.29668,0.10371 0.6,0.15 1.49492,0.31621 3.05,0.15 l 0.05,-0.15 q -0.0494,-0.0197 -0.1,-0.05 -0.51426,-0.2082 -1,-0.55 -0.82969,-0.25957 -1.4,-1.05 -0.0272,-0.007 -0.05,-0.05 -0.0846,-0.16563 -0.25,-0.3 0.0272,-0.13418 -0.05,-0.25 -0.05,-0.05 -0.1,-0.15 0,-0.05 -0.05,-0.05 0,-0.05 0,-0.1 -0.05,-0.05 -0.05,-0.1 -0.1,-0.05 -0.15,-0.15 -0.05,-1.15 -0.2,-2.25 -0.15,-0.9 0.1,-1.75 0.15,-1.6 1.2,-2.8 m 7.9,-9.45 q -0.0254,0.0336 -0.05,0.05 -1.2,0 -2.1,0.8 -0.25,0.15 -0.35,0.4 -0.1,0.2 -0.2,0.4 l 0,0.05 q 0,0.4 -0.05,0.8 0,0.0512 -0.05,0.1 1.0418,0.29141 1.95,0.8 6.2,3.35 8.05,10.35 3.67715,-10.05371 -7.2,-13.75 m 9.3,-2.2 q -0.82578,-0.42441 -1.65,-0.7 -0.14648,0.0135 -0.3,0 -1.3834,-0.14824 -2.65,0.1 -1.28359,0.28809 -2.45,0.95 1.67168,0.47715 3.15,1.55 0.75,0.5 1.45,1.05 1.39492,1.1334 2.45,2.6 0.58672,0.58301 1.1,1.25 0.15,0.25 0.3,0.5 0.8082,1.40684 1.15,2.3 l 0.85,2.4 q 0.45508,-0.54023 0.7,-0.85 0.29492,-0.30547 0.4,-1.85 0.14629,-1.50781 0.05,-1 l 0,0.1 0,0.05 -0.05,0 0,-0.05 0.05,0 0,-2.65 q -0.076,-0.48203 -0.2,-1 -0.008,-0.0346 -0.05,-0.1 -0.0131,-0.22832 -0.05,-0.45 0,-0.05 -0.05,-0.1 -0.05,-0.05 -0.05,-0.1 0,-0.05 0,-0.1 0,-0.05 0,-0.1 -0.14688,-0.25703 -0.3,-0.55 -0.0102,-0.057 -0.05,-0.15 -0.13984,-0.34316 -0.35,-0.65 -0.33223,-0.53516 -0.85,-0.85 -0.19219,-0.11719 -0.4,-0.2 -0.33145,-0.20098 -0.65,-0.5 -0.74746,-0.44082 -1.55,-0.9 l 0,0 z"
         id="path63798"
         inkscape:connector-curvature="0"
         style="fill:#ff9900;stroke:none" />
      <path
         d="m 317.15,175.5 q -0.85,-0.15 -1.7,-0.3 -0.85,0.05 -1.65,0.1 -0.85,0.2 -3.3,1.45 l 3.1,5.15 q 0.5,1.65 0.8,3.4 0.27676,1.54512 -1.5,13.3 5.83496,-8.85 2.25,-20.3 l 5.25,-0.8 q 0.94629,-7.79766 -3.35,-12.45 l 1.8,11 q -0.85,-0.3 -1.7,-0.55 m 38.7,48.3 0,0.05 q 0.0473,0.0533 0.1,0.1 -0.0367,-0.0629 -0.1,-0.15 m -19.65,20.1 q 0.0506,0.0303 0.1,0.05 l 0,-0.05 q -0.05,-9.8e-4 -0.1,0 m 0.4,-30.7 -0.05,0 1.5,10.55 q 0.79414,-0.41621 1.6,-0.8 0.069,-0.0295 0.15,-0.05 -1.0168,-6.97227 -3.2,-9.7 m 4.25,-72.55 q -0.1,0.85 -0.1,1.7 l -3.05,4 0.15,3.35 0.95,0.3 0.75,-0.4 0.2,-1.35 q 0.29355,-0.58008 5.05,-11.65 4.74687,-11.0666 15.75,-19.3 -6.35,3.55 -12.4,7.6 -1.75,1.2 -3.15,3.85 -0.75,1.25 -1.4,2.55 -2,3.9 -2.5,8.4 -0.05,0.25 -0.15,0.5 -0.1,0.2 -0.1,0.45 m -86.6,31.7 q -0.58418,-0.36113 -1.25,-0.7 -6.3541,-3.20059 -17.85,-1.8 8.23555,2.16289 17.85,4.8 4.49902,1.2873 9.3,2.65 -1.6,-0.85273 -8.05,-4.95 z"
         id="path63800"
         inkscape:connector-curvature="0"
         style="fill:#999999;stroke:none" />
      <path
         d="m 389.45,112.75 q 1.25,-0.7 2.4,-1.55 1.6,-1.1 2.4,-2.85 0.85,-1.85 0.85,-3.9 0,-0.9 -0.7,-1.75 -0.3,-0.25 -0.6,-0.45 -26.75,-7.9 -49,12.25 -15.35,21.75 -40.05,27.5 l 0.3,9.45 -11.95,1.25 -9.35,12.9 q -4.85,-4 -9.65,-8 l -1.25,1.55 q -6,-2.65 -12.4,-3.8 -3.82852,-0.57676 -7.45,-0.8 -32.8002,-2.05156 -48.65,24.65 0.7,0.75 1.5,1.45 0.9,0.75 2,1.25 1.1,0.45 2.25,0.75 1.95,0.15 3.9,-0.4 1.28965,10.2459 10.85,10.25 -1.2,0.6 1.15,3.15 13.31094,14.14297 27,15.9 12.63887,1.65469 25.6,-7.25 2,2.75 4.8,4.85 2.3,1.8 5.3,3.15 1.35,0.5 2.55,-0.15 l -0.8,-5 q 3.65,1.65 6.75,4.1 3.2,2.45 5.55,5.7 l 3.15,3.85 q 0.15625,0.0254 0.3,0.05 2.1,0.4 2.85,2.5 0.4,0.05 0.8,0.1 2.24434,0.19023 3.8,1.55 l -12.05,-14.65 7.75,-1.45 q -8.12988,-0.0322 -14.8,-3.65 -3.66621,-2.02344 -6.9,-5.15 -1.25,-1.2 -2.45,-2.4 l 1.9,8.55 q -19.6,-14.3 -13.8,-33.55 1.2,-4.1 1.45,-8.15 1.6,1.4 3.3,2.7 2.8,2.15 6.2,2.85 0.65,0.1 1.35,0.25 l 7.75,-14.8 q 3.6,0.6 7.25,0.3 2.75,-0.05 5.35,-0.75 1.35,-0.5 2.6,-1.3 l -1.5,-8.25 18.7,-8.55 q -2.54531,4.05605 -2.85,7.2 -0.30117,3.14844 0.2,4.1 0.49805,0.94238 5.15,7.35 -3.6,-10.15 1.75,-19.3 4.2,-7.1 19.3,-21 12.2,-11.2 26.7,-12.9 5.65,-0.65 10.25,0.35 4.25,0.95 5.9,2.85 -2.15,4 -6.75,4.4 -13.7,1.5 -21.5,12.65 1.6,-0.45 3.15,-1.05 2.4,-0.85 4.25,-2.2 1.35,-0.95 2.5,-2.1 0.65,-0.55 1.2,-1.15 l 10.3,-2 q 2.70508,4.26484 -2.15,12.85 -4.9,5.7 -11.95,8.2 -6.35,2.15 -12.9,8 3.25,-0.5 4.05,-0.7 1.13613,-0.17012 10.1,-3.25 4.35,-1.5 7.8,-4.7 1.8,-1.6 3.45,-3.3 -1.6,26.8 -24.6,35.5 -4.15,1.5 -8.55,0.9 1.5,0.6 3.05,1.1 2.95,1 6.1,0.95 1.55,0 3.15,-0.1 -1.15,4.45 -4.2,8 -6.6,7.75 -16.8,7.05 l -3.1,-10.7 -0.55,1.9 q 2.25,6.9 0.45,13.95 -0.1,0.4 -0.35,0.8 -0.7,16.75 11.95,27.2 3.21562,2.60977 8.4,2.8 -5.29883,-2.17129 -8.85,-6.45 -3.76445,-3.76055 -5.25,-7.75 1.26816,-1.35078 2.15,0 l 0.9,2 q 1.78105,-0.94727 2.2,1 0.89531,2.17598 0,4.75 l 2.25,-2.25 1.05,-2.25 q 2.55664,-3.16035 5.45,-1.1 l 1.85,5.8 6.1,-6.05 q 2.9748,-1.93555 5.95,0.55 -1.35,4.35 -3.75,8.3 -3.2,5.35 -8.65,8.1 -1.11641,0.51523 -2.7,1.4 l -0.05,0 q 0.0635,0.20215 0.1,0.4 0.0272,0.1543 0.05,0.3 0.0566,0.22676 0.1,0.45 0.0978,0.42441 0.15,0.85 0.3248,0.81914 0.1,2 6.34648,-3.85137 10.6,-9.05 5.6,-6.85 7.1,-15.9 -0.85,-0.3 -1.7,-0.6 -2.45,-0.65 -5.25,-0.6 -2.75,-0.2 -5.05,0.95 l -1.8,3.65 0.1,-2.6 q -1,-0.55 -2.05,-1 -0.45,-0.25 -0.95,-0.4 -0.65,0.05 -1.25,0.1 -0.3,0.05 -0.6,0.1 -0.3,0.05 -0.55,0.15 -0.1,0.05 -0.15,0.2 -0.05,0.05 -0.1,0.2 l -5.25,1.7 q 0.0129,-3.58398 -3.05,-3.9 l -4.05,-0.15 q -0.9,-1.1 -1.65,-2.2 -1.55,-2.4 -1.35,-5.3 0.25,-4 0.5,-8.1 8.5,0.7 15.8,-3.6 7,-4.15 7.85,-11.95 l 0.55,-0.8 -0.05,-2.5 q 2.4,-1.1 4.4,-2.75 19.7,-16.1 17.2,-42.05 3.42656,-5.21836 2.4,-11.55 m -175.25,65.6 q -6.10371,2.75371 -6.7,0 19.30527,-20.53516 45.5,-19.4 8.94785,0.42187 18.7,3.35 -1.3,5.5 -2.95,10.8 -4.8,15.7 7.55,28.4 -5.15,5.5 -13.05,5.9 -5.35176,0.24453 -10.25,-0.7 -13.13105,-2.50215 -23,-13.5 1.55,0.2 3.1,0.45 1.5,0.05 3,0.1 2.25,0.1 4.4,-0.4 5.4,-0.6 8.55,-4.5 l -1.3,-0.55 q -0.7,0.35 -1.45,0.55 -9.05,3 -18.5,0.7 -10.92188,-2.15801 -9.65,-8.75 l 10.7,-5.55 1,-1.7 -15.65,4.8 z"
         id="path63802"
         inkscape:connector-curvature="0"
         style="fill:#666666;stroke:none" />
    </g>
    <g
       id="Layer1_2_FILL-3">
      <path
         d="m 257.85,89.2 q -2.60645,4.168164 -4.85,8.5 -7.95684,15.35508 -11.35,32.75 -1.85,9.35 6.1,14 -0.35137,8.25625 -1.6,14.35 -1.24434,6.08477 5.35,13.1 0.68789,0.70332 1.5,1.25 7.19805,4.95371 26.1,-1.55 l 0.25,-0.35 0.3,0 q -0.0152,0.10527 -0.05,0.2 l 0.05,0 q -0.0162,0.025 -0.05,0.05 0.0123,0.0875 0,0.15 -0.35332,2.51641 -0.5,5 -0.0307,0.4002 -0.05,0.8 -0.10469,1.84102 -0.2,3.65 l 0.35,0.2 4.45,-3.2 q 1.0918,-0.65566 2.05,-1.45 0.0201,-0.0248 0.05,-0.05 4.78867,-4.02148 5.95,-11.35 0.37324,0.32402 0.75,0.6 5.37891,4.31719 11.5,3.85 0.8,-5.5 -0.75,-10.85 l 10.4,2.7 q 1.75,-9.8 1.45,-20.1 l 10.95,0 q -1.25,-6.6 -2.45,-9.4 -3.25,-9.7 -3.8,-11.6 -1.76328,-6.1248 -5.4,-11.35 -2.21367,-3.2209 -5.15,-6.1 -11.95,-11.75 -16.35,-27.25 l -0.65,-0.8 q 0.0926,-0.556055 0.25,-1.1 0.18164,-0.586523 0.45,-1.15 3.25,-6.6 10.95,-9.45 -6.29824,-1.375781 -11.4,0.05 -3.2416,0.910352 -6,2.95 l -11.45,4.1 -1.2,1.6 q -7,2 -10.55,8.15 -2.65,4.65 -5.4,9.1 m -1.35,9.3 q 5.65,-20.55 24.7,-25.65 l -3.05,8.5 0.55,0.3 2.95,-5.2 2.1,-2.8 q 3.18105,-5.025195 8.7,-6.95 0.4668,-0.159766 0.95,-0.3 -0.51406,0.710742 -0.95,1.4 -3.09082,5.060742 -2.25,10.1 0.0668,0.766797 0.4,1.4 0.90937,1.705273 1.85,3.4 6.50566,11.704102 14.5,22.8 1.2709,1.77559 2.4,3.6 1.97187,3.05645 3.6,6.25 5.25,10.35 7.55,22 l -8.55,0.1 -0.65,0.6 0.45,18.55 -1.15,0.05 q -1.83457,-1.65566 -4.15,-2.25 -0.27168,-0.0475 -0.55,-0.1 -3.4,-0.45 -6.3,1.05 0.59668,2.99746 0.95,6 0.14727,1.22734 0,2.5 l 0.15,0.8 q -3.85078,-2.16875 -8.25,-3.1 -0.57031,-0.10234 -1.15,-0.2 -0.55,-0.05 -0.65,0.4 -2.1,8.25 -8.65,13.75 l -1.2,0.35 1.25,-5.25 3.85,-2.35 0.25,-1.15 q -3.61172,-2.21367 -5.3,-6.35 -0.65,-1.55 -1.2,-3.1 l 0.45,0 1.75,-1.85 q 0.9,-1.8 1.85,-3.55 2.9,-5.4 7.65,-9.15 0.55293,-0.0131 1.1,-0.05 3.65742,-0.20605 7.05,-1.25 3.45,-0.95 3.95,-4.9 l 0.5,-1.4 q 0.73906,-5.36582 0,-9.5 -5.2168,-11.10957 -11.5,-13.75 -0.0248,0.0104 -0.05,0 l -0.45,-0.7 -0.5,-0.1 7.1,-9 q -3.5207,0.88027 -6.1,3.25 -0.93711,0.84727 -1.75,1.9 l -0.15,0.75 -2.5,1.7 -0.1,0.7 -4.1,4.2 q -0.65,4 -2.7,7.7 -1.45,2.55 -3.1,4.55 -0.4,0.85 -0.85,1.65 -0.9,1.55 -1.25,3.15 -0.25,1.3 -2,2.55 -1.45,0.5 -2.8,1.2 -2.79629,1.60605 -7.8,3.55 -4.12324,1.58887 -7.55,-1.65 l 2.65,2.85 -0.2,0.55 q -2.44922,1.49258 -5.25,1.65 -0.8584,0.032 -1.75,-0.05 -2.35,-0.15 -4.05,-1.9 l -0.2,-0.7 q -0.9,-0.75 -1.1,-1.65 -2.75,-12.35 4.15,-24.45 1.625,-2.84844 2.95,-5.8 2.14121,-4.70879 3.5,-9.65 m 32.1,16.1 q 2.35508,1.75723 3.85,3.95 2.63184,3.83477 2.6,9 -0.0654,3.15 -1.85,6.3 -0.32422,0.58145 -0.75,1.1 -1.55156,1.87168 -4.45,2.85 -2,0.62129 -4,0 -1.96465,-0.59238 -3.65,-1.55 -1.63535,-0.90762 -1.6,-1.45 4.6,-10.25 9.85,-20.2 m 12.55,13.75 q 0.3,1.85 -0.1,5.25 -0.96875,7.84648 -8.6,5.85 -0.24648,-0.0748 -0.5,-0.15 0.25527,-0.25527 0.5,-0.5 0.52344,-0.55527 1,-1.1 6.2,-7.4 3.15,-19.15 3.75,4.25 4.55,9.8 m -51.1,17.45 q 1.46387,0.33047 2.95,0.35 1.66113,-0.004 3.35,-0.4 10.8,-2.7 20.35,-8.8 l 1.7,1.4 -2.25,7.55 0,5.55 q -0.95,-0.35 -1.9,-0.3 -11.36191,-1.76152 -21.25,3.85 -1.33848,0.75566 -2.65,1.65 l -0.3,-10.85 m 30.4,-2.35 q 0.2,-1.35 0.75,-2.6 l 5.2,1.4 q -3.25,3.65 -5.1,8.3 -0.5,1.2 -0.85,2.5 -0.1,0.3 -0.1,0.65 l -1.15,1.6 q 0.45,-5.95 1.25,-11.85 m -4.4,10.75 q 0.05,1.8 0.6,3.4 1.55,4.85 4.2,9.3 -6.5,3 -13.75,4.2 -7.5,1.35 -14,-2.6 -0.0504,-0.0619 -0.1,-0.15 -3.88574,-4.81191 -3.1,-9.65 0.3,-0.1 0.55,-0.3 1.26152,-0.70195 2.55,-1.35 5.50371,-2.625 11.5,-3.8 0.75,-0.2 1.55,-0.35 0.75,-0.15 1.5,-0.25 2.15,0.05 4.35,0.15 2.25,0.5 4.15,1.4 m -1.4,-9.9 0.1,-2.3 -1.05,0 -0.65,1.9 0.65,-0.05 -0.65,0.95 1.6,-0.5 z"
         id="path63831"
         inkscape:connector-curvature="0"
         style="fill:#000000;stroke:none" />
      <path
         d="m 276.65,157.6 q -0.55,-1.6 -0.6,-3.4 -1.9,-0.9 -4.15,-1.4 -2.2,-0.1 -4.35,-0.15 -0.75,0.1 -1.5,0.25 -0.8,0.15 -1.55,0.35 -5.99629,1.175 -11.5,3.8 -1.28848,0.64805 -2.55,1.35 -0.25,0.2 -0.55,0.3 -0.78574,4.83809 3.1,9.65 0.0496,0.0881 0.1,0.15 6.5,3.95 14,2.6 7.25,-1.2 13.75,-4.2 -2.65,-4.45 -4.2,-9.3 z"
         id="path63833"
         inkscape:connector-curvature="0"
         style="fill:#ff6600;stroke:none" />
      <path
         d="m 281.2,140.85 q -0.55,1.25 -0.75,2.6 -0.8,5.9 -1.25,11.85 l 1.15,-1.6 q 0,-0.35 0.1,-0.65 0.35,-1.3 0.85,-2.5 1.85,-4.65 5.1,-8.3 l -5.2,-1.4 m -28.2,5.3 q -1.48613,-0.0195 -2.95,-0.35 l 0.3,10.85 q 1.31152,-0.89434 2.65,-1.65 9.88809,-5.61152 21.25,-3.85 0.95,-0.05 1.9,0.3 l 0,-5.55 2.25,-7.55 -1.7,-1.4 q -9.55,6.1 -20.35,8.8 -1.68887,0.3959 -3.35,0.4 m 21.75,-4.15 -0.1,2.3 -1.6,0.5 0.65,-0.95 -0.65,0.05 0.65,-1.9 1.05,0 z"
         id="path63835"
         inkscape:connector-curvature="0"
         style="fill:#ff9900;stroke:none" />
      <path
         d="m 301.05,133.6 q 0.4,-3.4 0.1,-5.25 -0.8,-5.55 -4.55,-9.8 3.05,11.75 -3.15,19.15 -0.47656,0.54473 -1,1.1 -0.24473,0.24473 -0.5,0.5 0.25352,0.0752 0.5,0.15 7.63125,1.99648 8.6,-5.85 z"
         id="path63837"
         inkscape:connector-curvature="0"
         style="fill:#99ccff;stroke:none" />
      <path
         d="m 292.45,118.55 q -1.49492,-2.19277 -3.85,-3.95 -5.25,9.95 -9.85,20.2 -0.0353,0.54238 1.6,1.45 1.68535,0.95762 3.65,1.55 2,0.62129 4,0 2.89844,-0.97832 4.45,-2.85 0.42578,-0.51855 0.75,-1.1 1.78457,-3.15 1.85,-6.3 0.0318,-5.16523 -2.6,-9 z"
         id="path63839"
         inkscape:connector-curvature="0"
         style="fill:#ffffcc;stroke:none" />
      <path
         d="m 281.2,72.85 q -19.05,5.1 -24.7,25.65 -1.35879,4.94121 -3.5,9.65 -1.325,2.95156 -2.95,5.8 -6.9,12.1 -4.15,24.45 0.2,0.9 1.1,1.65 l 0.2,0.7 q 1.7,1.75 4.05,1.9 0.8916,0.082 1.75,0.05 2.80078,-0.15742 5.25,-1.65 l 0.2,-0.55 -2.65,-2.85 q 3.42676,3.23887 7.55,1.65 5.00371,-1.94395 7.8,-3.55 1.35,-0.7 2.8,-1.2 1.75,-1.25 2,-2.55 0.35,-1.6 1.25,-3.15 0.45,-0.8 0.85,-1.65 1.65,-2 3.1,-4.55 2.05,-3.7 2.7,-7.7 l 4.1,-4.2 0.1,-0.7 2.5,-1.7 0.15,-0.75 q 0.81289,-1.05273 1.75,-1.9 2.5793,-2.36973 6.1,-3.25 l -7.1,9 0.5,0.1 0.45,0.7 q 0.0252,0.0104 0.05,0 6.2832,2.64043 11.5,13.75 0.73906,4.13418 0,9.5 l -0.5,1.4 q -0.5,3.95 -3.95,4.9 -3.39258,1.04395 -7.05,1.25 -0.54707,0.0369 -1.1,0.05 -4.75,3.75 -7.65,9.15 -0.95,1.75 -1.85,3.55 l -1.75,1.85 -0.45,0 q 0.55,1.55 1.2,3.1 1.68828,4.13633 5.3,6.35 l -0.25,1.15 -3.85,2.35 -1.25,5.25 1.2,-0.35 q 6.55,-5.5 8.65,-13.75 0.1,-0.45 0.65,-0.4 0.57969,0.0977 1.15,0.2 4.39922,0.93125 8.25,3.1 l -0.15,-0.8 q 0.14727,-1.27266 0,-2.5 -0.35332,-3.00254 -0.95,-6 2.9,-1.5 6.3,-1.05 0.27832,0.0525 0.55,0.1 2.31543,0.59434 4.15,2.25 l 1.15,-0.05 -0.45,-18.55 0.65,-0.6 8.55,-0.1 q -2.3,-11.65 -7.55,-22 -1.62813,-3.19355 -3.6,-6.25 -1.1291,-1.82441 -2.4,-3.6 -7.99434,-11.095898 -14.5,-22.8 -0.94063,-1.694727 -1.85,-3.4 -0.3332,-0.633203 -0.4,-1.4 -0.84082,-5.039258 2.25,-10.1 0.43594,-0.689258 0.95,-1.4 -0.4832,0.140234 -0.95,0.3 -5.51895,1.924805 -8.7,6.95 l -2.1,2.8 -2.95,5.2 -0.55,-0.3 3.05,-8.5 z"
         id="path63841"
         inkscape:connector-curvature="0"
         style="fill:#ffffff;stroke:none" />
    </g>
    <g
       id="Layer0_1_FILL-29">
      <path
         d="m 287.3,131.8 q 1.62324,-1.56973 1.6,-3.85 0.0232,-2.23027 -1.6,-3.85 -1.56973,-1.57324 -3.85,-1.6 -2.23027,0.0268 -3.85,1.6 -1.57324,1.61973 -1.6,3.85 0.0268,2.28027 1.6,3.85 1.61973,1.62324 3.85,1.6 2.28027,0.0232 3.85,-1.6 m -3.15,-8.1 q 0.69902,-3.9e-4 1.15,0.45 0.50039,0.50078 0.5,1.15 3.9e-4,0.69902 -0.5,1.15 -0.45098,0.5002 -1.15,0.5 -0.64922,2e-4 -1.15,-0.5 -0.45039,-0.45098 -0.45,-1.15 -3.9e-4,-0.64922 0.45,-1.15 0.50078,-0.45039 1.15,-0.45 z"
         id="path63849"
         inkscape:connector-curvature="0"
         style="fill:#000000;stroke:none" />
      <path
         d="m 285.3,124.15 q -0.45098,-0.45039 -1.15,-0.45 -0.64922,-3.9e-4 -1.15,0.45 -0.45039,0.50078 -0.45,1.15 -3.9e-4,0.69902 0.45,1.15 0.50078,0.5002 1.15,0.5 0.69902,2e-4 1.15,-0.5 0.50039,-0.45098 0.5,-1.15 3.9e-4,-0.64922 -0.5,-1.15 z"
         id="path63851"
         inkscape:connector-curvature="0"
         style="fill:#ffffff;stroke:none" />
    </g>
    <filter
       inkscape:collect="always"
       id="filter4132"
       color-interpolation-filters="sRGB">
      <feGaussianBlur
         inkscape:collect="always"
         stdDeviation="0.8076883"
         id="feGaussianBlur4134" />
    </filter>
  </defs>
  <metadata
     id="metadata7">
    <rdf:RDF>
      <cc:Work
         rdf:about="">
        <dc:format>image/svg+xml</dc:format>
        <dc:type
           rdf:resource="http://purl.org/dc/dcmitype/StillImage" />
        <dc:title>Bingo das Letras</dc:title>
        <cc:license
           rdf:resource="" />
        <dc:rights>
          <cc:Agent>
            <dc:title>Copyright © 2002-2016. Portal Clickideia ® - Todos os Direitos Reservados</dc:title>
          </cc:Agent>
        </dc:rights>
        <dc:description>SVG game with snapSVG lib and other javascripts included</dc:description>
        <dc:language>pt_BR</dc:language>
        <dc:subject>
          <rdf:Bag>
            <rdf:li>Educativo</rdf:li>
            <rdf:li>ensino fundamental</rdf:li>
            <rdf:li>clickiéia</rdf:li>
            <rdf:li>letras</rdf:li>
            <rdf:li>lingua portuguesa</rdf:li>
            <rdf:li>infantil</rdf:li>
            <rdf:li>educational game</rdf:li>
            <rdf:li>game design</rdf:li>
            <rdf:li>multimidia</rdf:li>
          </rdf:Bag>
        </dc:subject>
        <dc:creator>
          <cc:Agent>
            <dc:title>http://www.clickideia.com.br/</dc:title>
          </cc:Agent>
        </dc:creator>
        <dc:publisher>
          <cc:Agent>
            <dc:title>http://www.clickideia.com.br/</dc:title>
          </cc:Agent>
        </dc:publisher>
        <dc:date>18/01/2016</dc:date>
        <dc:contributor>
          <cc:Agent>
            <dc:title>michel morandi - michel.morandi@clickideia.com.br</dc:title>
          </cc:Agent>
        </dc:contributor>
      </cc:Work>
    </rdf:RDF>
  </metadata>
  <g
     id="g4140"
     transform="matrix(1.4564349,0,0,1.4564349,4.2546863,4.9278151)">
    <g
       transform="translate(110.37384,14.109699)"
       id="g4136">
      <path
         inkscape:connector-curvature="0"
         id="path4130"
         d="m -46.326918,76.28307 c 1.919972,-0.57543 -0.388559,0.69969 0,0 z m 1.066685,-0.17056 c 1.026844,-2.6556 -2.175365,1.13033 -0.929267,-1.79808 -2.30353,0.37801 0.687242,-2.35933 -1.079322,-3.01154 0.214875,-3.10672 5.926915,1.67432 1.441327,-0.92102 -1.145376,1.90261 0.552821,-0.67415 1.48699,1.41536 1.496177,0.37509 0.03836,2.74053 2.444663,1.32905 0.79802,-1.58522 -0.936222,-2.14877 -0.347134,-2.99927 -2.411156,0.0431 -1.437146,-2.91714 -3.026303,-1.2625 -3.817733,-1.55571 1.98546,-0.3916 1.282796,-2.70841 -0.807394,3.73345 2.485473,-1.62851 1.087628,1.94595 -1.071538,2.61772 4.113476,0.38974 3.215262,3.78396 2.903352,-0.14138 -0.882124,-3.65567 1.526367,-2.81803 -0.610061,-1.25348 -1.717176,-4.7467 0.392764,-1.82189 1.531888,2.09907 -3.232112,7.00116 -0.170999,6.02494 -1.969463,-2.69281 4.578025,-2.42312 1.483645,-2.96301 -2.426005,0.18731 1.342918,-0.7319 -0.89355,-0.89015 1.318348,-0.68958 1.959944,-0.40804 1.347869,-3.0443 3.687628,-0.21988 7.260743,-4.93966 7.483726,-8.12314 -2.781715,-0.46447 -5.216136,5.84595 -6.245547,0.55235 -3.226765,-0.60652 -3.61164,3.96627 -0.336734,3.98772 2.118268,1.29113 -0.251061,2.69912 0.374256,0.96222 -4.871223,1.38803 -8.107474,-5.03289 -9.552998,-8.93801 -1.667195,-3.97444 0.656954,-8.00585 -0.413764,-12.03315 -0.323356,-3.86195 2.760723,0.26223 2.124499,2.24467 3.776301,2.04692 8.524761,-2.54262 9.187461,-5.48079 -3.136044,0.62877 -6.945633,-2.727365 -2.245359,-2.364286 4.989034,-1.048731 9.256324,-4.872434 11.464334,-9.381923 0.621542,-1.628067 2.967065,-8.941957 -0.698898,-4.640227 -2.714762,1.358739 -6.261877,2.979646 -9.348572,2.592781 2.234612,-4.448995 8.682845,-4.14616 11.532732,-8.290323 2.012135,-2.328496 2.090721,-7.437464 -2.059399,-4.563386 -1.638462,0.281124 -8.609738,5.418441 -6.007009,0.768844 2.785791,-3.6938805 7.47306,-4.1862095 11.511825,-5.4870325 2.261813,-2.296295 -6.593243,-2.590125 -9.253116,-1.443653 -4.259866,0.863776 -7.380465,3.4245955 -10.472147,6.2986865 -3.544084,2.756588 -6.286709,6.357049 -9.239782,9.702752 -2.128178,1.864345 0.293833,8.435032 -2.150014,8.26164 -3.635242,-1.949883 -1.130892,-6.059686 -0.941434,-8.006514 -1.214978,-4.068706 -2.393994,-8.152829 -4.150106,-11.913151 -1.16118,-1.5551765 -4.939055,-7.5308825 -5.207801,-6.0501155 2.426012,2.911801 4.516031,6.6184055 5.717408,10.3920335 0.937018,2.486083 4.589468,9.017148 -0.934182,7.736719 -2.622078,1.064306 0.539758,9.204612 -2.107722,9.158426 -3.398314,-1.786914 -5.917789,0.468311 -4.528787,3.635323 -1.728782,1.870509 -5.466976,-2.952662 -5.708028,1.469591 -0.342724,2.036365 -4.591974,7.240865 -4.949025,2.875555 2.317759,-1.761658 1.555595,-4.844909 -0.152762,-2.669936 0.584318,-2.06533 0.371998,-1.969024 -0.352816,-2.826744 0.993309,-1.096813 -1.57188,-0.371991 -0.814932,-2.83646 0.227229,-3.914049 1.426195,2.198795 2.324088,-1.082817 -1.087442,-2.745225 0.705399,-0.113563 0.623409,-2.275558 1.370303,-3.538437 10.775166,-4.025284 7.987113,-5.504669 -1.409216,1.326867 -4.005291,2.04388 -3.938405,0.121186 -2.91581,-0.372511 3.482706,-0.613918 0.06435,-1.191338 2.500804,0.09206 1.450757,-3.955472 -0.02014,-0.672966 -0.229653,3.160559 -8.102016,1.468302 -3.449346,1.706808 -2.591208,-0.287753 -2.538095,-2.73143 0.214135,-2.328348 0.373815,-1.505816 1.951683,-2.507596 0.847484,-0.104735 2.572611,-2.083183 0.06863,-3.491691 -2.239223,-2.635383 1.018348,-1.957532 -0.305017,-3.112475 -1.614104,-0.999567 2.376963,-1.589445 -1.853364,3.050318 -1.34917,4.233281 -3.932401,1.975006 -8.648938,5.310151 -13.05794,4.189724 -1.179478,-0.01771 -3.431158,-2.191145 -1.194278,0.521138 1.221063,1.633435 4.538257,0.599957 1.177238,1.102046 -1.464827,1.083077 -0.54215,3.016604 -0.05657,0.569754 1.379532,1.898851 0.04437,4.099283 -0.843997,4.275169 -1.636784,4.389921 -8.456945,2.264224 -11.749344,5.423274 -2.28021,1.600161 -6.27862,3.935561 -7.0999,5.897971 3.08939,0.15104 8.243859,-4.44466 9.839139,-1.29731 -3.932219,0.78724 -7.312979,5.92585 -1.03904,6.17227 3.3724,1.90305 8.479554,-1.70146 10.761343,0.77925 -0.943709,3.71752 -11.255063,0.89434 -5.812743,4.22966 4.026685,2.88936 8.901206,4.28926 13.857597,3.58782 3.601844,-0.23014 5.516242,-2.58123 2.533305,-4.85816 -1.857437,-2.9435 -4.159312,-10.29443 0.441432,-11.20064 1.743949,0.63239 0.009,-1.22468 1.124446,0.91432 -0.910085,4.37347 0.374084,9.33627 4.005466,12.34907 2.876413,4.07211 -0.550992,-3.66403 3.596504,-0.40485 2.432869,3.23767 6.405044,3.53617 9.680912,4.85415 -4.940134,2.07246 2.538349,5.19689 3.195858,8.20085 0.73853,3.07483 -1.108432,-2.42213 -2.630429,0.24836 0.299018,-3.161 -7.02099,-1.68814 -2.219789,-1.53484 0.370567,1.6262 0.04684,3.19889 1.126321,0.75512 0.609916,2.99242 -4.948289,2.00455 -1.430543,0.10291 -0.208235,-1.61858 -6.449635,0.12439 -1.767166,-0.0787 -2.196129,1.34674 -2.76861,5.80977 0.641225,4.47729 -3.238407,-0.48542 0.826478,-3.44878 -0.775911,-0.93725 2.208357,-1.83993 1.768843,-0.24934 1.221661,1.52527 0.805924,-2.08008 5.92453,-1.97902 4.327945,1.06443 2.55344,0.78405 0.06962,-1.41983 2.103436,-0.88321 -2.453384,-1.98273 5.303239,0.78406 0.691822,-1.43131 4.733228,-0.80236 -1.597445,7.89406 2.593316,3.76798 1.754412,-0.10053 7.29859,2.14088 2.979058,2.0629 -1.750747,-1.2801 -6.775736,1.85351 -6.027345,-1.79393 -0.371797,4.23822 -4.147402,-0.0988 -4.576223,0.64035 -3.297569,0.44732 -8.820525,-2.7551 -6.831188,-7.27496 0.70633,-3.4686 7.442923,-3.07891 2.591552,-6.36329 -2.344224,-4.18019 -5.186522,1.47175 -7.794687,-1.99402 -3.622969,-3.90425 -7.371743,1.45321 -11.436042,1.21954 -5.433305,0.60811 -10.621543,-2.15607 -14.688653,-5.54895 -2.570459,-3.81076 -7.065179,-4.22457 -8.860059,-8.61183 -6.64293,-0.26997 -2.54187,-6.48101 0.37636,-8.937883 3.50179,-2.900608 7.609199,-4.968731 12.075319,-5.734295 5.500006,1.064655 5.038282,-4.886501 1.81928,-7.385827 -1.38534,-4.761027 0.870311,-9.633169 2.221039,-14.1469205 1.962901,-5.511056 5.081686,-10.39507499 8.020072,-15.381209 2.582384,-4.066796 7.479071,-5.5017345 11.66613,-7.2589365 2.131844,-2.301809 4.417317,1.76632 4.794274,0.897366 1.714583,-0.848724 3.167275,-1.807836 2.56658,-1.94982 3.985905,1.149402 -5.153357,3.081055 -3.201483,6.4839745 1.282747,5.808129 5.510854,10.313159 9.315603,14.672339 3.258118,3.6832445 4.077578,8.6266375 5.868846,13.0170095 3.079172,-1.324136 5.633688,-4.631484 8.088268,-7.135192 3.4863,-4.4623995 8.743659,-7.5722805 14.282319,-8.6059375 3.912252,-0.449986 14.095293,-2.132097 11.652659,4.733232 -1.934039,3.0152425 -2.77661,7.1030325 -2.804734,10.8351625 -0.09165,6.207839 -2.803534,12.301151 -7.62592,16.260999 -4.348175,2.094402 -2.938378,7.920838 -7.363714,10.102818 -3.365394,2.52988 -10.054858,0.47278 -7.6966,6.77253 2.550127,4.40933 8.240241,3.16541 12.213855,2.33914 6.973808,-1.35191 3.650676,6.94351 0.823387,9.50629 -3.09174,2.93868 -5.823691,5.92791 -8.459166,9.12413 -1.223482,2.33681 -3.362926,-3.09161 -2.715738,0.6665 -0.715172,2.10625 -3.325532,0.49792 -4.752601,1.28972 z m -2.210923,-0.77277 c -1.255069,-2.10971 -1.047602,1.35021 0,0 z m -9.16672,-0.37627 c 1.644484,0.55275 -2.150897,-2.12872 0.861635,-1.40658 -1.884877,-3.14141 -3.110748,2.08298 -0.861635,1.40658 z m -1.03763,-1.80218 c 0.615865,-0.70221 0.592023,1.07955 0,0 z m 14.214549,1.9734 c -1.374554,-1.91941 0.249693,1.69112 0,0 z m 2.107609,-0.23548 c -0.231834,-2.16667 -3.4747,0.28726 -0.465155,-0.49916 -0.682582,1.27625 -1.313642,1.35069 0.465155,0.49916 z m -2.939924,-0.88088 c -1.241117,-3.73163 -1.679131,1.29867 0.34614,0.19346 l -0.34614,-0.19346 z m -16.083385,-1.18179 c -1.584497,-0.68441 1.817235,-1.62793 -0.833611,-1.17242 -0.641132,0.69236 -0.01186,2.67028 0.833611,1.17242 z m 6.377719,0.099 c 1.607525,-3.27973 -2.397788,1.16472 0,0 z m -4.90277,-1.11038 c -0.952389,-0.50142 -0.09941,2.65253 0,0 z m -4.165623,0.15043 c -1.147025,-3.37269 -2.561464,1.85185 -0.648247,-0.38892 0.09353,0.52537 0.44666,1.85411 0.648247,0.38892 z m 21.446545,-0.89916 c -0.464632,-0.69899 -1.081573,1.21877 0,0 z m -18.236899,-0.18522 c -0.910049,-0.43084 -0.72692,0.63619 0,0 z m -5.321019,-1.32538 c 1.678359,-3.59909 -2.242761,0.82088 -0.06612,0.65534 0.02204,-0.21845 0.04408,-0.4369 0.06612,-0.65534 z m 6.953499,0.23401 c -0.792681,0.34242 1.049328,1.26109 0,0 z m -6.128147,-2.24381 c -0.482633,-0.93146 2.88306,-1.56801 -0.394796,-1.07705 -1.100678,0.0318 0.121113,1.62581 0.394796,1.07705 z m 30.988209,-0.97752 c -1.472812,0.26033 -0.920452,1.82885 0,0 z m -1.692232,0.43275 c -0.503068,-1.28035 -1.516214,1.63778 0,0 z m 4.611826,-2.65383 c 1.334962,-1.02236 2.570984,-4.37819 0.751966,-1.27422 -1.455478,1.55949 -3.82679,4.18268 -0.751966,1.27422 z m -27.229957,0.81598 c -1.173436,-1.75773 -6.606382,-8.36751 -2.877799,-3.32689 0.858026,1.16758 1.52493,2.65622 2.877799,3.32689 z m -1.350575,-0.71954 c -2.523121,-2.15921 1.512229,2.05518 0,0 z m 28.061962,-0.4513 c 2.1582,-2.66322 -2.760803,2.6634 0,0 z m -26.111131,0.64837 c -1.167739,-1.44905 -2.000094,-1.41673 0,0 z m 19.948637,-2.22874 c -1.278591,-1.43421 -3.8357,-3.56242 -1.261849,-0.73472 -2.756528,-0.63108 -4.384613,-6.74349 -4.978739,-6.49216 0.108243,2.84296 6.280049,9.06452 6.313496,7.29862 l -0.07291,-0.0717 z m -21.449276,0.42353 c -1.167738,-1.44906 -2.000099,-1.41673 0,0 z m 19.508316,-0.29121 c -1.988648,-2.23664 -2.499368,-2.01214 0,0 z m -21.008956,-1.5238 c -1.018644,-1.66096 -1.224138,-0.37359 0,0 z m 30.012794,-2.8073 c -1.82833,1.30175 -3.596579,3.74195 -0.834298,0.86751 l 0.426493,-0.42474 0.407805,-0.44277 z m 2.39183,1.56699 c -0.984874,0.21238 -0.143067,2.0188 0,0 z m -4.323781,-0.48943 c 1.69957,-1.26042 2.784716,-2.67649 0.398216,-0.6539 -1.911031,0.91112 -2.622701,2.26979 -0.398216,0.6539 z m -5.721312,0.339 c -0.117097,-1.18346 -0.852448,1.13574 0,0 z m -1.050447,-0.39113 c -0.571926,-2.63427 -1.803674,0.8906 0,0 z m -0.700298,-0.11032 c -1.019567,-1.54359 1.179902,0.29714 0,0 z m 5.516102,-0.97713 c -1.489812,-2.03011 0.77213,2.32486 0,0 z m -27.376224,0.31296 c -1.423805,-1.92146 -2.507032,0.57684 0,0 z m 2.451848,-0.18829 c -1.161619,-1.92944 -0.45904,1.61466 0,0 z m 17.949358,-0.30903 c -0.785285,-2.63439 4.122155,1.44038 1.164644,-0.97657 -1.879655,-2.72956 -1.536411,2.64647 -1.164644,0.97657 z m 13.30119,-0.22251 c -1.004898,-0.48914 0.982516,1.34058 0,0 z m -53.685112,-0.14158 c -2.027888,-0.24278 -4.352938,0.22618 -0.974793,0.10825 -0.737728,-0.012 2.182227,0.0222 0.974793,-0.10825 z m -4.958363,-0.26083 c -0.910049,-0.43084 -0.726919,0.63619 0,0 z m 8.344325,-0.25413 c 5.468345,0.18905 0.634381,-7.59292 0.100295,-7.02272 2.900558,2.51955 2.696094,7.18704 -1.330303,7.38058 l 0.599325,-0.0868 0.630683,-0.27103 z m 12.184252,-0.46584 c -1.646911,-1.67175 -6.578756,-3.78396 -1.992112,-0.97411 0.713634,0.47094 4.603146,2.78858 1.992112,0.97411 z m -22.097997,0.30001 c -1.9594,-1.01038 -1.575401,0.16414 0,0 z m 6.231782,0.0891 c -1.780102,-0.36157 -1.685245,0.43789 0,0 z m -10.090716,-1.65454 c -1.901761,-0.29177 -7.877981,-7.06749 -4.346211,-2.66055 0.54083,1.17541 8.558849,5.0134 4.346211,2.66055 z m 22.281988,0.58764 c -2.081241,1.34835 -7.693736,-7.22711 -4.168821,-2.25412 1.017321,0.78295 2.760954,4.07951 4.168821,2.25412 z m 2.435838,-0.64012 c -1.018644,-1.66096 -1.224137,-0.37359 0,0 z m -4.802047,-0.88042 c -2.896504,-3.17652 -1.814533,-1.15818 0,0 z m 3.301408,-0.30745 c -1.414209,-1.60008 -2.449051,-1.9094 0,0 z M -43.6646,53.26534 c -0.644133,-0.12968 0.432715,1.29396 0,0 z m -0.290182,-3.77966 c -0.416753,1.76596 0.357405,2.01179 0,0 z m -50.707997,0.92154 c -1.52086,-0.29775 -1.45114,0.41673 0,0 z m 18.390533,-1.22241 c -1.540659,-4.38862 0.430729,2.7504 0.108804,0.30873 l -0.08675,-0.24616 -0.02205,-0.0626 0,0 z m -15.989505,0.92154 c -1.520838,-0.29776 -1.451138,0.41673 0,0 z m 2.201153,-0.61032 c 2.930329,-2.37186 -2.540482,0.71379 -0.616769,0.27602 l 0.616769,-0.27602 z m -3.655271,0.10404 c -2.34425,-0.62202 -4.85252,-0.0488 -1.03551,0.0689 0.34902,-0.014 0.70297,0.0798 1.03551,-0.0689 z m 1.606394,-0.38696 c -1.991024,-0.51972 -0.429901,0.61158 0,0 z m -6.464714,-0.28529 c -0.90995,-0.43083 -0.72704,0.63617 0,0 z m 7.803325,0 c -0.909941,-0.43083 -0.727054,0.63617 0,0 z m 12.291423,-1.07811 c -0.644126,-0.1297 0.4327,1.29397 0,0 z m 34.814841,0 c -0.644126,-0.1297 0.4327,1.29397 0,0 z m -58.55967,-0.22832 c -2.17784,-2.84051 -1.03044,0.28828 0.5581,0.4895 l -0.18968,-0.31785 -0.36842,-0.17165 z m 24.254164,-5.9848 c 2.05592,-0.43964 -2.961451,0.53909 -0.957414,2.75226 -0.02339,2.46068 0.13971,3.37694 0.238585,0.20302 0.03933,-0.99006 -0.156878,-2.2484 0.718829,-2.95528 z m 34.605634,5.00964 c -0.644133,-0.12968 0.432715,1.29396 0,0 z m -33.904511,-2.27532 c -0.416756,1.76596 0.357404,2.01179 0,0 z m 34.900002,1.89819 c -0.660563,-1.2477 -0.810834,0.68752 0,0 z m 4.693104,-0.44574 c 2.391222,0.0927 7.124039,-8.414435 3.843025,-3.46732 -0.276669,1.49594 -8.236742,5.28388 -3.843025,3.46732 z m -5.297955,-0.54984 c -0.491546,-3.06702 -1.050049,0.59483 0,0 z M -102.4696,43.57778 c 1.71903,-1.5453 -3.34421,2.23401 0,0 z m 67.30369,-0.33513 c 2.158198,-2.66322 -2.760798,2.6634 0,0 z m -73.44892,0.13306 c 1.23711,-3.7894 8.796701,-6.842079 9.258501,-7.766389 -3.244321,2.043415 -9.281001,4.375759 -9.347841,8.437309 l 0.0893,-0.67092 z m 3.66918,0.0174 c 3.84744,-1.6924 -5.25019,1.57119 0,0 z m 6.095791,-1.96247 c -2.052731,-0.39576 -3.237761,1.70909 -0.51451,0.31549 l 0.51451,-0.31549 z m -7.708211,-0.0684 c 0.85624,-1.36534 -1.94612,1.9868 0,0 z m 35.676935,-0.52652 c 1.722766,-2.423078 -2.353715,2.42954 0,0 z m 27.052545,0.21429 c -1.602058,0.0143 -0.312382,0.88344 0,0 z m -61.22884,-0.89124 c 0.67267,-1.32502 -1.77465,2.02701 0,0 z m 34.026231,-0.0752 c 1.43304,-2.145653 -2.285081,2.35675 0,0 z m 38.557749,-1.516099 c -3.563171,-1.008843 0.217804,1.007119 0.07303,0.06771 l -0.07302,-0.06772 c 0,0 -3e-6,3e-6 -3e-6,3e-6 z m -2.842524,-0.289117 c -1.723753,-2.274099 -1.216681,0.541886 0,0 z M -69.24325,37.05401 c 0.182339,-4.174547 3.338663,-1.968776 5.680239,-2.260482 -1.313672,-3.570061 2.10659,-5.148849 5.072099,-3.665226 1.130431,-3.242841 -1.536221,-9.457555 4.133236,-8.908836 0.167458,-5.035255 -2.888877,-10.00535 -5.549474,-14.2552665 -3.068898,-4.668817 -6.568696,-9.251022 -8.662633,-14.421931 0.709734,-2.645739 0.215857,-5.8367945 -1.980143,-2.258161 -1.017487,2.313334 -5.106575,6.653673 -3.225428,1.337802 -1.399628,-1.023573 -6.475378,2.805312 -7.801964,5.336408 -2.753251,4.231106 -3.255637,9.446112 -5.891898,13.7387985 -1.854784,3.584146 -3.95191,9.695901 -0.585055,12.815311 4.356011,-0.350612 10.572499,-1.45119 12.961423,-5.768165 2.307324,-3.415487 3.172514,-7.784944 6.397462,-10.5281745 1.069376,-2.174289 6.82483,-4.205642 3.642379,-0.328446 -3.511317,3.2673955 3.743568,4.8681595 3.963401,8.6787345 1.074502,3.520283 0.665113,9.667391 -4.323899,9.394415 -4.338138,0.916078 -10.201174,8.932644 -3.829745,11.093219 l 0,0 z M -84.987148,23.761415 c 0.378123,-2.129605 1.006308,0.548671 0,0 z m 10.804606,-7.56014 c 1.018636,-1.660925 1.224126,-0.373594 0,0 z m 43.782775,19.881106 c 1.71206,-0.844861 5.470146,-4.682522 5.017581,-4.726284 -1.401412,2.174336 -6.440838,5.2229 -6.661834,5.62594 0.563459,-0.270946 1.105147,-0.583927 1.644253,-0.899656 z m -65.842172,-1.414522 c 1.42384,-1.041183 -2.69875,1.015614 0,0 z m 67.52878,-0.601738 c 1.433028,-2.145655 -2.28509,2.356787 0,0 z m -64.90267,-0.199259 c -2.05691,-0.720854 -0.11684,0.700606 0,0 z m 4.068799,-0.560873 c -0.813003,0.223305 -0.296429,1.68023 0,0 z m -2.568157,0.260004 c -2.056952,-0.720881 -0.11685,0.700612 0,0 z m 1.991049,-0.778563 c -1.041556,-0.650801 -1.104018,2.146115 0,0 z m 16.303892,-0.885415 c -2.340881,-0.491282 1.185195,2.93218 0,0 z m 47.696458,-0.468494 c 0.672661,-1.324986 -1.774653,2.027002 0,0 z m -24.012768,-2.183338 c -1.059883,-2.154999 0.439591,3.040055 0,0 z m 26.390346,-0.327986 c 1.413079,-3.519113 -1.949363,3.331127 0,0 z M -51.078829,28.63899 c -0.0047,-3.694219 3.352594,-6.838962 5.476943,-10.057777 2.851714,-3.315932 6.164064,-6.187184 9.411735,-9.1015755 -5.288975,3.8100275 -9.831008,8.6979425 -13.383607,14.1203075 -1.51395,-0.704069 -2.820572,5.48382 -1.505071,5.039045 z m -17.251219,-1.492848 c 1.433031,-2.145655 -2.285088,2.356783 0,0 z m -0.411907,-0.52652 c 0.672659,-1.324984 -1.774654,2.027004 0,0 z m 46.155727,-0.676954 c -1.263623,0.546323 0.187685,1.818361 0,0 z m -11.564782,-0.46693 c -0.02554,-1.27806 -0.797915,1.74454 0,0 z m 2.886763,-0.611717 c 0.662489,-0.962425 -4.397227,0.91065 -0.591002,0.219167 l 0.591002,-0.219167 z m 8.908731,-0.181241 c -0.644135,-0.129689 0.432718,1.293969 0,0 z m -5.747949,-2.591796 c -1.970203,0.39787 -4.919331,2.876975 -1.463816,0.901934 0.507103,-0.266619 1.020948,-0.532973 1.463816,-0.901934 z m 6.048077,1.388322 c -0.644135,-0.129691 0.432719,1.293971 0,0 z m -68.344623,-0.224677 c 0.281809,-1.881849 -0.856303,-7.008769 -1.410419,-2.516824 -0.244622,0.669532 0.274417,4.438034 1.410419,2.516824 z m 24.880106,0.21087 c 1.837883,0.167738 2.281605,-3.490557 3.017277,-0.924169 1.551007,-1.204266 1.833878,-6.017294 -0.660453,-4.950394 1.658408,-3.079363 -1.520791,-0.940726 -0.976075,1.161088 -1.52071,-2.048357 2.474418,-4.223032 -0.738036,-4.770826 -0.05969,5.545633 -2.799549,-5.0976515 -5.952535,-1.442268 -0.950836,2.505912 2.161336,-1.712205 0.487878,1.382648 -1.003753,4.633794 1.322346,-4.6170665 3.074544,-0.426053 1.559774,2.911684 2.793631,8.256912 1.113624,9.977059 0.211227,-0.0024 0.422621,-0.0048 0.633776,-0.0071 z m 2.80225,-2.697772 c -0.773532,-2.486488 1.066075,-2.947218 0.817505,-0.325352 0.397735,0.605789 -0.575618,0.530844 -0.817505,0.325352 z m -2.221757,-1.199446 c -1.06723,-2.07385 -0.152652,-3.458164 0.276412,-0.440744 0.363293,0.102489 0.340765,1.806883 -0.276412,0.440744 z m 1.261348,-2.897945 c 0.415248,-1.59262 1.271055,0.235144 0,0 z m 38.6461,5.661249 c 0.978863,-2.017145 4.163669,-2.183668 3.176549,0.752831 2.48283,-6.45145 -8.561765,2.468108 -3.595153,-0.497036 l 0.418604,-0.255795 0,0 z M -50.852277,21.52165 c -2.320934,-0.923365 1.702053,2.021835 0,0 z m -14.776619,0.509726 c 1.404352,-2.69408 -1.460636,-0.334611 0.04387,0.283188 l -0.04387,-0.283188 z m 39.256632,-0.490233 c 2.376296,-0.466808 7.237966,-7.135822 3.440614,-2.789805 -0.625225,0.842574 -5.70488,3.757702 -3.440614,2.789805 z m 2.049244,-2.142368 c 0.672661,-1.324986 -1.774653,2.027002 0,0 z m -20.446984,-0.827389 c 2.158199,-2.663218 -2.760802,2.663398 0,0 z m -1.800768,-1.203474 c 1.722763,-2.423085 -2.35371,2.429551 0,0 z M -90.459103,16.61574 c -2.341993,-2.420767 1.176545,2.123575 0,0 z m 21.678864,0.399776 c -0.246834,-1.603359 -2.489182,-1.000879 -0.324732,-0.308005 -1.850848,0.433724 -0.24032,0.718791 0.324732,0.308005 z m -21.378736,-1.603251 c -2.342021,-2.420789 1.176565,2.123591 0,0 z m 45.989227,-0.451303 c 1.722759,-2.423082 -2.353712,2.429555 0,0 z M -65.14494,14.122291 c 2.356669,-2.211897 -4.848074,-2.784724 -1.580219,-5.9973375 0.822112,-1.722926 -4.39965,3.1936565 -0.991952,4.1837585 0.163486,0.387246 3.153215,3.095895 2.572171,1.813579 z m -2.473072,-2.245232 c -0.856246,-1.36533 1.946115,1.9868 0,0 z M -67.2796,8.0778225 c 1.018636,-1.660927 1.224128,-0.373599 0,0 z m 39.913979,5.1946315 c 2.9232,-2.435325 -5.300321,3.196963 -0.956062,-0.510411 2.296296,-1.286768 3.843722,-2.8145195 0.525405,-0.774416 -2.158038,1.131822 -3.577651,4.365508 -0.200081,1.74777 0.219605,-0.140745 0.419139,-0.310701 0.630738,-0.462943 z m -62.423574,1.086771 c -1.984833,-1.882798 0.607073,1.607416 0,0 z m 58.86336,-0.07522 c 0.672659,-1.324982 -1.774654,2.027005 0,0 z M -38.16719,11.88963 c -1.828325,1.301758 -3.596581,3.741944 -0.8343,0.867509 l 0.426493,-0.424745 0.407807,-0.442764 z m 10.842891,2.093506 c 0.856244,-1.365328 -1.946115,1.986799 0,0 z m -61.457619,-1.467304 c 0.560854,-2.6536915 4.110509,-7.9710555 2.897624,-9.1201645 -0.574292,1.668661 -5.438238,9.0046405 -2.897624,9.1201645 z m 59.956979,-0.337908 c 0.672657,-1.324979 -1.774655,2.027006 0,0 z m 8.26173,-0.513544 c -1.138003,-1.576803 0.246262,1.655055 0,0 z m -4.479635,0.256552 c -0.909844,-0.430829 -0.727207,0.63605 0,0 z m 1.662667,-0.316444 c -1.991089,-0.519816 -0.429829,0.611796 0,0 z m -47.462674,-0.630035 c 0.856246,-1.3653305 -1.946115,1.9868 0,0 z m 33.914457,0 c 0.856246,-1.3653305 -1.946113,1.986798 0,0 z m 15.043145,0.32726 c -2.056956,-0.720878 -0.116859,0.700604 0,0 z m -1.056699,-1.18599 c -0.909847,-0.4308305 -0.727207,0.63605 0,0 z m 1.662666,-0.3164445 c -1.991089,-0.519816 -0.429828,0.6117975 0,0 z m 2.943622,-1.283849 c 2.522142,-1.44237 -3.046417,-3.730805 0.57717,-1.361695 -0.0628,1.114802 -3.065188,2.9635785 -0.57717,1.361695 z m -15.929866,-0.194749 c -0.796177,-0.32491 -1.739885,1.330205 -0.536064,0.426127 l 0.536064,-0.426127 z m 2.27508,-1.258411 c -2.353992,0.572954 -2.140859,1.837037 0,0 z m -35.250869,8.9e-4 c 0.856243,-1.365329 -1.946115,1.986803 0,0 z m 37.477708,-0.727714 c -1.688174,-0.253853 -1.490758,1.294394 0,0 z m 1.419356,-0.431884 c -0.909855,-0.43082 -0.7272,0.636043 0,0 z m 1.200512,-0.300868 c -0.909845,-0.430831 -0.727207,0.636051 0,0 z m 2.861593,-0.330885 c -1.779969,-0.36153 -1.685356,0.437688 0,0 z m 2.240581,0.03002 c -0.909846,-0.43083 -0.727204,0.63605 0,0 z m -37.734836,-1.436162 c -1.018636,-1.660927 -1.224128,-0.373599 0,0 z m -24.610491,-2.594223 c -0.463518,-1.00376499 -0.623274,1.106511 0,0 z m 3.151343,-5.080527 c 0.337386,-1.977629 7.598071,-5.49261 3.308926,-4.399453 -0.598356,0.762096 -4.511438,3.930565 -3.308926,4.399453 z m 15.635312,-0.08073 c -0.865249,-1.717519 -2.731431,-0.591242 0,0 z m -0.929043,-2.360467 c -1.0684,-1.254713 -1.710573,1.347937 0,0 z m -0.513891,-2.147213 c -0.862389,0.214121 0.223243,1.429211 0,0 z m -7.744222,-0.259737 c 2.113972,0.287724 8.11391,-4.1461685 3.046242,-2.6573845 -1.083865,0.968132 -6.574091,1.7403745 -3.046242,2.6573845 z m 5.256834,-1.203474 c 1.433029,-2.1456555 -2.285088,2.356783 0,0 z m 2.850504,0.149992 c 0.989916,-2.6280625 -1.99527,1.052156 0,0 z m -0.515695,-2.8697425 c -0.832637,-1.790628 0.199051,2.086945 0,0 z m 17.596483,86.338005 c 1.084884,-1.28705 -1.968029,-2.89625 -0.786235,-0.47949 -1.761797,-3.39533 1.262818,-3.44603 2.906422,-4.90338 1.6291,1.03696 -2.2171,-0.23581 -0.824376,1.8403 -2.733633,0.57046 0.09425,0.83826 -0.741995,3.08442 1.190699,0.19961 -0.214682,1.09086 -0.553816,0.45815 z m 5.954743,-0.77776 c 1.758974,-0.58654 0.29851,0.6413 0,0 z m 1.299238,-0.27712 c 0.349979,-1.03881 0.117091,1.36996 0,0 z m 3.190751,-2.23144 c 0.76541,-1.83822 0.03071,1.78345 0,0 z m 2.788113,0.48349 c 1.114522,-1.20266 0.816063,0.57007 0,0 z m -28.164639,-1.3861 c 0.22331,-1.66608 0.223343,1.66617 0,0 z m 9.256579,-0.15043 c 1.90208,-2.22013 -0.394885,1.76992 0,0 z m -2.249498,-0.32232 c -1.225299,-3.20212 2.656673,1.83902 0,0 z m 6.021035,0.20422 c 1.658189,-1.49342 -3.128427,-1.53633 -0.263145,-2.05726 0.945699,0.32134 2.591755,2.60008 0.263145,2.05726 z m 10.691196,-0.34493 c -2.351889,-2.70519 2.735383,2.23043 0,0 z m -2.307552,0.0117 c 1.275086,-2.44982 1.332376,0.44342 0,0 z m -16.206908,-0.60174 c 2.08615,-2.10391 -1.079765,1.84081 0,0 z m 19.248375,-0.25635 c -0.93754,-3.62327 3.189863,1.62422 0,0 z m 1.310389,-0.14832 c -0.90392,-1.22584 -2.002213,-1.41651 0,0 z m -15.906781,-0.49567 c 2.701405,-1.39074 2.322797,0.22209 0,0 z m 13.505757,-0.39511 c 0.687299,-1.5904 -1.687998,0.18694 -0.28757,-2.1395 0.485559,1.92047 4.169382,-1.24308 1.319874,1.34197 l -0.572448,0.45351 -0.459856,0.34402 z M -54.44913,66.36066 c 1.758975,-0.58655 0.29851,0.6413 0,0 z m 11.020827,-0.41688 c -3.927424,0.6683 -1.327117,-8.3351 -0.976803,-4.48614 -1.56463,1.22357 2.060239,-0.18889 0.618979,2.36171 -0.82371,2.8093 1.511958,-1.85061 0.740522,1.95046 l -0.158753,0.30798 -0.223945,-0.13401 0,0 z m 6.095709,0.13394 c -0.108781,-1.92464 1.767497,-1.12349 0,0 z m -0.834596,-0.6343 c 0.760047,-1.51945 1.21976,-0.74663 0,0 z m -2.737731,-0.35882 c 0.261319,-2.03626 1.294511,0.47851 0,0 z m 2.137476,-0.44814 c 1.114504,-1.20267 0.816082,0.57005 0,0 z M -57.277428,51.9678 c 0.869015,-3.57274 0.879598,-6.609 -1.093269,-9.4754 1.697574,-1.64654 5.094321,-2.0254 3.345854,-5.456635 2.437114,-1.172191 4.153477,6.710215 0.0076,6.926035 1.295731,2.56188 0.28142,9.02445 -2.190048,8.81925 l -0.07012,-0.81325 4e-6,0 z m 0.889396,-0.4513 c -0.765419,-1.83823 -0.0307,1.78348 0,0 z m 0.118059,-2.76423 c -0.644135,-0.12968 0.432713,1.29396 0,0 z m 1.210857,-2.27118 c -0.415204,1.55406 0.359853,1.86806 0,0 z m 0.927182,-6.25512 c -0.813005,0.2233 -0.296422,1.68023 0,0 z m 0.486591,-2.577953 c -0.778131,-0.80326 -1.462449,0.881486 0,0 z m -29.541038,5.123023 c -3.318996,-1.22275 -5.789915,-1.24309 -8.847883,-2.80705 -4.829045,0.95005 -1.909205,-3.206672 1.154659,-2.002254 1.556221,-0.517607 4.550864,2.814704 3.805063,1.231874 0.551913,1.12813 8.714369,3.75595 3.888161,3.57743 z m -0.150063,-0.88233 c -1.723719,-2.27413 -1.21677,0.54179 0,0 z m -1.650704,-0.41912 c -0.872185,-1.1232 -1.403298,0.63561 0,0 z m -9.999331,-2.64598 c -0.6441,-0.129709 0.4327,1.29397 0,0 z m 1.44569,0.35728 c 3.398422,-0.13975 1.24646,-1.292623 -0.24019,-0.15758 -0.40888,0.47238 0.35485,0.56187 0.24019,0.15758 z m 11.783515,0.99068 c 1.616917,-0.25148 1.435409,0.34748 0,0 z m -1.78387,-0.45452 c 1.62141,-0.86534 0.777342,0.6699 0,0 z m 3.806235,0.0656 c -0.566968,-1.076889 2.611393,1.1123 0,0 z m -5.070653,-0.352 c -1.790819,-0.774816 2.105322,0.33515 0,0 z m 6.721356,0.0511 c -0.75741,-1.300766 2.308885,1.32289 0,0 z m 1.200512,-0.30087 c -0.75741,-1.300766 2.308885,1.32289 0,0 z m -6.204725,-0.31422 c -5.200027,0.0917 -5.072731,-7.788096 0.326254,-7.106895 4.041778,-2.369237 9.935215,0.79608 8.570359,5.589657 -2.596852,1.178076 -6.065068,1.960828 -8.896613,1.517238 z m 7.405237,0.0134 c -0.72304,-1.139139 1.708884,1.13963 0,0 z m -11.14225,-0.132678 c -1.544591,-1.418011 0.649247,-2.329519 0,0 z m 11.931809,-0.104543 c 0.694824,-1.278172 1.91509,0.356151 0,0 z m 3.07382,-1.492775 c -0.856247,-1.365334 1.946114,1.986796 0,0 z m 45.345061,-1.353909 c 3.603572,-3.55121 -2.502561,2.782457 -0.266785,0.284948 l 0.178386,-0.190531 0.0884,-0.09442 z m -61.644453,0.287892 c 1.142544,-1.599269 -0.343111,1.318981 0,0 z m -0.296685,-2.064924 c -0.296404,-1.456286 3.824915,-4.372161 1.487302,-1.143334 -0.247582,0.517088 -2.289791,3.906193 -1.487302,1.143334 z m 2.828476,-2.059043 c 2.457965,-1.361355 -0.746665,1.044286 0,0 z m 35.376813,-0.225652 c 2.662418,-1.161299 1.132667,1.438195 0,0 z m -33.876173,-0.376085 c 1.582737,-0.91453 0.928939,0.256781 -0.138749,0.236485 l 0.138749,-0.236485 z m 9.106302,-0.134579 c -0.762348,-1.914585 -9.262367,0.386361 -5.070524,-2.132556 2.190431,0.732164 6.768714,0.01828 3.341215,-2.623773 2.106831,-0.801436 -1.49556,-1.693467 1.587822,-1.298278 1.939017,1.39207 -0.95812,1.074625 0.920578,2.602965 -0.222965,3.124033 -0.413519,-2.94101 -1.186917,0.735694 -0.19385,0.846273 1.830164,2.966888 0.407826,2.715948 z m -1.753168,-1.520199 c -2.649478,-1.555361 -4.608363,1.078173 -0.709399,0.302226 l 0.392917,-0.08571 0.316482,-0.216516 z m -2.471929,-0.06546 c 1.864731,-0.353836 1.545144,0.418972 0,0 z m 5.623273,1.601996 c 1.114514,-1.202663 0.816073,0.570058 0,0 z m -11.204777,-0.383206 c -0.426261,-0.970157 2.324965,-0.916441 0,0 z m 2.444792,-0.0049 c 1.919551,-0.575389 -0.388436,0.699806 0,0 z m -1.144237,-0.697092 c 1.443417,-2.281105 -0.692024,2.096147 0,0 z m 0.970035,-0.300869 c 1.807044,-2.043722 -0.373092,1.761308 0,0 z m 8.863251,-0.601737 c -1.487314,-2.086978 2.555937,-3.482706 1.204177,-0.633113 -1.067442,-2.429814 -0.686512,2.477052 -1.204177,0.633113 z m 28.93173,-0.391854 c 0.998087,-2.275209 -1.591434,1.185852 -0.427562,-1.628804 2.445837,-2.19657 1.742567,-7.571663 4.861882,-10.48901 2.471614,-0.99259 4.025064,-3.259607 6.799089,-3.597953 -2.451092,3.490334 -5.971937,6.351945 -7.941447,9.872887 -0.08756,1.711514 -1.311266,7.440692 -3.291962,5.84288 l 0,0 z m 5.166853,-12.304439 c -2.204426,-0.0807 -0.534436,2.611968 0,0 z m -1.013574,0.84882 c 1.018638,-1.660937 1.224131,-0.373596 0,0 z m 5.110846,-1.915546 c 1.793641,-2.5047 -4.711588,4.293671 -0.339381,0.354678 l 0.180447,-0.18858 0.158934,-0.166098 z m -1.659375,1.126536 c 2.294183,-2.319199 -1.435344,2.090325 0,0 z m 1.656406,-1.962534 c 0.523254,-1.531533 -1.612957,1.673632 0,0 z m -36.15345,12.934672 c -1.158016,-1.631403 2.234309,1.772067 0,0 z m -14.874002,-0.110837 c 3.215968,-2.331407 1.335945,1.096233 -1.067996,0.13405 l 1.013199,-0.126728 0.0548,-0.0073 -3e-6,-2.2e-5 z m 15.87124,0.04519 c -2.148146,-1.740096 2.045324,-2.183632 0,0 z m -13.481127,-0.513342 c 0.676217,-1.72234 3.370609,-0.644653 0,0 z m 2.08469,-0.650574 c 1.645032,-2.40838 3.308821,-0.408133 0,0 z m 8.635842,0.07106 c 0.132827,-3.450748 2.760301,0.633323 0,0 z m -6.193281,-1.362291 c 0.511033,-1.245821 2.593664,-1.067238 3.048545,-1.686573 -0.300614,0.963071 -2.060562,2.839246 -3.048545,1.686573 z m 0.490727,-0.384297 c -0.644133,-0.129689 0.432713,1.293972 0,0 z m 0.600256,-0.300868 c -0.644133,-0.12969 0.432713,1.293972 0,0 z m 1.200512,-0.601737 c -0.644135,-0.129694 0.43272,1.293973 0,0 z m 5.89499,1.381372 c -3.65172,-0.313954 1.190798,-1.255968 3e-6,4e-6 l -3e-6,-4e-6 z m 1.703316,0.238971 c -2.17442,-0.292443 -0.08655,-1.17786 0,0 z m -4.96978,-0.494291 c 2.573297,-1.436655 -0.566109,1.146661 0,0 z m 18.550428,0.05862 c 1.467226,-1.916193 1.328304,1.701681 0,0 z m -18.584492,-0.938867 c -2.885376,-1.779256 1.123271,-0.27429 0.667078,-3.036885 0.775068,-2.066124 2.412099,-0.786719 0.414363,0.35022 0.292402,1.743202 0.503803,2.863272 -0.376981,1.484827 0.822721,0.160448 -1.300518,2.535431 -0.70446,1.201838 z m 5.003844,-0.490259 c -0.177755,-1.369024 1.743384,1.166101 0,0 z m 28.212026,-12.486049 c 2.29331,-2.5075245 -1.603228,2.36183 0,0 z m -24.366637,-24.425537 c 1.919456,-0.575363 -0.38842,0.699832 0,0 z m -0.163111,-0.604709 c 2.284186,-0.626059 0.220728,0.667185 0,0 z"
         style="fill:#808080;stroke:#808080;stroke-width:2.7464323;stroke-linejoin:round;stroke-miterlimit:4;stroke-dasharray:none;filter:url(#filter4132)" />
      <path
         style="fill:#ffffff;stroke:#ffffff;stroke-width:2.7464323;stroke-linejoin:round;stroke-miterlimit:4;stroke-dasharray:none"
         d="m -46.326918,76.28307 c 1.919972,-0.57543 -0.388559,0.69969 0,0 z m 1.066685,-0.17056 c 1.026844,-2.6556 -2.175365,1.13033 -0.929267,-1.79808 -2.30353,0.37801 0.687242,-2.35933 -1.079322,-3.01154 0.214875,-3.10672 5.926915,1.67432 1.441327,-0.92102 -1.145376,1.90261 0.552821,-0.67415 1.48699,1.41536 1.496177,0.37509 0.03836,2.74053 2.444663,1.32905 0.79802,-1.58522 -0.936222,-2.14877 -0.347134,-2.99927 -2.411156,0.0431 -1.437146,-2.91714 -3.026303,-1.2625 -3.817733,-1.55571 1.98546,-0.3916 1.282796,-2.70841 -0.807394,3.73345 2.485473,-1.62851 1.087628,1.94595 -1.071538,2.61772 4.113476,0.38974 3.215262,3.78396 2.903352,-0.14138 -0.882124,-3.65567 1.526367,-2.81803 -0.610061,-1.25348 -1.717176,-4.7467 0.392764,-1.82189 1.531888,2.09907 -3.232112,7.00116 -0.170999,6.02494 -1.969463,-2.69281 4.578025,-2.42312 1.483645,-2.96301 -2.426005,0.18731 1.342918,-0.7319 -0.89355,-0.89015 1.318348,-0.68958 1.959944,-0.40804 1.347869,-3.0443 3.687628,-0.21988 7.260743,-4.93966 7.483726,-8.12314 -2.781715,-0.46447 -5.216136,5.84595 -6.245547,0.55235 -3.226765,-0.60652 -3.61164,3.96627 -0.336734,3.98772 2.118268,1.29113 -0.251061,2.69912 0.374256,0.96222 -4.871223,1.38803 -8.107474,-5.03289 -9.552998,-8.93801 -1.667195,-3.97444 0.656954,-8.00585 -0.413764,-12.03315 -0.323356,-3.86195 2.760723,0.26223 2.124499,2.24467 3.776301,2.04692 8.524761,-2.54262 9.187461,-5.48079 -3.136044,0.62877 -6.945633,-2.727365 -2.245359,-2.364286 4.989034,-1.048731 9.256324,-4.872434 11.464334,-9.381923 0.621542,-1.628067 2.967065,-8.941957 -0.698898,-4.640227 -2.714762,1.358739 -6.261877,2.979646 -9.348572,2.592781 2.234612,-4.448995 8.682845,-4.14616 11.532732,-8.290323 2.012135,-2.328496 2.090721,-7.437464 -2.059399,-4.563386 -1.638462,0.281124 -8.609738,5.418441 -6.007009,0.768844 2.785791,-3.6938805 7.47306,-4.1862095 11.511825,-5.4870325 2.261813,-2.296295 -6.593243,-2.590125 -9.253116,-1.443653 -4.259866,0.863776 -7.380465,3.4245955 -10.472147,6.2986865 -3.544084,2.756588 -6.286709,6.357049 -9.239782,9.702752 -2.128178,1.864345 0.293833,8.435032 -2.150014,8.26164 -3.635242,-1.949883 -1.130892,-6.059686 -0.941434,-8.006514 -1.214978,-4.068706 -2.393994,-8.152829 -4.150106,-11.913151 -1.16118,-1.5551765 -4.939055,-7.5308825 -5.207801,-6.0501155 2.426012,2.911801 4.516031,6.6184055 5.717408,10.3920335 0.937018,2.486083 4.589468,9.017148 -0.934182,7.736719 -2.622078,1.064306 0.539758,9.204612 -2.107722,9.158426 -3.398314,-1.786914 -5.917789,0.468311 -4.528787,3.635323 -1.728782,1.870509 -5.466976,-2.952662 -5.708028,1.469591 -0.342724,2.036365 -4.591974,7.240865 -4.949025,2.875555 2.317759,-1.761658 1.555595,-4.844909 -0.152762,-2.669936 0.584318,-2.06533 0.371998,-1.969024 -0.352816,-2.826744 0.993309,-1.096813 -1.57188,-0.371991 -0.814932,-2.83646 0.227229,-3.914049 1.426195,2.198795 2.324088,-1.082817 -1.087442,-2.745225 0.705399,-0.113563 0.623409,-2.275558 1.370303,-3.538437 10.775166,-4.025284 7.987113,-5.504669 -1.409216,1.326867 -4.005291,2.04388 -3.938405,0.121186 -2.91581,-0.372511 3.482706,-0.613918 0.06435,-1.191338 2.500804,0.09206 1.450757,-3.955472 -0.02014,-0.672966 -0.229653,3.160559 -8.102016,1.468302 -3.449346,1.706808 -2.591208,-0.287753 -2.538095,-2.73143 0.214135,-2.328348 0.373815,-1.505816 1.951683,-2.507596 0.847484,-0.104735 2.572611,-2.083183 0.06863,-3.491691 -2.239223,-2.635383 1.018348,-1.957532 -0.305017,-3.112475 -1.614104,-0.999567 2.376963,-1.589445 -1.853364,3.050318 -1.34917,4.233281 -3.932401,1.975006 -8.648938,5.310151 -13.05794,4.189724 -1.179478,-0.01771 -3.431158,-2.191145 -1.194278,0.521138 1.221063,1.633435 4.538257,0.599957 1.177238,1.102046 -1.464827,1.083077 -0.54215,3.016604 -0.05657,0.569754 1.379532,1.898851 0.04437,4.099283 -0.843997,4.275169 -1.636784,4.389921 -8.456945,2.264224 -11.749344,5.423274 -2.28021,1.600161 -6.27862,3.935561 -7.0999,5.897971 3.08939,0.15104 8.243859,-4.44466 9.839139,-1.29731 -3.932219,0.78724 -7.312979,5.92585 -1.03904,6.17227 3.3724,1.90305 8.479554,-1.70146 10.761343,0.77925 -0.943709,3.71752 -11.255063,0.89434 -5.812743,4.22966 4.026685,2.88936 8.901206,4.28926 13.857597,3.58782 3.601844,-0.23014 5.516242,-2.58123 2.533305,-4.85816 -1.857437,-2.9435 -4.159312,-10.29443 0.441432,-11.20064 1.743949,0.63239 0.009,-1.22468 1.124446,0.91432 -0.910085,4.37347 0.374084,9.33627 4.005466,12.34907 2.876413,4.07211 -0.550992,-3.66403 3.596504,-0.40485 2.432869,3.23767 6.405044,3.53617 9.680912,4.85415 -4.940134,2.07246 2.538349,5.19689 3.195858,8.20085 0.73853,3.07483 -1.108432,-2.42213 -2.630429,0.24836 0.299018,-3.161 -7.02099,-1.68814 -2.219789,-1.53484 0.370567,1.6262 0.04684,3.19889 1.126321,0.75512 0.609916,2.99242 -4.948289,2.00455 -1.430543,0.10291 -0.208235,-1.61858 -6.449635,0.12439 -1.767166,-0.0787 -2.196129,1.34674 -2.76861,5.80977 0.641225,4.47729 -3.238407,-0.48542 0.826478,-3.44878 -0.775911,-0.93725 2.208357,-1.83993 1.768843,-0.24934 1.221661,1.52527 0.805924,-2.08008 5.92453,-1.97902 4.327945,1.06443 2.55344,0.78405 0.06962,-1.41983 2.103436,-0.88321 -2.453384,-1.98273 5.303239,0.78406 0.691822,-1.43131 4.733228,-0.80236 -1.597445,7.89406 2.593316,3.76798 1.754412,-0.10053 7.29859,2.14088 2.979058,2.0629 -1.750747,-1.2801 -6.775736,1.85351 -6.027345,-1.79393 -0.371797,4.23822 -4.147402,-0.0988 -4.576223,0.64035 -3.297569,0.44732 -8.820525,-2.7551 -6.831188,-7.27496 0.70633,-3.4686 7.442923,-3.07891 2.591552,-6.36329 -2.344224,-4.18019 -5.186522,1.47175 -7.794687,-1.99402 -3.622969,-3.90425 -7.371743,1.45321 -11.436042,1.21954 -5.433305,0.60811 -10.621543,-2.15607 -14.688653,-5.54895 -2.570459,-3.81076 -7.065179,-4.22457 -8.860059,-8.61183 -6.64293,-0.26997 -2.54187,-6.48101 0.37636,-8.937883 3.50179,-2.900608 7.609199,-4.968731 12.075319,-5.734295 5.500006,1.064655 5.038282,-4.886501 1.81928,-7.385827 -1.38534,-4.761027 0.870311,-9.633169 2.221039,-14.1469205 1.962901,-5.511056 5.081686,-10.39507499 8.020072,-15.381209 2.582384,-4.066796 7.479071,-5.5017345 11.66613,-7.2589365 2.131844,-2.301809 4.417317,1.76632 4.794274,0.897366 1.714583,-0.848724 3.167275,-1.807836 2.56658,-1.94982 3.985905,1.149402 -5.153357,3.081055 -3.201483,6.4839745 1.282747,5.808129 5.510854,10.313159 9.315603,14.672339 3.258118,3.6832445 4.077578,8.6266375 5.868846,13.0170095 3.079172,-1.324136 5.633688,-4.631484 8.088268,-7.135192 3.4863,-4.4623995 8.743659,-7.5722805 14.282319,-8.6059375 3.912252,-0.449986 14.095293,-2.132097 11.652659,4.733232 -1.934039,3.0152425 -2.77661,7.1030325 -2.804734,10.8351625 -0.09165,6.207839 -2.803534,12.301151 -7.62592,16.260999 -4.348175,2.094402 -2.938378,7.920838 -7.363714,10.102818 -3.365394,2.52988 -10.054858,0.47278 -7.6966,6.77253 2.550127,4.40933 8.240241,3.16541 12.213855,2.33914 6.973808,-1.35191 3.650676,6.94351 0.823387,9.50629 -3.09174,2.93868 -5.823691,5.92791 -8.459166,9.12413 -1.223482,2.33681 -3.362926,-3.09161 -2.715738,0.6665 -0.715172,2.10625 -3.325532,0.49792 -4.752601,1.28972 z m -2.210923,-0.77277 c -1.255069,-2.10971 -1.047602,1.35021 0,0 z m -9.16672,-0.37627 c 1.644484,0.55275 -2.150897,-2.12872 0.861635,-1.40658 -1.884877,-3.14141 -3.110748,2.08298 -0.861635,1.40658 z m -1.03763,-1.80218 c 0.615865,-0.70221 0.592023,1.07955 0,0 z m 14.214549,1.9734 c -1.374554,-1.91941 0.249693,1.69112 0,0 z m 2.107609,-0.23548 c -0.231834,-2.16667 -3.4747,0.28726 -0.465155,-0.49916 -0.682582,1.27625 -1.313642,1.35069 0.465155,0.49916 z m -2.939924,-0.88088 c -1.241117,-3.73163 -1.679131,1.29867 0.34614,0.19346 l -0.34614,-0.19346 z m -16.083385,-1.18179 c -1.584497,-0.68441 1.817235,-1.62793 -0.833611,-1.17242 -0.641132,0.69236 -0.01186,2.67028 0.833611,1.17242 z m 6.377719,0.099 c 1.607525,-3.27973 -2.397788,1.16472 0,0 z m -4.90277,-1.11038 c -0.952389,-0.50142 -0.09941,2.65253 0,0 z m -4.165623,0.15043 c -1.147025,-3.37269 -2.561464,1.85185 -0.648247,-0.38892 0.09353,0.52537 0.44666,1.85411 0.648247,0.38892 z m 21.446545,-0.89916 c -0.464632,-0.69899 -1.081573,1.21877 0,0 z m -18.236899,-0.18522 c -0.910049,-0.43084 -0.72692,0.63619 0,0 z m -5.321019,-1.32538 c 1.678359,-3.59909 -2.242761,0.82088 -0.06612,0.65534 0.02204,-0.21845 0.04408,-0.4369 0.06612,-0.65534 z m 6.953499,0.23401 c -0.792681,0.34242 1.049328,1.26109 0,0 z m -6.128147,-2.24381 c -0.482633,-0.93146 2.88306,-1.56801 -0.394796,-1.07705 -1.100678,0.0318 0.121113,1.62581 0.394796,1.07705 z m 30.988209,-0.97752 c -1.472812,0.26033 -0.920452,1.82885 0,0 z m -1.692232,0.43275 c -0.503068,-1.28035 -1.516214,1.63778 0,0 z m 4.611826,-2.65383 c 1.334962,-1.02236 2.570984,-4.37819 0.751966,-1.27422 -1.455478,1.55949 -3.82679,4.18268 -0.751966,1.27422 z m -27.229957,0.81598 c -1.173436,-1.75773 -6.606382,-8.36751 -2.877799,-3.32689 0.858026,1.16758 1.52493,2.65622 2.877799,3.32689 z m -1.350575,-0.71954 c -2.523121,-2.15921 1.512229,2.05518 0,0 z m 28.061962,-0.4513 c 2.1582,-2.66322 -2.760803,2.6634 0,0 z m -26.111131,0.64837 c -1.167739,-1.44905 -2.000094,-1.41673 0,0 z m 19.948637,-2.22874 c -1.278591,-1.43421 -3.8357,-3.56242 -1.261849,-0.73472 -2.756528,-0.63108 -4.384613,-6.74349 -4.978739,-6.49216 0.108243,2.84296 6.280049,9.06452 6.313496,7.29862 l -0.07291,-0.0717 z m -21.449276,0.42353 c -1.167738,-1.44906 -2.000099,-1.41673 0,0 z m 19.508316,-0.29121 c -1.988648,-2.23664 -2.499368,-2.01214 0,0 z m -21.008956,-1.5238 c -1.018644,-1.66096 -1.224138,-0.37359 0,0 z m 30.012794,-2.8073 c -1.82833,1.30175 -3.596579,3.74195 -0.834298,0.86751 l 0.426493,-0.42474 0.407805,-0.44277 z m 2.39183,1.56699 c -0.984874,0.21238 -0.143067,2.0188 0,0 z m -4.323781,-0.48943 c 1.69957,-1.26042 2.784716,-2.67649 0.398216,-0.6539 -1.911031,0.91112 -2.622701,2.26979 -0.398216,0.6539 z m -5.721312,0.339 c -0.117097,-1.18346 -0.852448,1.13574 0,0 z m -1.050447,-0.39113 c -0.571926,-2.63427 -1.803674,0.8906 0,0 z m -0.700298,-0.11032 c -1.019567,-1.54359 1.179902,0.29714 0,0 z m 5.516102,-0.97713 c -1.489812,-2.03011 0.77213,2.32486 0,0 z m -27.376224,0.31296 c -1.423805,-1.92146 -2.507032,0.57684 0,0 z m 2.451848,-0.18829 c -1.161619,-1.92944 -0.45904,1.61466 0,0 z m 17.949358,-0.30903 c -0.785285,-2.63439 4.122155,1.44038 1.164644,-0.97657 -1.879655,-2.72956 -1.536411,2.64647 -1.164644,0.97657 z m 13.30119,-0.22251 c -1.004898,-0.48914 0.982516,1.34058 0,0 z m -53.685112,-0.14158 c -2.027888,-0.24278 -4.352938,0.22618 -0.974793,0.10825 -0.737728,-0.012 2.182227,0.0222 0.974793,-0.10825 z m -4.958363,-0.26083 c -0.910049,-0.43084 -0.726919,0.63619 0,0 z m 8.344325,-0.25413 c 5.468345,0.18905 0.634381,-7.59292 0.100295,-7.02272 2.900558,2.51955 2.696094,7.18704 -1.330303,7.38058 l 0.599325,-0.0868 0.630683,-0.27103 z m 12.184252,-0.46584 c -1.646911,-1.67175 -6.578756,-3.78396 -1.992112,-0.97411 0.713634,0.47094 4.603146,2.78858 1.992112,0.97411 z m -22.097997,0.30001 c -1.9594,-1.01038 -1.575401,0.16414 0,0 z m 6.231782,0.0891 c -1.780102,-0.36157 -1.685245,0.43789 0,0 z m -10.090716,-1.65454 c -1.901761,-0.29177 -7.877981,-7.06749 -4.346211,-2.66055 0.54083,1.17541 8.558849,5.0134 4.346211,2.66055 z m 22.281988,0.58764 c -2.081241,1.34835 -7.693736,-7.22711 -4.168821,-2.25412 1.017321,0.78295 2.760954,4.07951 4.168821,2.25412 z m 2.435838,-0.64012 c -1.018644,-1.66096 -1.224137,-0.37359 0,0 z m -4.802047,-0.88042 c -2.896504,-3.17652 -1.814533,-1.15818 0,0 z m 3.301408,-0.30745 c -1.414209,-1.60008 -2.449051,-1.9094 0,0 z M -43.6646,53.26534 c -0.644133,-0.12968 0.432715,1.29396 0,0 z m -0.290182,-3.77966 c -0.416753,1.76596 0.357405,2.01179 0,0 z m -50.707997,0.92154 c -1.52086,-0.29775 -1.45114,0.41673 0,0 z m 18.390533,-1.22241 c -1.540659,-4.38862 0.430729,2.7504 0.108804,0.30873 l -0.08675,-0.24616 -0.02205,-0.0626 0,0 z m -15.989505,0.92154 c -1.520838,-0.29776 -1.451138,0.41673 0,0 z m 2.201153,-0.61032 c 2.930329,-2.37186 -2.540482,0.71379 -0.616769,0.27602 l 0.616769,-0.27602 z m -3.655271,0.10404 c -2.34425,-0.62202 -4.85252,-0.0488 -1.03551,0.0689 0.34902,-0.014 0.70297,0.0798 1.03551,-0.0689 z m 1.606394,-0.38696 c -1.991024,-0.51972 -0.429901,0.61158 0,0 z m -6.464714,-0.28529 c -0.90995,-0.43083 -0.72704,0.63617 0,0 z m 7.803325,0 c -0.909941,-0.43083 -0.727054,0.63617 0,0 z m 12.291423,-1.07811 c -0.644126,-0.1297 0.4327,1.29397 0,0 z m 34.814841,0 c -0.644126,-0.1297 0.4327,1.29397 0,0 z m -58.55967,-0.22832 c -2.17784,-2.84051 -1.03044,0.28828 0.5581,0.4895 l -0.18968,-0.31785 -0.36842,-0.17165 z m 24.254164,-5.9848 c 2.05592,-0.43964 -2.961451,0.53909 -0.957414,2.75226 -0.02339,2.46068 0.13971,3.37694 0.238585,0.20302 0.03933,-0.99006 -0.156878,-2.2484 0.718829,-2.95528 z m 34.605634,5.00964 c -0.644133,-0.12968 0.432715,1.29396 0,0 z m -33.904511,-2.27532 c -0.416756,1.76596 0.357404,2.01179 0,0 z m 34.900002,1.89819 c -0.660563,-1.2477 -0.810834,0.68752 0,0 z m 4.693104,-0.44574 c 2.391222,0.0927 7.124039,-8.414435 3.843025,-3.46732 -0.276669,1.49594 -8.236742,5.28388 -3.843025,3.46732 z m -5.297955,-0.54984 c -0.491546,-3.06702 -1.050049,0.59483 0,0 z M -102.4696,43.57778 c 1.71903,-1.5453 -3.34421,2.23401 0,0 z m 67.30369,-0.33513 c 2.158198,-2.66322 -2.760798,2.6634 0,0 z m -73.44892,0.13306 c 1.23711,-3.7894 8.796701,-6.842079 9.258501,-7.766389 -3.244321,2.043415 -9.281001,4.375759 -9.347841,8.437309 l 0.0893,-0.67092 z m 3.66918,0.0174 c 3.84744,-1.6924 -5.25019,1.57119 0,0 z m 6.095791,-1.96247 c -2.052731,-0.39576 -3.237761,1.70909 -0.51451,0.31549 l 0.51451,-0.31549 z m -7.708211,-0.0684 c 0.85624,-1.36534 -1.94612,1.9868 0,0 z m 35.676935,-0.52652 c 1.722766,-2.423078 -2.353715,2.42954 0,0 z m 27.052545,0.21429 c -1.602058,0.0143 -0.312382,0.88344 0,0 z m -61.22884,-0.89124 c 0.67267,-1.32502 -1.77465,2.02701 0,0 z m 34.026231,-0.0752 c 1.43304,-2.145653 -2.285081,2.35675 0,0 z m 38.557749,-1.516099 c -3.563171,-1.008843 0.217804,1.007119 0.07303,0.06771 l -0.07302,-0.06772 c 0,0 -3e-6,3e-6 -3e-6,3e-6 z m -2.842524,-0.289117 c -1.723753,-2.274099 -1.216681,0.541886 0,0 z M -69.24325,37.05401 c 0.182339,-4.174547 3.338663,-1.968776 5.680239,-2.260482 -1.313672,-3.570061 2.10659,-5.148849 5.072099,-3.665226 1.130431,-3.242841 -1.536221,-9.457555 4.133236,-8.908836 0.167458,-5.035255 -2.888877,-10.00535 -5.549474,-14.2552665 -3.068898,-4.668817 -6.568696,-9.251022 -8.662633,-14.421931 0.709734,-2.645739 0.215857,-5.8367945 -1.980143,-2.258161 -1.017487,2.313334 -5.106575,6.653673 -3.225428,1.337802 -1.399628,-1.023573 -6.475378,2.805312 -7.801964,5.336408 -2.753251,4.231106 -3.255637,9.446112 -5.891898,13.7387985 -1.854784,3.584146 -3.95191,9.695901 -0.585055,12.815311 4.356011,-0.350612 10.572499,-1.45119 12.961423,-5.768165 2.307324,-3.415487 3.172514,-7.784944 6.397462,-10.5281745 1.069376,-2.174289 6.82483,-4.205642 3.642379,-0.328446 -3.511317,3.2673955 3.743568,4.8681595 3.963401,8.6787345 1.074502,3.520283 0.665113,9.667391 -4.323899,9.394415 -4.338138,0.916078 -10.201174,8.932644 -3.829745,11.093219 l 0,0 z M -84.987148,23.761415 c 0.378123,-2.129605 1.006308,0.548671 0,0 z m 10.804606,-7.56014 c 1.018636,-1.660925 1.224126,-0.373594 0,0 z m 43.782775,19.881106 c 1.71206,-0.844861 5.470146,-4.682522 5.017581,-4.726284 -1.401412,2.174336 -6.440838,5.2229 -6.661834,5.62594 0.563459,-0.270946 1.105147,-0.583927 1.644253,-0.899656 z m -65.842172,-1.414522 c 1.42384,-1.041183 -2.69875,1.015614 0,0 z m 67.52878,-0.601738 c 1.433028,-2.145655 -2.28509,2.356787 0,0 z m -64.90267,-0.199259 c -2.05691,-0.720854 -0.11684,0.700606 0,0 z m 4.068799,-0.560873 c -0.813003,0.223305 -0.296429,1.68023 0,0 z m -2.568157,0.260004 c -2.056952,-0.720881 -0.11685,0.700612 0,0 z m 1.991049,-0.778563 c -1.041556,-0.650801 -1.104018,2.146115 0,0 z m 16.303892,-0.885415 c -2.340881,-0.491282 1.185195,2.93218 0,0 z m 47.696458,-0.468494 c 0.672661,-1.324986 -1.774653,2.027002 0,0 z m -24.012768,-2.183338 c -1.059883,-2.154999 0.439591,3.040055 0,0 z m 26.390346,-0.327986 c 1.413079,-3.519113 -1.949363,3.331127 0,0 z M -51.078829,28.63899 c -0.0047,-3.694219 3.352594,-6.838962 5.476943,-10.057777 2.851714,-3.315932 6.164064,-6.187184 9.411735,-9.1015755 -5.288975,3.8100275 -9.831008,8.6979425 -13.383607,14.1203075 -1.51395,-0.704069 -2.820572,5.48382 -1.505071,5.039045 z m -17.251219,-1.492848 c 1.433031,-2.145655 -2.285088,2.356783 0,0 z m -0.411907,-0.52652 c 0.672659,-1.324984 -1.774654,2.027004 0,0 z m 46.155727,-0.676954 c -1.263623,0.546323 0.187685,1.818361 0,0 z m -11.564782,-0.46693 c -0.02554,-1.27806 -0.797915,1.74454 0,0 z m 2.886763,-0.611717 c 0.662489,-0.962425 -4.397227,0.91065 -0.591002,0.219167 l 0.591002,-0.219167 z m 8.908731,-0.181241 c -0.644135,-0.129689 0.432718,1.293969 0,0 z m -5.747949,-2.591796 c -1.970203,0.39787 -4.919331,2.876975 -1.463816,0.901934 0.507103,-0.266619 1.020948,-0.532973 1.463816,-0.901934 z m 6.048077,1.388322 c -0.644135,-0.129691 0.432719,1.293971 0,0 z m -68.344623,-0.224677 c 0.281809,-1.881849 -0.856303,-7.008769 -1.410419,-2.516824 -0.244622,0.669532 0.274417,4.438034 1.410419,2.516824 z m 24.880106,0.21087 c 1.837883,0.167738 2.281605,-3.490557 3.017277,-0.924169 1.551007,-1.204266 1.833878,-6.017294 -0.660453,-4.950394 1.658408,-3.079363 -1.520791,-0.940726 -0.976075,1.161088 -1.52071,-2.048357 2.474418,-4.223032 -0.738036,-4.770826 -0.05969,5.545633 -2.799549,-5.0976515 -5.952535,-1.442268 -0.950836,2.505912 2.161336,-1.712205 0.487878,1.382648 -1.003753,4.633794 1.322346,-4.6170665 3.074544,-0.426053 1.559774,2.911684 2.793631,8.256912 1.113624,9.977059 0.211227,-0.0024 0.422621,-0.0048 0.633776,-0.0071 z m 2.80225,-2.697772 c -0.773532,-2.486488 1.066075,-2.947218 0.817505,-0.325352 0.397735,0.605789 -0.575618,0.530844 -0.817505,0.325352 z m -2.221757,-1.199446 c -1.06723,-2.07385 -0.152652,-3.458164 0.276412,-0.440744 0.363293,0.102489 0.340765,1.806883 -0.276412,0.440744 z m 1.261348,-2.897945 c 0.415248,-1.59262 1.271055,0.235144 0,0 z m 38.6461,5.661249 c 0.978863,-2.017145 4.163669,-2.183668 3.176549,0.752831 2.48283,-6.45145 -8.561765,2.468108 -3.595153,-0.497036 l 0.418604,-0.255795 0,0 z M -50.852277,21.52165 c -2.320934,-0.923365 1.702053,2.021835 0,0 z m -14.776619,0.509726 c 1.404352,-2.69408 -1.460636,-0.334611 0.04387,0.283188 l -0.04387,-0.283188 z m 39.256632,-0.490233 c 2.376296,-0.466808 7.237966,-7.135822 3.440614,-2.789805 -0.625225,0.842574 -5.70488,3.757702 -3.440614,2.789805 z m 2.049244,-2.142368 c 0.672661,-1.324986 -1.774653,2.027002 0,0 z m -20.446984,-0.827389 c 2.158199,-2.663218 -2.760802,2.663398 0,0 z m -1.800768,-1.203474 c 1.722763,-2.423085 -2.35371,2.429551 0,0 z M -90.459103,16.61574 c -2.341993,-2.420767 1.176545,2.123575 0,0 z m 21.678864,0.399776 c -0.246834,-1.603359 -2.489182,-1.000879 -0.324732,-0.308005 -1.850848,0.433724 -0.24032,0.718791 0.324732,0.308005 z m -21.378736,-1.603251 c -2.342021,-2.420789 1.176565,2.123591 0,0 z m 45.989227,-0.451303 c 1.722759,-2.423082 -2.353712,2.429555 0,0 z M -65.14494,14.122291 c 2.356669,-2.211897 -4.848074,-2.784724 -1.580219,-5.9973375 0.822112,-1.722926 -4.39965,3.1936565 -0.991952,4.1837585 0.163486,0.387246 3.153215,3.095895 2.572171,1.813579 z m -2.473072,-2.245232 c -0.856246,-1.36533 1.946115,1.9868 0,0 z M -67.2796,8.0778225 c 1.018636,-1.660927 1.224128,-0.373599 0,0 z m 39.913979,5.1946315 c 2.9232,-2.435325 -5.300321,3.196963 -0.956062,-0.510411 2.296296,-1.286768 3.843722,-2.8145195 0.525405,-0.774416 -2.158038,1.131822 -3.577651,4.365508 -0.200081,1.74777 0.219605,-0.140745 0.419139,-0.310701 0.630738,-0.462943 z m -62.423574,1.086771 c -1.984833,-1.882798 0.607073,1.607416 0,0 z m 58.86336,-0.07522 c 0.672659,-1.324982 -1.774654,2.027005 0,0 z M -38.16719,11.88963 c -1.828325,1.301758 -3.596581,3.741944 -0.8343,0.867509 l 0.426493,-0.424745 0.407807,-0.442764 z m 10.842891,2.093506 c 0.856244,-1.365328 -1.946115,1.986799 0,0 z m -61.457619,-1.467304 c 0.560854,-2.6536915 4.110509,-7.9710555 2.897624,-9.1201645 -0.574292,1.668661 -5.438238,9.0046405 -2.897624,9.1201645 z m 59.956979,-0.337908 c 0.672657,-1.324979 -1.774655,2.027006 0,0 z m 8.26173,-0.513544 c -1.138003,-1.576803 0.246262,1.655055 0,0 z m -4.479635,0.256552 c -0.909844,-0.430829 -0.727207,0.63605 0,0 z m 1.662667,-0.316444 c -1.991089,-0.519816 -0.429829,0.611796 0,0 z m -47.462674,-0.630035 c 0.856246,-1.3653305 -1.946115,1.9868 0,0 z m 33.914457,0 c 0.856246,-1.3653305 -1.946113,1.986798 0,0 z m 15.043145,0.32726 c -2.056956,-0.720878 -0.116859,0.700604 0,0 z m -1.056699,-1.18599 c -0.909847,-0.4308305 -0.727207,0.63605 0,0 z m 1.662666,-0.3164445 c -1.991089,-0.519816 -0.429828,0.6117975 0,0 z m 2.943622,-1.283849 c 2.522142,-1.44237 -3.046417,-3.730805 0.57717,-1.361695 -0.0628,1.114802 -3.065188,2.9635785 -0.57717,1.361695 z m -15.929866,-0.194749 c -0.796177,-0.32491 -1.739885,1.330205 -0.536064,0.426127 l 0.536064,-0.426127 z m 2.27508,-1.258411 c -2.353992,0.572954 -2.140859,1.837037 0,0 z m -35.250869,8.9e-4 c 0.856243,-1.365329 -1.946115,1.986803 0,0 z m 37.477708,-0.727714 c -1.688174,-0.253853 -1.490758,1.294394 0,0 z m 1.419356,-0.431884 c -0.909855,-0.43082 -0.7272,0.636043 0,0 z m 1.200512,-0.300868 c -0.909845,-0.430831 -0.727207,0.636051 0,0 z m 2.861593,-0.330885 c -1.779969,-0.36153 -1.685356,0.437688 0,0 z m 2.240581,0.03002 c -0.909846,-0.43083 -0.727204,0.63605 0,0 z m -37.734836,-1.436162 c -1.018636,-1.660927 -1.224128,-0.373599 0,0 z m -24.610491,-2.594223 c -0.463518,-1.00376499 -0.623274,1.106511 0,0 z m 3.151343,-5.080527 c 0.337386,-1.977629 7.598071,-5.49261 3.308926,-4.399453 -0.598356,0.762096 -4.511438,3.930565 -3.308926,4.399453 z m 15.635312,-0.08073 c -0.865249,-1.717519 -2.731431,-0.591242 0,0 z m -0.929043,-2.360467 c -1.0684,-1.254713 -1.710573,1.347937 0,0 z m -0.513891,-2.147213 c -0.862389,0.214121 0.223243,1.429211 0,0 z m -7.744222,-0.259737 c 2.113972,0.287724 8.11391,-4.1461685 3.046242,-2.6573845 -1.083865,0.968132 -6.574091,1.7403745 -3.046242,2.6573845 z m 5.256834,-1.203474 c 1.433029,-2.1456555 -2.285088,2.356783 0,0 z m 2.850504,0.149992 c 0.989916,-2.6280625 -1.99527,1.052156 0,0 z m -0.515695,-2.8697425 c -0.832637,-1.790628 0.199051,2.086945 0,0 z m 17.596483,86.338005 c 1.084884,-1.28705 -1.968029,-2.89625 -0.786235,-0.47949 -1.761797,-3.39533 1.262818,-3.44603 2.906422,-4.90338 1.6291,1.03696 -2.2171,-0.23581 -0.824376,1.8403 -2.733633,0.57046 0.09425,0.83826 -0.741995,3.08442 1.190699,0.19961 -0.214682,1.09086 -0.553816,0.45815 z m 5.954743,-0.77776 c 1.758974,-0.58654 0.29851,0.6413 0,0 z m 1.299238,-0.27712 c 0.349979,-1.03881 0.117091,1.36996 0,0 z m 3.190751,-2.23144 c 0.76541,-1.83822 0.03071,1.78345 0,0 z m 2.788113,0.48349 c 1.114522,-1.20266 0.816063,0.57007 0,0 z m -28.164639,-1.3861 c 0.22331,-1.66608 0.223343,1.66617 0,0 z m 9.256579,-0.15043 c 1.90208,-2.22013 -0.394885,1.76992 0,0 z m -2.249498,-0.32232 c -1.225299,-3.20212 2.656673,1.83902 0,0 z m 6.021035,0.20422 c 1.658189,-1.49342 -3.128427,-1.53633 -0.263145,-2.05726 0.945699,0.32134 2.591755,2.60008 0.263145,2.05726 z m 10.691196,-0.34493 c -2.351889,-2.70519 2.735383,2.23043 0,0 z m -2.307552,0.0117 c 1.275086,-2.44982 1.332376,0.44342 0,0 z m -16.206908,-0.60174 c 2.08615,-2.10391 -1.079765,1.84081 0,0 z m 19.248375,-0.25635 c -0.93754,-3.62327 3.189863,1.62422 0,0 z m 1.310389,-0.14832 c -0.90392,-1.22584 -2.002213,-1.41651 0,0 z m -15.906781,-0.49567 c 2.701405,-1.39074 2.322797,0.22209 0,0 z m 13.505757,-0.39511 c 0.687299,-1.5904 -1.687998,0.18694 -0.28757,-2.1395 0.485559,1.92047 4.169382,-1.24308 1.319874,1.34197 l -0.572448,0.45351 -0.459856,0.34402 z M -54.44913,66.36066 c 1.758975,-0.58655 0.29851,0.6413 0,0 z m 11.020827,-0.41688 c -3.927424,0.6683 -1.327117,-8.3351 -0.976803,-4.48614 -1.56463,1.22357 2.060239,-0.18889 0.618979,2.36171 -0.82371,2.8093 1.511958,-1.85061 0.740522,1.95046 l -0.158753,0.30798 -0.223945,-0.13401 0,0 z m 6.095709,0.13394 c -0.108781,-1.92464 1.767497,-1.12349 0,0 z m -0.834596,-0.6343 c 0.760047,-1.51945 1.21976,-0.74663 0,0 z m -2.737731,-0.35882 c 0.261319,-2.03626 1.294511,0.47851 0,0 z m 2.137476,-0.44814 c 1.114504,-1.20267 0.816082,0.57005 0,0 z M -57.277428,51.9678 c 0.869015,-3.57274 0.879598,-6.609 -1.093269,-9.4754 1.697574,-1.64654 5.094321,-2.0254 3.345854,-5.456635 2.437114,-1.172191 4.153477,6.710215 0.0076,6.926035 1.295731,2.56188 0.28142,9.02445 -2.190048,8.81925 l -0.07012,-0.81325 4e-6,0 z m 0.889396,-0.4513 c -0.765419,-1.83823 -0.0307,1.78348 0,0 z m 0.118059,-2.76423 c -0.644135,-0.12968 0.432713,1.29396 0,0 z m 1.210857,-2.27118 c -0.415204,1.55406 0.359853,1.86806 0,0 z m 0.927182,-6.25512 c -0.813005,0.2233 -0.296422,1.68023 0,0 z m 0.486591,-2.577953 c -0.778131,-0.80326 -1.462449,0.881486 0,0 z m -29.541038,5.123023 c -3.318996,-1.22275 -5.789915,-1.24309 -8.847883,-2.80705 -4.829045,0.95005 -1.909205,-3.206672 1.154659,-2.002254 1.556221,-0.517607 4.550864,2.814704 3.805063,1.231874 0.551913,1.12813 8.714369,3.75595 3.888161,3.57743 z m -0.150063,-0.88233 c -1.723719,-2.27413 -1.21677,0.54179 0,0 z m -1.650704,-0.41912 c -0.872185,-1.1232 -1.403298,0.63561 0,0 z m -9.999331,-2.64598 c -0.6441,-0.129709 0.4327,1.29397 0,0 z m 1.44569,0.35728 c 3.398422,-0.13975 1.24646,-1.292623 -0.24019,-0.15758 -0.40888,0.47238 0.35485,0.56187 0.24019,0.15758 z m 11.783515,0.99068 c 1.616917,-0.25148 1.435409,0.34748 0,0 z m -1.78387,-0.45452 c 1.62141,-0.86534 0.777342,0.6699 0,0 z m 3.806235,0.0656 c -0.566968,-1.076889 2.611393,1.1123 0,0 z m -5.070653,-0.352 c -1.790819,-0.774816 2.105322,0.33515 0,0 z m 6.721356,0.0511 c -0.75741,-1.300766 2.308885,1.32289 0,0 z m 1.200512,-0.30087 c -0.75741,-1.300766 2.308885,1.32289 0,0 z m -6.204725,-0.31422 c -5.200027,0.0917 -5.072731,-7.788096 0.326254,-7.106895 4.041778,-2.369237 9.935215,0.79608 8.570359,5.589657 -2.596852,1.178076 -6.065068,1.960828 -8.896613,1.517238 z m 7.405237,0.0134 c -0.72304,-1.139139 1.708884,1.13963 0,0 z m -11.14225,-0.132678 c -1.544591,-1.418011 0.649247,-2.329519 0,0 z m 11.931809,-0.104543 c 0.694824,-1.278172 1.91509,0.356151 0,0 z m 3.07382,-1.492775 c -0.856247,-1.365334 1.946114,1.986796 0,0 z m 45.345061,-1.353909 c 3.603572,-3.55121 -2.502561,2.782457 -0.266785,0.284948 l 0.178386,-0.190531 0.0884,-0.09442 z m -61.644453,0.287892 c 1.142544,-1.599269 -0.343111,1.318981 0,0 z m -0.296685,-2.064924 c -0.296404,-1.456286 3.824915,-4.372161 1.487302,-1.143334 -0.247582,0.517088 -2.289791,3.906193 -1.487302,1.143334 z m 2.828476,-2.059043 c 2.457965,-1.361355 -0.746665,1.044286 0,0 z m 35.376813,-0.225652 c 2.662418,-1.161299 1.132667,1.438195 0,0 z m -33.876173,-0.376085 c 1.582737,-0.91453 0.928939,0.256781 -0.138749,0.236485 l 0.138749,-0.236485 z m 9.106302,-0.134579 c -0.762348,-1.914585 -9.262367,0.386361 -5.070524,-2.132556 2.190431,0.732164 6.768714,0.01828 3.341215,-2.623773 2.106831,-0.801436 -1.49556,-1.693467 1.587822,-1.298278 1.939017,1.39207 -0.95812,1.074625 0.920578,2.602965 -0.222965,3.124033 -0.413519,-2.94101 -1.186917,0.735694 -0.19385,0.846273 1.830164,2.966888 0.407826,2.715948 z m -1.753168,-1.520199 c -2.649478,-1.555361 -4.608363,1.078173 -0.709399,0.302226 l 0.392917,-0.08571 0.316482,-0.216516 z m -2.471929,-0.06546 c 1.864731,-0.353836 1.545144,0.418972 0,0 z m 5.623273,1.601996 c 1.114514,-1.202663 0.816073,0.570058 0,0 z m -11.204777,-0.383206 c -0.426261,-0.970157 2.324965,-0.916441 0,0 z m 2.444792,-0.0049 c 1.919551,-0.575389 -0.388436,0.699806 0,0 z m -1.144237,-0.697092 c 1.443417,-2.281105 -0.692024,2.096147 0,0 z m 0.970035,-0.300869 c 1.807044,-2.043722 -0.373092,1.761308 0,0 z m 8.863251,-0.601737 c -1.487314,-2.086978 2.555937,-3.482706 1.204177,-0.633113 -1.067442,-2.429814 -0.686512,2.477052 -1.204177,0.633113 z m 28.93173,-0.391854 c 0.998087,-2.275209 -1.591434,1.185852 -0.427562,-1.628804 2.445837,-2.19657 1.742567,-7.571663 4.861882,-10.48901 2.471614,-0.99259 4.025064,-3.259607 6.799089,-3.597953 -2.451092,3.490334 -5.971937,6.351945 -7.941447,9.872887 -0.08756,1.711514 -1.311266,7.440692 -3.291962,5.84288 l 0,0 z m 5.166853,-12.304439 c -2.204426,-0.0807 -0.534436,2.611968 0,0 z m -1.013574,0.84882 c 1.018638,-1.660937 1.224131,-0.373596 0,0 z m 5.110846,-1.915546 c 1.793641,-2.5047 -4.711588,4.293671 -0.339381,0.354678 l 0.180447,-0.18858 0.158934,-0.166098 z m -1.659375,1.126536 c 2.294183,-2.319199 -1.435344,2.090325 0,0 z m 1.656406,-1.962534 c 0.523254,-1.531533 -1.612957,1.673632 0,0 z m -36.15345,12.934672 c -1.158016,-1.631403 2.234309,1.772067 0,0 z m -14.874002,-0.110837 c 3.215968,-2.331407 1.335945,1.096233 -1.067996,0.13405 l 1.013199,-0.126728 0.0548,-0.0073 -3e-6,-2.2e-5 z m 15.87124,0.04519 c -2.148146,-1.740096 2.045324,-2.183632 0,0 z m -13.481127,-0.513342 c 0.676217,-1.72234 3.370609,-0.644653 0,0 z m 2.08469,-0.650574 c 1.645032,-2.40838 3.308821,-0.408133 0,0 z m 8.635842,0.07106 c 0.132827,-3.450748 2.760301,0.633323 0,0 z m -6.193281,-1.362291 c 0.511033,-1.245821 2.593664,-1.067238 3.048545,-1.686573 -0.300614,0.963071 -2.060562,2.839246 -3.048545,1.686573 z m 0.490727,-0.384297 c -0.644133,-0.129689 0.432713,1.293972 0,0 z m 0.600256,-0.300868 c -0.644133,-0.12969 0.432713,1.293972 0,0 z m 1.200512,-0.601737 c -0.644135,-0.129694 0.43272,1.293973 0,0 z m 5.89499,1.381372 c -3.65172,-0.313954 1.190798,-1.255968 3e-6,4e-6 l -3e-6,-4e-6 z m 1.703316,0.238971 c -2.17442,-0.292443 -0.08655,-1.17786 0,0 z m -4.96978,-0.494291 c 2.573297,-1.436655 -0.566109,1.146661 0,0 z m 18.550428,0.05862 c 1.467226,-1.916193 1.328304,1.701681 0,0 z m -18.584492,-0.938867 c -2.885376,-1.779256 1.123271,-0.27429 0.667078,-3.036885 0.775068,-2.066124 2.412099,-0.786719 0.414363,0.35022 0.292402,1.743202 0.503803,2.863272 -0.376981,1.484827 0.822721,0.160448 -1.300518,2.535431 -0.70446,1.201838 z m 5.003844,-0.490259 c -0.177755,-1.369024 1.743384,1.166101 0,0 z m 28.212026,-12.486049 c 2.29331,-2.5075245 -1.603228,2.36183 0,0 z m -24.366637,-24.425537 c 1.919456,-0.575363 -0.38842,0.699832 0,0 z m -0.163111,-0.604709 c 2.284186,-0.626059 0.220728,0.667185 0,0 z"
         id="path3358"
         inkscape:connector-curvature="0" />
    </g>
    <g
       id="g17212">
      <g
         id="g63957"
         transform="translate(-672.7548,133.45564)">
        <g
           transform="matrix(0.49405066,0,0,0.49405066,571.79554,-164.37056)"
           id="g63857">
          <use
             id="use63859"
             xlink:href="#Layer2_1_FILL-1"
             x="0"
             y="0"
             width="1280"
             height="800" />
        </g>
        <g
           transform="matrix(0.49405066,0,0,0.49405066,571.79554,-164.37056)"
           id="g63871">
          <use
             id="use63873"
             xlink:href="#Layer1_2_FILL-3"
             x="0"
             y="0"
             width="1280"
             height="800" />
        </g>
        <g
           transform="matrix(0.49405066,0,0,0.49405066,571.79554,-164.37056)"
           id="g63879">
          <use
             id="use63881"
             xlink:href="#Layer0_1_FILL-29"
             x="0"
             y="0"
             width="1280"
             height="800" />
        </g>
      </g>
    </g>
  </g>
  <path
     style="fill:#000000"
     d=""
     id="path3356"
     inkscape:connector-curvature="0" />
  <path
     style="fill:#000000"
     d=""
     id="path3354"
     inkscape:connector-curvature="0" />
</svg>
